<?xml version="1.0" encoding="UTF-8" standalone="no"?>
<!DOCTYPE svg PUBLIC "-//W3C//DTD SVG 1.1//EN"
"http://www.w3.org/Graphics/SVG/1.1/DTD/svg11.dtd">
<svg viewBox="0 0 1286 909" version="1.1" xmlns="http://www.w3.org/2000/svg" xmlns:xlink="http://www.w3.org/1999/xlink">
<defs>
<style type="text/css"><![CDATA[
.g0{
}
]]></style>
</defs>
<path d="M47.1,44h.7v-.7h-.7V44Z" class="g0"/>
<path d="M47.1,44h.7v-.7h-.7V44Z" class="g0"/>
<path d="M47.8,44H274.1v-.7H47.8V44Z" class="g0"/>
<path d="M274.1,44h.7v-.7h-.7V44Z" class="g0"/>
<path d="M274.8,44H599.1v-.7H274.8V44Z" class="g0"/>
<path d="M599.1,44h.8v-.7h-.8V44Z" class="g0"/>
<path d="M599.9,44h638.3v-.7H599.9V44Z" class="g0"/>
<path d="M1238.2,44h.8v-.7h-.8V44Z" class="g0"/>
<path d="M1238.2,44h.8v-.7h-.8V44Z" class="g0"/>
<path d="M47.1,79.2h.7V44h-.7V79.2Z" class="g0"/>
<path d="M274.1,79.2h.7V44h-.7V79.2Z" class="g0"/>
<path d="M599.1,79.2h.8V44h-.8V79.2Z" class="g0"/>
<path d="M1238.2,79.2h.8V44h-.8V79.2Z" class="g0"/>
<path d="M47.1,79.9h.7v-.7h-.7v.7Z" class="g0"/>
<path d="M47.8,79.9H274.1v-.7H47.8v.7Z" class="g0"/>
<path d="M274.1,79.9h.7v-.7h-.7v.7Z" class="g0"/>
<path d="M274.8,79.9H599.1v-.7H274.8v.7Z" class="g0"/>
<path d="M599.1,79.9h.8v-.7h-.8v.7Z" class="g0"/>
<path d="M599.9,79.9h638.3v-.7H599.9v.7Z" class="g0"/>
<path d="M1238.2,79.9h.8v-.7h-.8v.7Z" class="g0"/>
<path d="M47.1,150.3h.7V79.9h-.7v70.4Z" class="g0"/>
<path d="M274.1,150.3h.7V79.9h-.7v70.4Z" class="g0"/>
<path d="M599.1,150.3h.8V79.9h-.8v70.4Z" class="g0"/>
<path d="M1238.2,150.3h.8V79.9h-.8v70.4Z" class="g0"/>
<path d="M47.1,151.1h.7v-.8h-.7v.8Z" class="g0"/>
<path d="M47.8,151.1H274.1v-.8H47.8v.8Z" class="g0"/>
<path d="M274.1,151.1h.7v-.8h-.7v.8Z" class="g0"/>
<path d="M274.8,151.1H599.1v-.8H274.8v.8Z" class="g0"/>
<path d="M599.1,151.1h.8v-.8h-.8v.8Z" class="g0"/>
<path d="M599.9,151.1h638.3v-.8H599.9v.8Z" class="g0"/>
<path d="M1238.2,151.1h.8v-.8h-.8v.8Z" class="g0"/>
<path d="M47.1,186.1h.7v-35h-.7v35Z" class="g0"/>
<path d="M274.1,186.1h.7v-35h-.7v35Z" class="g0"/>
<path d="M599.1,186.1h.8v-35h-.8v35Z" class="g0"/>
<path d="M1238.2,186.1h.8v-35h-.8v35Z" class="g0"/>
<path d="M47.1,186.8h.7v-.7h-.7v.7Z" class="g0"/>
<path d="M47.8,186.8H274.1v-.7H47.8v.7Z" class="g0"/>
<path d="M274.1,186.8h.7v-.7h-.7v.7Z" class="g0"/>
<path d="M274.8,186.8H599.1v-.7H274.8v.7Z" class="g0"/>
<path d="M599.1,186.8h.8v-.7h-.8v.7Z" class="g0"/>
<path d="M599.9,186.8h638.3v-.7H599.9v.7Z" class="g0"/>
<path d="M1238.2,186.8h.8v-.7h-.8v.7Z" class="g0"/>
<path d="M47.1,257.2h.7V186.8h-.7v70.4Z" class="g0"/>
<path d="M274.1,257.2h.7V186.8h-.7v70.4Z" class="g0"/>
<path d="M599.1,257.2h.8V186.8h-.8v70.4Z" class="g0"/>
<path d="M1238.2,257.2h.8V186.8h-.8v70.4Z" class="g0"/>
<path d="M47.1,257.9h.7v-.7h-.7v.7Z" class="g0"/>
<path d="M47.8,257.9H274.1v-.7H47.8v.7Z" class="g0"/>
<path d="M274.1,257.9h.7v-.7h-.7v.7Z" class="g0"/>
<path d="M274.8,257.9H599.1v-.7H274.8v.7Z" class="g0"/>
<path d="M599.1,257.9h.8v-.7h-.8v.7Z" class="g0"/>
<path d="M599.9,257.9h638.3v-.7H599.9v.7Z" class="g0"/>
<path d="M1238.2,257.9h.8v-.7h-.8v.7Z" class="g0"/>
<path d="M47.1,310.6h.7V257.9h-.7v52.7Z" class="g0"/>
<path d="M274.1,310.6h.7V257.9h-.7v52.7Z" class="g0"/>
<path d="M599.1,310.6h.8V257.9h-.8v52.7Z" class="g0"/>
<path d="M1238.2,310.6h.8V257.9h-.8v52.7Z" class="g0"/>
<path d="M47.1,311.3h.7v-.7h-.7v.7Z" class="g0"/>
<path d="M47.8,311.3H274.1v-.7H47.8v.7Z" class="g0"/>
<path d="M274.1,311.3h.7v-.7h-.7v.7Z" class="g0"/>
<path d="M274.8,311.3H599.1v-.7H274.8v.7Z" class="g0"/>
<path d="M599.1,311.3h.8v-.7h-.8v.7Z" class="g0"/>
<path d="M599.9,311.3h638.3v-.7H599.9v.7Z" class="g0"/>
<path d="M1238.2,311.3h.8v-.7h-.8v.7Z" class="g0"/>
<path d="M47.1,381.7h.7V311.3h-.7v70.4Z" class="g0"/>
<path d="M274.1,381.7h.7V311.3h-.7v70.4Z" class="g0"/>
<path d="M599.1,381.7h.8V311.3h-.8v70.4Z" class="g0"/>
<path d="M1238.2,381.7h.8V311.3h-.8v70.4Z" class="g0"/>
<path d="M47.1,382.4h.7v-.7h-.7v.7Z" class="g0"/>
<path d="M47.8,382.4H274.1v-.7H47.8v.7Z" class="g0"/>
<path d="M274.1,382.4h.7v-.7h-.7v.7Z" class="g0"/>
<path d="M274.8,382.4H599.1v-.7H274.8v.7Z" class="g0"/>
<path d="M599.1,382.4h.8v-.7h-.8v.7Z" class="g0"/>
<path d="M599.9,382.4h638.3v-.7H599.9v.7Z" class="g0"/>
<path d="M1238.2,382.4h.8v-.7h-.8v.7Z" class="g0"/>
<path d="M47.1,435.2h.7V382.4h-.7v52.8Z" class="g0"/>
<path d="M274.1,435.2h.7V382.4h-.7v52.8Z" class="g0"/>
<path d="M599.1,435.2h.8V382.4h-.8v52.8Z" class="g0"/>
<path d="M1238.2,435.2h.8V382.4h-.8v52.8Z" class="g0"/>
<path d="M47.1,436h.7v-.8h-.7v.8Z" class="g0"/>
<path d="M47.8,436H274.1v-.8H47.8v.8Z" class="g0"/>
<path d="M274.1,436h.7v-.8h-.7v.8Z" class="g0"/>
<path d="M274.8,436H599.1v-.8H274.8v.8Z" class="g0"/>
<path d="M599.1,436h.8v-.8h-.8v.8Z" class="g0"/>
<path d="M599.9,436h638.3v-.8H599.9v.8Z" class="g0"/>
<path d="M1238.2,436h.8v-.8h-.8v.8Z" class="g0"/>
<path d="M47.1,488.6h.7V436h-.7v52.6Z" class="g0"/>
<path d="M274.1,488.6h.7V436h-.7v52.6Z" class="g0"/>
<path d="M599.1,488.6h.8V436h-.8v52.6Z" class="g0"/>
<path d="M1238.2,488.6h.8V436h-.8v52.6Z" class="g0"/>
<path d="M47.1,489.3h.7v-.7h-.7v.7Z" class="g0"/>
<path d="M47.8,489.3H274.1v-.7H47.8v.7Z" class="g0"/>
<path d="M274.1,489.3h.7v-.7h-.7v.7Z" class="g0"/>
<path d="M274.8,489.3H599.1v-.7H274.8v.7Z" class="g0"/>
<path d="M599.1,489.3h.8v-.7h-.8v.7Z" class="g0"/>
<path d="M599.9,489.3h638.3v-.7H599.9v.7Z" class="g0"/>
<path d="M1238.2,489.3h.8v-.7h-.8v.7Z" class="g0"/>
<path d="M47.1,542.1h.7V489.3h-.7v52.8Z" class="g0"/>
<path d="M274.1,542.1h.7V489.3h-.7v52.8Z" class="g0"/>
<path d="M599.1,542.1h.8V489.3h-.8v52.8Z" class="g0"/>
<path d="M1238.2,542.1h.8V489.3h-.8v52.8Z" class="g0"/>
<path d="M47.1,542.9h.7v-.8h-.7v.8Z" class="g0"/>
<path d="M47.8,542.9H274.1v-.8H47.8v.8Z" class="g0"/>
<path d="M274.1,542.9h.7v-.8h-.7v.8Z" class="g0"/>
<path d="M274.8,542.9H599.1v-.8H274.8v.8Z" class="g0"/>
<path d="M599.1,542.9h.8v-.8h-.8v.8Z" class="g0"/>
<path d="M599.9,542.9h638.3v-.8H599.9v.8Z" class="g0"/>
<path d="M1238.2,542.9h.8v-.8h-.8v.8Z" class="g0"/>
<path d="M47.1,595.5h.7V542.9h-.7v52.6Z" class="g0"/>
<path d="M274.1,595.5h.7V542.9h-.7v52.6Z" class="g0"/>
<path d="M599.1,595.5h.8V542.9h-.8v52.6Z" class="g0"/>
<path d="M1238.2,595.5h.8V542.9h-.8v52.6Z" class="g0"/>
<path d="M47.1,596.2h.7v-.7h-.7v.7Z" class="g0"/>
<path d="M47.8,596.2H274.1v-.7H47.8v.7Z" class="g0"/>
<path d="M274.1,596.2h.7v-.7h-.7v.7Z" class="g0"/>
<path d="M274.8,596.2H599.1v-.7H274.8v.7Z" class="g0"/>
<path d="M599.1,596.2h.8v-.7h-.8v.7Z" class="g0"/>
<path d="M599.9,596.2h638.3v-.7H599.9v.7Z" class="g0"/>
<path d="M1238.2,596.2h.8v-.7h-.8v.7Z" class="g0"/>
<path d="M47.1,666.6h.7V596.2h-.7v70.4Z" class="g0"/>
<path d="M274.1,666.6h.7V596.2h-.7v70.4Z" class="g0"/>
<path d="M599.1,666.6h.8V596.2h-.8v70.4Z" class="g0"/>
<path d="M1238.2,666.6h.8V596.2h-.8v70.4Z" class="g0"/>
<path d="M47.1,667.3h.7v-.7h-.7v.7Z" class="g0"/>
<path d="M47.8,667.3H274.1v-.7H47.8v.7Z" class="g0"/>
<path d="M274.1,667.3h.7v-.7h-.7v.7Z" class="g0"/>
<path d="M274.8,667.3H599.1v-.7H274.8v.7Z" class="g0"/>
<path d="M599.1,667.3h.8v-.7h-.8v.7Z" class="g0"/>
<path d="M599.9,667.3h638.3v-.7H599.9v.7Z" class="g0"/>
<path d="M1238.2,667.3h.8v-.7h-.8v.7Z" class="g0"/>
<path d="M47.1,702.5h.7V667.3h-.7v35.2Z" class="g0"/>
<path d="M274.1,702.5h.7V667.3h-.7v35.2Z" class="g0"/>
<path d="M599.1,702.5h.8V667.3h-.8v35.2Z" class="g0"/>
<path d="M1238.2,702.5h.8V667.3h-.8v35.2Z" class="g0"/>
<path d="M47.1,703.3h.7v-.8h-.7v.8Z" class="g0"/>
<path d="M47.8,703.3H274.1v-.8H47.8v.8Z" class="g0"/>
<path d="M274.1,703.3h.7v-.8h-.7v.8Z" class="g0"/>
<path d="M274.8,703.3H599.1v-.8H274.8v.8Z" class="g0"/>
<path d="M599.1,703.3h.8v-.8h-.8v.8Z" class="g0"/>
<path d="M599.9,703.3h638.3v-.8H599.9v.8Z" class="g0"/>
<path d="M1238.2,703.3h.8v-.8h-.8v.8Z" class="g0"/>
<path d="M47.1,773.5h.7V703.3h-.7v70.2Z" class="g0"/>
<path d="M47.1,774.2h.7v-.7h-.7v.7Z" class="g0"/>
<path d="M47.1,774.2h.7v-.7h-.7v.7Z" class="g0"/>
<path d="M47.8,774.2H274.1v-.7H47.8v.7Z" class="g0"/>
<path d="M274.1,773.5h.7V703.3h-.7v70.2Z" class="g0"/>
<path d="M274.1,774.2h.7v-.7h-.7v.7Z" class="g0"/>
<path d="M274.8,774.2H599.1v-.7H274.8v.7Z" class="g0"/>
<path d="M599.1,773.5h.8V703.3h-.8v70.2Z" class="g0"/>
<path d="M599.1,774.2h.8v-.7h-.8v.7Z" class="g0"/>
<path d="M599.9,774.2h638.3v-.7H599.9v.7Z" class="g0"/>
<path d="M1238.2,773.5h.8V703.3h-.8v70.2Z" class="g0"/>
<path d="M1238.2,774.2h.8v-.7h-.8v.7Z" class="g0"/>
<path d="M1238.2,774.2h.8v-.7h-.8v.7Z" class="g0"/>
</svg>