<?xml version="1.0" encoding="UTF-8" standalone="no"?>
<!DOCTYPE svg PUBLIC "-//W3C//DTD SVG 1.1//EN"
"http://www.w3.org/Graphics/SVG/1.1/DTD/svg11.dtd">
<svg viewBox="0 0 1286 909" version="1.1" xmlns="http://www.w3.org/2000/svg" xmlns:xlink="http://www.w3.org/1999/xlink">
<defs>
<style type="text/css"><![CDATA[
.g0_1{
fill: #D9D9D9;
}
.g1_1{
}
]]></style>
</defs>
<path fill-rule="evenodd" d="M47.8,137.7H155.1V115.9H47.8v21.8Z" class="g0_1"/>
<path fill-rule="evenodd" d="M55.7,135.5h91.5V118.1H55.7v17.4Z" class="g0_1"/>
<path fill-rule="evenodd" d="M155.8,137.7h205V115.9h-205v21.8Z" class="g0_1"/>
<path fill-rule="evenodd" d="M163.7,135.5H352.9V118.1H163.7v17.4Z" class="g0_1"/>
<path fill-rule="evenodd" d="M361.5,137.7H772.4V115.9H361.5v21.8Z" class="g0_1"/>
<path fill-rule="evenodd" d="M369.4,135.5H764.5V118.1H369.4v17.4Z" class="g0_1"/>
<path fill-rule="evenodd" d="M773.1,137.7h465.1V115.9H773.1v21.8Z" class="g0_1"/>
<path fill-rule="evenodd" d="M781,135.5h449.4V118.1H781v17.4Z" class="g0_1"/>
<path d="M47.1,115.9h.7v-.8h-.7v.8Z" class="g1_1"/>
<path d="M47.1,115.9h.7v-.8h-.7v.8Z" class="g1_1"/>
<path d="M47.8,115.9H155.1v-.8H47.8v.8Z" class="g1_1"/>
<path d="M155.1,115.9h.7v-.8h-.7v.8Z" class="g1_1"/>
<path d="M155.8,115.9h205v-.8h-205v.8Z" class="g1_1"/>
<path d="M360.8,115.9h.7v-.8h-.7v.8Z" class="g1_1"/>
<path d="M361.5,115.9H772.4v-.8H361.5v.8Z" class="g1_1"/>
<path d="M772.4,115.9h.7v-.8h-.7v.8Z" class="g1_1"/>
<path d="M773.1,115.9h465.1v-.8H773.1v.8Z" class="g1_1"/>
<path d="M1238.2,115.9h.8v-.8h-.8v.8Z" class="g1_1"/>
<path d="M1238.2,115.9h.8v-.8h-.8v.8Z" class="g1_1"/>
<path d="M47.1,137.7h.7V115.9h-.7v21.8Z" class="g1_1"/>
<path d="M155.1,137.7h.7V115.9h-.7v21.8Z" class="g1_1"/>
<path d="M360.8,137.7h.7V115.9h-.7v21.8Z" class="g1_1"/>
<path d="M772.4,137.7h.7V115.9h-.7v21.8Z" class="g1_1"/>
<path d="M1238.2,137.7h.8V115.9h-.8v21.8Z" class="g1_1"/>
<path d="M47.1,138.4h.7v-.7h-.7v.7Z" class="g1_1"/>
<path d="M47.8,138.4H155.1v-.7H47.8v.7Z" class="g1_1"/>
<path d="M155.1,138.4h.7v-.7h-.7v.7Z" class="g1_1"/>
<path d="M155.8,138.4h205v-.7h-205v.7Z" class="g1_1"/>
<path d="M360.8,138.4h.7v-.7h-.7v.7Z" class="g1_1"/>
<path d="M361.5,138.4H772.4v-.7H361.5v.7Z" class="g1_1"/>
<path d="M772.4,138.4h.7v-.7h-.7v.7Z" class="g1_1"/>
<path d="M773.1,138.4h465.1v-.7H773.1v.7Z" class="g1_1"/>
<path d="M1238.2,138.4h.8v-.7h-.8v.7Z" class="g1_1"/>
<path d="M47.1,191h.7V138.4h-.7V191Z" class="g1_1"/>
<path d="M155.1,191h.7V138.4h-.7V191Z" class="g1_1"/>
<path d="M360.8,191h.7V138.4h-.7V191Z" class="g1_1"/>
<path d="M772.4,191h.7V138.4h-.7V191Z" class="g1_1"/>
<path d="M1238.2,191h.8V138.4h-.8V191Z" class="g1_1"/>
<path d="M47.1,191.8h.7V191h-.7v.8Z" class="g1_1"/>
<path d="M155.1,191.8h.7V191h-.7v.8Z" class="g1_1"/>
<path d="M360.8,191.8h.7V191h-.7v.8Z" class="g1_1"/>
<path d="M772.4,191.8h.7V191h-.7v.8Z" class="g1_1"/>
<path d="M773.1,191.8h465.1V191H773.1v.8Z" class="g1_1"/>
<path d="M1238.2,191.8h.8V191h-.8v.8Z" class="g1_1"/>
<path d="M47.1,262.2h.7V191.8h-.7v70.4Z" class="g1_1"/>
<path d="M155.1,262.2h.7V191.8h-.7v70.4Z" class="g1_1"/>
<path d="M360.8,262.2h.7V191.8h-.7v70.4Z" class="g1_1"/>
<path d="M772.4,262.2h.7V191.8h-.7v70.4Z" class="g1_1"/>
<path d="M1238.2,262.2h.8V191.8h-.8v70.4Z" class="g1_1"/>
<path d="M47.1,262.9h.7v-.7h-.7v.7Z" class="g1_1"/>
<path d="M155.1,262.9h.7v-.7h-.7v.7Z" class="g1_1"/>
<path d="M360.8,262.9h.7v-.7h-.7v.7Z" class="g1_1"/>
<path d="M772.4,262.9h.7v-.7h-.7v.7Z" class="g1_1"/>
<path d="M773.1,262.9h465.1v-.7H773.1v.7Z" class="g1_1"/>
<path d="M1238.2,262.9h.8v-.7h-.8v.7Z" class="g1_1"/>
<path d="M47.1,350.7h.7V262.9h-.7v87.8Z" class="g1_1"/>
<path d="M155.1,350.7h.7V262.9h-.7v87.8Z" class="g1_1"/>
<path d="M360.8,350.7h.7V262.9h-.7v87.8Z" class="g1_1"/>
<path d="M772.4,350.7h.7V262.9h-.7v87.8Z" class="g1_1"/>
<path d="M1238.2,350.7h.8V262.9h-.8v87.8Z" class="g1_1"/>
<path d="M47.1,351.5h.7v-.8h-.7v.8Z" class="g1_1"/>
<path d="M47.8,351.5H155.1v-.8H47.8v.8Z" class="g1_1"/>
<path d="M155.1,351.5h.7v-.8h-.7v.8Z" class="g1_1"/>
<path d="M155.8,351.5h205v-.8h-205v.8Z" class="g1_1"/>
<path d="M360.8,351.5h.7v-.8h-.7v.8Z" class="g1_1"/>
<path d="M361.5,351.5H772.4v-.8H361.5v.8Z" class="g1_1"/>
<path d="M772.4,351.5h.7v-.8h-.7v.8Z" class="g1_1"/>
<path d="M773.1,351.5h465.1v-.8H773.1v.8Z" class="g1_1"/>
<path d="M1238.2,351.5h.8v-.8h-.8v.8Z" class="g1_1"/>
<path d="M47.1,386.7h.7V351.5h-.7v35.2Z" class="g1_1"/>
<path d="M155.1,386.7h.7V351.5h-.7v35.2Z" class="g1_1"/>
<path d="M360.8,386.7h.7V351.5h-.7v35.2Z" class="g1_1"/>
<path d="M772.4,386.7h.7V351.5h-.7v35.2Z" class="g1_1"/>
<path d="M1238.2,386.7h.8V351.5h-.8v35.2Z" class="g1_1"/>
<path d="M47.1,387.4h.7v-.8h-.7v.8Z" class="g1_1"/>
<path d="M47.8,387.4H155.1v-.8H47.8v.8Z" class="g1_1"/>
<path d="M155.1,387.4h.7v-.8h-.7v.8Z" class="g1_1"/>
<path d="M155.8,387.4h205v-.8h-205v.8Z" class="g1_1"/>
<path d="M360.8,387.4h.7v-.8h-.7v.8Z" class="g1_1"/>
<path d="M361.5,387.4H772.4v-.8H361.5v.8Z" class="g1_1"/>
<path d="M772.4,387.4h.7v-.8h-.7v.8Z" class="g1_1"/>
<path d="M773.1,387.4h465.1v-.8H773.1v.8Z" class="g1_1"/>
<path d="M1238.2,387.4h.8v-.8h-.8v.8Z" class="g1_1"/>
<path d="M47.1,563h.7V387.4h-.7V563Z" class="g1_1"/>
<path d="M155.1,563h.7V387.4h-.7V563Z" class="g1_1"/>
<path d="M360.8,563h.7V387.4h-.7V563Z" class="g1_1"/>
<path d="M772.4,563h.7V387.4h-.7V563Z" class="g1_1"/>
<path d="M1238.2,563h.8V387.4h-.8V563Z" class="g1_1"/>
<path d="M47.1,563.8h.7V563h-.7v.8Z" class="g1_1"/>
<path d="M47.8,563.8H155.1V563H47.8v.8Z" class="g1_1"/>
<path d="M155.1,563.8h.7V563h-.7v.8Z" class="g1_1"/>
<path d="M155.8,563.8h205V563h-205v.8Z" class="g1_1"/>
<path d="M360.8,563.8h.7V563h-.7v.8Z" class="g1_1"/>
<path d="M361.5,563.8H772.4V563H361.5v.8Z" class="g1_1"/>
<path d="M772.4,563.8h.7V563h-.7v.8Z" class="g1_1"/>
<path d="M773.1,563.8h465.1V563H773.1v.8Z" class="g1_1"/>
<path d="M1238.2,563.8h.8V563h-.8v.8Z" class="g1_1"/>
<path d="M47.1,585.6h.7V563.8h-.7v21.8Z" class="g1_1"/>
<path d="M155.1,585.6h.7V563.8h-.7v21.8Z" class="g1_1"/>
<path d="M360.8,585.6h.7V563.8h-.7v21.8Z" class="g1_1"/>
<path d="M772.4,585.6h.7V563.8h-.7v21.8Z" class="g1_1"/>
<path d="M1238.2,585.6h.8V563.8h-.8v21.8Z" class="g1_1"/>
<path d="M47.1,586.3h.7v-.7h-.7v.7Z" class="g1_1"/>
<path d="M155.1,586.3h.7v-.7h-.7v.7Z" class="g1_1"/>
<path d="M360.8,586.3h.7v-.7h-.7v.7Z" class="g1_1"/>
<path d="M772.4,586.3h.7v-.7h-.7v.7Z" class="g1_1"/>
<path d="M773.1,586.3h465.1v-.7H773.1v.7Z" class="g1_1"/>
<path d="M1238.2,586.3h.8v-.7h-.8v.7Z" class="g1_1"/>
<path d="M47.1,656.5h.7V586.3h-.7v70.2Z" class="g1_1"/>
<path d="M155.1,656.5h.7V586.3h-.7v70.2Z" class="g1_1"/>
<path d="M360.8,656.5h.7V586.3h-.7v70.2Z" class="g1_1"/>
<path d="M772.4,656.5h.7V586.3h-.7v70.2Z" class="g1_1"/>
<path d="M1238.2,656.5h.8V586.3h-.8v70.2Z" class="g1_1"/>
<path d="M47.1,657.3h.7v-.8h-.7v.8Z" class="g1_1"/>
<path d="M155.1,657.3h.7v-.8h-.7v.8Z" class="g1_1"/>
<path d="M360.8,657.3h.7v-.8h-.7v.8Z" class="g1_1"/>
<path d="M772.4,657.3h.7v-.8h-.7v.8Z" class="g1_1"/>
<path d="M773.1,657.3h465.1v-.8H773.1v.8Z" class="g1_1"/>
<path d="M1238.2,657.3h.8v-.8h-.8v.8Z" class="g1_1"/>
<path d="M47.1,727.7h.7V657.3h-.7v70.4Z" class="g1_1"/>
<path d="M155.1,727.7h.7V657.3h-.7v70.4Z" class="g1_1"/>
<path d="M360.8,727.7h.7V657.3h-.7v70.4Z" class="g1_1"/>
<path d="M772.4,727.7h.7V657.3h-.7v70.4Z" class="g1_1"/>
<path d="M1238.2,727.7h.8V657.3h-.8v70.4Z" class="g1_1"/>
<path d="M47.1,728.4h.7v-.8h-.7v.8Z" class="g1_1"/>
<path d="M155.1,728.4h.7v-.8h-.7v.8Z" class="g1_1"/>
<path d="M360.8,728.4h.7v-.8h-.7v.8Z" class="g1_1"/>
<path d="M772.4,728.4h.7v-.8h-.7v.8Z" class="g1_1"/>
<path d="M773.1,728.4h465.1v-.8H773.1v.8Z" class="g1_1"/>
<path d="M1238.2,728.4h.8v-.8h-.8v.8Z" class="g1_1"/>
<path d="M47.1,750h.7V728.4h-.7V750Z" class="g1_1"/>
<path d="M155.1,750h.7V728.4h-.7V750Z" class="g1_1"/>
<path d="M360.8,750h.7V728.4h-.7V750Z" class="g1_1"/>
<path d="M772.4,750h.7V728.4h-.7V750Z" class="g1_1"/>
<path d="M1238.2,750h.8V728.4h-.8V750Z" class="g1_1"/>
<path d="M47.1,750.8h.7V750h-.7v.8Z" class="g1_1"/>
<path d="M155.1,750.8h.7V750h-.7v.8Z" class="g1_1"/>
<path d="M360.8,750.8h.7V750h-.7v.8Z" class="g1_1"/>
<path d="M772.4,750.8h.7V750h-.7v.8Z" class="g1_1"/>
<path d="M773.1,750.8h465.1V750H773.1v.8Z" class="g1_1"/>
<path d="M1238.2,750.8h.8V750h-.8v.8Z" class="g1_1"/>
<path d="M47.1,772.6h.7V750.8h-.7v21.8Z" class="g1_1"/>
<path d="M155.1,772.6h.7V750.8h-.7v21.8Z" class="g1_1"/>
<path d="M360.8,772.6h.7V750.8h-.7v21.8Z" class="g1_1"/>
<path d="M772.4,772.6h.7V750.8h-.7v21.8Z" class="g1_1"/>
<path d="M1238.2,772.6h.8V750.8h-.8v21.8Z" class="g1_1"/>
<path d="M47.1,773.3h.7v-.7h-.7v.7Z" class="g1_1"/>
<path d="M155.1,773.3h.7v-.7h-.7v.7Z" class="g1_1"/>
<path d="M360.8,773.3h.7v-.7h-.7v.7Z" class="g1_1"/>
<path d="M772.4,773.3h.7v-.7h-.7v.7Z" class="g1_1"/>
<path d="M773.1,773.3h465.1v-.7H773.1v.7Z" class="g1_1"/>
<path d="M1238.2,773.3h.8v-.7h-.8v.7Z" class="g1_1"/>
<path d="M47.1,794.9h.7V773.3h-.7v21.6Z" class="g1_1"/>
<path d="M155.1,794.9h.7V773.3h-.7v21.6Z" class="g1_1"/>
<path d="M360.8,794.9h.7V773.3h-.7v21.6Z" class="g1_1"/>
<path d="M772.4,794.9h.7V773.3h-.7v21.6Z" class="g1_1"/>
<path d="M1238.2,794.9h.8V773.3h-.8v21.6Z" class="g1_1"/>
<path d="M47.1,795.7h.7v-.8h-.7v.8Z" class="g1_1"/>
<path d="M47.8,795.7H155.1v-.8H47.8v.8Z" class="g1_1"/>
<path d="M155.1,795.7h.7v-.8h-.7v.8Z" class="g1_1"/>
<path d="M155.8,795.7h205v-.8h-205v.8Z" class="g1_1"/>
<path d="M360.8,795.7h.7v-.8h-.7v.8Z" class="g1_1"/>
<path d="M361.5,795.7H772.4v-.8H361.5v.8Z" class="g1_1"/>
<path d="M772.4,795.7h.7v-.8h-.7v.8Z" class="g1_1"/>
<path d="M773.1,795.7h465.1v-.8H773.1v.8Z" class="g1_1"/>
<path d="M1238.2,795.7h.8v-.8h-.8v.8Z" class="g1_1"/>
<path d="M47.1,817.5h.7V795.7h-.7v21.8Z" class="g1_1"/>
<path d="M155.1,817.5h.7V795.7h-.7v21.8Z" class="g1_1"/>
<path d="M360.8,817.5h.7V795.7h-.7v21.8Z" class="g1_1"/>
<path d="M772.4,817.5h.7V795.7h-.7v21.8Z" class="g1_1"/>
<path d="M1238.2,817.5h.8V795.7h-.8v21.8Z" class="g1_1"/>
<path d="M47.1,818.2h.7v-.7h-.7v.7Z" class="g1_1"/>
<path d="M155.1,818.2h.7v-.7h-.7v.7Z" class="g1_1"/>
<path d="M360.8,818.2h.7v-.7h-.7v.7Z" class="g1_1"/>
<path d="M772.4,818.2h.7v-.7h-.7v.7Z" class="g1_1"/>
<path d="M773.1,818.2h465.1v-.7H773.1v.7Z" class="g1_1"/>
<path d="M1238.2,818.2h.8v-.7h-.8v.7Z" class="g1_1"/>
<path d="M47.1,839.9h.7V818.2h-.7v21.7Z" class="g1_1"/>
<path d="M155.1,839.9h.7V818.2h-.7v21.7Z" class="g1_1"/>
<path d="M360.8,839.9h.7V818.2h-.7v21.7Z" class="g1_1"/>
<path d="M772.4,839.9h.7V818.2h-.7v21.7Z" class="g1_1"/>
<path d="M1238.2,839.9h.8V818.2h-.8v21.7Z" class="g1_1"/>
<path d="M47.1,840.6h.7v-.8h-.7v.8Z" class="g1_1"/>
<path d="M155.1,840.6h.7v-.8h-.7v.8Z" class="g1_1"/>
<path d="M360.8,840.6h.7v-.8h-.7v.8Z" class="g1_1"/>
<path d="M772.4,840.6h.7v-.8h-.7v.8Z" class="g1_1"/>
<path d="M773.1,840.6h465.1v-.8H773.1v.8Z" class="g1_1"/>
<path d="M1238.2,840.6h.8v-.8h-.8v.8Z" class="g1_1"/>
<path d="M47.1,862.4h.7V840.6h-.7v21.8Z" class="g1_1"/>
<path d="M47.1,863.1h.7v-.7h-.7v.7Z" class="g1_1"/>
<path d="M47.1,863.1h.7v-.7h-.7v.7Z" class="g1_1"/>
<path d="M47.8,863.1H155.1v-.7H47.8v.7Z" class="g1_1"/>
<path d="M155.1,862.4h.7V840.6h-.7v21.8Z" class="g1_1"/>
<path d="M155.1,863.1h.7v-.7h-.7v.7Z" class="g1_1"/>
<path d="M155.8,863.1h205v-.7h-205v.7Z" class="g1_1"/>
<path d="M360.8,862.4h.7V840.6h-.7v21.8Z" class="g1_1"/>
<path d="M360.8,863.1h.7v-.7h-.7v.7Z" class="g1_1"/>
<path d="M361.5,863.1H772.4v-.7H361.5v.7Z" class="g1_1"/>
<path d="M772.4,862.4h.7V840.6h-.7v21.8Z" class="g1_1"/>
<path d="M772.4,863.1h.7v-.7h-.7v.7Z" class="g1_1"/>
<path d="M773.1,863.1h465.1v-.7H773.1v.7Z" class="g1_1"/>
<path d="M1238.2,862.4h.8V840.6h-.8v21.8Z" class="g1_1"/>
<path d="M1238.2,863.1h.8v-.7h-.8v.7Z" class="g1_1"/>
<path d="M1238.2,863.1h.8v-.7h-.8v.7Z" class="g1_1"/>
</svg>