<?xml version="1.0" encoding="UTF-8" standalone="no"?>
<!DOCTYPE svg PUBLIC "-//W3C//DTD SVG 1.1//EN"
"http://www.w3.org/Graphics/SVG/1.1/DTD/svg11.dtd">
<svg viewBox="0 0 1286 909" version="1.1" xmlns="http://www.w3.org/2000/svg" xmlns:xlink="http://www.w3.org/1999/xlink">
<defs>
<style type="text/css"><![CDATA[
.g0_1{
fill: #D9D9D9;
}
.g1_1{
}
]]></style>
</defs>
<path fill-rule="evenodd" d="M47.8,327.3H196.2V305.4H47.8v21.9Z" class="g0_1"/>
<path fill-rule="evenodd" d="M55.7,325.1H188.3V307.6H55.7v17.5Z" class="g0_1"/>
<path fill-rule="evenodd" d="M196.9,327.3H345V305.4H196.9v21.9Z" class="g0_1"/>
<path fill-rule="evenodd" d="M204.8,325.1H337.1V307.6H204.8v17.5Z" class="g0_1"/>
<path fill-rule="evenodd" d="M345.8,327.3H493.9V305.4H345.8v21.9Z" class="g0_1"/>
<path fill-rule="evenodd" d="M353.6,325.1H486V307.6H353.6v17.5Z" class="g0_1"/>
<path fill-rule="evenodd" d="M494.6,327.3H642.8V305.4H494.6v21.9Z" class="g0_1"/>
<path fill-rule="evenodd" d="M502.5,325.1H634.9V307.6H502.5v17.5Z" class="g0_1"/>
<path fill-rule="evenodd" d="M643.5,327.3H791.6V305.4H643.5v21.9Z" class="g0_1"/>
<path fill-rule="evenodd" d="M651.4,325.1H783.8V307.6H651.4v17.5Z" class="g0_1"/>
<path fill-rule="evenodd" d="M792.4,327.3H940.5V305.4H792.4v21.9Z" class="g0_1"/>
<path fill-rule="evenodd" d="M800.2,325.1H932.6V307.6H800.2v17.5Z" class="g0_1"/>
<path fill-rule="evenodd" d="M941.2,327.3h148.2V305.4H941.2v21.9Z" class="g0_1"/>
<path fill-rule="evenodd" d="M949.1,325.1h132.4V307.6H949.1v17.5Z" class="g0_1"/>
<path fill-rule="evenodd" d="M1090.1,327.3h148.1V305.4H1090.1v21.9Z" class="g0_1"/>
<path fill-rule="evenodd" d="M1098,325.1h132.4V307.6H1098v17.5Z" class="g0_1"/>
<path d="M47.1,305.4h.7v-.7h-.7v.7Z" class="g1_1"/>
<path d="M47.1,305.4h.7v-.7h-.7v.7Z" class="g1_1"/>
<path d="M47.8,305.4H196.2v-.7H47.8v.7Z" class="g1_1"/>
<path d="M196.2,305.4h.7v-.7h-.7v.7Z" class="g1_1"/>
<path d="M196.9,305.4H345v-.7H196.9v.7Z" class="g1_1"/>
<path d="M345,305.4h.8v-.7H345v.7Z" class="g1_1"/>
<path d="M345.8,305.4H493.9v-.7H345.8v.7Z" class="g1_1"/>
<path d="M493.9,305.4h.7v-.7h-.7v.7Z" class="g1_1"/>
<path d="M494.6,305.4H642.8v-.7H494.6v.7Z" class="g1_1"/>
<path d="M642.8,305.4h.7v-.7h-.7v.7Z" class="g1_1"/>
<path d="M643.5,305.4H791.6v-.7H643.5v.7Z" class="g1_1"/>
<path d="M791.6,305.4h.8v-.7h-.8v.7Z" class="g1_1"/>
<path d="M792.4,305.4H940.5v-.7H792.4v.7Z" class="g1_1"/>
<path d="M940.5,305.4h.7v-.7h-.7v.7Z" class="g1_1"/>
<path d="M941.2,305.4h148.2v-.7H941.2v.7Z" class="g1_1"/>
<path d="M1089.4,305.4h.7v-.7h-.7v.7Z" class="g1_1"/>
<path d="M1090.1,305.4h148.1v-.7H1090.1v.7Z" class="g1_1"/>
<path d="M1238.2,305.4h.8v-.7h-.8v.7Z" class="g1_1"/>
<path d="M1238.2,305.4h.8v-.7h-.8v.7Z" class="g1_1"/>
<path d="M47.1,327.3h.7V305.4h-.7v21.9Z" class="g1_1"/>
<path d="M196.2,327.3h.7V305.4h-.7v21.9Z" class="g1_1"/>
<path d="M345,327.3h.8V305.4H345v21.9Z" class="g1_1"/>
<path d="M493.9,327.3h.7V305.4h-.7v21.9Z" class="g1_1"/>
<path d="M642.8,327.3h.7V305.4h-.7v21.9Z" class="g1_1"/>
<path d="M791.6,327.3h.8V305.4h-.8v21.9Z" class="g1_1"/>
<path d="M940.5,327.3h.7V305.4h-.7v21.9Z" class="g1_1"/>
<path d="M1089.4,327.3h.7V305.4h-.7v21.9Z" class="g1_1"/>
<path d="M1238.2,327.3h.8V305.4h-.8v21.9Z" class="g1_1"/>
<path d="M47.1,328h.7v-.8h-.7v.8Z" class="g1_1"/>
<path d="M47.8,328H196.2v-.8H47.8v.8Z" class="g1_1"/>
<path d="M196.2,328h.7v-.8h-.7v.8Z" class="g1_1"/>
<path d="M196.9,328H345v-.8H196.9v.8Z" class="g1_1"/>
<path d="M345,328h.8v-.8H345v.8Z" class="g1_1"/>
<path d="M345.8,328H493.9v-.8H345.8v.8Z" class="g1_1"/>
<path d="M493.9,328h.7v-.8h-.7v.8Z" class="g1_1"/>
<path d="M494.6,328H642.8v-.8H494.6v.8Z" class="g1_1"/>
<path d="M642.8,328h.7v-.8h-.7v.8Z" class="g1_1"/>
<path d="M643.5,328H791.6v-.8H643.5v.8Z" class="g1_1"/>
<path d="M791.6,328h.8v-.8h-.8v.8Z" class="g1_1"/>
<path d="M792.4,328H940.5v-.8H792.4v.8Z" class="g1_1"/>
<path d="M940.5,328h.7v-.8h-.7v.8Z" class="g1_1"/>
<path d="M941.2,328h148.2v-.8H941.2v.8Z" class="g1_1"/>
<path d="M1089.4,328h.7v-.8h-.7v.8Z" class="g1_1"/>
<path d="M1090.1,328h148.1v-.8H1090.1v.8Z" class="g1_1"/>
<path d="M1238.2,328h.8v-.8h-.8v.8Z" class="g1_1"/>
<path d="M47.1,349.6h.7V328h-.7v21.6Z" class="g1_1"/>
<path d="M196.2,349.6h.7V328h-.7v21.6Z" class="g1_1"/>
<path d="M345,349.6h.8V328H345v21.6Z" class="g1_1"/>
<path d="M493.9,349.6h.7V328h-.7v21.6Z" class="g1_1"/>
<path d="M642.8,349.6h.7V328h-.7v21.6Z" class="g1_1"/>
<path d="M791.6,349.6h.8V328h-.8v21.6Z" class="g1_1"/>
<path d="M940.5,349.6h.7V328h-.7v21.6Z" class="g1_1"/>
<path d="M1089.4,349.6h.7V328h-.7v21.6Z" class="g1_1"/>
<path d="M1238.2,349.6h.8V328h-.8v21.6Z" class="g1_1"/>
<path d="M47.1,350.4h.7v-.8h-.7v.8Z" class="g1_1"/>
<path d="M47.8,350.4H196.2v-.8H47.8v.8Z" class="g1_1"/>
<path d="M196.2,350.4h.7v-.8h-.7v.8Z" class="g1_1"/>
<path d="M196.9,350.4H345v-.8H196.9v.8Z" class="g1_1"/>
<path d="M345,350.4h.8v-.8H345v.8Z" class="g1_1"/>
<path d="M345.8,350.4H493.9v-.8H345.8v.8Z" class="g1_1"/>
<path d="M493.9,350.4h.7v-.8h-.7v.8Z" class="g1_1"/>
<path d="M494.6,350.4H642.8v-.8H494.6v.8Z" class="g1_1"/>
<path d="M642.8,350.4h.7v-.8h-.7v.8Z" class="g1_1"/>
<path d="M643.5,350.4H791.6v-.8H643.5v.8Z" class="g1_1"/>
<path d="M791.6,350.4h.8v-.8h-.8v.8Z" class="g1_1"/>
<path d="M792.4,350.4H940.5v-.8H792.4v.8Z" class="g1_1"/>
<path d="M940.5,350.4h.7v-.8h-.7v.8Z" class="g1_1"/>
<path d="M941.2,350.4h148.2v-.8H941.2v.8Z" class="g1_1"/>
<path d="M1089.4,350.4h.7v-.8h-.7v.8Z" class="g1_1"/>
<path d="M1090.1,350.4h148.1v-.8H1090.1v.8Z" class="g1_1"/>
<path d="M1238.2,350.4h.8v-.8h-.8v.8Z" class="g1_1"/>
<path d="M47.1,372.2h.7V350.4h-.7v21.8Z" class="g1_1"/>
<path d="M196.2,372.2h.7V350.4h-.7v21.8Z" class="g1_1"/>
<path d="M345,372.2h.8V350.4H345v21.8Z" class="g1_1"/>
<path d="M493.9,372.2h.7V350.4h-.7v21.8Z" class="g1_1"/>
<path d="M642.8,372.2h.7V350.4h-.7v21.8Z" class="g1_1"/>
<path d="M791.6,372.2h.8V350.4h-.8v21.8Z" class="g1_1"/>
<path d="M940.5,372.2h.7V350.4h-.7v21.8Z" class="g1_1"/>
<path d="M1089.4,372.2h.7V350.4h-.7v21.8Z" class="g1_1"/>
<path d="M1238.2,372.2h.8V350.4h-.8v21.8Z" class="g1_1"/>
<path d="M47.1,372.9h.7v-.7h-.7v.7Z" class="g1_1"/>
<path d="M47.8,372.9H196.2v-.7H47.8v.7Z" class="g1_1"/>
<path d="M196.2,372.9h.7v-.7h-.7v.7Z" class="g1_1"/>
<path d="M196.9,372.9H345v-.7H196.9v.7Z" class="g1_1"/>
<path d="M345,372.9h.8v-.7H345v.7Z" class="g1_1"/>
<path d="M345.8,372.9H493.9v-.7H345.8v.7Z" class="g1_1"/>
<path d="M493.9,372.9h.7v-.7h-.7v.7Z" class="g1_1"/>
<path d="M494.6,372.9H642.8v-.7H494.6v.7Z" class="g1_1"/>
<path d="M642.8,372.9h.7v-.7h-.7v.7Z" class="g1_1"/>
<path d="M643.5,372.9H791.6v-.7H643.5v.7Z" class="g1_1"/>
<path d="M791.6,372.9h.8v-.7h-.8v.7Z" class="g1_1"/>
<path d="M792.4,372.9H940.5v-.7H792.4v.7Z" class="g1_1"/>
<path d="M940.5,372.9h.7v-.7h-.7v.7Z" class="g1_1"/>
<path d="M941.2,372.9h148.2v-.7H941.2v.7Z" class="g1_1"/>
<path d="M1089.4,372.9h.7v-.7h-.7v.7Z" class="g1_1"/>
<path d="M1090.1,372.9h148.1v-.7H1090.1v.7Z" class="g1_1"/>
<path d="M1238.2,372.9h.8v-.7h-.8v.7Z" class="g1_1"/>
<path d="M47.1,394.5h.7V372.9h-.7v21.6Z" class="g1_1"/>
<path d="M196.2,394.5h.7V372.9h-.7v21.6Z" class="g1_1"/>
<path d="M345,394.5h.8V372.9H345v21.6Z" class="g1_1"/>
<path d="M493.9,394.5h.7V372.9h-.7v21.6Z" class="g1_1"/>
<path d="M642.8,394.5h.7V372.9h-.7v21.6Z" class="g1_1"/>
<path d="M791.6,394.5h.8V372.9h-.8v21.6Z" class="g1_1"/>
<path d="M940.5,394.5h.7V372.9h-.7v21.6Z" class="g1_1"/>
<path d="M1089.4,394.5h.7V372.9h-.7v21.6Z" class="g1_1"/>
<path d="M1238.2,394.5h.8V372.9h-.8v21.6Z" class="g1_1"/>
<path d="M47.1,395.3h.7v-.8h-.7v.8Z" class="g1_1"/>
<path d="M47.8,395.3H196.2v-.8H47.8v.8Z" class="g1_1"/>
<path d="M196.2,395.3h.7v-.8h-.7v.8Z" class="g1_1"/>
<path d="M196.9,395.3H345v-.8H196.9v.8Z" class="g1_1"/>
<path d="M345,395.3h.8v-.8H345v.8Z" class="g1_1"/>
<path d="M345.8,395.3H493.9v-.8H345.8v.8Z" class="g1_1"/>
<path d="M493.9,395.3h.7v-.8h-.7v.8Z" class="g1_1"/>
<path d="M494.6,395.3H642.8v-.8H494.6v.8Z" class="g1_1"/>
<path d="M642.8,395.3h.7v-.8h-.7v.8Z" class="g1_1"/>
<path d="M643.5,395.3H791.6v-.8H643.5v.8Z" class="g1_1"/>
<path d="M791.6,395.3h.8v-.8h-.8v.8Z" class="g1_1"/>
<path d="M792.4,395.3H940.5v-.8H792.4v.8Z" class="g1_1"/>
<path d="M940.5,395.3h.7v-.8h-.7v.8Z" class="g1_1"/>
<path d="M941.2,395.3h148.2v-.8H941.2v.8Z" class="g1_1"/>
<path d="M1089.4,395.3h.7v-.8h-.7v.8Z" class="g1_1"/>
<path d="M1090.1,395.3h148.1v-.8H1090.1v.8Z" class="g1_1"/>
<path d="M1238.2,395.3h.8v-.8h-.8v.8Z" class="g1_1"/>
<path d="M47.1,417.1h.7V395.3h-.7v21.8Z" class="g1_1"/>
<path d="M196.2,417.1h.7V395.3h-.7v21.8Z" class="g1_1"/>
<path d="M345,417.1h.8V395.3H345v21.8Z" class="g1_1"/>
<path d="M493.9,417.1h.7V395.3h-.7v21.8Z" class="g1_1"/>
<path d="M642.8,417.1h.7V395.3h-.7v21.8Z" class="g1_1"/>
<path d="M791.6,417.1h.8V395.3h-.8v21.8Z" class="g1_1"/>
<path d="M940.5,417.1h.7V395.3h-.7v21.8Z" class="g1_1"/>
<path d="M1089.4,417.1h.7V395.3h-.7v21.8Z" class="g1_1"/>
<path d="M1238.2,417.1h.8V395.3h-.8v21.8Z" class="g1_1"/>
<path d="M47.1,417.8h.7v-.7h-.7v.7Z" class="g1_1"/>
<path d="M47.8,417.8H196.2v-.7H47.8v.7Z" class="g1_1"/>
<path d="M196.2,417.8h.7v-.7h-.7v.7Z" class="g1_1"/>
<path d="M196.9,417.8H345v-.7H196.9v.7Z" class="g1_1"/>
<path d="M345,417.8h.8v-.7H345v.7Z" class="g1_1"/>
<path d="M345.8,417.8H493.9v-.7H345.8v.7Z" class="g1_1"/>
<path d="M493.9,417.8h.7v-.7h-.7v.7Z" class="g1_1"/>
<path d="M494.6,417.8H642.8v-.7H494.6v.7Z" class="g1_1"/>
<path d="M642.8,417.8h.7v-.7h-.7v.7Z" class="g1_1"/>
<path d="M643.5,417.8H791.6v-.7H643.5v.7Z" class="g1_1"/>
<path d="M791.6,417.8h.8v-.7h-.8v.7Z" class="g1_1"/>
<path d="M792.4,417.8H940.5v-.7H792.4v.7Z" class="g1_1"/>
<path d="M940.5,417.8h.7v-.7h-.7v.7Z" class="g1_1"/>
<path d="M941.2,417.8h148.2v-.7H941.2v.7Z" class="g1_1"/>
<path d="M1089.4,417.8h.7v-.7h-.7v.7Z" class="g1_1"/>
<path d="M1090.1,417.8h148.1v-.7H1090.1v.7Z" class="g1_1"/>
<path d="M1238.2,417.8h.8v-.7h-.8v.7Z" class="g1_1"/>
<path d="M47.1,439.5h.7V417.8h-.7v21.7Z" class="g1_1"/>
<path d="M196.2,439.5h.7V417.8h-.7v21.7Z" class="g1_1"/>
<path d="M345,439.5h.8V417.8H345v21.7Z" class="g1_1"/>
<path d="M493.9,439.5h.7V417.8h-.7v21.7Z" class="g1_1"/>
<path d="M642.8,439.5h.7V417.8h-.7v21.7Z" class="g1_1"/>
<path d="M791.6,439.5h.8V417.8h-.8v21.7Z" class="g1_1"/>
<path d="M940.5,439.5h.7V417.8h-.7v21.7Z" class="g1_1"/>
<path d="M1089.4,439.5h.7V417.8h-.7v21.7Z" class="g1_1"/>
<path d="M1238.2,439.5h.8V417.8h-.8v21.7Z" class="g1_1"/>
<path d="M47.1,440.2h.7v-.8h-.7v.8Z" class="g1_1"/>
<path d="M47.8,440.2H196.2v-.8H47.8v.8Z" class="g1_1"/>
<path d="M196.2,440.2h.7v-.8h-.7v.8Z" class="g1_1"/>
<path d="M196.9,440.2H345v-.8H196.9v.8Z" class="g1_1"/>
<path d="M345,440.2h.8v-.8H345v.8Z" class="g1_1"/>
<path d="M345.8,440.2H493.9v-.8H345.8v.8Z" class="g1_1"/>
<path d="M493.9,440.2h.7v-.8h-.7v.8Z" class="g1_1"/>
<path d="M494.6,440.2H642.8v-.8H494.6v.8Z" class="g1_1"/>
<path d="M642.8,440.2h.7v-.8h-.7v.8Z" class="g1_1"/>
<path d="M643.5,440.2H791.6v-.8H643.5v.8Z" class="g1_1"/>
<path d="M791.6,440.2h.8v-.8h-.8v.8Z" class="g1_1"/>
<path d="M792.4,440.2H940.5v-.8H792.4v.8Z" class="g1_1"/>
<path d="M940.5,440.2h.7v-.8h-.7v.8Z" class="g1_1"/>
<path d="M941.2,440.2h148.2v-.8H941.2v.8Z" class="g1_1"/>
<path d="M1089.4,440.2h.7v-.8h-.7v.8Z" class="g1_1"/>
<path d="M1090.1,440.2h148.1v-.8H1090.1v.8Z" class="g1_1"/>
<path d="M1238.2,440.2h.8v-.8h-.8v.8Z" class="g1_1"/>
<path d="M47.1,462h.7V440.2h-.7V462Z" class="g1_1"/>
<path d="M196.2,462h.7V440.2h-.7V462Z" class="g1_1"/>
<path d="M345,462h.8V440.2H345V462Z" class="g1_1"/>
<path d="M493.9,462h.7V440.2h-.7V462Z" class="g1_1"/>
<path d="M642.8,462h.7V440.2h-.7V462Z" class="g1_1"/>
<path d="M791.6,462h.8V440.2h-.8V462Z" class="g1_1"/>
<path d="M940.5,462h.7V440.2h-.7V462Z" class="g1_1"/>
<path d="M1089.4,462h.7V440.2h-.7V462Z" class="g1_1"/>
<path d="M1238.2,462h.8V440.2h-.8V462Z" class="g1_1"/>
<path d="M47.1,462.7h.7V462h-.7v.7Z" class="g1_1"/>
<path d="M47.8,462.7H196.2V462H47.8v.7Z" class="g1_1"/>
<path d="M196.2,462.7h.7V462h-.7v.7Z" class="g1_1"/>
<path d="M196.9,462.7H345V462H196.9v.7Z" class="g1_1"/>
<path d="M345,462.7h.8V462H345v.7Z" class="g1_1"/>
<path d="M345.8,462.7H493.9V462H345.8v.7Z" class="g1_1"/>
<path d="M493.9,462.7h.7V462h-.7v.7Z" class="g1_1"/>
<path d="M494.6,462.7H642.8V462H494.6v.7Z" class="g1_1"/>
<path d="M642.8,462.7h.7V462h-.7v.7Z" class="g1_1"/>
<path d="M643.5,462.7H791.6V462H643.5v.7Z" class="g1_1"/>
<path d="M791.6,462.7h.8V462h-.8v.7Z" class="g1_1"/>
<path d="M792.4,462.7H940.5V462H792.4v.7Z" class="g1_1"/>
<path d="M940.5,462.7h.7V462h-.7v.7Z" class="g1_1"/>
<path d="M941.2,462.7h148.2V462H941.2v.7Z" class="g1_1"/>
<path d="M1089.4,462.7h.7V462h-.7v.7Z" class="g1_1"/>
<path d="M1090.1,462.7h148.1V462H1090.1v.7Z" class="g1_1"/>
<path d="M1238.2,462.7h.8V462h-.8v.7Z" class="g1_1"/>
<path d="M47.1,484.4h.7V462.7h-.7v21.7Z" class="g1_1"/>
<path d="M196.2,484.4h.7V462.7h-.7v21.7Z" class="g1_1"/>
<path d="M345,484.4h.8V462.7H345v21.7Z" class="g1_1"/>
<path d="M493.9,484.4h.7V462.7h-.7v21.7Z" class="g1_1"/>
<path d="M642.8,484.4h.7V462.7h-.7v21.7Z" class="g1_1"/>
<path d="M791.6,484.4h.8V462.7h-.8v21.7Z" class="g1_1"/>
<path d="M940.5,484.4h.7V462.7h-.7v21.7Z" class="g1_1"/>
<path d="M1089.4,484.4h.7V462.7h-.7v21.7Z" class="g1_1"/>
<path d="M1238.2,484.4h.8V462.7h-.8v21.7Z" class="g1_1"/>
<path d="M47.1,485.1h.7v-.7h-.7v.7Z" class="g1_1"/>
<path d="M47.8,485.1H196.2v-.7H47.8v.7Z" class="g1_1"/>
<path d="M196.2,485.1h.7v-.7h-.7v.7Z" class="g1_1"/>
<path d="M196.9,485.1H345v-.7H196.9v.7Z" class="g1_1"/>
<path d="M345,485.1h.8v-.7H345v.7Z" class="g1_1"/>
<path d="M345.8,485.1H493.9v-.7H345.8v.7Z" class="g1_1"/>
<path d="M493.9,485.1h.7v-.7h-.7v.7Z" class="g1_1"/>
<path d="M494.6,485.1H642.8v-.7H494.6v.7Z" class="g1_1"/>
<path d="M642.8,485.1h.7v-.7h-.7v.7Z" class="g1_1"/>
<path d="M643.5,485.1H791.6v-.7H643.5v.7Z" class="g1_1"/>
<path d="M791.6,485.1h.8v-.7h-.8v.7Z" class="g1_1"/>
<path d="M792.4,485.1H940.5v-.7H792.4v.7Z" class="g1_1"/>
<path d="M940.5,485.1h.7v-.7h-.7v.7Z" class="g1_1"/>
<path d="M941.2,485.1h148.2v-.7H941.2v.7Z" class="g1_1"/>
<path d="M1089.4,485.1h.7v-.7h-.7v.7Z" class="g1_1"/>
<path d="M1090.1,485.1h148.1v-.7H1090.1v.7Z" class="g1_1"/>
<path d="M1238.2,485.1h.8v-.7h-.8v.7Z" class="g1_1"/>
<path d="M47.1,506.9h.7V485.1h-.7v21.8Z" class="g1_1"/>
<path d="M196.2,506.9h.7V485.1h-.7v21.8Z" class="g1_1"/>
<path d="M345,506.9h.8V485.1H345v21.8Z" class="g1_1"/>
<path d="M493.9,506.9h.7V485.1h-.7v21.8Z" class="g1_1"/>
<path d="M642.8,506.9h.7V485.1h-.7v21.8Z" class="g1_1"/>
<path d="M791.6,506.9h.8V485.1h-.8v21.8Z" class="g1_1"/>
<path d="M940.5,506.9h.7V485.1h-.7v21.8Z" class="g1_1"/>
<path d="M1089.4,506.9h.7V485.1h-.7v21.8Z" class="g1_1"/>
<path d="M1238.2,506.9h.8V485.1h-.8v21.8Z" class="g1_1"/>
<path d="M47.1,507.7h.7v-.8h-.7v.8Z" class="g1_1"/>
<path d="M47.8,507.7H196.2v-.8H47.8v.8Z" class="g1_1"/>
<path d="M196.2,507.7h.7v-.8h-.7v.8Z" class="g1_1"/>
<path d="M196.9,507.7H345v-.8H196.9v.8Z" class="g1_1"/>
<path d="M345,507.7h.8v-.8H345v.8Z" class="g1_1"/>
<path d="M345.8,507.7H493.9v-.8H345.8v.8Z" class="g1_1"/>
<path d="M493.9,507.7h.7v-.8h-.7v.8Z" class="g1_1"/>
<path d="M494.6,507.7H642.8v-.8H494.6v.8Z" class="g1_1"/>
<path d="M642.8,507.7h.7v-.8h-.7v.8Z" class="g1_1"/>
<path d="M643.5,507.7H791.6v-.8H643.5v.8Z" class="g1_1"/>
<path d="M791.6,507.7h.8v-.8h-.8v.8Z" class="g1_1"/>
<path d="M792.4,507.7H940.5v-.8H792.4v.8Z" class="g1_1"/>
<path d="M940.5,507.7h.7v-.8h-.7v.8Z" class="g1_1"/>
<path d="M941.2,507.7h148.2v-.8H941.2v.8Z" class="g1_1"/>
<path d="M1089.4,507.7h.7v-.8h-.7v.8Z" class="g1_1"/>
<path d="M1090.1,507.7h148.1v-.8H1090.1v.8Z" class="g1_1"/>
<path d="M1238.2,507.7h.8v-.8h-.8v.8Z" class="g1_1"/>
<path d="M47.1,529.3h.7V507.6h-.7v21.7Z" class="g1_1"/>
<path d="M196.2,529.3h.7V507.6h-.7v21.7Z" class="g1_1"/>
<path d="M345,529.3h.8V507.6H345v21.7Z" class="g1_1"/>
<path d="M493.9,529.3h.7V507.6h-.7v21.7Z" class="g1_1"/>
<path d="M642.8,529.3h.7V507.6h-.7v21.7Z" class="g1_1"/>
<path d="M791.6,529.3h.8V507.6h-.8v21.7Z" class="g1_1"/>
<path d="M940.5,529.3h.7V507.6h-.7v21.7Z" class="g1_1"/>
<path d="M1089.4,529.3h.7V507.6h-.7v21.7Z" class="g1_1"/>
<path d="M1238.2,529.3h.8V507.6h-.8v21.7Z" class="g1_1"/>
<path d="M47.1,530h.7v-.7h-.7v.7Z" class="g1_1"/>
<path d="M47.8,530H196.2v-.7H47.8v.7Z" class="g1_1"/>
<path d="M196.2,530h.7v-.7h-.7v.7Z" class="g1_1"/>
<path d="M196.9,530H345v-.7H196.9v.7Z" class="g1_1"/>
<path d="M345,530h.8v-.7H345v.7Z" class="g1_1"/>
<path d="M345.8,530H493.9v-.7H345.8v.7Z" class="g1_1"/>
<path d="M493.9,530h.7v-.7h-.7v.7Z" class="g1_1"/>
<path d="M494.6,530H642.8v-.7H494.6v.7Z" class="g1_1"/>
<path d="M642.8,530h.7v-.7h-.7v.7Z" class="g1_1"/>
<path d="M643.5,530H791.6v-.7H643.5v.7Z" class="g1_1"/>
<path d="M791.6,530h.8v-.7h-.8v.7Z" class="g1_1"/>
<path d="M792.4,530H940.5v-.7H792.4v.7Z" class="g1_1"/>
<path d="M940.5,530h.7v-.7h-.7v.7Z" class="g1_1"/>
<path d="M941.2,530h148.2v-.7H941.2v.7Z" class="g1_1"/>
<path d="M1089.4,530h.7v-.7h-.7v.7Z" class="g1_1"/>
<path d="M1090.1,530h148.1v-.7H1090.1v.7Z" class="g1_1"/>
<path d="M1238.2,530h.8v-.7h-.8v.7Z" class="g1_1"/>
<path d="M47.1,551.8h.7V530h-.7v21.8Z" class="g1_1"/>
<path d="M196.2,551.8h.7V530h-.7v21.8Z" class="g1_1"/>
<path d="M345,551.8h.8V530H345v21.8Z" class="g1_1"/>
<path d="M493.9,551.8h.7V530h-.7v21.8Z" class="g1_1"/>
<path d="M642.8,551.8h.7V530h-.7v21.8Z" class="g1_1"/>
<path d="M791.6,551.8h.8V530h-.8v21.8Z" class="g1_1"/>
<path d="M940.5,551.8h.7V530h-.7v21.8Z" class="g1_1"/>
<path d="M1089.4,551.8h.7V530h-.7v21.8Z" class="g1_1"/>
<path d="M1238.2,551.8h.8V530h-.8v21.8Z" class="g1_1"/>
<path d="M47.1,552.6h.7v-.8h-.7v.8Z" class="g1_1"/>
<path d="M47.8,552.6H196.2v-.8H47.8v.8Z" class="g1_1"/>
<path d="M196.2,552.6h.7v-.8h-.7v.8Z" class="g1_1"/>
<path d="M196.9,552.6H345v-.8H196.9v.8Z" class="g1_1"/>
<path d="M345,552.6h.8v-.8H345v.8Z" class="g1_1"/>
<path d="M345.8,552.6H493.9v-.8H345.8v.8Z" class="g1_1"/>
<path d="M493.9,552.6h.7v-.8h-.7v.8Z" class="g1_1"/>
<path d="M494.6,552.6H642.8v-.8H494.6v.8Z" class="g1_1"/>
<path d="M642.8,552.6h.7v-.8h-.7v.8Z" class="g1_1"/>
<path d="M643.5,552.6H791.6v-.8H643.5v.8Z" class="g1_1"/>
<path d="M791.6,552.6h.8v-.8h-.8v.8Z" class="g1_1"/>
<path d="M792.4,552.6H940.5v-.8H792.4v.8Z" class="g1_1"/>
<path d="M940.5,552.6h.7v-.8h-.7v.8Z" class="g1_1"/>
<path d="M941.2,552.6h148.2v-.8H941.2v.8Z" class="g1_1"/>
<path d="M1089.4,552.6h.7v-.8h-.7v.8Z" class="g1_1"/>
<path d="M1090.1,552.6h148.1v-.8H1090.1v.8Z" class="g1_1"/>
<path d="M1238.2,552.6h.8v-.8h-.8v.8Z" class="g1_1"/>
<path d="M47.1,574.2h.7V552.6h-.7v21.6Z" class="g1_1"/>
<path d="M196.2,574.2h.7V552.6h-.7v21.6Z" class="g1_1"/>
<path d="M345,574.2h.8V552.6H345v21.6Z" class="g1_1"/>
<path d="M493.9,574.2h.7V552.6h-.7v21.6Z" class="g1_1"/>
<path d="M642.8,574.2h.7V552.6h-.7v21.6Z" class="g1_1"/>
<path d="M791.6,574.2h.8V552.6h-.8v21.6Z" class="g1_1"/>
<path d="M940.5,574.2h.7V552.6h-.7v21.6Z" class="g1_1"/>
<path d="M1089.4,574.2h.7V552.6h-.7v21.6Z" class="g1_1"/>
<path d="M1238.2,574.2h.8V552.6h-.8v21.6Z" class="g1_1"/>
<path d="M47.1,574.9h.7v-.7h-.7v.7Z" class="g1_1"/>
<path d="M47.8,574.9H196.2v-.7H47.8v.7Z" class="g1_1"/>
<path d="M196.2,574.9h.7v-.7h-.7v.7Z" class="g1_1"/>
<path d="M196.9,574.9H345v-.7H196.9v.7Z" class="g1_1"/>
<path d="M345,574.9h.8v-.7H345v.7Z" class="g1_1"/>
<path d="M345.8,574.9H493.9v-.7H345.8v.7Z" class="g1_1"/>
<path d="M493.9,574.9h.7v-.7h-.7v.7Z" class="g1_1"/>
<path d="M494.6,574.9H642.8v-.7H494.6v.7Z" class="g1_1"/>
<path d="M642.8,574.9h.7v-.7h-.7v.7Z" class="g1_1"/>
<path d="M643.5,574.9H791.6v-.7H643.5v.7Z" class="g1_1"/>
<path d="M791.6,574.9h.8v-.7h-.8v.7Z" class="g1_1"/>
<path d="M792.4,574.9H940.5v-.7H792.4v.7Z" class="g1_1"/>
<path d="M940.5,574.9h.7v-.7h-.7v.7Z" class="g1_1"/>
<path d="M941.2,574.9h148.2v-.7H941.2v.7Z" class="g1_1"/>
<path d="M1089.4,574.9h.7v-.7h-.7v.7Z" class="g1_1"/>
<path d="M1090.1,574.9h148.1v-.7H1090.1v.7Z" class="g1_1"/>
<path d="M1238.2,574.9h.8v-.7h-.8v.7Z" class="g1_1"/>
<path d="M47.1,596.8h.7V574.9h-.7v21.9Z" class="g1_1"/>
<path d="M196.2,596.8h.7V574.9h-.7v21.9Z" class="g1_1"/>
<path d="M345,596.8h.8V574.9H345v21.9Z" class="g1_1"/>
<path d="M493.9,596.8h.7V574.9h-.7v21.9Z" class="g1_1"/>
<path d="M642.8,596.8h.7V574.9h-.7v21.9Z" class="g1_1"/>
<path d="M791.6,596.8h.8V574.9h-.8v21.9Z" class="g1_1"/>
<path d="M940.5,596.8h.7V574.9h-.7v21.9Z" class="g1_1"/>
<path d="M1089.4,596.8h.7V574.9h-.7v21.9Z" class="g1_1"/>
<path d="M1238.2,596.8h.8V574.9h-.8v21.9Z" class="g1_1"/>
<path d="M47.1,597.5h.7v-.8h-.7v.8Z" class="g1_1"/>
<path d="M47.8,597.5H196.2v-.8H47.8v.8Z" class="g1_1"/>
<path d="M196.2,597.5h.7v-.8h-.7v.8Z" class="g1_1"/>
<path d="M196.9,597.5H345v-.8H196.9v.8Z" class="g1_1"/>
<path d="M345,597.5h.8v-.8H345v.8Z" class="g1_1"/>
<path d="M345.8,597.5H493.9v-.8H345.8v.8Z" class="g1_1"/>
<path d="M493.9,597.5h.7v-.8h-.7v.8Z" class="g1_1"/>
<path d="M494.6,597.5H642.8v-.8H494.6v.8Z" class="g1_1"/>
<path d="M642.8,597.5h.7v-.8h-.7v.8Z" class="g1_1"/>
<path d="M643.5,597.5H791.6v-.8H643.5v.8Z" class="g1_1"/>
<path d="M791.6,597.5h.8v-.8h-.8v.8Z" class="g1_1"/>
<path d="M792.4,597.5H940.5v-.8H792.4v.8Z" class="g1_1"/>
<path d="M940.5,597.5h.7v-.8h-.7v.8Z" class="g1_1"/>
<path d="M941.2,597.5h148.2v-.8H941.2v.8Z" class="g1_1"/>
<path d="M1089.4,597.5h.7v-.8h-.7v.8Z" class="g1_1"/>
<path d="M1090.1,597.5h148.1v-.8H1090.1v.8Z" class="g1_1"/>
<path d="M1238.2,597.5h.8v-.8h-.8v.8Z" class="g1_1"/>
<path d="M47.1,619.1h.7V597.5h-.7v21.6Z" class="g1_1"/>
<path d="M196.2,619.1h.7V597.5h-.7v21.6Z" class="g1_1"/>
<path d="M345,619.1h.8V597.5H345v21.6Z" class="g1_1"/>
<path d="M493.9,619.1h.7V597.5h-.7v21.6Z" class="g1_1"/>
<path d="M642.8,619.1h.7V597.5h-.7v21.6Z" class="g1_1"/>
<path d="M791.6,619.1h.8V597.5h-.8v21.6Z" class="g1_1"/>
<path d="M940.5,619.1h.7V597.5h-.7v21.6Z" class="g1_1"/>
<path d="M1089.4,619.1h.7V597.5h-.7v21.6Z" class="g1_1"/>
<path d="M1238.2,619.1h.8V597.5h-.8v21.6Z" class="g1_1"/>
<path d="M47.1,619.9h.7v-.8h-.7v.8Z" class="g1_1"/>
<path d="M47.8,619.9H196.2v-.8H47.8v.8Z" class="g1_1"/>
<path d="M196.2,619.9h.7v-.8h-.7v.8Z" class="g1_1"/>
<path d="M196.9,619.9H345v-.8H196.9v.8Z" class="g1_1"/>
<path d="M345,619.9h.8v-.8H345v.8Z" class="g1_1"/>
<path d="M345.8,619.9H493.9v-.8H345.8v.8Z" class="g1_1"/>
<path d="M493.9,619.9h.7v-.8h-.7v.8Z" class="g1_1"/>
<path d="M494.6,619.9H642.8v-.8H494.6v.8Z" class="g1_1"/>
<path d="M642.8,619.9h.7v-.8h-.7v.8Z" class="g1_1"/>
<path d="M643.5,619.9H791.6v-.8H643.5v.8Z" class="g1_1"/>
<path d="M791.6,619.9h.8v-.8h-.8v.8Z" class="g1_1"/>
<path d="M792.4,619.9H940.5v-.8H792.4v.8Z" class="g1_1"/>
<path d="M940.5,619.9h.7v-.8h-.7v.8Z" class="g1_1"/>
<path d="M941.2,619.9h148.2v-.8H941.2v.8Z" class="g1_1"/>
<path d="M1089.4,619.9h.7v-.8h-.7v.8Z" class="g1_1"/>
<path d="M1090.1,619.9h148.1v-.8H1090.1v.8Z" class="g1_1"/>
<path d="M1238.2,619.9h.8v-.8h-.8v.8Z" class="g1_1"/>
<path d="M47.1,641.7h.7V619.9h-.7v21.8Z" class="g1_1"/>
<path d="M196.2,641.7h.7V619.9h-.7v21.8Z" class="g1_1"/>
<path d="M345,641.7h.8V619.9H345v21.8Z" class="g1_1"/>
<path d="M493.9,641.7h.7V619.9h-.7v21.8Z" class="g1_1"/>
<path d="M642.8,641.7h.7V619.9h-.7v21.8Z" class="g1_1"/>
<path d="M791.6,641.7h.8V619.9h-.8v21.8Z" class="g1_1"/>
<path d="M940.5,641.7h.7V619.9h-.7v21.8Z" class="g1_1"/>
<path d="M1089.4,641.7h.7V619.9h-.7v21.8Z" class="g1_1"/>
<path d="M1238.2,641.7h.8V619.9h-.8v21.8Z" class="g1_1"/>
<path d="M47.1,642.4h.7v-.7h-.7v.7Z" class="g1_1"/>
<path d="M47.8,642.4H196.2v-.7H47.8v.7Z" class="g1_1"/>
<path d="M196.2,642.4h.7v-.7h-.7v.7Z" class="g1_1"/>
<path d="M196.9,642.4H345v-.7H196.9v.7Z" class="g1_1"/>
<path d="M345,642.4h.8v-.7H345v.7Z" class="g1_1"/>
<path d="M345.8,642.4H493.9v-.7H345.8v.7Z" class="g1_1"/>
<path d="M493.9,642.4h.7v-.7h-.7v.7Z" class="g1_1"/>
<path d="M494.6,642.4H642.8v-.7H494.6v.7Z" class="g1_1"/>
<path d="M642.8,642.4h.7v-.7h-.7v.7Z" class="g1_1"/>
<path d="M643.5,642.4H791.6v-.7H643.5v.7Z" class="g1_1"/>
<path d="M791.6,642.4h.8v-.7h-.8v.7Z" class="g1_1"/>
<path d="M792.4,642.4H940.5v-.7H792.4v.7Z" class="g1_1"/>
<path d="M940.5,642.4h.7v-.7h-.7v.7Z" class="g1_1"/>
<path d="M941.2,642.4h148.2v-.7H941.2v.7Z" class="g1_1"/>
<path d="M1089.4,642.4h.7v-.7h-.7v.7Z" class="g1_1"/>
<path d="M1090.1,642.4h148.1v-.7H1090.1v.7Z" class="g1_1"/>
<path d="M1238.2,642.4h.8v-.7h-.8v.7Z" class="g1_1"/>
<path d="M47.1,664h.7V642.4h-.7V664Z" class="g1_1"/>
<path d="M196.2,664h.7V642.4h-.7V664Z" class="g1_1"/>
<path d="M345,664h.8V642.4H345V664Z" class="g1_1"/>
<path d="M493.9,664h.7V642.4h-.7V664Z" class="g1_1"/>
<path d="M642.8,664h.7V642.4h-.7V664Z" class="g1_1"/>
<path d="M791.6,664h.8V642.4h-.8V664Z" class="g1_1"/>
<path d="M940.5,664h.7V642.4h-.7V664Z" class="g1_1"/>
<path d="M1089.4,664h.7V642.4h-.7V664Z" class="g1_1"/>
<path d="M1238.2,664h.8V642.4h-.8V664Z" class="g1_1"/>
<path d="M47.1,664.8h.7V664h-.7v.8Z" class="g1_1"/>
<path d="M47.8,664.8H196.2V664H47.8v.8Z" class="g1_1"/>
<path d="M196.2,664.8h.7V664h-.7v.8Z" class="g1_1"/>
<path d="M196.9,664.8H345V664H196.9v.8Z" class="g1_1"/>
<path d="M345,664.8h.8V664H345v.8Z" class="g1_1"/>
<path d="M345.8,664.8H493.9V664H345.8v.8Z" class="g1_1"/>
<path d="M493.9,664.8h.7V664h-.7v.8Z" class="g1_1"/>
<path d="M494.6,664.8H642.8V664H494.6v.8Z" class="g1_1"/>
<path d="M642.8,664.8h.7V664h-.7v.8Z" class="g1_1"/>
<path d="M643.5,664.8H791.6V664H643.5v.8Z" class="g1_1"/>
<path d="M791.6,664.8h.8V664h-.8v.8Z" class="g1_1"/>
<path d="M792.4,664.8H940.5V664H792.4v.8Z" class="g1_1"/>
<path d="M940.5,664.8h.7V664h-.7v.8Z" class="g1_1"/>
<path d="M941.2,664.8h148.2V664H941.2v.8Z" class="g1_1"/>
<path d="M1089.4,664.8h.7V664h-.7v.8Z" class="g1_1"/>
<path d="M1090.1,664.8h148.1V664H1090.1v.8Z" class="g1_1"/>
<path d="M1238.2,664.8h.8V664h-.8v.8Z" class="g1_1"/>
<path d="M47.1,686.6h.7V664.8h-.7v21.8Z" class="g1_1"/>
<path d="M196.2,686.6h.7V664.8h-.7v21.8Z" class="g1_1"/>
<path d="M345,686.6h.8V664.8H345v21.8Z" class="g1_1"/>
<path d="M493.9,686.6h.7V664.8h-.7v21.8Z" class="g1_1"/>
<path d="M642.8,686.6h.7V664.8h-.7v21.8Z" class="g1_1"/>
<path d="M791.6,686.6h.8V664.8h-.8v21.8Z" class="g1_1"/>
<path d="M940.5,686.6h.7V664.8h-.7v21.8Z" class="g1_1"/>
<path d="M1089.4,686.6h.7V664.8h-.7v21.8Z" class="g1_1"/>
<path d="M1238.2,686.6h.8V664.8h-.8v21.8Z" class="g1_1"/>
<path d="M47.1,687.3h.7v-.7h-.7v.7Z" class="g1_1"/>
<path d="M47.8,687.3H196.2v-.7H47.8v.7Z" class="g1_1"/>
<path d="M196.2,687.3h.7v-.7h-.7v.7Z" class="g1_1"/>
<path d="M196.9,687.3H345v-.7H196.9v.7Z" class="g1_1"/>
<path d="M345,687.3h.8v-.7H345v.7Z" class="g1_1"/>
<path d="M345.8,687.3H493.9v-.7H345.8v.7Z" class="g1_1"/>
<path d="M493.9,687.3h.7v-.7h-.7v.7Z" class="g1_1"/>
<path d="M494.6,687.3H642.8v-.7H494.6v.7Z" class="g1_1"/>
<path d="M642.8,687.3h.7v-.7h-.7v.7Z" class="g1_1"/>
<path d="M643.5,687.3H791.6v-.7H643.5v.7Z" class="g1_1"/>
<path d="M791.6,687.3h.8v-.7h-.8v.7Z" class="g1_1"/>
<path d="M792.4,687.3H940.5v-.7H792.4v.7Z" class="g1_1"/>
<path d="M940.5,687.3h.7v-.7h-.7v.7Z" class="g1_1"/>
<path d="M941.2,687.3h148.2v-.7H941.2v.7Z" class="g1_1"/>
<path d="M1089.4,687.3h.7v-.7h-.7v.7Z" class="g1_1"/>
<path d="M1090.1,687.3h148.1v-.7H1090.1v.7Z" class="g1_1"/>
<path d="M1238.2,687.3h.8v-.7h-.8v.7Z" class="g1_1"/>
<path d="M47.1,709h.7V687.3h-.7V709Z" class="g1_1"/>
<path d="M196.2,709h.7V687.3h-.7V709Z" class="g1_1"/>
<path d="M345,709h.8V687.3H345V709Z" class="g1_1"/>
<path d="M493.9,709h.7V687.3h-.7V709Z" class="g1_1"/>
<path d="M642.8,709h.7V687.3h-.7V709Z" class="g1_1"/>
<path d="M791.6,709h.8V687.3h-.8V709Z" class="g1_1"/>
<path d="M940.5,709h.7V687.3h-.7V709Z" class="g1_1"/>
<path d="M1089.4,709h.7V687.3h-.7V709Z" class="g1_1"/>
<path d="M1238.2,709h.8V687.3h-.8V709Z" class="g1_1"/>
<path d="M47.1,709.7h.7v-.8h-.7v.8Z" class="g1_1"/>
<path d="M47.8,709.7H196.2v-.8H47.8v.8Z" class="g1_1"/>
<path d="M196.2,709.7h.7v-.8h-.7v.8Z" class="g1_1"/>
<path d="M196.9,709.7H345v-.8H196.9v.8Z" class="g1_1"/>
<path d="M345,709.7h.8v-.8H345v.8Z" class="g1_1"/>
<path d="M345.8,709.7H493.9v-.8H345.8v.8Z" class="g1_1"/>
<path d="M493.9,709.7h.7v-.8h-.7v.8Z" class="g1_1"/>
<path d="M494.6,709.7H642.8v-.8H494.6v.8Z" class="g1_1"/>
<path d="M642.8,709.7h.7v-.8h-.7v.8Z" class="g1_1"/>
<path d="M643.5,709.7H791.6v-.8H643.5v.8Z" class="g1_1"/>
<path d="M791.6,709.7h.8v-.8h-.8v.8Z" class="g1_1"/>
<path d="M792.4,709.7H940.5v-.8H792.4v.8Z" class="g1_1"/>
<path d="M940.5,709.7h.7v-.8h-.7v.8Z" class="g1_1"/>
<path d="M941.2,709.7h148.2v-.8H941.2v.8Z" class="g1_1"/>
<path d="M1089.4,709.7h.7v-.8h-.7v.8Z" class="g1_1"/>
<path d="M1090.1,709.7h148.1v-.8H1090.1v.8Z" class="g1_1"/>
<path d="M1238.2,709.7h.8v-.8h-.8v.8Z" class="g1_1"/>
<path d="M47.1,731.5h.7V709.7h-.7v21.8Z" class="g1_1"/>
<path d="M196.2,731.5h.7V709.7h-.7v21.8Z" class="g1_1"/>
<path d="M345,731.5h.8V709.7H345v21.8Z" class="g1_1"/>
<path d="M493.9,731.5h.7V709.7h-.7v21.8Z" class="g1_1"/>
<path d="M642.8,731.5h.7V709.7h-.7v21.8Z" class="g1_1"/>
<path d="M791.6,731.5h.8V709.7h-.8v21.8Z" class="g1_1"/>
<path d="M940.5,731.5h.7V709.7h-.7v21.8Z" class="g1_1"/>
<path d="M1089.4,731.5h.7V709.7h-.7v21.8Z" class="g1_1"/>
<path d="M1238.2,731.5h.8V709.7h-.8v21.8Z" class="g1_1"/>
<path d="M47.1,732.2h.7v-.7h-.7v.7Z" class="g1_1"/>
<path d="M47.8,732.2H196.2v-.7H47.8v.7Z" class="g1_1"/>
<path d="M196.2,732.2h.7v-.7h-.7v.7Z" class="g1_1"/>
<path d="M196.9,732.2H345v-.7H196.9v.7Z" class="g1_1"/>
<path d="M345,732.2h.8v-.7H345v.7Z" class="g1_1"/>
<path d="M345.8,732.2H493.9v-.7H345.8v.7Z" class="g1_1"/>
<path d="M493.9,732.2h.7v-.7h-.7v.7Z" class="g1_1"/>
<path d="M494.6,732.2H642.8v-.7H494.6v.7Z" class="g1_1"/>
<path d="M642.8,732.2h.7v-.7h-.7v.7Z" class="g1_1"/>
<path d="M643.5,732.2H791.6v-.7H643.5v.7Z" class="g1_1"/>
<path d="M791.6,732.2h.8v-.7h-.8v.7Z" class="g1_1"/>
<path d="M792.4,732.2H940.5v-.7H792.4v.7Z" class="g1_1"/>
<path d="M940.5,732.2h.7v-.7h-.7v.7Z" class="g1_1"/>
<path d="M941.2,732.2h148.2v-.7H941.2v.7Z" class="g1_1"/>
<path d="M1089.4,732.2h.7v-.7h-.7v.7Z" class="g1_1"/>
<path d="M1090.1,732.2h148.1v-.7H1090.1v.7Z" class="g1_1"/>
<path d="M1238.2,732.2h.8v-.7h-.8v.7Z" class="g1_1"/>
<path d="M47.1,753.9h.7V732.2h-.7v21.7Z" class="g1_1"/>
<path d="M196.2,753.9h.7V732.2h-.7v21.7Z" class="g1_1"/>
<path d="M345,753.9h.8V732.2H345v21.7Z" class="g1_1"/>
<path d="M493.9,753.9h.7V732.2h-.7v21.7Z" class="g1_1"/>
<path d="M642.8,753.9h.7V732.2h-.7v21.7Z" class="g1_1"/>
<path d="M791.6,753.9h.8V732.2h-.8v21.7Z" class="g1_1"/>
<path d="M940.5,753.9h.7V732.2h-.7v21.7Z" class="g1_1"/>
<path d="M1089.4,753.9h.7V732.2h-.7v21.7Z" class="g1_1"/>
<path d="M1238.2,753.9h.8V732.2h-.8v21.7Z" class="g1_1"/>
<path d="M47.1,754.6h.7v-.7h-.7v.7Z" class="g1_1"/>
<path d="M47.8,754.6H196.2v-.7H47.8v.7Z" class="g1_1"/>
<path d="M196.2,754.6h.7v-.7h-.7v.7Z" class="g1_1"/>
<path d="M196.9,754.6H345v-.7H196.9v.7Z" class="g1_1"/>
<path d="M345,754.6h.8v-.7H345v.7Z" class="g1_1"/>
<path d="M345.8,754.6H493.9v-.7H345.8v.7Z" class="g1_1"/>
<path d="M493.9,754.6h.7v-.7h-.7v.7Z" class="g1_1"/>
<path d="M494.6,754.6H642.8v-.7H494.6v.7Z" class="g1_1"/>
<path d="M642.8,754.6h.7v-.7h-.7v.7Z" class="g1_1"/>
<path d="M643.5,754.6H791.6v-.7H643.5v.7Z" class="g1_1"/>
<path d="M791.6,754.6h.8v-.7h-.8v.7Z" class="g1_1"/>
<path d="M792.4,754.6H940.5v-.7H792.4v.7Z" class="g1_1"/>
<path d="M940.5,754.6h.7v-.7h-.7v.7Z" class="g1_1"/>
<path d="M941.2,754.6h148.2v-.7H941.2v.7Z" class="g1_1"/>
<path d="M1089.4,754.6h.7v-.7h-.7v.7Z" class="g1_1"/>
<path d="M1090.1,754.6h148.1v-.7H1090.1v.7Z" class="g1_1"/>
<path d="M1238.2,754.6h.8v-.7h-.8v.7Z" class="g1_1"/>
<path d="M47.1,776.4h.7V754.6h-.7v21.8Z" class="g1_1"/>
<path d="M196.2,776.4h.7V754.6h-.7v21.8Z" class="g1_1"/>
<path d="M345,776.4h.8V754.6H345v21.8Z" class="g1_1"/>
<path d="M493.9,776.4h.7V754.6h-.7v21.8Z" class="g1_1"/>
<path d="M642.8,776.4h.7V754.6h-.7v21.8Z" class="g1_1"/>
<path d="M791.6,776.4h.8V754.6h-.8v21.8Z" class="g1_1"/>
<path d="M940.5,776.4h.7V754.6h-.7v21.8Z" class="g1_1"/>
<path d="M1089.4,776.4h.7V754.6h-.7v21.8Z" class="g1_1"/>
<path d="M1238.2,776.4h.8V754.6h-.8v21.8Z" class="g1_1"/>
<path d="M47.1,777.2h.7v-.8h-.7v.8Z" class="g1_1"/>
<path d="M47.8,777.2H196.2v-.8H47.8v.8Z" class="g1_1"/>
<path d="M196.2,777.2h.7v-.8h-.7v.8Z" class="g1_1"/>
<path d="M196.9,777.2H345v-.8H196.9v.8Z" class="g1_1"/>
<path d="M345,777.2h.8v-.8H345v.8Z" class="g1_1"/>
<path d="M345.8,777.2H493.9v-.8H345.8v.8Z" class="g1_1"/>
<path d="M493.9,777.2h.7v-.8h-.7v.8Z" class="g1_1"/>
<path d="M494.6,777.2H642.8v-.8H494.6v.8Z" class="g1_1"/>
<path d="M642.8,777.2h.7v-.8h-.7v.8Z" class="g1_1"/>
<path d="M643.5,777.2H791.6v-.8H643.5v.8Z" class="g1_1"/>
<path d="M791.6,777.2h.8v-.8h-.8v.8Z" class="g1_1"/>
<path d="M792.4,777.2H940.5v-.8H792.4v.8Z" class="g1_1"/>
<path d="M940.5,777.2h.7v-.8h-.7v.8Z" class="g1_1"/>
<path d="M941.2,777.2h148.2v-.8H941.2v.8Z" class="g1_1"/>
<path d="M1089.4,777.2h.7v-.8h-.7v.8Z" class="g1_1"/>
<path d="M1090.1,777.2h148.1v-.8H1090.1v.8Z" class="g1_1"/>
<path d="M1238.2,777.2h.8v-.8h-.8v.8Z" class="g1_1"/>
<path d="M47.1,798.8h.7V777.1h-.7v21.7Z" class="g1_1"/>
<path d="M196.2,798.8h.7V777.1h-.7v21.7Z" class="g1_1"/>
<path d="M345,798.8h.8V777.1H345v21.7Z" class="g1_1"/>
<path d="M493.9,798.8h.7V777.1h-.7v21.7Z" class="g1_1"/>
<path d="M642.8,798.8h.7V777.1h-.7v21.7Z" class="g1_1"/>
<path d="M791.6,798.8h.8V777.1h-.8v21.7Z" class="g1_1"/>
<path d="M940.5,798.8h.7V777.1h-.7v21.7Z" class="g1_1"/>
<path d="M1089.4,798.8h.7V777.1h-.7v21.7Z" class="g1_1"/>
<path d="M1238.2,798.8h.8V777.1h-.8v21.7Z" class="g1_1"/>
<path d="M47.1,799.5h.7v-.7h-.7v.7Z" class="g1_1"/>
<path d="M47.8,799.5H196.2v-.7H47.8v.7Z" class="g1_1"/>
<path d="M196.2,799.5h.7v-.7h-.7v.7Z" class="g1_1"/>
<path d="M196.9,799.5H345v-.7H196.9v.7Z" class="g1_1"/>
<path d="M345,799.5h.8v-.7H345v.7Z" class="g1_1"/>
<path d="M345.8,799.5H493.9v-.7H345.8v.7Z" class="g1_1"/>
<path d="M493.9,799.5h.7v-.7h-.7v.7Z" class="g1_1"/>
<path d="M494.6,799.5H642.8v-.7H494.6v.7Z" class="g1_1"/>
<path d="M642.8,799.5h.7v-.7h-.7v.7Z" class="g1_1"/>
<path d="M643.5,799.5H791.6v-.7H643.5v.7Z" class="g1_1"/>
<path d="M791.6,799.5h.8v-.7h-.8v.7Z" class="g1_1"/>
<path d="M792.4,799.5H940.5v-.7H792.4v.7Z" class="g1_1"/>
<path d="M940.5,799.5h.7v-.7h-.7v.7Z" class="g1_1"/>
<path d="M941.2,799.5h148.2v-.7H941.2v.7Z" class="g1_1"/>
<path d="M1089.4,799.5h.7v-.7h-.7v.7Z" class="g1_1"/>
<path d="M1090.1,799.5h148.1v-.7H1090.1v.7Z" class="g1_1"/>
<path d="M1238.2,799.5h.8v-.7h-.8v.7Z" class="g1_1"/>
<path d="M47.1,821.3h.7V799.5h-.7v21.8Z" class="g1_1"/>
<path d="M196.2,821.3h.7V799.5h-.7v21.8Z" class="g1_1"/>
<path d="M345,821.3h.8V799.5H345v21.8Z" class="g1_1"/>
<path d="M493.9,821.3h.7V799.5h-.7v21.8Z" class="g1_1"/>
<path d="M642.8,821.3h.7V799.5h-.7v21.8Z" class="g1_1"/>
<path d="M791.6,821.3h.8V799.5h-.8v21.8Z" class="g1_1"/>
<path d="M940.5,821.3h.7V799.5h-.7v21.8Z" class="g1_1"/>
<path d="M1089.4,821.3h.7V799.5h-.7v21.8Z" class="g1_1"/>
<path d="M1238.2,821.3h.8V799.5h-.8v21.8Z" class="g1_1"/>
<path d="M47.1,822.1h.7v-.8h-.7v.8Z" class="g1_1"/>
<path d="M47.8,822.1H196.2v-.8H47.8v.8Z" class="g1_1"/>
<path d="M196.2,822.1h.7v-.8h-.7v.8Z" class="g1_1"/>
<path d="M196.9,822.1H345v-.8H196.9v.8Z" class="g1_1"/>
<path d="M345,822.1h.8v-.8H345v.8Z" class="g1_1"/>
<path d="M345.8,822.1H493.9v-.8H345.8v.8Z" class="g1_1"/>
<path d="M493.9,822.1h.7v-.8h-.7v.8Z" class="g1_1"/>
<path d="M494.6,822.1H642.8v-.8H494.6v.8Z" class="g1_1"/>
<path d="M642.8,822.1h.7v-.8h-.7v.8Z" class="g1_1"/>
<path d="M643.5,822.1H791.6v-.8H643.5v.8Z" class="g1_1"/>
<path d="M791.6,822.1h.8v-.8h-.8v.8Z" class="g1_1"/>
<path d="M792.4,822.1H940.5v-.8H792.4v.8Z" class="g1_1"/>
<path d="M940.5,822.1h.7v-.8h-.7v.8Z" class="g1_1"/>
<path d="M941.2,822.1h148.2v-.8H941.2v.8Z" class="g1_1"/>
<path d="M1089.4,822.1h.7v-.8h-.7v.8Z" class="g1_1"/>
<path d="M1090.1,822.1h148.1v-.8H1090.1v.8Z" class="g1_1"/>
<path d="M1238.2,822.1h.8v-.8h-.8v.8Z" class="g1_1"/>
<path d="M47.1,843.7h.7V822.1h-.7v21.6Z" class="g1_1"/>
<path d="M47.1,844.4h.7v-.7h-.7v.7Z" class="g1_1"/>
<path d="M47.1,844.4h.7v-.7h-.7v.7Z" class="g1_1"/>
<path d="M47.8,844.4H196.2v-.7H47.8v.7Z" class="g1_1"/>
<path d="M196.2,843.7h.7V822.1h-.7v21.6Z" class="g1_1"/>
<path d="M196.2,844.4h.7v-.7h-.7v.7Z" class="g1_1"/>
<path d="M196.9,844.4H345v-.7H196.9v.7Z" class="g1_1"/>
<path d="M345,843.7h.8V822.1H345v21.6Z" class="g1_1"/>
<path d="M345,844.4h.8v-.7H345v.7Z" class="g1_1"/>
<path d="M345.8,844.4H493.9v-.7H345.8v.7Z" class="g1_1"/>
<path d="M493.9,843.7h.7V822.1h-.7v21.6Z" class="g1_1"/>
<path d="M493.9,844.4h.7v-.7h-.7v.7Z" class="g1_1"/>
<path d="M494.6,844.4H642.8v-.7H494.6v.7Z" class="g1_1"/>
<path d="M642.8,843.7h.7V822.1h-.7v21.6Z" class="g1_1"/>
<path d="M642.8,844.4h.7v-.7h-.7v.7Z" class="g1_1"/>
<path d="M643.5,844.4H791.6v-.7H643.5v.7Z" class="g1_1"/>
<path d="M791.6,843.7h.8V822.1h-.8v21.6Z" class="g1_1"/>
<path d="M791.6,844.4h.8v-.7h-.8v.7Z" class="g1_1"/>
<path d="M792.4,844.4H940.5v-.7H792.4v.7Z" class="g1_1"/>
<path d="M940.5,843.7h.7V822.1h-.7v21.6Z" class="g1_1"/>
<path d="M940.5,844.4h.7v-.7h-.7v.7Z" class="g1_1"/>
<path d="M941.2,844.4h148.2v-.7H941.2v.7Z" class="g1_1"/>
<path d="M1089.4,843.7h.7V822.1h-.7v21.6Z" class="g1_1"/>
<path d="M1089.4,844.4h.7v-.7h-.7v.7Z" class="g1_1"/>
<path d="M1090.1,844.4h148.1v-.7H1090.1v.7Z" class="g1_1"/>
<path d="M1238.2,843.7h.8V822.1h-.8v21.6Z" class="g1_1"/>
<path d="M1238.2,844.4h.8v-.7h-.8v.7Z" class="g1_1"/>
<path d="M1238.2,844.4h.8v-.7h-.8v.7Z" class="g1_1"/>
</svg>