<?xml version="1.0" encoding="UTF-8" standalone="no"?>
<!DOCTYPE svg PUBLIC "-//W3C//DTD SVG 1.1//EN"
"http://www.w3.org/Graphics/SVG/1.1/DTD/svg11.dtd">
<svg viewBox="0 0 1286 909" version="1.1" xmlns="http://www.w3.org/2000/svg" xmlns:xlink="http://www.w3.org/1999/xlink">
<defs>
<style type="text/css"><![CDATA[
.g0{
}
]]></style>
</defs>
<path d="M47.1,35.4h.7v-.8h-.7v.8Z" class="g0"/>
<path d="M47.1,35.4h.7v-.8h-.7v.8Z" class="g0"/>
<path d="M47.8,35.4H198.4v-.8H47.8v.8Z" class="g0"/>
<path d="M198.4,35.4h.7v-.8h-.7v.8Z" class="g0"/>
<path d="M199.1,35.4H393.3v-.8H199.1v.8Z" class="g0"/>
<path d="M393.2,35.4h.8v-.8h-.8v.8Z" class="g0"/>
<path d="M394,35.4H826.5v-.8H394v.8Z" class="g0"/>
<path d="M826.5,35.4h.7v-.8h-.7v.8Z" class="g0"/>
<path d="M827.2,35.4h313.1v-.8H827.2v.8Z" class="g0"/>
<path d="M1140.3,35.4h.8v-.8h-.8v.8Z" class="g0"/>
<path d="M1141.1,35.4h97.1v-.8h-97.1v.8Z" class="g0"/>
<path d="M1238.2,35.4h.8v-.8h-.8v.8Z" class="g0"/>
<path d="M1238.2,35.4h.8v-.8h-.8v.8Z" class="g0"/>
<path d="M47.1,61.4h.7v-26h-.7v26Z" class="g0"/>
<path d="M198.4,61.4h.7v-26h-.7v26Z" class="g0"/>
<path d="M393.2,61.4h.8v-26h-.8v26Z" class="g0"/>
<path d="M826.5,61.4h.7v-26h-.7v26Z" class="g0"/>
<path d="M1140.3,61.4h.8v-26h-.8v26Z" class="g0"/>
<path d="M1238.2,61.4h.8v-26h-.8v26Z" class="g0"/>
<path d="M47.1,62.1h.7v-.7h-.7v.7Z" class="g0"/>
<path d="M198.4,62.1h.7v-.7h-.7v.7Z" class="g0"/>
<path d="M393.2,62.1h.8v-.7h-.8v.7Z" class="g0"/>
<path d="M826.5,62.1h.7v-.7h-.7v.7Z" class="g0"/>
<path d="M827.2,62.1h313.1v-.7H827.2v.7Z" class="g0"/>
<path d="M1140.3,62.1h.8v-.7h-.8v.7Z" class="g0"/>
<path d="M1141.1,62.1h97.1v-.7h-97.1v.7Z" class="g0"/>
<path d="M1238.2,62.1h.8v-.7h-.8v.7Z" class="g0"/>
<path d="M47.1,88.2h.7V62.1h-.7V88.2Z" class="g0"/>
<path d="M198.4,88.2h.7V62.1h-.7V88.2Z" class="g0"/>
<path d="M393.2,88.2h.8V62.1h-.8V88.2Z" class="g0"/>
<path d="M826.5,88.2h.7V62.1h-.7V88.2Z" class="g0"/>
<path d="M1140.3,88.2h.8V62.1h-.8V88.2Z" class="g0"/>
<path d="M1238.2,88.2h.8V62.1h-.8V88.2Z" class="g0"/>
<path d="M47.1,88.9h.7v-.7h-.7v.7Z" class="g0"/>
<path d="M198.4,88.9h.7v-.7h-.7v.7Z" class="g0"/>
<path d="M393.2,88.9h.8v-.7h-.8v.7Z" class="g0"/>
<path d="M826.5,88.9h.7v-.7h-.7v.7Z" class="g0"/>
<path d="M827.2,88.9h313.1v-.7H827.2v.7Z" class="g0"/>
<path d="M1140.3,88.9h.8v-.7h-.8v.7Z" class="g0"/>
<path d="M1141.1,88.9h97.1v-.7h-97.1v.7Z" class="g0"/>
<path d="M1238.2,88.9h.8v-.7h-.8v.7Z" class="g0"/>
<path d="M47.1,114.9h.7v-26h-.7v26Z" class="g0"/>
<path d="M198.4,114.9h.7v-26h-.7v26Z" class="g0"/>
<path d="M393.2,114.9h.8v-26h-.8v26Z" class="g0"/>
<path d="M826.5,114.9h.7v-26h-.7v26Z" class="g0"/>
<path d="M1140.3,114.9h.8v-26h-.8v26Z" class="g0"/>
<path d="M1238.2,114.9h.8v-26h-.8v26Z" class="g0"/>
<path d="M47.1,115.7h.7v-.8h-.7v.8Z" class="g0"/>
<path d="M198.4,115.7h.7v-.8h-.7v.8Z" class="g0"/>
<path d="M393.2,115.7h.8v-.8h-.8v.8Z" class="g0"/>
<path d="M826.5,115.7h.7v-.8h-.7v.8Z" class="g0"/>
<path d="M827.2,115.7h313.1v-.8H827.2v.8Z" class="g0"/>
<path d="M1140.3,115.7h.8v-.8h-.8v.8Z" class="g0"/>
<path d="M1141.1,115.7h97.1v-.8h-97.1v.8Z" class="g0"/>
<path d="M1238.2,115.7h.8v-.8h-.8v.8Z" class="g0"/>
<path d="M47.1,141.5h.7V115.7h-.7v25.8Z" class="g0"/>
<path d="M198.4,141.5h.7V115.7h-.7v25.8Z" class="g0"/>
<path d="M393.2,141.5h.8V115.7h-.8v25.8Z" class="g0"/>
<path d="M826.5,141.5h.7V115.7h-.7v25.8Z" class="g0"/>
<path d="M1140.3,141.5h.8V115.7h-.8v25.8Z" class="g0"/>
<path d="M1238.2,141.5h.8V115.7h-.8v25.8Z" class="g0"/>
<path d="M47.1,142.3h.7v-.8h-.7v.8Z" class="g0"/>
<path d="M198.4,142.3h.7v-.8h-.7v.8Z" class="g0"/>
<path d="M393.2,142.3h.8v-.8h-.8v.8Z" class="g0"/>
<path d="M826.5,142.3h.7v-.8h-.7v.8Z" class="g0"/>
<path d="M827.2,142.3h313.1v-.8H827.2v.8Z" class="g0"/>
<path d="M1140.3,142.3h.8v-.8h-.8v.8Z" class="g0"/>
<path d="M1141.1,142.3h97.1v-.8h-97.1v.8Z" class="g0"/>
<path d="M1238.2,142.3h.8v-.8h-.8v.8Z" class="g0"/>
<path d="M47.1,193.6h.7V142.3h-.7v51.3Z" class="g0"/>
<path d="M198.4,193.6h.7V142.3h-.7v51.3Z" class="g0"/>
<path d="M393.2,193.6h.8V142.3h-.8v51.3Z" class="g0"/>
<path d="M826.5,193.6h.7V142.3h-.7v51.3Z" class="g0"/>
<path d="M1140.3,193.6h.8V142.3h-.8v51.3Z" class="g0"/>
<path d="M1238.2,193.6h.8V142.3h-.8v51.3Z" class="g0"/>
<path d="M47.1,194.3h.7v-.7h-.7v.7Z" class="g0"/>
<path d="M47.8,194.3H198.4v-.7H47.8v.7Z" class="g0"/>
<path d="M198.4,194.3h.7v-.7h-.7v.7Z" class="g0"/>
<path d="M199.1,194.3H393.3v-.7H199.1v.7Z" class="g0"/>
<path d="M393.2,194.3h.8v-.7h-.8v.7Z" class="g0"/>
<path d="M394,194.3H826.5v-.7H394v.7Z" class="g0"/>
<path d="M826.5,194.3h.7v-.7h-.7v.7Z" class="g0"/>
<path d="M827.2,194.3h313.1v-.7H827.2v.7Z" class="g0"/>
<path d="M1140.3,194.3h.8v-.7h-.8v.7Z" class="g0"/>
<path d="M1141.1,194.3h97.1v-.7h-97.1v.7Z" class="g0"/>
<path d="M1238.2,194.3h.8v-.7h-.8v.7Z" class="g0"/>
<path d="M47.1,216h.7V194.3h-.7V216Z" class="g0"/>
<path d="M1238.2,216h.8V194.3h-.8V216Z" class="g0"/>
<path d="M47.1,216.7h.7V216h-.7v.7Z" class="g0"/>
<path d="M47.8,216.7H1238.2V216H47.8v.7Z" class="g0"/>
<path d="M1238.2,216.7h.8V216h-.8v.7Z" class="g0"/>
<path d="M47.1,238.5h.7V216.7h-.7v21.8Z" class="g0"/>
<path d="M47.1,239.3h.7v-.8h-.7v.8Z" class="g0"/>
<path d="M47.1,239.3h.7v-.8h-.7v.8Z" class="g0"/>
<path d="M47.8,239.3H1238.2v-.8H47.8v.8Z" class="g0"/>
<path d="M1238.2,238.5h.8V216.7h-.8v21.8Z" class="g0"/>
<path d="M1238.2,239.3h.8v-.8h-.8v.8Z" class="g0"/>
<path d="M1238.2,239.3h.8v-.8h-.8v.8Z" class="g0"/>
</svg>