<?xml version="1.0" encoding="UTF-8" standalone="no"?>
<!DOCTYPE svg PUBLIC "-//W3C//DTD SVG 1.1//EN"
"http://www.w3.org/Graphics/SVG/1.1/DTD/svg11.dtd">
<svg viewBox="0 0 1286 909" version="1.1" xmlns="http://www.w3.org/2000/svg" xmlns:xlink="http://www.w3.org/1999/xlink">
<defs>
<clipPath id="c0_6"><path d="M52.8,584.7V199.3H289.5V584.7Z"/></clipPath>
<clipPath id="c1_6"><path d="M75.9,561.5V222.1H266.4V561.5Z"/></clipPath>
<clipPath id="c2_6"><path d="M288.9,584.7V199.3H525.6V584.7Z"/></clipPath>
<clipPath id="c3_6"><path d="M312,561.5V222.1H502.5V561.5Z"/></clipPath>
<clipPath id="c4_6"><path d="M524.9,584.7V199.3H761.6V584.7Z"/></clipPath>
<clipPath id="c5_6"><path d="M548,561.5V222.1H738.5V561.5Z"/></clipPath>
<clipPath id="c6_6"><path d="M761,584.7V199.3H997.7V584.7Z"/></clipPath>
<clipPath id="c7_6"><path d="M784.1,561.5V222.1H974.6V561.5Z"/></clipPath>
<clipPath id="c8_6"><path d="M997,584.7V199.3h236.6V584.7Z"/></clipPath>
<clipPath id="c9_6"><path d="M1020.1,561.5V222.1h190.5V561.5Z"/></clipPath>
</defs>
<image clip-path="url(#c0_6)" preserveAspectRatio="none" x="53" y="199" width="236" height="386" xlink:href="img/1.png"/>
<image clip-path="url(#c1_6)" preserveAspectRatio="none" x="76" y="222" width="190" height="340" xlink:href="img/2.jpg"/>
<image clip-path="url(#c2_6)" preserveAspectRatio="none" x="289" y="199" width="237" height="386" xlink:href="img/3.png"/>
<image clip-path="url(#c3_6)" preserveAspectRatio="none" x="312" y="222" width="190" height="340" xlink:href="img/4.jpg"/>
<image clip-path="url(#c4_6)" preserveAspectRatio="none" x="525" y="199" width="237" height="386" xlink:href="img/5.png"/>
<image clip-path="url(#c5_6)" preserveAspectRatio="none" x="548" y="222" width="191" height="340" xlink:href="img/6.jpg"/>
<image clip-path="url(#c6_6)" preserveAspectRatio="none" x="761" y="199" width="237" height="386" xlink:href="img/7.png"/>
<image clip-path="url(#c7_6)" preserveAspectRatio="none" x="784" y="222" width="191" height="340" xlink:href="img/8.jpg"/>
<image clip-path="url(#c8_6)" preserveAspectRatio="none" x="997" y="199" width="237" height="386" xlink:href="img/9.png"/>
<image clip-path="url(#c9_6)" preserveAspectRatio="none" x="1020" y="222" width="191" height="340" xlink:href="img/10.jpg"/>
</svg>