<?xml version="1.0" encoding="UTF-8" standalone="no"?>
<!DOCTYPE svg PUBLIC "-//W3C//DTD SVG 1.1//EN"
"http://www.w3.org/Graphics/SVG/1.1/DTD/svg11.dtd">
<svg viewBox="0 0 1286 909" version="1.1" xmlns="http://www.w3.org/2000/svg" xmlns:xlink="http://www.w3.org/1999/xlink">
<defs>
<style type="text/css"><![CDATA[
.g0_1{
fill: #D9D9D9;
}
.g1_1{
}
]]></style>
</defs>
<path fill-rule="evenodd" d="M47.8,308.2H328.4V286.5H47.8v21.7Z" class="g0_1"/>
<path fill-rule="evenodd" d="M55.7,306.2H320.5V288.6H55.7v17.6Z" class="g0_1"/>
<path fill-rule="evenodd" d="M329.1,308.2H588.3V286.5H329.1v21.7Z" class="g0_1"/>
<path fill-rule="evenodd" d="M337,306.2H580.4V288.6H337v17.6Z" class="g0_1"/>
<path fill-rule="evenodd" d="M589.1,308.2h649.1V286.5H589.1v21.7Z" class="g0_1"/>
<path fill-rule="evenodd" d="M596.9,306.2h633.5V288.6H596.9v17.6Z" class="g0_1"/>
<path d="M47.1,286.5h.7v-.7h-.7v.7Z" class="g1_1"/>
<path d="M47.1,286.5h.7v-.7h-.7v.7Z" class="g1_1"/>
<path d="M47.8,286.5H328.4v-.7H47.8v.7Z" class="g1_1"/>
<path d="M328.4,286.5h.7v-.7h-.7v.7Z" class="g1_1"/>
<path d="M329.1,286.5h259v-.7h-259v.7Z" class="g1_1"/>
<path d="M588.1,286.5h.8v-.7h-.8v.7Z" class="g1_1"/>
<path d="M588.9,286.5h649.3v-.7H588.9v.7Z" class="g1_1"/>
<path d="M1238.2,286.5h.8v-.7h-.8v.7Z" class="g1_1"/>
<path d="M1238.2,286.5h.8v-.7h-.8v.7Z" class="g1_1"/>
<path d="M47.1,308.2h.7V286.5h-.7v21.7Z" class="g1_1"/>
<path d="M328.4,308.2h.7V286.5h-.7v21.7Z" class="g1_1"/>
<path d="M588.1,308.2h.8V286.5h-.8v21.7Z" class="g1_1"/>
<path d="M1238.2,308.2h.8V286.5h-.8v21.7Z" class="g1_1"/>
<path d="M47.1,308.9h.7v-.7h-.7v.7Z" class="g1_1"/>
<path d="M47.8,308.9H328.4v-.7H47.8v.7Z" class="g1_1"/>
<path d="M328.4,308.9h.7v-.7h-.7v.7Z" class="g1_1"/>
<path d="M329.1,308.9h259v-.7h-259v.7Z" class="g1_1"/>
<path d="M588.1,308.9h.8v-.7h-.8v.7Z" class="g1_1"/>
<path d="M588.9,308.9h649.3v-.7H588.9v.7Z" class="g1_1"/>
<path d="M1238.2,308.9h.8v-.7h-.8v.7Z" class="g1_1"/>
<path d="M47.1,330.7h.7V308.9h-.7v21.8Z" class="g1_1"/>
<path d="M328.4,330.7h.7V308.9h-.7v21.8Z" class="g1_1"/>
<path d="M588.1,330.7h.8V308.9h-.8v21.8Z" class="g1_1"/>
<path d="M1238.2,330.7h.8V308.9h-.8v21.8Z" class="g1_1"/>
<path d="M47.1,331.5h.7v-.8h-.7v.8Z" class="g1_1"/>
<path d="M47.8,331.5H328.4v-.8H47.8v.8Z" class="g1_1"/>
<path d="M328.4,331.5h.7v-.8h-.7v.8Z" class="g1_1"/>
<path d="M329.1,331.5h259v-.8h-259v.8Z" class="g1_1"/>
<path d="M588.1,331.5h.8v-.8h-.8v.8Z" class="g1_1"/>
<path d="M588.9,331.5h649.3v-.8H588.9v.8Z" class="g1_1"/>
<path d="M1238.2,331.5h.8v-.8h-.8v.8Z" class="g1_1"/>
<path d="M47.1,353.1h.7V331.5h-.7v21.6Z" class="g1_1"/>
<path d="M328.4,353.1h.7V331.5h-.7v21.6Z" class="g1_1"/>
<path d="M588.1,353.1h.8V331.5h-.8v21.6Z" class="g1_1"/>
<path d="M1238.2,353.1h.8V331.5h-.8v21.6Z" class="g1_1"/>
<path d="M47.1,353.8h.7v-.7h-.7v.7Z" class="g1_1"/>
<path d="M47.8,353.8H328.4v-.7H47.8v.7Z" class="g1_1"/>
<path d="M328.4,353.8h.7v-.7h-.7v.7Z" class="g1_1"/>
<path d="M329.1,353.8h259v-.7h-259v.7Z" class="g1_1"/>
<path d="M588.1,353.8h.8v-.7h-.8v.7Z" class="g1_1"/>
<path d="M588.9,353.8h649.3v-.7H588.9v.7Z" class="g1_1"/>
<path d="M1238.2,353.8h.8v-.7h-.8v.7Z" class="g1_1"/>
<path d="M47.1,375.7h.7V353.8h-.7v21.9Z" class="g1_1"/>
<path d="M328.4,375.7h.7V353.8h-.7v21.9Z" class="g1_1"/>
<path d="M588.1,375.7h.8V353.8h-.8v21.9Z" class="g1_1"/>
<path d="M1238.2,375.7h.8V353.8h-.8v21.9Z" class="g1_1"/>
<path d="M47.1,376.4h.7v-.8h-.7v.8Z" class="g1_1"/>
<path d="M47.8,376.4H328.4v-.8H47.8v.8Z" class="g1_1"/>
<path d="M328.4,376.4h.7v-.8h-.7v.8Z" class="g1_1"/>
<path d="M329.1,376.4h259v-.8h-259v.8Z" class="g1_1"/>
<path d="M588.1,376.4h.8v-.8h-.8v.8Z" class="g1_1"/>
<path d="M588.9,376.4h649.3v-.8H588.9v.8Z" class="g1_1"/>
<path d="M1238.2,376.4h.8v-.8h-.8v.8Z" class="g1_1"/>
<path d="M47.1,398h.7V376.4h-.7V398Z" class="g1_1"/>
<path d="M328.4,398h.7V376.4h-.7V398Z" class="g1_1"/>
<path d="M588.1,398h.8V376.4h-.8V398Z" class="g1_1"/>
<path d="M1238.2,398h.8V376.4h-.8V398Z" class="g1_1"/>
<path d="M47.1,398.8h.7V398h-.7v.8Z" class="g1_1"/>
<path d="M47.8,398.8H328.4V398H47.8v.8Z" class="g1_1"/>
<path d="M328.4,398.8h.7V398h-.7v.8Z" class="g1_1"/>
<path d="M329.1,398.8h259V398h-259v.8Z" class="g1_1"/>
<path d="M588.1,398.8h.8V398h-.8v.8Z" class="g1_1"/>
<path d="M588.9,398.8h649.3V398H588.9v.8Z" class="g1_1"/>
<path d="M1238.2,398.8h.8V398h-.8v.8Z" class="g1_1"/>
<path d="M47.1,420.6h.7V398.8h-.7v21.8Z" class="g1_1"/>
<path d="M328.4,420.6h.7V398.8h-.7v21.8Z" class="g1_1"/>
<path d="M588.1,420.6h.8V398.8h-.8v21.8Z" class="g1_1"/>
<path d="M1238.2,420.6h.8V398.8h-.8v21.8Z" class="g1_1"/>
<path d="M47.1,421.3h.7v-.7h-.7v.7Z" class="g1_1"/>
<path d="M47.8,421.3H328.4v-.7H47.8v.7Z" class="g1_1"/>
<path d="M328.4,421.3h.7v-.7h-.7v.7Z" class="g1_1"/>
<path d="M329.1,421.3h259v-.7h-259v.7Z" class="g1_1"/>
<path d="M588.1,421.3h.8v-.7h-.8v.7Z" class="g1_1"/>
<path d="M588.9,421.3h649.3v-.7H588.9v.7Z" class="g1_1"/>
<path d="M1238.2,421.3h.8v-.7h-.8v.7Z" class="g1_1"/>
<path d="M47.1,442.9h.7V421.3h-.7v21.6Z" class="g1_1"/>
<path d="M328.4,442.9h.7V421.3h-.7v21.6Z" class="g1_1"/>
<path d="M588.1,442.9h.8V421.3h-.8v21.6Z" class="g1_1"/>
<path d="M1238.2,442.9h.8V421.3h-.8v21.6Z" class="g1_1"/>
<path d="M47.1,443.7h.7v-.8h-.7v.8Z" class="g1_1"/>
<path d="M47.8,443.7H328.4v-.8H47.8v.8Z" class="g1_1"/>
<path d="M328.4,443.7h.7v-.8h-.7v.8Z" class="g1_1"/>
<path d="M329.1,443.7h259v-.8h-259v.8Z" class="g1_1"/>
<path d="M588.1,443.7h.8v-.8h-.8v.8Z" class="g1_1"/>
<path d="M588.9,443.7h649.3v-.8H588.9v.8Z" class="g1_1"/>
<path d="M1238.2,443.7h.8v-.8h-.8v.8Z" class="g1_1"/>
<path d="M47.1,465.5h.7V443.7h-.7v21.8Z" class="g1_1"/>
<path d="M328.4,465.5h.7V443.7h-.7v21.8Z" class="g1_1"/>
<path d="M588.1,465.5h.8V443.7h-.8v21.8Z" class="g1_1"/>
<path d="M1238.2,465.5h.8V443.7h-.8v21.8Z" class="g1_1"/>
<path d="M47.1,466.2h.7v-.7h-.7v.7Z" class="g1_1"/>
<path d="M47.8,466.2H328.4v-.7H47.8v.7Z" class="g1_1"/>
<path d="M328.4,466.2h.7v-.7h-.7v.7Z" class="g1_1"/>
<path d="M329.1,466.2h259v-.7h-259v.7Z" class="g1_1"/>
<path d="M588.1,466.2h.8v-.7h-.8v.7Z" class="g1_1"/>
<path d="M588.9,466.2h649.3v-.7H588.9v.7Z" class="g1_1"/>
<path d="M1238.2,466.2h.8v-.7h-.8v.7Z" class="g1_1"/>
<path d="M47.1,487.9h.7V466.2h-.7v21.7Z" class="g1_1"/>
<path d="M328.4,487.9h.7V466.2h-.7v21.7Z" class="g1_1"/>
<path d="M588.1,487.9h.8V466.2h-.8v21.7Z" class="g1_1"/>
<path d="M1238.2,487.9h.8V466.2h-.8v21.7Z" class="g1_1"/>
<path d="M47.1,488.6h.7v-.8h-.7v.8Z" class="g1_1"/>
<path d="M47.8,488.6H328.4v-.8H47.8v.8Z" class="g1_1"/>
<path d="M328.4,488.6h.7v-.8h-.7v.8Z" class="g1_1"/>
<path d="M329.1,488.6h259v-.8h-259v.8Z" class="g1_1"/>
<path d="M588.1,488.6h.8v-.8h-.8v.8Z" class="g1_1"/>
<path d="M588.9,488.6h649.3v-.8H588.9v.8Z" class="g1_1"/>
<path d="M1238.2,488.6h.8v-.8h-.8v.8Z" class="g1_1"/>
<path d="M47.1,510.4h.7V488.6h-.7v21.8Z" class="g1_1"/>
<path d="M328.4,510.4h.7V488.6h-.7v21.8Z" class="g1_1"/>
<path d="M588.1,510.4h.8V488.6h-.8v21.8Z" class="g1_1"/>
<path d="M1238.2,510.4h.8V488.6h-.8v21.8Z" class="g1_1"/>
<path d="M47.1,511.1h.7v-.7h-.7v.7Z" class="g1_1"/>
<path d="M47.8,511.1H328.4v-.7H47.8v.7Z" class="g1_1"/>
<path d="M328.4,511.1h.7v-.7h-.7v.7Z" class="g1_1"/>
<path d="M329.1,511.1h259v-.7h-259v.7Z" class="g1_1"/>
<path d="M588.1,511.1h.8v-.7h-.8v.7Z" class="g1_1"/>
<path d="M588.9,511.1h649.3v-.7H588.9v.7Z" class="g1_1"/>
<path d="M1238.2,511.1h.8v-.7h-.8v.7Z" class="g1_1"/>
<path d="M47.1,532.8h.7V511.1h-.7v21.7Z" class="g1_1"/>
<path d="M328.4,532.8h.7V511.1h-.7v21.7Z" class="g1_1"/>
<path d="M588.1,532.8h.8V511.1h-.8v21.7Z" class="g1_1"/>
<path d="M1238.2,532.8h.8V511.1h-.8v21.7Z" class="g1_1"/>
<path d="M47.1,533.5h.7v-.7h-.7v.7Z" class="g1_1"/>
<path d="M47.8,533.5H328.4v-.7H47.8v.7Z" class="g1_1"/>
<path d="M328.4,533.5h.7v-.7h-.7v.7Z" class="g1_1"/>
<path d="M329.1,533.5h259v-.7h-259v.7Z" class="g1_1"/>
<path d="M588.1,533.5h.8v-.7h-.8v.7Z" class="g1_1"/>
<path d="M588.9,533.5h649.3v-.7H588.9v.7Z" class="g1_1"/>
<path d="M1238.2,533.5h.8v-.7h-.8v.7Z" class="g1_1"/>
<path d="M47.1,555.3h.7V533.5h-.7v21.8Z" class="g1_1"/>
<path d="M328.4,555.3h.7V533.5h-.7v21.8Z" class="g1_1"/>
<path d="M588.1,555.3h.8V533.5h-.8v21.8Z" class="g1_1"/>
<path d="M1238.2,555.3h.8V533.5h-.8v21.8Z" class="g1_1"/>
<path d="M47.1,556.1h.7v-.8h-.7v.8Z" class="g1_1"/>
<path d="M47.8,556.1H328.4v-.8H47.8v.8Z" class="g1_1"/>
<path d="M328.4,556.1h.7v-.8h-.7v.8Z" class="g1_1"/>
<path d="M329.1,556.1h259v-.8h-259v.8Z" class="g1_1"/>
<path d="M588.1,556.1h.8v-.8h-.8v.8Z" class="g1_1"/>
<path d="M588.9,556.1h649.3v-.8H588.9v.8Z" class="g1_1"/>
<path d="M1238.2,556.1h.8v-.8h-.8v.8Z" class="g1_1"/>
<path d="M47.1,577.7h.7V556h-.7v21.7Z" class="g1_1"/>
<path d="M328.4,577.7h.7V556h-.7v21.7Z" class="g1_1"/>
<path d="M588.1,577.7h.8V556h-.8v21.7Z" class="g1_1"/>
<path d="M1238.2,577.7h.8V556h-.8v21.7Z" class="g1_1"/>
<path d="M47.1,578.4h.7v-.7h-.7v.7Z" class="g1_1"/>
<path d="M47.8,578.4H328.4v-.7H47.8v.7Z" class="g1_1"/>
<path d="M328.4,578.4h.7v-.7h-.7v.7Z" class="g1_1"/>
<path d="M329.1,578.4h259v-.7h-259v.7Z" class="g1_1"/>
<path d="M588.1,578.4h.8v-.7h-.8v.7Z" class="g1_1"/>
<path d="M588.9,578.4h649.3v-.7H588.9v.7Z" class="g1_1"/>
<path d="M1238.2,578.4h.8v-.7h-.8v.7Z" class="g1_1"/>
<path d="M47.1,600.2h.7V578.4h-.7v21.8Z" class="g1_1"/>
<path d="M328.4,600.2h.7V578.4h-.7v21.8Z" class="g1_1"/>
<path d="M588.1,600.2h.8V578.4h-.8v21.8Z" class="g1_1"/>
<path d="M1238.2,600.2h.8V578.4h-.8v21.8Z" class="g1_1"/>
<path d="M47.1,601h.7v-.8h-.7v.8Z" class="g1_1"/>
<path d="M47.8,601H328.4v-.8H47.8v.8Z" class="g1_1"/>
<path d="M328.4,601h.7v-.8h-.7v.8Z" class="g1_1"/>
<path d="M329.1,601h259v-.8h-259v.8Z" class="g1_1"/>
<path d="M588.1,601h.8v-.8h-.8v.8Z" class="g1_1"/>
<path d="M588.9,601h649.3v-.8H588.9v.8Z" class="g1_1"/>
<path d="M1238.2,601h.8v-.8h-.8v.8Z" class="g1_1"/>
<path d="M47.1,622.6h.7V601h-.7v21.6Z" class="g1_1"/>
<path d="M328.4,622.6h.7V601h-.7v21.6Z" class="g1_1"/>
<path d="M588.1,622.6h.8V601h-.8v21.6Z" class="g1_1"/>
<path d="M1238.2,622.6h.8V601h-.8v21.6Z" class="g1_1"/>
<path d="M47.1,623.3h.7v-.7h-.7v.7Z" class="g1_1"/>
<path d="M47.8,623.3H328.4v-.7H47.8v.7Z" class="g1_1"/>
<path d="M328.4,623.3h.7v-.7h-.7v.7Z" class="g1_1"/>
<path d="M329.1,623.3h259v-.7h-259v.7Z" class="g1_1"/>
<path d="M588.1,623.3h.8v-.7h-.8v.7Z" class="g1_1"/>
<path d="M588.9,623.3h649.3v-.7H588.9v.7Z" class="g1_1"/>
<path d="M1238.2,623.3h.8v-.7h-.8v.7Z" class="g1_1"/>
<path d="M47.1,645.2h.7V623.3h-.7v21.9Z" class="g1_1"/>
<path d="M328.4,645.2h.7V623.3h-.7v21.9Z" class="g1_1"/>
<path d="M588.1,645.2h.8V623.3h-.8v21.9Z" class="g1_1"/>
<path d="M1238.2,645.2h.8V623.3h-.8v21.9Z" class="g1_1"/>
<path d="M47.1,645.9h.7v-.8h-.7v.8Z" class="g1_1"/>
<path d="M47.8,645.9H328.4v-.8H47.8v.8Z" class="g1_1"/>
<path d="M328.4,645.9h.7v-.8h-.7v.8Z" class="g1_1"/>
<path d="M329.1,645.9h259v-.8h-259v.8Z" class="g1_1"/>
<path d="M588.1,645.9h.8v-.8h-.8v.8Z" class="g1_1"/>
<path d="M588.9,645.9h649.3v-.8H588.9v.8Z" class="g1_1"/>
<path d="M1238.2,645.9h.8v-.8h-.8v.8Z" class="g1_1"/>
<path d="M47.1,667.5h.7V645.9h-.7v21.6Z" class="g1_1"/>
<path d="M328.4,667.5h.7V645.9h-.7v21.6Z" class="g1_1"/>
<path d="M588.1,667.5h.8V645.9h-.8v21.6Z" class="g1_1"/>
<path d="M1238.2,667.5h.8V645.9h-.8v21.6Z" class="g1_1"/>
<path d="M47.1,668.3h.7v-.8h-.7v.8Z" class="g1_1"/>
<path d="M47.8,668.3H328.4v-.8H47.8v.8Z" class="g1_1"/>
<path d="M328.4,668.3h.7v-.8h-.7v.8Z" class="g1_1"/>
<path d="M329.1,668.3h259v-.8h-259v.8Z" class="g1_1"/>
<path d="M588.1,668.3h.8v-.8h-.8v.8Z" class="g1_1"/>
<path d="M588.9,668.3h649.3v-.8H588.9v.8Z" class="g1_1"/>
<path d="M1238.2,668.3h.8v-.8h-.8v.8Z" class="g1_1"/>
<path d="M47.1,690.1h.7V668.3h-.7v21.8Z" class="g1_1"/>
<path d="M328.4,690.1h.7V668.3h-.7v21.8Z" class="g1_1"/>
<path d="M588.1,690.1h.8V668.3h-.8v21.8Z" class="g1_1"/>
<path d="M1238.2,690.1h.8V668.3h-.8v21.8Z" class="g1_1"/>
<path d="M47.1,690.8h.7v-.7h-.7v.7Z" class="g1_1"/>
<path d="M47.8,690.8H328.4v-.7H47.8v.7Z" class="g1_1"/>
<path d="M328.4,690.8h.7v-.7h-.7v.7Z" class="g1_1"/>
<path d="M329.1,690.8h259v-.7h-259v.7Z" class="g1_1"/>
<path d="M588.1,690.8h.8v-.7h-.8v.7Z" class="g1_1"/>
<path d="M588.9,690.8h649.3v-.7H588.9v.7Z" class="g1_1"/>
<path d="M1238.2,690.8h.8v-.7h-.8v.7Z" class="g1_1"/>
<path d="M47.1,712.4h.7V690.8h-.7v21.6Z" class="g1_1"/>
<path d="M328.4,712.4h.7V690.8h-.7v21.6Z" class="g1_1"/>
<path d="M588.1,712.4h.8V690.8h-.8v21.6Z" class="g1_1"/>
<path d="M1238.2,712.4h.8V690.8h-.8v21.6Z" class="g1_1"/>
<path d="M47.1,713.2h.7v-.8h-.7v.8Z" class="g1_1"/>
<path d="M47.8,713.2H328.4v-.8H47.8v.8Z" class="g1_1"/>
<path d="M328.4,713.2h.7v-.8h-.7v.8Z" class="g1_1"/>
<path d="M329.1,713.2h259v-.8h-259v.8Z" class="g1_1"/>
<path d="M588.1,713.2h.8v-.8h-.8v.8Z" class="g1_1"/>
<path d="M588.9,713.2h649.3v-.8H588.9v.8Z" class="g1_1"/>
<path d="M1238.2,713.2h.8v-.8h-.8v.8Z" class="g1_1"/>
<path d="M47.1,735h.7V713.2h-.7V735Z" class="g1_1"/>
<path d="M328.4,735h.7V713.2h-.7V735Z" class="g1_1"/>
<path d="M588.1,735h.8V713.2h-.8V735Z" class="g1_1"/>
<path d="M1238.2,735h.8V713.2h-.8V735Z" class="g1_1"/>
<path d="M47.1,735.7h.7V735h-.7v.7Z" class="g1_1"/>
<path d="M47.8,735.7H328.4V735H47.8v.7Z" class="g1_1"/>
<path d="M328.4,735.7h.7V735h-.7v.7Z" class="g1_1"/>
<path d="M329.1,735.7h259V735h-259v.7Z" class="g1_1"/>
<path d="M588.1,735.7h.8V735h-.8v.7Z" class="g1_1"/>
<path d="M588.9,735.7h649.3V735H588.9v.7Z" class="g1_1"/>
<path d="M1238.2,735.7h.8V735h-.8v.7Z" class="g1_1"/>
<path d="M47.1,757.4h.7V735.7h-.7v21.7Z" class="g1_1"/>
<path d="M328.4,757.4h.7V735.7h-.7v21.7Z" class="g1_1"/>
<path d="M588.1,757.4h.8V735.7h-.8v21.7Z" class="g1_1"/>
<path d="M1238.2,757.4h.8V735.7h-.8v21.7Z" class="g1_1"/>
<path d="M47.1,758.1h.7v-.8h-.7v.8Z" class="g1_1"/>
<path d="M47.8,758.1H328.4v-.8H47.8v.8Z" class="g1_1"/>
<path d="M328.4,758.1h.7v-.8h-.7v.8Z" class="g1_1"/>
<path d="M329.1,758.1h259v-.8h-259v.8Z" class="g1_1"/>
<path d="M588.1,758.1h.8v-.8h-.8v.8Z" class="g1_1"/>
<path d="M588.9,758.1h649.3v-.8H588.9v.8Z" class="g1_1"/>
<path d="M1238.2,758.1h.8v-.8h-.8v.8Z" class="g1_1"/>
<path d="M47.1,779.9h.7V758.1h-.7v21.8Z" class="g1_1"/>
<path d="M328.4,779.9h.7V758.1h-.7v21.8Z" class="g1_1"/>
<path d="M588.1,779.9h.8V758.1h-.8v21.8Z" class="g1_1"/>
<path d="M1238.2,779.9h.8V758.1h-.8v21.8Z" class="g1_1"/>
<path d="M47.1,780.6h.7v-.7h-.7v.7Z" class="g1_1"/>
<path d="M47.8,780.6H328.4v-.7H47.8v.7Z" class="g1_1"/>
<path d="M328.4,780.6h.7v-.7h-.7v.7Z" class="g1_1"/>
<path d="M329.1,780.6h259v-.7h-259v.7Z" class="g1_1"/>
<path d="M588.1,780.6h.8v-.7h-.8v.7Z" class="g1_1"/>
<path d="M588.9,780.6h649.3v-.7H588.9v.7Z" class="g1_1"/>
<path d="M1238.2,780.6h.8v-.7h-.8v.7Z" class="g1_1"/>
<path d="M47.1,802.3h.7V780.6h-.7v21.7Z" class="g1_1"/>
<path d="M328.4,802.3h.7V780.6h-.7v21.7Z" class="g1_1"/>
<path d="M588.1,802.3h.8V780.6h-.8v21.7Z" class="g1_1"/>
<path d="M1238.2,802.3h.8V780.6h-.8v21.7Z" class="g1_1"/>
<path d="M47.1,803h.7v-.7h-.7v.7Z" class="g1_1"/>
<path d="M47.8,803H328.4v-.7H47.8v.7Z" class="g1_1"/>
<path d="M328.4,803h.7v-.7h-.7v.7Z" class="g1_1"/>
<path d="M329.1,803h259v-.7h-259v.7Z" class="g1_1"/>
<path d="M588.1,803h.8v-.7h-.8v.7Z" class="g1_1"/>
<path d="M588.9,803h649.3v-.7H588.9v.7Z" class="g1_1"/>
<path d="M1238.2,803h.8v-.7h-.8v.7Z" class="g1_1"/>
<path d="M47.1,824.8h.7V803h-.7v21.8Z" class="g1_1"/>
<path d="M328.4,824.8h.7V803h-.7v21.8Z" class="g1_1"/>
<path d="M588.1,824.8h.8V803h-.8v21.8Z" class="g1_1"/>
<path d="M1238.2,824.8h.8V803h-.8v21.8Z" class="g1_1"/>
<path d="M47.1,825.6h.7v-.8h-.7v.8Z" class="g1_1"/>
<path d="M47.8,825.6H328.4v-.8H47.8v.8Z" class="g1_1"/>
<path d="M328.4,825.6h.7v-.8h-.7v.8Z" class="g1_1"/>
<path d="M329.1,825.6h259v-.8h-259v.8Z" class="g1_1"/>
<path d="M588.1,825.6h.8v-.8h-.8v.8Z" class="g1_1"/>
<path d="M588.9,825.6h649.3v-.8H588.9v.8Z" class="g1_1"/>
<path d="M1238.2,825.6h.8v-.8h-.8v.8Z" class="g1_1"/>
<path d="M47.1,847.2h.7V825.5h-.7v21.7Z" class="g1_1"/>
<path d="M47.1,847.9h.7v-.7h-.7v.7Z" class="g1_1"/>
<path d="M47.1,847.9h.7v-.7h-.7v.7Z" class="g1_1"/>
<path d="M47.8,847.9H328.4v-.7H47.8v.7Z" class="g1_1"/>
<path d="M328.4,847.2h.7V825.5h-.7v21.7Z" class="g1_1"/>
<path d="M328.4,847.9h.7v-.7h-.7v.7Z" class="g1_1"/>
<path d="M329.1,847.9h259v-.7h-259v.7Z" class="g1_1"/>
<path d="M588.1,847.2h.8V825.5h-.8v21.7Z" class="g1_1"/>
<path d="M588.1,847.9h.8v-.7h-.8v.7Z" class="g1_1"/>
<path d="M588.9,847.9h649.3v-.7H588.9v.7Z" class="g1_1"/>
<path d="M1238.2,847.2h.8V825.5h-.8v21.7Z" class="g1_1"/>
<path d="M1238.2,847.9h.8v-.7h-.8v.7Z" class="g1_1"/>
<path d="M1238.2,847.9h.8v-.7h-.8v.7Z" class="g1_1"/>
</svg>