<?xml version="1.0" encoding="UTF-8" standalone="no"?>
<!DOCTYPE svg PUBLIC "-//W3C//DTD SVG 1.1//EN"
"http://www.w3.org/Graphics/SVG/1.1/DTD/svg11.dtd">
<svg viewBox="0 0 1286 909" version="1.1" xmlns="http://www.w3.org/2000/svg" xmlns:xlink="http://www.w3.org/1999/xlink">
<defs>
<style type="text/css"><![CDATA[
.g0{
fill: #D9D9D9;
}
.g1{
}
]]></style>
</defs>
<path fill-rule="evenodd" d="M47.8,156.6h85.7V134.9H47.8v21.7Z" class="g0"/>
<path fill-rule="evenodd" d="M55.7,154.6h69.9V137H55.7v17.6Z" class="g0"/>
<path fill-rule="evenodd" d="M134.2,156.6H317.5V134.9H134.2v21.7Z" class="g0"/>
<path fill-rule="evenodd" d="M142.1,154.6H309.6V137H142.1v17.6Z" class="g0"/>
<path fill-rule="evenodd" d="M318.3,156.6h692.2V134.9H318.3v21.7Z" class="g0"/>
<path fill-rule="evenodd" d="M326.1,154.6h676.5V137H326.1v17.6Z" class="g0"/>
<path fill-rule="evenodd" d="M1011.3,156.6h118.2V134.9H1011.3v21.7Z" class="g0"/>
<path fill-rule="evenodd" d="M1019.2,154.6h102.6V137H1019.2v17.6Z" class="g0"/>
<path fill-rule="evenodd" d="M1130.4,156.6h107.8V134.9H1130.4v21.7Z" class="g0"/>
<path fill-rule="evenodd" d="M1138.3,154.6h92.1V137h-92.1v17.6Z" class="g0"/>
<path d="M47.1,134.9h.7v-.7h-.7v.7Z" class="g1"/>
<path d="M47.1,134.9h.7v-.7h-.7v.7Z" class="g1"/>
<path d="M47.8,134.9h85.7v-.7H47.8v.7Z" class="g1"/>
<path d="M133.5,134.9h.7v-.7h-.7v.7Z" class="g1"/>
<path d="M134.2,134.9H317.5v-.7H134.2v.7Z" class="g1"/>
<path d="M317.5,134.9h.8v-.7h-.8v.7Z" class="g1"/>
<path d="M318.3,134.9h692.2v-.7H318.3v.7Z" class="g1"/>
<path d="M1010.5,134.9h.8v-.7h-.8v.7Z" class="g1"/>
<path d="M1011.3,134.9h118.2v-.7H1011.3v.7Z" class="g1"/>
<path d="M1129.5,134.9h.7v-.7h-.7v.7Z" class="g1"/>
<path d="M1130.2,134.9h108v-.7h-108v.7Z" class="g1"/>
<path d="M1238.2,134.9h.8v-.7h-.8v.7Z" class="g1"/>
<path d="M1238.2,134.9h.8v-.7h-.8v.7Z" class="g1"/>
<path d="M47.1,156.6h.7V134.9h-.7v21.7Z" class="g1"/>
<path d="M133.5,156.6h.7V134.9h-.7v21.7Z" class="g1"/>
<path d="M317.5,156.6h.8V134.9h-.8v21.7Z" class="g1"/>
<path d="M1010.5,156.6h.8V134.9h-.8v21.7Z" class="g1"/>
<path d="M1129.5,156.6h.7V134.9h-.7v21.7Z" class="g1"/>
<path d="M1238.2,156.6h.8V134.9h-.8v21.7Z" class="g1"/>
<path d="M47.1,157.3h.7v-.7h-.7v.7Z" class="g1"/>
<path d="M47.8,157.3h85.7v-.7H47.8v.7Z" class="g1"/>
<path d="M133.5,157.3h.7v-.7h-.7v.7Z" class="g1"/>
<path d="M134.2,157.3H317.5v-.7H134.2v.7Z" class="g1"/>
<path d="M317.5,157.3h.8v-.7h-.8v.7Z" class="g1"/>
<path d="M318.3,157.3h692.2v-.7H318.3v.7Z" class="g1"/>
<path d="M1010.5,157.3h.8v-.7h-.8v.7Z" class="g1"/>
<path d="M1011.3,157.3h118.2v-.7H1011.3v.7Z" class="g1"/>
<path d="M1129.5,157.3h.7v-.7h-.7v.7Z" class="g1"/>
<path d="M1130.2,157.3h108v-.7h-108v.7Z" class="g1"/>
<path d="M1238.2,157.3h.8v-.7h-.8v.7Z" class="g1"/>
<path d="M47.1,178.9h.7V157.3h-.7v21.6Z" class="g1"/>
<path d="M133.5,178.9h.7V157.3h-.7v21.6Z" class="g1"/>
<path d="M317.5,178.9h.8V157.3h-.8v21.6Z" class="g1"/>
<path d="M1010.5,178.9h.8V157.3h-.8v21.6Z" class="g1"/>
<path d="M1129.5,178.9h.7V157.3h-.7v21.6Z" class="g1"/>
<path d="M1238.2,178.9h.8V157.3h-.8v21.6Z" class="g1"/>
<path d="M47.1,179.7h.7v-.8h-.7v.8Z" class="g1"/>
<path d="M133.5,179.7h.7v-.8h-.7v.8Z" class="g1"/>
<path d="M317.5,179.7h.8v-.8h-.8v.8Z" class="g1"/>
<path d="M1010.5,179.7h.8v-.8h-.8v.8Z" class="g1"/>
<path d="M1011.3,179.7h118.2v-.8H1011.3v.8Z" class="g1"/>
<path d="M1129.5,179.7h.7v-.8h-.7v.8Z" class="g1"/>
<path d="M1130.2,179.7h108v-.8h-108v.8Z" class="g1"/>
<path d="M1238.2,179.7h.8v-.8h-.8v.8Z" class="g1"/>
<path d="M47.1,201.3h.7V179.7h-.7v21.6Z" class="g1"/>
<path d="M133.5,201.3h.7V179.7h-.7v21.6Z" class="g1"/>
<path d="M317.5,201.3h.8V179.7h-.8v21.6Z" class="g1"/>
<path d="M1010.5,201.3h.8V179.7h-.8v21.6Z" class="g1"/>
<path d="M1129.5,201.3h.7V179.7h-.7v21.6Z" class="g1"/>
<path d="M1238.2,201.3h.8V179.7h-.8v21.6Z" class="g1"/>
<path d="M47.1,202h.7v-.7h-.7v.7Z" class="g1"/>
<path d="M133.5,202h.7v-.7h-.7v.7Z" class="g1"/>
<path d="M317.5,202h.8v-.7h-.8v.7Z" class="g1"/>
<path d="M1010.5,202h.8v-.7h-.8v.7Z" class="g1"/>
<path d="M1011.3,202h118.2v-.7H1011.3v.7Z" class="g1"/>
<path d="M1129.5,202h.7v-.7h-.7v.7Z" class="g1"/>
<path d="M1130.2,202h108v-.7h-108v.7Z" class="g1"/>
<path d="M1238.2,202h.8v-.7h-.8v.7Z" class="g1"/>
<path d="M47.1,223.7h.7V202h-.7v21.7Z" class="g1"/>
<path d="M133.5,223.7h.7V202h-.7v21.7Z" class="g1"/>
<path d="M317.5,223.7h.8V202h-.8v21.7Z" class="g1"/>
<path d="M1010.5,223.7h.8V202h-.8v21.7Z" class="g1"/>
<path d="M1129.5,223.7h.7V202h-.7v21.7Z" class="g1"/>
<path d="M1238.2,223.7h.8V202h-.8v21.7Z" class="g1"/>
<path d="M47.1,224.4h.7v-.7h-.7v.7Z" class="g1"/>
<path d="M133.5,224.4h.7v-.7h-.7v.7Z" class="g1"/>
<path d="M317.5,224.4h.8v-.7h-.8v.7Z" class="g1"/>
<path d="M1010.5,224.4h.8v-.7h-.8v.7Z" class="g1"/>
<path d="M1011.3,224.4h118.2v-.7H1011.3v.7Z" class="g1"/>
<path d="M1129.5,224.4h.7v-.7h-.7v.7Z" class="g1"/>
<path d="M1130.2,224.4h108v-.7h-108v.7Z" class="g1"/>
<path d="M1238.2,224.4h.8v-.7h-.8v.7Z" class="g1"/>
<path d="M47.1,246h.7V224.4h-.7V246Z" class="g1"/>
<path d="M133.5,246h.7V224.4h-.7V246Z" class="g1"/>
<path d="M317.5,246h.8V224.4h-.8V246Z" class="g1"/>
<path d="M1010.5,246h.8V224.4h-.8V246Z" class="g1"/>
<path d="M1129.5,246h.7V224.4h-.7V246Z" class="g1"/>
<path d="M1238.2,246h.8V224.4h-.8V246Z" class="g1"/>
<path d="M47.1,246.8h.7V246h-.7v.8Z" class="g1"/>
<path d="M47.8,246.8h85.7V246H47.8v.8Z" class="g1"/>
<path d="M133.5,246.8h.7V246h-.7v.8Z" class="g1"/>
<path d="M134.2,246.8H317.5V246H134.2v.8Z" class="g1"/>
<path d="M317.5,246.8h.8V246h-.8v.8Z" class="g1"/>
<path d="M318.3,246.8h692.2V246H318.3v.8Z" class="g1"/>
<path d="M1010.5,246.8h.8V246h-.8v.8Z" class="g1"/>
<path d="M1011.3,246.8h118.2V246H1011.3v.8Z" class="g1"/>
<path d="M1129.5,246.8h.7V246h-.7v.8Z" class="g1"/>
<path d="M1130.2,246.8h108V246h-108v.8Z" class="g1"/>
<path d="M1238.2,246.8h.8V246h-.8v.8Z" class="g1"/>
<path d="M47.1,268.4h.7V246.8h-.7v21.6Z" class="g1"/>
<path d="M133.5,268.4h.7V246.8h-.7v21.6Z" class="g1"/>
<path d="M317.5,268.4h.8V246.8h-.8v21.6Z" class="g1"/>
<path d="M1010.5,268.4h.8V246.8h-.8v21.6Z" class="g1"/>
<path d="M1129.5,268.4h.7V246.8h-.7v21.6Z" class="g1"/>
<path d="M1238.2,268.4h.8V246.8h-.8v21.6Z" class="g1"/>
<path d="M47.1,269.1h.7v-.7h-.7v.7Z" class="g1"/>
<path d="M133.5,269.1h.7v-.7h-.7v.7Z" class="g1"/>
<path d="M317.5,269.1h.8v-.7h-.8v.7Z" class="g1"/>
<path d="M1010.5,269.1h.8v-.7h-.8v.7Z" class="g1"/>
<path d="M1011.3,269.1h118.2v-.7H1011.3v.7Z" class="g1"/>
<path d="M1129.5,269.1h.7v-.7h-.7v.7Z" class="g1"/>
<path d="M1130.2,269.1h108v-.7h-108v.7Z" class="g1"/>
<path d="M1238.2,269.1h.8v-.7h-.8v.7Z" class="g1"/>
<path d="M47.1,291h.7V269.1h-.7V291Z" class="g1"/>
<path d="M133.5,291h.7V269.1h-.7V291Z" class="g1"/>
<path d="M317.5,291h.8V269.1h-.8V291Z" class="g1"/>
<path d="M1010.5,291h.8V269.1h-.8V291Z" class="g1"/>
<path d="M1129.5,291h.7V269.1h-.7V291Z" class="g1"/>
<path d="M1238.2,291h.8V269.1h-.8V291Z" class="g1"/>
<path d="M47.1,291.7h.7v-.8h-.7v.8Z" class="g1"/>
<path d="M133.5,291.7h.7v-.8h-.7v.8Z" class="g1"/>
<path d="M317.5,291.7h.8v-.8h-.8v.8Z" class="g1"/>
<path d="M1010.5,291.7h.8v-.8h-.8v.8Z" class="g1"/>
<path d="M1011.3,291.7h118.2v-.8H1011.3v.8Z" class="g1"/>
<path d="M1129.5,291.7h.7v-.8h-.7v.8Z" class="g1"/>
<path d="M1130.2,291.7h108v-.8h-108v.8Z" class="g1"/>
<path d="M1238.2,291.7h.8v-.8h-.8v.8Z" class="g1"/>
<path d="M47.1,313.3h.7V291.7h-.7v21.6Z" class="g1"/>
<path d="M133.5,313.3h.7V291.7h-.7v21.6Z" class="g1"/>
<path d="M317.5,313.3h.8V291.7h-.8v21.6Z" class="g1"/>
<path d="M1010.5,313.3h.8V291.7h-.8v21.6Z" class="g1"/>
<path d="M1129.5,313.3h.7V291.7h-.7v21.6Z" class="g1"/>
<path d="M1238.2,313.3h.8V291.7h-.8v21.6Z" class="g1"/>
<path d="M47.1,314h.7v-.7h-.7v.7Z" class="g1"/>
<path d="M133.5,314h.7v-.7h-.7v.7Z" class="g1"/>
<path d="M317.5,314h.8v-.7h-.8v.7Z" class="g1"/>
<path d="M1010.5,314h.8v-.7h-.8v.7Z" class="g1"/>
<path d="M1011.3,314h118.2v-.7H1011.3v.7Z" class="g1"/>
<path d="M1129.5,314h.7v-.7h-.7v.7Z" class="g1"/>
<path d="M1130.2,314h108v-.7h-108v.7Z" class="g1"/>
<path d="M1238.2,314h.8v-.7h-.8v.7Z" class="g1"/>
<path d="M47.1,335.7h.7V314h-.7v21.7Z" class="g1"/>
<path d="M47.1,336.4h.7v-.7h-.7v.7Z" class="g1"/>
<path d="M47.1,336.4h.7v-.7h-.7v.7Z" class="g1"/>
<path d="M47.8,336.4h85.7v-.7H47.8v.7Z" class="g1"/>
<path d="M133.5,335.7h.7V314h-.7v21.7Z" class="g1"/>
<path d="M133.5,336.4h.7v-.7h-.7v.7Z" class="g1"/>
<path d="M134.2,336.4H317.5v-.7H134.2v.7Z" class="g1"/>
<path d="M317.5,335.7h.8V314h-.8v21.7Z" class="g1"/>
<path d="M317.5,336.4h.8v-.7h-.8v.7Z" class="g1"/>
<path d="M318.3,336.4h692.2v-.7H318.3v.7Z" class="g1"/>
<path d="M1010.5,335.7h.8V314h-.8v21.7Z" class="g1"/>
<path d="M1010.5,336.4h.8v-.7h-.8v.7Z" class="g1"/>
<path d="M1011.3,336.4h118.2v-.7H1011.3v.7Z" class="g1"/>
<path d="M1129.5,335.7h.7V314h-.7v21.7Z" class="g1"/>
<path d="M1129.5,336.4h.7v-.7h-.7v.7Z" class="g1"/>
<path d="M1130.2,336.4h108v-.7h-108v.7Z" class="g1"/>
<path d="M1238.2,335.7h.8V314h-.8v21.7Z" class="g1"/>
<path d="M1238.2,336.4h.8v-.7h-.8v.7Z" class="g1"/>
<path d="M1238.2,336.4h.8v-.7h-.8v.7Z" class="g1"/>
</svg>