<?xml version="1.0" encoding="UTF-8" standalone="no"?>
<!DOCTYPE svg PUBLIC "-//W3C//DTD SVG 1.1//EN"
"http://www.w3.org/Graphics/SVG/1.1/DTD/svg11.dtd">
<svg viewBox="0 0 1286 909" version="1.1" xmlns="http://www.w3.org/2000/svg" xmlns:xlink="http://www.w3.org/1999/xlink">
<defs>
<style type="text/css"><![CDATA[
.g0{
fill: #D9D9D9;
}
.g1{
}
]]></style>
</defs>
<path fill-rule="evenodd" d="M47.8,137.7H176.7V115.9H47.8v21.8Z" class="g0"/>
<path fill-rule="evenodd" d="M55.7,135.5H168.9V118.1H55.7v17.4Z" class="g0"/>
<path fill-rule="evenodd" d="M177.5,137.7H1238.2V115.9H177.5v21.8Z" class="g0"/>
<path fill-rule="evenodd" d="M185.4,135.5h1045V118.1H185.4v17.4Z" class="g0"/>
<path d="M47.1,115.9h.7v-.8h-.7v.8Z" class="g1"/>
<path d="M47.1,115.9h.7v-.8h-.7v.8Z" class="g1"/>
<path d="M47.8,115.9H176.7v-.8H47.8v.8Z" class="g1"/>
<path d="M176.7,115.9h.8v-.8h-.8v.8Z" class="g1"/>
<path d="M177.5,115.9H1238.2v-.8H177.5v.8Z" class="g1"/>
<path d="M1238.2,115.9h.8v-.8h-.8v.8Z" class="g1"/>
<path d="M1238.2,115.9h.8v-.8h-.8v.8Z" class="g1"/>
<path d="M47.1,137.7h.7V115.9h-.7v21.8Z" class="g1"/>
<path d="M176.7,137.7h.8V115.9h-.8v21.8Z" class="g1"/>
<path d="M1238.2,137.7h.8V115.9h-.8v21.8Z" class="g1"/>
<path d="M47.1,138.4h.7v-.7h-.7v.7Z" class="g1"/>
<path d="M47.8,138.4H176.7v-.7H47.8v.7Z" class="g1"/>
<path d="M176.7,138.4h.8v-.7h-.8v.7Z" class="g1"/>
<path d="M177.5,138.4H1238.2v-.7H177.5v.7Z" class="g1"/>
<path d="M1238.2,138.4h.8v-.7h-.8v.7Z" class="g1"/>
<path d="M47.1,160.1h.7V138.4h-.7v21.7Z" class="g1"/>
<path d="M176.7,160.1h.8V138.4h-.8v21.7Z" class="g1"/>
<path d="M1238.2,160.1h.8V138.4h-.8v21.7Z" class="g1"/>
<path d="M47.1,160.8h.7V160h-.7v.8Z" class="g1"/>
<path d="M47.8,160.8H176.7V160H47.8v.8Z" class="g1"/>
<path d="M176.7,160.8h.8V160h-.8v.8Z" class="g1"/>
<path d="M177.5,160.8H1238.2V160H177.5v.8Z" class="g1"/>
<path d="M1238.2,160.8h.8V160h-.8v.8Z" class="g1"/>
<path d="M47.1,182.6h.7V160.8h-.7v21.8Z" class="g1"/>
<path d="M176.7,182.6h.8V160.8h-.8v21.8Z" class="g1"/>
<path d="M1238.2,182.6h.8V160.8h-.8v21.8Z" class="g1"/>
<path d="M47.1,183.3h.7v-.7h-.7v.7Z" class="g1"/>
<path d="M47.8,183.3H176.7v-.7H47.8v.7Z" class="g1"/>
<path d="M176.7,183.3h.8v-.7h-.8v.7Z" class="g1"/>
<path d="M177.5,183.3H1238.2v-.7H177.5v.7Z" class="g1"/>
<path d="M1238.2,183.3h.8v-.7h-.8v.7Z" class="g1"/>
<path d="M47.1,205h.7V183.3h-.7V205Z" class="g1"/>
<path d="M176.7,205h.8V183.3h-.8V205Z" class="g1"/>
<path d="M1238.2,205h.8V183.3h-.8V205Z" class="g1"/>
<path d="M47.1,205.7h.7V205h-.7v.7Z" class="g1"/>
<path d="M47.8,205.7H176.7V205H47.8v.7Z" class="g1"/>
<path d="M176.7,205.7h.8V205h-.8v.7Z" class="g1"/>
<path d="M177.5,205.7H1238.2V205H177.5v.7Z" class="g1"/>
<path d="M1238.2,205.7h.8V205h-.8v.7Z" class="g1"/>
<path d="M47.1,227.5h.7V205.7h-.7v21.8Z" class="g1"/>
<path d="M176.7,227.5h.8V205.7h-.8v21.8Z" class="g1"/>
<path d="M1238.2,227.5h.8V205.7h-.8v21.8Z" class="g1"/>
<path d="M47.1,228.2h.7v-.7h-.7v.7Z" class="g1"/>
<path d="M47.8,228.2H176.7v-.7H47.8v.7Z" class="g1"/>
<path d="M176.7,228.2h.8v-.7h-.8v.7Z" class="g1"/>
<path d="M177.5,228.2H1238.2v-.7H177.5v.7Z" class="g1"/>
<path d="M1238.2,228.2h.8v-.7h-.8v.7Z" class="g1"/>
<path d="M47.1,249.9h.7V228.2h-.7v21.7Z" class="g1"/>
<path d="M176.7,249.9h.8V228.2h-.8v21.7Z" class="g1"/>
<path d="M1238.2,249.9h.8V228.2h-.8v21.7Z" class="g1"/>
<path d="M47.1,250.6h.7v-.7h-.7v.7Z" class="g1"/>
<path d="M47.8,250.6H176.7v-.7H47.8v.7Z" class="g1"/>
<path d="M176.7,250.6h.8v-.7h-.8v.7Z" class="g1"/>
<path d="M177.5,250.6H1238.2v-.7H177.5v.7Z" class="g1"/>
<path d="M1238.2,250.6h.8v-.7h-.8v.7Z" class="g1"/>
<path d="M47.1,272.4h.7V250.6h-.7v21.8Z" class="g1"/>
<path d="M176.7,272.4h.8V250.6h-.8v21.8Z" class="g1"/>
<path d="M1238.2,272.4h.8V250.6h-.8v21.8Z" class="g1"/>
<path d="M47.1,273.2h.7v-.8h-.7v.8Z" class="g1"/>
<path d="M47.8,273.2H176.7v-.8H47.8v.8Z" class="g1"/>
<path d="M176.7,273.2h.8v-.8h-.8v.8Z" class="g1"/>
<path d="M177.5,273.2H1238.2v-.8H177.5v.8Z" class="g1"/>
<path d="M1238.2,273.2h.8v-.8h-.8v.8Z" class="g1"/>
<path d="M47.1,294.8h.7V273.2h-.7v21.6Z" class="g1"/>
<path d="M176.7,294.8h.8V273.2h-.8v21.6Z" class="g1"/>
<path d="M1238.2,294.8h.8V273.2h-.8v21.6Z" class="g1"/>
<path d="M47.1,295.5h.7v-.7h-.7v.7Z" class="g1"/>
<path d="M47.8,295.5H176.7v-.7H47.8v.7Z" class="g1"/>
<path d="M176.7,295.5h.8v-.7h-.8v.7Z" class="g1"/>
<path d="M177.5,295.5H1238.2v-.7H177.5v.7Z" class="g1"/>
<path d="M1238.2,295.5h.8v-.7h-.8v.7Z" class="g1"/>
<path d="M47.1,317.4h.7V295.5h-.7v21.9Z" class="g1"/>
<path d="M176.7,317.4h.8V295.5h-.8v21.9Z" class="g1"/>
<path d="M1238.2,317.4h.8V295.5h-.8v21.9Z" class="g1"/>
<path d="M47.1,318.1h.7v-.8h-.7v.8Z" class="g1"/>
<path d="M47.8,318.1H176.7v-.8H47.8v.8Z" class="g1"/>
<path d="M176.7,318.1h.8v-.8h-.8v.8Z" class="g1"/>
<path d="M177.5,318.1H1238.2v-.8H177.5v.8Z" class="g1"/>
<path d="M1238.2,318.1h.8v-.8h-.8v.8Z" class="g1"/>
<path d="M47.1,339.7h.7V318.1h-.7v21.6Z" class="g1"/>
<path d="M176.7,339.7h.8V318.1h-.8v21.6Z" class="g1"/>
<path d="M1238.2,339.7h.8V318.1h-.8v21.6Z" class="g1"/>
<path d="M47.1,340.4h.7v-.7h-.7v.7Z" class="g1"/>
<path d="M47.8,340.4H176.7v-.7H47.8v.7Z" class="g1"/>
<path d="M176.7,340.4h.8v-.7h-.8v.7Z" class="g1"/>
<path d="M177.5,340.4H1238.2v-.7H177.5v.7Z" class="g1"/>
<path d="M1238.2,340.4h.8v-.7h-.8v.7Z" class="g1"/>
<path d="M47.1,362.3h.7V340.4h-.7v21.9Z" class="g1"/>
<path d="M47.1,363h.7v-.7h-.7v.7Z" class="g1"/>
<path d="M47.1,363h.7v-.7h-.7v.7Z" class="g1"/>
<path d="M47.8,363H176.7v-.7H47.8v.7Z" class="g1"/>
<path d="M176.7,362.3h.8V340.4h-.8v21.9Z" class="g1"/>
<path d="M176.7,363h.8v-.7h-.8v.7Z" class="g1"/>
<path d="M177.5,363H1238.2v-.7H177.5v.7Z" class="g1"/>
<path d="M1238.2,362.3h.8V340.4h-.8v21.9Z" class="g1"/>
<path d="M1238.2,363h.8v-.7h-.8v.7Z" class="g1"/>
<path d="M1238.2,363h.8v-.7h-.8v.7Z" class="g1"/>
<path fill-rule="evenodd" d="M47.8,742.5h183V720.9H47.8v21.6Z" class="g0"/>
<path fill-rule="evenodd" d="M55.7,740.5H222.9V722.9H55.7v17.6Z" class="g0"/>
<path fill-rule="evenodd" d="M231.7,742.5H1238.2V720.9H231.7v21.6Z" class="g0"/>
<path fill-rule="evenodd" d="M239.4,740.5h990.9V722.9H239.4v17.6Z" class="g0"/>
<path d="M47.1,720.9h.7v-.8h-.7v.8Z" class="g1"/>
<path d="M47.1,720.9h.7v-.8h-.7v.8Z" class="g1"/>
<path d="M47.8,720.9h183v-.8H47.8v.8Z" class="g1"/>
<path d="M230.8,720.9h.7v-.8h-.7v.8Z" class="g1"/>
<path d="M231.5,720.9H1238.2v-.8H231.5v.8Z" class="g1"/>
<path d="M1238.2,720.9h.8v-.8h-.8v.8Z" class="g1"/>
<path d="M1238.2,720.9h.8v-.8h-.8v.8Z" class="g1"/>
<path d="M47.1,742.5h.7V720.9h-.7v21.6Z" class="g1"/>
<path d="M230.8,742.5h.7V720.9h-.7v21.6Z" class="g1"/>
<path d="M1238.2,742.5h.8V720.9h-.8v21.6Z" class="g1"/>
<path d="M47.1,743.2h.7v-.7h-.7v.7Z" class="g1"/>
<path d="M47.8,743.2h183v-.7H47.8v.7Z" class="g1"/>
<path d="M230.8,743.2h.7v-.7h-.7v.7Z" class="g1"/>
<path d="M231.5,743.2H1238.2v-.7H231.5v.7Z" class="g1"/>
<path d="M1238.2,743.2h.8v-.7h-.8v.7Z" class="g1"/>
<path d="M47.1,765.1h.7V743.2h-.7v21.9Z" class="g1"/>
<path d="M230.8,765.1h.7V743.2h-.7v21.9Z" class="g1"/>
<path d="M1238.2,765.1h.8V743.2h-.8v21.9Z" class="g1"/>
<path d="M47.1,765.8h.7V765h-.7v.8Z" class="g1"/>
<path d="M47.8,765.8h183V765H47.8v.8Z" class="g1"/>
<path d="M230.8,765.8h.7V765h-.7v.8Z" class="g1"/>
<path d="M231.5,765.8H1238.2V765H231.5v.8Z" class="g1"/>
<path d="M1238.2,765.8h.8V765h-.8v.8Z" class="g1"/>
<path d="M47.1,787.4h.7V765.8h-.7v21.6Z" class="g1"/>
<path d="M230.8,787.4h.7V765.8h-.7v21.6Z" class="g1"/>
<path d="M1238.2,787.4h.8V765.8h-.8v21.6Z" class="g1"/>
<path d="M47.1,788.2h.7v-.8h-.7v.8Z" class="g1"/>
<path d="M47.8,788.2h183v-.8H47.8v.8Z" class="g1"/>
<path d="M230.8,788.2h.7v-.8h-.7v.8Z" class="g1"/>
<path d="M231.5,788.2H1238.2v-.8H231.5v.8Z" class="g1"/>
<path d="M1238.2,788.2h.8v-.8h-.8v.8Z" class="g1"/>
<path d="M47.1,810h.7V788.2h-.7V810Z" class="g1"/>
<path d="M230.8,810h.7V788.2h-.7V810Z" class="g1"/>
<path d="M1238.2,810h.8V788.2h-.8V810Z" class="g1"/>
<path d="M47.1,810.7h.7V810h-.7v.7Z" class="g1"/>
<path d="M47.8,810.7h183V810H47.8v.7Z" class="g1"/>
<path d="M230.8,810.7h.7V810h-.7v.7Z" class="g1"/>
<path d="M231.5,810.7H1238.2V810H231.5v.7Z" class="g1"/>
<path d="M1238.2,810.7h.8V810h-.8v.7Z" class="g1"/>
<path d="M47.1,832.3h.7V810.7h-.7v21.6Z" class="g1"/>
<path d="M47.1,833.1h.7v-.8h-.7v.8Z" class="g1"/>
<path d="M47.1,833.1h.7v-.8h-.7v.8Z" class="g1"/>
<path d="M47.8,833.1h183v-.8H47.8v.8Z" class="g1"/>
<path d="M230.8,832.3h.7V810.7h-.7v21.6Z" class="g1"/>
<path d="M230.8,833.1h.7v-.8h-.7v.8Z" class="g1"/>
<path d="M231.5,833.1H1238.2v-.8H231.5v.8Z" class="g1"/>
<path d="M1238.2,832.3h.8V810.7h-.8v21.6Z" class="g1"/>
<path d="M1238.2,833.1h.8v-.8h-.8v.8Z" class="g1"/>
<path d="M1238.2,833.1h.8v-.8h-.8v.8Z" class="g1"/>
</svg>