<?xml version="1.0" encoding="UTF-8" standalone="no"?>
<!DOCTYPE svg PUBLIC "-//W3C//DTD SVG 1.1//EN"
"http://www.w3.org/Graphics/SVG/1.1/DTD/svg11.dtd">
<svg viewBox="0 0 1286 909" version="1.1" xmlns="http://www.w3.org/2000/svg" xmlns:xlink="http://www.w3.org/1999/xlink">
<defs>
<style type="text/css"><![CDATA[
.g0_1{
fill: #D9D9D9;
}
.g1_1{
}
]]></style>
</defs>
<path fill-rule="evenodd" d="M47.8,156.6H664V134.9H47.8v21.7Z" class="g0_1"/>
<path fill-rule="evenodd" d="M55.7,154.6H656.2V137H55.7v17.6Z" class="g0_1"/>
<path fill-rule="evenodd" d="M664.8,156.6H951.1V134.9H664.8v21.7Z" class="g0_1"/>
<path fill-rule="evenodd" d="M672.7,154.6H943.3V137H672.7v17.6Z" class="g0_1"/>
<path fill-rule="evenodd" d="M951.9,156.6h286.3V134.9H951.9v21.7Z" class="g0_1"/>
<path fill-rule="evenodd" d="M959.8,154.6h270.6V137H959.8v17.6Z" class="g0_1"/>
<path d="M47.1,134.9h.7v-.7h-.7v.7Z" class="g1_1"/>
<path d="M47.1,134.9h.7v-.7h-.7v.7Z" class="g1_1"/>
<path d="M47.8,134.9H664v-.7H47.8v.7Z" class="g1_1"/>
<path d="M664,134.9h.8v-.7H664v.7Z" class="g1_1"/>
<path d="M664.8,134.9H951.1v-.7H664.8v.7Z" class="g1_1"/>
<path d="M951.1,134.9h.8v-.7h-.8v.7Z" class="g1_1"/>
<path d="M951.9,134.9h286.3v-.7H951.9v.7Z" class="g1_1"/>
<path d="M1238.2,134.9h.8v-.7h-.8v.7Z" class="g1_1"/>
<path d="M1238.2,134.9h.8v-.7h-.8v.7Z" class="g1_1"/>
<path d="M47.1,156.6h.7V134.9h-.7v21.7Z" class="g1_1"/>
<path d="M664,156.6h.8V134.9H664v21.7Z" class="g1_1"/>
<path d="M951.1,156.6h.8V134.9h-.8v21.7Z" class="g1_1"/>
<path d="M1238.2,156.6h.8V134.9h-.8v21.7Z" class="g1_1"/>
<path d="M47.1,157.3h.7v-.7h-.7v.7Z" class="g1_1"/>
<path d="M47.8,157.3H664v-.7H47.8v.7Z" class="g1_1"/>
<path d="M664,157.3h.8v-.7H664v.7Z" class="g1_1"/>
<path d="M664.8,157.3H951.1v-.7H664.8v.7Z" class="g1_1"/>
<path d="M951.1,157.3h.8v-.7h-.8v.7Z" class="g1_1"/>
<path d="M951.9,157.3h286.3v-.7H951.9v.7Z" class="g1_1"/>
<path d="M1238.2,157.3h.8v-.7h-.8v.7Z" class="g1_1"/>
<path d="M47.1,179.1h.7V157.3h-.7v21.8Z" class="g1_1"/>
<path d="M664,179.1h.8V157.3H664v21.8Z" class="g1_1"/>
<path d="M951.1,179.1h.8V157.3h-.8v21.8Z" class="g1_1"/>
<path d="M1238.2,179.1h.8V157.3h-.8v21.8Z" class="g1_1"/>
<path d="M47.1,179.9h.7v-.8h-.7v.8Z" class="g1_1"/>
<path d="M47.8,179.9H664v-.8H47.8v.8Z" class="g1_1"/>
<path d="M664,179.9h.8v-.8H664v.8Z" class="g1_1"/>
<path d="M664.8,179.9H951.1v-.8H664.8v.8Z" class="g1_1"/>
<path d="M951.1,179.9h.8v-.8h-.8v.8Z" class="g1_1"/>
<path d="M951.9,179.9h286.3v-.8H951.9v.8Z" class="g1_1"/>
<path d="M1238.2,179.9h.8v-.8h-.8v.8Z" class="g1_1"/>
<path d="M47.1,201.5h.7V179.8h-.7v21.7Z" class="g1_1"/>
<path d="M664,201.5h.8V179.8H664v21.7Z" class="g1_1"/>
<path d="M951.1,201.5h.8V179.8h-.8v21.7Z" class="g1_1"/>
<path d="M1238.2,201.5h.8V179.8h-.8v21.7Z" class="g1_1"/>
<path d="M47.1,202.2h.7v-.7h-.7v.7Z" class="g1_1"/>
<path d="M47.8,202.2H664v-.7H47.8v.7Z" class="g1_1"/>
<path d="M664,202.2h.8v-.7H664v.7Z" class="g1_1"/>
<path d="M664.8,202.2H951.1v-.7H664.8v.7Z" class="g1_1"/>
<path d="M951.1,202.2h.8v-.7h-.8v.7Z" class="g1_1"/>
<path d="M951.9,202.2h286.3v-.7H951.9v.7Z" class="g1_1"/>
<path d="M1238.2,202.2h.8v-.7h-.8v.7Z" class="g1_1"/>
<path d="M47.1,224h.7V202.2h-.7V224Z" class="g1_1"/>
<path d="M664,224h.8V202.2H664V224Z" class="g1_1"/>
<path d="M951.1,224h.8V202.2h-.8V224Z" class="g1_1"/>
<path d="M1238.2,224h.8V202.2h-.8V224Z" class="g1_1"/>
<path d="M47.1,224.8h.7V224h-.7v.8Z" class="g1_1"/>
<path d="M47.8,224.8H664V224H47.8v.8Z" class="g1_1"/>
<path d="M664,224.8h.8V224H664v.8Z" class="g1_1"/>
<path d="M664.8,224.8H951.1V224H664.8v.8Z" class="g1_1"/>
<path d="M951.1,224.8h.8V224h-.8v.8Z" class="g1_1"/>
<path d="M951.9,224.8h286.3V224H951.9v.8Z" class="g1_1"/>
<path d="M1238.2,224.8h.8V224h-.8v.8Z" class="g1_1"/>
<path d="M47.1,246.4h.7V224.8h-.7v21.6Z" class="g1_1"/>
<path d="M664,246.4h.8V224.8H664v21.6Z" class="g1_1"/>
<path d="M951.1,246.4h.8V224.8h-.8v21.6Z" class="g1_1"/>
<path d="M1238.2,246.4h.8V224.8h-.8v21.6Z" class="g1_1"/>
<path d="M47.1,247.1h.7v-.7h-.7v.7Z" class="g1_1"/>
<path d="M47.8,247.1H664v-.7H47.8v.7Z" class="g1_1"/>
<path d="M664,247.1h.8v-.7H664v.7Z" class="g1_1"/>
<path d="M664.8,247.1H951.1v-.7H664.8v.7Z" class="g1_1"/>
<path d="M951.1,247.1h.8v-.7h-.8v.7Z" class="g1_1"/>
<path d="M951.9,247.1h286.3v-.7H951.9v.7Z" class="g1_1"/>
<path d="M1238.2,247.1h.8v-.7h-.8v.7Z" class="g1_1"/>
<path d="M47.1,269h.7V247.1h-.7V269Z" class="g1_1"/>
<path d="M664,269h.8V247.1H664V269Z" class="g1_1"/>
<path d="M951.1,269h.8V247.1h-.8V269Z" class="g1_1"/>
<path d="M1238.2,269h.8V247.1h-.8V269Z" class="g1_1"/>
<path d="M47.1,269.7h.7v-.8h-.7v.8Z" class="g1_1"/>
<path d="M47.8,269.7H664v-.8H47.8v.8Z" class="g1_1"/>
<path d="M664,269.7h.8v-.8H664v.8Z" class="g1_1"/>
<path d="M664.8,269.7H951.1v-.8H664.8v.8Z" class="g1_1"/>
<path d="M951.1,269.7h.8v-.8h-.8v.8Z" class="g1_1"/>
<path d="M951.9,269.7h286.3v-.8H951.9v.8Z" class="g1_1"/>
<path d="M1238.2,269.7h.8v-.8h-.8v.8Z" class="g1_1"/>
<path d="M47.1,291.3h.7V269.7h-.7v21.6Z" class="g1_1"/>
<path d="M664,291.3h.8V269.7H664v21.6Z" class="g1_1"/>
<path d="M951.1,291.3h.8V269.7h-.8v21.6Z" class="g1_1"/>
<path d="M1238.2,291.3h.8V269.7h-.8v21.6Z" class="g1_1"/>
<path d="M47.1,292.1h.7v-.8h-.7v.8Z" class="g1_1"/>
<path d="M47.8,292.1H664v-.8H47.8v.8Z" class="g1_1"/>
<path d="M664,292.1h.8v-.8H664v.8Z" class="g1_1"/>
<path d="M664.8,292.1H951.1v-.8H664.8v.8Z" class="g1_1"/>
<path d="M951.1,292.1h.8v-.8h-.8v.8Z" class="g1_1"/>
<path d="M951.9,292.1h286.3v-.8H951.9v.8Z" class="g1_1"/>
<path d="M1238.2,292.1h.8v-.8h-.8v.8Z" class="g1_1"/>
<path d="M47.1,313.9h.7V292.1h-.7v21.8Z" class="g1_1"/>
<path d="M664,313.9h.8V292.1H664v21.8Z" class="g1_1"/>
<path d="M951.1,313.9h.8V292.1h-.8v21.8Z" class="g1_1"/>
<path d="M1238.2,313.9h.8V292.1h-.8v21.8Z" class="g1_1"/>
<path d="M47.1,314.6h.7v-.7h-.7v.7Z" class="g1_1"/>
<path d="M47.8,314.6H664v-.7H47.8v.7Z" class="g1_1"/>
<path d="M664,314.6h.8v-.7H664v.7Z" class="g1_1"/>
<path d="M664.8,314.6H951.1v-.7H664.8v.7Z" class="g1_1"/>
<path d="M951.1,314.6h.8v-.7h-.8v.7Z" class="g1_1"/>
<path d="M951.9,314.6h286.3v-.7H951.9v.7Z" class="g1_1"/>
<path d="M1238.2,314.6h.8v-.7h-.8v.7Z" class="g1_1"/>
<path d="M47.1,336.2h.7V314.6h-.7v21.6Z" class="g1_1"/>
<path d="M664,336.2h.8V314.6H664v21.6Z" class="g1_1"/>
<path d="M951.1,336.2h.8V314.6h-.8v21.6Z" class="g1_1"/>
<path d="M1238.2,336.2h.8V314.6h-.8v21.6Z" class="g1_1"/>
<path d="M47.1,337h.7v-.8h-.7v.8Z" class="g1_1"/>
<path d="M47.8,337H664v-.8H47.8v.8Z" class="g1_1"/>
<path d="M664,337h.8v-.8H664v.8Z" class="g1_1"/>
<path d="M664.8,337H951.1v-.8H664.8v.8Z" class="g1_1"/>
<path d="M951.1,337h.8v-.8h-.8v.8Z" class="g1_1"/>
<path d="M951.9,337h286.3v-.8H951.9v.8Z" class="g1_1"/>
<path d="M1238.2,337h.8v-.8h-.8v.8Z" class="g1_1"/>
<path d="M47.1,358.8h.7V337h-.7v21.8Z" class="g1_1"/>
<path d="M664,358.8h.8V337H664v21.8Z" class="g1_1"/>
<path d="M951.1,358.8h.8V337h-.8v21.8Z" class="g1_1"/>
<path d="M1238.2,358.8h.8V337h-.8v21.8Z" class="g1_1"/>
<path d="M47.1,359.5h.7v-.7h-.7v.7Z" class="g1_1"/>
<path d="M47.8,359.5H664v-.7H47.8v.7Z" class="g1_1"/>
<path d="M664,359.5h.8v-.7H664v.7Z" class="g1_1"/>
<path d="M664.8,359.5H951.1v-.7H664.8v.7Z" class="g1_1"/>
<path d="M951.1,359.5h.8v-.7h-.8v.7Z" class="g1_1"/>
<path d="M951.9,359.5h286.3v-.7H951.9v.7Z" class="g1_1"/>
<path d="M1238.2,359.5h.8v-.7h-.8v.7Z" class="g1_1"/>
<path d="M47.1,381.2h.7V359.5h-.7v21.7Z" class="g1_1"/>
<path d="M664,381.2h.8V359.5H664v21.7Z" class="g1_1"/>
<path d="M951.1,381.2h.8V359.5h-.8v21.7Z" class="g1_1"/>
<path d="M1238.2,381.2h.8V359.5h-.8v21.7Z" class="g1_1"/>
<path d="M47.1,381.9h.7v-.8h-.7v.8Z" class="g1_1"/>
<path d="M47.8,381.9H664v-.8H47.8v.8Z" class="g1_1"/>
<path d="M664,381.9h.8v-.8H664v.8Z" class="g1_1"/>
<path d="M664.8,381.9H951.1v-.8H664.8v.8Z" class="g1_1"/>
<path d="M951.1,381.9h.8v-.8h-.8v.8Z" class="g1_1"/>
<path d="M951.9,381.9h286.3v-.8H951.9v.8Z" class="g1_1"/>
<path d="M1238.2,381.9h.8v-.8h-.8v.8Z" class="g1_1"/>
<path d="M47.1,403.7h.7V381.9h-.7v21.8Z" class="g1_1"/>
<path d="M664,403.7h.8V381.9H664v21.8Z" class="g1_1"/>
<path d="M951.1,403.7h.8V381.9h-.8v21.8Z" class="g1_1"/>
<path d="M1238.2,403.7h.8V381.9h-.8v21.8Z" class="g1_1"/>
<path d="M47.1,404.4h.7v-.7h-.7v.7Z" class="g1_1"/>
<path d="M47.8,404.4H664v-.7H47.8v.7Z" class="g1_1"/>
<path d="M664,404.4h.8v-.7H664v.7Z" class="g1_1"/>
<path d="M664.8,404.4H951.1v-.7H664.8v.7Z" class="g1_1"/>
<path d="M951.1,404.4h.8v-.7h-.8v.7Z" class="g1_1"/>
<path d="M951.9,404.4h286.3v-.7H951.9v.7Z" class="g1_1"/>
<path d="M1238.2,404.4h.8v-.7h-.8v.7Z" class="g1_1"/>
<path d="M47.1,426.1h.7V404.4h-.7v21.7Z" class="g1_1"/>
<path d="M664,426.1h.8V404.4H664v21.7Z" class="g1_1"/>
<path d="M951.1,426.1h.8V404.4h-.8v21.7Z" class="g1_1"/>
<path d="M1238.2,426.1h.8V404.4h-.8v21.7Z" class="g1_1"/>
<path d="M47.1,426.8h.7v-.7h-.7v.7Z" class="g1_1"/>
<path d="M47.8,426.8H664v-.7H47.8v.7Z" class="g1_1"/>
<path d="M664,426.8h.8v-.7H664v.7Z" class="g1_1"/>
<path d="M664.8,426.8H951.1v-.7H664.8v.7Z" class="g1_1"/>
<path d="M951.1,426.8h.8v-.7h-.8v.7Z" class="g1_1"/>
<path d="M951.9,426.8h286.3v-.7H951.9v.7Z" class="g1_1"/>
<path d="M1238.2,426.8h.8v-.7h-.8v.7Z" class="g1_1"/>
<path d="M47.1,448.6h.7V426.8h-.7v21.8Z" class="g1_1"/>
<path d="M664,448.6h.8V426.8H664v21.8Z" class="g1_1"/>
<path d="M951.1,448.6h.8V426.8h-.8v21.8Z" class="g1_1"/>
<path d="M1238.2,448.6h.8V426.8h-.8v21.8Z" class="g1_1"/>
<path d="M47.1,449.3h.7v-.7h-.7v.7Z" class="g1_1"/>
<path d="M47.8,449.3H664v-.7H47.8v.7Z" class="g1_1"/>
<path d="M664,449.3h.8v-.7H664v.7Z" class="g1_1"/>
<path d="M664.8,449.3H951.1v-.7H664.8v.7Z" class="g1_1"/>
<path d="M951.1,449.3h.8v-.7h-.8v.7Z" class="g1_1"/>
<path d="M951.9,449.3h286.3v-.7H951.9v.7Z" class="g1_1"/>
<path d="M1238.2,449.3h.8v-.7h-.8v.7Z" class="g1_1"/>
<path d="M47.1,471h.7V449.3h-.7V471Z" class="g1_1"/>
<path d="M664,471h.8V449.3H664V471Z" class="g1_1"/>
<path d="M951.1,471h.8V449.3h-.8V471Z" class="g1_1"/>
<path d="M1238.2,471h.8V449.3h-.8V471Z" class="g1_1"/>
<path d="M47.1,471.7h.7V471h-.7v.7Z" class="g1_1"/>
<path d="M47.8,471.7H664V471H47.8v.7Z" class="g1_1"/>
<path d="M664,471.7h.8V471H664v.7Z" class="g1_1"/>
<path d="M664.8,471.7H951.1V471H664.8v.7Z" class="g1_1"/>
<path d="M951.1,471.7h.8V471h-.8v.7Z" class="g1_1"/>
<path d="M951.9,471.7h286.3V471H951.9v.7Z" class="g1_1"/>
<path d="M1238.2,471.7h.8V471h-.8v.7Z" class="g1_1"/>
<path d="M47.1,493.5h.7V471.7h-.7v21.8Z" class="g1_1"/>
<path d="M664,493.5h.8V471.7H664v21.8Z" class="g1_1"/>
<path d="M951.1,493.5h.8V471.7h-.8v21.8Z" class="g1_1"/>
<path d="M1238.2,493.5h.8V471.7h-.8v21.8Z" class="g1_1"/>
<path d="M47.1,494.3h.7v-.8h-.7v.8Z" class="g1_1"/>
<path d="M47.8,494.3H664v-.8H47.8v.8Z" class="g1_1"/>
<path d="M664,494.3h.8v-.8H664v.8Z" class="g1_1"/>
<path d="M664.8,494.3H951.1v-.8H664.8v.8Z" class="g1_1"/>
<path d="M951.1,494.3h.8v-.8h-.8v.8Z" class="g1_1"/>
<path d="M951.9,494.3h286.3v-.8H951.9v.8Z" class="g1_1"/>
<path d="M1238.2,494.3h.8v-.8h-.8v.8Z" class="g1_1"/>
<path d="M47.1,515.9h.7V494.3h-.7v21.6Z" class="g1_1"/>
<path d="M664,515.9h.8V494.3H664v21.6Z" class="g1_1"/>
<path d="M951.1,515.9h.8V494.3h-.8v21.6Z" class="g1_1"/>
<path d="M1238.2,515.9h.8V494.3h-.8v21.6Z" class="g1_1"/>
<path d="M47.1,516.6h.7v-.7h-.7v.7Z" class="g1_1"/>
<path d="M47.8,516.6H664v-.7H47.8v.7Z" class="g1_1"/>
<path d="M664,516.6h.8v-.7H664v.7Z" class="g1_1"/>
<path d="M664.8,516.6H951.1v-.7H664.8v.7Z" class="g1_1"/>
<path d="M951.1,516.6h.8v-.7h-.8v.7Z" class="g1_1"/>
<path d="M951.9,516.6h286.3v-.7H951.9v.7Z" class="g1_1"/>
<path d="M1238.2,516.6h.8v-.7h-.8v.7Z" class="g1_1"/>
<path d="M47.1,538.5h.7V516.6h-.7v21.9Z" class="g1_1"/>
<path d="M664,538.5h.8V516.6H664v21.9Z" class="g1_1"/>
<path d="M951.1,538.5h.8V516.6h-.8v21.9Z" class="g1_1"/>
<path d="M1238.2,538.5h.8V516.6h-.8v21.9Z" class="g1_1"/>
<path d="M47.1,539.2h.7v-.8h-.7v.8Z" class="g1_1"/>
<path d="M47.8,539.2H664v-.8H47.8v.8Z" class="g1_1"/>
<path d="M664,539.2h.8v-.8H664v.8Z" class="g1_1"/>
<path d="M664.8,539.2H951.1v-.8H664.8v.8Z" class="g1_1"/>
<path d="M951.1,539.2h.8v-.8h-.8v.8Z" class="g1_1"/>
<path d="M951.9,539.2h286.3v-.8H951.9v.8Z" class="g1_1"/>
<path d="M1238.2,539.2h.8v-.8h-.8v.8Z" class="g1_1"/>
<path d="M47.1,560.8h.7V539.2h-.7v21.6Z" class="g1_1"/>
<path d="M664,560.8h.8V539.2H664v21.6Z" class="g1_1"/>
<path d="M951.1,560.8h.8V539.2h-.8v21.6Z" class="g1_1"/>
<path d="M1238.2,560.8h.8V539.2h-.8v21.6Z" class="g1_1"/>
<path d="M47.1,561.6h.7v-.8h-.7v.8Z" class="g1_1"/>
<path d="M47.8,561.6H664v-.8H47.8v.8Z" class="g1_1"/>
<path d="M664,561.6h.8v-.8H664v.8Z" class="g1_1"/>
<path d="M664.8,561.6H951.1v-.8H664.8v.8Z" class="g1_1"/>
<path d="M951.1,561.6h.8v-.8h-.8v.8Z" class="g1_1"/>
<path d="M951.9,561.6h286.3v-.8H951.9v.8Z" class="g1_1"/>
<path d="M1238.2,561.6h.8v-.8h-.8v.8Z" class="g1_1"/>
<path d="M47.1,583.4h.7V561.6h-.7v21.8Z" class="g1_1"/>
<path d="M664,583.4h.8V561.6H664v21.8Z" class="g1_1"/>
<path d="M951.1,583.4h.8V561.6h-.8v21.8Z" class="g1_1"/>
<path d="M1238.2,583.4h.8V561.6h-.8v21.8Z" class="g1_1"/>
<path d="M47.1,584.1h.7v-.7h-.7v.7Z" class="g1_1"/>
<path d="M47.8,584.1H664v-.7H47.8v.7Z" class="g1_1"/>
<path d="M664,584.1h.8v-.7H664v.7Z" class="g1_1"/>
<path d="M664.8,584.1H951.1v-.7H664.8v.7Z" class="g1_1"/>
<path d="M951.1,584.1h.8v-.7h-.8v.7Z" class="g1_1"/>
<path d="M951.9,584.1h286.3v-.7H951.9v.7Z" class="g1_1"/>
<path d="M1238.2,584.1h.8v-.7h-.8v.7Z" class="g1_1"/>
<path d="M47.1,605.7h.7V584.1h-.7v21.6Z" class="g1_1"/>
<path d="M664,605.7h.8V584.1H664v21.6Z" class="g1_1"/>
<path d="M951.1,605.7h.8V584.1h-.8v21.6Z" class="g1_1"/>
<path d="M1238.2,605.7h.8V584.1h-.8v21.6Z" class="g1_1"/>
<path d="M47.1,606.5h.7v-.8h-.7v.8Z" class="g1_1"/>
<path d="M47.8,606.5H664v-.8H47.8v.8Z" class="g1_1"/>
<path d="M664,606.5h.8v-.8H664v.8Z" class="g1_1"/>
<path d="M664.8,606.5H951.1v-.8H664.8v.8Z" class="g1_1"/>
<path d="M951.1,606.5h.8v-.8h-.8v.8Z" class="g1_1"/>
<path d="M951.9,606.5h286.3v-.8H951.9v.8Z" class="g1_1"/>
<path d="M1238.2,606.5h.8v-.8h-.8v.8Z" class="g1_1"/>
<path d="M47.1,628.3h.7V606.5h-.7v21.8Z" class="g1_1"/>
<path d="M664,628.3h.8V606.5H664v21.8Z" class="g1_1"/>
<path d="M951.1,628.3h.8V606.5h-.8v21.8Z" class="g1_1"/>
<path d="M1238.2,628.3h.8V606.5h-.8v21.8Z" class="g1_1"/>
<path d="M47.1,629h.7v-.7h-.7v.7Z" class="g1_1"/>
<path d="M47.8,629H664v-.7H47.8v.7Z" class="g1_1"/>
<path d="M664,629h.8v-.7H664v.7Z" class="g1_1"/>
<path d="M664.8,629H951.1v-.7H664.8v.7Z" class="g1_1"/>
<path d="M951.1,629h.8v-.7h-.8v.7Z" class="g1_1"/>
<path d="M951.9,629h286.3v-.7H951.9v.7Z" class="g1_1"/>
<path d="M1238.2,629h.8v-.7h-.8v.7Z" class="g1_1"/>
<path d="M47.1,650.7h.7V629h-.7v21.7Z" class="g1_1"/>
<path d="M664,650.7h.8V629H664v21.7Z" class="g1_1"/>
<path d="M951.1,650.7h.8V629h-.8v21.7Z" class="g1_1"/>
<path d="M1238.2,650.7h.8V629h-.8v21.7Z" class="g1_1"/>
<path d="M47.1,651.4h.7v-.8h-.7v.8Z" class="g1_1"/>
<path d="M47.8,651.4H664v-.8H47.8v.8Z" class="g1_1"/>
<path d="M664,651.4h.8v-.8H664v.8Z" class="g1_1"/>
<path d="M664.8,651.4H951.1v-.8H664.8v.8Z" class="g1_1"/>
<path d="M951.1,651.4h.8v-.8h-.8v.8Z" class="g1_1"/>
<path d="M951.9,651.4h286.3v-.8H951.9v.8Z" class="g1_1"/>
<path d="M1238.2,651.4h.8v-.8h-.8v.8Z" class="g1_1"/>
<path d="M47.1,673.2h.7V651.4h-.7v21.8Z" class="g1_1"/>
<path d="M664,673.2h.8V651.4H664v21.8Z" class="g1_1"/>
<path d="M951.1,673.2h.8V651.4h-.8v21.8Z" class="g1_1"/>
<path d="M1238.2,673.2h.8V651.4h-.8v21.8Z" class="g1_1"/>
<path d="M47.1,673.9h.7v-.7h-.7v.7Z" class="g1_1"/>
<path d="M47.8,673.9H664v-.7H47.8v.7Z" class="g1_1"/>
<path d="M664,673.9h.8v-.7H664v.7Z" class="g1_1"/>
<path d="M664.8,673.9H951.1v-.7H664.8v.7Z" class="g1_1"/>
<path d="M951.1,673.9h.8v-.7h-.8v.7Z" class="g1_1"/>
<path d="M951.9,673.9h286.3v-.7H951.9v.7Z" class="g1_1"/>
<path d="M1238.2,673.9h.8v-.7h-.8v.7Z" class="g1_1"/>
<path d="M47.1,695.6h.7V673.9h-.7v21.7Z" class="g1_1"/>
<path d="M664,695.6h.8V673.9H664v21.7Z" class="g1_1"/>
<path d="M951.1,695.6h.8V673.9h-.8v21.7Z" class="g1_1"/>
<path d="M1238.2,695.6h.8V673.9h-.8v21.7Z" class="g1_1"/>
<path d="M47.1,696.3h.7v-.7h-.7v.7Z" class="g1_1"/>
<path d="M47.8,696.3H664v-.7H47.8v.7Z" class="g1_1"/>
<path d="M664,696.3h.8v-.7H664v.7Z" class="g1_1"/>
<path d="M664.8,696.3H951.1v-.7H664.8v.7Z" class="g1_1"/>
<path d="M951.1,696.3h.8v-.7h-.8v.7Z" class="g1_1"/>
<path d="M951.9,696.3h286.3v-.7H951.9v.7Z" class="g1_1"/>
<path d="M1238.2,696.3h.8v-.7h-.8v.7Z" class="g1_1"/>
<path d="M47.1,718.1h.7V696.3h-.7v21.8Z" class="g1_1"/>
<path d="M664,718.1h.8V696.3H664v21.8Z" class="g1_1"/>
<path d="M951.1,718.1h.8V696.3h-.8v21.8Z" class="g1_1"/>
<path d="M1238.2,718.1h.8V696.3h-.8v21.8Z" class="g1_1"/>
<path d="M47.1,718.9h.7v-.8h-.7v.8Z" class="g1_1"/>
<path d="M47.8,718.9H664v-.8H47.8v.8Z" class="g1_1"/>
<path d="M664,718.9h.8v-.8H664v.8Z" class="g1_1"/>
<path d="M664.8,718.9H951.1v-.8H664.8v.8Z" class="g1_1"/>
<path d="M951.1,718.9h.8v-.8h-.8v.8Z" class="g1_1"/>
<path d="M951.9,718.9h286.3v-.8H951.9v.8Z" class="g1_1"/>
<path d="M1238.2,718.9h.8v-.8h-.8v.8Z" class="g1_1"/>
<path d="M47.1,740.5h.7V718.8h-.7v21.7Z" class="g1_1"/>
<path d="M664,740.5h.8V718.8H664v21.7Z" class="g1_1"/>
<path d="M951.1,740.5h.8V718.8h-.8v21.7Z" class="g1_1"/>
<path d="M1238.2,740.5h.8V718.8h-.8v21.7Z" class="g1_1"/>
<path d="M47.1,741.2h.7v-.7h-.7v.7Z" class="g1_1"/>
<path d="M47.8,741.2H664v-.7H47.8v.7Z" class="g1_1"/>
<path d="M664,741.2h.8v-.7H664v.7Z" class="g1_1"/>
<path d="M664.8,741.2H951.1v-.7H664.8v.7Z" class="g1_1"/>
<path d="M951.1,741.2h.8v-.7h-.8v.7Z" class="g1_1"/>
<path d="M951.9,741.2h286.3v-.7H951.9v.7Z" class="g1_1"/>
<path d="M1238.2,741.2h.8v-.7h-.8v.7Z" class="g1_1"/>
<path d="M47.1,763h.7V741.2h-.7V763Z" class="g1_1"/>
<path d="M664,763h.8V741.2H664V763Z" class="g1_1"/>
<path d="M951.1,763h.8V741.2h-.8V763Z" class="g1_1"/>
<path d="M1238.2,763h.8V741.2h-.8V763Z" class="g1_1"/>
<path d="M47.1,763.8h.7V763h-.7v.8Z" class="g1_1"/>
<path d="M47.8,763.8H664V763H47.8v.8Z" class="g1_1"/>
<path d="M664,763.8h.8V763H664v.8Z" class="g1_1"/>
<path d="M664.8,763.8H951.1V763H664.8v.8Z" class="g1_1"/>
<path d="M951.1,763.8h.8V763h-.8v.8Z" class="g1_1"/>
<path d="M951.9,763.8h286.3V763H951.9v.8Z" class="g1_1"/>
<path d="M1238.2,763.8h.8V763h-.8v.8Z" class="g1_1"/>
<path d="M47.1,785.4h.7V763.8h-.7v21.6Z" class="g1_1"/>
<path d="M664,785.4h.8V763.8H664v21.6Z" class="g1_1"/>
<path d="M951.1,785.4h.8V763.8h-.8v21.6Z" class="g1_1"/>
<path d="M1238.2,785.4h.8V763.8h-.8v21.6Z" class="g1_1"/>
<path d="M47.1,786.1h.7v-.7h-.7v.7Z" class="g1_1"/>
<path d="M47.8,786.1H664v-.7H47.8v.7Z" class="g1_1"/>
<path d="M664,786.1h.8v-.7H664v.7Z" class="g1_1"/>
<path d="M664.8,786.1H951.1v-.7H664.8v.7Z" class="g1_1"/>
<path d="M951.1,786.1h.8v-.7h-.8v.7Z" class="g1_1"/>
<path d="M951.9,786.1h286.3v-.7H951.9v.7Z" class="g1_1"/>
<path d="M1238.2,786.1h.8v-.7h-.8v.7Z" class="g1_1"/>
<path d="M47.1,808h.7V786.1h-.7V808Z" class="g1_1"/>
<path d="M664,808h.8V786.1H664V808Z" class="g1_1"/>
<path d="M951.1,808h.8V786.1h-.8V808Z" class="g1_1"/>
<path d="M1238.2,808h.8V786.1h-.8V808Z" class="g1_1"/>
<path d="M47.1,808.7h.7v-.8h-.7v.8Z" class="g1_1"/>
<path d="M47.8,808.7H664v-.8H47.8v.8Z" class="g1_1"/>
<path d="M664,808.7h.8v-.8H664v.8Z" class="g1_1"/>
<path d="M664.8,808.7H951.1v-.8H664.8v.8Z" class="g1_1"/>
<path d="M951.1,808.7h.8v-.8h-.8v.8Z" class="g1_1"/>
<path d="M951.9,808.7h286.3v-.8H951.9v.8Z" class="g1_1"/>
<path d="M1238.2,808.7h.8v-.8h-.8v.8Z" class="g1_1"/>
<path d="M47.1,830.3h.7V808.7h-.7v21.6Z" class="g1_1"/>
<path d="M664,830.3h.8V808.7H664v21.6Z" class="g1_1"/>
<path d="M951.1,830.3h.8V808.7h-.8v21.6Z" class="g1_1"/>
<path d="M1238.2,830.3h.8V808.7h-.8v21.6Z" class="g1_1"/>
<path d="M47.1,831.1h.7v-.8h-.7v.8Z" class="g1_1"/>
<path d="M47.8,831.1H664v-.8H47.8v.8Z" class="g1_1"/>
<path d="M664,831.1h.8v-.8H664v.8Z" class="g1_1"/>
<path d="M664.8,831.1H951.1v-.8H664.8v.8Z" class="g1_1"/>
<path d="M951.1,831.1h.8v-.8h-.8v.8Z" class="g1_1"/>
<path d="M951.9,831.1h286.3v-.8H951.9v.8Z" class="g1_1"/>
<path d="M1238.2,831.1h.8v-.8h-.8v.8Z" class="g1_1"/>
<path d="M47.1,852.9h.7V831.1h-.7v21.8Z" class="g1_1"/>
<path d="M47.1,853.6h.7v-.7h-.7v.7Z" class="g1_1"/>
<path d="M47.1,853.6h.7v-.7h-.7v.7Z" class="g1_1"/>
<path d="M47.8,853.6H664v-.7H47.8v.7Z" class="g1_1"/>
<path d="M664,852.9h.8V831.1H664v21.8Z" class="g1_1"/>
<path d="M664,853.6h.8v-.7H664v.7Z" class="g1_1"/>
<path d="M664.8,853.6H951.1v-.7H664.8v.7Z" class="g1_1"/>
<path d="M951.1,852.9h.8V831.1h-.8v21.8Z" class="g1_1"/>
<path d="M951.1,853.6h.8v-.7h-.8v.7Z" class="g1_1"/>
<path d="M951.9,853.6h286.3v-.7H951.9v.7Z" class="g1_1"/>
<path d="M1238.2,852.9h.8V831.1h-.8v21.8Z" class="g1_1"/>
<path d="M1238.2,853.6h.8v-.7h-.8v.7Z" class="g1_1"/>
<path d="M1238.2,853.6h.8v-.7h-.8v.7Z" class="g1_1"/>
</svg>