<?xml version="1.0" encoding="UTF-8" standalone="no"?>
<!DOCTYPE svg PUBLIC "-//W3C//DTD SVG 1.1//EN"
"http://www.w3.org/Graphics/SVG/1.1/DTD/svg11.dtd">
<svg viewBox="0 0 1286 909" version="1.1" xmlns="http://www.w3.org/2000/svg" xmlns:xlink="http://www.w3.org/1999/xlink">
<defs>
<style type="text/css"><![CDATA[
.g0_1{
fill: #D9D9D9;
}
.g1_1{
}
]]></style>
</defs>
<path fill-rule="evenodd" d="M47.8,175.4H550.9V153.8H47.8v21.6Z" class="g0_1"/>
<path fill-rule="evenodd" d="M55.7,173.4H543V155.8H55.7v17.6Z" class="g0_1"/>
<path fill-rule="evenodd" d="M551.6,175.4h91V153.8h-91v21.6Z" class="g0_1"/>
<path fill-rule="evenodd" d="M559.5,173.4h75.2V155.8H559.5v17.6Z" class="g0_1"/>
<path fill-rule="evenodd" d="M643.3,175.4h508.8V153.8H643.3v21.6Z" class="g0_1"/>
<path fill-rule="evenodd" d="M651.2,173.4h493V155.8h-493v17.6Z" class="g0_1"/>
<path fill-rule="evenodd" d="M1152.8,175.4h85.4V153.8h-85.4v21.6Z" class="g0_1"/>
<path fill-rule="evenodd" d="M1160.7,173.4h69.6V155.8h-69.6v17.6Z" class="g0_1"/>
<path d="M47.1,153.8h.7v-.7h-.7v.7Z" class="g1_1"/>
<path d="M47.1,153.8h.7v-.7h-.7v.7Z" class="g1_1"/>
<path d="M47.8,153.8H550.9v-.7H47.8v.7Z" class="g1_1"/>
<path d="M550.9,153.8h.8v-.7h-.8v.7Z" class="g1_1"/>
<path d="M551.6,153.8h91v-.7h-91v.7Z" class="g1_1"/>
<path d="M642.6,153.8h.7v-.7h-.7v.7Z" class="g1_1"/>
<path d="M643.3,153.8h508.8v-.7H643.3v.7Z" class="g1_1"/>
<path d="M1152.1,153.8h.7v-.7h-.7v.7Z" class="g1_1"/>
<path d="M1152.8,153.8h85.4v-.7h-85.4v.7Z" class="g1_1"/>
<path d="M1238.2,153.8h.8v-.7h-.8v.7Z" class="g1_1"/>
<path d="M1238.2,153.8h.8v-.7h-.8v.7Z" class="g1_1"/>
<path d="M47.1,175.4h.7V153.8h-.7v21.6Z" class="g1_1"/>
<path d="M550.9,175.4h.8V153.8h-.8v21.6Z" class="g1_1"/>
<path d="M642.6,175.4h.7V153.8h-.7v21.6Z" class="g1_1"/>
<path d="M1152.1,175.4h.7V153.8h-.7v21.6Z" class="g1_1"/>
<path d="M1238.2,175.4h.8V153.8h-.8v21.6Z" class="g1_1"/>
<path d="M47.1,176.2h.7v-.8h-.7v.8Z" class="g1_1"/>
<path d="M47.8,176.2H550.9v-.8H47.8v.8Z" class="g1_1"/>
<path d="M550.9,176.2h.8v-.8h-.8v.8Z" class="g1_1"/>
<path d="M551.6,176.2h91v-.8h-91v.8Z" class="g1_1"/>
<path d="M642.6,176.2h.7v-.8h-.7v.8Z" class="g1_1"/>
<path d="M643.3,176.2h508.8v-.8H643.3v.8Z" class="g1_1"/>
<path d="M1152.1,176.2h.7v-.8h-.7v.8Z" class="g1_1"/>
<path d="M1152.8,176.2h85.4v-.8h-85.4v.8Z" class="g1_1"/>
<path d="M1238.2,176.2h.8v-.8h-.8v.8Z" class="g1_1"/>
<path d="M47.1,198h.7V176.2h-.7V198Z" class="g1_1"/>
<path d="M550.9,198h.8V176.2h-.8V198Z" class="g1_1"/>
<path d="M642.6,198h.7V176.2h-.7V198Z" class="g1_1"/>
<path d="M1152.1,198h.7V176.2h-.7V198Z" class="g1_1"/>
<path d="M1238.2,198h.8V176.2h-.8V198Z" class="g1_1"/>
<path d="M47.1,198.7h.7V198h-.7v.7Z" class="g1_1"/>
<path d="M47.8,198.7H550.9V198H47.8v.7Z" class="g1_1"/>
<path d="M550.9,198.7h.8V198h-.8v.7Z" class="g1_1"/>
<path d="M551.6,198.7h91V198h-91v.7Z" class="g1_1"/>
<path d="M642.6,198.7h.7V198h-.7v.7Z" class="g1_1"/>
<path d="M643.3,198.7h508.8V198H643.3v.7Z" class="g1_1"/>
<path d="M1152.1,198.7h.7V198h-.7v.7Z" class="g1_1"/>
<path d="M1152.8,198.7h85.4V198h-85.4v.7Z" class="g1_1"/>
<path d="M1238.2,198.7h.8V198h-.8v.7Z" class="g1_1"/>
<path d="M47.1,220.4h.7V198.7h-.7v21.7Z" class="g1_1"/>
<path d="M550.9,220.4h.8V198.7h-.8v21.7Z" class="g1_1"/>
<path d="M642.6,220.4h.7V198.7h-.7v21.7Z" class="g1_1"/>
<path d="M1152.1,220.4h.7V198.7h-.7v21.7Z" class="g1_1"/>
<path d="M1238.2,220.4h.8V198.7h-.8v21.7Z" class="g1_1"/>
<path d="M47.1,221.1h.7v-.7h-.7v.7Z" class="g1_1"/>
<path d="M47.8,221.1H550.9v-.7H47.8v.7Z" class="g1_1"/>
<path d="M550.9,221.1h.8v-.7h-.8v.7Z" class="g1_1"/>
<path d="M551.6,221.1h91v-.7h-91v.7Z" class="g1_1"/>
<path d="M642.6,221.1h.7v-.7h-.7v.7Z" class="g1_1"/>
<path d="M643.3,221.1h508.8v-.7H643.3v.7Z" class="g1_1"/>
<path d="M1152.1,221.1h.7v-.7h-.7v.7Z" class="g1_1"/>
<path d="M1152.8,221.1h85.4v-.7h-85.4v.7Z" class="g1_1"/>
<path d="M1238.2,221.1h.8v-.7h-.8v.7Z" class="g1_1"/>
<path d="M47.1,242.9h.7V221.1h-.7v21.8Z" class="g1_1"/>
<path d="M550.9,242.9h.8V221.1h-.8v21.8Z" class="g1_1"/>
<path d="M642.6,242.9h.7V221.1h-.7v21.8Z" class="g1_1"/>
<path d="M1152.1,242.9h.7V221.1h-.7v21.8Z" class="g1_1"/>
<path d="M1238.2,242.9h.8V221.1h-.8v21.8Z" class="g1_1"/>
<path d="M47.1,243.7h.7v-.8h-.7v.8Z" class="g1_1"/>
<path d="M47.8,243.7H550.9v-.8H47.8v.8Z" class="g1_1"/>
<path d="M550.9,243.7h.8v-.8h-.8v.8Z" class="g1_1"/>
<path d="M551.6,243.7h91v-.8h-91v.8Z" class="g1_1"/>
<path d="M642.6,243.7h.7v-.8h-.7v.8Z" class="g1_1"/>
<path d="M643.3,243.7h508.8v-.8H643.3v.8Z" class="g1_1"/>
<path d="M1152.1,243.7h.7v-.8h-.7v.8Z" class="g1_1"/>
<path d="M1152.8,243.7h85.4v-.8h-85.4v.8Z" class="g1_1"/>
<path d="M1238.2,243.7h.8v-.8h-.8v.8Z" class="g1_1"/>
<path d="M47.1,265.3h.7V243.6h-.7v21.7Z" class="g1_1"/>
<path d="M550.9,265.3h.8V243.6h-.8v21.7Z" class="g1_1"/>
<path d="M642.6,265.3h.7V243.6h-.7v21.7Z" class="g1_1"/>
<path d="M1152.1,265.3h.7V243.6h-.7v21.7Z" class="g1_1"/>
<path d="M1238.2,265.3h.8V243.6h-.8v21.7Z" class="g1_1"/>
<path d="M47.1,266h.7v-.7h-.7v.7Z" class="g1_1"/>
<path d="M47.8,266H550.9v-.7H47.8v.7Z" class="g1_1"/>
<path d="M550.9,266h.8v-.7h-.8v.7Z" class="g1_1"/>
<path d="M551.6,266h91v-.7h-91v.7Z" class="g1_1"/>
<path d="M642.6,266h.7v-.7h-.7v.7Z" class="g1_1"/>
<path d="M643.3,266h508.8v-.7H643.3v.7Z" class="g1_1"/>
<path d="M1152.1,266h.7v-.7h-.7v.7Z" class="g1_1"/>
<path d="M1152.8,266h85.4v-.7h-85.4v.7Z" class="g1_1"/>
<path d="M1238.2,266h.8v-.7h-.8v.7Z" class="g1_1"/>
<path d="M47.1,287.8h.7V266h-.7v21.8Z" class="g1_1"/>
<path d="M550.9,287.8h.8V266h-.8v21.8Z" class="g1_1"/>
<path d="M642.6,287.8h.7V266h-.7v21.8Z" class="g1_1"/>
<path d="M1152.1,287.8h.7V266h-.7v21.8Z" class="g1_1"/>
<path d="M1238.2,287.8h.8V266h-.8v21.8Z" class="g1_1"/>
<path d="M47.1,288.6h.7v-.8h-.7v.8Z" class="g1_1"/>
<path d="M47.8,288.6H550.9v-.8H47.8v.8Z" class="g1_1"/>
<path d="M550.9,288.6h.8v-.8h-.8v.8Z" class="g1_1"/>
<path d="M551.6,288.6h91v-.8h-91v.8Z" class="g1_1"/>
<path d="M642.6,288.6h.7v-.8h-.7v.8Z" class="g1_1"/>
<path d="M643.3,288.6h508.8v-.8H643.3v.8Z" class="g1_1"/>
<path d="M1152.1,288.6h.7v-.8h-.7v.8Z" class="g1_1"/>
<path d="M1152.8,288.6h85.4v-.8h-85.4v.8Z" class="g1_1"/>
<path d="M1238.2,288.6h.8v-.8h-.8v.8Z" class="g1_1"/>
<path d="M47.1,310.2h.7V288.6h-.7v21.6Z" class="g1_1"/>
<path d="M550.9,310.2h.8V288.6h-.8v21.6Z" class="g1_1"/>
<path d="M642.6,310.2h.7V288.6h-.7v21.6Z" class="g1_1"/>
<path d="M1152.1,310.2h.7V288.6h-.7v21.6Z" class="g1_1"/>
<path d="M1238.2,310.2h.8V288.6h-.8v21.6Z" class="g1_1"/>
<path d="M47.1,310.9h.7v-.7h-.7v.7Z" class="g1_1"/>
<path d="M47.8,310.9H550.9v-.7H47.8v.7Z" class="g1_1"/>
<path d="M550.9,310.9h.8v-.7h-.8v.7Z" class="g1_1"/>
<path d="M551.6,310.9h91v-.7h-91v.7Z" class="g1_1"/>
<path d="M642.6,310.9h.7v-.7h-.7v.7Z" class="g1_1"/>
<path d="M643.3,310.9h508.8v-.7H643.3v.7Z" class="g1_1"/>
<path d="M1152.1,310.9h.7v-.7h-.7v.7Z" class="g1_1"/>
<path d="M1152.8,310.9h85.4v-.7h-85.4v.7Z" class="g1_1"/>
<path d="M1238.2,310.9h.8v-.7h-.8v.7Z" class="g1_1"/>
<path d="M47.1,332.8h.7V310.9h-.7v21.9Z" class="g1_1"/>
<path d="M550.9,332.8h.8V310.9h-.8v21.9Z" class="g1_1"/>
<path d="M642.6,332.8h.7V310.9h-.7v21.9Z" class="g1_1"/>
<path d="M1152.1,332.8h.7V310.9h-.7v21.9Z" class="g1_1"/>
<path d="M1238.2,332.8h.8V310.9h-.8v21.9Z" class="g1_1"/>
<path d="M47.1,333.5h.7v-.8h-.7v.8Z" class="g1_1"/>
<path d="M47.8,333.5H550.9v-.8H47.8v.8Z" class="g1_1"/>
<path d="M550.9,333.5h.8v-.8h-.8v.8Z" class="g1_1"/>
<path d="M551.6,333.5h91v-.8h-91v.8Z" class="g1_1"/>
<path d="M642.6,333.5h.7v-.8h-.7v.8Z" class="g1_1"/>
<path d="M643.3,333.5h508.8v-.8H643.3v.8Z" class="g1_1"/>
<path d="M1152.1,333.5h.7v-.8h-.7v.8Z" class="g1_1"/>
<path d="M1152.8,333.5h85.4v-.8h-85.4v.8Z" class="g1_1"/>
<path d="M1238.2,333.5h.8v-.8h-.8v.8Z" class="g1_1"/>
<path d="M47.1,355.1h.7V333.5h-.7v21.6Z" class="g1_1"/>
<path d="M550.9,355.1h.8V333.5h-.8v21.6Z" class="g1_1"/>
<path d="M642.6,355.1h.7V333.5h-.7v21.6Z" class="g1_1"/>
<path d="M1152.1,355.1h.7V333.5h-.7v21.6Z" class="g1_1"/>
<path d="M1238.2,355.1h.8V333.5h-.8v21.6Z" class="g1_1"/>
<path d="M47.1,355.9h.7v-.8h-.7v.8Z" class="g1_1"/>
<path d="M47.8,355.9H550.9v-.8H47.8v.8Z" class="g1_1"/>
<path d="M550.9,355.9h.8v-.8h-.8v.8Z" class="g1_1"/>
<path d="M551.6,355.9h91v-.8h-91v.8Z" class="g1_1"/>
<path d="M642.6,355.9h.7v-.8h-.7v.8Z" class="g1_1"/>
<path d="M643.3,355.9h508.8v-.8H643.3v.8Z" class="g1_1"/>
<path d="M1152.1,355.9h.7v-.8h-.7v.8Z" class="g1_1"/>
<path d="M1152.8,355.9h85.4v-.8h-85.4v.8Z" class="g1_1"/>
<path d="M1238.2,355.9h.8v-.8h-.8v.8Z" class="g1_1"/>
<path d="M47.1,377.7h.7V355.9h-.7v21.8Z" class="g1_1"/>
<path d="M550.9,377.7h.8V355.9h-.8v21.8Z" class="g1_1"/>
<path d="M642.6,377.7h.7V355.9h-.7v21.8Z" class="g1_1"/>
<path d="M1152.1,377.7h.7V355.9h-.7v21.8Z" class="g1_1"/>
<path d="M1238.2,377.7h.8V355.9h-.8v21.8Z" class="g1_1"/>
<path d="M47.1,378.4h.7v-.7h-.7v.7Z" class="g1_1"/>
<path d="M47.8,378.4H550.9v-.7H47.8v.7Z" class="g1_1"/>
<path d="M550.9,378.4h.8v-.7h-.8v.7Z" class="g1_1"/>
<path d="M551.6,378.4h91v-.7h-91v.7Z" class="g1_1"/>
<path d="M642.6,378.4h.7v-.7h-.7v.7Z" class="g1_1"/>
<path d="M643.3,378.4h508.8v-.7H643.3v.7Z" class="g1_1"/>
<path d="M1152.1,378.4h.7v-.7h-.7v.7Z" class="g1_1"/>
<path d="M1152.8,378.4h85.4v-.7h-85.4v.7Z" class="g1_1"/>
<path d="M1238.2,378.4h.8v-.7h-.8v.7Z" class="g1_1"/>
<path d="M47.1,400h.7V378.4h-.7V400Z" class="g1_1"/>
<path d="M550.9,400h.8V378.4h-.8V400Z" class="g1_1"/>
<path d="M642.6,400h.7V378.4h-.7V400Z" class="g1_1"/>
<path d="M1152.1,400h.7V378.4h-.7V400Z" class="g1_1"/>
<path d="M1238.2,400h.8V378.4h-.8V400Z" class="g1_1"/>
<path d="M47.1,400.8h.7V400h-.7v.8Z" class="g1_1"/>
<path d="M47.8,400.8H550.9V400H47.8v.8Z" class="g1_1"/>
<path d="M550.9,400.8h.8V400h-.8v.8Z" class="g1_1"/>
<path d="M551.6,400.8h91V400h-91v.8Z" class="g1_1"/>
<path d="M642.6,400.8h.7V400h-.7v.8Z" class="g1_1"/>
<path d="M643.3,400.8h508.8V400H643.3v.8Z" class="g1_1"/>
<path d="M1152.1,400.8h.7V400h-.7v.8Z" class="g1_1"/>
<path d="M1152.8,400.8h85.4V400h-85.4v.8Z" class="g1_1"/>
<path d="M1238.2,400.8h.8V400h-.8v.8Z" class="g1_1"/>
<path d="M47.1,422.6h.7V400.8h-.7v21.8Z" class="g1_1"/>
<path d="M550.9,422.6h.8V400.8h-.8v21.8Z" class="g1_1"/>
<path d="M642.6,422.6h.7V400.8h-.7v21.8Z" class="g1_1"/>
<path d="M1152.1,422.6h.7V400.8h-.7v21.8Z" class="g1_1"/>
<path d="M1238.2,422.6h.8V400.8h-.8v21.8Z" class="g1_1"/>
<path d="M47.1,423.3h.7v-.7h-.7v.7Z" class="g1_1"/>
<path d="M47.8,423.3H550.9v-.7H47.8v.7Z" class="g1_1"/>
<path d="M550.9,423.3h.8v-.7h-.8v.7Z" class="g1_1"/>
<path d="M551.6,423.3h91v-.7h-91v.7Z" class="g1_1"/>
<path d="M642.6,423.3h.7v-.7h-.7v.7Z" class="g1_1"/>
<path d="M643.3,423.3h508.8v-.7H643.3v.7Z" class="g1_1"/>
<path d="M1152.1,423.3h.7v-.7h-.7v.7Z" class="g1_1"/>
<path d="M1152.8,423.3h85.4v-.7h-85.4v.7Z" class="g1_1"/>
<path d="M1238.2,423.3h.8v-.7h-.8v.7Z" class="g1_1"/>
<path d="M47.1,445h.7V423.3h-.7V445Z" class="g1_1"/>
<path d="M550.9,445h.8V423.3h-.8V445Z" class="g1_1"/>
<path d="M642.6,445h.7V423.3h-.7V445Z" class="g1_1"/>
<path d="M1152.1,445h.7V423.3h-.7V445Z" class="g1_1"/>
<path d="M1238.2,445h.8V423.3h-.8V445Z" class="g1_1"/>
<path d="M47.1,445.7h.7v-.8h-.7v.8Z" class="g1_1"/>
<path d="M47.8,445.7H550.9v-.8H47.8v.8Z" class="g1_1"/>
<path d="M550.9,445.7h.8v-.8h-.8v.8Z" class="g1_1"/>
<path d="M551.6,445.7h91v-.8h-91v.8Z" class="g1_1"/>
<path d="M642.6,445.7h.7v-.8h-.7v.8Z" class="g1_1"/>
<path d="M643.3,445.7h508.8v-.8H643.3v.8Z" class="g1_1"/>
<path d="M1152.1,445.7h.7v-.8h-.7v.8Z" class="g1_1"/>
<path d="M1152.8,445.7h85.4v-.8h-85.4v.8Z" class="g1_1"/>
<path d="M1238.2,445.7h.8v-.8h-.8v.8Z" class="g1_1"/>
<path d="M47.1,467.5h.7V445.7h-.7v21.8Z" class="g1_1"/>
<path d="M550.9,467.5h.8V445.7h-.8v21.8Z" class="g1_1"/>
<path d="M642.6,467.5h.7V445.7h-.7v21.8Z" class="g1_1"/>
<path d="M1152.1,467.5h.7V445.7h-.7v21.8Z" class="g1_1"/>
<path d="M1238.2,467.5h.8V445.7h-.8v21.8Z" class="g1_1"/>
<path d="M47.1,468.2h.7v-.7h-.7v.7Z" class="g1_1"/>
<path d="M47.8,468.2H550.9v-.7H47.8v.7Z" class="g1_1"/>
<path d="M550.9,468.2h.8v-.7h-.8v.7Z" class="g1_1"/>
<path d="M551.6,468.2h91v-.7h-91v.7Z" class="g1_1"/>
<path d="M642.6,468.2h.7v-.7h-.7v.7Z" class="g1_1"/>
<path d="M643.3,468.2h508.8v-.7H643.3v.7Z" class="g1_1"/>
<path d="M1152.1,468.2h.7v-.7h-.7v.7Z" class="g1_1"/>
<path d="M1152.8,468.2h85.4v-.7h-85.4v.7Z" class="g1_1"/>
<path d="M1238.2,468.2h.8v-.7h-.8v.7Z" class="g1_1"/>
<path d="M47.1,489.9h.7V468.2h-.7v21.7Z" class="g1_1"/>
<path d="M550.9,489.9h.8V468.2h-.8v21.7Z" class="g1_1"/>
<path d="M642.6,489.9h.7V468.2h-.7v21.7Z" class="g1_1"/>
<path d="M1152.1,489.9h.7V468.2h-.7v21.7Z" class="g1_1"/>
<path d="M1238.2,489.9h.8V468.2h-.8v21.7Z" class="g1_1"/>
<path d="M47.1,490.6h.7v-.7h-.7v.7Z" class="g1_1"/>
<path d="M47.8,490.6H550.9v-.7H47.8v.7Z" class="g1_1"/>
<path d="M550.9,490.6h.8v-.7h-.8v.7Z" class="g1_1"/>
<path d="M551.6,490.6h91v-.7h-91v.7Z" class="g1_1"/>
<path d="M642.6,490.6h.7v-.7h-.7v.7Z" class="g1_1"/>
<path d="M643.3,490.6h508.8v-.7H643.3v.7Z" class="g1_1"/>
<path d="M1152.1,490.6h.7v-.7h-.7v.7Z" class="g1_1"/>
<path d="M1152.8,490.6h85.4v-.7h-85.4v.7Z" class="g1_1"/>
<path d="M1238.2,490.6h.8v-.7h-.8v.7Z" class="g1_1"/>
<path d="M47.1,512.4h.7V490.6h-.7v21.8Z" class="g1_1"/>
<path d="M550.9,512.4h.8V490.6h-.8v21.8Z" class="g1_1"/>
<path d="M642.6,512.4h.7V490.6h-.7v21.8Z" class="g1_1"/>
<path d="M1152.1,512.4h.7V490.6h-.7v21.8Z" class="g1_1"/>
<path d="M1238.2,512.4h.8V490.6h-.8v21.8Z" class="g1_1"/>
<path d="M47.1,513.2h.7v-.8h-.7v.8Z" class="g1_1"/>
<path d="M47.8,513.2H550.9v-.8H47.8v.8Z" class="g1_1"/>
<path d="M550.9,513.2h.8v-.8h-.8v.8Z" class="g1_1"/>
<path d="M551.6,513.2h91v-.8h-91v.8Z" class="g1_1"/>
<path d="M642.6,513.2h.7v-.8h-.7v.8Z" class="g1_1"/>
<path d="M643.3,513.2h508.8v-.8H643.3v.8Z" class="g1_1"/>
<path d="M1152.1,513.2h.7v-.8h-.7v.8Z" class="g1_1"/>
<path d="M1152.8,513.2h85.4v-.8h-85.4v.8Z" class="g1_1"/>
<path d="M1238.2,513.2h.8v-.8h-.8v.8Z" class="g1_1"/>
<path d="M47.1,534.8h.7V513.1h-.7v21.7Z" class="g1_1"/>
<path d="M550.9,534.8h.8V513.1h-.8v21.7Z" class="g1_1"/>
<path d="M642.6,534.8h.7V513.1h-.7v21.7Z" class="g1_1"/>
<path d="M1152.1,534.8h.7V513.1h-.7v21.7Z" class="g1_1"/>
<path d="M1238.2,534.8h.8V513.1h-.8v21.7Z" class="g1_1"/>
<path d="M47.1,535.5h.7v-.7h-.7v.7Z" class="g1_1"/>
<path d="M47.8,535.5H550.9v-.7H47.8v.7Z" class="g1_1"/>
<path d="M550.9,535.5h.8v-.7h-.8v.7Z" class="g1_1"/>
<path d="M551.6,535.5h91v-.7h-91v.7Z" class="g1_1"/>
<path d="M642.6,535.5h.7v-.7h-.7v.7Z" class="g1_1"/>
<path d="M643.3,535.5h508.8v-.7H643.3v.7Z" class="g1_1"/>
<path d="M1152.1,535.5h.7v-.7h-.7v.7Z" class="g1_1"/>
<path d="M1152.8,535.5h85.4v-.7h-85.4v.7Z" class="g1_1"/>
<path d="M1238.2,535.5h.8v-.7h-.8v.7Z" class="g1_1"/>
<path d="M47.1,557.3h.7V535.5h-.7v21.8Z" class="g1_1"/>
<path d="M550.9,557.3h.8V535.5h-.8v21.8Z" class="g1_1"/>
<path d="M642.6,557.3h.7V535.5h-.7v21.8Z" class="g1_1"/>
<path d="M1152.1,557.3h.7V535.5h-.7v21.8Z" class="g1_1"/>
<path d="M1238.2,557.3h.8V535.5h-.8v21.8Z" class="g1_1"/>
<path d="M47.1,558.1h.7v-.8h-.7v.8Z" class="g1_1"/>
<path d="M47.8,558.1H550.9v-.8H47.8v.8Z" class="g1_1"/>
<path d="M550.9,558.1h.8v-.8h-.8v.8Z" class="g1_1"/>
<path d="M551.6,558.1h91v-.8h-91v.8Z" class="g1_1"/>
<path d="M642.6,558.1h.7v-.8h-.7v.8Z" class="g1_1"/>
<path d="M643.3,558.1h508.8v-.8H643.3v.8Z" class="g1_1"/>
<path d="M1152.1,558.1h.7v-.8h-.7v.8Z" class="g1_1"/>
<path d="M1152.8,558.1h85.4v-.8h-85.4v.8Z" class="g1_1"/>
<path d="M1238.2,558.1h.8v-.8h-.8v.8Z" class="g1_1"/>
<path d="M47.1,579.7h.7V558.1h-.7v21.6Z" class="g1_1"/>
<path d="M550.9,579.7h.8V558.1h-.8v21.6Z" class="g1_1"/>
<path d="M642.6,579.7h.7V558.1h-.7v21.6Z" class="g1_1"/>
<path d="M1152.1,579.7h.7V558.1h-.7v21.6Z" class="g1_1"/>
<path d="M1238.2,579.7h.8V558.1h-.8v21.6Z" class="g1_1"/>
<path d="M47.1,580.4h.7v-.7h-.7v.7Z" class="g1_1"/>
<path d="M47.8,580.4H550.9v-.7H47.8v.7Z" class="g1_1"/>
<path d="M550.9,580.4h.8v-.7h-.8v.7Z" class="g1_1"/>
<path d="M551.6,580.4h91v-.7h-91v.7Z" class="g1_1"/>
<path d="M642.6,580.4h.7v-.7h-.7v.7Z" class="g1_1"/>
<path d="M643.3,580.4h508.8v-.7H643.3v.7Z" class="g1_1"/>
<path d="M1152.1,580.4h.7v-.7h-.7v.7Z" class="g1_1"/>
<path d="M1152.8,580.4h85.4v-.7h-85.4v.7Z" class="g1_1"/>
<path d="M1238.2,580.4h.8v-.7h-.8v.7Z" class="g1_1"/>
<path d="M47.1,602.3h.7V580.4h-.7v21.9Z" class="g1_1"/>
<path d="M550.9,602.3h.8V580.4h-.8v21.9Z" class="g1_1"/>
<path d="M642.6,602.3h.7V580.4h-.7v21.9Z" class="g1_1"/>
<path d="M1152.1,602.3h.7V580.4h-.7v21.9Z" class="g1_1"/>
<path d="M1238.2,602.3h.8V580.4h-.8v21.9Z" class="g1_1"/>
<path d="M47.1,603h.7v-.8h-.7v.8Z" class="g1_1"/>
<path d="M47.8,603H550.9v-.8H47.8v.8Z" class="g1_1"/>
<path d="M550.9,603h.8v-.8h-.8v.8Z" class="g1_1"/>
<path d="M551.6,603h91v-.8h-91v.8Z" class="g1_1"/>
<path d="M642.6,603h.7v-.8h-.7v.8Z" class="g1_1"/>
<path d="M643.3,603h508.8v-.8H643.3v.8Z" class="g1_1"/>
<path d="M1152.1,603h.7v-.8h-.7v.8Z" class="g1_1"/>
<path d="M1152.8,603h85.4v-.8h-85.4v.8Z" class="g1_1"/>
<path d="M1238.2,603h.8v-.8h-.8v.8Z" class="g1_1"/>
<path d="M47.1,624.6h.7V603h-.7v21.6Z" class="g1_1"/>
<path d="M550.9,624.6h.8V603h-.8v21.6Z" class="g1_1"/>
<path d="M642.6,624.6h.7V603h-.7v21.6Z" class="g1_1"/>
<path d="M1152.1,624.6h.7V603h-.7v21.6Z" class="g1_1"/>
<path d="M1238.2,624.6h.8V603h-.8v21.6Z" class="g1_1"/>
<path d="M47.1,625.4h.7v-.8h-.7v.8Z" class="g1_1"/>
<path d="M47.8,625.4H550.9v-.8H47.8v.8Z" class="g1_1"/>
<path d="M550.9,625.4h.8v-.8h-.8v.8Z" class="g1_1"/>
<path d="M551.6,625.4h91v-.8h-91v.8Z" class="g1_1"/>
<path d="M642.6,625.4h.7v-.8h-.7v.8Z" class="g1_1"/>
<path d="M643.3,625.4h508.8v-.8H643.3v.8Z" class="g1_1"/>
<path d="M1152.1,625.4h.7v-.8h-.7v.8Z" class="g1_1"/>
<path d="M1152.8,625.4h85.4v-.8h-85.4v.8Z" class="g1_1"/>
<path d="M1238.2,625.4h.8v-.8h-.8v.8Z" class="g1_1"/>
<path d="M47.1,647.2h.7V625.4h-.7v21.8Z" class="g1_1"/>
<path d="M550.9,647.2h.8V625.4h-.8v21.8Z" class="g1_1"/>
<path d="M642.6,647.2h.7V625.4h-.7v21.8Z" class="g1_1"/>
<path d="M1152.1,647.2h.7V625.4h-.7v21.8Z" class="g1_1"/>
<path d="M1238.2,647.2h.8V625.4h-.8v21.8Z" class="g1_1"/>
<path d="M47.1,647.9h.7v-.7h-.7v.7Z" class="g1_1"/>
<path d="M47.8,647.9H550.9v-.7H47.8v.7Z" class="g1_1"/>
<path d="M550.9,647.9h.8v-.7h-.8v.7Z" class="g1_1"/>
<path d="M551.6,647.9h91v-.7h-91v.7Z" class="g1_1"/>
<path d="M642.6,647.9h.7v-.7h-.7v.7Z" class="g1_1"/>
<path d="M643.3,647.9h508.8v-.7H643.3v.7Z" class="g1_1"/>
<path d="M1152.1,647.9h.7v-.7h-.7v.7Z" class="g1_1"/>
<path d="M1152.8,647.9h85.4v-.7h-85.4v.7Z" class="g1_1"/>
<path d="M1238.2,647.9h.8v-.7h-.8v.7Z" class="g1_1"/>
<path d="M47.1,669.5h.7V647.9h-.7v21.6Z" class="g1_1"/>
<path d="M550.9,669.5h.8V647.9h-.8v21.6Z" class="g1_1"/>
<path d="M642.6,669.5h.7V647.9h-.7v21.6Z" class="g1_1"/>
<path d="M1152.1,669.5h.7V647.9h-.7v21.6Z" class="g1_1"/>
<path d="M1238.2,669.5h.8V647.9h-.8v21.6Z" class="g1_1"/>
<path d="M47.1,670.3h.7v-.8h-.7v.8Z" class="g1_1"/>
<path d="M47.8,670.3H550.9v-.8H47.8v.8Z" class="g1_1"/>
<path d="M550.9,670.3h.8v-.8h-.8v.8Z" class="g1_1"/>
<path d="M551.6,670.3h91v-.8h-91v.8Z" class="g1_1"/>
<path d="M642.6,670.3h.7v-.8h-.7v.8Z" class="g1_1"/>
<path d="M643.3,670.3h508.8v-.8H643.3v.8Z" class="g1_1"/>
<path d="M1152.1,670.3h.7v-.8h-.7v.8Z" class="g1_1"/>
<path d="M1152.8,670.3h85.4v-.8h-85.4v.8Z" class="g1_1"/>
<path d="M1238.2,670.3h.8v-.8h-.8v.8Z" class="g1_1"/>
<path d="M47.1,692.1h.7V670.3h-.7v21.8Z" class="g1_1"/>
<path d="M550.9,692.1h.8V670.3h-.8v21.8Z" class="g1_1"/>
<path d="M642.6,692.1h.7V670.3h-.7v21.8Z" class="g1_1"/>
<path d="M1152.1,692.1h.7V670.3h-.7v21.8Z" class="g1_1"/>
<path d="M1238.2,692.1h.8V670.3h-.8v21.8Z" class="g1_1"/>
<path d="M47.1,692.8h.7v-.7h-.7v.7Z" class="g1_1"/>
<path d="M47.8,692.8H550.9v-.7H47.8v.7Z" class="g1_1"/>
<path d="M550.9,692.8h.8v-.7h-.8v.7Z" class="g1_1"/>
<path d="M551.6,692.8h91v-.7h-91v.7Z" class="g1_1"/>
<path d="M642.6,692.8h.7v-.7h-.7v.7Z" class="g1_1"/>
<path d="M643.3,692.8h508.8v-.7H643.3v.7Z" class="g1_1"/>
<path d="M1152.1,692.8h.7v-.7h-.7v.7Z" class="g1_1"/>
<path d="M1152.8,692.8h85.4v-.7h-85.4v.7Z" class="g1_1"/>
<path d="M1238.2,692.8h.8v-.7h-.8v.7Z" class="g1_1"/>
<path d="M47.1,714.5h.7V692.8h-.7v21.7Z" class="g1_1"/>
<path d="M550.9,714.5h.8V692.8h-.8v21.7Z" class="g1_1"/>
<path d="M642.6,714.5h.7V692.8h-.7v21.7Z" class="g1_1"/>
<path d="M1152.1,714.5h.7V692.8h-.7v21.7Z" class="g1_1"/>
<path d="M1238.2,714.5h.8V692.8h-.8v21.7Z" class="g1_1"/>
<path d="M47.1,715.2h.7v-.8h-.7v.8Z" class="g1_1"/>
<path d="M47.8,715.2H550.9v-.8H47.8v.8Z" class="g1_1"/>
<path d="M550.9,715.2h.8v-.8h-.8v.8Z" class="g1_1"/>
<path d="M551.6,715.2h91v-.8h-91v.8Z" class="g1_1"/>
<path d="M642.6,715.2h.7v-.8h-.7v.8Z" class="g1_1"/>
<path d="M643.3,715.2h508.8v-.8H643.3v.8Z" class="g1_1"/>
<path d="M1152.1,715.2h.7v-.8h-.7v.8Z" class="g1_1"/>
<path d="M1152.8,715.2h85.4v-.8h-85.4v.8Z" class="g1_1"/>
<path d="M1238.2,715.2h.8v-.8h-.8v.8Z" class="g1_1"/>
<path d="M47.1,737h.7V715.2h-.7V737Z" class="g1_1"/>
<path d="M550.9,737h.8V715.2h-.8V737Z" class="g1_1"/>
<path d="M642.6,737h.7V715.2h-.7V737Z" class="g1_1"/>
<path d="M1152.1,737h.7V715.2h-.7V737Z" class="g1_1"/>
<path d="M1238.2,737h.8V715.2h-.8V737Z" class="g1_1"/>
<path d="M47.1,737.7h.7V737h-.7v.7Z" class="g1_1"/>
<path d="M47.8,737.7H550.9V737H47.8v.7Z" class="g1_1"/>
<path d="M550.9,737.7h.8V737h-.8v.7Z" class="g1_1"/>
<path d="M551.6,737.7h91V737h-91v.7Z" class="g1_1"/>
<path d="M642.6,737.7h.7V737h-.7v.7Z" class="g1_1"/>
<path d="M643.3,737.7h508.8V737H643.3v.7Z" class="g1_1"/>
<path d="M1152.1,737.7h.7V737h-.7v.7Z" class="g1_1"/>
<path d="M1152.8,737.7h85.4V737h-85.4v.7Z" class="g1_1"/>
<path d="M1238.2,737.7h.8V737h-.8v.7Z" class="g1_1"/>
<path d="M47.1,759.4h.7V737.7h-.7v21.7Z" class="g1_1"/>
<path d="M550.9,759.4h.8V737.7h-.8v21.7Z" class="g1_1"/>
<path d="M642.6,759.4h.7V737.7h-.7v21.7Z" class="g1_1"/>
<path d="M1152.1,759.4h.7V737.7h-.7v21.7Z" class="g1_1"/>
<path d="M1238.2,759.4h.8V737.7h-.8v21.7Z" class="g1_1"/>
<path d="M47.1,760.1h.7v-.7h-.7v.7Z" class="g1_1"/>
<path d="M47.8,760.1H550.9v-.7H47.8v.7Z" class="g1_1"/>
<path d="M550.9,760.1h.8v-.7h-.8v.7Z" class="g1_1"/>
<path d="M551.6,760.1h91v-.7h-91v.7Z" class="g1_1"/>
<path d="M642.6,760.1h.7v-.7h-.7v.7Z" class="g1_1"/>
<path d="M643.3,760.1h508.8v-.7H643.3v.7Z" class="g1_1"/>
<path d="M1152.1,760.1h.7v-.7h-.7v.7Z" class="g1_1"/>
<path d="M1152.8,760.1h85.4v-.7h-85.4v.7Z" class="g1_1"/>
<path d="M1238.2,760.1h.8v-.7h-.8v.7Z" class="g1_1"/>
<path d="M47.1,781.9h.7V760.1h-.7v21.8Z" class="g1_1"/>
<path d="M550.9,781.9h.8V760.1h-.8v21.8Z" class="g1_1"/>
<path d="M642.6,781.9h.7V760.1h-.7v21.8Z" class="g1_1"/>
<path d="M1152.1,781.9h.7V760.1h-.7v21.8Z" class="g1_1"/>
<path d="M1238.2,781.9h.8V760.1h-.8v21.8Z" class="g1_1"/>
<path d="M47.1,782.7h.7v-.8h-.7v.8Z" class="g1_1"/>
<path d="M47.8,782.7H550.9v-.8H47.8v.8Z" class="g1_1"/>
<path d="M550.9,782.7h.8v-.8h-.8v.8Z" class="g1_1"/>
<path d="M551.6,782.7h91v-.8h-91v.8Z" class="g1_1"/>
<path d="M642.6,782.7h.7v-.8h-.7v.8Z" class="g1_1"/>
<path d="M643.3,782.7h508.8v-.8H643.3v.8Z" class="g1_1"/>
<path d="M1152.1,782.7h.7v-.8h-.7v.8Z" class="g1_1"/>
<path d="M1152.8,782.7h85.4v-.8h-85.4v.8Z" class="g1_1"/>
<path d="M1238.2,782.7h.8v-.8h-.8v.8Z" class="g1_1"/>
<path d="M47.1,804.3h.7V782.6h-.7v21.7Z" class="g1_1"/>
<path d="M550.9,804.3h.8V782.6h-.8v21.7Z" class="g1_1"/>
<path d="M642.6,804.3h.7V782.6h-.7v21.7Z" class="g1_1"/>
<path d="M1152.1,804.3h.7V782.6h-.7v21.7Z" class="g1_1"/>
<path d="M1238.2,804.3h.8V782.6h-.8v21.7Z" class="g1_1"/>
<path d="M47.1,805h.7v-.7h-.7v.7Z" class="g1_1"/>
<path d="M47.8,805H550.9v-.7H47.8v.7Z" class="g1_1"/>
<path d="M550.9,805h.8v-.7h-.8v.7Z" class="g1_1"/>
<path d="M551.6,805h91v-.7h-91v.7Z" class="g1_1"/>
<path d="M642.6,805h.7v-.7h-.7v.7Z" class="g1_1"/>
<path d="M643.3,805h508.8v-.7H643.3v.7Z" class="g1_1"/>
<path d="M1152.1,805h.7v-.7h-.7v.7Z" class="g1_1"/>
<path d="M1152.8,805h85.4v-.7h-85.4v.7Z" class="g1_1"/>
<path d="M1238.2,805h.8v-.7h-.8v.7Z" class="g1_1"/>
<path d="M47.1,826.8h.7V805h-.7v21.8Z" class="g1_1"/>
<path d="M550.9,826.8h.8V805h-.8v21.8Z" class="g1_1"/>
<path d="M642.6,826.8h.7V805h-.7v21.8Z" class="g1_1"/>
<path d="M1152.1,826.8h.7V805h-.7v21.8Z" class="g1_1"/>
<path d="M1238.2,826.8h.8V805h-.8v21.8Z" class="g1_1"/>
<path d="M47.1,827.6h.7v-.8h-.7v.8Z" class="g1_1"/>
<path d="M47.8,827.6H550.9v-.8H47.8v.8Z" class="g1_1"/>
<path d="M550.9,827.6h.8v-.8h-.8v.8Z" class="g1_1"/>
<path d="M551.6,827.6h91v-.8h-91v.8Z" class="g1_1"/>
<path d="M642.6,827.6h.7v-.8h-.7v.8Z" class="g1_1"/>
<path d="M643.3,827.6h508.8v-.8H643.3v.8Z" class="g1_1"/>
<path d="M1152.1,827.6h.7v-.8h-.7v.8Z" class="g1_1"/>
<path d="M1152.8,827.6h85.4v-.8h-85.4v.8Z" class="g1_1"/>
<path d="M1238.2,827.6h.8v-.8h-.8v.8Z" class="g1_1"/>
<path d="M47.1,849.4h.7V827.6h-.7v21.8Z" class="g1_1"/>
<path d="M47.1,850.1h.7v-.7h-.7v.7Z" class="g1_1"/>
<path d="M47.1,850.1h.7v-.7h-.7v.7Z" class="g1_1"/>
<path d="M47.8,850.1H550.9v-.7H47.8v.7Z" class="g1_1"/>
<path d="M550.9,849.4h.8V827.6h-.8v21.8Z" class="g1_1"/>
<path d="M550.9,850.1h.8v-.7h-.8v.7Z" class="g1_1"/>
<path d="M551.6,850.1h91v-.7h-91v.7Z" class="g1_1"/>
<path d="M642.6,849.4h.7V827.6h-.7v21.8Z" class="g1_1"/>
<path d="M642.6,850.1h.7v-.7h-.7v.7Z" class="g1_1"/>
<path d="M643.3,850.1h508.8v-.7H643.3v.7Z" class="g1_1"/>
<path d="M1152.1,849.4h.7V827.6h-.7v21.8Z" class="g1_1"/>
<path d="M1152.1,850.1h.7v-.7h-.7v.7Z" class="g1_1"/>
<path d="M1152.8,850.1h85.4v-.7h-85.4v.7Z" class="g1_1"/>
<path d="M1238.2,849.4h.8V827.6h-.8v21.8Z" class="g1_1"/>
<path d="M1238.2,850.1h.8v-.7h-.8v.7Z" class="g1_1"/>
<path d="M1238.2,850.1h.8v-.7h-.8v.7Z" class="g1_1"/>
</svg>