<?xml version="1.0" encoding="UTF-8" standalone="no"?>
<!DOCTYPE svg PUBLIC "-//W3C//DTD SVG 1.1//EN"
"http://www.w3.org/Graphics/SVG/1.1/DTD/svg11.dtd">
<svg viewBox="0 0 1286 909" version="1.1" xmlns="http://www.w3.org/2000/svg" xmlns:xlink="http://www.w3.org/1999/xlink">
<defs>
<clipPath id="c0_5"><path d="M170.9,584.7V199.3H407.6V584.7Z"/></clipPath>
<clipPath id="c1_5"><path d="M194,561.6V222.1H384.5V561.6Z"/></clipPath>
<clipPath id="c2_5"><path d="M406.8,584.7V199.3H643.7V584.7Z"/></clipPath>
<clipPath id="c3_5"><path d="M430,561.5V222.1H620.5V561.5Z"/></clipPath>
<clipPath id="c4_5"><path d="M642.9,584.7V199.3H879.6V584.7Z"/></clipPath>
<clipPath id="c5_5"><path d="M666,561.6V222.1H856.5V561.6Z"/></clipPath>
<clipPath id="c6_5"><path d="M878.9,584.7V199.3h236.9V584.7Z"/></clipPath>
<clipPath id="c7_5"><path d="M902.1,561.5V222.1h190.5V561.5Z"/></clipPath>
</defs>
<image clip-path="url(#c0_5)" preserveAspectRatio="none" x="171" y="199" width="237" height="386" xlink:href="img/1.png"/>
<image clip-path="url(#c1_5)" preserveAspectRatio="none" x="194" y="222" width="190" height="340" xlink:href="img/2.jpg"/>
<image clip-path="url(#c2_5)" preserveAspectRatio="none" x="407" y="199" width="237" height="386" xlink:href="img/3.png"/>
<image clip-path="url(#c3_5)" preserveAspectRatio="none" x="430" y="222" width="191" height="340" xlink:href="img/4.jpg"/>
<image clip-path="url(#c4_5)" preserveAspectRatio="none" x="643" y="199" width="237" height="386" xlink:href="img/5.png"/>
<image clip-path="url(#c5_5)" preserveAspectRatio="none" x="666" y="222" width="191" height="340" xlink:href="img/6.jpg"/>
<image clip-path="url(#c6_5)" preserveAspectRatio="none" x="879" y="199" width="237" height="386" xlink:href="img/7.png"/>
<image clip-path="url(#c7_5)" preserveAspectRatio="none" x="902" y="222" width="191" height="340" xlink:href="img/8.jpg"/>
</svg>