<?xml version="1.0" encoding="UTF-8" standalone="no"?>
<!DOCTYPE svg PUBLIC "-//W3C//DTD SVG 1.1//EN"
"http://www.w3.org/Graphics/SVG/1.1/DTD/svg11.dtd">
<svg viewBox="0 0 1286 909" version="1.1" xmlns="http://www.w3.org/2000/svg" xmlns:xlink="http://www.w3.org/1999/xlink">
<defs>
<style type="text/css"><![CDATA[
.g0{
fill: #D9D9D9;
}
.g1{
}
]]></style>
</defs>
<path fill-rule="evenodd" d="M47.8,65.8h348V44H47.8V65.8Z" class="g0"/>
<path fill-rule="evenodd" d="M55.7,63.6H387.9V46.2H55.7V63.6Z" class="g0"/>
<path fill-rule="evenodd" d="M396.7,65.8H941.4V44H396.7V65.8Z" class="g0"/>
<path fill-rule="evenodd" d="M404.4,63.6H933.5V46.2H404.4V63.6Z" class="g0"/>
<path fill-rule="evenodd" d="M942.1,65.8h296.1V44H942.1V65.8Z" class="g0"/>
<path fill-rule="evenodd" d="M950,63.6h280.4V46.2H950V63.6Z" class="g0"/>
<path d="M47.1,44h.7v-.7h-.7V44Z" class="g1"/>
<path d="M47.1,44h.7v-.7h-.7V44Z" class="g1"/>
<path d="M47.8,44h348v-.7H47.8V44Z" class="g1"/>
<path d="M395.8,44h.7v-.7h-.7V44Z" class="g1"/>
<path d="M396.5,44H941.4v-.7H396.5V44Z" class="g1"/>
<path d="M941.4,44h.7v-.7h-.7V44Z" class="g1"/>
<path d="M942.1,44h296.1v-.7H942.1V44Z" class="g1"/>
<path d="M1238.2,44h.8v-.7h-.8V44Z" class="g1"/>
<path d="M1238.2,44h.8v-.7h-.8V44Z" class="g1"/>
<path d="M47.1,65.8h.7V44h-.7V65.8Z" class="g1"/>
<path d="M395.8,65.8h.7V44h-.7V65.8Z" class="g1"/>
<path d="M941.4,65.8h.7V44h-.7V65.8Z" class="g1"/>
<path d="M1238.2,65.8h.8V44h-.8V65.8Z" class="g1"/>
<path d="M47.1,66.5h.7v-.7h-.7v.7Z" class="g1"/>
<path d="M47.8,66.5h348v-.7H47.8v.7Z" class="g1"/>
<path d="M395.8,66.5h.7v-.7h-.7v.7Z" class="g1"/>
<path d="M396.5,66.5H941.4v-.7H396.5v.7Z" class="g1"/>
<path d="M941.4,66.5h.7v-.7h-.7v.7Z" class="g1"/>
<path d="M942.1,66.5h296.1v-.7H942.1v.7Z" class="g1"/>
<path d="M1238.2,66.5h.8v-.7h-.8v.7Z" class="g1"/>
<path d="M47.1,88.2h.7V66.5h-.7V88.2Z" class="g1"/>
<path d="M395.8,88.2h.7V66.5h-.7V88.2Z" class="g1"/>
<path d="M941.4,88.2h.7V66.5h-.7V88.2Z" class="g1"/>
<path d="M1238.2,88.2h.8V66.5h-.8V88.2Z" class="g1"/>
<path d="M47.1,88.9h.7v-.7h-.7v.7Z" class="g1"/>
<path d="M47.8,88.9h348v-.7H47.8v.7Z" class="g1"/>
<path d="M395.8,88.9h.7v-.7h-.7v.7Z" class="g1"/>
<path d="M396.5,88.9H941.4v-.7H396.5v.7Z" class="g1"/>
<path d="M941.4,88.9h.7v-.7h-.7v.7Z" class="g1"/>
<path d="M942.1,88.9h296.1v-.7H942.1v.7Z" class="g1"/>
<path d="M1238.2,88.9h.8v-.7h-.8v.7Z" class="g1"/>
<path d="M47.1,110.7h.7V88.9h-.7v21.8Z" class="g1"/>
<path d="M395.8,110.7h.7V88.9h-.7v21.8Z" class="g1"/>
<path d="M941.4,110.7h.7V88.9h-.7v21.8Z" class="g1"/>
<path d="M1238.2,110.7h.8V88.9h-.8v21.8Z" class="g1"/>
<path d="M47.1,111.5h.7v-.8h-.7v.8Z" class="g1"/>
<path d="M47.8,111.5h348v-.8H47.8v.8Z" class="g1"/>
<path d="M395.8,111.5h.7v-.8h-.7v.8Z" class="g1"/>
<path d="M396.5,111.5H941.4v-.8H396.5v.8Z" class="g1"/>
<path d="M941.4,111.5h.7v-.8h-.7v.8Z" class="g1"/>
<path d="M942.1,111.5h296.1v-.8H942.1v.8Z" class="g1"/>
<path d="M1238.2,111.5h.8v-.8h-.8v.8Z" class="g1"/>
<path d="M47.1,133.1h.7V111.5h-.7v21.6Z" class="g1"/>
<path d="M395.8,133.1h.7V111.5h-.7v21.6Z" class="g1"/>
<path d="M941.4,133.1h.7V111.5h-.7v21.6Z" class="g1"/>
<path d="M1238.2,133.1h.8V111.5h-.8v21.6Z" class="g1"/>
<path d="M47.1,133.8h.7v-.7h-.7v.7Z" class="g1"/>
<path d="M47.8,133.8h348v-.7H47.8v.7Z" class="g1"/>
<path d="M395.8,133.8h.7v-.7h-.7v.7Z" class="g1"/>
<path d="M396.5,133.8H941.4v-.7H396.5v.7Z" class="g1"/>
<path d="M941.4,133.8h.7v-.7h-.7v.7Z" class="g1"/>
<path d="M942.1,133.8h296.1v-.7H942.1v.7Z" class="g1"/>
<path d="M1238.2,133.8h.8v-.7h-.8v.7Z" class="g1"/>
<path d="M47.1,155.7h.7V133.8h-.7v21.9Z" class="g1"/>
<path d="M395.8,155.7h.7V133.8h-.7v21.9Z" class="g1"/>
<path d="M941.4,155.7h.7V133.8h-.7v21.9Z" class="g1"/>
<path d="M1238.2,155.7h.8V133.8h-.8v21.9Z" class="g1"/>
<path d="M47.1,156.4h.7v-.8h-.7v.8Z" class="g1"/>
<path d="M47.8,156.4h348v-.8H47.8v.8Z" class="g1"/>
<path d="M395.8,156.4h.7v-.8h-.7v.8Z" class="g1"/>
<path d="M396.5,156.4H941.4v-.8H396.5v.8Z" class="g1"/>
<path d="M941.4,156.4h.7v-.8h-.7v.8Z" class="g1"/>
<path d="M942.1,156.4h296.1v-.8H942.1v.8Z" class="g1"/>
<path d="M1238.2,156.4h.8v-.8h-.8v.8Z" class="g1"/>
<path d="M47.1,178h.7V156.4h-.7V178Z" class="g1"/>
<path d="M395.8,178h.7V156.4h-.7V178Z" class="g1"/>
<path d="M941.4,178h.7V156.4h-.7V178Z" class="g1"/>
<path d="M1238.2,178h.8V156.4h-.8V178Z" class="g1"/>
<path d="M47.1,178.8h.7V178h-.7v.8Z" class="g1"/>
<path d="M47.8,178.8h348V178H47.8v.8Z" class="g1"/>
<path d="M395.8,178.8h.7V178h-.7v.8Z" class="g1"/>
<path d="M396.5,178.8H941.4V178H396.5v.8Z" class="g1"/>
<path d="M941.4,178.8h.7V178h-.7v.8Z" class="g1"/>
<path d="M942.1,178.8h296.1V178H942.1v.8Z" class="g1"/>
<path d="M1238.2,178.8h.8V178h-.8v.8Z" class="g1"/>
<path d="M47.1,200.6h.7V178.8h-.7v21.8Z" class="g1"/>
<path d="M395.8,200.6h.7V178.8h-.7v21.8Z" class="g1"/>
<path d="M941.4,200.6h.7V178.8h-.7v21.8Z" class="g1"/>
<path d="M1238.2,200.6h.8V178.8h-.8v21.8Z" class="g1"/>
<path d="M47.1,201.3h.7v-.7h-.7v.7Z" class="g1"/>
<path d="M47.8,201.3h348v-.7H47.8v.7Z" class="g1"/>
<path d="M395.8,201.3h.7v-.7h-.7v.7Z" class="g1"/>
<path d="M396.5,201.3H941.4v-.7H396.5v.7Z" class="g1"/>
<path d="M941.4,201.3h.7v-.7h-.7v.7Z" class="g1"/>
<path d="M942.1,201.3h296.1v-.7H942.1v.7Z" class="g1"/>
<path d="M1238.2,201.3h.8v-.7h-.8v.7Z" class="g1"/>
<path d="M47.1,222.9h.7V201.3h-.7v21.6Z" class="g1"/>
<path d="M395.8,222.9h.7V201.3h-.7v21.6Z" class="g1"/>
<path d="M941.4,222.9h.7V201.3h-.7v21.6Z" class="g1"/>
<path d="M1238.2,222.9h.8V201.3h-.8v21.6Z" class="g1"/>
<path d="M47.1,223.7h.7v-.8h-.7v.8Z" class="g1"/>
<path d="M47.8,223.7h348v-.8H47.8v.8Z" class="g1"/>
<path d="M395.8,223.7h.7v-.8h-.7v.8Z" class="g1"/>
<path d="M396.5,223.7H941.4v-.8H396.5v.8Z" class="g1"/>
<path d="M941.4,223.7h.7v-.8h-.7v.8Z" class="g1"/>
<path d="M942.1,223.7h296.1v-.8H942.1v.8Z" class="g1"/>
<path d="M1238.2,223.7h.8v-.8h-.8v.8Z" class="g1"/>
<path d="M47.1,245.5h.7V223.7h-.7v21.8Z" class="g1"/>
<path d="M395.8,245.5h.7V223.7h-.7v21.8Z" class="g1"/>
<path d="M941.4,245.5h.7V223.7h-.7v21.8Z" class="g1"/>
<path d="M1238.2,245.5h.8V223.7h-.8v21.8Z" class="g1"/>
<path d="M47.1,246.2h.7v-.7h-.7v.7Z" class="g1"/>
<path d="M47.8,246.2h348v-.7H47.8v.7Z" class="g1"/>
<path d="M395.8,246.2h.7v-.7h-.7v.7Z" class="g1"/>
<path d="M396.5,246.2H941.4v-.7H396.5v.7Z" class="g1"/>
<path d="M941.4,246.2h.7v-.7h-.7v.7Z" class="g1"/>
<path d="M942.1,246.2h296.1v-.7H942.1v.7Z" class="g1"/>
<path d="M1238.2,246.2h.8v-.7h-.8v.7Z" class="g1"/>
<path d="M47.1,267.9h.7V246.2h-.7v21.7Z" class="g1"/>
<path d="M395.8,267.9h.7V246.2h-.7v21.7Z" class="g1"/>
<path d="M941.4,267.9h.7V246.2h-.7v21.7Z" class="g1"/>
<path d="M1238.2,267.9h.8V246.2h-.8v21.7Z" class="g1"/>
<path d="M47.1,268.6h.7v-.8h-.7v.8Z" class="g1"/>
<path d="M47.8,268.6h348v-.8H47.8v.8Z" class="g1"/>
<path d="M395.8,268.6h.7v-.8h-.7v.8Z" class="g1"/>
<path d="M396.5,268.6H941.4v-.8H396.5v.8Z" class="g1"/>
<path d="M941.4,268.6h.7v-.8h-.7v.8Z" class="g1"/>
<path d="M942.1,268.6h296.1v-.8H942.1v.8Z" class="g1"/>
<path d="M1238.2,268.6h.8v-.8h-.8v.8Z" class="g1"/>
<path d="M47.1,290.4h.7V268.6h-.7v21.8Z" class="g1"/>
<path d="M395.8,290.4h.7V268.6h-.7v21.8Z" class="g1"/>
<path d="M941.4,290.4h.7V268.6h-.7v21.8Z" class="g1"/>
<path d="M1238.2,290.4h.8V268.6h-.8v21.8Z" class="g1"/>
<path d="M47.1,291.1h.7v-.7h-.7v.7Z" class="g1"/>
<path d="M47.8,291.1h348v-.7H47.8v.7Z" class="g1"/>
<path d="M395.8,291.1h.7v-.7h-.7v.7Z" class="g1"/>
<path d="M396.5,291.1H941.4v-.7H396.5v.7Z" class="g1"/>
<path d="M941.4,291.1h.7v-.7h-.7v.7Z" class="g1"/>
<path d="M942.1,291.1h296.1v-.7H942.1v.7Z" class="g1"/>
<path d="M1238.2,291.1h.8v-.7h-.8v.7Z" class="g1"/>
<path d="M47.1,312.8h.7V291.1h-.7v21.7Z" class="g1"/>
<path d="M395.8,312.8h.7V291.1h-.7v21.7Z" class="g1"/>
<path d="M941.4,312.8h.7V291.1h-.7v21.7Z" class="g1"/>
<path d="M1238.2,312.8h.8V291.1h-.8v21.7Z" class="g1"/>
<path d="M47.1,313.5h.7v-.7h-.7v.7Z" class="g1"/>
<path d="M47.8,313.5h348v-.7H47.8v.7Z" class="g1"/>
<path d="M395.8,313.5h.7v-.7h-.7v.7Z" class="g1"/>
<path d="M396.5,313.5H941.4v-.7H396.5v.7Z" class="g1"/>
<path d="M941.4,313.5h.7v-.7h-.7v.7Z" class="g1"/>
<path d="M942.1,313.5h296.1v-.7H942.1v.7Z" class="g1"/>
<path d="M1238.2,313.5h.8v-.7h-.8v.7Z" class="g1"/>
<path d="M47.1,335.3h.7V313.5h-.7v21.8Z" class="g1"/>
<path d="M395.8,335.3h.7V313.5h-.7v21.8Z" class="g1"/>
<path d="M941.4,335.3h.7V313.5h-.7v21.8Z" class="g1"/>
<path d="M1238.2,335.3h.8V313.5h-.8v21.8Z" class="g1"/>
<path d="M47.1,336.1h.7v-.8h-.7v.8Z" class="g1"/>
<path d="M47.8,336.1h348v-.8H47.8v.8Z" class="g1"/>
<path d="M395.8,336.1h.7v-.8h-.7v.8Z" class="g1"/>
<path d="M396.5,336.1H941.4v-.8H396.5v.8Z" class="g1"/>
<path d="M941.4,336.1h.7v-.8h-.7v.8Z" class="g1"/>
<path d="M942.1,336.1h296.1v-.8H942.1v.8Z" class="g1"/>
<path d="M1238.2,336.1h.8v-.8h-.8v.8Z" class="g1"/>
<path d="M47.1,357.7h.7V336h-.7v21.7Z" class="g1"/>
<path d="M395.8,357.7h.7V336h-.7v21.7Z" class="g1"/>
<path d="M941.4,357.7h.7V336h-.7v21.7Z" class="g1"/>
<path d="M1238.2,357.7h.8V336h-.8v21.7Z" class="g1"/>
<path d="M47.1,358.4h.7v-.7h-.7v.7Z" class="g1"/>
<path d="M47.8,358.4h348v-.7H47.8v.7Z" class="g1"/>
<path d="M395.8,358.4h.7v-.7h-.7v.7Z" class="g1"/>
<path d="M396.5,358.4H941.4v-.7H396.5v.7Z" class="g1"/>
<path d="M941.4,358.4h.7v-.7h-.7v.7Z" class="g1"/>
<path d="M942.1,358.4h296.1v-.7H942.1v.7Z" class="g1"/>
<path d="M1238.2,358.4h.8v-.7h-.8v.7Z" class="g1"/>
<path d="M47.1,380.2h.7V358.4h-.7v21.8Z" class="g1"/>
<path d="M395.8,380.2h.7V358.4h-.7v21.8Z" class="g1"/>
<path d="M941.4,380.2h.7V358.4h-.7v21.8Z" class="g1"/>
<path d="M1238.2,380.2h.8V358.4h-.8v21.8Z" class="g1"/>
<path d="M47.1,381h.7v-.8h-.7v.8Z" class="g1"/>
<path d="M47.8,381h348v-.8H47.8v.8Z" class="g1"/>
<path d="M395.8,381h.7v-.8h-.7v.8Z" class="g1"/>
<path d="M396.5,381H941.4v-.8H396.5v.8Z" class="g1"/>
<path d="M941.4,381h.7v-.8h-.7v.8Z" class="g1"/>
<path d="M942.1,381h296.1v-.8H942.1v.8Z" class="g1"/>
<path d="M1238.2,381h.8v-.8h-.8v.8Z" class="g1"/>
<path d="M47.1,402.6h.7V381h-.7v21.6Z" class="g1"/>
<path d="M395.8,402.6h.7V381h-.7v21.6Z" class="g1"/>
<path d="M941.4,402.6h.7V381h-.7v21.6Z" class="g1"/>
<path d="M1238.2,402.6h.8V381h-.8v21.6Z" class="g1"/>
<path d="M47.1,403.3h.7v-.7h-.7v.7Z" class="g1"/>
<path d="M47.8,403.3h348v-.7H47.8v.7Z" class="g1"/>
<path d="M395.8,403.3h.7v-.7h-.7v.7Z" class="g1"/>
<path d="M396.5,403.3H941.4v-.7H396.5v.7Z" class="g1"/>
<path d="M941.4,403.3h.7v-.7h-.7v.7Z" class="g1"/>
<path d="M942.1,403.3h296.1v-.7H942.1v.7Z" class="g1"/>
<path d="M1238.2,403.3h.8v-.7h-.8v.7Z" class="g1"/>
<path d="M47.1,425.2h.7V403.3h-.7v21.9Z" class="g1"/>
<path d="M395.8,425.2h.7V403.3h-.7v21.9Z" class="g1"/>
<path d="M941.4,425.2h.7V403.3h-.7v21.9Z" class="g1"/>
<path d="M1238.2,425.2h.8V403.3h-.8v21.9Z" class="g1"/>
<path d="M47.1,425.9h.7v-.8h-.7v.8Z" class="g1"/>
<path d="M47.8,425.9h348v-.8H47.8v.8Z" class="g1"/>
<path d="M395.8,425.9h.7v-.8h-.7v.8Z" class="g1"/>
<path d="M396.5,425.9H941.4v-.8H396.5v.8Z" class="g1"/>
<path d="M941.4,425.9h.7v-.8h-.7v.8Z" class="g1"/>
<path d="M942.1,425.9h296.1v-.8H942.1v.8Z" class="g1"/>
<path d="M1238.2,425.9h.8v-.8h-.8v.8Z" class="g1"/>
<path d="M47.1,447.5h.7V425.9h-.7v21.6Z" class="g1"/>
<path d="M395.8,447.5h.7V425.9h-.7v21.6Z" class="g1"/>
<path d="M941.4,447.5h.7V425.9h-.7v21.6Z" class="g1"/>
<path d="M1238.2,447.5h.8V425.9h-.8v21.6Z" class="g1"/>
<path d="M47.1,448.2h.7v-.7h-.7v.7Z" class="g1"/>
<path d="M47.8,448.2h348v-.7H47.8v.7Z" class="g1"/>
<path d="M395.8,448.2h.7v-.7h-.7v.7Z" class="g1"/>
<path d="M396.5,448.2H941.4v-.7H396.5v.7Z" class="g1"/>
<path d="M941.4,448.2h.7v-.7h-.7v.7Z" class="g1"/>
<path d="M942.1,448.2h296.1v-.7H942.1v.7Z" class="g1"/>
<path d="M1238.2,448.2h.8v-.7h-.8v.7Z" class="g1"/>
<path d="M47.1,470.1h.7V448.2h-.7v21.9Z" class="g1"/>
<path d="M395.8,470.1h.7V448.2h-.7v21.9Z" class="g1"/>
<path d="M941.4,470.1h.7V448.2h-.7v21.9Z" class="g1"/>
<path d="M1238.2,470.1h.8V448.2h-.8v21.9Z" class="g1"/>
<path d="M47.1,470.8h.7v-.7h-.7v.7Z" class="g1"/>
<path d="M47.8,470.8h348v-.7H47.8v.7Z" class="g1"/>
<path d="M395.8,470.8h.7v-.7h-.7v.7Z" class="g1"/>
<path d="M396.5,470.8H941.4v-.7H396.5v.7Z" class="g1"/>
<path d="M941.4,470.8h.7v-.7h-.7v.7Z" class="g1"/>
<path d="M942.1,470.8h296.1v-.7H942.1v.7Z" class="g1"/>
<path d="M1238.2,470.8h.8v-.7h-.8v.7Z" class="g1"/>
<path d="M47.1,492.4h.7V470.8h-.7v21.6Z" class="g1"/>
<path d="M395.8,492.4h.7V470.8h-.7v21.6Z" class="g1"/>
<path d="M941.4,492.4h.7V470.8h-.7v21.6Z" class="g1"/>
<path d="M1238.2,492.4h.8V470.8h-.8v21.6Z" class="g1"/>
<path d="M47.1,493.2h.7v-.8h-.7v.8Z" class="g1"/>
<path d="M47.8,493.2h348v-.8H47.8v.8Z" class="g1"/>
<path d="M395.8,493.2h.7v-.8h-.7v.8Z" class="g1"/>
<path d="M396.5,493.2H941.4v-.8H396.5v.8Z" class="g1"/>
<path d="M941.4,493.2h.7v-.8h-.7v.8Z" class="g1"/>
<path d="M942.1,493.2h296.1v-.8H942.1v.8Z" class="g1"/>
<path d="M1238.2,493.2h.8v-.8h-.8v.8Z" class="g1"/>
<path d="M47.1,515h.7V493.2h-.7V515Z" class="g1"/>
<path d="M395.8,515h.7V493.2h-.7V515Z" class="g1"/>
<path d="M941.4,515h.7V493.2h-.7V515Z" class="g1"/>
<path d="M1238.2,515h.8V493.2h-.8V515Z" class="g1"/>
<path d="M47.1,515.7h.7V515h-.7v.7Z" class="g1"/>
<path d="M47.8,515.7h348V515H47.8v.7Z" class="g1"/>
<path d="M395.8,515.7h.7V515h-.7v.7Z" class="g1"/>
<path d="M396.5,515.7H941.4V515H396.5v.7Z" class="g1"/>
<path d="M941.4,515.7h.7V515h-.7v.7Z" class="g1"/>
<path d="M942.1,515.7h296.1V515H942.1v.7Z" class="g1"/>
<path d="M1238.2,515.7h.8V515h-.8v.7Z" class="g1"/>
<path d="M47.1,537.4h.7V515.7h-.7v21.7Z" class="g1"/>
<path d="M395.8,537.4h.7V515.7h-.7v21.7Z" class="g1"/>
<path d="M941.4,537.4h.7V515.7h-.7v21.7Z" class="g1"/>
<path d="M1238.2,537.4h.8V515.7h-.8v21.7Z" class="g1"/>
<path d="M47.1,538.1h.7v-.8h-.7v.8Z" class="g1"/>
<path d="M47.8,538.1h348v-.8H47.8v.8Z" class="g1"/>
<path d="M395.8,538.1h.7v-.8h-.7v.8Z" class="g1"/>
<path d="M396.5,538.1H941.4v-.8H396.5v.8Z" class="g1"/>
<path d="M941.4,538.1h.7v-.8h-.7v.8Z" class="g1"/>
<path d="M942.1,538.1h296.1v-.8H942.1v.8Z" class="g1"/>
<path d="M1238.2,538.1h.8v-.8h-.8v.8Z" class="g1"/>
<path d="M47.1,559.9h.7V538.1h-.7v21.8Z" class="g1"/>
<path d="M395.8,559.9h.7V538.1h-.7v21.8Z" class="g1"/>
<path d="M941.4,559.9h.7V538.1h-.7v21.8Z" class="g1"/>
<path d="M1238.2,559.9h.8V538.1h-.8v21.8Z" class="g1"/>
<path d="M47.1,560.6h.7v-.7h-.7v.7Z" class="g1"/>
<path d="M47.8,560.6h348v-.7H47.8v.7Z" class="g1"/>
<path d="M395.8,560.6h.7v-.7h-.7v.7Z" class="g1"/>
<path d="M396.5,560.6H941.4v-.7H396.5v.7Z" class="g1"/>
<path d="M941.4,560.6h.7v-.7h-.7v.7Z" class="g1"/>
<path d="M942.1,560.6h296.1v-.7H942.1v.7Z" class="g1"/>
<path d="M1238.2,560.6h.8v-.7h-.8v.7Z" class="g1"/>
<path d="M47.1,582.3h.7V560.6h-.7v21.7Z" class="g1"/>
<path d="M395.8,582.3h.7V560.6h-.7v21.7Z" class="g1"/>
<path d="M941.4,582.3h.7V560.6h-.7v21.7Z" class="g1"/>
<path d="M1238.2,582.3h.8V560.6h-.8v21.7Z" class="g1"/>
<path d="M47.1,583h.7v-.7h-.7v.7Z" class="g1"/>
<path d="M47.8,583h348v-.7H47.8v.7Z" class="g1"/>
<path d="M395.8,583h.7v-.7h-.7v.7Z" class="g1"/>
<path d="M396.5,583H941.4v-.7H396.5v.7Z" class="g1"/>
<path d="M941.4,583h.7v-.7h-.7v.7Z" class="g1"/>
<path d="M942.1,583h296.1v-.7H942.1v.7Z" class="g1"/>
<path d="M1238.2,583h.8v-.7h-.8v.7Z" class="g1"/>
<path d="M47.1,604.8h.7V583h-.7v21.8Z" class="g1"/>
<path d="M395.8,604.8h.7V583h-.7v21.8Z" class="g1"/>
<path d="M941.4,604.8h.7V583h-.7v21.8Z" class="g1"/>
<path d="M1238.2,604.8h.8V583h-.8v21.8Z" class="g1"/>
<path d="M47.1,605.6h.7v-.8h-.7v.8Z" class="g1"/>
<path d="M47.8,605.6h348v-.8H47.8v.8Z" class="g1"/>
<path d="M395.8,605.6h.7v-.8h-.7v.8Z" class="g1"/>
<path d="M396.5,605.6H941.4v-.8H396.5v.8Z" class="g1"/>
<path d="M941.4,605.6h.7v-.8h-.7v.8Z" class="g1"/>
<path d="M942.1,605.6h296.1v-.8H942.1v.8Z" class="g1"/>
<path d="M1238.2,605.6h.8v-.8h-.8v.8Z" class="g1"/>
<path d="M47.1,627.2h.7V605.5h-.7v21.7Z" class="g1"/>
<path d="M395.8,627.2h.7V605.5h-.7v21.7Z" class="g1"/>
<path d="M941.4,627.2h.7V605.5h-.7v21.7Z" class="g1"/>
<path d="M1238.2,627.2h.8V605.5h-.8v21.7Z" class="g1"/>
<path d="M47.1,627.9h.7v-.7h-.7v.7Z" class="g1"/>
<path d="M47.8,627.9h348v-.7H47.8v.7Z" class="g1"/>
<path d="M395.8,627.9h.7v-.7h-.7v.7Z" class="g1"/>
<path d="M396.5,627.9H941.4v-.7H396.5v.7Z" class="g1"/>
<path d="M941.4,627.9h.7v-.7h-.7v.7Z" class="g1"/>
<path d="M942.1,627.9h296.1v-.7H942.1v.7Z" class="g1"/>
<path d="M1238.2,627.9h.8v-.7h-.8v.7Z" class="g1"/>
<path d="M47.1,649.7h.7V627.9h-.7v21.8Z" class="g1"/>
<path d="M395.8,649.7h.7V627.9h-.7v21.8Z" class="g1"/>
<path d="M941.4,649.7h.7V627.9h-.7v21.8Z" class="g1"/>
<path d="M1238.2,649.7h.8V627.9h-.8v21.8Z" class="g1"/>
<path d="M47.1,650.5h.7v-.8h-.7v.8Z" class="g1"/>
<path d="M47.8,650.5h348v-.8H47.8v.8Z" class="g1"/>
<path d="M395.8,650.5h.7v-.8h-.7v.8Z" class="g1"/>
<path d="M396.5,650.5H941.4v-.8H396.5v.8Z" class="g1"/>
<path d="M941.4,650.5h.7v-.8h-.7v.8Z" class="g1"/>
<path d="M942.1,650.5h296.1v-.8H942.1v.8Z" class="g1"/>
<path d="M1238.2,650.5h.8v-.8h-.8v.8Z" class="g1"/>
<path d="M47.1,672.1h.7V650.5h-.7v21.6Z" class="g1"/>
<path d="M395.8,672.1h.7V650.5h-.7v21.6Z" class="g1"/>
<path d="M941.4,672.1h.7V650.5h-.7v21.6Z" class="g1"/>
<path d="M1238.2,672.1h.8V650.5h-.8v21.6Z" class="g1"/>
<path d="M47.1,672.8h.7v-.7h-.7v.7Z" class="g1"/>
<path d="M47.8,672.8h348v-.7H47.8v.7Z" class="g1"/>
<path d="M395.8,672.8h.7v-.7h-.7v.7Z" class="g1"/>
<path d="M396.5,672.8H941.4v-.7H396.5v.7Z" class="g1"/>
<path d="M941.4,672.8h.7v-.7h-.7v.7Z" class="g1"/>
<path d="M942.1,672.8h296.1v-.7H942.1v.7Z" class="g1"/>
<path d="M1238.2,672.8h.8v-.7h-.8v.7Z" class="g1"/>
<path d="M47.1,694.7h.7V672.8h-.7v21.9Z" class="g1"/>
<path d="M395.8,694.7h.7V672.8h-.7v21.9Z" class="g1"/>
<path d="M941.4,694.7h.7V672.8h-.7v21.9Z" class="g1"/>
<path d="M1238.2,694.7h.8V672.8h-.8v21.9Z" class="g1"/>
<path d="M47.1,695.4h.7v-.8h-.7v.8Z" class="g1"/>
<path d="M47.8,695.4h348v-.8H47.8v.8Z" class="g1"/>
<path d="M395.8,695.4h.7v-.8h-.7v.8Z" class="g1"/>
<path d="M396.5,695.4H941.4v-.8H396.5v.8Z" class="g1"/>
<path d="M941.4,695.4h.7v-.8h-.7v.8Z" class="g1"/>
<path d="M942.1,695.4h296.1v-.8H942.1v.8Z" class="g1"/>
<path d="M1238.2,695.4h.8v-.8h-.8v.8Z" class="g1"/>
<path d="M47.1,717h.7V695.4h-.7V717Z" class="g1"/>
<path d="M395.8,717h.7V695.4h-.7V717Z" class="g1"/>
<path d="M941.4,717h.7V695.4h-.7V717Z" class="g1"/>
<path d="M1238.2,717h.8V695.4h-.8V717Z" class="g1"/>
<path d="M47.1,717.8h.7V717h-.7v.8Z" class="g1"/>
<path d="M47.8,717.8h348V717H47.8v.8Z" class="g1"/>
<path d="M395.8,717.8h.7V717h-.7v.8Z" class="g1"/>
<path d="M396.5,717.8H941.4V717H396.5v.8Z" class="g1"/>
<path d="M941.4,717.8h.7V717h-.7v.8Z" class="g1"/>
<path d="M942.1,717.8h296.1V717H942.1v.8Z" class="g1"/>
<path d="M1238.2,717.8h.8V717h-.8v.8Z" class="g1"/>
<path d="M47.1,739.6h.7V717.8h-.7v21.8Z" class="g1"/>
<path d="M395.8,739.6h.7V717.8h-.7v21.8Z" class="g1"/>
<path d="M941.4,739.6h.7V717.8h-.7v21.8Z" class="g1"/>
<path d="M1238.2,739.6h.8V717.8h-.8v21.8Z" class="g1"/>
<path d="M47.1,740.3h.7v-.7h-.7v.7Z" class="g1"/>
<path d="M47.8,740.3h348v-.7H47.8v.7Z" class="g1"/>
<path d="M395.8,740.3h.7v-.7h-.7v.7Z" class="g1"/>
<path d="M396.5,740.3H941.4v-.7H396.5v.7Z" class="g1"/>
<path d="M941.4,740.3h.7v-.7h-.7v.7Z" class="g1"/>
<path d="M942.1,740.3h296.1v-.7H942.1v.7Z" class="g1"/>
<path d="M1238.2,740.3h.8v-.7h-.8v.7Z" class="g1"/>
<path d="M47.1,761.9h.7V740.3h-.7v21.6Z" class="g1"/>
<path d="M395.8,761.9h.7V740.3h-.7v21.6Z" class="g1"/>
<path d="M941.4,761.9h.7V740.3h-.7v21.6Z" class="g1"/>
<path d="M1238.2,761.9h.8V740.3h-.8v21.6Z" class="g1"/>
<path d="M47.1,762.7h.7v-.8h-.7v.8Z" class="g1"/>
<path d="M47.8,762.7h348v-.8H47.8v.8Z" class="g1"/>
<path d="M395.8,762.7h.7v-.8h-.7v.8Z" class="g1"/>
<path d="M396.5,762.7H941.4v-.8H396.5v.8Z" class="g1"/>
<path d="M941.4,762.7h.7v-.8h-.7v.8Z" class="g1"/>
<path d="M942.1,762.7h296.1v-.8H942.1v.8Z" class="g1"/>
<path d="M1238.2,762.7h.8v-.8h-.8v.8Z" class="g1"/>
<path d="M47.1,784.5h.7V762.7h-.7v21.8Z" class="g1"/>
<path d="M47.1,785.2h.7v-.7h-.7v.7Z" class="g1"/>
<path d="M47.1,785.2h.7v-.7h-.7v.7Z" class="g1"/>
<path d="M47.8,785.2h348v-.7H47.8v.7Z" class="g1"/>
<path d="M395.8,784.5h.7V762.7h-.7v21.8Z" class="g1"/>
<path d="M395.8,785.2h.7v-.7h-.7v.7Z" class="g1"/>
<path d="M396.5,785.2H941.4v-.7H396.5v.7Z" class="g1"/>
<path d="M941.4,784.5h.7V762.7h-.7v21.8Z" class="g1"/>
<path d="M941.4,785.2h.7v-.7h-.7v.7Z" class="g1"/>
<path d="M942.1,785.2h296.1v-.7H942.1v.7Z" class="g1"/>
<path d="M1238.2,784.5h.8V762.7h-.8v21.8Z" class="g1"/>
<path d="M1238.2,785.2h.8v-.7h-.8v.7Z" class="g1"/>
<path d="M1238.2,785.2h.8v-.7h-.8v.7Z" class="g1"/>
</svg>