<?xml version="1.0" encoding="UTF-8" standalone="no"?>
<!DOCTYPE svg PUBLIC "-//W3C//DTD SVG 1.1//EN"
"http://www.w3.org/Graphics/SVG/1.1/DTD/svg11.dtd">
<svg viewBox="0 0 1286 909" version="1.1" xmlns="http://www.w3.org/2000/svg" xmlns:xlink="http://www.w3.org/1999/xlink">
<defs>
<style type="text/css"><![CDATA[
.g0{
fill: #D9D9D9;
}
.g1{
}
]]></style>
</defs>
<path fill-rule="evenodd" d="M47.8,156.6H147V134.9H47.8v21.7Z" class="g0"/>
<path fill-rule="evenodd" d="M55.7,154.6h83.5V137H55.7v17.6Z" class="g0"/>
<path fill-rule="evenodd" d="M147.8,156.6H371.6V134.9H147.8v21.7Z" class="g0"/>
<path fill-rule="evenodd" d="M155.6,154.6H363.7V137H155.6v17.6Z" class="g0"/>
<path fill-rule="evenodd" d="M372.4,156.6H955V134.9H372.4v21.7Z" class="g0"/>
<path fill-rule="evenodd" d="M380.2,154.6H947.1V137H380.2v17.6Z" class="g0"/>
<path fill-rule="evenodd" d="M955.7,156.6h282.5V134.9H955.7v21.7Z" class="g0"/>
<path fill-rule="evenodd" d="M963.6,154.6h266.7V137H963.6v17.6Z" class="g0"/>
<path d="M47.1,134.9h.7v-.7h-.7v.7Z" class="g1"/>
<path d="M47.1,134.9h.7v-.7h-.7v.7Z" class="g1"/>
<path d="M47.8,134.9H147v-.7H47.8v.7Z" class="g1"/>
<path d="M147,134.9h.8v-.7H147v.7Z" class="g1"/>
<path d="M147.8,134.9H371.6v-.7H147.8v.7Z" class="g1"/>
<path d="M371.6,134.9h.8v-.7h-.8v.7Z" class="g1"/>
<path d="M372.4,134.9H955v-.7H372.4v.7Z" class="g1"/>
<path d="M955,134.9h.7v-.7H955v.7Z" class="g1"/>
<path d="M955.7,134.9h282.5v-.7H955.7v.7Z" class="g1"/>
<path d="M1238.2,134.9h.8v-.7h-.8v.7Z" class="g1"/>
<path d="M1238.2,134.9h.8v-.7h-.8v.7Z" class="g1"/>
<path d="M47.1,156.6h.7V134.9h-.7v21.7Z" class="g1"/>
<path d="M147,156.6h.8V134.9H147v21.7Z" class="g1"/>
<path d="M371.6,156.6h.8V134.9h-.8v21.7Z" class="g1"/>
<path d="M955,156.6h.7V134.9H955v21.7Z" class="g1"/>
<path d="M1238.2,156.6h.8V134.9h-.8v21.7Z" class="g1"/>
<path d="M47.1,157.3h.7v-.7h-.7v.7Z" class="g1"/>
<path d="M47.8,157.3H147v-.7H47.8v.7Z" class="g1"/>
<path d="M147,157.3h.8v-.7H147v.7Z" class="g1"/>
<path d="M147.8,157.3H371.6v-.7H147.8v.7Z" class="g1"/>
<path d="M371.6,157.3h.8v-.7h-.8v.7Z" class="g1"/>
<path d="M372.4,157.3H955v-.7H372.4v.7Z" class="g1"/>
<path d="M955,157.3h.7v-.7H955v.7Z" class="g1"/>
<path d="M955.7,157.3h68.8v-.7H955.7v.7Z" class="g1"/>
<path d="M1024.5,157.3h.7v-.7h-.7v.7Z" class="g1"/>
<path d="M1025.2,157.3h161v-.7h-161v.7Z" class="g1"/>
<path d="M1186.2,157.3h.7v-.7h-.7v.7Z" class="g1"/>
<path d="M1186.9,157.3h51.3v-.7h-51.3v.7Z" class="g1"/>
<path d="M1238.2,157.3h.8v-.7h-.8v.7Z" class="g1"/>
<path d="M47.1,179.1h.7V157.3h-.7v21.8Z" class="g1"/>
<path d="M147,179.1h.8V157.3H147v21.8Z" class="g1"/>
<path d="M371.6,179.1h.8V157.3h-.8v21.8Z" class="g1"/>
<path d="M955,179.1h.7V157.3H955v21.8Z" class="g1"/>
<path d="M1024.5,179.1h.7V157.3h-.7v21.8Z" class="g1"/>
<path d="M1186.2,179.1h.7V157.3h-.7v21.8Z" class="g1"/>
<path d="M1238.2,179.1h.8V157.3h-.8v21.8Z" class="g1"/>
<path d="M47.1,179.9h.7v-.8h-.7v.8Z" class="g1"/>
<path d="M147,179.9h.8v-.8H147v.8Z" class="g1"/>
<path d="M371.6,179.9h.8v-.8h-.8v.8Z" class="g1"/>
<path d="M955,179.9h.7v-.8H955v.8Z" class="g1"/>
<path d="M955.7,179.9h68.8v-.8H955.7v.8Z" class="g1"/>
<path d="M1024.5,179.9h.7v-.8h-.7v.8Z" class="g1"/>
<path d="M1025.2,179.9h161v-.8h-161v.8Z" class="g1"/>
<path d="M1186.2,179.9h.7v-.8h-.7v.8Z" class="g1"/>
<path d="M1186.9,179.9h51.3v-.8h-51.3v.8Z" class="g1"/>
<path d="M1238.2,179.9h.8v-.8h-.8v.8Z" class="g1"/>
<path d="M47.1,201.5h.7V179.8h-.7v21.7Z" class="g1"/>
<path d="M147,201.5h.8V179.8H147v21.7Z" class="g1"/>
<path d="M371.6,201.5h.8V179.8h-.8v21.7Z" class="g1"/>
<path d="M955,201.5h.7V179.8H955v21.7Z" class="g1"/>
<path d="M1024.5,201.5h.7V179.8h-.7v21.7Z" class="g1"/>
<path d="M1186.2,201.5h.7V179.8h-.7v21.7Z" class="g1"/>
<path d="M1238.2,201.5h.8V179.8h-.8v21.7Z" class="g1"/>
<path d="M47.1,202.2h.7v-.7h-.7v.7Z" class="g1"/>
<path d="M147,202.2h.8v-.7H147v.7Z" class="g1"/>
<path d="M371.6,202.2h.8v-.7h-.8v.7Z" class="g1"/>
<path d="M955,202.2h.7v-.7H955v.7Z" class="g1"/>
<path d="M955.7,202.2h68.8v-.7H955.7v.7Z" class="g1"/>
<path d="M1024.5,202.2h.7v-.7h-.7v.7Z" class="g1"/>
<path d="M1025.2,202.2h161v-.7h-161v.7Z" class="g1"/>
<path d="M1186.2,202.2h.7v-.7h-.7v.7Z" class="g1"/>
<path d="M1186.9,202.2h51.3v-.7h-51.3v.7Z" class="g1"/>
<path d="M1238.2,202.2h.8v-.7h-.8v.7Z" class="g1"/>
<path d="M47.1,224h.7V202.2h-.7V224Z" class="g1"/>
<path d="M147,224h.8V202.2H147V224Z" class="g1"/>
<path d="M371.6,224h.8V202.2h-.8V224Z" class="g1"/>
<path d="M955,224h.7V202.2H955V224Z" class="g1"/>
<path d="M1024.5,224h.7V202.2h-.7V224Z" class="g1"/>
<path d="M1186.2,224h.7V202.2h-.7V224Z" class="g1"/>
<path d="M1238.2,224h.8V202.2h-.8V224Z" class="g1"/>
<path d="M47.1,224.8h.7V224h-.7v.8Z" class="g1"/>
<path d="M147,224.8h.8V224H147v.8Z" class="g1"/>
<path d="M371.6,224.8h.8V224h-.8v.8Z" class="g1"/>
<path d="M955,224.8h.7V224H955v.8Z" class="g1"/>
<path d="M955.7,224.8h68.8V224H955.7v.8Z" class="g1"/>
<path d="M1024.5,224.8h.7V224h-.7v.8Z" class="g1"/>
<path d="M1025.2,224.8h161V224h-161v.8Z" class="g1"/>
<path d="M1186.2,224.8h.7V224h-.7v.8Z" class="g1"/>
<path d="M1186.9,224.8h51.3V224h-51.3v.8Z" class="g1"/>
<path d="M1238.2,224.8h.8V224h-.8v.8Z" class="g1"/>
<path d="M47.1,246.4h.7V224.8h-.7v21.6Z" class="g1"/>
<path d="M147,246.4h.8V224.8H147v21.6Z" class="g1"/>
<path d="M371.6,246.4h.8V224.8h-.8v21.6Z" class="g1"/>
<path d="M955,246.4h.7V224.8H955v21.6Z" class="g1"/>
<path d="M1024.5,246.4h.7V224.8h-.7v21.6Z" class="g1"/>
<path d="M1186.2,246.4h.7V224.8h-.7v21.6Z" class="g1"/>
<path d="M1238.2,246.4h.8V224.8h-.8v21.6Z" class="g1"/>
<path d="M47.1,247.1h.7v-.7h-.7v.7Z" class="g1"/>
<path d="M47.8,247.1H147v-.7H47.8v.7Z" class="g1"/>
<path d="M147,247.1h.8v-.7H147v.7Z" class="g1"/>
<path d="M147.8,247.1H371.6v-.7H147.8v.7Z" class="g1"/>
<path d="M371.6,247.1h.8v-.7h-.8v.7Z" class="g1"/>
<path d="M372.4,247.1H955v-.7H372.4v.7Z" class="g1"/>
<path d="M955,247.1h.7v-.7H955v.7Z" class="g1"/>
<path d="M955.7,247.1h68.8v-.7H955.7v.7Z" class="g1"/>
<path d="M1024.5,247.1h.7v-.7h-.7v.7Z" class="g1"/>
<path d="M1025.2,247.1h161v-.7h-161v.7Z" class="g1"/>
<path d="M1186.2,247.1h.7v-.7h-.7v.7Z" class="g1"/>
<path d="M1186.9,247.1h51.3v-.7h-51.3v.7Z" class="g1"/>
<path d="M1238.2,247.1h.8v-.7h-.8v.7Z" class="g1"/>
<path d="M47.1,269h.7V247.1h-.7V269Z" class="g1"/>
<path d="M147,269h.8V247.1H147V269Z" class="g1"/>
<path d="M371.6,269h.8V247.1h-.8V269Z" class="g1"/>
<path d="M955,269h.7V247.1H955V269Z" class="g1"/>
<path d="M1024.5,269h.7V247.1h-.7V269Z" class="g1"/>
<path d="M1186.2,269h.7V247.1h-.7V269Z" class="g1"/>
<path d="M1238.2,269h.8V247.1h-.8V269Z" class="g1"/>
<path d="M47.1,269.7h.7v-.8h-.7v.8Z" class="g1"/>
<path d="M147,269.7h.8v-.8H147v.8Z" class="g1"/>
<path d="M371.6,269.7h.8v-.8h-.8v.8Z" class="g1"/>
<path d="M955,269.7h.7v-.8H955v.8Z" class="g1"/>
<path d="M955.7,269.7h68.8v-.8H955.7v.8Z" class="g1"/>
<path d="M1024.5,269.7h.7v-.8h-.7v.8Z" class="g1"/>
<path d="M1025.2,269.7h161v-.8h-161v.8Z" class="g1"/>
<path d="M1186.2,269.7h.7v-.8h-.7v.8Z" class="g1"/>
<path d="M1186.9,269.7h51.3v-.8h-51.3v.8Z" class="g1"/>
<path d="M1238.2,269.7h.8v-.8h-.8v.8Z" class="g1"/>
<path d="M47.1,291.3h.7V269.7h-.7v21.6Z" class="g1"/>
<path d="M147,291.3h.8V269.7H147v21.6Z" class="g1"/>
<path d="M371.6,291.3h.8V269.7h-.8v21.6Z" class="g1"/>
<path d="M955,291.3h.7V269.7H955v21.6Z" class="g1"/>
<path d="M1024.5,291.3h.7V269.7h-.7v21.6Z" class="g1"/>
<path d="M1186.2,291.3h.7V269.7h-.7v21.6Z" class="g1"/>
<path d="M1238.2,291.3h.8V269.7h-.8v21.6Z" class="g1"/>
<path d="M47.1,292.1h.7v-.8h-.7v.8Z" class="g1"/>
<path d="M147,292.1h.8v-.8H147v.8Z" class="g1"/>
<path d="M371.6,292.1h.8v-.8h-.8v.8Z" class="g1"/>
<path d="M955,292.1h.7v-.8H955v.8Z" class="g1"/>
<path d="M955.7,292.1h68.8v-.8H955.7v.8Z" class="g1"/>
<path d="M1024.5,292.1h.7v-.8h-.7v.8Z" class="g1"/>
<path d="M1025.2,292.1h161v-.8h-161v.8Z" class="g1"/>
<path d="M1186.2,292.1h.7v-.8h-.7v.8Z" class="g1"/>
<path d="M1186.9,292.1h51.3v-.8h-51.3v.8Z" class="g1"/>
<path d="M1238.2,292.1h.8v-.8h-.8v.8Z" class="g1"/>
<path d="M47.1,313.9h.7V292.1h-.7v21.8Z" class="g1"/>
<path d="M147,313.9h.8V292.1H147v21.8Z" class="g1"/>
<path d="M371.6,313.9h.8V292.1h-.8v21.8Z" class="g1"/>
<path d="M955,313.9h.7V292.1H955v21.8Z" class="g1"/>
<path d="M1024.5,313.9h.7V292.1h-.7v21.8Z" class="g1"/>
<path d="M1186.2,313.9h.7V292.1h-.7v21.8Z" class="g1"/>
<path d="M1238.2,313.9h.8V292.1h-.8v21.8Z" class="g1"/>
<path d="M47.1,314.6h.7v-.7h-.7v.7Z" class="g1"/>
<path d="M147,314.6h.8v-.7H147v.7Z" class="g1"/>
<path d="M371.6,314.6h.8v-.7h-.8v.7Z" class="g1"/>
<path d="M955,314.6h.7v-.7H955v.7Z" class="g1"/>
<path d="M955.7,314.6h68.8v-.7H955.7v.7Z" class="g1"/>
<path d="M1024.5,314.6h.7v-.7h-.7v.7Z" class="g1"/>
<path d="M1025.2,314.6h161v-.7h-161v.7Z" class="g1"/>
<path d="M1186.2,314.6h.7v-.7h-.7v.7Z" class="g1"/>
<path d="M1186.9,314.6h51.3v-.7h-51.3v.7Z" class="g1"/>
<path d="M1238.2,314.6h.8v-.7h-.8v.7Z" class="g1"/>
<path d="M47.1,336.2h.7V314.6h-.7v21.6Z" class="g1"/>
<path d="M147,336.2h.8V314.6H147v21.6Z" class="g1"/>
<path d="M371.6,336.2h.8V314.6h-.8v21.6Z" class="g1"/>
<path d="M955,336.2h.7V314.6H955v21.6Z" class="g1"/>
<path d="M1024.5,336.2h.7V314.6h-.7v21.6Z" class="g1"/>
<path d="M1186.2,336.2h.7V314.6h-.7v21.6Z" class="g1"/>
<path d="M1238.2,336.2h.8V314.6h-.8v21.6Z" class="g1"/>
<path d="M47.1,337h.7v-.8h-.7v.8Z" class="g1"/>
<path d="M47.8,337H147v-.8H47.8v.8Z" class="g1"/>
<path d="M147,337h.8v-.8H147v.8Z" class="g1"/>
<path d="M147.8,337H371.6v-.8H147.8v.8Z" class="g1"/>
<path d="M371.6,337h.8v-.8h-.8v.8Z" class="g1"/>
<path d="M372.4,337H955v-.8H372.4v.8Z" class="g1"/>
<path d="M955,337h.7v-.8H955v.8Z" class="g1"/>
<path d="M955.7,337h68.8v-.8H955.7v.8Z" class="g1"/>
<path d="M1024.5,337h.7v-.8h-.7v.8Z" class="g1"/>
<path d="M1025.2,337h161v-.8h-161v.8Z" class="g1"/>
<path d="M1186.2,337h.7v-.8h-.7v.8Z" class="g1"/>
<path d="M1186.9,337h51.3v-.8h-51.3v.8Z" class="g1"/>
<path d="M1238.2,337h.8v-.8h-.8v.8Z" class="g1"/>
<path d="M47.1,358.8h.7V337h-.7v21.8Z" class="g1"/>
<path d="M147,358.8h.8V337H147v21.8Z" class="g1"/>
<path d="M371.6,358.8h.8V337h-.8v21.8Z" class="g1"/>
<path d="M955,358.8h.7V337H955v21.8Z" class="g1"/>
<path d="M1024.5,358.8h.7V337h-.7v21.8Z" class="g1"/>
<path d="M1186.2,358.8h.7V337h-.7v21.8Z" class="g1"/>
<path d="M1238.2,358.8h.8V337h-.8v21.8Z" class="g1"/>
<path d="M47.1,359.5h.7v-.7h-.7v.7Z" class="g1"/>
<path d="M147,359.5h.8v-.7H147v.7Z" class="g1"/>
<path d="M371.6,359.5h.8v-.7h-.8v.7Z" class="g1"/>
<path d="M955,359.5h.7v-.7H955v.7Z" class="g1"/>
<path d="M955.7,359.5h68.8v-.7H955.7v.7Z" class="g1"/>
<path d="M1024.5,359.5h.7v-.7h-.7v.7Z" class="g1"/>
<path d="M1025.2,359.5h161v-.7h-161v.7Z" class="g1"/>
<path d="M1186.2,359.5h.7v-.7h-.7v.7Z" class="g1"/>
<path d="M1186.9,359.5h51.3v-.7h-51.3v.7Z" class="g1"/>
<path d="M1238.2,359.5h.8v-.7h-.8v.7Z" class="g1"/>
<path d="M47.1,381.2h.7V359.5h-.7v21.7Z" class="g1"/>
<path d="M147,381.2h.8V359.5H147v21.7Z" class="g1"/>
<path d="M371.6,381.2h.8V359.5h-.8v21.7Z" class="g1"/>
<path d="M955,381.2h.7V359.5H955v21.7Z" class="g1"/>
<path d="M1024.5,381.2h.7V359.5h-.7v21.7Z" class="g1"/>
<path d="M1186.2,381.2h.7V359.5h-.7v21.7Z" class="g1"/>
<path d="M1238.2,381.2h.8V359.5h-.8v21.7Z" class="g1"/>
<path d="M47.1,381.9h.7v-.8h-.7v.8Z" class="g1"/>
<path d="M147,381.9h.8v-.8H147v.8Z" class="g1"/>
<path d="M371.6,381.9h.8v-.8h-.8v.8Z" class="g1"/>
<path d="M955,381.9h.7v-.8H955v.8Z" class="g1"/>
<path d="M955.7,381.9h68.8v-.8H955.7v.8Z" class="g1"/>
<path d="M1024.5,381.9h.7v-.8h-.7v.8Z" class="g1"/>
<path d="M1025.2,381.9h161v-.8h-161v.8Z" class="g1"/>
<path d="M1186.2,381.9h.7v-.8h-.7v.8Z" class="g1"/>
<path d="M1186.9,381.9h51.3v-.8h-51.3v.8Z" class="g1"/>
<path d="M1238.2,381.9h.8v-.8h-.8v.8Z" class="g1"/>
<path d="M47.1,403.7h.7V381.9h-.7v21.8Z" class="g1"/>
<path d="M147,403.7h.8V381.9H147v21.8Z" class="g1"/>
<path d="M371.6,403.7h.8V381.9h-.8v21.8Z" class="g1"/>
<path d="M955,403.7h.7V381.9H955v21.8Z" class="g1"/>
<path d="M1024.5,403.7h.7V381.9h-.7v21.8Z" class="g1"/>
<path d="M1186.2,403.7h.7V381.9h-.7v21.8Z" class="g1"/>
<path d="M1238.2,403.7h.8V381.9h-.8v21.8Z" class="g1"/>
<path d="M47.1,404.4h.7v-.7h-.7v.7Z" class="g1"/>
<path d="M147,404.4h.8v-.7H147v.7Z" class="g1"/>
<path d="M371.6,404.4h.8v-.7h-.8v.7Z" class="g1"/>
<path d="M955,404.4h.7v-.7H955v.7Z" class="g1"/>
<path d="M955.7,404.4h68.8v-.7H955.7v.7Z" class="g1"/>
<path d="M1024.5,404.4h.7v-.7h-.7v.7Z" class="g1"/>
<path d="M1025.2,404.4h161v-.7h-161v.7Z" class="g1"/>
<path d="M1186.2,404.4h.7v-.7h-.7v.7Z" class="g1"/>
<path d="M1186.9,404.4h51.3v-.7h-51.3v.7Z" class="g1"/>
<path d="M1238.2,404.4h.8v-.7h-.8v.7Z" class="g1"/>
<path d="M47.1,426.1h.7V404.4h-.7v21.7Z" class="g1"/>
<path d="M147,426.1h.8V404.4H147v21.7Z" class="g1"/>
<path d="M371.6,426.1h.8V404.4h-.8v21.7Z" class="g1"/>
<path d="M955,426.1h.7V404.4H955v21.7Z" class="g1"/>
<path d="M1024.5,426.1h.7V404.4h-.7v21.7Z" class="g1"/>
<path d="M1186.2,426.1h.7V404.4h-.7v21.7Z" class="g1"/>
<path d="M1238.2,426.1h.8V404.4h-.8v21.7Z" class="g1"/>
<path d="M47.1,426.8h.7v-.7h-.7v.7Z" class="g1"/>
<path d="M47.8,426.8H147v-.7H47.8v.7Z" class="g1"/>
<path d="M147,426.8h.8v-.7H147v.7Z" class="g1"/>
<path d="M147.8,426.8H371.6v-.7H147.8v.7Z" class="g1"/>
<path d="M371.6,426.8h.8v-.7h-.8v.7Z" class="g1"/>
<path d="M372.4,426.8H955v-.7H372.4v.7Z" class="g1"/>
<path d="M955,426.8h.7v-.7H955v.7Z" class="g1"/>
<path d="M955.7,426.8h68.8v-.7H955.7v.7Z" class="g1"/>
<path d="M1024.5,426.8h.7v-.7h-.7v.7Z" class="g1"/>
<path d="M1025.2,426.8h161v-.7h-161v.7Z" class="g1"/>
<path d="M1186.2,426.8h.7v-.7h-.7v.7Z" class="g1"/>
<path d="M1186.9,426.8h51.3v-.7h-51.3v.7Z" class="g1"/>
<path d="M1238.2,426.8h.8v-.7h-.8v.7Z" class="g1"/>
<path d="M47.1,448.6h.7V426.8h-.7v21.8Z" class="g1"/>
<path d="M147,448.6h.8V426.8H147v21.8Z" class="g1"/>
<path d="M371.6,448.6h.8V426.8h-.8v21.8Z" class="g1"/>
<path d="M955,448.6h.7V426.8H955v21.8Z" class="g1"/>
<path d="M1024.5,448.6h.7V426.8h-.7v21.8Z" class="g1"/>
<path d="M1186.2,448.6h.7V426.8h-.7v21.8Z" class="g1"/>
<path d="M1238.2,448.6h.8V426.8h-.8v21.8Z" class="g1"/>
<path d="M47.1,449.3h.7v-.7h-.7v.7Z" class="g1"/>
<path d="M147,449.3h.8v-.7H147v.7Z" class="g1"/>
<path d="M371.6,449.3h.8v-.7h-.8v.7Z" class="g1"/>
<path d="M955,449.3h.7v-.7H955v.7Z" class="g1"/>
<path d="M955.7,449.3h68.8v-.7H955.7v.7Z" class="g1"/>
<path d="M1024.5,449.3h.7v-.7h-.7v.7Z" class="g1"/>
<path d="M1025.2,449.3h161v-.7h-161v.7Z" class="g1"/>
<path d="M1186.2,449.3h.7v-.7h-.7v.7Z" class="g1"/>
<path d="M1186.9,449.3h51.3v-.7h-51.3v.7Z" class="g1"/>
<path d="M1238.2,449.3h.8v-.7h-.8v.7Z" class="g1"/>
<path d="M47.1,471h.7V449.3h-.7V471Z" class="g1"/>
<path d="M147,471h.8V449.3H147V471Z" class="g1"/>
<path d="M371.6,471h.8V449.3h-.8V471Z" class="g1"/>
<path d="M955,471h.7V449.3H955V471Z" class="g1"/>
<path d="M1024.5,471h.7V449.3h-.7V471Z" class="g1"/>
<path d="M1186.2,471h.7V449.3h-.7V471Z" class="g1"/>
<path d="M1238.2,471h.8V449.3h-.8V471Z" class="g1"/>
<path d="M47.1,471.7h.7V471h-.7v.7Z" class="g1"/>
<path d="M147,471.7h.8V471H147v.7Z" class="g1"/>
<path d="M371.6,471.7h.8V471h-.8v.7Z" class="g1"/>
<path d="M955,471.7h.7V471H955v.7Z" class="g1"/>
<path d="M955.7,471.7h68.8V471H955.7v.7Z" class="g1"/>
<path d="M1024.5,471.7h.7V471h-.7v.7Z" class="g1"/>
<path d="M1025.2,471.7h161V471h-161v.7Z" class="g1"/>
<path d="M1186.2,471.7h.7V471h-.7v.7Z" class="g1"/>
<path d="M1186.9,471.7h51.3V471h-51.3v.7Z" class="g1"/>
<path d="M1238.2,471.7h.8V471h-.8v.7Z" class="g1"/>
<path d="M47.1,497h.7V471.7h-.7V497Z" class="g1"/>
<path d="M147,497h.8V471.7H147V497Z" class="g1"/>
<path d="M371.6,497h.8V471.7h-.8V497Z" class="g1"/>
<path d="M955,497h.7V471.7H955V497Z" class="g1"/>
<path d="M1024.5,497h.7V471.7h-.7V497Z" class="g1"/>
<path d="M1186.2,497h.7V471.7h-.7V497Z" class="g1"/>
<path d="M1238.2,497h.8V471.7h-.8V497Z" class="g1"/>
<path d="M47.1,497.8h.7V497h-.7v.8Z" class="g1"/>
<path d="M47.8,497.8H147V497H47.8v.8Z" class="g1"/>
<path d="M147,497.8h.8V497H147v.8Z" class="g1"/>
<path d="M147.8,497.8H371.6V497H147.8v.8Z" class="g1"/>
<path d="M371.6,497.8h.8V497h-.8v.8Z" class="g1"/>
<path d="M372.4,497.8H955V497H372.4v.8Z" class="g1"/>
<path d="M955,497.8h.7V497H955v.8Z" class="g1"/>
<path d="M955.7,497.8h68.8V497H955.7v.8Z" class="g1"/>
<path d="M1024.5,497.8h.7V497h-.7v.8Z" class="g1"/>
<path d="M1025.2,497.8h161V497h-161v.8Z" class="g1"/>
<path d="M1186.2,497.8h.7V497h-.7v.8Z" class="g1"/>
<path d="M1186.9,497.8h51.3V497h-51.3v.8Z" class="g1"/>
<path d="M1238.2,497.8h.8V497h-.8v.8Z" class="g1"/>
<path d="M47.1,519.6h.7V497.7h-.7v21.9Z" class="g1"/>
<path d="M147,519.6h.8V497.7H147v21.9Z" class="g1"/>
<path d="M371.6,519.6h.8V497.7h-.8v21.9Z" class="g1"/>
<path d="M955,519.6h.7V497.7H955v21.9Z" class="g1"/>
<path d="M1024.5,519.6h.7V497.7h-.7v21.9Z" class="g1"/>
<path d="M1186.2,519.6h.7V497.7h-.7v21.9Z" class="g1"/>
<path d="M1238.2,519.6h.8V497.7h-.8v21.9Z" class="g1"/>
<path d="M47.1,520.3h.7v-.7h-.7v.7Z" class="g1"/>
<path d="M147,520.3h.8v-.7H147v.7Z" class="g1"/>
<path d="M371.6,520.3h.8v-.7h-.8v.7Z" class="g1"/>
<path d="M955,520.3h.7v-.7H955v.7Z" class="g1"/>
<path d="M955.7,520.3h68.8v-.7H955.7v.7Z" class="g1"/>
<path d="M1024.5,520.3h.7v-.7h-.7v.7Z" class="g1"/>
<path d="M1025.2,520.3h161v-.7h-161v.7Z" class="g1"/>
<path d="M1186.2,520.3h.7v-.7h-.7v.7Z" class="g1"/>
<path d="M1186.9,520.3h51.3v-.7h-51.3v.7Z" class="g1"/>
<path d="M1238.2,520.3h.8v-.7h-.8v.7Z" class="g1"/>
<path d="M47.1,541.9h.7V520.3h-.7v21.6Z" class="g1"/>
<path d="M147,541.9h.8V520.3H147v21.6Z" class="g1"/>
<path d="M371.6,541.9h.8V520.3h-.8v21.6Z" class="g1"/>
<path d="M955,541.9h.7V520.3H955v21.6Z" class="g1"/>
<path d="M1024.5,541.9h.7V520.3h-.7v21.6Z" class="g1"/>
<path d="M1186.2,541.9h.7V520.3h-.7v21.6Z" class="g1"/>
<path d="M1238.2,541.9h.8V520.3h-.8v21.6Z" class="g1"/>
<path d="M47.1,542.7h.7v-.8h-.7v.8Z" class="g1"/>
<path d="M147,542.7h.8v-.8H147v.8Z" class="g1"/>
<path d="M371.6,542.7h.8v-.8h-.8v.8Z" class="g1"/>
<path d="M955,542.7h.7v-.8H955v.8Z" class="g1"/>
<path d="M955.7,542.7h68.8v-.8H955.7v.8Z" class="g1"/>
<path d="M1024.5,542.7h.7v-.8h-.7v.8Z" class="g1"/>
<path d="M1025.2,542.7h161v-.8h-161v.8Z" class="g1"/>
<path d="M1186.2,542.7h.7v-.8h-.7v.8Z" class="g1"/>
<path d="M1186.9,542.7h51.3v-.8h-51.3v.8Z" class="g1"/>
<path d="M1238.2,542.7h.8v-.8h-.8v.8Z" class="g1"/>
<path d="M47.1,564.5h.7V542.7h-.7v21.8Z" class="g1"/>
<path d="M147,564.5h.8V542.7H147v21.8Z" class="g1"/>
<path d="M371.6,564.5h.8V542.7h-.8v21.8Z" class="g1"/>
<path d="M955,564.5h.7V542.7H955v21.8Z" class="g1"/>
<path d="M1024.5,564.5h.7V542.7h-.7v21.8Z" class="g1"/>
<path d="M1186.2,564.5h.7V542.7h-.7v21.8Z" class="g1"/>
<path d="M1238.2,564.5h.8V542.7h-.8v21.8Z" class="g1"/>
<path d="M47.1,565.2h.7v-.7h-.7v.7Z" class="g1"/>
<path d="M147,565.2h.8v-.7H147v.7Z" class="g1"/>
<path d="M371.6,565.2h.8v-.7h-.8v.7Z" class="g1"/>
<path d="M955,565.2h.7v-.7H955v.7Z" class="g1"/>
<path d="M955.7,565.2h68.8v-.7H955.7v.7Z" class="g1"/>
<path d="M1024.5,565.2h.7v-.7h-.7v.7Z" class="g1"/>
<path d="M1025.2,565.2h161v-.7h-161v.7Z" class="g1"/>
<path d="M1186.2,565.2h.7v-.7h-.7v.7Z" class="g1"/>
<path d="M1186.9,565.2h51.3v-.7h-51.3v.7Z" class="g1"/>
<path d="M1238.2,565.2h.8v-.7h-.8v.7Z" class="g1"/>
<path d="M47.1,586.9h.7V565.2h-.7v21.7Z" class="g1"/>
<path d="M147,586.9h.8V565.2H147v21.7Z" class="g1"/>
<path d="M371.6,586.9h.8V565.2h-.8v21.7Z" class="g1"/>
<path d="M955,586.9h.7V565.2H955v21.7Z" class="g1"/>
<path d="M1024.5,586.9h.7V565.2h-.7v21.7Z" class="g1"/>
<path d="M1186.2,586.9h.7V565.2h-.7v21.7Z" class="g1"/>
<path d="M1238.2,586.9h.8V565.2h-.8v21.7Z" class="g1"/>
<path d="M47.1,587.6h.7v-.8h-.7v.8Z" class="g1"/>
<path d="M47.8,587.6H147v-.8H47.8v.8Z" class="g1"/>
<path d="M147,587.6h.8v-.8H147v.8Z" class="g1"/>
<path d="M147.8,587.6H371.6v-.8H147.8v.8Z" class="g1"/>
<path d="M371.6,587.6h.8v-.8h-.8v.8Z" class="g1"/>
<path d="M372.4,587.6H955v-.8H372.4v.8Z" class="g1"/>
<path d="M955,587.6h.7v-.8H955v.8Z" class="g1"/>
<path d="M955.7,587.6h68.8v-.8H955.7v.8Z" class="g1"/>
<path d="M1024.5,587.6h.7v-.8h-.7v.8Z" class="g1"/>
<path d="M1025.2,587.6h161v-.8h-161v.8Z" class="g1"/>
<path d="M1186.2,587.6h.7v-.8h-.7v.8Z" class="g1"/>
<path d="M1186.9,587.6h51.3v-.8h-51.3v.8Z" class="g1"/>
<path d="M1238.2,587.6h.8v-.8h-.8v.8Z" class="g1"/>
<path d="M47.1,609.4h.7V587.6h-.7v21.8Z" class="g1"/>
<path d="M147,609.4h.8V587.6H147v21.8Z" class="g1"/>
<path d="M371.6,609.4h.8V587.6h-.8v21.8Z" class="g1"/>
<path d="M955,609.4h.7V587.6H955v21.8Z" class="g1"/>
<path d="M1024.5,609.4h.7V587.6h-.7v21.8Z" class="g1"/>
<path d="M1186.2,609.4h.7V587.6h-.7v21.8Z" class="g1"/>
<path d="M1238.2,609.4h.8V587.6h-.8v21.8Z" class="g1"/>
<path d="M47.1,610.1h.7v-.7h-.7v.7Z" class="g1"/>
<path d="M147,610.1h.8v-.7H147v.7Z" class="g1"/>
<path d="M371.6,610.1h.8v-.7h-.8v.7Z" class="g1"/>
<path d="M955,610.1h.7v-.7H955v.7Z" class="g1"/>
<path d="M955.7,610.1h68.8v-.7H955.7v.7Z" class="g1"/>
<path d="M1024.5,610.1h.7v-.7h-.7v.7Z" class="g1"/>
<path d="M1025.2,610.1h161v-.7h-161v.7Z" class="g1"/>
<path d="M1186.2,610.1h.7v-.7h-.7v.7Z" class="g1"/>
<path d="M1186.9,610.1h51.3v-.7h-51.3v.7Z" class="g1"/>
<path d="M1238.2,610.1h.8v-.7h-.8v.7Z" class="g1"/>
<path d="M47.1,631.8h.7V610.1h-.7v21.7Z" class="g1"/>
<path d="M147,631.8h.8V610.1H147v21.7Z" class="g1"/>
<path d="M371.6,631.8h.8V610.1h-.8v21.7Z" class="g1"/>
<path d="M955,631.8h.7V610.1H955v21.7Z" class="g1"/>
<path d="M1024.5,631.8h.7V610.1h-.7v21.7Z" class="g1"/>
<path d="M1186.2,631.8h.7V610.1h-.7v21.7Z" class="g1"/>
<path d="M1238.2,631.8h.8V610.1h-.8v21.7Z" class="g1"/>
<path d="M47.1,632.5h.7v-.7h-.7v.7Z" class="g1"/>
<path d="M147,632.5h.8v-.7H147v.7Z" class="g1"/>
<path d="M371.6,632.5h.8v-.7h-.8v.7Z" class="g1"/>
<path d="M955,632.5h.7v-.7H955v.7Z" class="g1"/>
<path d="M955.7,632.5h68.8v-.7H955.7v.7Z" class="g1"/>
<path d="M1024.5,632.5h.7v-.7h-.7v.7Z" class="g1"/>
<path d="M1025.2,632.5h161v-.7h-161v.7Z" class="g1"/>
<path d="M1186.2,632.5h.7v-.7h-.7v.7Z" class="g1"/>
<path d="M1186.9,632.5h51.3v-.7h-51.3v.7Z" class="g1"/>
<path d="M1238.2,632.5h.8v-.7h-.8v.7Z" class="g1"/>
<path d="M47.1,654.3h.7V632.5h-.7v21.8Z" class="g1"/>
<path d="M147,654.3h.8V632.5H147v21.8Z" class="g1"/>
<path d="M371.6,654.3h.8V632.5h-.8v21.8Z" class="g1"/>
<path d="M955,654.3h.7V632.5H955v21.8Z" class="g1"/>
<path d="M1024.5,654.3h.7V632.5h-.7v21.8Z" class="g1"/>
<path d="M1186.2,654.3h.7V632.5h-.7v21.8Z" class="g1"/>
<path d="M1238.2,654.3h.8V632.5h-.8v21.8Z" class="g1"/>
<path d="M47.1,655.1h.7v-.8h-.7v.8Z" class="g1"/>
<path d="M147,655.1h.8v-.8H147v.8Z" class="g1"/>
<path d="M371.6,655.1h.8v-.8h-.8v.8Z" class="g1"/>
<path d="M955,655.1h.7v-.8H955v.8Z" class="g1"/>
<path d="M955.7,655.1h68.8v-.8H955.7v.8Z" class="g1"/>
<path d="M1024.5,655.1h.7v-.8h-.7v.8Z" class="g1"/>
<path d="M1025.2,655.1h161v-.8h-161v.8Z" class="g1"/>
<path d="M1186.2,655.1h.7v-.8h-.7v.8Z" class="g1"/>
<path d="M1186.9,655.1h51.3v-.8h-51.3v.8Z" class="g1"/>
<path d="M1238.2,655.1h.8v-.8h-.8v.8Z" class="g1"/>
<path d="M47.1,676.9h.7V655.1h-.7v21.8Z" class="g1"/>
<path d="M47.1,677.6h.7v-.7h-.7v.7Z" class="g1"/>
<path d="M47.1,677.6h.7v-.7h-.7v.7Z" class="g1"/>
<path d="M47.8,677.6H147v-.7H47.8v.7Z" class="g1"/>
<path d="M147,676.9h.8V655.1H147v21.8Z" class="g1"/>
<path d="M147,677.6h.8v-.7H147v.7Z" class="g1"/>
<path d="M147.8,677.6H371.6v-.7H147.8v.7Z" class="g1"/>
<path d="M371.6,676.9h.8V655.1h-.8v21.8Z" class="g1"/>
<path d="M371.6,677.6h.8v-.7h-.8v.7Z" class="g1"/>
<path d="M372.4,677.6H955v-.7H372.4v.7Z" class="g1"/>
<path d="M955,676.9h.7V655.1H955v21.8Z" class="g1"/>
<path d="M955,677.6h.7v-.7H955v.7Z" class="g1"/>
<path d="M955.7,677.6h68.8v-.7H955.7v.7Z" class="g1"/>
<path d="M1024.5,676.9h.7V655.1h-.7v21.8Z" class="g1"/>
<path d="M1024.5,677.6h.7v-.7h-.7v.7Z" class="g1"/>
<path d="M1025.2,677.6h161v-.7h-161v.7Z" class="g1"/>
<path d="M1186.2,676.9h.7V655.1h-.7v21.8Z" class="g1"/>
<path d="M1186.2,677.6h.7v-.7h-.7v.7Z" class="g1"/>
<path d="M1186.9,677.6h51.3v-.7h-51.3v.7Z" class="g1"/>
<path d="M1238.2,676.9h.8V655.1h-.8v21.8Z" class="g1"/>
<path d="M1238.2,677.6h.8v-.7h-.8v.7Z" class="g1"/>
<path d="M1238.2,677.6h.8v-.7h-.8v.7Z" class="g1"/>
</svg>