<?xml version="1.0" encoding="UTF-8" standalone="no"?>
<!DOCTYPE svg PUBLIC "-//W3C//DTD SVG 1.1//EN"
"http://www.w3.org/Graphics/SVG/1.1/DTD/svg11.dtd">
<svg viewBox="0 0 1286 909" version="1.1" xmlns="http://www.w3.org/2000/svg" xmlns:xlink="http://www.w3.org/1999/xlink">
<defs>
<style type="text/css"><![CDATA[
.g0{
fill: #D9D9D9;
}
.g1{
}
]]></style>
</defs>
<path fill-rule="evenodd" d="M47.8,61.6H350V44H47.8V61.6Z" class="g0"/>
<path d="M55.7,61.6H342.1V44H55.7V61.6Z" class="g0"/>
<path fill-rule="evenodd" d="M350.7,61.6h887.5V44H350.7V61.6Z" class="g0"/>
<path d="M358.6,61.6h871.7V44H358.6V61.6Z" class="g0"/>
<path d="M47.1,44h.7v-.7h-.7V44Z" class="g1"/>
<path d="M47.1,44h.7v-.7h-.7V44Z" class="g1"/>
<path d="M47.8,44H350v-.7H47.8V44Z" class="g1"/>
<path d="M350,44h.7v-.7H350V44Z" class="g1"/>
<path d="M350.7,44h887.5v-.7H350.7V44Z" class="g1"/>
<path d="M1238.2,44h.8v-.7h-.8V44Z" class="g1"/>
<path d="M1238.2,44h.8v-.7h-.8V44Z" class="g1"/>
<path d="M47.1,61.6h.7V44h-.7V61.6Z" class="g1"/>
<path d="M350,61.6h.7V44H350V61.6Z" class="g1"/>
<path d="M1238.2,61.6h.8V44h-.8V61.6Z" class="g1"/>
<path d="M47.1,62.3h.7v-.7h-.7v.7Z" class="g1"/>
<path d="M47.8,62.3H350v-.7H47.8v.7Z" class="g1"/>
<path d="M350,62.3h.7v-.7H350v.7Z" class="g1"/>
<path d="M350.7,62.3h887.5v-.7H350.7v.7Z" class="g1"/>
<path d="M1238.2,62.3h.8v-.7h-.8v.7Z" class="g1"/>
<path d="M47.1,79.9h.7V62.3h-.7V79.9Z" class="g1"/>
<path d="M350,79.9h.7V62.3H350V79.9Z" class="g1"/>
<path d="M1238.2,79.9h.8V62.3h-.8V79.9Z" class="g1"/>
<path d="M47.1,80.7h.7v-.8h-.7v.8Z" class="g1"/>
<path d="M47.8,80.7H350v-.8H47.8v.8Z" class="g1"/>
<path d="M350,80.7h.7v-.8H350v.8Z" class="g1"/>
<path d="M350.7,80.7h887.5v-.8H350.7v.8Z" class="g1"/>
<path d="M1238.2,80.7h.8v-.8h-.8v.8Z" class="g1"/>
<path d="M47.1,98.3h.7V80.7h-.7V98.3Z" class="g1"/>
<path d="M350,98.3h.7V80.7H350V98.3Z" class="g1"/>
<path d="M1238.2,98.3h.8V80.7h-.8V98.3Z" class="g1"/>
<path d="M47.1,99h.7v-.7h-.7V99Z" class="g1"/>
<path d="M47.8,99H350v-.7H47.8V99Z" class="g1"/>
<path d="M350,99h.7v-.7H350V99Z" class="g1"/>
<path d="M350.7,99h887.5v-.7H350.7V99Z" class="g1"/>
<path d="M1238.2,99h.8v-.7h-.8V99Z" class="g1"/>
<path d="M47.1,134.2h.7V99h-.7v35.2Z" class="g1"/>
<path d="M350,134.2h.7V99H350v35.2Z" class="g1"/>
<path d="M1238.2,134.2h.8V99h-.8v35.2Z" class="g1"/>
<path d="M47.1,134.9h.7v-.7h-.7v.7Z" class="g1"/>
<path d="M47.8,134.9H350v-.7H47.8v.7Z" class="g1"/>
<path d="M350,134.9h.7v-.7H350v.7Z" class="g1"/>
<path d="M350.7,134.9h887.5v-.7H350.7v.7Z" class="g1"/>
<path d="M1238.2,134.9h.8v-.7h-.8v.7Z" class="g1"/>
<path d="M47.1,152.5h.7V134.9h-.7v17.6Z" class="g1"/>
<path d="M350,152.5h.7V134.9H350v17.6Z" class="g1"/>
<path d="M1238.2,152.5h.8V134.9h-.8v17.6Z" class="g1"/>
<path d="M47.1,153.3h.7v-.8h-.7v.8Z" class="g1"/>
<path d="M47.8,153.3H350v-.8H47.8v.8Z" class="g1"/>
<path d="M350,153.3h.7v-.8H350v.8Z" class="g1"/>
<path d="M350.7,153.3h887.5v-.8H350.7v.8Z" class="g1"/>
<path d="M1238.2,153.3h.8v-.8h-.8v.8Z" class="g1"/>
<path d="M47.1,206.1h.7V153.3h-.7v52.8Z" class="g1"/>
<path d="M47.1,206.8h.7v-.7h-.7v.7Z" class="g1"/>
<path d="M47.1,206.8h.7v-.7h-.7v.7Z" class="g1"/>
<path d="M47.8,206.8H350v-.7H47.8v.7Z" class="g1"/>
<path d="M350,206.1h.7V153.3H350v52.8Z" class="g1"/>
<path d="M350,206.8h.7v-.7H350v.7Z" class="g1"/>
<path d="M350.7,206.8h887.5v-.7H350.7v.7Z" class="g1"/>
<path d="M1238.2,206.1h.8V153.3h-.8v52.8Z" class="g1"/>
<path d="M1238.2,206.8h.8v-.7h-.8v.7Z" class="g1"/>
<path d="M1238.2,206.8h.8v-.7h-.8v.7Z" class="g1"/>
<path fill-rule="evenodd" d="M47.8,259.4H350V241.8H47.8v17.6Z" class="g0"/>
<path d="M55.7,259.4H342.1V241.8H55.7v17.6Z" class="g0"/>
<path fill-rule="evenodd" d="M350.7,259.4h887.5V241.8H350.7v17.6Z" class="g0"/>
<path d="M358.6,259.4h871.7V241.8H358.6v17.6Z" class="g0"/>
<path d="M47.1,241.8h.7v-.7h-.7v.7Z" class="g1"/>
<path d="M47.1,241.8h.7v-.7h-.7v.7Z" class="g1"/>
<path d="M47.8,241.8H350v-.7H47.8v.7Z" class="g1"/>
<path d="M350,241.8h.7v-.7H350v.7Z" class="g1"/>
<path d="M350.7,241.8h887.5v-.7H350.7v.7Z" class="g1"/>
<path d="M1238.2,241.8h.8v-.7h-.8v.7Z" class="g1"/>
<path d="M1238.2,241.8h.8v-.7h-.8v.7Z" class="g1"/>
<path d="M47.1,259.4h.7V241.8h-.7v17.6Z" class="g1"/>
<path d="M350,259.4h.7V241.8H350v17.6Z" class="g1"/>
<path d="M1238.2,259.4h.8V241.8h-.8v17.6Z" class="g1"/>
<path d="M47.1,260.2h.7v-.8h-.7v.8Z" class="g1"/>
<path d="M47.8,260.2H350v-.8H47.8v.8Z" class="g1"/>
<path d="M350,260.2h.7v-.8H350v.8Z" class="g1"/>
<path d="M350.7,260.2h887.5v-.8H350.7v.8Z" class="g1"/>
<path d="M1238.2,260.2h.8v-.8h-.8v.8Z" class="g1"/>
<path d="M47.1,312.9h.7V260.2h-.7v52.7Z" class="g1"/>
<path d="M350,312.9h.7V260.2H350v52.7Z" class="g1"/>
<path d="M1238.2,312.9h.8V260.2h-.8v52.7Z" class="g1"/>
<path d="M47.1,313.7h.7v-.8h-.7v.8Z" class="g1"/>
<path d="M47.8,313.7H350v-.8H47.8v.8Z" class="g1"/>
<path d="M350,313.7h.7v-.8H350v.8Z" class="g1"/>
<path d="M350.7,313.7h887.5v-.8H350.7v.8Z" class="g1"/>
<path d="M1238.2,313.7h.8v-.8h-.8v.8Z" class="g1"/>
<path d="M47.1,348.9h.7V313.7h-.7v35.2Z" class="g1"/>
<path d="M350,348.9h.7V313.7H350v35.2Z" class="g1"/>
<path d="M1238.2,348.9h.8V313.7h-.8v35.2Z" class="g1"/>
<path d="M47.1,349.6h.7v-.7h-.7v.7Z" class="g1"/>
<path d="M47.8,349.6H350v-.7H47.8v.7Z" class="g1"/>
<path d="M350,349.6h.7v-.7H350v.7Z" class="g1"/>
<path d="M350.7,349.6h887.5v-.7H350.7v.7Z" class="g1"/>
<path d="M1238.2,349.6h.8v-.7h-.8v.7Z" class="g1"/>
<path d="M47.1,367.2h.7V349.6h-.7v17.6Z" class="g1"/>
<path d="M350,367.2h.7V349.6H350v17.6Z" class="g1"/>
<path d="M1238.2,367.2h.8V349.6h-.8v17.6Z" class="g1"/>
<path d="M47.1,367.9h.7v-.7h-.7v.7Z" class="g1"/>
<path d="M47.8,367.9H350v-.7H47.8v.7Z" class="g1"/>
<path d="M350,367.9h.7v-.7H350v.7Z" class="g1"/>
<path d="M350.7,367.9h887.5v-.7H350.7v.7Z" class="g1"/>
<path d="M1238.2,367.9h.8v-.7h-.8v.7Z" class="g1"/>
<path d="M47.1,385.6h.7V368h-.7v17.6Z" class="g1"/>
<path d="M350,385.6h.7V368H350v17.6Z" class="g1"/>
<path d="M1238.2,385.6h.8V368h-.8v17.6Z" class="g1"/>
<path d="M47.1,386.3h.7v-.8h-.7v.8Z" class="g1"/>
<path d="M47.8,386.3H350v-.8H47.8v.8Z" class="g1"/>
<path d="M350,386.3h.7v-.8H350v.8Z" class="g1"/>
<path d="M350.7,386.3h887.5v-.8H350.7v.8Z" class="g1"/>
<path d="M1238.2,386.3h.8v-.8h-.8v.8Z" class="g1"/>
<path d="M47.1,403.9h.7V386.3h-.7v17.6Z" class="g1"/>
<path d="M350,403.9h.7V386.3H350v17.6Z" class="g1"/>
<path d="M1238.2,403.9h.8V386.3h-.8v17.6Z" class="g1"/>
<path d="M47.1,404.6h.7v-.7h-.7v.7Z" class="g1"/>
<path d="M47.8,404.6H350v-.7H47.8v.7Z" class="g1"/>
<path d="M350,404.6h.7v-.7H350v.7Z" class="g1"/>
<path d="M350.7,404.6h887.5v-.7H350.7v.7Z" class="g1"/>
<path d="M1238.2,404.6h.8v-.7h-.8v.7Z" class="g1"/>
<path d="M47.1,422.2h.7V404.6h-.7v17.6Z" class="g1"/>
<path d="M350,422.2h.7V404.6H350v17.6Z" class="g1"/>
<path d="M1238.2,422.2h.8V404.6h-.8v17.6Z" class="g1"/>
<path d="M47.1,422.9h.7v-.7h-.7v.7Z" class="g1"/>
<path d="M47.8,422.9H350v-.7H47.8v.7Z" class="g1"/>
<path d="M350,422.9h.7v-.7H350v.7Z" class="g1"/>
<path d="M350.7,422.9h887.5v-.7H350.7v.7Z" class="g1"/>
<path d="M1238.2,422.9h.8v-.7h-.8v.7Z" class="g1"/>
<path d="M47.1,440.6h.7V423h-.7v17.6Z" class="g1"/>
<path d="M350,440.6h.7V423H350v17.6Z" class="g1"/>
<path d="M1238.2,440.6h.8V423h-.8v17.6Z" class="g1"/>
<path d="M47.1,441.3h.7v-.8h-.7v.8Z" class="g1"/>
<path d="M47.8,441.3H350v-.8H47.8v.8Z" class="g1"/>
<path d="M350,441.3h.7v-.8H350v.8Z" class="g1"/>
<path d="M350.7,441.3h887.5v-.8H350.7v.8Z" class="g1"/>
<path d="M1238.2,441.3h.8v-.8h-.8v.8Z" class="g1"/>
<path d="M47.1,458.9h.7V441.3h-.7v17.6Z" class="g1"/>
<path d="M350,458.9h.7V441.3H350v17.6Z" class="g1"/>
<path d="M1238.2,458.9h.8V441.3h-.8v17.6Z" class="g1"/>
<path d="M47.1,459.6h.7v-.7h-.7v.7Z" class="g1"/>
<path d="M47.8,459.6H350v-.7H47.8v.7Z" class="g1"/>
<path d="M350,459.6h.7v-.7H350v.7Z" class="g1"/>
<path d="M350.7,459.6h887.5v-.7H350.7v.7Z" class="g1"/>
<path d="M1238.2,459.6h.8v-.7h-.8v.7Z" class="g1"/>
<path d="M47.1,477.2h.7V459.6h-.7v17.6Z" class="g1"/>
<path d="M350,477.2h.7V459.6H350v17.6Z" class="g1"/>
<path d="M1238.2,477.2h.8V459.6h-.8v17.6Z" class="g1"/>
<path d="M47.1,477.9h.7v-.7h-.7v.7Z" class="g1"/>
<path d="M47.8,477.9H350v-.7H47.8v.7Z" class="g1"/>
<path d="M350,477.9h.7v-.7H350v.7Z" class="g1"/>
<path d="M350.7,477.9h887.5v-.7H350.7v.7Z" class="g1"/>
<path d="M1238.2,477.9h.8v-.7h-.8v.7Z" class="g1"/>
<path d="M47.1,495.6h.7V478h-.7v17.6Z" class="g1"/>
<path d="M350,495.6h.7V478H350v17.6Z" class="g1"/>
<path d="M1238.2,495.6h.8V478h-.8v17.6Z" class="g1"/>
<path d="M47.1,496.3h.7v-.8h-.7v.8Z" class="g1"/>
<path d="M47.8,496.3H350v-.8H47.8v.8Z" class="g1"/>
<path d="M350,496.3h.7v-.8H350v.8Z" class="g1"/>
<path d="M350.7,496.3h887.5v-.8H350.7v.8Z" class="g1"/>
<path d="M1238.2,496.3h.8v-.8h-.8v.8Z" class="g1"/>
<path d="M47.1,513.9h.7V496.3h-.7v17.6Z" class="g1"/>
<path d="M350,513.9h.7V496.3H350v17.6Z" class="g1"/>
<path d="M1238.2,513.9h.8V496.3h-.8v17.6Z" class="g1"/>
<path d="M47.1,514.6h.7v-.7h-.7v.7Z" class="g1"/>
<path d="M47.8,514.6H350v-.7H47.8v.7Z" class="g1"/>
<path d="M350,514.6h.7v-.7H350v.7Z" class="g1"/>
<path d="M350.7,514.6h887.5v-.7H350.7v.7Z" class="g1"/>
<path d="M1238.2,514.6h.8v-.7h-.8v.7Z" class="g1"/>
<path d="M47.1,532.2h.7V514.6h-.7v17.6Z" class="g1"/>
<path d="M350,532.2h.7V514.6H350v17.6Z" class="g1"/>
<path d="M1238.2,532.2h.8V514.6h-.8v17.6Z" class="g1"/>
<path d="M47.1,533h.7v-.8h-.7v.8Z" class="g1"/>
<path d="M47.8,533H350v-.8H47.8v.8Z" class="g1"/>
<path d="M350,533h.7v-.8H350v.8Z" class="g1"/>
<path d="M350.7,533h887.5v-.8H350.7v.8Z" class="g1"/>
<path d="M1238.2,533h.8v-.8h-.8v.8Z" class="g1"/>
<path d="M47.1,568h.7V533h-.7v35Z" class="g1"/>
<path d="M350,568h.7V533H350v35Z" class="g1"/>
<path d="M1238.2,568h.8V533h-.8v35Z" class="g1"/>
<path d="M47.1,568.7h.7V568h-.7v.7Z" class="g1"/>
<path d="M47.8,568.7H350V568H47.8v.7Z" class="g1"/>
<path d="M350,568.7h.7V568H350v.7Z" class="g1"/>
<path d="M350.7,568.7h887.5V568H350.7v.7Z" class="g1"/>
<path d="M1238.2,568.7h.8V568h-.8v.7Z" class="g1"/>
<path d="M47.1,621.5h.7V568.7h-.7v52.8Z" class="g1"/>
<path d="M47.1,622.2h.7v-.7h-.7v.7Z" class="g1"/>
<path d="M47.1,622.2h.7v-.7h-.7v.7Z" class="g1"/>
<path d="M47.8,622.2H350v-.7H47.8v.7Z" class="g1"/>
<path d="M350,621.5h.7V568.7H350v52.8Z" class="g1"/>
<path d="M350,622.2h.7v-.7H350v.7Z" class="g1"/>
<path d="M350.7,622.2h887.5v-.7H350.7v.7Z" class="g1"/>
<path d="M1238.2,621.5h.8V568.7h-.8v52.8Z" class="g1"/>
<path d="M1238.2,622.2h.8v-.7h-.8v.7Z" class="g1"/>
<path d="M1238.2,622.2h.8v-.7h-.8v.7Z" class="g1"/>
</svg>