<?xml version="1.0" encoding="UTF-8" standalone="no"?>
<!DOCTYPE svg PUBLIC "-//W3C//DTD SVG 1.1//EN"
"http://www.w3.org/Graphics/SVG/1.1/DTD/svg11.dtd">
<svg viewBox="0 0 1286 909" version="1.1" xmlns="http://www.w3.org/2000/svg" xmlns:xlink="http://www.w3.org/1999/xlink">
<defs>
<style type="text/css"><![CDATA[
.g0_2{
fill: #D9D9D9;
}
.g1_2{
}
]]></style>
</defs>
<path fill-rule="evenodd" d="M47.8,65.8H155.1V44H47.8V65.8Z" class="g0_2"/>
<path fill-rule="evenodd" d="M55.7,63.6h91.5V46.2H55.7V63.6Z" class="g0_2"/>
<path fill-rule="evenodd" d="M155.8,65.8h205V44h-205V65.8Z" class="g0_2"/>
<path fill-rule="evenodd" d="M163.7,63.6H352.9V46.2H163.7V63.6Z" class="g0_2"/>
<path fill-rule="evenodd" d="M361.5,65.8H772.4V44H361.5V65.8Z" class="g0_2"/>
<path fill-rule="evenodd" d="M369.4,63.6H764.5V46.2H369.4V63.6Z" class="g0_2"/>
<path fill-rule="evenodd" d="M773.1,65.8h465.1V44H773.1V65.8Z" class="g0_2"/>
<path fill-rule="evenodd" d="M781,63.6h449.4V46.2H781V63.6Z" class="g0_2"/>
<path d="M47.1,44h.7v-.7h-.7V44Z" class="g1_2"/>
<path d="M47.1,44h.7v-.7h-.7V44Z" class="g1_2"/>
<path d="M47.8,44H155.1v-.7H47.8V44Z" class="g1_2"/>
<path d="M155.1,44h.7v-.7h-.7V44Z" class="g1_2"/>
<path d="M155.8,44h205v-.7h-205V44Z" class="g1_2"/>
<path d="M360.8,44h.7v-.7h-.7V44Z" class="g1_2"/>
<path d="M361.5,44H772.4v-.7H361.5V44Z" class="g1_2"/>
<path d="M772.4,44h.7v-.7h-.7V44Z" class="g1_2"/>
<path d="M773.1,44h465.1v-.7H773.1V44Z" class="g1_2"/>
<path d="M1238.2,44h.8v-.7h-.8V44Z" class="g1_2"/>
<path d="M1238.2,44h.8v-.7h-.8V44Z" class="g1_2"/>
<path d="M47.1,65.8h.7V44h-.7V65.8Z" class="g1_2"/>
<path d="M155.1,65.8h.7V44h-.7V65.8Z" class="g1_2"/>
<path d="M360.8,65.8h.7V44h-.7V65.8Z" class="g1_2"/>
<path d="M772.4,65.8h.7V44h-.7V65.8Z" class="g1_2"/>
<path d="M1238.2,65.8h.8V44h-.8V65.8Z" class="g1_2"/>
<path d="M47.1,66.5h.7v-.7h-.7v.7Z" class="g1_2"/>
<path d="M47.8,66.5H155.1v-.7H47.8v.7Z" class="g1_2"/>
<path d="M155.1,66.5h.7v-.7h-.7v.7Z" class="g1_2"/>
<path d="M155.8,66.5h205v-.7h-205v.7Z" class="g1_2"/>
<path d="M360.8,66.5h.7v-.7h-.7v.7Z" class="g1_2"/>
<path d="M361.5,66.5H772.4v-.7H361.5v.7Z" class="g1_2"/>
<path d="M772.4,66.5h.7v-.7h-.7v.7Z" class="g1_2"/>
<path d="M773.1,66.5h465.1v-.7H773.1v.7Z" class="g1_2"/>
<path d="M1238.2,66.5h.8v-.7h-.8v.7Z" class="g1_2"/>
<path d="M47.1,88.2h.7V66.5h-.7V88.2Z" class="g1_2"/>
<path d="M155.1,88.2h.7V66.5h-.7V88.2Z" class="g1_2"/>
<path d="M360.8,88.2h.7V66.5h-.7V88.2Z" class="g1_2"/>
<path d="M772.4,88.2h.7V66.5h-.7V88.2Z" class="g1_2"/>
<path d="M1238.2,88.2h.8V66.5h-.8V88.2Z" class="g1_2"/>
<path d="M47.1,88.9h.7v-.7h-.7v.7Z" class="g1_2"/>
<path d="M47.8,88.9H155.1v-.7H47.8v.7Z" class="g1_2"/>
<path d="M155.1,88.9h.7v-.7h-.7v.7Z" class="g1_2"/>
<path d="M155.8,88.9h205v-.7h-205v.7Z" class="g1_2"/>
<path d="M360.8,88.9h.7v-.7h-.7v.7Z" class="g1_2"/>
<path d="M361.5,88.9H772.4v-.7H361.5v.7Z" class="g1_2"/>
<path d="M772.4,88.9h.7v-.7h-.7v.7Z" class="g1_2"/>
<path d="M773.1,88.9h465.1v-.7H773.1v.7Z" class="g1_2"/>
<path d="M1238.2,88.9h.8v-.7h-.8v.7Z" class="g1_2"/>
<path d="M47.1,405.2h.7V88.9h-.7V405.2Z" class="g1_2"/>
<path d="M155.1,405.2h.7V88.9h-.7V405.2Z" class="g1_2"/>
<path d="M360.8,405.2h.7V88.9h-.7V405.2Z" class="g1_2"/>
<path d="M772.4,405.2h.7V88.9h-.7V405.2Z" class="g1_2"/>
<path d="M1238.2,405.2h.8V88.9h-.8V405.2Z" class="g1_2"/>
<path d="M47.1,405.9h.7v-.7h-.7v.7Z" class="g1_2"/>
<path d="M47.8,405.9H155.1v-.7H47.8v.7Z" class="g1_2"/>
<path d="M155.1,405.9h.7v-.7h-.7v.7Z" class="g1_2"/>
<path d="M155.8,405.9h205v-.7h-205v.7Z" class="g1_2"/>
<path d="M360.8,405.9h.7v-.7h-.7v.7Z" class="g1_2"/>
<path d="M361.5,405.9H772.4v-.7H361.5v.7Z" class="g1_2"/>
<path d="M772.4,405.9h.7v-.7h-.7v.7Z" class="g1_2"/>
<path d="M773.1,405.9h465.1v-.7H773.1v.7Z" class="g1_2"/>
<path d="M1238.2,405.9h.8v-.7h-.8v.7Z" class="g1_2"/>
<path d="M47.1,528.9h.7v-123h-.7v123Z" class="g1_2"/>
<path d="M155.1,528.9h.7v-123h-.7v123Z" class="g1_2"/>
<path d="M360.8,528.9h.7v-123h-.7v123Z" class="g1_2"/>
<path d="M772.4,528.9h.7v-123h-.7v123Z" class="g1_2"/>
<path d="M1238.2,528.9h.8v-123h-.8v123Z" class="g1_2"/>
<path d="M47.1,529.7h.7v-.8h-.7v.8Z" class="g1_2"/>
<path d="M155.1,529.7h.7v-.8h-.7v.8Z" class="g1_2"/>
<path d="M360.8,529.7h.7v-.8h-.7v.8Z" class="g1_2"/>
<path d="M772.4,529.7h.7v-.8h-.7v.8Z" class="g1_2"/>
<path d="M773.1,529.7h465.1v-.8H773.1v.8Z" class="g1_2"/>
<path d="M1238.2,529.7h.8v-.8h-.8v.8Z" class="g1_2"/>
<path d="M47.1,600.1h.7V529.7h-.7v70.4Z" class="g1_2"/>
<path d="M47.1,600.8h.7V600h-.7v.8Z" class="g1_2"/>
<path d="M47.1,600.8h.7V600h-.7v.8Z" class="g1_2"/>
<path d="M47.8,600.8H155.1V600H47.8v.8Z" class="g1_2"/>
<path d="M155.1,600.1h.7V529.7h-.7v70.4Z" class="g1_2"/>
<path d="M155.1,600.8h.7V600h-.7v.8Z" class="g1_2"/>
<path d="M155.8,600.8h205V600h-205v.8Z" class="g1_2"/>
<path d="M360.8,600.1h.7V529.7h-.7v70.4Z" class="g1_2"/>
<path d="M360.8,600.8h.7V600h-.7v.8Z" class="g1_2"/>
<path d="M361.5,600.8H772.4V600H361.5v.8Z" class="g1_2"/>
<path d="M772.4,600.1h.7V529.7h-.7v70.4Z" class="g1_2"/>
<path d="M772.4,600.8h.7V600h-.7v.8Z" class="g1_2"/>
<path d="M773.1,600.8h465.1V600H773.1v.8Z" class="g1_2"/>
<path d="M1238.2,600.1h.8V529.7h-.8v70.4Z" class="g1_2"/>
<path d="M1238.2,600.8h.8V600h-.8v.8Z" class="g1_2"/>
<path d="M1238.2,600.8h.8V600h-.8v.8Z" class="g1_2"/>
</svg>