<?xml version="1.0" encoding="UTF-8" standalone="no"?>
<!DOCTYPE svg PUBLIC "-//W3C//DTD SVG 1.1//EN"
"http://www.w3.org/Graphics/SVG/1.1/DTD/svg11.dtd">
<svg viewBox="0 0 1286 909" version="1.1" xmlns="http://www.w3.org/2000/svg" xmlns:xlink="http://www.w3.org/1999/xlink">
<defs>
<clipPath id="c0"><path d="M121.8,313.7V292.1h21.6v21.6Z"/></clipPath>
<clipPath id="c1"><path d="M292,313.7V292.1h21.6v21.6Z"/></clipPath>
<clipPath id="c2"><path d="M462.1,313.7V292.1h21.6v21.6Z"/></clipPath>
<clipPath id="c3"><path d="M632.3,313.7V292.1h21.6v21.6Z"/></clipPath>
<clipPath id="c4"><path d="M802.4,313.7V292.1H824v21.6Z"/></clipPath>
<clipPath id="c5"><path d="M972.6,313.7V292.1h21.6v21.6Z"/></clipPath>
<clipPath id="c6"><path d="M1142.8,313.7V292.1h21.6v21.6Z"/></clipPath>
<style type="text/css"><![CDATA[
.g0{
fill: #D9D9D9;
}
.g1{
}
]]></style>
</defs>
<path fill-rule="evenodd" d="M47.8,313.7H217.2V292.1H47.8v21.6Z" class="g0"/>
<path d="M55.7,313.7H209.4V292H55.7v21.7Z" class="g0"/>
<path fill-rule="evenodd" d="M218,313.7H387.6V292.1H218v21.6Z" class="g0"/>
<path d="M225.9,313.7H379.7V292H225.9v21.7Z" class="g0"/>
<path fill-rule="evenodd" d="M388.3,313.7H557.5V292.1H388.3v21.6Z" class="g0"/>
<path d="M396.2,313.7H549.8V292H396.2v21.7Z" class="g0"/>
<path fill-rule="evenodd" d="M558.4,313.7H727.8V292.1H558.4v21.6Z" class="g0"/>
<path d="M566.3,313.7H719.9V292H566.3v21.7Z" class="g0"/>
<path fill-rule="evenodd" d="M728.6,313.7H898V292.1H728.6v21.6Z" class="g0"/>
<path d="M736.5,313.7H890.1V292H736.5v21.7Z" class="g0"/>
<path fill-rule="evenodd" d="M898.7,313.7h169.4V292.1H898.7v21.6Z" class="g0"/>
<path d="M906.6,313.7h153.6V292H906.6v21.7Z" class="g0"/>
<path fill-rule="evenodd" d="M1068.8,313.7h169.4V292.1H1068.8v21.6Z" class="g0"/>
<path d="M1076.7,313.7h153.7V292H1076.7v21.7Z" class="g0"/>
<path d="M47.1,292.1h.7v-.8h-.7v.8Z" class="g1"/>
<path d="M47.1,292.1h.7v-.8h-.7v.8Z" class="g1"/>
<path d="M47.8,292.1H217.2v-.8H47.8v.8Z" class="g1"/>
<path d="M217.2,292.1h.8v-.8h-.8v.8Z" class="g1"/>
<path d="M218,292.1H387.4v-.8H218v.8Z" class="g1"/>
<path d="M387.4,292.1h.7v-.8h-.7v.8Z" class="g1"/>
<path d="M388.1,292.1H557.5v-.8H388.1v.8Z" class="g1"/>
<path d="M557.5,292.1h.8v-.8h-.8v.8Z" class="g1"/>
<path d="M558.2,292.1H727.8v-.8H558.2v.8Z" class="g1"/>
<path d="M727.8,292.1h.8v-.8h-.8v.8Z" class="g1"/>
<path d="M728.6,292.1H898v-.8H728.6v.8Z" class="g1"/>
<path d="M898,292.1h.7v-.8H898v.8Z" class="g1"/>
<path d="M898.7,292.1h169.4v-.8H898.7v.8Z" class="g1"/>
<path d="M1068.1,292.1h.7v-.8h-.7v.8Z" class="g1"/>
<path d="M1068.8,292.1h169.4v-.8H1068.8v.8Z" class="g1"/>
<path d="M1238.2,292.1h.8v-.8h-.8v.8Z" class="g1"/>
<path d="M1238.2,292.1h.8v-.8h-.8v.8Z" class="g1"/>
<path d="M47.1,313.7h.7V292h-.7v21.7Z" class="g1"/>
<path d="M217.2,313.7h.8V292h-.8v21.7Z" class="g1"/>
<path d="M387.4,313.7h.7V292h-.7v21.7Z" class="g1"/>
<path d="M557.5,313.7h.8V292h-.8v21.7Z" class="g1"/>
<path d="M727.8,313.7h.8V292h-.8v21.7Z" class="g1"/>
<path d="M898,313.7h.7V292H898v21.7Z" class="g1"/>
<path d="M1068.1,313.7h.7V292h-.7v21.7Z" class="g1"/>
<path d="M1238.2,313.7h.8V292h-.8v21.7Z" class="g1"/>
<path d="M47.1,314.4h.7v-.7h-.7v.7Z" class="g1"/>
<path d="M47.8,314.4H217.2v-.7H47.8v.7Z" class="g1"/>
<path d="M217.2,314.4h.8v-.7h-.8v.7Z" class="g1"/>
<path d="M218,314.4H387.4v-.7H218v.7Z" class="g1"/>
<path d="M387.4,314.4h.7v-.7h-.7v.7Z" class="g1"/>
<path d="M388.1,314.4H557.5v-.7H388.1v.7Z" class="g1"/>
<path d="M557.5,314.4h.8v-.7h-.8v.7Z" class="g1"/>
<path d="M558.2,314.4H727.8v-.7H558.2v.7Z" class="g1"/>
<path d="M727.8,314.4h.8v-.7h-.8v.7Z" class="g1"/>
<path d="M728.6,314.4H898v-.7H728.6v.7Z" class="g1"/>
<path d="M898,314.4h.7v-.7H898v.7Z" class="g1"/>
<path d="M898.7,314.4h169.4v-.7H898.7v.7Z" class="g1"/>
<path d="M1068.1,314.4h.7v-.7h-.7v.7Z" class="g1"/>
<path d="M1068.8,314.4h169.4v-.7H1068.8v.7Z" class="g1"/>
<path d="M1238.2,314.4h.8v-.7h-.8v.7Z" class="g1"/>
<path d="M47.1,336.2h.7V314.4h-.7v21.8Z" class="g1"/>
<path d="M217.2,336.2h.8V314.4h-.8v21.8Z" class="g1"/>
<path d="M387.4,336.2h.7V314.4h-.7v21.8Z" class="g1"/>
<path d="M557.5,336.2h.8V314.4h-.8v21.8Z" class="g1"/>
<path d="M727.8,336.2h.8V314.4h-.8v21.8Z" class="g1"/>
<path d="M898,336.2h.7V314.4H898v21.8Z" class="g1"/>
<path d="M1068.1,336.2h.7V314.4h-.7v21.8Z" class="g1"/>
<path d="M1238.2,336.2h.8V314.4h-.8v21.8Z" class="g1"/>
<path d="M47.1,337h.7v-.8h-.7v.8Z" class="g1"/>
<path d="M47.8,337H217.2v-.8H47.8v.8Z" class="g1"/>
<path d="M217.2,337h.8v-.8h-.8v.8Z" class="g1"/>
<path d="M218,337H387.4v-.8H218v.8Z" class="g1"/>
<path d="M387.4,337h.7v-.8h-.7v.8Z" class="g1"/>
<path d="M388.1,337H557.5v-.8H388.1v.8Z" class="g1"/>
<path d="M557.5,337h.8v-.8h-.8v.8Z" class="g1"/>
<path d="M558.2,337H727.8v-.8H558.2v.8Z" class="g1"/>
<path d="M727.8,337h.8v-.8h-.8v.8Z" class="g1"/>
<path d="M728.6,337H898v-.8H728.6v.8Z" class="g1"/>
<path d="M898,337h.7v-.8H898v.8Z" class="g1"/>
<path d="M898.7,337h169.4v-.8H898.7v.8Z" class="g1"/>
<path d="M1068.1,337h.7v-.8h-.7v.8Z" class="g1"/>
<path d="M1068.8,337h169.4v-.8H1068.8v.8Z" class="g1"/>
<path d="M1238.2,337h.8v-.8h-.8v.8Z" class="g1"/>
<path d="M47.1,358.6h.7V337h-.7v21.6Z" class="g1"/>
<path d="M47.1,359.3h.7v-.7h-.7v.7Z" class="g1"/>
<path d="M47.1,359.3h.7v-.7h-.7v.7Z" class="g1"/>
<path d="M47.8,359.3H217.2v-.7H47.8v.7Z" class="g1"/>
<path d="M217.2,358.6h.8V337h-.8v21.6Z" class="g1"/>
<path d="M217.2,359.3h.8v-.7h-.8v.7Z" class="g1"/>
<path d="M218,359.3H387.4v-.7H218v.7Z" class="g1"/>
<path d="M387.4,358.6h.7V337h-.7v21.6Z" class="g1"/>
<path d="M387.4,359.3h.7v-.7h-.7v.7Z" class="g1"/>
<path d="M388.1,359.3H557.5v-.7H388.1v.7Z" class="g1"/>
<path d="M557.5,358.6h.8V337h-.8v21.6Z" class="g1"/>
<path d="M557.5,359.3h.8v-.7h-.8v.7Z" class="g1"/>
<path d="M558.2,359.3H727.8v-.7H558.2v.7Z" class="g1"/>
<path d="M727.8,358.6h.8V337h-.8v21.6Z" class="g1"/>
<path d="M727.8,359.3h.8v-.7h-.8v.7Z" class="g1"/>
<path d="M728.6,359.3H898v-.7H728.6v.7Z" class="g1"/>
<path d="M898,358.6h.7V337H898v21.6Z" class="g1"/>
<path d="M898,359.3h.7v-.7H898v.7Z" class="g1"/>
<path d="M898.7,359.3h169.4v-.7H898.7v.7Z" class="g1"/>
<path d="M1068.1,358.6h.7V337h-.7v21.6Z" class="g1"/>
<path d="M1068.1,359.3h.7v-.7h-.7v.7Z" class="g1"/>
<path d="M1068.8,359.3h169.4v-.7H1068.8v.7Z" class="g1"/>
<path d="M1238.2,358.6h.8V337h-.8v21.6Z" class="g1"/>
<path d="M1238.2,359.3h.8v-.7h-.8v.7Z" class="g1"/>
<path d="M1238.2,359.3h.8v-.7h-.8v.7Z" class="g1"/>
<image clip-path="url(#c0)" preserveAspectRatio="none" x="122" y="292" width="21" height="22" xlink:href="img/1.png"/>
<image clip-path="url(#c1)" preserveAspectRatio="none" x="292" y="292" width="22" height="22" xlink:href="img/2.png"/>
<image clip-path="url(#c2)" preserveAspectRatio="none" x="462" y="292" width="22" height="22" xlink:href="img/3.png"/>
<image clip-path="url(#c3)" preserveAspectRatio="none" x="632" y="292" width="22" height="22" xlink:href="img/4.png"/>
<image clip-path="url(#c4)" preserveAspectRatio="none" x="802" y="292" width="22" height="22" xlink:href="img/5.png"/>
<image clip-path="url(#c5)" preserveAspectRatio="none" x="973" y="292" width="21" height="22" xlink:href="img/6.png"/>
<image clip-path="url(#c6)" preserveAspectRatio="none" x="1143" y="292" width="21" height="22" xlink:href="img/7.png"/>
</svg>