<?xml version="1.0" encoding="UTF-8" standalone="no"?>
<!DOCTYPE svg PUBLIC "-//W3C//DTD SVG 1.1//EN"
"http://www.w3.org/Graphics/SVG/1.1/DTD/svg11.dtd">
<svg viewBox="0 0 1286 909" version="1.1" xmlns="http://www.w3.org/2000/svg" xmlns:xlink="http://www.w3.org/1999/xlink">
<defs>
<style type="text/css"><![CDATA[
.g0{
}
]]></style>
</defs>
<path d="M47.1,44h.7v-.7h-.7V44Z" class="g0"/>
<path d="M47.1,44h.7v-.7h-.7V44Z" class="g0"/>
<path d="M47.8,44H274.1v-.7H47.8V44Z" class="g0"/>
<path d="M274.1,44h.7v-.7h-.7V44Z" class="g0"/>
<path d="M274.8,44H599.1v-.7H274.8V44Z" class="g0"/>
<path d="M599.1,44h.8v-.7h-.8V44Z" class="g0"/>
<path d="M599.9,44h638.3v-.7H599.9V44Z" class="g0"/>
<path d="M1238.2,44h.8v-.7h-.8V44Z" class="g0"/>
<path d="M1238.2,44h.8v-.7h-.8V44Z" class="g0"/>
<path d="M47.1,114.4h.7V44h-.7v70.4Z" class="g0"/>
<path d="M274.1,114.4h.7V44h-.7v70.4Z" class="g0"/>
<path d="M599.1,114.4h.8V44h-.8v70.4Z" class="g0"/>
<path d="M1238.2,114.4h.8V44h-.8v70.4Z" class="g0"/>
<path d="M47.1,115.1h.7v-.7h-.7v.7Z" class="g0"/>
<path d="M47.8,115.1H274.1v-.7H47.8v.7Z" class="g0"/>
<path d="M274.1,115.1h.7v-.7h-.7v.7Z" class="g0"/>
<path d="M274.8,115.1H599.1v-.7H274.8v.7Z" class="g0"/>
<path d="M599.1,115.1h.8v-.7h-.8v.7Z" class="g0"/>
<path d="M599.9,115.1h638.3v-.7H599.9v.7Z" class="g0"/>
<path d="M1238.2,115.1h.8v-.7h-.8v.7Z" class="g0"/>
<path d="M47.1,167.8h.7V115.1h-.7v52.7Z" class="g0"/>
<path d="M274.1,167.8h.7V115.1h-.7v52.7Z" class="g0"/>
<path d="M599.1,167.8h.8V115.1h-.8v52.7Z" class="g0"/>
<path d="M1238.2,167.8h.8V115.1h-.8v52.7Z" class="g0"/>
<path d="M47.1,168.5h.7v-.8h-.7v.8Z" class="g0"/>
<path d="M47.8,168.5H274.1v-.8H47.8v.8Z" class="g0"/>
<path d="M274.1,168.5h.7v-.8h-.7v.8Z" class="g0"/>
<path d="M274.8,168.5H599.1v-.8H274.8v.8Z" class="g0"/>
<path d="M599.1,168.5h.8v-.8h-.8v.8Z" class="g0"/>
<path d="M599.9,168.5h638.3v-.8H599.9v.8Z" class="g0"/>
<path d="M1238.2,168.5h.8v-.8h-.8v.8Z" class="g0"/>
<path d="M47.1,238.9h.7V168.5h-.7v70.4Z" class="g0"/>
<path d="M274.1,238.9h.7V168.5h-.7v70.4Z" class="g0"/>
<path d="M599.1,238.9h.8V168.5h-.8v70.4Z" class="g0"/>
<path d="M1238.2,238.9h.8V168.5h-.8v70.4Z" class="g0"/>
<path d="M47.1,239.6h.7v-.7h-.7v.7Z" class="g0"/>
<path d="M47.8,239.6H274.1v-.7H47.8v.7Z" class="g0"/>
<path d="M274.1,239.6h.7v-.7h-.7v.7Z" class="g0"/>
<path d="M274.8,239.6H599.1v-.7H274.8v.7Z" class="g0"/>
<path d="M599.1,239.6h.8v-.7h-.8v.7Z" class="g0"/>
<path d="M599.9,239.6h638.3v-.7H599.9v.7Z" class="g0"/>
<path d="M1238.2,239.6h.8v-.7h-.8v.7Z" class="g0"/>
<path d="M47.1,292.2h.7V239.6h-.7v52.6Z" class="g0"/>
<path d="M274.1,292.2h.7V239.6h-.7v52.6Z" class="g0"/>
<path d="M599.1,292.2h.8V239.6h-.8v52.6Z" class="g0"/>
<path d="M1238.2,292.2h.8V239.6h-.8v52.6Z" class="g0"/>
<path d="M47.1,293h.7v-.8h-.7v.8Z" class="g0"/>
<path d="M47.8,293H274.1v-.8H47.8v.8Z" class="g0"/>
<path d="M274.1,293h.7v-.8h-.7v.8Z" class="g0"/>
<path d="M274.8,293H599.1v-.8H274.8v.8Z" class="g0"/>
<path d="M599.1,293h.8v-.8h-.8v.8Z" class="g0"/>
<path d="M599.9,293h638.3v-.8H599.9v.8Z" class="g0"/>
<path d="M1238.2,293h.8v-.8h-.8v.8Z" class="g0"/>
<path d="M47.1,345.8h.7V293h-.7v52.8Z" class="g0"/>
<path d="M274.1,345.8h.7V293h-.7v52.8Z" class="g0"/>
<path d="M599.1,345.8h.8V293h-.8v52.8Z" class="g0"/>
<path d="M1238.2,345.8h.8V293h-.8v52.8Z" class="g0"/>
<path d="M47.1,346.5h.7v-.7h-.7v.7Z" class="g0"/>
<path d="M47.8,346.5H274.1v-.7H47.8v.7Z" class="g0"/>
<path d="M274.1,346.5h.7v-.7h-.7v.7Z" class="g0"/>
<path d="M274.8,346.5H599.1v-.7H274.8v.7Z" class="g0"/>
<path d="M599.1,346.5h.8v-.7h-.8v.7Z" class="g0"/>
<path d="M599.9,346.5h638.3v-.7H599.9v.7Z" class="g0"/>
<path d="M1238.2,346.5h.8v-.7h-.8v.7Z" class="g0"/>
<path d="M47.1,399.3h.7V346.5h-.7v52.8Z" class="g0"/>
<path d="M274.1,399.3h.7V346.5h-.7v52.8Z" class="g0"/>
<path d="M599.1,399.3h.8V346.5h-.8v52.8Z" class="g0"/>
<path d="M1238.2,399.3h.8V346.5h-.8v52.8Z" class="g0"/>
<path d="M47.1,400h.7v-.7h-.7v.7Z" class="g0"/>
<path d="M47.8,400H274.1v-.7H47.8v.7Z" class="g0"/>
<path d="M274.1,400h.7v-.7h-.7v.7Z" class="g0"/>
<path d="M274.8,400H599.1v-.7H274.8v.7Z" class="g0"/>
<path d="M599.1,400h.8v-.7h-.8v.7Z" class="g0"/>
<path d="M599.9,400h638.3v-.7H599.9v.7Z" class="g0"/>
<path d="M1238.2,400h.8v-.7h-.8v.7Z" class="g0"/>
<path d="M47.1,452.7h.7V400h-.7v52.7Z" class="g0"/>
<path d="M274.1,452.7h.7V400h-.7v52.7Z" class="g0"/>
<path d="M599.1,452.7h.8V400h-.8v52.7Z" class="g0"/>
<path d="M1238.2,452.7h.8V400h-.8v52.7Z" class="g0"/>
<path d="M47.1,453.4h.7v-.8h-.7v.8Z" class="g0"/>
<path d="M47.8,453.4H274.1v-.8H47.8v.8Z" class="g0"/>
<path d="M274.1,453.4h.7v-.8h-.7v.8Z" class="g0"/>
<path d="M274.8,453.4H599.1v-.8H274.8v.8Z" class="g0"/>
<path d="M599.1,453.4h.8v-.8h-.8v.8Z" class="g0"/>
<path d="M599.9,453.4h638.3v-.8H599.9v.8Z" class="g0"/>
<path d="M1238.2,453.4h.8v-.8h-.8v.8Z" class="g0"/>
<path d="M47.1,523.8h.7V453.4h-.7v70.4Z" class="g0"/>
<path d="M274.1,523.8h.7V453.4h-.7v70.4Z" class="g0"/>
<path d="M599.1,523.8h.8V453.4h-.8v70.4Z" class="g0"/>
<path d="M1238.2,523.8h.8V453.4h-.8v70.4Z" class="g0"/>
<path d="M47.1,524.5h.7v-.7h-.7v.7Z" class="g0"/>
<path d="M47.8,524.5H274.1v-.7H47.8v.7Z" class="g0"/>
<path d="M274.1,524.5h.7v-.7h-.7v.7Z" class="g0"/>
<path d="M274.8,524.5H599.1v-.7H274.8v.7Z" class="g0"/>
<path d="M599.1,524.5h.8v-.7h-.8v.7Z" class="g0"/>
<path d="M599.9,524.5h638.3v-.7H599.9v.7Z" class="g0"/>
<path d="M1238.2,524.5h.8v-.7h-.8v.7Z" class="g0"/>
<path d="M47.1,559.7h.7V524.5h-.7v35.2Z" class="g0"/>
<path d="M274.1,559.7h.7V524.5h-.7v35.2Z" class="g0"/>
<path d="M599.1,559.7h.8V524.5h-.8v35.2Z" class="g0"/>
<path d="M1238.2,559.7h.8V524.5h-.8v35.2Z" class="g0"/>
<path d="M47.1,560.5h.7v-.8h-.7v.8Z" class="g0"/>
<path d="M47.8,560.5H274.1v-.8H47.8v.8Z" class="g0"/>
<path d="M274.1,560.5h.7v-.8h-.7v.8Z" class="g0"/>
<path d="M274.8,560.5H599.1v-.8H274.8v.8Z" class="g0"/>
<path d="M599.1,560.5h.8v-.8h-.8v.8Z" class="g0"/>
<path d="M599.9,560.5h638.3v-.8H599.9v.8Z" class="g0"/>
<path d="M1238.2,560.5h.8v-.8h-.8v.8Z" class="g0"/>
<path d="M47.1,630.7h.7V560.4h-.7v70.3Z" class="g0"/>
<path d="M274.1,630.7h.7V560.4h-.7v70.3Z" class="g0"/>
<path d="M599.1,630.7h.8V560.4h-.8v70.3Z" class="g0"/>
<path d="M1238.2,630.7h.8V560.4h-.8v70.3Z" class="g0"/>
<path d="M47.1,631.4h.7v-.7h-.7v.7Z" class="g0"/>
<path d="M47.8,631.4H274.1v-.7H47.8v.7Z" class="g0"/>
<path d="M274.1,631.4h.7v-.7h-.7v.7Z" class="g0"/>
<path d="M274.8,631.4H599.1v-.7H274.8v.7Z" class="g0"/>
<path d="M599.1,631.4h.8v-.7h-.8v.7Z" class="g0"/>
<path d="M599.9,631.4h638.3v-.7H599.9v.7Z" class="g0"/>
<path d="M1238.2,631.4h.8v-.7h-.8v.7Z" class="g0"/>
<path d="M47.1,684.2h.7V631.4h-.7v52.8Z" class="g0"/>
<path d="M47.1,684.9h.7v-.7h-.7v.7Z" class="g0"/>
<path d="M47.1,684.9h.7v-.7h-.7v.7Z" class="g0"/>
<path d="M47.8,684.9H274.1v-.7H47.8v.7Z" class="g0"/>
<path d="M274.1,684.2h.7V631.4h-.7v52.8Z" class="g0"/>
<path d="M274.1,684.9h.7v-.7h-.7v.7Z" class="g0"/>
<path d="M274.8,684.9H599.1v-.7H274.8v.7Z" class="g0"/>
<path d="M599.1,684.2h.8V631.4h-.8v52.8Z" class="g0"/>
<path d="M599.1,684.9h.8v-.7h-.8v.7Z" class="g0"/>
<path d="M599.9,684.9h638.3v-.7H599.9v.7Z" class="g0"/>
<path d="M1238.2,684.2h.8V631.4h-.8v52.8Z" class="g0"/>
<path d="M1238.2,684.9h.8v-.7h-.8v.7Z" class="g0"/>
<path d="M1238.2,684.9h.8v-.7h-.8v.7Z" class="g0"/>
</svg>