<?xml version="1.0" encoding="UTF-8" standalone="no"?>
<!DOCTYPE svg PUBLIC "-//W3C//DTD SVG 1.1//EN"
"http://www.w3.org/Graphics/SVG/1.1/DTD/svg11.dtd">
<svg viewBox="0 0 1286 909" version="1.1" xmlns="http://www.w3.org/2000/svg" xmlns:xlink="http://www.w3.org/1999/xlink">
<defs>
<style type="text/css"><![CDATA[
.g0_2{
}
.g1_2{
fill: #D9D9D9;
}
]]></style>
</defs>
<path d="M47.1,44h.7v-.7h-.7V44Z" class="g0_2"/>
<path d="M47.1,44h.7v-.7h-.7V44Z" class="g0_2"/>
<path d="M47.8,44h64v-.7h-64V44Z" class="g0_2"/>
<path d="M111.8,44h.8v-.7h-.8V44Z" class="g0_2"/>
<path d="M112.6,44H923.8v-.7H112.6V44Z" class="g0_2"/>
<path d="M923.8,44h.7v-.7h-.7V44Z" class="g0_2"/>
<path d="M924.5,44h313.7v-.7H924.5V44Z" class="g0_2"/>
<path d="M1238.2,44h.8v-.7h-.8V44Z" class="g0_2"/>
<path d="M1238.2,44h.8v-.7h-.8V44Z" class="g0_2"/>
<path d="M47.1,79.2h.7V44h-.7V79.2Z" class="g0_2"/>
<path d="M111.8,79.2h.8V44h-.8V79.2Z" class="g0_2"/>
<path d="M923.8,79.2h.7V44h-.7V79.2Z" class="g0_2"/>
<path d="M1238.2,79.2h.8V44h-.8V79.2Z" class="g0_2"/>
<path d="M47.1,79.9h.7v-.7h-.7v.7Z" class="g0_2"/>
<path d="M47.8,79.9h64v-.7h-64v.7Z" class="g0_2"/>
<path d="M111.8,79.9h.8v-.7h-.8v.7Z" class="g0_2"/>
<path d="M112.6,79.9H923.8v-.7H112.6v.7Z" class="g0_2"/>
<path d="M923.8,79.9h.7v-.7h-.7v.7Z" class="g0_2"/>
<path d="M924.5,79.9h313.7v-.7H924.5v.7Z" class="g0_2"/>
<path d="M1238.2,79.9h.8v-.7h-.8v.7Z" class="g0_2"/>
<path d="M47.1,101.8h.7V79.9h-.7v21.9Z" class="g0_2"/>
<path d="M111.8,101.8h.8V79.9h-.8v21.9Z" class="g0_2"/>
<path d="M923.8,101.8h.7V79.9h-.7v21.9Z" class="g0_2"/>
<path d="M1238.2,101.8h.8V79.9h-.8v21.9Z" class="g0_2"/>
<path d="M47.1,102.5h.7v-.8h-.7v.8Z" class="g0_2"/>
<path d="M47.8,102.5h64v-.8h-64v.8Z" class="g0_2"/>
<path d="M111.8,102.5h.8v-.8h-.8v.8Z" class="g0_2"/>
<path d="M112.6,102.5H923.8v-.8H112.6v.8Z" class="g0_2"/>
<path d="M923.8,102.5h.7v-.8h-.7v.8Z" class="g0_2"/>
<path d="M924.5,102.5h313.7v-.8H924.5v.8Z" class="g0_2"/>
<path d="M1238.2,102.5h.8v-.8h-.8v.8Z" class="g0_2"/>
<path d="M47.1,137.5h.7v-35h-.7v35Z" class="g0_2"/>
<path d="M111.8,137.5h.8v-35h-.8v35Z" class="g0_2"/>
<path d="M923.8,137.5h.7v-35h-.7v35Z" class="g0_2"/>
<path d="M1238.2,137.5h.8v-35h-.8v35Z" class="g0_2"/>
<path d="M47.1,138.2h.7v-.7h-.7v.7Z" class="g0_2"/>
<path d="M47.8,138.2h64v-.7h-64v.7Z" class="g0_2"/>
<path d="M111.8,138.2h.8v-.7h-.8v.7Z" class="g0_2"/>
<path d="M112.6,138.2H923.8v-.7H112.6v.7Z" class="g0_2"/>
<path d="M923.8,138.2h.7v-.7h-.7v.7Z" class="g0_2"/>
<path d="M924.5,138.2h313.7v-.7H924.5v.7Z" class="g0_2"/>
<path d="M1238.2,138.2h.8v-.7h-.8v.7Z" class="g0_2"/>
<path d="M47.1,160.1h.7V138.2h-.7v21.9Z" class="g0_2"/>
<path d="M111.8,160.1h.8V138.2h-.8v21.9Z" class="g0_2"/>
<path d="M923.8,160.1h.7V138.2h-.7v21.9Z" class="g0_2"/>
<path d="M1238.2,160.1h.8V138.2h-.8v21.9Z" class="g0_2"/>
<path d="M47.1,160.8h.7V160h-.7v.8Z" class="g0_2"/>
<path d="M47.8,160.8h64V160h-64v.8Z" class="g0_2"/>
<path d="M111.8,160.8h.8V160h-.8v.8Z" class="g0_2"/>
<path d="M112.6,160.8H923.8V160H112.6v.8Z" class="g0_2"/>
<path d="M923.8,160.8h.7V160h-.7v.8Z" class="g0_2"/>
<path d="M924.5,160.8h313.7V160H924.5v.8Z" class="g0_2"/>
<path d="M1238.2,160.8h.8V160h-.8v.8Z" class="g0_2"/>
<path d="M47.1,196h.7V160.8h-.7V196Z" class="g0_2"/>
<path d="M111.8,196h.8V160.8h-.8V196Z" class="g0_2"/>
<path d="M923.8,196h.7V160.8h-.7V196Z" class="g0_2"/>
<path d="M1238.2,196h.8V160.8h-.8V196Z" class="g0_2"/>
<path d="M47.1,196.7h.7V196h-.7v.7Z" class="g0_2"/>
<path d="M47.8,196.7h64V196h-64v.7Z" class="g0_2"/>
<path d="M111.8,196.7h.8V196h-.8v.7Z" class="g0_2"/>
<path d="M112.6,196.7H923.8V196H112.6v.7Z" class="g0_2"/>
<path d="M923.8,196.7h.7V196h-.7v.7Z" class="g0_2"/>
<path d="M924.5,196.7h313.7V196H924.5v.7Z" class="g0_2"/>
<path d="M1238.2,196.7h.8V196h-.8v.7Z" class="g0_2"/>
<path d="M47.1,231.9h.7V196.7h-.7v35.2Z" class="g0_2"/>
<path d="M111.8,231.9h.8V196.7h-.8v35.2Z" class="g0_2"/>
<path d="M923.8,231.9h.7V196.7h-.7v35.2Z" class="g0_2"/>
<path d="M1238.2,231.9h.8V196.7h-.8v35.2Z" class="g0_2"/>
<path d="M47.1,232.7h.7v-.8h-.7v.8Z" class="g0_2"/>
<path d="M47.8,232.7h64v-.8h-64v.8Z" class="g0_2"/>
<path d="M111.8,232.7h.8v-.8h-.8v.8Z" class="g0_2"/>
<path d="M112.6,232.7H923.8v-.8H112.6v.8Z" class="g0_2"/>
<path d="M923.8,232.7h.7v-.8h-.7v.8Z" class="g0_2"/>
<path d="M924.5,232.7h313.7v-.8H924.5v.8Z" class="g0_2"/>
<path d="M1238.2,232.7h.8v-.8h-.8v.8Z" class="g0_2"/>
<path d="M47.1,267.7h.7v-35h-.7v35Z" class="g0_2"/>
<path d="M111.8,267.7h.8v-35h-.8v35Z" class="g0_2"/>
<path d="M923.8,267.7h.7v-35h-.7v35Z" class="g0_2"/>
<path d="M1238.2,267.7h.8v-35h-.8v35Z" class="g0_2"/>
<path d="M47.1,268.4h.7v-.7h-.7v.7Z" class="g0_2"/>
<path d="M47.8,268.4h64v-.7h-64v.7Z" class="g0_2"/>
<path d="M111.8,268.4h.8v-.7h-.8v.7Z" class="g0_2"/>
<path d="M112.6,268.4H923.8v-.7H112.6v.7Z" class="g0_2"/>
<path d="M923.8,268.4h.7v-.7h-.7v.7Z" class="g0_2"/>
<path d="M924.5,268.4h313.7v-.7H924.5v.7Z" class="g0_2"/>
<path d="M1238.2,268.4h.8v-.7h-.8v.7Z" class="g0_2"/>
<path d="M47.1,290.2h.7V268.4h-.7v21.8Z" class="g0_2"/>
<path d="M111.8,290.2h.8V268.4h-.8v21.8Z" class="g0_2"/>
<path d="M923.8,290.2h.7V268.4h-.7v21.8Z" class="g0_2"/>
<path d="M1238.2,290.2h.8V268.4h-.8v21.8Z" class="g0_2"/>
<path d="M47.1,291h.7v-.8h-.7v.8Z" class="g0_2"/>
<path d="M47.8,291h64v-.8h-64v.8Z" class="g0_2"/>
<path d="M111.8,291h.8v-.8h-.8v.8Z" class="g0_2"/>
<path d="M112.6,291H923.8v-.8H112.6v.8Z" class="g0_2"/>
<path d="M923.8,291h.7v-.8h-.7v.8Z" class="g0_2"/>
<path d="M924.5,291h313.7v-.8H924.5v.8Z" class="g0_2"/>
<path d="M1238.2,291h.8v-.8h-.8v.8Z" class="g0_2"/>
<path d="M47.1,312.6h.7V290.9h-.7v21.7Z" class="g0_2"/>
<path d="M111.8,312.6h.8V290.9h-.8v21.7Z" class="g0_2"/>
<path d="M923.8,312.6h.7V290.9h-.7v21.7Z" class="g0_2"/>
<path d="M1238.2,312.6h.8V290.9h-.8v21.7Z" class="g0_2"/>
<path d="M47.1,313.3h.7v-.7h-.7v.7Z" class="g0_2"/>
<path d="M47.8,313.3h64v-.7h-64v.7Z" class="g0_2"/>
<path d="M111.8,313.3h.8v-.7h-.8v.7Z" class="g0_2"/>
<path d="M112.6,313.3H923.8v-.7H112.6v.7Z" class="g0_2"/>
<path d="M923.8,313.3h.7v-.7h-.7v.7Z" class="g0_2"/>
<path d="M924.5,313.3h313.7v-.7H924.5v.7Z" class="g0_2"/>
<path d="M1238.2,313.3h.8v-.7h-.8v.7Z" class="g0_2"/>
<path d="M47.1,335.1h.7V313.3h-.7v21.8Z" class="g0_2"/>
<path d="M47.1,335.9h.7v-.8h-.7v.8Z" class="g0_2"/>
<path d="M47.1,335.9h.7v-.8h-.7v.8Z" class="g0_2"/>
<path d="M47.8,335.9h64v-.8h-64v.8Z" class="g0_2"/>
<path d="M111.8,335.1h.8V313.3h-.8v21.8Z" class="g0_2"/>
<path d="M111.8,335.9h.8v-.8h-.8v.8Z" class="g0_2"/>
<path d="M112.6,335.9H923.8v-.8H112.6v.8Z" class="g0_2"/>
<path d="M923.8,335.1h.7V313.3h-.7v21.8Z" class="g0_2"/>
<path d="M923.8,335.9h.7v-.8h-.7v.8Z" class="g0_2"/>
<path d="M924.5,335.9h313.7v-.8H924.5v.8Z" class="g0_2"/>
<path d="M1238.2,335.1h.8V313.3h-.8v21.8Z" class="g0_2"/>
<path d="M1238.2,335.9h.8v-.8h-.8v.8Z" class="g0_2"/>
<path d="M1238.2,335.9h.8v-.8h-.8v.8Z" class="g0_2"/>
<path fill-rule="evenodd" d="M47.8,372.5h876V350.7H47.8v21.8Z" class="g1_2"/>
<path fill-rule="evenodd" d="M55.7,370.3H915.9V352.7H55.7v17.6Z" class="g1_2"/>
<path fill-rule="evenodd" d="M924.7,372.5h313.5V350.7H924.7v21.8Z" class="g1_2"/>
<path fill-rule="evenodd" d="M932.4,370.3h298V352.7h-298v17.6Z" class="g1_2"/>
<path d="M47.1,350.7h.7V350h-.7v.7Z" class="g0_2"/>
<path d="M47.1,350.7h.7V350h-.7v.7Z" class="g0_2"/>
<path d="M47.8,350.7h876V350H47.8v.7Z" class="g0_2"/>
<path d="M923.8,350.7h.7V350h-.7v.7Z" class="g0_2"/>
<path d="M924.5,350.7h313.7V350H924.5v.7Z" class="g0_2"/>
<path d="M1238.2,350.7h.8V350h-.8v.7Z" class="g0_2"/>
<path d="M1238.2,350.7h.8V350h-.8v.7Z" class="g0_2"/>
<path d="M47.1,372.5h.7V350.7h-.7v21.8Z" class="g0_2"/>
<path d="M923.8,372.5h.7V350.7h-.7v21.8Z" class="g0_2"/>
<path d="M1238.2,372.5h.8V350.7h-.8v21.8Z" class="g0_2"/>
<path fill-rule="evenodd" d="M47.8,394.9h75.4V373.3H47.8v21.6Z" class="g1_2"/>
<path fill-rule="evenodd" d="M55.7,392.9h59.6V375.3H55.7v17.6Z" class="g1_2"/>
<path fill-rule="evenodd" d="M123.9,394.9H923.8V373.3H123.9v21.6Z" class="g1_2"/>
<path fill-rule="evenodd" d="M131.8,392.9H915.9V375.3H131.8v17.6Z" class="g1_2"/>
<path fill-rule="evenodd" d="M924.7,394.9h313.5V373.3H924.7v21.6Z" class="g1_2"/>
<path fill-rule="evenodd" d="M932.4,392.9h298V375.3h-298v17.6Z" class="g1_2"/>
<path d="M47.1,373.3h.7v-.8h-.7v.8Z" class="g0_2"/>
<path d="M47.8,373.3h75.4v-.8H47.8v.8Z" class="g0_2"/>
<path d="M123.2,373.3h.7v-.8h-.7v.8Z" class="g0_2"/>
<path d="M123.9,373.3H923.8v-.8H123.9v.8Z" class="g0_2"/>
<path d="M923.8,373.3h.7v-.8h-.7v.8Z" class="g0_2"/>
<path d="M924.5,373.3h313.7v-.8H924.5v.8Z" class="g0_2"/>
<path d="M1238.2,373.3h.8v-.8h-.8v.8Z" class="g0_2"/>
<path d="M47.1,394.9h.7V373.3h-.7v21.6Z" class="g0_2"/>
<path d="M123.2,394.9h.7V373.3h-.7v21.6Z" class="g0_2"/>
<path d="M923.8,394.9h.7V373.3h-.7v21.6Z" class="g0_2"/>
<path d="M1238.2,394.9h.8V373.3h-.8v21.6Z" class="g0_2"/>
<path d="M47.1,395.6h.7v-.7h-.7v.7Z" class="g0_2"/>
<path d="M47.8,395.6h75.4v-.7H47.8v.7Z" class="g0_2"/>
<path d="M123.2,395.6h.7v-.7h-.7v.7Z" class="g0_2"/>
<path d="M123.9,395.6H923.8v-.7H123.9v.7Z" class="g0_2"/>
<path d="M923.8,395.6h.7v-.7h-.7v.7Z" class="g0_2"/>
<path d="M924.5,395.6h313.7v-.7H924.5v.7Z" class="g0_2"/>
<path d="M1238.2,395.6h.8v-.7h-.8v.7Z" class="g0_2"/>
<path d="M47.1,417.5h.7V395.6h-.7v21.9Z" class="g0_2"/>
<path d="M123.2,417.5h.7V395.6h-.7v21.9Z" class="g0_2"/>
<path d="M923.8,417.5h.7V395.6h-.7v21.9Z" class="g0_2"/>
<path d="M1238.2,417.5h.8V395.6h-.8v21.9Z" class="g0_2"/>
<path d="M47.1,418.2h.7v-.8h-.7v.8Z" class="g0_2"/>
<path d="M47.8,418.2h75.4v-.8H47.8v.8Z" class="g0_2"/>
<path d="M123.2,418.2h.7v-.8h-.7v.8Z" class="g0_2"/>
<path d="M123.9,418.2H923.8v-.8H123.9v.8Z" class="g0_2"/>
<path d="M923.8,418.2h.7v-.8h-.7v.8Z" class="g0_2"/>
<path d="M924.5,418.2h313.7v-.8H924.5v.8Z" class="g0_2"/>
<path d="M1238.2,418.2h.8v-.8h-.8v.8Z" class="g0_2"/>
<path d="M47.1,439.8h.7V418.2h-.7v21.6Z" class="g0_2"/>
<path d="M123.2,439.8h.7V418.2h-.7v21.6Z" class="g0_2"/>
<path d="M923.8,439.8h.7V418.2h-.7v21.6Z" class="g0_2"/>
<path d="M1238.2,439.8h.8V418.2h-.8v21.6Z" class="g0_2"/>
<path d="M47.1,440.6h.7v-.8h-.7v.8Z" class="g0_2"/>
<path d="M47.8,440.6h75.4v-.8H47.8v.8Z" class="g0_2"/>
<path d="M123.2,440.6h.7v-.8h-.7v.8Z" class="g0_2"/>
<path d="M123.9,440.6H923.8v-.8H123.9v.8Z" class="g0_2"/>
<path d="M923.8,440.6h.7v-.8h-.7v.8Z" class="g0_2"/>
<path d="M924.5,440.6h313.7v-.8H924.5v.8Z" class="g0_2"/>
<path d="M1238.2,440.6h.8v-.8h-.8v.8Z" class="g0_2"/>
<path d="M47.1,462.4h.7V440.6h-.7v21.8Z" class="g0_2"/>
<path d="M123.2,462.4h.7V440.6h-.7v21.8Z" class="g0_2"/>
<path d="M923.8,462.4h.7V440.6h-.7v21.8Z" class="g0_2"/>
<path d="M1238.2,462.4h.8V440.6h-.8v21.8Z" class="g0_2"/>
<path d="M47.1,463.1h.7v-.7h-.7v.7Z" class="g0_2"/>
<path d="M47.8,463.1h75.4v-.7H47.8v.7Z" class="g0_2"/>
<path d="M123.2,463.1h.7v-.7h-.7v.7Z" class="g0_2"/>
<path d="M123.9,463.1H923.8v-.7H123.9v.7Z" class="g0_2"/>
<path d="M923.8,463.1h.7v-.7h-.7v.7Z" class="g0_2"/>
<path d="M924.5,463.1h313.7v-.7H924.5v.7Z" class="g0_2"/>
<path d="M1238.2,463.1h.8v-.7h-.8v.7Z" class="g0_2"/>
<path d="M47.1,484.7h.7V463.1h-.7v21.6Z" class="g0_2"/>
<path d="M123.2,484.7h.7V463.1h-.7v21.6Z" class="g0_2"/>
<path d="M923.8,484.7h.7V463.1h-.7v21.6Z" class="g0_2"/>
<path d="M1238.2,484.7h.8V463.1h-.8v21.6Z" class="g0_2"/>
<path d="M47.1,485.5h.7v-.8h-.7v.8Z" class="g0_2"/>
<path d="M47.8,485.5h75.4v-.8H47.8v.8Z" class="g0_2"/>
<path d="M123.2,485.5h.7v-.8h-.7v.8Z" class="g0_2"/>
<path d="M123.9,485.5H923.8v-.8H123.9v.8Z" class="g0_2"/>
<path d="M923.8,485.5h.7v-.8h-.7v.8Z" class="g0_2"/>
<path d="M924.5,485.5h313.7v-.8H924.5v.8Z" class="g0_2"/>
<path d="M1238.2,485.5h.8v-.8h-.8v.8Z" class="g0_2"/>
<path d="M47.1,507.3h.7V485.5h-.7v21.8Z" class="g0_2"/>
<path d="M123.2,507.3h.7V485.5h-.7v21.8Z" class="g0_2"/>
<path d="M923.8,507.3h.7V485.5h-.7v21.8Z" class="g0_2"/>
<path d="M1238.2,507.3h.8V485.5h-.8v21.8Z" class="g0_2"/>
<path d="M47.1,508h.7v-.7h-.7v.7Z" class="g0_2"/>
<path d="M47.8,508h75.4v-.7H47.8v.7Z" class="g0_2"/>
<path d="M123.2,508h.7v-.7h-.7v.7Z" class="g0_2"/>
<path d="M123.9,508H923.8v-.7H123.9v.7Z" class="g0_2"/>
<path d="M923.8,508h.7v-.7h-.7v.7Z" class="g0_2"/>
<path d="M924.5,508h313.7v-.7H924.5v.7Z" class="g0_2"/>
<path d="M1238.2,508h.8v-.7h-.8v.7Z" class="g0_2"/>
<path d="M47.1,529.7h.7V508h-.7v21.7Z" class="g0_2"/>
<path d="M123.2,529.7h.7V508h-.7v21.7Z" class="g0_2"/>
<path d="M923.8,529.7h.7V508h-.7v21.7Z" class="g0_2"/>
<path d="M1238.2,529.7h.8V508h-.8v21.7Z" class="g0_2"/>
<path d="M47.1,530.4h.7v-.8h-.7v.8Z" class="g0_2"/>
<path d="M47.8,530.4h75.4v-.8H47.8v.8Z" class="g0_2"/>
<path d="M123.2,530.4h.7v-.8h-.7v.8Z" class="g0_2"/>
<path d="M123.9,530.4H923.8v-.8H123.9v.8Z" class="g0_2"/>
<path d="M923.8,530.4h.7v-.8h-.7v.8Z" class="g0_2"/>
<path d="M924.5,530.4h313.7v-.8H924.5v.8Z" class="g0_2"/>
<path d="M1238.2,530.4h.8v-.8h-.8v.8Z" class="g0_2"/>
<path d="M47.1,552.2h.7V530.4h-.7v21.8Z" class="g0_2"/>
<path d="M123.2,552.2h.7V530.4h-.7v21.8Z" class="g0_2"/>
<path d="M923.8,552.2h.7V530.4h-.7v21.8Z" class="g0_2"/>
<path d="M1238.2,552.2h.8V530.4h-.8v21.8Z" class="g0_2"/>
<path d="M47.1,552.9h.7v-.7h-.7v.7Z" class="g0_2"/>
<path d="M47.8,552.9h75.4v-.7H47.8v.7Z" class="g0_2"/>
<path d="M123.2,552.9h.7v-.7h-.7v.7Z" class="g0_2"/>
<path d="M123.9,552.9H923.8v-.7H123.9v.7Z" class="g0_2"/>
<path d="M923.8,552.9h.7v-.7h-.7v.7Z" class="g0_2"/>
<path d="M924.5,552.9h313.7v-.7H924.5v.7Z" class="g0_2"/>
<path d="M1238.2,552.9h.8v-.7h-.8v.7Z" class="g0_2"/>
<path d="M47.1,574.6h.7V552.9h-.7v21.7Z" class="g0_2"/>
<path d="M123.2,574.6h.7V552.9h-.7v21.7Z" class="g0_2"/>
<path d="M923.8,574.6h.7V552.9h-.7v21.7Z" class="g0_2"/>
<path d="M1238.2,574.6h.8V552.9h-.8v21.7Z" class="g0_2"/>
<path d="M47.1,575.3h.7v-.7h-.7v.7Z" class="g0_2"/>
<path d="M47.8,575.3h75.4v-.7H47.8v.7Z" class="g0_2"/>
<path d="M123.2,575.3h.7v-.7h-.7v.7Z" class="g0_2"/>
<path d="M123.9,575.3H923.8v-.7H123.9v.7Z" class="g0_2"/>
<path d="M923.8,575.3h.7v-.7h-.7v.7Z" class="g0_2"/>
<path d="M924.5,575.3h313.7v-.7H924.5v.7Z" class="g0_2"/>
<path d="M1238.2,575.3h.8v-.7h-.8v.7Z" class="g0_2"/>
<path d="M47.1,597.1h.7V575.3h-.7v21.8Z" class="g0_2"/>
<path d="M123.2,597.1h.7V575.3h-.7v21.8Z" class="g0_2"/>
<path d="M923.8,597.1h.7V575.3h-.7v21.8Z" class="g0_2"/>
<path d="M1238.2,597.1h.8V575.3h-.8v21.8Z" class="g0_2"/>
<path d="M47.1,597.9h.7v-.8h-.7v.8Z" class="g0_2"/>
<path d="M47.8,597.9h75.4v-.8H47.8v.8Z" class="g0_2"/>
<path d="M123.2,597.9h.7v-.8h-.7v.8Z" class="g0_2"/>
<path d="M123.9,597.9H923.8v-.8H123.9v.8Z" class="g0_2"/>
<path d="M923.8,597.9h.7v-.8h-.7v.8Z" class="g0_2"/>
<path d="M924.5,597.9h313.7v-.8H924.5v.8Z" class="g0_2"/>
<path d="M1238.2,597.9h.8v-.8h-.8v.8Z" class="g0_2"/>
<path d="M47.1,619.5h.7V597.8h-.7v21.7Z" class="g0_2"/>
<path d="M123.2,619.5h.7V597.8h-.7v21.7Z" class="g0_2"/>
<path d="M923.8,619.5h.7V597.8h-.7v21.7Z" class="g0_2"/>
<path d="M1238.2,619.5h.8V597.8h-.8v21.7Z" class="g0_2"/>
<path d="M47.1,620.2h.7v-.7h-.7v.7Z" class="g0_2"/>
<path d="M47.8,620.2h75.4v-.7H47.8v.7Z" class="g0_2"/>
<path d="M123.2,620.2h.7v-.7h-.7v.7Z" class="g0_2"/>
<path d="M123.9,620.2H923.8v-.7H123.9v.7Z" class="g0_2"/>
<path d="M923.8,620.2h.7v-.7h-.7v.7Z" class="g0_2"/>
<path d="M924.5,620.2h313.7v-.7H924.5v.7Z" class="g0_2"/>
<path d="M1238.2,620.2h.8v-.7h-.8v.7Z" class="g0_2"/>
<path d="M47.1,642h.7V620.2h-.7V642Z" class="g0_2"/>
<path d="M123.2,642h.7V620.2h-.7V642Z" class="g0_2"/>
<path d="M923.8,642h.7V620.2h-.7V642Z" class="g0_2"/>
<path d="M1238.2,642h.8V620.2h-.8V642Z" class="g0_2"/>
<path d="M47.1,642.8h.7V642h-.7v.8Z" class="g0_2"/>
<path d="M47.8,642.8h75.4V642H47.8v.8Z" class="g0_2"/>
<path d="M123.2,642.8h.7V642h-.7v.8Z" class="g0_2"/>
<path d="M123.9,642.8H923.8V642H123.9v.8Z" class="g0_2"/>
<path d="M923.8,642.8h.7V642h-.7v.8Z" class="g0_2"/>
<path d="M924.5,642.8h313.7V642H924.5v.8Z" class="g0_2"/>
<path d="M1238.2,642.8h.8V642h-.8v.8Z" class="g0_2"/>
<path d="M47.1,664.4h.7V642.8h-.7v21.6Z" class="g0_2"/>
<path d="M123.2,664.4h.7V642.8h-.7v21.6Z" class="g0_2"/>
<path d="M923.8,664.4h.7V642.8h-.7v21.6Z" class="g0_2"/>
<path d="M1238.2,664.4h.8V642.8h-.8v21.6Z" class="g0_2"/>
<path d="M47.1,665.1h.7v-.7h-.7v.7Z" class="g0_2"/>
<path d="M47.8,665.1h75.4v-.7H47.8v.7Z" class="g0_2"/>
<path d="M123.2,665.1h.7v-.7h-.7v.7Z" class="g0_2"/>
<path d="M123.9,665.1H923.8v-.7H123.9v.7Z" class="g0_2"/>
<path d="M923.8,665.1h.7v-.7h-.7v.7Z" class="g0_2"/>
<path d="M924.5,665.1h313.7v-.7H924.5v.7Z" class="g0_2"/>
<path d="M1238.2,665.1h.8v-.7h-.8v.7Z" class="g0_2"/>
<path d="M47.1,687h.7V665.1h-.7V687Z" class="g0_2"/>
<path d="M123.2,687h.7V665.1h-.7V687Z" class="g0_2"/>
<path d="M923.8,687h.7V665.1h-.7V687Z" class="g0_2"/>
<path d="M1238.2,687h.8V665.1h-.8V687Z" class="g0_2"/>
<path d="M47.1,687.7h.7v-.8h-.7v.8Z" class="g0_2"/>
<path d="M47.8,687.7h75.4v-.8H47.8v.8Z" class="g0_2"/>
<path d="M123.2,687.7h.7v-.8h-.7v.8Z" class="g0_2"/>
<path d="M123.9,687.7H923.8v-.8H123.9v.8Z" class="g0_2"/>
<path d="M923.8,687.7h.7v-.8h-.7v.8Z" class="g0_2"/>
<path d="M924.5,687.7h313.7v-.8H924.5v.8Z" class="g0_2"/>
<path d="M1238.2,687.7h.8v-.8h-.8v.8Z" class="g0_2"/>
<path d="M47.1,722.7h.7v-35h-.7v35Z" class="g0_2"/>
<path d="M123.2,722.7h.7v-35h-.7v35Z" class="g0_2"/>
<path d="M923.8,722.7h.7v-35h-.7v35Z" class="g0_2"/>
<path d="M1238.2,722.7h.8v-35h-.8v35Z" class="g0_2"/>
<path d="M47.1,723.4h.7v-.7h-.7v.7Z" class="g0_2"/>
<path d="M47.8,723.4h75.4v-.7H47.8v.7Z" class="g0_2"/>
<path d="M123.2,723.4h.7v-.7h-.7v.7Z" class="g0_2"/>
<path d="M123.9,723.4H923.8v-.7H123.9v.7Z" class="g0_2"/>
<path d="M923.8,723.4h.7v-.7h-.7v.7Z" class="g0_2"/>
<path d="M924.5,723.4h313.7v-.7H924.5v.7Z" class="g0_2"/>
<path d="M1238.2,723.4h.8v-.7h-.8v.7Z" class="g0_2"/>
<path d="M47.1,758.6h.7V723.4h-.7v35.2Z" class="g0_2"/>
<path d="M123.2,758.6h.7V723.4h-.7v35.2Z" class="g0_2"/>
<path d="M923.8,758.6h.7V723.4h-.7v35.2Z" class="g0_2"/>
<path d="M1238.2,758.6h.8V723.4h-.8v35.2Z" class="g0_2"/>
<path d="M47.1,759.4h.7v-.8h-.7v.8Z" class="g0_2"/>
<path d="M47.8,759.4h75.4v-.8H47.8v.8Z" class="g0_2"/>
<path d="M123.2,759.4h.7v-.8h-.7v.8Z" class="g0_2"/>
<path d="M123.9,759.4H923.8v-.8H123.9v.8Z" class="g0_2"/>
<path d="M923.8,759.4h.7v-.8h-.7v.8Z" class="g0_2"/>
<path d="M924.5,759.4h313.7v-.8H924.5v.8Z" class="g0_2"/>
<path d="M1238.2,759.4h.8v-.8h-.8v.8Z" class="g0_2"/>
<path d="M47.1,794.6h.7V759.4h-.7v35.2Z" class="g0_2"/>
<path d="M123.2,794.6h.7V759.4h-.7v35.2Z" class="g0_2"/>
<path d="M923.8,794.6h.7V759.4h-.7v35.2Z" class="g0_2"/>
<path d="M1238.2,794.6h.8V759.4h-.8v35.2Z" class="g0_2"/>
<path d="M47.1,795.3h.7v-.7h-.7v.7Z" class="g0_2"/>
<path d="M47.8,795.3h75.4v-.7H47.8v.7Z" class="g0_2"/>
<path d="M123.2,795.3h.7v-.7h-.7v.7Z" class="g0_2"/>
<path d="M123.9,795.3H923.8v-.7H123.9v.7Z" class="g0_2"/>
<path d="M923.8,795.3h.7v-.7h-.7v.7Z" class="g0_2"/>
<path d="M924.5,795.3h313.7v-.7H924.5v.7Z" class="g0_2"/>
<path d="M1238.2,795.3h.8v-.7h-.8v.7Z" class="g0_2"/>
<path d="M47.1,816.9h.7V795.3h-.7v21.6Z" class="g0_2"/>
<path d="M123.2,816.9h.7V795.3h-.7v21.6Z" class="g0_2"/>
<path d="M923.8,816.9h.7V795.3h-.7v21.6Z" class="g0_2"/>
<path d="M1238.2,816.9h.8V795.3h-.8v21.6Z" class="g0_2"/>
<path d="M47.1,817.7h.7v-.8h-.7v.8Z" class="g0_2"/>
<path d="M47.8,817.7h75.4v-.8H47.8v.8Z" class="g0_2"/>
<path d="M123.2,817.7h.7v-.8h-.7v.8Z" class="g0_2"/>
<path d="M123.9,817.7H923.8v-.8H123.9v.8Z" class="g0_2"/>
<path d="M923.8,817.7h.7v-.8h-.7v.8Z" class="g0_2"/>
<path d="M924.5,817.7h313.7v-.8H924.5v.8Z" class="g0_2"/>
<path d="M1238.2,817.7h.8v-.8h-.8v.8Z" class="g0_2"/>
<path d="M47.1,839.5h.7V817.7h-.7v21.8Z" class="g0_2"/>
<path d="M47.1,840.2h.7v-.7h-.7v.7Z" class="g0_2"/>
<path d="M47.1,840.2h.7v-.7h-.7v.7Z" class="g0_2"/>
<path d="M47.8,840.2h75.4v-.7H47.8v.7Z" class="g0_2"/>
<path d="M123.2,839.5h.7V817.7h-.7v21.8Z" class="g0_2"/>
<path d="M123.2,840.2h.7v-.7h-.7v.7Z" class="g0_2"/>
<path d="M123.9,840.2H923.8v-.7H123.9v.7Z" class="g0_2"/>
<path d="M923.8,839.5h.7V817.7h-.7v21.8Z" class="g0_2"/>
<path d="M923.8,840.2h.7v-.7h-.7v.7Z" class="g0_2"/>
<path d="M924.5,840.2h313.7v-.7H924.5v.7Z" class="g0_2"/>
<path d="M1238.2,839.5h.8V817.7h-.8v21.8Z" class="g0_2"/>
<path d="M1238.2,840.2h.8v-.7h-.8v.7Z" class="g0_2"/>
<path d="M1238.2,840.2h.8v-.7h-.8v.7Z" class="g0_2"/>
</svg>