<?xml version="1.0" encoding="UTF-8" standalone="no"?>
<!DOCTYPE svg PUBLIC "-//W3C//DTD SVG 1.1//EN"
"http://www.w3.org/Graphics/SVG/1.1/DTD/svg11.dtd">
<svg viewBox="0 0 1286 909" version="1.1" xmlns="http://www.w3.org/2000/svg" xmlns:xlink="http://www.w3.org/1999/xlink">
<defs>
<clipPath id="c0_1"><path d="M362.5,175.4V153.9h21.7v21.5Z"/></clipPath>
<clipPath id="c1_1"><path d="M495.6,175.4V153.9h21.7v21.5Z"/></clipPath>
<clipPath id="c2_1"><path d="M628.8,175.4V153.9h21.6v21.5Z"/></clipPath>
<clipPath id="c3_1"><path d="M761.9,175.4V153.9h21.6v21.5Z"/></clipPath>
<clipPath id="c4_1"><path d="M895,175.4V153.9h21.6v21.5Z"/></clipPath>
<clipPath id="c5_1"><path d="M1028.2,175.4V153.9h21.6v21.5Z"/></clipPath>
<clipPath id="c6_1"><path d="M1161.3,175.4V153.9h21.6v21.5Z"/></clipPath>
<clipPath id="c7_1"><path d="M362.5,242.9V221.3h21.7v21.6Z"/></clipPath>
<clipPath id="c8_1"><path d="M495.6,242.9V221.3h21.7v21.6Z"/></clipPath>
<clipPath id="c9_1"><path d="M628.8,242.9V221.3h21.6v21.6Z"/></clipPath>
<clipPath id="ca_1"><path d="M761.9,242.9V221.3h21.6v21.6Z"/></clipPath>
<clipPath id="cb_1"><path d="M895,242.9V221.3h21.6v21.6Z"/></clipPath>
<clipPath id="cc_1"><path d="M1028.2,242.9V221.3h21.6v21.6Z"/></clipPath>
<clipPath id="cd_1"><path d="M1161.3,242.9V221.3h21.6v21.6Z"/></clipPath>
<clipPath id="ce_1"><path d="M362.5,310.2V288.6h21.7v21.6Z"/></clipPath>
<clipPath id="cf_1"><path d="M495.6,310.2V288.6h21.7v21.6Z"/></clipPath>
<clipPath id="cg_1"><path d="M628.8,310.2V288.6h21.6v21.6Z"/></clipPath>
<clipPath id="ch_1"><path d="M761.9,310.2V288.6h21.6v21.6Z"/></clipPath>
<clipPath id="ci_1"><path d="M895,310.2V288.6h21.6v21.6Z"/></clipPath>
<clipPath id="cj_1"><path d="M1028.2,310.2V288.6h21.6v21.6Z"/></clipPath>
<clipPath id="ck_1"><path d="M1161.3,310.2V288.6h21.6v21.6Z"/></clipPath>
<clipPath id="cl_1"><path d="M362.5,377.6V356h21.7v21.6Z"/></clipPath>
<clipPath id="cm_1"><path d="M495.6,377.6V356h21.7v21.6Z"/></clipPath>
<clipPath id="cn_1"><path d="M628.8,377.6V356h21.6v21.6Z"/></clipPath>
<clipPath id="co_1"><path d="M761.9,377.6V356h21.6v21.6Z"/></clipPath>
<clipPath id="cp_1"><path d="M895,377.6V356h21.6v21.6Z"/></clipPath>
<clipPath id="cq_1"><path d="M1028.2,377.6V356h21.6v21.6Z"/></clipPath>
<clipPath id="cr_1"><path d="M1161.3,377.6V356h21.6v21.6Z"/></clipPath>
<clipPath id="cs_1"><path d="M362.5,445V423.4h21.7V445Z"/></clipPath>
<clipPath id="ct_1"><path d="M495.6,445V423.4h21.7V445Z"/></clipPath>
<clipPath id="cu_1"><path d="M628.8,445V423.4h21.6V445Z"/></clipPath>
<clipPath id="cv_1"><path d="M761.9,445V423.4h21.6V445Z"/></clipPath>
<clipPath id="cw_1"><path d="M895,445V423.4h21.6V445Z"/></clipPath>
<clipPath id="cx_1"><path d="M1028.2,445V423.4h21.6V445Z"/></clipPath>
<clipPath id="cy_1"><path d="M1161.3,445V423.4h21.6V445Z"/></clipPath>
<clipPath id="cz_1"><path d="M362.5,512.4V490.8h21.7v21.6Z"/></clipPath>
<clipPath id="c10_1"><path d="M495.6,512.4V490.8h21.7v21.6Z"/></clipPath>
<clipPath id="c11_1"><path d="M628.8,512.4V490.8h21.6v21.6Z"/></clipPath>
<clipPath id="c12_1"><path d="M761.9,512.4V490.8h21.6v21.6Z"/></clipPath>
<clipPath id="c13_1"><path d="M895,512.4V490.8h21.6v21.6Z"/></clipPath>
<clipPath id="c14_1"><path d="M1028.2,512.4V490.8h21.6v21.6Z"/></clipPath>
<clipPath id="c15_1"><path d="M1161.3,512.4V490.8h21.6v21.6Z"/></clipPath>
<clipPath id="c16_1"><path d="M362.5,579.7V558.1h21.7v21.6Z"/></clipPath>
<clipPath id="c17_1"><path d="M495.6,579.7V558.1h21.7v21.6Z"/></clipPath>
<clipPath id="c18_1"><path d="M628.8,579.7V558.1h21.6v21.6Z"/></clipPath>
<clipPath id="c19_1"><path d="M761.9,579.7V558.1h21.6v21.6Z"/></clipPath>
<clipPath id="c1a_1"><path d="M895,579.7V558.1h21.6v21.6Z"/></clipPath>
<clipPath id="c1b_1"><path d="M1028.2,579.7V558.1h21.6v21.6Z"/></clipPath>
<clipPath id="c1c_1"><path d="M1161.3,579.7V558.1h21.6v21.6Z"/></clipPath>
<clipPath id="c1d_1"><path d="M362.5,647.1V625.5h21.7v21.6Z"/></clipPath>
<clipPath id="c1e_1"><path d="M495.6,647.1V625.5h21.7v21.6Z"/></clipPath>
<clipPath id="c1f_1"><path d="M628.8,647.1V625.5h21.6v21.6Z"/></clipPath>
<clipPath id="c1g_1"><path d="M761.9,647.1V625.5h21.6v21.6Z"/></clipPath>
<clipPath id="c1h_1"><path d="M895,647.1V625.5h21.6v21.6Z"/></clipPath>
<clipPath id="c1i_1"><path d="M1028.2,647.1V625.5h21.6v21.6Z"/></clipPath>
<clipPath id="c1j_1"><path d="M1161.3,647.1V625.5h21.6v21.6Z"/></clipPath>
<clipPath id="c1k_1"><path d="M362.5,714.5V692.9h21.7v21.6Z"/></clipPath>
<clipPath id="c1l_1"><path d="M495.6,714.5V692.9h21.7v21.6Z"/></clipPath>
<clipPath id="c1m_1"><path d="M628.8,714.5V692.9h21.6v21.6Z"/></clipPath>
<clipPath id="c1n_1"><path d="M761.9,714.5V692.9h21.6v21.6Z"/></clipPath>
<clipPath id="c1o_1"><path d="M895,714.5V692.9h21.6v21.6Z"/></clipPath>
<clipPath id="c1p_1"><path d="M1028.2,714.5V692.9h21.6v21.6Z"/></clipPath>
<clipPath id="c1q_1"><path d="M1161.3,714.5V692.9h21.6v21.6Z"/></clipPath>
<clipPath id="c1r_1"><path d="M362.5,781.9V760.3h21.7v21.6Z"/></clipPath>
<clipPath id="c1s_1"><path d="M495.6,781.9V760.3h21.7v21.6Z"/></clipPath>
<clipPath id="c1t_1"><path d="M628.8,781.9V760.3h21.6v21.6Z"/></clipPath>
<clipPath id="c1u_1"><path d="M761.9,781.9V760.3h21.6v21.6Z"/></clipPath>
<clipPath id="c1v_1"><path d="M895,781.9V760.3h21.6v21.6Z"/></clipPath>
<clipPath id="c1w_1"><path d="M1028.2,781.9V760.3h21.6v21.6Z"/></clipPath>
<clipPath id="c1x_1"><path d="M1161.3,781.9V760.3h21.6v21.6Z"/></clipPath>
<style type="text/css"><![CDATA[
.g0_1{
fill: #F1F1F1;
}
.g1_1{
}
.g2_1{
fill: #FFFFFF;
}
]]></style>
</defs>
<path fill-rule="evenodd" d="M47.8,175.4H306.3V153.8H47.8v21.6Z" class="g0_1"/>
<path fill-rule="evenodd" d="M55.7,173.4H298.6V155.8H55.7v17.6Z" class="g0_1"/>
<path fill-rule="evenodd" d="M307.3,175.4H439.4V153.8H307.3v21.6Z" class="g0_1"/>
<path d="M315.2,175.4H431.6V153.8H315.2v21.6Z" class="g0_1"/>
<path fill-rule="evenodd" d="M440.2,175.4H572.7V153.8H440.2v21.6Z" class="g0_1"/>
<path d="M448.1,175.4H564.9V153.8H448.1v21.6Z" class="g0_1"/>
<path fill-rule="evenodd" d="M573.5,175.4H705.8V153.8H573.5v21.6Z" class="g0_1"/>
<path d="M581.3,175.4H698V153.8H581.3v21.6Z" class="g0_1"/>
<path fill-rule="evenodd" d="M706.6,175.4H838.9V153.8H706.6v21.6Z" class="g0_1"/>
<path d="M714.5,175.4H831.1V153.8H714.5v21.6Z" class="g0_1"/>
<path fill-rule="evenodd" d="M839.7,175.4H972V153.8H839.7v21.6Z" class="g0_1"/>
<path d="M847.6,175.4H964.2V153.8H847.6v21.6Z" class="g0_1"/>
<path fill-rule="evenodd" d="M972.8,175.4h132.3V153.8H972.8v21.6Z" class="g0_1"/>
<path d="M980.7,175.4h116.6V153.8H980.7v21.6Z" class="g0_1"/>
<path fill-rule="evenodd" d="M1105.9,175.4h132.3V153.8H1105.9v21.6Z" class="g0_1"/>
<path d="M1113.8,175.4h116.6V153.8H1113.8v21.6Z" class="g0_1"/>
<path d="M47.1,153.8h.7v-.7h-.7v.7Z" class="g1_1"/>
<path d="M47.1,153.8h.7v-.7h-.7v.7Z" class="g1_1"/>
<path d="M47.8,153.8H306.3v-.7H47.8v.7Z" class="g1_1"/>
<path d="M306.4,153.8h.7v-.7h-.7v.7Z" class="g1_1"/>
<path d="M307.1,153.8H439.5v-.7H307.1v.7Z" class="g1_1"/>
<path d="M439.5,153.8h.7v-.7h-.7v.7Z" class="g1_1"/>
<path d="M440.2,153.8H572.6v-.7H440.2v.7Z" class="g1_1"/>
<path d="M572.6,153.8h.7v-.7h-.7v.7Z" class="g1_1"/>
<path d="M573.3,153.8H705.8v-.7H573.3v.7Z" class="g1_1"/>
<path d="M705.8,153.8h.8v-.7h-.8v.7Z" class="g1_1"/>
<path d="M706.6,153.8H838.8v-.7H706.6v.7Z" class="g1_1"/>
<path d="M838.8,153.8h.7v-.7h-.7v.7Z" class="g1_1"/>
<path d="M839.5,153.8H972v-.7H839.5v.7Z" class="g1_1"/>
<path d="M972,153.8h.8v-.7H972v.7Z" class="g1_1"/>
<path d="M972.8,153.8h132.3v-.7H972.8v.7Z" class="g1_1"/>
<path d="M1105.1,153.8h.8v-.7h-.8v.7Z" class="g1_1"/>
<path d="M1105.9,153.8h132.3v-.7H1105.9v.7Z" class="g1_1"/>
<path d="M1238.2,153.8h.8v-.7h-.8v.7Z" class="g1_1"/>
<path d="M1238.2,153.8h.8v-.7h-.8v.7Z" class="g1_1"/>
<path d="M47.1,175.4h.7V153.8h-.7v21.6Z" class="g1_1"/>
<path d="M306.4,175.4h.7V153.8h-.7v21.6Z" class="g1_1"/>
<path d="M439.5,175.4h.7V153.8h-.7v21.6Z" class="g1_1"/>
<path d="M572.6,175.4h.7V153.8h-.7v21.6Z" class="g1_1"/>
<path d="M705.8,175.4h.8V153.8h-.8v21.6Z" class="g1_1"/>
<path d="M838.8,175.4h.7V153.8h-.7v21.6Z" class="g1_1"/>
<path d="M972,175.4h.8V153.8H972v21.6Z" class="g1_1"/>
<path d="M1105.1,175.4h.8V153.8h-.8v21.6Z" class="g1_1"/>
<path d="M1238.2,175.4h.8V153.8h-.8v21.6Z" class="g1_1"/>
<path d="M47.1,176.2h.7v-.8h-.7v.8Z" class="g1_1"/>
<path d="M47.8,176.2H306.3v-.8H47.8v.8Z" class="g1_1"/>
<path d="M306.4,176.2h.7v-.8h-.7v.8Z" class="g1_1"/>
<path d="M307.1,176.2H439.5v-.8H307.1v.8Z" class="g1_1"/>
<path d="M439.5,176.2h.7v-.8h-.7v.8Z" class="g1_1"/>
<path d="M440.2,176.2H572.6v-.8H440.2v.8Z" class="g1_1"/>
<path d="M572.6,176.2h.7v-.8h-.7v.8Z" class="g1_1"/>
<path d="M573.3,176.2H705.8v-.8H573.3v.8Z" class="g1_1"/>
<path d="M705.8,176.2h.8v-.8h-.8v.8Z" class="g1_1"/>
<path d="M706.6,176.2H838.8v-.8H706.6v.8Z" class="g1_1"/>
<path d="M838.8,176.2h.7v-.8h-.7v.8Z" class="g1_1"/>
<path d="M839.5,176.2H972v-.8H839.5v.8Z" class="g1_1"/>
<path d="M972,176.2h.8v-.8H972v.8Z" class="g1_1"/>
<path d="M972.8,176.2h132.3v-.8H972.8v.8Z" class="g1_1"/>
<path d="M1105.1,176.2h.8v-.8h-.8v.8Z" class="g1_1"/>
<path d="M1105.9,176.2h132.3v-.8H1105.9v.8Z" class="g1_1"/>
<path d="M1238.2,176.2h.8v-.8h-.8v.8Z" class="g1_1"/>
<path d="M47.1,198h.7V176.2h-.7V198Z" class="g1_1"/>
<path d="M306.4,198h.7V176.2h-.7V198Z" class="g1_1"/>
<path d="M439.5,198h.7V176.2h-.7V198Z" class="g1_1"/>
<path d="M572.6,198h.7V176.2h-.7V198Z" class="g1_1"/>
<path d="M705.8,198h.8V176.2h-.8V198Z" class="g1_1"/>
<path d="M838.8,198h.7V176.2h-.7V198Z" class="g1_1"/>
<path d="M972,198h.8V176.2H972V198Z" class="g1_1"/>
<path d="M1105.1,198h.8V176.2h-.8V198Z" class="g1_1"/>
<path d="M1238.2,198h.8V176.2h-.8V198Z" class="g1_1"/>
<path fill-rule="evenodd" d="M47.8,220.4H1238.2V198.7H47.8v21.7Z" class="g2_1"/>
<path fill-rule="evenodd" d="M55.7,218.4H1230.4V200.8H55.7v17.6Z" class="g2_1"/>
<path d="M47.1,198.7h.7V198h-.7v.7Z" class="g1_1"/>
<path d="M47.8,198.7H306.3V198H47.8v.7Z" class="g1_1"/>
<path d="M306.4,198.7h.7V198h-.7v.7Z" class="g1_1"/>
<path d="M307.1,198.7H439.5V198H307.1v.7Z" class="g1_1"/>
<path d="M439.5,198.7h.7V198h-.7v.7Z" class="g1_1"/>
<path d="M440.2,198.7H572.6V198H440.2v.7Z" class="g1_1"/>
<path d="M572.6,198.7h.7V198h-.7v.7Z" class="g1_1"/>
<path d="M573.3,198.7H705.8V198H573.3v.7Z" class="g1_1"/>
<path d="M705.8,198.7h.8V198h-.8v.7Z" class="g1_1"/>
<path d="M706.6,198.7H838.8V198H706.6v.7Z" class="g1_1"/>
<path d="M838.8,198.7h.7V198h-.7v.7Z" class="g1_1"/>
<path d="M839.5,198.7H972V198H839.5v.7Z" class="g1_1"/>
<path d="M972,198.7h.8V198H972v.7Z" class="g1_1"/>
<path d="M972.8,198.7h132.3V198H972.8v.7Z" class="g1_1"/>
<path d="M1105.1,198.7h.8V198h-.8v.7Z" class="g1_1"/>
<path d="M1105.9,198.7h132.3V198H1105.9v.7Z" class="g1_1"/>
<path d="M1238.2,198.7h.8V198h-.8v.7Z" class="g1_1"/>
<path d="M47.1,220.4h.7V198.7h-.7v21.7Z" class="g1_1"/>
<path d="M1238.2,220.4h.8V198.7h-.8v21.7Z" class="g1_1"/>
<path fill-rule="evenodd" d="M47.8,242.9H306.3V221.3H47.8v21.6Z" class="g0_1"/>
<path fill-rule="evenodd" d="M55.7,240.9H298.6V223.3H55.7v17.6Z" class="g0_1"/>
<path fill-rule="evenodd" d="M307.3,242.9H439.4V221.3H307.3v21.6Z" class="g0_1"/>
<path d="M315.2,242.9H431.6V221.3H315.2v21.6Z" class="g0_1"/>
<path fill-rule="evenodd" d="M440.2,242.9H572.7V221.3H440.2v21.6Z" class="g0_1"/>
<path d="M448.1,242.9H564.9V221.3H448.1v21.6Z" class="g0_1"/>
<path fill-rule="evenodd" d="M573.5,242.9H705.8V221.3H573.5v21.6Z" class="g0_1"/>
<path d="M581.3,242.9H698V221.3H581.3v21.6Z" class="g0_1"/>
<path fill-rule="evenodd" d="M706.6,242.9H838.9V221.3H706.6v21.6Z" class="g0_1"/>
<path d="M714.5,242.9H831.1V221.3H714.5v21.6Z" class="g0_1"/>
<path fill-rule="evenodd" d="M839.7,242.9H972V221.3H839.7v21.6Z" class="g0_1"/>
<path d="M847.6,242.9H964.2V221.3H847.6v21.6Z" class="g0_1"/>
<path fill-rule="evenodd" d="M972.8,242.9h132.3V221.3H972.8v21.6Z" class="g0_1"/>
<path d="M980.7,242.9h116.6V221.3H980.7v21.6Z" class="g0_1"/>
<path fill-rule="evenodd" d="M1105.9,242.9h132.3V221.3H1105.9v21.6Z" class="g0_1"/>
<path d="M1113.8,242.9h116.6V221.3H1113.8v21.6Z" class="g0_1"/>
<path d="M47.1,221.1h.7v-.7h-.7v.7Z" class="g1_1"/>
<path d="M47.8,221.1H306.3v-.7H47.8v.7Z" class="g1_1"/>
<path d="M306.4,221.1h.7v-.7h-.7v.7Z" class="g1_1"/>
<path d="M307.1,221.1H439.5v-.7H307.1v.7Z" class="g1_1"/>
<path d="M439.5,221.1h.7v-.7h-.7v.7Z" class="g1_1"/>
<path d="M440.2,221.1H572.6v-.7H440.2v.7Z" class="g1_1"/>
<path d="M572.6,221.1h.7v-.7h-.7v.7Z" class="g1_1"/>
<path d="M573.3,221.1H705.8v-.7H573.3v.7Z" class="g1_1"/>
<path d="M705.8,221.1h.8v-.7h-.8v.7Z" class="g1_1"/>
<path d="M706.6,221.1H838.8v-.7H706.6v.7Z" class="g1_1"/>
<path d="M838.8,221.1h.7v-.7h-.7v.7Z" class="g1_1"/>
<path d="M839.5,221.1H972v-.7H839.5v.7Z" class="g1_1"/>
<path d="M972,221.1h.8v-.7H972v.7Z" class="g1_1"/>
<path d="M972.8,221.1h132.3v-.7H972.8v.7Z" class="g1_1"/>
<path d="M1105.1,221.1h.8v-.7h-.8v.7Z" class="g1_1"/>
<path d="M1105.9,221.1h132.3v-.7H1105.9v.7Z" class="g1_1"/>
<path d="M1238.2,221.1h.8v-.7h-.8v.7Z" class="g1_1"/>
<path d="M47.1,242.9h.7V221.1h-.7v21.8Z" class="g1_1"/>
<path d="M306.4,242.9h.7V221.1h-.7v21.8Z" class="g1_1"/>
<path d="M439.5,242.9h.7V221.1h-.7v21.8Z" class="g1_1"/>
<path d="M572.6,242.9h.7V221.1h-.7v21.8Z" class="g1_1"/>
<path d="M705.8,242.9h.8V221.1h-.8v21.8Z" class="g1_1"/>
<path d="M838.8,242.9h.7V221.1h-.7v21.8Z" class="g1_1"/>
<path d="M972,242.9h.8V221.1H972v21.8Z" class="g1_1"/>
<path d="M1105.1,242.9h.8V221.1h-.8v21.8Z" class="g1_1"/>
<path d="M1238.2,242.9h.8V221.1h-.8v21.8Z" class="g1_1"/>
<path d="M47.1,243.7h.7v-.8h-.7v.8Z" class="g1_1"/>
<path d="M47.8,243.7H306.3v-.8H47.8v.8Z" class="g1_1"/>
<path d="M306.4,243.7h.7v-.8h-.7v.8Z" class="g1_1"/>
<path d="M307.1,243.7H439.5v-.8H307.1v.8Z" class="g1_1"/>
<path d="M439.5,243.7h.7v-.8h-.7v.8Z" class="g1_1"/>
<path d="M440.2,243.7H572.6v-.8H440.2v.8Z" class="g1_1"/>
<path d="M572.6,243.7h.7v-.8h-.7v.8Z" class="g1_1"/>
<path d="M573.3,243.7H705.8v-.8H573.3v.8Z" class="g1_1"/>
<path d="M705.8,243.7h.8v-.8h-.8v.8Z" class="g1_1"/>
<path d="M706.6,243.7H838.8v-.8H706.6v.8Z" class="g1_1"/>
<path d="M838.8,243.7h.7v-.8h-.7v.8Z" class="g1_1"/>
<path d="M839.5,243.7H972v-.8H839.5v.8Z" class="g1_1"/>
<path d="M972,243.7h.8v-.8H972v.8Z" class="g1_1"/>
<path d="M972.8,243.7h132.3v-.8H972.8v.8Z" class="g1_1"/>
<path d="M1105.1,243.7h.8v-.8h-.8v.8Z" class="g1_1"/>
<path d="M1105.9,243.7h132.3v-.8H1105.9v.8Z" class="g1_1"/>
<path d="M1238.2,243.7h.8v-.8h-.8v.8Z" class="g1_1"/>
<path d="M47.1,265.3h.7V243.6h-.7v21.7Z" class="g1_1"/>
<path d="M306.4,265.3h.7V243.6h-.7v21.7Z" class="g1_1"/>
<path d="M439.5,265.3h.7V243.6h-.7v21.7Z" class="g1_1"/>
<path d="M572.6,265.3h.7V243.6h-.7v21.7Z" class="g1_1"/>
<path d="M705.8,265.3h.8V243.6h-.8v21.7Z" class="g1_1"/>
<path d="M838.8,265.3h.7V243.6h-.7v21.7Z" class="g1_1"/>
<path d="M972,265.3h.8V243.6H972v21.7Z" class="g1_1"/>
<path d="M1105.1,265.3h.8V243.6h-.8v21.7Z" class="g1_1"/>
<path d="M1238.2,265.3h.8V243.6h-.8v21.7Z" class="g1_1"/>
<path fill-rule="evenodd" d="M47.8,287.8H1238.2V266.2H47.8v21.6Z" class="g2_1"/>
<path fill-rule="evenodd" d="M55.7,285.8H1230.4V268.2H55.7v17.6Z" class="g2_1"/>
<path d="M47.1,266h.7v-.7h-.7v.7Z" class="g1_1"/>
<path d="M47.8,266H306.3v-.7H47.8v.7Z" class="g1_1"/>
<path d="M306.4,266h.7v-.7h-.7v.7Z" class="g1_1"/>
<path d="M307.1,266H439.5v-.7H307.1v.7Z" class="g1_1"/>
<path d="M439.5,266h.7v-.7h-.7v.7Z" class="g1_1"/>
<path d="M440.2,266H572.6v-.7H440.2v.7Z" class="g1_1"/>
<path d="M572.6,266h.7v-.7h-.7v.7Z" class="g1_1"/>
<path d="M573.3,266H705.8v-.7H573.3v.7Z" class="g1_1"/>
<path d="M705.8,266h.8v-.7h-.8v.7Z" class="g1_1"/>
<path d="M706.6,266H838.8v-.7H706.6v.7Z" class="g1_1"/>
<path d="M838.8,266h.7v-.7h-.7v.7Z" class="g1_1"/>
<path d="M839.5,266H972v-.7H839.5v.7Z" class="g1_1"/>
<path d="M972,266h.8v-.7H972v.7Z" class="g1_1"/>
<path d="M972.8,266h132.3v-.7H972.8v.7Z" class="g1_1"/>
<path d="M1105.1,266h.8v-.7h-.8v.7Z" class="g1_1"/>
<path d="M1105.9,266h132.3v-.7H1105.9v.7Z" class="g1_1"/>
<path d="M1238.2,266h.8v-.7h-.8v.7Z" class="g1_1"/>
<path d="M47.1,287.8h.7V266h-.7v21.8Z" class="g1_1"/>
<path d="M1238.2,287.8h.8V266h-.8v21.8Z" class="g1_1"/>
<path fill-rule="evenodd" d="M47.8,310.2H306.3V288.6H47.8v21.6Z" class="g0_1"/>
<path fill-rule="evenodd" d="M55.7,308.2H298.6V290.6H55.7v17.6Z" class="g0_1"/>
<path fill-rule="evenodd" d="M307.3,310.2H439.4V288.6H307.3v21.6Z" class="g0_1"/>
<path d="M315.2,310.2H431.6V288.6H315.2v21.6Z" class="g0_1"/>
<path fill-rule="evenodd" d="M440.2,310.2H572.7V288.6H440.2v21.6Z" class="g0_1"/>
<path d="M448.1,310.2H564.9V288.6H448.1v21.6Z" class="g0_1"/>
<path fill-rule="evenodd" d="M573.5,310.2H705.8V288.6H573.5v21.6Z" class="g0_1"/>
<path d="M581.3,310.2H698V288.6H581.3v21.6Z" class="g0_1"/>
<path fill-rule="evenodd" d="M706.6,310.2H838.9V288.6H706.6v21.6Z" class="g0_1"/>
<path d="M714.5,310.2H831.1V288.6H714.5v21.6Z" class="g0_1"/>
<path fill-rule="evenodd" d="M839.7,310.2H972V288.6H839.7v21.6Z" class="g0_1"/>
<path d="M847.6,310.2H964.2V288.6H847.6v21.6Z" class="g0_1"/>
<path fill-rule="evenodd" d="M972.8,310.2h132.3V288.6H972.8v21.6Z" class="g0_1"/>
<path d="M980.7,310.2h116.6V288.6H980.7v21.6Z" class="g0_1"/>
<path fill-rule="evenodd" d="M1105.9,310.2h132.3V288.6H1105.9v21.6Z" class="g0_1"/>
<path d="M1113.8,310.2h116.6V288.6H1113.8v21.6Z" class="g0_1"/>
<path d="M47.1,288.6h.7v-.8h-.7v.8Z" class="g1_1"/>
<path d="M47.8,288.6H306.3v-.8H47.8v.8Z" class="g1_1"/>
<path d="M306.4,288.6h.7v-.8h-.7v.8Z" class="g1_1"/>
<path d="M307.1,288.6H439.5v-.8H307.1v.8Z" class="g1_1"/>
<path d="M439.5,288.6h.7v-.8h-.7v.8Z" class="g1_1"/>
<path d="M440.2,288.6H572.6v-.8H440.2v.8Z" class="g1_1"/>
<path d="M572.6,288.6h.7v-.8h-.7v.8Z" class="g1_1"/>
<path d="M573.3,288.6H705.8v-.8H573.3v.8Z" class="g1_1"/>
<path d="M705.8,288.6h.8v-.8h-.8v.8Z" class="g1_1"/>
<path d="M706.6,288.6H838.8v-.8H706.6v.8Z" class="g1_1"/>
<path d="M838.8,288.6h.7v-.8h-.7v.8Z" class="g1_1"/>
<path d="M839.5,288.6H972v-.8H839.5v.8Z" class="g1_1"/>
<path d="M972,288.6h.8v-.8H972v.8Z" class="g1_1"/>
<path d="M972.8,288.6h132.3v-.8H972.8v.8Z" class="g1_1"/>
<path d="M1105.1,288.6h.8v-.8h-.8v.8Z" class="g1_1"/>
<path d="M1105.9,288.6h132.3v-.8H1105.9v.8Z" class="g1_1"/>
<path d="M1238.2,288.6h.8v-.8h-.8v.8Z" class="g1_1"/>
<path d="M47.1,310.2h.7V288.6h-.7v21.6Z" class="g1_1"/>
<path d="M306.4,310.2h.7V288.6h-.7v21.6Z" class="g1_1"/>
<path d="M439.5,310.2h.7V288.6h-.7v21.6Z" class="g1_1"/>
<path d="M572.6,310.2h.7V288.6h-.7v21.6Z" class="g1_1"/>
<path d="M705.8,310.2h.8V288.6h-.8v21.6Z" class="g1_1"/>
<path d="M838.8,310.2h.7V288.6h-.7v21.6Z" class="g1_1"/>
<path d="M972,310.2h.8V288.6H972v21.6Z" class="g1_1"/>
<path d="M1105.1,310.2h.8V288.6h-.8v21.6Z" class="g1_1"/>
<path d="M1238.2,310.2h.8V288.6h-.8v21.6Z" class="g1_1"/>
<path d="M47.1,310.9h.7v-.7h-.7v.7Z" class="g1_1"/>
<path d="M47.8,310.9H306.3v-.7H47.8v.7Z" class="g1_1"/>
<path d="M306.4,310.9h.7v-.7h-.7v.7Z" class="g1_1"/>
<path d="M307.1,310.9H439.5v-.7H307.1v.7Z" class="g1_1"/>
<path d="M439.5,310.9h.7v-.7h-.7v.7Z" class="g1_1"/>
<path d="M440.2,310.9H572.6v-.7H440.2v.7Z" class="g1_1"/>
<path d="M572.6,310.9h.7v-.7h-.7v.7Z" class="g1_1"/>
<path d="M573.3,310.9H705.8v-.7H573.3v.7Z" class="g1_1"/>
<path d="M705.8,310.9h.8v-.7h-.8v.7Z" class="g1_1"/>
<path d="M706.6,310.9H838.8v-.7H706.6v.7Z" class="g1_1"/>
<path d="M838.8,310.9h.7v-.7h-.7v.7Z" class="g1_1"/>
<path d="M839.5,310.9H972v-.7H839.5v.7Z" class="g1_1"/>
<path d="M972,310.9h.8v-.7H972v.7Z" class="g1_1"/>
<path d="M972.8,310.9h132.3v-.7H972.8v.7Z" class="g1_1"/>
<path d="M1105.1,310.9h.8v-.7h-.8v.7Z" class="g1_1"/>
<path d="M1105.9,310.9h132.3v-.7H1105.9v.7Z" class="g1_1"/>
<path d="M1238.2,310.9h.8v-.7h-.8v.7Z" class="g1_1"/>
<path d="M47.1,332.8h.7V310.9h-.7v21.9Z" class="g1_1"/>
<path d="M306.4,332.8h.7V310.9h-.7v21.9Z" class="g1_1"/>
<path d="M439.5,332.8h.7V310.9h-.7v21.9Z" class="g1_1"/>
<path d="M572.6,332.8h.7V310.9h-.7v21.9Z" class="g1_1"/>
<path d="M705.8,332.8h.8V310.9h-.8v21.9Z" class="g1_1"/>
<path d="M838.8,332.8h.7V310.9h-.7v21.9Z" class="g1_1"/>
<path d="M972,332.8h.8V310.9H972v21.9Z" class="g1_1"/>
<path d="M1105.1,332.8h.8V310.9h-.8v21.9Z" class="g1_1"/>
<path d="M1238.2,332.8h.8V310.9h-.8v21.9Z" class="g1_1"/>
<path fill-rule="evenodd" d="M47.8,355.1H1238.2V333.5H47.8v21.6Z" class="g2_1"/>
<path fill-rule="evenodd" d="M55.7,353.1H1230.4V335.5H55.7v17.6Z" class="g2_1"/>
<path d="M47.1,333.5h.7v-.8h-.7v.8Z" class="g1_1"/>
<path d="M47.8,333.5H306.3v-.8H47.8v.8Z" class="g1_1"/>
<path d="M306.4,333.5h.7v-.8h-.7v.8Z" class="g1_1"/>
<path d="M307.1,333.5H439.5v-.8H307.1v.8Z" class="g1_1"/>
<path d="M439.5,333.5h.7v-.8h-.7v.8Z" class="g1_1"/>
<path d="M440.2,333.5H572.6v-.8H440.2v.8Z" class="g1_1"/>
<path d="M572.6,333.5h.7v-.8h-.7v.8Z" class="g1_1"/>
<path d="M573.3,333.5H705.8v-.8H573.3v.8Z" class="g1_1"/>
<path d="M705.8,333.5h.8v-.8h-.8v.8Z" class="g1_1"/>
<path d="M706.6,333.5H838.8v-.8H706.6v.8Z" class="g1_1"/>
<path d="M838.8,333.5h.7v-.8h-.7v.8Z" class="g1_1"/>
<path d="M839.5,333.5H972v-.8H839.5v.8Z" class="g1_1"/>
<path d="M972,333.5h.8v-.8H972v.8Z" class="g1_1"/>
<path d="M972.8,333.5h132.3v-.8H972.8v.8Z" class="g1_1"/>
<path d="M1105.1,333.5h.8v-.8h-.8v.8Z" class="g1_1"/>
<path d="M1105.9,333.5h132.3v-.8H1105.9v.8Z" class="g1_1"/>
<path d="M1238.2,333.5h.8v-.8h-.8v.8Z" class="g1_1"/>
<path d="M47.1,355.1h.7V333.5h-.7v21.6Z" class="g1_1"/>
<path d="M1238.2,355.1h.8V333.5h-.8v21.6Z" class="g1_1"/>
<path fill-rule="evenodd" d="M47.8,377.7H306.3V356H47.8v21.7Z" class="g0_1"/>
<path fill-rule="evenodd" d="M55.7,375.7H298.6V358.1H55.7v17.6Z" class="g0_1"/>
<path fill-rule="evenodd" d="M307.3,377.7H439.4V356H307.3v21.7Z" class="g0_1"/>
<path d="M315.2,377.7H431.6V356H315.2v21.7Z" class="g0_1"/>
<path fill-rule="evenodd" d="M440.2,377.7H572.7V356H440.2v21.7Z" class="g0_1"/>
<path d="M448.1,377.7H564.9V356H448.1v21.7Z" class="g0_1"/>
<path fill-rule="evenodd" d="M573.5,377.7H705.8V356H573.5v21.7Z" class="g0_1"/>
<path d="M581.3,377.7H698V356H581.3v21.7Z" class="g0_1"/>
<path fill-rule="evenodd" d="M706.6,377.7H838.9V356H706.6v21.7Z" class="g0_1"/>
<path d="M714.5,377.7H831.1V356H714.5v21.7Z" class="g0_1"/>
<path fill-rule="evenodd" d="M839.7,377.7H972V356H839.7v21.7Z" class="g0_1"/>
<path d="M847.6,377.7H964.2V356H847.6v21.7Z" class="g0_1"/>
<path fill-rule="evenodd" d="M972.8,377.7h132.3V356H972.8v21.7Z" class="g0_1"/>
<path d="M980.7,377.7h116.6V356H980.7v21.7Z" class="g0_1"/>
<path fill-rule="evenodd" d="M1105.9,377.7h132.3V356H1105.9v21.7Z" class="g0_1"/>
<path d="M1113.8,377.7h116.6V356H1113.8v21.7Z" class="g0_1"/>
<path d="M47.1,355.9h.7v-.8h-.7v.8Z" class="g1_1"/>
<path d="M47.8,355.9H306.3v-.8H47.8v.8Z" class="g1_1"/>
<path d="M306.4,355.9h.7v-.8h-.7v.8Z" class="g1_1"/>
<path d="M307.1,355.9H439.5v-.8H307.1v.8Z" class="g1_1"/>
<path d="M439.5,355.9h.7v-.8h-.7v.8Z" class="g1_1"/>
<path d="M440.2,355.9H572.6v-.8H440.2v.8Z" class="g1_1"/>
<path d="M572.6,355.9h.7v-.8h-.7v.8Z" class="g1_1"/>
<path d="M573.3,355.9H705.8v-.8H573.3v.8Z" class="g1_1"/>
<path d="M705.8,355.9h.8v-.8h-.8v.8Z" class="g1_1"/>
<path d="M706.6,355.9H838.8v-.8H706.6v.8Z" class="g1_1"/>
<path d="M838.8,355.9h.7v-.8h-.7v.8Z" class="g1_1"/>
<path d="M839.5,355.9H972v-.8H839.5v.8Z" class="g1_1"/>
<path d="M972,355.9h.8v-.8H972v.8Z" class="g1_1"/>
<path d="M972.8,355.9h132.3v-.8H972.8v.8Z" class="g1_1"/>
<path d="M1105.1,355.9h.8v-.8h-.8v.8Z" class="g1_1"/>
<path d="M1105.9,355.9h132.3v-.8H1105.9v.8Z" class="g1_1"/>
<path d="M1238.2,355.9h.8v-.8h-.8v.8Z" class="g1_1"/>
<path d="M47.1,377.7h.7V355.9h-.7v21.8Z" class="g1_1"/>
<path d="M306.4,377.7h.7V355.9h-.7v21.8Z" class="g1_1"/>
<path d="M439.5,377.7h.7V355.9h-.7v21.8Z" class="g1_1"/>
<path d="M572.6,377.7h.7V355.9h-.7v21.8Z" class="g1_1"/>
<path d="M705.8,377.7h.8V355.9h-.8v21.8Z" class="g1_1"/>
<path d="M838.8,377.7h.7V355.9h-.7v21.8Z" class="g1_1"/>
<path d="M972,377.7h.8V355.9H972v21.8Z" class="g1_1"/>
<path d="M1105.1,377.7h.8V355.9h-.8v21.8Z" class="g1_1"/>
<path d="M1238.2,377.7h.8V355.9h-.8v21.8Z" class="g1_1"/>
<path d="M47.1,378.4h.7v-.7h-.7v.7Z" class="g1_1"/>
<path d="M47.8,378.4H306.3v-.7H47.8v.7Z" class="g1_1"/>
<path d="M306.4,378.4h.7v-.7h-.7v.7Z" class="g1_1"/>
<path d="M307.1,378.4H439.5v-.7H307.1v.7Z" class="g1_1"/>
<path d="M439.5,378.4h.7v-.7h-.7v.7Z" class="g1_1"/>
<path d="M440.2,378.4H572.6v-.7H440.2v.7Z" class="g1_1"/>
<path d="M572.6,378.4h.7v-.7h-.7v.7Z" class="g1_1"/>
<path d="M573.3,378.4H705.8v-.7H573.3v.7Z" class="g1_1"/>
<path d="M705.8,378.4h.8v-.7h-.8v.7Z" class="g1_1"/>
<path d="M706.6,378.4H838.8v-.7H706.6v.7Z" class="g1_1"/>
<path d="M838.8,378.4h.7v-.7h-.7v.7Z" class="g1_1"/>
<path d="M839.5,378.4H972v-.7H839.5v.7Z" class="g1_1"/>
<path d="M972,378.4h.8v-.7H972v.7Z" class="g1_1"/>
<path d="M972.8,378.4h132.3v-.7H972.8v.7Z" class="g1_1"/>
<path d="M1105.1,378.4h.8v-.7h-.8v.7Z" class="g1_1"/>
<path d="M1105.9,378.4h132.3v-.7H1105.9v.7Z" class="g1_1"/>
<path d="M1238.2,378.4h.8v-.7h-.8v.7Z" class="g1_1"/>
<path d="M47.1,400h.7V378.4h-.7V400Z" class="g1_1"/>
<path d="M306.4,400h.7V378.4h-.7V400Z" class="g1_1"/>
<path d="M439.5,400h.7V378.4h-.7V400Z" class="g1_1"/>
<path d="M572.6,400h.7V378.4h-.7V400Z" class="g1_1"/>
<path d="M705.8,400h.8V378.4h-.8V400Z" class="g1_1"/>
<path d="M838.8,400h.7V378.4h-.7V400Z" class="g1_1"/>
<path d="M972,400h.8V378.4H972V400Z" class="g1_1"/>
<path d="M1105.1,400h.8V378.4h-.8V400Z" class="g1_1"/>
<path d="M1238.2,400h.8V378.4h-.8V400Z" class="g1_1"/>
<path fill-rule="evenodd" d="M47.8,422.6H1238.2V401H47.8v21.6Z" class="g2_1"/>
<path fill-rule="evenodd" d="M55.7,420.6H1230.4V403H55.7v17.6Z" class="g2_1"/>
<path d="M47.1,400.8h.7V400h-.7v.8Z" class="g1_1"/>
<path d="M47.8,400.8H306.3V400H47.8v.8Z" class="g1_1"/>
<path d="M306.4,400.8h.7V400h-.7v.8Z" class="g1_1"/>
<path d="M307.1,400.8H439.5V400H307.1v.8Z" class="g1_1"/>
<path d="M439.5,400.8h.7V400h-.7v.8Z" class="g1_1"/>
<path d="M440.2,400.8H572.6V400H440.2v.8Z" class="g1_1"/>
<path d="M572.6,400.8h.7V400h-.7v.8Z" class="g1_1"/>
<path d="M573.3,400.8H705.8V400H573.3v.8Z" class="g1_1"/>
<path d="M705.8,400.8h.8V400h-.8v.8Z" class="g1_1"/>
<path d="M706.6,400.8H838.8V400H706.6v.8Z" class="g1_1"/>
<path d="M838.8,400.8h.7V400h-.7v.8Z" class="g1_1"/>
<path d="M839.5,400.8H972V400H839.5v.8Z" class="g1_1"/>
<path d="M972,400.8h.8V400H972v.8Z" class="g1_1"/>
<path d="M972.8,400.8h132.3V400H972.8v.8Z" class="g1_1"/>
<path d="M1105.1,400.8h.8V400h-.8v.8Z" class="g1_1"/>
<path d="M1105.9,400.8h132.3V400H1105.9v.8Z" class="g1_1"/>
<path d="M1238.2,400.8h.8V400h-.8v.8Z" class="g1_1"/>
<path d="M47.1,422.6h.7V400.8h-.7v21.8Z" class="g1_1"/>
<path d="M1238.2,422.6h.8V400.8h-.8v21.8Z" class="g1_1"/>
<path fill-rule="evenodd" d="M47.8,445H306.3V423.3H47.8V445Z" class="g0_1"/>
<path fill-rule="evenodd" d="M55.7,442.9H298.6V425.3H55.7v17.6Z" class="g0_1"/>
<path fill-rule="evenodd" d="M307.3,445H439.4V423.3H307.3V445Z" class="g0_1"/>
<path d="M315.2,445H431.6V423.3H315.2V445Z" class="g0_1"/>
<path fill-rule="evenodd" d="M440.2,445H572.7V423.3H440.2V445Z" class="g0_1"/>
<path d="M448.1,445H564.9V423.3H448.1V445Z" class="g0_1"/>
<path fill-rule="evenodd" d="M573.5,445H705.8V423.3H573.5V445Z" class="g0_1"/>
<path d="M581.3,445H698V423.3H581.3V445Z" class="g0_1"/>
<path fill-rule="evenodd" d="M706.6,445H838.9V423.3H706.6V445Z" class="g0_1"/>
<path d="M714.5,445H831.1V423.3H714.5V445Z" class="g0_1"/>
<path fill-rule="evenodd" d="M839.7,445H972V423.3H839.7V445Z" class="g0_1"/>
<path d="M847.6,445H964.2V423.3H847.6V445Z" class="g0_1"/>
<path fill-rule="evenodd" d="M972.8,445h132.3V423.3H972.8V445Z" class="g0_1"/>
<path d="M980.7,445h116.6V423.3H980.7V445Z" class="g0_1"/>
<path fill-rule="evenodd" d="M1105.9,445h132.3V423.3H1105.9V445Z" class="g0_1"/>
<path d="M1113.8,445h116.6V423.3H1113.8V445Z" class="g0_1"/>
<path d="M47.1,423.3h.7v-.7h-.7v.7Z" class="g1_1"/>
<path d="M47.8,423.3H306.3v-.7H47.8v.7Z" class="g1_1"/>
<path d="M306.4,423.3h.7v-.7h-.7v.7Z" class="g1_1"/>
<path d="M307.1,423.3H439.5v-.7H307.1v.7Z" class="g1_1"/>
<path d="M439.5,423.3h.7v-.7h-.7v.7Z" class="g1_1"/>
<path d="M440.2,423.3H572.6v-.7H440.2v.7Z" class="g1_1"/>
<path d="M572.6,423.3h.7v-.7h-.7v.7Z" class="g1_1"/>
<path d="M573.3,423.3H705.8v-.7H573.3v.7Z" class="g1_1"/>
<path d="M705.8,423.3h.8v-.7h-.8v.7Z" class="g1_1"/>
<path d="M706.6,423.3H838.8v-.7H706.6v.7Z" class="g1_1"/>
<path d="M838.8,423.3h.7v-.7h-.7v.7Z" class="g1_1"/>
<path d="M839.5,423.3H972v-.7H839.5v.7Z" class="g1_1"/>
<path d="M972,423.3h.8v-.7H972v.7Z" class="g1_1"/>
<path d="M972.8,423.3h132.3v-.7H972.8v.7Z" class="g1_1"/>
<path d="M1105.1,423.3h.8v-.7h-.8v.7Z" class="g1_1"/>
<path d="M1105.9,423.3h132.3v-.7H1105.9v.7Z" class="g1_1"/>
<path d="M1238.2,423.3h.8v-.7h-.8v.7Z" class="g1_1"/>
<path d="M47.1,445h.7V423.3h-.7V445Z" class="g1_1"/>
<path d="M306.4,445h.7V423.3h-.7V445Z" class="g1_1"/>
<path d="M439.5,445h.7V423.3h-.7V445Z" class="g1_1"/>
<path d="M572.6,445h.7V423.3h-.7V445Z" class="g1_1"/>
<path d="M705.8,445h.8V423.3h-.8V445Z" class="g1_1"/>
<path d="M838.8,445h.7V423.3h-.7V445Z" class="g1_1"/>
<path d="M972,445h.8V423.3H972V445Z" class="g1_1"/>
<path d="M1105.1,445h.8V423.3h-.8V445Z" class="g1_1"/>
<path d="M1238.2,445h.8V423.3h-.8V445Z" class="g1_1"/>
<path d="M47.1,445.7h.7v-.8h-.7v.8Z" class="g1_1"/>
<path d="M47.8,445.7H306.3v-.8H47.8v.8Z" class="g1_1"/>
<path d="M306.4,445.7h.7v-.8h-.7v.8Z" class="g1_1"/>
<path d="M307.1,445.7H439.5v-.8H307.1v.8Z" class="g1_1"/>
<path d="M439.5,445.7h.7v-.8h-.7v.8Z" class="g1_1"/>
<path d="M440.2,445.7H572.6v-.8H440.2v.8Z" class="g1_1"/>
<path d="M572.6,445.7h.7v-.8h-.7v.8Z" class="g1_1"/>
<path d="M573.3,445.7H705.8v-.8H573.3v.8Z" class="g1_1"/>
<path d="M705.8,445.7h.8v-.8h-.8v.8Z" class="g1_1"/>
<path d="M706.6,445.7H838.8v-.8H706.6v.8Z" class="g1_1"/>
<path d="M838.8,445.7h.7v-.8h-.7v.8Z" class="g1_1"/>
<path d="M839.5,445.7H972v-.8H839.5v.8Z" class="g1_1"/>
<path d="M972,445.7h.8v-.8H972v.8Z" class="g1_1"/>
<path d="M972.8,445.7h132.3v-.8H972.8v.8Z" class="g1_1"/>
<path d="M1105.1,445.7h.8v-.8h-.8v.8Z" class="g1_1"/>
<path d="M1105.9,445.7h132.3v-.8H1105.9v.8Z" class="g1_1"/>
<path d="M1238.2,445.7h.8v-.8h-.8v.8Z" class="g1_1"/>
<path d="M47.1,467.5h.7V445.7h-.7v21.8Z" class="g1_1"/>
<path d="M306.4,467.5h.7V445.7h-.7v21.8Z" class="g1_1"/>
<path d="M439.5,467.5h.7V445.7h-.7v21.8Z" class="g1_1"/>
<path d="M572.6,467.5h.7V445.7h-.7v21.8Z" class="g1_1"/>
<path d="M705.8,467.5h.8V445.7h-.8v21.8Z" class="g1_1"/>
<path d="M838.8,467.5h.7V445.7h-.7v21.8Z" class="g1_1"/>
<path d="M972,467.5h.8V445.7H972v21.8Z" class="g1_1"/>
<path d="M1105.1,467.5h.8V445.7h-.8v21.8Z" class="g1_1"/>
<path d="M1238.2,467.5h.8V445.7h-.8v21.8Z" class="g1_1"/>
<path fill-rule="evenodd" d="M47.8,489.9H1238.2V468.2H47.8v21.7Z" class="g2_1"/>
<path fill-rule="evenodd" d="M55.7,487.9H1230.4V470.3H55.7v17.6Z" class="g2_1"/>
<path d="M47.1,468.2h.7v-.7h-.7v.7Z" class="g1_1"/>
<path d="M47.8,468.2H306.3v-.7H47.8v.7Z" class="g1_1"/>
<path d="M306.4,468.2h.7v-.7h-.7v.7Z" class="g1_1"/>
<path d="M307.1,468.2H439.5v-.7H307.1v.7Z" class="g1_1"/>
<path d="M439.5,468.2h.7v-.7h-.7v.7Z" class="g1_1"/>
<path d="M440.2,468.2H572.6v-.7H440.2v.7Z" class="g1_1"/>
<path d="M572.6,468.2h.7v-.7h-.7v.7Z" class="g1_1"/>
<path d="M573.3,468.2H705.8v-.7H573.3v.7Z" class="g1_1"/>
<path d="M705.8,468.2h.8v-.7h-.8v.7Z" class="g1_1"/>
<path d="M706.6,468.2H838.8v-.7H706.6v.7Z" class="g1_1"/>
<path d="M838.8,468.2h.7v-.7h-.7v.7Z" class="g1_1"/>
<path d="M839.5,468.2H972v-.7H839.5v.7Z" class="g1_1"/>
<path d="M972,468.2h.8v-.7H972v.7Z" class="g1_1"/>
<path d="M972.8,468.2h132.3v-.7H972.8v.7Z" class="g1_1"/>
<path d="M1105.1,468.2h.8v-.7h-.8v.7Z" class="g1_1"/>
<path d="M1105.9,468.2h132.3v-.7H1105.9v.7Z" class="g1_1"/>
<path d="M1238.2,468.2h.8v-.7h-.8v.7Z" class="g1_1"/>
<path d="M47.1,489.9h.7V468.2h-.7v21.7Z" class="g1_1"/>
<path d="M1238.2,489.9h.8V468.2h-.8v21.7Z" class="g1_1"/>
<path fill-rule="evenodd" d="M47.8,512.4H306.3V490.8H47.8v21.6Z" class="g0_1"/>
<path fill-rule="evenodd" d="M55.7,510.4H298.6V492.8H55.7v17.6Z" class="g0_1"/>
<path fill-rule="evenodd" d="M307.3,512.4H439.4V490.8H307.3v21.6Z" class="g0_1"/>
<path d="M315.2,512.4H431.6V490.8H315.2v21.6Z" class="g0_1"/>
<path fill-rule="evenodd" d="M440.2,512.4H572.7V490.8H440.2v21.6Z" class="g0_1"/>
<path d="M448.1,512.4H564.9V490.8H448.1v21.6Z" class="g0_1"/>
<path fill-rule="evenodd" d="M573.5,512.4H705.8V490.8H573.5v21.6Z" class="g0_1"/>
<path d="M581.3,512.4H698V490.8H581.3v21.6Z" class="g0_1"/>
<path fill-rule="evenodd" d="M706.6,512.4H838.9V490.8H706.6v21.6Z" class="g0_1"/>
<path d="M714.5,512.4H831.1V490.8H714.5v21.6Z" class="g0_1"/>
<path fill-rule="evenodd" d="M839.7,512.4H972V490.8H839.7v21.6Z" class="g0_1"/>
<path d="M847.6,512.4H964.2V490.8H847.6v21.6Z" class="g0_1"/>
<path fill-rule="evenodd" d="M972.8,512.4h132.3V490.8H972.8v21.6Z" class="g0_1"/>
<path d="M980.7,512.4h116.6V490.8H980.7v21.6Z" class="g0_1"/>
<path fill-rule="evenodd" d="M1105.9,512.4h132.3V490.8H1105.9v21.6Z" class="g0_1"/>
<path d="M1113.8,512.4h116.6V490.8H1113.8v21.6Z" class="g0_1"/>
<path d="M47.1,490.6h.7v-.7h-.7v.7Z" class="g1_1"/>
<path d="M47.8,490.6H306.3v-.7H47.8v.7Z" class="g1_1"/>
<path d="M306.4,490.6h.7v-.7h-.7v.7Z" class="g1_1"/>
<path d="M307.1,490.6H439.5v-.7H307.1v.7Z" class="g1_1"/>
<path d="M439.5,490.6h.7v-.7h-.7v.7Z" class="g1_1"/>
<path d="M440.2,490.6H572.6v-.7H440.2v.7Z" class="g1_1"/>
<path d="M572.6,490.6h.7v-.7h-.7v.7Z" class="g1_1"/>
<path d="M573.3,490.6H705.8v-.7H573.3v.7Z" class="g1_1"/>
<path d="M705.8,490.6h.8v-.7h-.8v.7Z" class="g1_1"/>
<path d="M706.6,490.6H838.8v-.7H706.6v.7Z" class="g1_1"/>
<path d="M838.8,490.6h.7v-.7h-.7v.7Z" class="g1_1"/>
<path d="M839.5,490.6H972v-.7H839.5v.7Z" class="g1_1"/>
<path d="M972,490.6h.8v-.7H972v.7Z" class="g1_1"/>
<path d="M972.8,490.6h132.3v-.7H972.8v.7Z" class="g1_1"/>
<path d="M1105.1,490.6h.8v-.7h-.8v.7Z" class="g1_1"/>
<path d="M1105.9,490.6h132.3v-.7H1105.9v.7Z" class="g1_1"/>
<path d="M1238.2,490.6h.8v-.7h-.8v.7Z" class="g1_1"/>
<path d="M47.1,512.4h.7V490.6h-.7v21.8Z" class="g1_1"/>
<path d="M306.4,512.4h.7V490.6h-.7v21.8Z" class="g1_1"/>
<path d="M439.5,512.4h.7V490.6h-.7v21.8Z" class="g1_1"/>
<path d="M572.6,512.4h.7V490.6h-.7v21.8Z" class="g1_1"/>
<path d="M705.8,512.4h.8V490.6h-.8v21.8Z" class="g1_1"/>
<path d="M838.8,512.4h.7V490.6h-.7v21.8Z" class="g1_1"/>
<path d="M972,512.4h.8V490.6H972v21.8Z" class="g1_1"/>
<path d="M1105.1,512.4h.8V490.6h-.8v21.8Z" class="g1_1"/>
<path d="M1238.2,512.4h.8V490.6h-.8v21.8Z" class="g1_1"/>
<path d="M47.1,513.2h.7v-.8h-.7v.8Z" class="g1_1"/>
<path d="M47.8,513.2H306.3v-.8H47.8v.8Z" class="g1_1"/>
<path d="M306.4,513.2h.7v-.8h-.7v.8Z" class="g1_1"/>
<path d="M307.1,513.2H439.5v-.8H307.1v.8Z" class="g1_1"/>
<path d="M439.5,513.2h.7v-.8h-.7v.8Z" class="g1_1"/>
<path d="M440.2,513.2H572.6v-.8H440.2v.8Z" class="g1_1"/>
<path d="M572.6,513.2h.7v-.8h-.7v.8Z" class="g1_1"/>
<path d="M573.3,513.2H705.8v-.8H573.3v.8Z" class="g1_1"/>
<path d="M705.8,513.2h.8v-.8h-.8v.8Z" class="g1_1"/>
<path d="M706.6,513.2H838.8v-.8H706.6v.8Z" class="g1_1"/>
<path d="M838.8,513.2h.7v-.8h-.7v.8Z" class="g1_1"/>
<path d="M839.5,513.2H972v-.8H839.5v.8Z" class="g1_1"/>
<path d="M972,513.2h.8v-.8H972v.8Z" class="g1_1"/>
<path d="M972.8,513.2h132.3v-.8H972.8v.8Z" class="g1_1"/>
<path d="M1105.1,513.2h.8v-.8h-.8v.8Z" class="g1_1"/>
<path d="M1105.9,513.2h132.3v-.8H1105.9v.8Z" class="g1_1"/>
<path d="M1238.2,513.2h.8v-.8h-.8v.8Z" class="g1_1"/>
<path d="M47.1,534.8h.7V513.1h-.7v21.7Z" class="g1_1"/>
<path d="M306.4,534.8h.7V513.1h-.7v21.7Z" class="g1_1"/>
<path d="M439.5,534.8h.7V513.1h-.7v21.7Z" class="g1_1"/>
<path d="M572.6,534.8h.7V513.1h-.7v21.7Z" class="g1_1"/>
<path d="M705.8,534.8h.8V513.1h-.8v21.7Z" class="g1_1"/>
<path d="M838.8,534.8h.7V513.1h-.7v21.7Z" class="g1_1"/>
<path d="M972,534.8h.8V513.1H972v21.7Z" class="g1_1"/>
<path d="M1105.1,534.8h.8V513.1h-.8v21.7Z" class="g1_1"/>
<path d="M1238.2,534.8h.8V513.1h-.8v21.7Z" class="g1_1"/>
<path fill-rule="evenodd" d="M47.8,557.3H1238.2V535.7H47.8v21.6Z" class="g2_1"/>
<path fill-rule="evenodd" d="M55.7,555.3H1230.4V537.7H55.7v17.6Z" class="g2_1"/>
<path d="M47.1,535.5h.7v-.7h-.7v.7Z" class="g1_1"/>
<path d="M47.8,535.5H306.3v-.7H47.8v.7Z" class="g1_1"/>
<path d="M306.4,535.5h.7v-.7h-.7v.7Z" class="g1_1"/>
<path d="M307.1,535.5H439.5v-.7H307.1v.7Z" class="g1_1"/>
<path d="M439.5,535.5h.7v-.7h-.7v.7Z" class="g1_1"/>
<path d="M440.2,535.5H572.6v-.7H440.2v.7Z" class="g1_1"/>
<path d="M572.6,535.5h.7v-.7h-.7v.7Z" class="g1_1"/>
<path d="M573.3,535.5H705.8v-.7H573.3v.7Z" class="g1_1"/>
<path d="M705.8,535.5h.8v-.7h-.8v.7Z" class="g1_1"/>
<path d="M706.6,535.5H838.8v-.7H706.6v.7Z" class="g1_1"/>
<path d="M838.8,535.5h.7v-.7h-.7v.7Z" class="g1_1"/>
<path d="M839.5,535.5H972v-.7H839.5v.7Z" class="g1_1"/>
<path d="M972,535.5h.8v-.7H972v.7Z" class="g1_1"/>
<path d="M972.8,535.5h132.3v-.7H972.8v.7Z" class="g1_1"/>
<path d="M1105.1,535.5h.8v-.7h-.8v.7Z" class="g1_1"/>
<path d="M1105.9,535.5h132.3v-.7H1105.9v.7Z" class="g1_1"/>
<path d="M1238.2,535.5h.8v-.7h-.8v.7Z" class="g1_1"/>
<path d="M47.1,557.3h.7V535.5h-.7v21.8Z" class="g1_1"/>
<path d="M1238.2,557.3h.8V535.5h-.8v21.8Z" class="g1_1"/>
<path fill-rule="evenodd" d="M47.8,579.7H306.3V558.1H47.8v21.6Z" class="g0_1"/>
<path fill-rule="evenodd" d="M55.7,577.7H298.6V560.1H55.7v17.6Z" class="g0_1"/>
<path fill-rule="evenodd" d="M307.3,579.7H439.4V558.1H307.3v21.6Z" class="g0_1"/>
<path d="M315.2,579.7H431.6V558.1H315.2v21.6Z" class="g0_1"/>
<path fill-rule="evenodd" d="M440.2,579.7H572.7V558.1H440.2v21.6Z" class="g0_1"/>
<path d="M448.1,579.7H564.9V558.1H448.1v21.6Z" class="g0_1"/>
<path fill-rule="evenodd" d="M573.5,579.7H705.8V558.1H573.5v21.6Z" class="g0_1"/>
<path d="M581.3,579.7H698V558.1H581.3v21.6Z" class="g0_1"/>
<path fill-rule="evenodd" d="M706.6,579.7H838.9V558.1H706.6v21.6Z" class="g0_1"/>
<path d="M714.5,579.7H831.1V558.1H714.5v21.6Z" class="g0_1"/>
<path fill-rule="evenodd" d="M839.7,579.7H972V558.1H839.7v21.6Z" class="g0_1"/>
<path d="M847.6,579.7H964.2V558.1H847.6v21.6Z" class="g0_1"/>
<path fill-rule="evenodd" d="M972.8,579.7h132.3V558.1H972.8v21.6Z" class="g0_1"/>
<path d="M980.7,579.7h116.6V558.1H980.7v21.6Z" class="g0_1"/>
<path fill-rule="evenodd" d="M1105.9,579.7h132.3V558.1H1105.9v21.6Z" class="g0_1"/>
<path d="M1113.8,579.7h116.6V558.1H1113.8v21.6Z" class="g0_1"/>
<path d="M47.1,558.1h.7v-.8h-.7v.8Z" class="g1_1"/>
<path d="M47.8,558.1H306.3v-.8H47.8v.8Z" class="g1_1"/>
<path d="M306.4,558.1h.7v-.8h-.7v.8Z" class="g1_1"/>
<path d="M307.1,558.1H439.5v-.8H307.1v.8Z" class="g1_1"/>
<path d="M439.5,558.1h.7v-.8h-.7v.8Z" class="g1_1"/>
<path d="M440.2,558.1H572.6v-.8H440.2v.8Z" class="g1_1"/>
<path d="M572.6,558.1h.7v-.8h-.7v.8Z" class="g1_1"/>
<path d="M573.3,558.1H705.8v-.8H573.3v.8Z" class="g1_1"/>
<path d="M705.8,558.1h.8v-.8h-.8v.8Z" class="g1_1"/>
<path d="M706.6,558.1H838.8v-.8H706.6v.8Z" class="g1_1"/>
<path d="M838.8,558.1h.7v-.8h-.7v.8Z" class="g1_1"/>
<path d="M839.5,558.1H972v-.8H839.5v.8Z" class="g1_1"/>
<path d="M972,558.1h.8v-.8H972v.8Z" class="g1_1"/>
<path d="M972.8,558.1h132.3v-.8H972.8v.8Z" class="g1_1"/>
<path d="M1105.1,558.1h.8v-.8h-.8v.8Z" class="g1_1"/>
<path d="M1105.9,558.1h132.3v-.8H1105.9v.8Z" class="g1_1"/>
<path d="M1238.2,558.1h.8v-.8h-.8v.8Z" class="g1_1"/>
<path d="M47.1,579.7h.7V558.1h-.7v21.6Z" class="g1_1"/>
<path d="M306.4,579.7h.7V558.1h-.7v21.6Z" class="g1_1"/>
<path d="M439.5,579.7h.7V558.1h-.7v21.6Z" class="g1_1"/>
<path d="M572.6,579.7h.7V558.1h-.7v21.6Z" class="g1_1"/>
<path d="M705.8,579.7h.8V558.1h-.8v21.6Z" class="g1_1"/>
<path d="M838.8,579.7h.7V558.1h-.7v21.6Z" class="g1_1"/>
<path d="M972,579.7h.8V558.1H972v21.6Z" class="g1_1"/>
<path d="M1105.1,579.7h.8V558.1h-.8v21.6Z" class="g1_1"/>
<path d="M1238.2,579.7h.8V558.1h-.8v21.6Z" class="g1_1"/>
<path d="M47.1,580.4h.7v-.7h-.7v.7Z" class="g1_1"/>
<path d="M47.8,580.4H306.3v-.7H47.8v.7Z" class="g1_1"/>
<path d="M306.4,580.4h.7v-.7h-.7v.7Z" class="g1_1"/>
<path d="M307.1,580.4H439.5v-.7H307.1v.7Z" class="g1_1"/>
<path d="M439.5,580.4h.7v-.7h-.7v.7Z" class="g1_1"/>
<path d="M440.2,580.4H572.6v-.7H440.2v.7Z" class="g1_1"/>
<path d="M572.6,580.4h.7v-.7h-.7v.7Z" class="g1_1"/>
<path d="M573.3,580.4H705.8v-.7H573.3v.7Z" class="g1_1"/>
<path d="M705.8,580.4h.8v-.7h-.8v.7Z" class="g1_1"/>
<path d="M706.6,580.4H838.8v-.7H706.6v.7Z" class="g1_1"/>
<path d="M838.8,580.4h.7v-.7h-.7v.7Z" class="g1_1"/>
<path d="M839.5,580.4H972v-.7H839.5v.7Z" class="g1_1"/>
<path d="M972,580.4h.8v-.7H972v.7Z" class="g1_1"/>
<path d="M972.8,580.4h132.3v-.7H972.8v.7Z" class="g1_1"/>
<path d="M1105.1,580.4h.8v-.7h-.8v.7Z" class="g1_1"/>
<path d="M1105.9,580.4h132.3v-.7H1105.9v.7Z" class="g1_1"/>
<path d="M1238.2,580.4h.8v-.7h-.8v.7Z" class="g1_1"/>
<path d="M47.1,602.3h.7V580.4h-.7v21.9Z" class="g1_1"/>
<path d="M306.4,602.3h.7V580.4h-.7v21.9Z" class="g1_1"/>
<path d="M439.5,602.3h.7V580.4h-.7v21.9Z" class="g1_1"/>
<path d="M572.6,602.3h.7V580.4h-.7v21.9Z" class="g1_1"/>
<path d="M705.8,602.3h.8V580.4h-.8v21.9Z" class="g1_1"/>
<path d="M838.8,602.3h.7V580.4h-.7v21.9Z" class="g1_1"/>
<path d="M972,602.3h.8V580.4H972v21.9Z" class="g1_1"/>
<path d="M1105.1,602.3h.8V580.4h-.8v21.9Z" class="g1_1"/>
<path d="M1238.2,602.3h.8V580.4h-.8v21.9Z" class="g1_1"/>
<path fill-rule="evenodd" d="M47.8,624.6H1238.2V603H47.8v21.6Z" class="g2_1"/>
<path fill-rule="evenodd" d="M55.7,622.6H1230.4V605H55.7v17.6Z" class="g2_1"/>
<path d="M47.1,603h.7v-.8h-.7v.8Z" class="g1_1"/>
<path d="M47.8,603H306.3v-.8H47.8v.8Z" class="g1_1"/>
<path d="M306.4,603h.7v-.8h-.7v.8Z" class="g1_1"/>
<path d="M307.1,603H439.5v-.8H307.1v.8Z" class="g1_1"/>
<path d="M439.5,603h.7v-.8h-.7v.8Z" class="g1_1"/>
<path d="M440.2,603H572.6v-.8H440.2v.8Z" class="g1_1"/>
<path d="M572.6,603h.7v-.8h-.7v.8Z" class="g1_1"/>
<path d="M573.3,603H705.8v-.8H573.3v.8Z" class="g1_1"/>
<path d="M705.8,603h.8v-.8h-.8v.8Z" class="g1_1"/>
<path d="M706.6,603H838.8v-.8H706.6v.8Z" class="g1_1"/>
<path d="M838.8,603h.7v-.8h-.7v.8Z" class="g1_1"/>
<path d="M839.5,603H972v-.8H839.5v.8Z" class="g1_1"/>
<path d="M972,603h.8v-.8H972v.8Z" class="g1_1"/>
<path d="M972.8,603h132.3v-.8H972.8v.8Z" class="g1_1"/>
<path d="M1105.1,603h.8v-.8h-.8v.8Z" class="g1_1"/>
<path d="M1105.9,603h132.3v-.8H1105.9v.8Z" class="g1_1"/>
<path d="M1238.2,603h.8v-.8h-.8v.8Z" class="g1_1"/>
<path d="M47.1,624.6h.7V603h-.7v21.6Z" class="g1_1"/>
<path d="M1238.2,624.6h.8V603h-.8v21.6Z" class="g1_1"/>
<path fill-rule="evenodd" d="M47.8,647.2H306.3V625.5H47.8v21.7Z" class="g0_1"/>
<path fill-rule="evenodd" d="M55.7,645.2H298.6V627.6H55.7v17.6Z" class="g0_1"/>
<path fill-rule="evenodd" d="M307.3,647.2H439.4V625.5H307.3v21.7Z" class="g0_1"/>
<path d="M315.2,647.2H431.6V625.5H315.2v21.7Z" class="g0_1"/>
<path fill-rule="evenodd" d="M440.2,647.2H572.7V625.5H440.2v21.7Z" class="g0_1"/>
<path d="M448.1,647.2H564.9V625.5H448.1v21.7Z" class="g0_1"/>
<path fill-rule="evenodd" d="M573.5,647.2H705.8V625.5H573.5v21.7Z" class="g0_1"/>
<path d="M581.3,647.2H698V625.5H581.3v21.7Z" class="g0_1"/>
<path fill-rule="evenodd" d="M706.6,647.2H838.9V625.5H706.6v21.7Z" class="g0_1"/>
<path d="M714.5,647.2H831.1V625.5H714.5v21.7Z" class="g0_1"/>
<path fill-rule="evenodd" d="M839.7,647.2H972V625.5H839.7v21.7Z" class="g0_1"/>
<path d="M847.6,647.2H964.2V625.5H847.6v21.7Z" class="g0_1"/>
<path fill-rule="evenodd" d="M972.8,647.2h132.3V625.5H972.8v21.7Z" class="g0_1"/>
<path d="M980.7,647.2h116.6V625.5H980.7v21.7Z" class="g0_1"/>
<path fill-rule="evenodd" d="M1105.9,647.2h132.3V625.5H1105.9v21.7Z" class="g0_1"/>
<path d="M1113.8,647.2h116.6V625.5H1113.8v21.7Z" class="g0_1"/>
<path d="M47.1,625.4h.7v-.8h-.7v.8Z" class="g1_1"/>
<path d="M47.8,625.4H306.3v-.8H47.8v.8Z" class="g1_1"/>
<path d="M306.4,625.4h.7v-.8h-.7v.8Z" class="g1_1"/>
<path d="M307.1,625.4H439.5v-.8H307.1v.8Z" class="g1_1"/>
<path d="M439.5,625.4h.7v-.8h-.7v.8Z" class="g1_1"/>
<path d="M440.2,625.4H572.6v-.8H440.2v.8Z" class="g1_1"/>
<path d="M572.6,625.4h.7v-.8h-.7v.8Z" class="g1_1"/>
<path d="M573.3,625.4H705.8v-.8H573.3v.8Z" class="g1_1"/>
<path d="M705.8,625.4h.8v-.8h-.8v.8Z" class="g1_1"/>
<path d="M706.6,625.4H838.8v-.8H706.6v.8Z" class="g1_1"/>
<path d="M838.8,625.4h.7v-.8h-.7v.8Z" class="g1_1"/>
<path d="M839.5,625.4H972v-.8H839.5v.8Z" class="g1_1"/>
<path d="M972,625.4h.8v-.8H972v.8Z" class="g1_1"/>
<path d="M972.8,625.4h132.3v-.8H972.8v.8Z" class="g1_1"/>
<path d="M1105.1,625.4h.8v-.8h-.8v.8Z" class="g1_1"/>
<path d="M1105.9,625.4h132.3v-.8H1105.9v.8Z" class="g1_1"/>
<path d="M1238.2,625.4h.8v-.8h-.8v.8Z" class="g1_1"/>
<path d="M47.1,647.2h.7V625.4h-.7v21.8Z" class="g1_1"/>
<path d="M306.4,647.2h.7V625.4h-.7v21.8Z" class="g1_1"/>
<path d="M439.5,647.2h.7V625.4h-.7v21.8Z" class="g1_1"/>
<path d="M572.6,647.2h.7V625.4h-.7v21.8Z" class="g1_1"/>
<path d="M705.8,647.2h.8V625.4h-.8v21.8Z" class="g1_1"/>
<path d="M838.8,647.2h.7V625.4h-.7v21.8Z" class="g1_1"/>
<path d="M972,647.2h.8V625.4H972v21.8Z" class="g1_1"/>
<path d="M1105.1,647.2h.8V625.4h-.8v21.8Z" class="g1_1"/>
<path d="M1238.2,647.2h.8V625.4h-.8v21.8Z" class="g1_1"/>
<path d="M47.1,647.9h.7v-.7h-.7v.7Z" class="g1_1"/>
<path d="M47.8,647.9H306.3v-.7H47.8v.7Z" class="g1_1"/>
<path d="M306.4,647.9h.7v-.7h-.7v.7Z" class="g1_1"/>
<path d="M307.1,647.9H439.5v-.7H307.1v.7Z" class="g1_1"/>
<path d="M439.5,647.9h.7v-.7h-.7v.7Z" class="g1_1"/>
<path d="M440.2,647.9H572.6v-.7H440.2v.7Z" class="g1_1"/>
<path d="M572.6,647.9h.7v-.7h-.7v.7Z" class="g1_1"/>
<path d="M573.3,647.9H705.8v-.7H573.3v.7Z" class="g1_1"/>
<path d="M705.8,647.9h.8v-.7h-.8v.7Z" class="g1_1"/>
<path d="M706.6,647.9H838.8v-.7H706.6v.7Z" class="g1_1"/>
<path d="M838.8,647.9h.7v-.7h-.7v.7Z" class="g1_1"/>
<path d="M839.5,647.9H972v-.7H839.5v.7Z" class="g1_1"/>
<path d="M972,647.9h.8v-.7H972v.7Z" class="g1_1"/>
<path d="M972.8,647.9h132.3v-.7H972.8v.7Z" class="g1_1"/>
<path d="M1105.1,647.9h.8v-.7h-.8v.7Z" class="g1_1"/>
<path d="M1105.9,647.9h132.3v-.7H1105.9v.7Z" class="g1_1"/>
<path d="M1238.2,647.9h.8v-.7h-.8v.7Z" class="g1_1"/>
<path d="M47.1,669.5h.7V647.9h-.7v21.6Z" class="g1_1"/>
<path d="M306.4,669.5h.7V647.9h-.7v21.6Z" class="g1_1"/>
<path d="M439.5,669.5h.7V647.9h-.7v21.6Z" class="g1_1"/>
<path d="M572.6,669.5h.7V647.9h-.7v21.6Z" class="g1_1"/>
<path d="M705.8,669.5h.8V647.9h-.8v21.6Z" class="g1_1"/>
<path d="M838.8,669.5h.7V647.9h-.7v21.6Z" class="g1_1"/>
<path d="M972,669.5h.8V647.9H972v21.6Z" class="g1_1"/>
<path d="M1105.1,669.5h.8V647.9h-.8v21.6Z" class="g1_1"/>
<path d="M1238.2,669.5h.8V647.9h-.8v21.6Z" class="g1_1"/>
<path fill-rule="evenodd" d="M47.8,692.1H1238.2V670.5H47.8v21.6Z" class="g2_1"/>
<path fill-rule="evenodd" d="M55.7,690.1H1230.4V672.5H55.7v17.6Z" class="g2_1"/>
<path d="M47.1,670.3h.7v-.8h-.7v.8Z" class="g1_1"/>
<path d="M47.8,670.3H306.3v-.8H47.8v.8Z" class="g1_1"/>
<path d="M306.4,670.3h.7v-.8h-.7v.8Z" class="g1_1"/>
<path d="M307.1,670.3H439.5v-.8H307.1v.8Z" class="g1_1"/>
<path d="M439.5,670.3h.7v-.8h-.7v.8Z" class="g1_1"/>
<path d="M440.2,670.3H572.6v-.8H440.2v.8Z" class="g1_1"/>
<path d="M572.6,670.3h.7v-.8h-.7v.8Z" class="g1_1"/>
<path d="M573.3,670.3H705.8v-.8H573.3v.8Z" class="g1_1"/>
<path d="M705.8,670.3h.8v-.8h-.8v.8Z" class="g1_1"/>
<path d="M706.6,670.3H838.8v-.8H706.6v.8Z" class="g1_1"/>
<path d="M838.8,670.3h.7v-.8h-.7v.8Z" class="g1_1"/>
<path d="M839.5,670.3H972v-.8H839.5v.8Z" class="g1_1"/>
<path d="M972,670.3h.8v-.8H972v.8Z" class="g1_1"/>
<path d="M972.8,670.3h132.3v-.8H972.8v.8Z" class="g1_1"/>
<path d="M1105.1,670.3h.8v-.8h-.8v.8Z" class="g1_1"/>
<path d="M1105.9,670.3h132.3v-.8H1105.9v.8Z" class="g1_1"/>
<path d="M1238.2,670.3h.8v-.8h-.8v.8Z" class="g1_1"/>
<path d="M47.1,692.1h.7V670.3h-.7v21.8Z" class="g1_1"/>
<path d="M1238.2,692.1h.8V670.3h-.8v21.8Z" class="g1_1"/>
<path fill-rule="evenodd" d="M47.8,714.5H306.3V692.8H47.8v21.7Z" class="g0_1"/>
<path fill-rule="evenodd" d="M55.7,712.4H298.6V694.8H55.7v17.6Z" class="g0_1"/>
<path fill-rule="evenodd" d="M307.3,714.5H439.4V692.8H307.3v21.7Z" class="g0_1"/>
<path d="M315.2,714.5H431.6V692.8H315.2v21.7Z" class="g0_1"/>
<path fill-rule="evenodd" d="M440.2,714.5H572.7V692.8H440.2v21.7Z" class="g0_1"/>
<path d="M448.1,714.5H564.9V692.8H448.1v21.7Z" class="g0_1"/>
<path fill-rule="evenodd" d="M573.5,714.5H705.8V692.8H573.5v21.7Z" class="g0_1"/>
<path d="M581.3,714.5H698V692.8H581.3v21.7Z" class="g0_1"/>
<path fill-rule="evenodd" d="M706.6,714.5H838.9V692.8H706.6v21.7Z" class="g0_1"/>
<path d="M714.5,714.5H831.1V692.8H714.5v21.7Z" class="g0_1"/>
<path fill-rule="evenodd" d="M839.7,714.5H972V692.8H839.7v21.7Z" class="g0_1"/>
<path d="M847.6,714.5H964.2V692.8H847.6v21.7Z" class="g0_1"/>
<path fill-rule="evenodd" d="M972.8,714.5h132.3V692.8H972.8v21.7Z" class="g0_1"/>
<path d="M980.7,714.5h116.6V692.8H980.7v21.7Z" class="g0_1"/>
<path fill-rule="evenodd" d="M1105.9,714.5h132.3V692.8H1105.9v21.7Z" class="g0_1"/>
<path d="M1113.8,714.5h116.6V692.8H1113.8v21.7Z" class="g0_1"/>
<path d="M47.1,692.8h.7v-.7h-.7v.7Z" class="g1_1"/>
<path d="M47.8,692.8H306.3v-.7H47.8v.7Z" class="g1_1"/>
<path d="M306.4,692.8h.7v-.7h-.7v.7Z" class="g1_1"/>
<path d="M307.1,692.8H439.5v-.7H307.1v.7Z" class="g1_1"/>
<path d="M439.5,692.8h.7v-.7h-.7v.7Z" class="g1_1"/>
<path d="M440.2,692.8H572.6v-.7H440.2v.7Z" class="g1_1"/>
<path d="M572.6,692.8h.7v-.7h-.7v.7Z" class="g1_1"/>
<path d="M573.3,692.8H705.8v-.7H573.3v.7Z" class="g1_1"/>
<path d="M705.8,692.8h.8v-.7h-.8v.7Z" class="g1_1"/>
<path d="M706.6,692.8H838.8v-.7H706.6v.7Z" class="g1_1"/>
<path d="M838.8,692.8h.7v-.7h-.7v.7Z" class="g1_1"/>
<path d="M839.5,692.8H972v-.7H839.5v.7Z" class="g1_1"/>
<path d="M972,692.8h.8v-.7H972v.7Z" class="g1_1"/>
<path d="M972.8,692.8h132.3v-.7H972.8v.7Z" class="g1_1"/>
<path d="M1105.1,692.8h.8v-.7h-.8v.7Z" class="g1_1"/>
<path d="M1105.9,692.8h132.3v-.7H1105.9v.7Z" class="g1_1"/>
<path d="M1238.2,692.8h.8v-.7h-.8v.7Z" class="g1_1"/>
<path d="M47.1,714.5h.7V692.8h-.7v21.7Z" class="g1_1"/>
<path d="M306.4,714.5h.7V692.8h-.7v21.7Z" class="g1_1"/>
<path d="M439.5,714.5h.7V692.8h-.7v21.7Z" class="g1_1"/>
<path d="M572.6,714.5h.7V692.8h-.7v21.7Z" class="g1_1"/>
<path d="M705.8,714.5h.8V692.8h-.8v21.7Z" class="g1_1"/>
<path d="M838.8,714.5h.7V692.8h-.7v21.7Z" class="g1_1"/>
<path d="M972,714.5h.8V692.8H972v21.7Z" class="g1_1"/>
<path d="M1105.1,714.5h.8V692.8h-.8v21.7Z" class="g1_1"/>
<path d="M1238.2,714.5h.8V692.8h-.8v21.7Z" class="g1_1"/>
<path d="M47.1,715.2h.7v-.8h-.7v.8Z" class="g1_1"/>
<path d="M47.8,715.2H306.3v-.8H47.8v.8Z" class="g1_1"/>
<path d="M306.4,715.2h.7v-.8h-.7v.8Z" class="g1_1"/>
<path d="M307.1,715.2H439.5v-.8H307.1v.8Z" class="g1_1"/>
<path d="M439.5,715.2h.7v-.8h-.7v.8Z" class="g1_1"/>
<path d="M440.2,715.2H572.6v-.8H440.2v.8Z" class="g1_1"/>
<path d="M572.6,715.2h.7v-.8h-.7v.8Z" class="g1_1"/>
<path d="M573.3,715.2H705.8v-.8H573.3v.8Z" class="g1_1"/>
<path d="M705.8,715.2h.8v-.8h-.8v.8Z" class="g1_1"/>
<path d="M706.6,715.2H838.8v-.8H706.6v.8Z" class="g1_1"/>
<path d="M838.8,715.2h.7v-.8h-.7v.8Z" class="g1_1"/>
<path d="M839.5,715.2H972v-.8H839.5v.8Z" class="g1_1"/>
<path d="M972,715.2h.8v-.8H972v.8Z" class="g1_1"/>
<path d="M972.8,715.2h132.3v-.8H972.8v.8Z" class="g1_1"/>
<path d="M1105.1,715.2h.8v-.8h-.8v.8Z" class="g1_1"/>
<path d="M1105.9,715.2h132.3v-.8H1105.9v.8Z" class="g1_1"/>
<path d="M1238.2,715.2h.8v-.8h-.8v.8Z" class="g1_1"/>
<path d="M47.1,737h.7V715.2h-.7V737Z" class="g1_1"/>
<path d="M306.4,737h.7V715.2h-.7V737Z" class="g1_1"/>
<path d="M439.5,737h.7V715.2h-.7V737Z" class="g1_1"/>
<path d="M572.6,737h.7V715.2h-.7V737Z" class="g1_1"/>
<path d="M705.8,737h.8V715.2h-.8V737Z" class="g1_1"/>
<path d="M838.8,737h.7V715.2h-.7V737Z" class="g1_1"/>
<path d="M972,737h.8V715.2H972V737Z" class="g1_1"/>
<path d="M1105.1,737h.8V715.2h-.8V737Z" class="g1_1"/>
<path d="M1238.2,737h.8V715.2h-.8V737Z" class="g1_1"/>
<path fill-rule="evenodd" d="M47.8,759.4H1238.2V737.7H47.8v21.7Z" class="g2_1"/>
<path fill-rule="evenodd" d="M55.7,757.4H1230.4V739.8H55.7v17.6Z" class="g2_1"/>
<path d="M47.1,737.7h.7V737h-.7v.7Z" class="g1_1"/>
<path d="M47.8,737.7H306.3V737H47.8v.7Z" class="g1_1"/>
<path d="M306.4,737.7h.7V737h-.7v.7Z" class="g1_1"/>
<path d="M307.1,737.7H439.5V737H307.1v.7Z" class="g1_1"/>
<path d="M439.5,737.7h.7V737h-.7v.7Z" class="g1_1"/>
<path d="M440.2,737.7H572.6V737H440.2v.7Z" class="g1_1"/>
<path d="M572.6,737.7h.7V737h-.7v.7Z" class="g1_1"/>
<path d="M573.3,737.7H705.8V737H573.3v.7Z" class="g1_1"/>
<path d="M705.8,737.7h.8V737h-.8v.7Z" class="g1_1"/>
<path d="M706.6,737.7H838.8V737H706.6v.7Z" class="g1_1"/>
<path d="M838.8,737.7h.7V737h-.7v.7Z" class="g1_1"/>
<path d="M839.5,737.7H972V737H839.5v.7Z" class="g1_1"/>
<path d="M972,737.7h.8V737H972v.7Z" class="g1_1"/>
<path d="M972.8,737.7h132.3V737H972.8v.7Z" class="g1_1"/>
<path d="M1105.1,737.7h.8V737h-.8v.7Z" class="g1_1"/>
<path d="M1105.9,737.7h132.3V737H1105.9v.7Z" class="g1_1"/>
<path d="M1238.2,737.7h.8V737h-.8v.7Z" class="g1_1"/>
<path d="M47.1,759.4h.7V737.7h-.7v21.7Z" class="g1_1"/>
<path d="M1238.2,759.4h.8V737.7h-.8v21.7Z" class="g1_1"/>
<path fill-rule="evenodd" d="M47.8,781.9H306.3V760.3H47.8v21.6Z" class="g0_1"/>
<path fill-rule="evenodd" d="M55.7,779.9H298.6V762.3H55.7v17.6Z" class="g0_1"/>
<path fill-rule="evenodd" d="M307.3,781.9H439.4V760.3H307.3v21.6Z" class="g0_1"/>
<path d="M315.2,781.9H431.6V760.3H315.2v21.6Z" class="g0_1"/>
<path fill-rule="evenodd" d="M440.2,781.9H572.7V760.3H440.2v21.6Z" class="g0_1"/>
<path d="M448.1,781.9H564.9V760.3H448.1v21.6Z" class="g0_1"/>
<path fill-rule="evenodd" d="M573.5,781.9H705.8V760.3H573.5v21.6Z" class="g0_1"/>
<path d="M581.3,781.9H698V760.3H581.3v21.6Z" class="g0_1"/>
<path fill-rule="evenodd" d="M706.6,781.9H838.9V760.3H706.6v21.6Z" class="g0_1"/>
<path d="M714.5,781.9H831.1V760.3H714.5v21.6Z" class="g0_1"/>
<path fill-rule="evenodd" d="M839.7,781.9H972V760.3H839.7v21.6Z" class="g0_1"/>
<path d="M847.6,781.9H964.2V760.3H847.6v21.6Z" class="g0_1"/>
<path fill-rule="evenodd" d="M972.8,781.9h132.3V760.3H972.8v21.6Z" class="g0_1"/>
<path d="M980.7,781.9h116.6V760.3H980.7v21.6Z" class="g0_1"/>
<path fill-rule="evenodd" d="M1105.9,781.9h132.3V760.3H1105.9v21.6Z" class="g0_1"/>
<path d="M1113.8,781.9h116.6V760.3H1113.8v21.6Z" class="g0_1"/>
<path d="M47.1,760.1h.7v-.7h-.7v.7Z" class="g1_1"/>
<path d="M47.8,760.1H306.3v-.7H47.8v.7Z" class="g1_1"/>
<path d="M306.4,760.1h.7v-.7h-.7v.7Z" class="g1_1"/>
<path d="M307.1,760.1H439.5v-.7H307.1v.7Z" class="g1_1"/>
<path d="M439.5,760.1h.7v-.7h-.7v.7Z" class="g1_1"/>
<path d="M440.2,760.1H572.6v-.7H440.2v.7Z" class="g1_1"/>
<path d="M572.6,760.1h.7v-.7h-.7v.7Z" class="g1_1"/>
<path d="M573.3,760.1H705.8v-.7H573.3v.7Z" class="g1_1"/>
<path d="M705.8,760.1h.8v-.7h-.8v.7Z" class="g1_1"/>
<path d="M706.6,760.1H838.8v-.7H706.6v.7Z" class="g1_1"/>
<path d="M838.8,760.1h.7v-.7h-.7v.7Z" class="g1_1"/>
<path d="M839.5,760.1H972v-.7H839.5v.7Z" class="g1_1"/>
<path d="M972,760.1h.8v-.7H972v.7Z" class="g1_1"/>
<path d="M972.8,760.1h132.3v-.7H972.8v.7Z" class="g1_1"/>
<path d="M1105.1,760.1h.8v-.7h-.8v.7Z" class="g1_1"/>
<path d="M1105.9,760.1h132.3v-.7H1105.9v.7Z" class="g1_1"/>
<path d="M1238.2,760.1h.8v-.7h-.8v.7Z" class="g1_1"/>
<path d="M47.1,781.9h.7V760.1h-.7v21.8Z" class="g1_1"/>
<path d="M306.4,781.9h.7V760.1h-.7v21.8Z" class="g1_1"/>
<path d="M439.5,781.9h.7V760.1h-.7v21.8Z" class="g1_1"/>
<path d="M572.6,781.9h.7V760.1h-.7v21.8Z" class="g1_1"/>
<path d="M705.8,781.9h.8V760.1h-.8v21.8Z" class="g1_1"/>
<path d="M838.8,781.9h.7V760.1h-.7v21.8Z" class="g1_1"/>
<path d="M972,781.9h.8V760.1H972v21.8Z" class="g1_1"/>
<path d="M1105.1,781.9h.8V760.1h-.8v21.8Z" class="g1_1"/>
<path d="M1238.2,781.9h.8V760.1h-.8v21.8Z" class="g1_1"/>
<path d="M47.1,782.7h.7v-.8h-.7v.8Z" class="g1_1"/>
<path d="M47.8,782.7H306.3v-.8H47.8v.8Z" class="g1_1"/>
<path d="M306.4,782.7h.7v-.8h-.7v.8Z" class="g1_1"/>
<path d="M307.1,782.7H439.5v-.8H307.1v.8Z" class="g1_1"/>
<path d="M439.5,782.7h.7v-.8h-.7v.8Z" class="g1_1"/>
<path d="M440.2,782.7H572.6v-.8H440.2v.8Z" class="g1_1"/>
<path d="M572.6,782.7h.7v-.8h-.7v.8Z" class="g1_1"/>
<path d="M573.3,782.7H705.8v-.8H573.3v.8Z" class="g1_1"/>
<path d="M705.8,782.7h.8v-.8h-.8v.8Z" class="g1_1"/>
<path d="M706.6,782.7H838.8v-.8H706.6v.8Z" class="g1_1"/>
<path d="M838.8,782.7h.7v-.8h-.7v.8Z" class="g1_1"/>
<path d="M839.5,782.7H972v-.8H839.5v.8Z" class="g1_1"/>
<path d="M972,782.7h.8v-.8H972v.8Z" class="g1_1"/>
<path d="M972.8,782.7h132.3v-.8H972.8v.8Z" class="g1_1"/>
<path d="M1105.1,782.7h.8v-.8h-.8v.8Z" class="g1_1"/>
<path d="M1105.9,782.7h132.3v-.8H1105.9v.8Z" class="g1_1"/>
<path d="M1238.2,782.7h.8v-.8h-.8v.8Z" class="g1_1"/>
<path d="M47.1,804.3h.7V782.6h-.7v21.7Z" class="g1_1"/>
<path d="M306.4,804.3h.7V782.6h-.7v21.7Z" class="g1_1"/>
<path d="M439.5,804.3h.7V782.6h-.7v21.7Z" class="g1_1"/>
<path d="M572.6,804.3h.7V782.6h-.7v21.7Z" class="g1_1"/>
<path d="M705.8,804.3h.8V782.6h-.8v21.7Z" class="g1_1"/>
<path d="M838.8,804.3h.7V782.6h-.7v21.7Z" class="g1_1"/>
<path d="M972,804.3h.8V782.6H972v21.7Z" class="g1_1"/>
<path d="M1105.1,804.3h.8V782.6h-.8v21.7Z" class="g1_1"/>
<path d="M1238.2,804.3h.8V782.6h-.8v21.7Z" class="g1_1"/>
<path fill-rule="evenodd" d="M47.8,826.8H1238.2V805.2H47.8v21.6Z" class="g2_1"/>
<path fill-rule="evenodd" d="M55.7,824.8H1230.4V807.2H55.7v17.6Z" class="g2_1"/>
<path d="M47.1,805h.7v-.7h-.7v.7Z" class="g1_1"/>
<path d="M47.8,805H306.3v-.7H47.8v.7Z" class="g1_1"/>
<path d="M306.4,805h.7v-.7h-.7v.7Z" class="g1_1"/>
<path d="M307.1,805H439.5v-.7H307.1v.7Z" class="g1_1"/>
<path d="M439.5,805h.7v-.7h-.7v.7Z" class="g1_1"/>
<path d="M440.2,805H572.6v-.7H440.2v.7Z" class="g1_1"/>
<path d="M572.6,805h.7v-.7h-.7v.7Z" class="g1_1"/>
<path d="M573.3,805H705.8v-.7H573.3v.7Z" class="g1_1"/>
<path d="M705.8,805h.8v-.7h-.8v.7Z" class="g1_1"/>
<path d="M706.6,805H838.8v-.7H706.6v.7Z" class="g1_1"/>
<path d="M838.8,805h.7v-.7h-.7v.7Z" class="g1_1"/>
<path d="M839.5,805H972v-.7H839.5v.7Z" class="g1_1"/>
<path d="M972,805h.8v-.7H972v.7Z" class="g1_1"/>
<path d="M972.8,805h132.3v-.7H972.8v.7Z" class="g1_1"/>
<path d="M1105.1,805h.8v-.7h-.8v.7Z" class="g1_1"/>
<path d="M1105.9,805h132.3v-.7H1105.9v.7Z" class="g1_1"/>
<path d="M1238.2,805h.8v-.7h-.8v.7Z" class="g1_1"/>
<path d="M47.1,826.8h.7V805h-.7v21.8Z" class="g1_1"/>
<path d="M47.1,827.6h.7v-.8h-.7v.8Z" class="g1_1"/>
<path d="M47.1,827.6h.7v-.8h-.7v.8Z" class="g1_1"/>
<path d="M47.8,827.6H1238.2v-.8H47.8v.8Z" class="g1_1"/>
<path d="M1238.2,826.8h.8V805h-.8v21.8Z" class="g1_1"/>
<path d="M1238.2,827.6h.8v-.8h-.8v.8Z" class="g1_1"/>
<path d="M1238.2,827.6h.8v-.8h-.8v.8Z" class="g1_1"/>
<image clip-path="url(#c0_1)" preserveAspectRatio="none" x="363" y="154" width="21" height="21" xlink:href="img/1.png"/>
<image clip-path="url(#c1_1)" preserveAspectRatio="none" x="496" y="154" width="21" height="21" xlink:href="img/2.png"/>
<image clip-path="url(#c2_1)" preserveAspectRatio="none" x="629" y="154" width="21" height="21" xlink:href="img/3.png"/>
<image clip-path="url(#c3_1)" preserveAspectRatio="none" x="762" y="154" width="22" height="21" xlink:href="img/4.png"/>
<image clip-path="url(#c4_1)" preserveAspectRatio="none" x="895" y="154" width="22" height="21" xlink:href="img/5.png"/>
<image clip-path="url(#c5_1)" preserveAspectRatio="none" x="1028" y="154" width="22" height="21" xlink:href="img/6.png"/>
<image clip-path="url(#c6_1)" preserveAspectRatio="none" x="1161" y="154" width="22" height="21" xlink:href="img/7.png"/>
<image clip-path="url(#c7_1)" preserveAspectRatio="none" x="363" y="221" width="21" height="22" xlink:href="img/8.png"/>
<image clip-path="url(#c8_1)" preserveAspectRatio="none" x="496" y="221" width="21" height="22" xlink:href="img/9.png"/>
<image clip-path="url(#c9_1)" preserveAspectRatio="none" x="629" y="221" width="21" height="22" xlink:href="img/10.png"/>
<image clip-path="url(#ca_1)" preserveAspectRatio="none" x="762" y="221" width="22" height="22" xlink:href="img/11.png"/>
<image clip-path="url(#cb_1)" preserveAspectRatio="none" x="895" y="221" width="22" height="22" xlink:href="img/12.png"/>
<image clip-path="url(#cc_1)" preserveAspectRatio="none" x="1028" y="221" width="22" height="22" xlink:href="img/13.png"/>
<image clip-path="url(#cd_1)" preserveAspectRatio="none" x="1161" y="221" width="22" height="22" xlink:href="img/14.png"/>
<image clip-path="url(#ce_1)" preserveAspectRatio="none" x="363" y="289" width="21" height="21" xlink:href="img/15.png"/>
<image clip-path="url(#cf_1)" preserveAspectRatio="none" x="496" y="289" width="21" height="21" xlink:href="img/16.png"/>
<image clip-path="url(#cg_1)" preserveAspectRatio="none" x="629" y="289" width="21" height="21" xlink:href="img/17.png"/>
<image clip-path="url(#ch_1)" preserveAspectRatio="none" x="762" y="289" width="22" height="21" xlink:href="img/18.png"/>
<image clip-path="url(#ci_1)" preserveAspectRatio="none" x="895" y="289" width="22" height="21" xlink:href="img/19.png"/>
<image clip-path="url(#cj_1)" preserveAspectRatio="none" x="1028" y="289" width="22" height="21" xlink:href="img/20.png"/>
<image clip-path="url(#ck_1)" preserveAspectRatio="none" x="1161" y="289" width="22" height="21" xlink:href="img/21.png"/>
<image clip-path="url(#cl_1)" preserveAspectRatio="none" x="363" y="356" width="21" height="22" xlink:href="img/22.png"/>
<image clip-path="url(#cm_1)" preserveAspectRatio="none" x="496" y="356" width="21" height="22" xlink:href="img/23.png"/>
<image clip-path="url(#cn_1)" preserveAspectRatio="none" x="629" y="356" width="21" height="22" xlink:href="img/24.png"/>
<image clip-path="url(#co_1)" preserveAspectRatio="none" x="762" y="356" width="22" height="22" xlink:href="img/25.png"/>
<image clip-path="url(#cp_1)" preserveAspectRatio="none" x="895" y="356" width="22" height="22" xlink:href="img/26.png"/>
<image clip-path="url(#cq_1)" preserveAspectRatio="none" x="1028" y="356" width="22" height="22" xlink:href="img/27.png"/>
<image clip-path="url(#cr_1)" preserveAspectRatio="none" x="1161" y="356" width="22" height="22" xlink:href="img/28.png"/>
<image clip-path="url(#cs_1)" preserveAspectRatio="none" x="363" y="423" width="21" height="22" xlink:href="img/29.png"/>
<image clip-path="url(#ct_1)" preserveAspectRatio="none" x="496" y="423" width="21" height="22" xlink:href="img/30.png"/>
<image clip-path="url(#cu_1)" preserveAspectRatio="none" x="629" y="423" width="21" height="22" xlink:href="img/31.png"/>
<image clip-path="url(#cv_1)" preserveAspectRatio="none" x="762" y="423" width="22" height="22" xlink:href="img/32.png"/>
<image clip-path="url(#cw_1)" preserveAspectRatio="none" x="895" y="423" width="22" height="22" xlink:href="img/33.png"/>
<image clip-path="url(#cx_1)" preserveAspectRatio="none" x="1028" y="423" width="22" height="22" xlink:href="img/34.png"/>
<image clip-path="url(#cy_1)" preserveAspectRatio="none" x="1161" y="423" width="22" height="22" xlink:href="img/35.png"/>
<image clip-path="url(#cz_1)" preserveAspectRatio="none" x="363" y="491" width="21" height="21" xlink:href="img/36.png"/>
<image clip-path="url(#c10_1)" preserveAspectRatio="none" x="496" y="491" width="21" height="21" xlink:href="img/37.png"/>
<image clip-path="url(#c11_1)" preserveAspectRatio="none" x="629" y="491" width="21" height="21" xlink:href="img/38.png"/>
<image clip-path="url(#c12_1)" preserveAspectRatio="none" x="762" y="491" width="22" height="21" xlink:href="img/39.png"/>
<image clip-path="url(#c13_1)" preserveAspectRatio="none" x="895" y="491" width="22" height="21" xlink:href="img/40.png"/>
<image clip-path="url(#c14_1)" preserveAspectRatio="none" x="1028" y="491" width="22" height="21" xlink:href="img/41.png"/>
<image clip-path="url(#c15_1)" preserveAspectRatio="none" x="1161" y="491" width="22" height="21" xlink:href="img/42.png"/>
<image clip-path="url(#c16_1)" preserveAspectRatio="none" x="363" y="558" width="21" height="22" xlink:href="img/43.png"/>
<image clip-path="url(#c17_1)" preserveAspectRatio="none" x="496" y="558" width="21" height="22" xlink:href="img/44.png"/>
<image clip-path="url(#c18_1)" preserveAspectRatio="none" x="629" y="558" width="21" height="22" xlink:href="img/45.png"/>
<image clip-path="url(#c19_1)" preserveAspectRatio="none" x="762" y="558" width="22" height="22" xlink:href="img/46.png"/>
<image clip-path="url(#c1a_1)" preserveAspectRatio="none" x="895" y="558" width="22" height="22" xlink:href="img/47.png"/>
<image clip-path="url(#c1b_1)" preserveAspectRatio="none" x="1028" y="558" width="22" height="22" xlink:href="img/48.png"/>
<image clip-path="url(#c1c_1)" preserveAspectRatio="none" x="1161" y="558" width="22" height="22" xlink:href="img/49.png"/>
<image clip-path="url(#c1d_1)" preserveAspectRatio="none" x="363" y="625" width="21" height="22" xlink:href="img/50.png"/>
<image clip-path="url(#c1e_1)" preserveAspectRatio="none" x="496" y="625" width="21" height="22" xlink:href="img/51.png"/>
<image clip-path="url(#c1f_1)" preserveAspectRatio="none" x="629" y="625" width="21" height="22" xlink:href="img/52.png"/>
<image clip-path="url(#c1g_1)" preserveAspectRatio="none" x="762" y="625" width="22" height="22" xlink:href="img/53.png"/>
<image clip-path="url(#c1h_1)" preserveAspectRatio="none" x="895" y="625" width="22" height="22" xlink:href="img/54.png"/>
<image clip-path="url(#c1i_1)" preserveAspectRatio="none" x="1028" y="625" width="22" height="22" xlink:href="img/55.png"/>
<image clip-path="url(#c1j_1)" preserveAspectRatio="none" x="1161" y="625" width="22" height="22" xlink:href="img/56.png"/>
<image clip-path="url(#c1k_1)" preserveAspectRatio="none" x="363" y="693" width="21" height="21" xlink:href="img/57.png"/>
<image clip-path="url(#c1l_1)" preserveAspectRatio="none" x="496" y="693" width="21" height="21" xlink:href="img/58.png"/>
<image clip-path="url(#c1m_1)" preserveAspectRatio="none" x="629" y="693" width="21" height="21" xlink:href="img/59.png"/>
<image clip-path="url(#c1n_1)" preserveAspectRatio="none" x="762" y="693" width="22" height="21" xlink:href="img/60.png"/>
<image clip-path="url(#c1o_1)" preserveAspectRatio="none" x="895" y="693" width="22" height="21" xlink:href="img/61.png"/>
<image clip-path="url(#c1p_1)" preserveAspectRatio="none" x="1028" y="693" width="22" height="21" xlink:href="img/62.png"/>
<image clip-path="url(#c1q_1)" preserveAspectRatio="none" x="1161" y="693" width="22" height="21" xlink:href="img/63.png"/>
<image clip-path="url(#c1r_1)" preserveAspectRatio="none" x="363" y="760" width="21" height="22" xlink:href="img/64.png"/>
<image clip-path="url(#c1s_1)" preserveAspectRatio="none" x="496" y="760" width="21" height="22" xlink:href="img/65.png"/>
<image clip-path="url(#c1t_1)" preserveAspectRatio="none" x="629" y="760" width="21" height="22" xlink:href="img/66.png"/>
<image clip-path="url(#c1u_1)" preserveAspectRatio="none" x="762" y="760" width="22" height="22" xlink:href="img/67.png"/>
<image clip-path="url(#c1v_1)" preserveAspectRatio="none" x="895" y="760" width="22" height="22" xlink:href="img/68.png"/>
<image clip-path="url(#c1w_1)" preserveAspectRatio="none" x="1028" y="760" width="22" height="22" xlink:href="img/69.png"/>
<image clip-path="url(#c1x_1)" preserveAspectRatio="none" x="1161" y="760" width="22" height="22" xlink:href="img/70.png"/>
</svg>