<?xml version="1.0" encoding="UTF-8" standalone="no"?>
<!DOCTYPE svg PUBLIC "-//W3C//DTD SVG 1.1//EN"
"http://www.w3.org/Graphics/SVG/1.1/DTD/svg11.dtd">
<svg viewBox="0 0 1286 909" version="1.1" xmlns="http://www.w3.org/2000/svg" xmlns:xlink="http://www.w3.org/1999/xlink">
<defs>
<style type="text/css"><![CDATA[
.g0_1{
fill: #D9D9D9;
}
.g1_1{
}
]]></style>
</defs>
<path fill-rule="evenodd" d="M47.8,351.6H1238.2V330H47.8v21.6Z" class="g0_1"/>
<path fill-rule="evenodd" d="M55.7,349.6H1230.4V332H55.7v17.6Z" class="g0_1"/>
<path d="M47.1,330h.7v-.7h-.7v.7Z" class="g1_1"/>
<path d="M47.1,330h.7v-.7h-.7v.7Z" class="g1_1"/>
<path d="M47.8,330H1238.2v-.7H47.8v.7Z" class="g1_1"/>
<path d="M1238.2,330h.8v-.7h-.8v.7Z" class="g1_1"/>
<path d="M1238.2,330h.8v-.7h-.8v.7Z" class="g1_1"/>
<path d="M47.1,351.6h.7V330h-.7v21.6Z" class="g1_1"/>
<path d="M1238.2,351.6h.8V330h-.8v21.6Z" class="g1_1"/>
<path fill-rule="evenodd" d="M47.8,374.2H176.7V352.4H47.8v21.8Z" class="g0_1"/>
<path fill-rule="evenodd" d="M55.7,372H168.9V354.4H55.7V372Z" class="g0_1"/>
<path fill-rule="evenodd" d="M177.5,374.2H1238.2V352.4H177.5v21.8Z" class="g0_1"/>
<path fill-rule="evenodd" d="M185.4,372h1045V354.4H185.4V372Z" class="g0_1"/>
<path d="M47.1,352.4h.7v-.8h-.7v.8Z" class="g1_1"/>
<path d="M47.8,352.4H176.7v-.8H47.8v.8Z" class="g1_1"/>
<path d="M176.7,352.4h.8v-.8h-.8v.8Z" class="g1_1"/>
<path d="M177.5,352.4H1238.2v-.8H177.5v.8Z" class="g1_1"/>
<path d="M1238.2,352.4h.8v-.8h-.8v.8Z" class="g1_1"/>
<path d="M47.1,374.2h.7V352.4h-.7v21.8Z" class="g1_1"/>
<path d="M176.7,374.2h.8V352.4h-.8v21.8Z" class="g1_1"/>
<path d="M1238.2,374.2h.8V352.4h-.8v21.8Z" class="g1_1"/>
<path d="M47.1,374.9h.7v-.7h-.7v.7Z" class="g1_1"/>
<path d="M47.8,374.9H176.7v-.7H47.8v.7Z" class="g1_1"/>
<path d="M176.7,374.9h.8v-.7h-.8v.7Z" class="g1_1"/>
<path d="M177.5,374.9H1238.2v-.7H177.5v.7Z" class="g1_1"/>
<path d="M1238.2,374.9h.8v-.7h-.8v.7Z" class="g1_1"/>
<path d="M47.1,396.5h.7V374.9h-.7v21.6Z" class="g1_1"/>
<path d="M176.7,396.5h.8V374.9h-.8v21.6Z" class="g1_1"/>
<path d="M1238.2,396.5h.8V374.9h-.8v21.6Z" class="g1_1"/>
<path d="M47.1,397.3h.7v-.8h-.7v.8Z" class="g1_1"/>
<path d="M47.8,397.3H176.7v-.8H47.8v.8Z" class="g1_1"/>
<path d="M176.7,397.3h.8v-.8h-.8v.8Z" class="g1_1"/>
<path d="M177.5,397.3H1238.2v-.8H177.5v.8Z" class="g1_1"/>
<path d="M1238.2,397.3h.8v-.8h-.8v.8Z" class="g1_1"/>
<path d="M47.1,419.1h.7V397.3h-.7v21.8Z" class="g1_1"/>
<path d="M176.7,419.1h.8V397.3h-.8v21.8Z" class="g1_1"/>
<path d="M1238.2,419.1h.8V397.3h-.8v21.8Z" class="g1_1"/>
<path d="M47.1,419.8h.7v-.7h-.7v.7Z" class="g1_1"/>
<path d="M47.8,419.8H176.7v-.7H47.8v.7Z" class="g1_1"/>
<path d="M176.7,419.8h.8v-.7h-.8v.7Z" class="g1_1"/>
<path d="M177.5,419.8H1238.2v-.7H177.5v.7Z" class="g1_1"/>
<path d="M1238.2,419.8h.8v-.7h-.8v.7Z" class="g1_1"/>
<path d="M47.1,441.5h.7V419.8h-.7v21.7Z" class="g1_1"/>
<path d="M176.7,441.5h.8V419.8h-.8v21.7Z" class="g1_1"/>
<path d="M1238.2,441.5h.8V419.8h-.8v21.7Z" class="g1_1"/>
<path d="M47.1,442.2h.7v-.7h-.7v.7Z" class="g1_1"/>
<path d="M47.8,442.2H176.7v-.7H47.8v.7Z" class="g1_1"/>
<path d="M176.7,442.2h.8v-.7h-.8v.7Z" class="g1_1"/>
<path d="M177.5,442.2H1238.2v-.7H177.5v.7Z" class="g1_1"/>
<path d="M1238.2,442.2h.8v-.7h-.8v.7Z" class="g1_1"/>
<path d="M47.1,464h.7V442.2h-.7V464Z" class="g1_1"/>
<path d="M47.1,464.8h.7V464h-.7v.8Z" class="g1_1"/>
<path d="M47.1,464.8h.7V464h-.7v.8Z" class="g1_1"/>
<path d="M47.8,464.8H176.7V464H47.8v.8Z" class="g1_1"/>
<path d="M176.7,464h.8V442.2h-.8V464Z" class="g1_1"/>
<path d="M176.7,464.8h.8V464h-.8v.8Z" class="g1_1"/>
<path d="M177.5,464.8H1238.2V464H177.5v.8Z" class="g1_1"/>
<path d="M1238.2,464h.8V442.2h-.8V464Z" class="g1_1"/>
<path d="M1238.2,464.8h.8V464h-.8v.8Z" class="g1_1"/>
<path d="M1238.2,464.8h.8V464h-.8v.8Z" class="g1_1"/>
<path fill-rule="evenodd" d="M47.8,501.2H1238.2V479.6H47.8v21.6Z" class="g0_1"/>
<path fill-rule="evenodd" d="M55.7,499.2H1230.4V481.6H55.7v17.6Z" class="g0_1"/>
<path d="M47.1,479.6h.7v-.7h-.7v.7Z" class="g1_1"/>
<path d="M47.1,479.6h.7v-.7h-.7v.7Z" class="g1_1"/>
<path d="M47.8,479.6H1238.2v-.7H47.8v.7Z" class="g1_1"/>
<path d="M1238.2,479.6h.8v-.7h-.8v.7Z" class="g1_1"/>
<path d="M1238.2,479.6h.8v-.7h-.8v.7Z" class="g1_1"/>
<path d="M47.1,501.2h.7V479.6h-.7v21.6Z" class="g1_1"/>
<path d="M1238.2,501.2h.8V479.6h-.8v21.6Z" class="g1_1"/>
<path fill-rule="evenodd" d="M47.8,523.8H176.7V502H47.8v21.8Z" class="g0_1"/>
<path fill-rule="evenodd" d="M55.7,521.6H168.9V504.2H55.7v17.4Z" class="g0_1"/>
<path fill-rule="evenodd" d="M177.5,523.8H1238.2V502H177.5v21.8Z" class="g0_1"/>
<path fill-rule="evenodd" d="M185.4,521.6h1045V504.2H185.4v17.4Z" class="g0_1"/>
<path d="M47.1,502h.7v-.8h-.7v.8Z" class="g1_1"/>
<path d="M47.8,502H176.7v-.8H47.8v.8Z" class="g1_1"/>
<path d="M176.7,502h.8v-.8h-.8v.8Z" class="g1_1"/>
<path d="M177.5,502H1238.2v-.8H177.5v.8Z" class="g1_1"/>
<path d="M1238.2,502h.8v-.8h-.8v.8Z" class="g1_1"/>
<path d="M47.1,523.8h.7V502h-.7v21.8Z" class="g1_1"/>
<path d="M176.7,523.8h.8V502h-.8v21.8Z" class="g1_1"/>
<path d="M1238.2,523.8h.8V502h-.8v21.8Z" class="g1_1"/>
<path d="M47.1,524.5h.7v-.7h-.7v.7Z" class="g1_1"/>
<path d="M47.8,524.5H176.7v-.7H47.8v.7Z" class="g1_1"/>
<path d="M176.7,524.5h.8v-.7h-.8v.7Z" class="g1_1"/>
<path d="M177.5,524.5H1238.2v-.7H177.5v.7Z" class="g1_1"/>
<path d="M1238.2,524.5h.8v-.7h-.8v.7Z" class="g1_1"/>
<path d="M47.1,546.2h.7V524.5h-.7v21.7Z" class="g1_1"/>
<path d="M176.7,546.2h.8V524.5h-.8v21.7Z" class="g1_1"/>
<path d="M1238.2,546.2h.8V524.5h-.8v21.7Z" class="g1_1"/>
<path d="M47.1,546.9h.7v-.8h-.7v.8Z" class="g1_1"/>
<path d="M47.8,546.9H176.7v-.8H47.8v.8Z" class="g1_1"/>
<path d="M176.7,546.9h.8v-.8h-.8v.8Z" class="g1_1"/>
<path d="M177.5,546.9H1238.2v-.8H177.5v.8Z" class="g1_1"/>
<path d="M1238.2,546.9h.8v-.8h-.8v.8Z" class="g1_1"/>
<path d="M47.1,568.7h.7V546.9h-.7v21.8Z" class="g1_1"/>
<path d="M176.7,568.7h.8V546.9h-.8v21.8Z" class="g1_1"/>
<path d="M1238.2,568.7h.8V546.9h-.8v21.8Z" class="g1_1"/>
<path d="M47.1,569.4h.7v-.7h-.7v.7Z" class="g1_1"/>
<path d="M47.8,569.4H176.7v-.7H47.8v.7Z" class="g1_1"/>
<path d="M176.7,569.4h.8v-.7h-.8v.7Z" class="g1_1"/>
<path d="M177.5,569.4H1238.2v-.7H177.5v.7Z" class="g1_1"/>
<path d="M1238.2,569.4h.8v-.7h-.8v.7Z" class="g1_1"/>
<path d="M47.1,591.1h.7V569.4h-.7v21.7Z" class="g1_1"/>
<path d="M176.7,591.1h.8V569.4h-.8v21.7Z" class="g1_1"/>
<path d="M1238.2,591.1h.8V569.4h-.8v21.7Z" class="g1_1"/>
<path d="M47.1,591.8h.7v-.7h-.7v.7Z" class="g1_1"/>
<path d="M47.8,591.8H176.7v-.7H47.8v.7Z" class="g1_1"/>
<path d="M176.7,591.8h.8v-.7h-.8v.7Z" class="g1_1"/>
<path d="M177.5,591.8H1238.2v-.7H177.5v.7Z" class="g1_1"/>
<path d="M1238.2,591.8h.8v-.7h-.8v.7Z" class="g1_1"/>
<path d="M47.1,613.6h.7V591.8h-.7v21.8Z" class="g1_1"/>
<path d="M176.7,613.6h.8V591.8h-.8v21.8Z" class="g1_1"/>
<path d="M1238.2,613.6h.8V591.8h-.8v21.8Z" class="g1_1"/>
<path d="M47.1,614.4h.7v-.8h-.7v.8Z" class="g1_1"/>
<path d="M47.8,614.4H176.7v-.8H47.8v.8Z" class="g1_1"/>
<path d="M176.7,614.4h.8v-.8h-.8v.8Z" class="g1_1"/>
<path d="M177.5,614.4H1238.2v-.8H177.5v.8Z" class="g1_1"/>
<path d="M1238.2,614.4h.8v-.8h-.8v.8Z" class="g1_1"/>
<path d="M47.1,636h.7V614.3h-.7V636Z" class="g1_1"/>
<path d="M176.7,636h.8V614.3h-.8V636Z" class="g1_1"/>
<path d="M1238.2,636h.8V614.3h-.8V636Z" class="g1_1"/>
<path d="M47.1,636.7h.7V636h-.7v.7Z" class="g1_1"/>
<path d="M47.8,636.7H176.7V636H47.8v.7Z" class="g1_1"/>
<path d="M176.7,636.7h.8V636h-.8v.7Z" class="g1_1"/>
<path d="M177.5,636.7H1238.2V636H177.5v.7Z" class="g1_1"/>
<path d="M1238.2,636.7h.8V636h-.8v.7Z" class="g1_1"/>
<path d="M47.1,658.5h.7V636.7h-.7v21.8Z" class="g1_1"/>
<path d="M47.1,659.3h.7v-.8h-.7v.8Z" class="g1_1"/>
<path d="M47.1,659.3h.7v-.8h-.7v.8Z" class="g1_1"/>
<path d="M47.8,659.3H176.7v-.8H47.8v.8Z" class="g1_1"/>
<path d="M176.7,658.5h.8V636.7h-.8v21.8Z" class="g1_1"/>
<path d="M176.7,659.3h.8v-.8h-.8v.8Z" class="g1_1"/>
<path d="M177.5,659.3H1238.2v-.8H177.5v.8Z" class="g1_1"/>
<path d="M1238.2,658.5h.8V636.7h-.8v21.8Z" class="g1_1"/>
<path d="M1238.2,659.3h.8v-.8h-.8v.8Z" class="g1_1"/>
<path d="M1238.2,659.3h.8v-.8h-.8v.8Z" class="g1_1"/>
<path fill-rule="evenodd" d="M47.8,695.8H1238.2V674.1H47.8v21.7Z" class="g0_1"/>
<path fill-rule="evenodd" d="M55.7,693.7H1230.4V676.1H55.7v17.6Z" class="g0_1"/>
<path d="M47.1,674.1h.7v-.7h-.7v.7Z" class="g1_1"/>
<path d="M47.1,674.1h.7v-.7h-.7v.7Z" class="g1_1"/>
<path d="M47.8,674.1H1238.2v-.7H47.8v.7Z" class="g1_1"/>
<path d="M1238.2,674.1h.8v-.7h-.8v.7Z" class="g1_1"/>
<path d="M1238.2,674.1h.8v-.7h-.8v.7Z" class="g1_1"/>
<path d="M47.1,695.8h.7V674.1h-.7v21.7Z" class="g1_1"/>
<path d="M1238.2,695.8h.8V674.1h-.8v21.7Z" class="g1_1"/>
<path fill-rule="evenodd" d="M47.8,718.3H176.7V696.7H47.8v21.6Z" class="g0_1"/>
<path fill-rule="evenodd" d="M55.7,716.3H168.9V698.7H55.7v17.6Z" class="g0_1"/>
<path fill-rule="evenodd" d="M177.5,718.3H1238.2V696.7H177.5v21.6Z" class="g0_1"/>
<path fill-rule="evenodd" d="M185.4,716.3h1045V698.7H185.4v17.6Z" class="g0_1"/>
<path d="M47.1,696.5h.7v-.8h-.7v.8Z" class="g1_1"/>
<path d="M47.8,696.5H176.7v-.8H47.8v.8Z" class="g1_1"/>
<path d="M176.7,696.5h.8v-.8h-.8v.8Z" class="g1_1"/>
<path d="M177.5,696.5H1238.2v-.8H177.5v.8Z" class="g1_1"/>
<path d="M1238.2,696.5h.8v-.8h-.8v.8Z" class="g1_1"/>
<path d="M47.1,718.3h.7V696.5h-.7v21.8Z" class="g1_1"/>
<path d="M176.7,718.3h.8V696.5h-.8v21.8Z" class="g1_1"/>
<path d="M1238.2,718.3h.8V696.5h-.8v21.8Z" class="g1_1"/>
<path d="M47.1,719h.7v-.7h-.7v.7Z" class="g1_1"/>
<path d="M47.8,719H176.7v-.7H47.8v.7Z" class="g1_1"/>
<path d="M176.7,719h.8v-.7h-.8v.7Z" class="g1_1"/>
<path d="M177.5,719H1238.2v-.7H177.5v.7Z" class="g1_1"/>
<path d="M1238.2,719h.8v-.7h-.8v.7Z" class="g1_1"/>
<path d="M47.1,740.7h.7V719h-.7v21.7Z" class="g1_1"/>
<path d="M176.7,740.7h.8V719h-.8v21.7Z" class="g1_1"/>
<path d="M1238.2,740.7h.8V719h-.8v21.7Z" class="g1_1"/>
<path d="M47.1,741.4h.7v-.7h-.7v.7Z" class="g1_1"/>
<path d="M47.8,741.4H176.7v-.7H47.8v.7Z" class="g1_1"/>
<path d="M176.7,741.4h.8v-.7h-.8v.7Z" class="g1_1"/>
<path d="M177.5,741.4H1238.2v-.7H177.5v.7Z" class="g1_1"/>
<path d="M1238.2,741.4h.8v-.7h-.8v.7Z" class="g1_1"/>
<path d="M47.1,763.2h.7V741.4h-.7v21.8Z" class="g1_1"/>
<path d="M176.7,763.2h.8V741.4h-.8v21.8Z" class="g1_1"/>
<path d="M1238.2,763.2h.8V741.4h-.8v21.8Z" class="g1_1"/>
<path d="M47.1,764h.7v-.8h-.7v.8Z" class="g1_1"/>
<path d="M47.8,764H176.7v-.8H47.8v.8Z" class="g1_1"/>
<path d="M176.7,764h.8v-.8h-.8v.8Z" class="g1_1"/>
<path d="M177.5,764H1238.2v-.8H177.5v.8Z" class="g1_1"/>
<path d="M1238.2,764h.8v-.8h-.8v.8Z" class="g1_1"/>
<path d="M47.1,785.6h.7V763.9h-.7v21.7Z" class="g1_1"/>
<path d="M176.7,785.6h.8V763.9h-.8v21.7Z" class="g1_1"/>
<path d="M1238.2,785.6h.8V763.9h-.8v21.7Z" class="g1_1"/>
<path d="M47.1,786.3h.7v-.7h-.7v.7Z" class="g1_1"/>
<path d="M47.8,786.3H176.7v-.7H47.8v.7Z" class="g1_1"/>
<path d="M176.7,786.3h.8v-.7h-.8v.7Z" class="g1_1"/>
<path d="M177.5,786.3H1238.2v-.7H177.5v.7Z" class="g1_1"/>
<path d="M1238.2,786.3h.8v-.7h-.8v.7Z" class="g1_1"/>
<path d="M47.1,808.1h.7V786.3h-.7v21.8Z" class="g1_1"/>
<path d="M176.7,808.1h.8V786.3h-.8v21.8Z" class="g1_1"/>
<path d="M1238.2,808.1h.8V786.3h-.8v21.8Z" class="g1_1"/>
<path d="M47.1,808.9h.7v-.8h-.7v.8Z" class="g1_1"/>
<path d="M47.8,808.9H176.7v-.8H47.8v.8Z" class="g1_1"/>
<path d="M176.7,808.9h.8v-.8h-.8v.8Z" class="g1_1"/>
<path d="M177.5,808.9H1238.2v-.8H177.5v.8Z" class="g1_1"/>
<path d="M1238.2,808.9h.8v-.8h-.8v.8Z" class="g1_1"/>
<path d="M47.1,830.5h.7V808.9h-.7v21.6Z" class="g1_1"/>
<path d="M176.7,830.5h.8V808.9h-.8v21.6Z" class="g1_1"/>
<path d="M1238.2,830.5h.8V808.9h-.8v21.6Z" class="g1_1"/>
<path d="M47.1,831.2h.7v-.7h-.7v.7Z" class="g1_1"/>
<path d="M47.8,831.2H176.7v-.7H47.8v.7Z" class="g1_1"/>
<path d="M176.7,831.2h.8v-.7h-.8v.7Z" class="g1_1"/>
<path d="M177.5,831.2H1238.2v-.7H177.5v.7Z" class="g1_1"/>
<path d="M1238.2,831.2h.8v-.7h-.8v.7Z" class="g1_1"/>
<path d="M47.1,853.1h.7V831.2h-.7v21.9Z" class="g1_1"/>
<path d="M47.1,853.8h.7V853h-.7v.8Z" class="g1_1"/>
<path d="M47.1,853.8h.7V853h-.7v.8Z" class="g1_1"/>
<path d="M47.8,853.8H176.7V853H47.8v.8Z" class="g1_1"/>
<path d="M176.7,853.1h.8V831.2h-.8v21.9Z" class="g1_1"/>
<path d="M176.7,853.8h.8V853h-.8v.8Z" class="g1_1"/>
<path d="M177.5,853.8H1238.2V853H177.5v.8Z" class="g1_1"/>
<path d="M1238.2,853.1h.8V831.2h-.8v21.9Z" class="g1_1"/>
<path d="M1238.2,853.8h.8V853h-.8v.8Z" class="g1_1"/>
<path d="M1238.2,853.8h.8V853h-.8v.8Z" class="g1_1"/>
</svg>