<?xml version="1.0" encoding="UTF-8" standalone="no"?>
<!DOCTYPE svg PUBLIC "-//W3C//DTD SVG 1.1//EN"
"http://www.w3.org/Graphics/SVG/1.1/DTD/svg11.dtd">
<svg viewBox="0 0 1286 909" version="1.1" xmlns="http://www.w3.org/2000/svg" xmlns:xlink="http://www.w3.org/1999/xlink">
<defs>
<style type="text/css"><![CDATA[
.g0{
fill: #D9D9D9;
}
.g1{
}
]]></style>
</defs>
<path fill-rule="evenodd" d="M47.8,65.8H355.7V44H47.8V65.8Z" class="g0"/>
<path fill-rule="evenodd" d="M55.7,63.6H347.8V46.2H55.7V63.6Z" class="g0"/>
<path fill-rule="evenodd" d="M356.4,65.8h88V44h-88V65.8Z" class="g0"/>
<path fill-rule="evenodd" d="M364.3,63.6h72.2V46.2H364.3V63.6Z" class="g0"/>
<path fill-rule="evenodd" d="M445.1,65.8H752.8V44H445.1V65.8Z" class="g0"/>
<path fill-rule="evenodd" d="M453,63.6H745.1V46.2H453V63.6Z" class="g0"/>
<path fill-rule="evenodd" d="M753.7,65.8h87.6V44H753.7V65.8Z" class="g0"/>
<path fill-rule="evenodd" d="M761.6,63.6h71.8V46.2H761.6V63.6Z" class="g0"/>
<path fill-rule="evenodd" d="M842,65.8h307.9V44H842V65.8Z" class="g0"/>
<path fill-rule="evenodd" d="M849.9,63.6H1142V46.2H849.9V63.6Z" class="g0"/>
<path fill-rule="evenodd" d="M1150.6,65.8h87.6V44h-87.6V65.8Z" class="g0"/>
<path fill-rule="evenodd" d="M1158.5,63.6h71.9V46.2h-71.9V63.6Z" class="g0"/>
<path d="M47.1,44h.7v-.7h-.7V44Z" class="g1"/>
<path d="M47.1,44h.7v-.7h-.7V44Z" class="g1"/>
<path d="M47.8,44H355.7v-.7H47.8V44Z" class="g1"/>
<path d="M355.7,44h.7v-.7h-.7V44Z" class="g1"/>
<path d="M356.4,44h87.8v-.7H356.4V44Z" class="g1"/>
<path d="M444.2,44h.8v-.7h-.8V44Z" class="g1"/>
<path d="M444.9,44H752.8v-.7H444.9V44Z" class="g1"/>
<path d="M752.8,44h.7v-.7h-.7V44Z" class="g1"/>
<path d="M753.5,44h87.8v-.7H753.5V44Z" class="g1"/>
<path d="M841.3,44h.7v-.7h-.7V44Z" class="g1"/>
<path d="M842,44h307.9v-.7H842V44Z" class="g1"/>
<path d="M1149.9,44h.7v-.7h-.7V44Z" class="g1"/>
<path d="M1150.6,44h87.6v-.7h-87.6V44Z" class="g1"/>
<path d="M1238.2,44h.8v-.7h-.8V44Z" class="g1"/>
<path d="M1238.2,44h.8v-.7h-.8V44Z" class="g1"/>
<path d="M47.1,65.8h.7V44h-.7V65.8Z" class="g1"/>
<path d="M355.7,65.8h.7V44h-.7V65.8Z" class="g1"/>
<path d="M444.2,65.8h.8V44h-.8V65.8Z" class="g1"/>
<path d="M752.8,65.8h.7V44h-.7V65.8Z" class="g1"/>
<path d="M841.3,65.8h.7V44h-.7V65.8Z" class="g1"/>
<path d="M1149.9,65.8h.7V44h-.7V65.8Z" class="g1"/>
<path d="M1238.2,65.8h.8V44h-.8V65.8Z" class="g1"/>
<path d="M47.1,66.5h.7v-.7h-.7v.7Z" class="g1"/>
<path d="M47.8,66.5H355.7v-.7H47.8v.7Z" class="g1"/>
<path d="M355.7,66.5h.7v-.7h-.7v.7Z" class="g1"/>
<path d="M356.4,66.5h87.8v-.7H356.4v.7Z" class="g1"/>
<path d="M444.2,66.5h.8v-.7h-.8v.7Z" class="g1"/>
<path d="M444.9,66.5H752.8v-.7H444.9v.7Z" class="g1"/>
<path d="M752.8,66.5h.7v-.7h-.7v.7Z" class="g1"/>
<path d="M753.5,66.5h87.8v-.7H753.5v.7Z" class="g1"/>
<path d="M841.3,66.5h.7v-.7h-.7v.7Z" class="g1"/>
<path d="M842,66.5h307.9v-.7H842v.7Z" class="g1"/>
<path d="M1149.9,66.5h.7v-.7h-.7v.7Z" class="g1"/>
<path d="M1150.6,66.5h87.6v-.7h-87.6v.7Z" class="g1"/>
<path d="M1238.2,66.5h.8v-.7h-.8v.7Z" class="g1"/>
<path d="M47.1,88.2h.7V66.5h-.7V88.2Z" class="g1"/>
<path d="M355.7,88.2h.7V66.5h-.7V88.2Z" class="g1"/>
<path d="M444.2,88.2h.8V66.5h-.8V88.2Z" class="g1"/>
<path d="M752.8,88.2h.7V66.5h-.7V88.2Z" class="g1"/>
<path d="M841.3,88.2h.7V66.5h-.7V88.2Z" class="g1"/>
<path d="M1149.9,88.2h.7V66.5h-.7V88.2Z" class="g1"/>
<path d="M1238.2,88.2h.8V66.5h-.8V88.2Z" class="g1"/>
<path d="M47.1,88.9h.7v-.7h-.7v.7Z" class="g1"/>
<path d="M47.8,88.9H355.7v-.7H47.8v.7Z" class="g1"/>
<path d="M355.7,88.9h.7v-.7h-.7v.7Z" class="g1"/>
<path d="M356.4,88.9h87.8v-.7H356.4v.7Z" class="g1"/>
<path d="M444.2,88.9h.8v-.7h-.8v.7Z" class="g1"/>
<path d="M444.9,88.9H752.8v-.7H444.9v.7Z" class="g1"/>
<path d="M752.8,88.9h.7v-.7h-.7v.7Z" class="g1"/>
<path d="M753.5,88.9h87.8v-.7H753.5v.7Z" class="g1"/>
<path d="M841.3,88.9h.7v-.7h-.7v.7Z" class="g1"/>
<path d="M842,88.9h307.9v-.7H842v.7Z" class="g1"/>
<path d="M1149.9,88.9h.7v-.7h-.7v.7Z" class="g1"/>
<path d="M1150.6,88.9h87.6v-.7h-87.6v.7Z" class="g1"/>
<path d="M1238.2,88.9h.8v-.7h-.8v.7Z" class="g1"/>
<path d="M47.1,110.7h.7V88.9h-.7v21.8Z" class="g1"/>
<path d="M355.7,110.7h.7V88.9h-.7v21.8Z" class="g1"/>
<path d="M444.2,110.7h.8V88.9h-.8v21.8Z" class="g1"/>
<path d="M752.8,110.7h.7V88.9h-.7v21.8Z" class="g1"/>
<path d="M841.3,110.7h.7V88.9h-.7v21.8Z" class="g1"/>
<path d="M1149.9,110.7h.7V88.9h-.7v21.8Z" class="g1"/>
<path d="M1238.2,110.7h.8V88.9h-.8v21.8Z" class="g1"/>
<path d="M47.1,111.5h.7v-.8h-.7v.8Z" class="g1"/>
<path d="M47.8,111.5H355.7v-.8H47.8v.8Z" class="g1"/>
<path d="M355.7,111.5h.7v-.8h-.7v.8Z" class="g1"/>
<path d="M356.4,111.5h87.8v-.8H356.4v.8Z" class="g1"/>
<path d="M444.2,111.5h.8v-.8h-.8v.8Z" class="g1"/>
<path d="M444.9,111.5H752.8v-.8H444.9v.8Z" class="g1"/>
<path d="M752.8,111.5h.7v-.8h-.7v.8Z" class="g1"/>
<path d="M753.5,111.5h87.8v-.8H753.5v.8Z" class="g1"/>
<path d="M841.3,111.5h.7v-.8h-.7v.8Z" class="g1"/>
<path d="M842,111.5h307.9v-.8H842v.8Z" class="g1"/>
<path d="M1149.9,111.5h.7v-.8h-.7v.8Z" class="g1"/>
<path d="M1150.6,111.5h87.6v-.8h-87.6v.8Z" class="g1"/>
<path d="M1238.2,111.5h.8v-.8h-.8v.8Z" class="g1"/>
<path d="M47.1,133.1h.7V111.5h-.7v21.6Z" class="g1"/>
<path d="M355.7,133.1h.7V111.5h-.7v21.6Z" class="g1"/>
<path d="M444.2,133.1h.8V111.5h-.8v21.6Z" class="g1"/>
<path d="M752.8,133.1h.7V111.5h-.7v21.6Z" class="g1"/>
<path d="M841.3,133.1h.7V111.5h-.7v21.6Z" class="g1"/>
<path d="M1149.9,133.1h.7V111.5h-.7v21.6Z" class="g1"/>
<path d="M1238.2,133.1h.8V111.5h-.8v21.6Z" class="g1"/>
<path d="M47.1,133.8h.7v-.7h-.7v.7Z" class="g1"/>
<path d="M47.8,133.8H355.7v-.7H47.8v.7Z" class="g1"/>
<path d="M355.7,133.8h.7v-.7h-.7v.7Z" class="g1"/>
<path d="M356.4,133.8h87.8v-.7H356.4v.7Z" class="g1"/>
<path d="M444.2,133.8h.8v-.7h-.8v.7Z" class="g1"/>
<path d="M444.9,133.8H752.8v-.7H444.9v.7Z" class="g1"/>
<path d="M752.8,133.8h.7v-.7h-.7v.7Z" class="g1"/>
<path d="M753.5,133.8h87.8v-.7H753.5v.7Z" class="g1"/>
<path d="M841.3,133.8h.7v-.7h-.7v.7Z" class="g1"/>
<path d="M842,133.8h307.9v-.7H842v.7Z" class="g1"/>
<path d="M1149.9,133.8h.7v-.7h-.7v.7Z" class="g1"/>
<path d="M1150.6,133.8h87.6v-.7h-87.6v.7Z" class="g1"/>
<path d="M1238.2,133.8h.8v-.7h-.8v.7Z" class="g1"/>
<path d="M47.1,155.7h.7V133.8h-.7v21.9Z" class="g1"/>
<path d="M355.7,155.7h.7V133.8h-.7v21.9Z" class="g1"/>
<path d="M444.2,155.7h.8V133.8h-.8v21.9Z" class="g1"/>
<path d="M752.8,155.7h.7V133.8h-.7v21.9Z" class="g1"/>
<path d="M841.3,155.7h.7V133.8h-.7v21.9Z" class="g1"/>
<path d="M1149.9,155.7h.7V133.8h-.7v21.9Z" class="g1"/>
<path d="M1238.2,155.7h.8V133.8h-.8v21.9Z" class="g1"/>
<path d="M47.1,156.4h.7v-.8h-.7v.8Z" class="g1"/>
<path d="M47.8,156.4H355.7v-.8H47.8v.8Z" class="g1"/>
<path d="M355.7,156.4h.7v-.8h-.7v.8Z" class="g1"/>
<path d="M356.4,156.4h87.8v-.8H356.4v.8Z" class="g1"/>
<path d="M444.2,156.4h.8v-.8h-.8v.8Z" class="g1"/>
<path d="M444.9,156.4H752.8v-.8H444.9v.8Z" class="g1"/>
<path d="M752.8,156.4h.7v-.8h-.7v.8Z" class="g1"/>
<path d="M753.5,156.4h87.8v-.8H753.5v.8Z" class="g1"/>
<path d="M841.3,156.4h.7v-.8h-.7v.8Z" class="g1"/>
<path d="M842,156.4h307.9v-.8H842v.8Z" class="g1"/>
<path d="M1149.9,156.4h.7v-.8h-.7v.8Z" class="g1"/>
<path d="M1150.6,156.4h87.6v-.8h-87.6v.8Z" class="g1"/>
<path d="M1238.2,156.4h.8v-.8h-.8v.8Z" class="g1"/>
<path d="M47.1,178h.7V156.4h-.7V178Z" class="g1"/>
<path d="M355.7,178h.7V156.4h-.7V178Z" class="g1"/>
<path d="M444.2,178h.8V156.4h-.8V178Z" class="g1"/>
<path d="M752.8,178h.7V156.4h-.7V178Z" class="g1"/>
<path d="M841.3,178h.7V156.4h-.7V178Z" class="g1"/>
<path d="M1149.9,178h.7V156.4h-.7V178Z" class="g1"/>
<path d="M1238.2,178h.8V156.4h-.8V178Z" class="g1"/>
<path d="M47.1,178.8h.7V178h-.7v.8Z" class="g1"/>
<path d="M47.8,178.8H355.7V178H47.8v.8Z" class="g1"/>
<path d="M355.7,178.8h.7V178h-.7v.8Z" class="g1"/>
<path d="M356.4,178.8h87.8V178H356.4v.8Z" class="g1"/>
<path d="M444.2,178.8h.8V178h-.8v.8Z" class="g1"/>
<path d="M444.9,178.8H752.8V178H444.9v.8Z" class="g1"/>
<path d="M752.8,178.8h.7V178h-.7v.8Z" class="g1"/>
<path d="M753.5,178.8h87.8V178H753.5v.8Z" class="g1"/>
<path d="M841.3,178.8h.7V178h-.7v.8Z" class="g1"/>
<path d="M842,178.8h307.9V178H842v.8Z" class="g1"/>
<path d="M1149.9,178.8h.7V178h-.7v.8Z" class="g1"/>
<path d="M1150.6,178.8h87.6V178h-87.6v.8Z" class="g1"/>
<path d="M1238.2,178.8h.8V178h-.8v.8Z" class="g1"/>
<path d="M47.1,200.6h.7V178.8h-.7v21.8Z" class="g1"/>
<path d="M355.7,200.6h.7V178.8h-.7v21.8Z" class="g1"/>
<path d="M444.2,200.6h.8V178.8h-.8v21.8Z" class="g1"/>
<path d="M752.8,200.6h.7V178.8h-.7v21.8Z" class="g1"/>
<path d="M841.3,200.6h.7V178.8h-.7v21.8Z" class="g1"/>
<path d="M1149.9,200.6h.7V178.8h-.7v21.8Z" class="g1"/>
<path d="M1238.2,200.6h.8V178.8h-.8v21.8Z" class="g1"/>
<path d="M47.1,201.3h.7v-.7h-.7v.7Z" class="g1"/>
<path d="M47.8,201.3H355.7v-.7H47.8v.7Z" class="g1"/>
<path d="M355.7,201.3h.7v-.7h-.7v.7Z" class="g1"/>
<path d="M356.4,201.3h87.8v-.7H356.4v.7Z" class="g1"/>
<path d="M444.2,201.3h.8v-.7h-.8v.7Z" class="g1"/>
<path d="M444.9,201.3H752.8v-.7H444.9v.7Z" class="g1"/>
<path d="M752.8,201.3h.7v-.7h-.7v.7Z" class="g1"/>
<path d="M753.5,201.3h87.8v-.7H753.5v.7Z" class="g1"/>
<path d="M841.3,201.3h.7v-.7h-.7v.7Z" class="g1"/>
<path d="M842,201.3h307.9v-.7H842v.7Z" class="g1"/>
<path d="M1149.9,201.3h.7v-.7h-.7v.7Z" class="g1"/>
<path d="M1150.6,201.3h87.6v-.7h-87.6v.7Z" class="g1"/>
<path d="M1238.2,201.3h.8v-.7h-.8v.7Z" class="g1"/>
<path d="M47.1,222.9h.7V201.3h-.7v21.6Z" class="g1"/>
<path d="M355.7,222.9h.7V201.3h-.7v21.6Z" class="g1"/>
<path d="M444.2,222.9h.8V201.3h-.8v21.6Z" class="g1"/>
<path d="M752.8,222.9h.7V201.3h-.7v21.6Z" class="g1"/>
<path d="M841.3,222.9h.7V201.3h-.7v21.6Z" class="g1"/>
<path d="M1149.9,222.9h.7V201.3h-.7v21.6Z" class="g1"/>
<path d="M1238.2,222.9h.8V201.3h-.8v21.6Z" class="g1"/>
<path d="M47.1,223.7h.7v-.8h-.7v.8Z" class="g1"/>
<path d="M47.8,223.7H355.7v-.8H47.8v.8Z" class="g1"/>
<path d="M355.7,223.7h.7v-.8h-.7v.8Z" class="g1"/>
<path d="M356.4,223.7h87.8v-.8H356.4v.8Z" class="g1"/>
<path d="M444.2,223.7h.8v-.8h-.8v.8Z" class="g1"/>
<path d="M444.9,223.7H752.8v-.8H444.9v.8Z" class="g1"/>
<path d="M752.8,223.7h.7v-.8h-.7v.8Z" class="g1"/>
<path d="M753.5,223.7h87.8v-.8H753.5v.8Z" class="g1"/>
<path d="M841.3,223.7h.7v-.8h-.7v.8Z" class="g1"/>
<path d="M842,223.7h307.9v-.8H842v.8Z" class="g1"/>
<path d="M1149.9,223.7h.7v-.8h-.7v.8Z" class="g1"/>
<path d="M1150.6,223.7h87.6v-.8h-87.6v.8Z" class="g1"/>
<path d="M1238.2,223.7h.8v-.8h-.8v.8Z" class="g1"/>
<path d="M47.1,245.5h.7V223.7h-.7v21.8Z" class="g1"/>
<path d="M355.7,245.5h.7V223.7h-.7v21.8Z" class="g1"/>
<path d="M444.2,245.5h.8V223.7h-.8v21.8Z" class="g1"/>
<path d="M752.8,245.5h.7V223.7h-.7v21.8Z" class="g1"/>
<path d="M841.3,245.5h.7V223.7h-.7v21.8Z" class="g1"/>
<path d="M1149.9,245.5h.7V223.7h-.7v21.8Z" class="g1"/>
<path d="M1238.2,245.5h.8V223.7h-.8v21.8Z" class="g1"/>
<path d="M47.1,246.2h.7v-.7h-.7v.7Z" class="g1"/>
<path d="M47.8,246.2H355.7v-.7H47.8v.7Z" class="g1"/>
<path d="M355.7,246.2h.7v-.7h-.7v.7Z" class="g1"/>
<path d="M356.4,246.2h87.8v-.7H356.4v.7Z" class="g1"/>
<path d="M444.2,246.2h.8v-.7h-.8v.7Z" class="g1"/>
<path d="M444.9,246.2H752.8v-.7H444.9v.7Z" class="g1"/>
<path d="M752.8,246.2h.7v-.7h-.7v.7Z" class="g1"/>
<path d="M753.5,246.2h87.8v-.7H753.5v.7Z" class="g1"/>
<path d="M841.3,246.2h.7v-.7h-.7v.7Z" class="g1"/>
<path d="M842,246.2h307.9v-.7H842v.7Z" class="g1"/>
<path d="M1149.9,246.2h.7v-.7h-.7v.7Z" class="g1"/>
<path d="M1150.6,246.2h87.6v-.7h-87.6v.7Z" class="g1"/>
<path d="M1238.2,246.2h.8v-.7h-.8v.7Z" class="g1"/>
<path d="M47.1,267.9h.7V246.2h-.7v21.7Z" class="g1"/>
<path d="M355.7,267.9h.7V246.2h-.7v21.7Z" class="g1"/>
<path d="M444.2,267.9h.8V246.2h-.8v21.7Z" class="g1"/>
<path d="M752.8,267.9h.7V246.2h-.7v21.7Z" class="g1"/>
<path d="M841.3,267.9h.7V246.2h-.7v21.7Z" class="g1"/>
<path d="M1149.9,267.9h.7V246.2h-.7v21.7Z" class="g1"/>
<path d="M1238.2,267.9h.8V246.2h-.8v21.7Z" class="g1"/>
<path d="M47.1,268.6h.7v-.8h-.7v.8Z" class="g1"/>
<path d="M47.8,268.6H355.7v-.8H47.8v.8Z" class="g1"/>
<path d="M355.7,268.6h.7v-.8h-.7v.8Z" class="g1"/>
<path d="M356.4,268.6h87.8v-.8H356.4v.8Z" class="g1"/>
<path d="M444.2,268.6h.8v-.8h-.8v.8Z" class="g1"/>
<path d="M444.9,268.6H752.8v-.8H444.9v.8Z" class="g1"/>
<path d="M752.8,268.6h.7v-.8h-.7v.8Z" class="g1"/>
<path d="M753.5,268.6h87.8v-.8H753.5v.8Z" class="g1"/>
<path d="M841.3,268.6h.7v-.8h-.7v.8Z" class="g1"/>
<path d="M842,268.6h307.9v-.8H842v.8Z" class="g1"/>
<path d="M1149.9,268.6h.7v-.8h-.7v.8Z" class="g1"/>
<path d="M1150.6,268.6h87.6v-.8h-87.6v.8Z" class="g1"/>
<path d="M1238.2,268.6h.8v-.8h-.8v.8Z" class="g1"/>
<path d="M47.1,290.4h.7V268.6h-.7v21.8Z" class="g1"/>
<path d="M355.7,290.4h.7V268.6h-.7v21.8Z" class="g1"/>
<path d="M444.2,290.4h.8V268.6h-.8v21.8Z" class="g1"/>
<path d="M752.8,290.4h.7V268.6h-.7v21.8Z" class="g1"/>
<path d="M841.3,290.4h.7V268.6h-.7v21.8Z" class="g1"/>
<path d="M1149.9,290.4h.7V268.6h-.7v21.8Z" class="g1"/>
<path d="M1238.2,290.4h.8V268.6h-.8v21.8Z" class="g1"/>
<path d="M47.1,291.1h.7v-.7h-.7v.7Z" class="g1"/>
<path d="M47.8,291.1H355.7v-.7H47.8v.7Z" class="g1"/>
<path d="M355.7,291.1h.7v-.7h-.7v.7Z" class="g1"/>
<path d="M356.4,291.1h87.8v-.7H356.4v.7Z" class="g1"/>
<path d="M444.2,291.1h.8v-.7h-.8v.7Z" class="g1"/>
<path d="M444.9,291.1H752.8v-.7H444.9v.7Z" class="g1"/>
<path d="M752.8,291.1h.7v-.7h-.7v.7Z" class="g1"/>
<path d="M753.5,291.1h87.8v-.7H753.5v.7Z" class="g1"/>
<path d="M841.3,291.1h.7v-.7h-.7v.7Z" class="g1"/>
<path d="M842,291.1h307.9v-.7H842v.7Z" class="g1"/>
<path d="M1149.9,291.1h.7v-.7h-.7v.7Z" class="g1"/>
<path d="M1150.6,291.1h87.6v-.7h-87.6v.7Z" class="g1"/>
<path d="M1238.2,291.1h.8v-.7h-.8v.7Z" class="g1"/>
<path d="M47.1,312.8h.7V291.1h-.7v21.7Z" class="g1"/>
<path d="M355.7,312.8h.7V291.1h-.7v21.7Z" class="g1"/>
<path d="M444.2,312.8h.8V291.1h-.8v21.7Z" class="g1"/>
<path d="M752.8,312.8h.7V291.1h-.7v21.7Z" class="g1"/>
<path d="M841.3,312.8h.7V291.1h-.7v21.7Z" class="g1"/>
<path d="M1149.9,312.8h.7V291.1h-.7v21.7Z" class="g1"/>
<path d="M1238.2,312.8h.8V291.1h-.8v21.7Z" class="g1"/>
<path d="M47.1,313.5h.7v-.7h-.7v.7Z" class="g1"/>
<path d="M47.8,313.5H355.7v-.7H47.8v.7Z" class="g1"/>
<path d="M355.7,313.5h.7v-.7h-.7v.7Z" class="g1"/>
<path d="M356.4,313.5h87.8v-.7H356.4v.7Z" class="g1"/>
<path d="M444.2,313.5h.8v-.7h-.8v.7Z" class="g1"/>
<path d="M444.9,313.5H752.8v-.7H444.9v.7Z" class="g1"/>
<path d="M752.8,313.5h.7v-.7h-.7v.7Z" class="g1"/>
<path d="M753.5,313.5h87.8v-.7H753.5v.7Z" class="g1"/>
<path d="M841.3,313.5h.7v-.7h-.7v.7Z" class="g1"/>
<path d="M842,313.5h307.9v-.7H842v.7Z" class="g1"/>
<path d="M1149.9,313.5h.7v-.7h-.7v.7Z" class="g1"/>
<path d="M1150.6,313.5h87.6v-.7h-87.6v.7Z" class="g1"/>
<path d="M1238.2,313.5h.8v-.7h-.8v.7Z" class="g1"/>
<path d="M47.1,335.3h.7V313.5h-.7v21.8Z" class="g1"/>
<path d="M355.7,335.3h.7V313.5h-.7v21.8Z" class="g1"/>
<path d="M444.2,335.3h.8V313.5h-.8v21.8Z" class="g1"/>
<path d="M752.8,335.3h.7V313.5h-.7v21.8Z" class="g1"/>
<path d="M841.3,335.3h.7V313.5h-.7v21.8Z" class="g1"/>
<path d="M1149.9,335.3h.7V313.5h-.7v21.8Z" class="g1"/>
<path d="M1238.2,335.3h.8V313.5h-.8v21.8Z" class="g1"/>
<path d="M47.1,336.1h.7v-.8h-.7v.8Z" class="g1"/>
<path d="M47.8,336.1H355.7v-.8H47.8v.8Z" class="g1"/>
<path d="M355.7,336.1h.7v-.8h-.7v.8Z" class="g1"/>
<path d="M356.4,336.1h87.8v-.8H356.4v.8Z" class="g1"/>
<path d="M444.2,336.1h.8v-.8h-.8v.8Z" class="g1"/>
<path d="M444.9,336.1H752.8v-.8H444.9v.8Z" class="g1"/>
<path d="M752.8,336.1h.7v-.8h-.7v.8Z" class="g1"/>
<path d="M753.5,336.1h87.8v-.8H753.5v.8Z" class="g1"/>
<path d="M841.3,336.1h.7v-.8h-.7v.8Z" class="g1"/>
<path d="M842,336.1h307.9v-.8H842v.8Z" class="g1"/>
<path d="M1149.9,336.1h.7v-.8h-.7v.8Z" class="g1"/>
<path d="M1150.6,336.1h87.6v-.8h-87.6v.8Z" class="g1"/>
<path d="M1238.2,336.1h.8v-.8h-.8v.8Z" class="g1"/>
<path d="M47.1,357.7h.7V336h-.7v21.7Z" class="g1"/>
<path d="M355.7,357.7h.7V336h-.7v21.7Z" class="g1"/>
<path d="M444.2,357.7h.8V336h-.8v21.7Z" class="g1"/>
<path d="M752.8,357.7h.7V336h-.7v21.7Z" class="g1"/>
<path d="M841.3,357.7h.7V336h-.7v21.7Z" class="g1"/>
<path d="M1149.9,357.7h.7V336h-.7v21.7Z" class="g1"/>
<path d="M1238.2,357.7h.8V336h-.8v21.7Z" class="g1"/>
<path d="M47.1,358.4h.7v-.7h-.7v.7Z" class="g1"/>
<path d="M47.8,358.4H355.7v-.7H47.8v.7Z" class="g1"/>
<path d="M355.7,358.4h.7v-.7h-.7v.7Z" class="g1"/>
<path d="M356.4,358.4h87.8v-.7H356.4v.7Z" class="g1"/>
<path d="M444.2,358.4h.8v-.7h-.8v.7Z" class="g1"/>
<path d="M444.9,358.4H752.8v-.7H444.9v.7Z" class="g1"/>
<path d="M752.8,358.4h.7v-.7h-.7v.7Z" class="g1"/>
<path d="M753.5,358.4h87.8v-.7H753.5v.7Z" class="g1"/>
<path d="M841.3,358.4h.7v-.7h-.7v.7Z" class="g1"/>
<path d="M842,358.4h307.9v-.7H842v.7Z" class="g1"/>
<path d="M1149.9,358.4h.7v-.7h-.7v.7Z" class="g1"/>
<path d="M1150.6,358.4h87.6v-.7h-87.6v.7Z" class="g1"/>
<path d="M1238.2,358.4h.8v-.7h-.8v.7Z" class="g1"/>
<path d="M47.1,380.2h.7V358.4h-.7v21.8Z" class="g1"/>
<path d="M355.7,380.2h.7V358.4h-.7v21.8Z" class="g1"/>
<path d="M444.2,380.2h.8V358.4h-.8v21.8Z" class="g1"/>
<path d="M752.8,380.2h.7V358.4h-.7v21.8Z" class="g1"/>
<path d="M841.3,380.2h.7V358.4h-.7v21.8Z" class="g1"/>
<path d="M1149.9,380.2h.7V358.4h-.7v21.8Z" class="g1"/>
<path d="M1238.2,380.2h.8V358.4h-.8v21.8Z" class="g1"/>
<path d="M47.1,381h.7v-.8h-.7v.8Z" class="g1"/>
<path d="M47.8,381H355.7v-.8H47.8v.8Z" class="g1"/>
<path d="M355.7,381h.7v-.8h-.7v.8Z" class="g1"/>
<path d="M356.4,381h87.8v-.8H356.4v.8Z" class="g1"/>
<path d="M444.2,381h.8v-.8h-.8v.8Z" class="g1"/>
<path d="M444.9,381H752.8v-.8H444.9v.8Z" class="g1"/>
<path d="M752.8,381h.7v-.8h-.7v.8Z" class="g1"/>
<path d="M753.5,381h87.8v-.8H753.5v.8Z" class="g1"/>
<path d="M841.3,381h.7v-.8h-.7v.8Z" class="g1"/>
<path d="M842,381h307.9v-.8H842v.8Z" class="g1"/>
<path d="M1149.9,381h.7v-.8h-.7v.8Z" class="g1"/>
<path d="M1150.6,381h87.6v-.8h-87.6v.8Z" class="g1"/>
<path d="M1238.2,381h.8v-.8h-.8v.8Z" class="g1"/>
<path d="M47.1,402.6h.7V381h-.7v21.6Z" class="g1"/>
<path d="M355.7,402.6h.7V381h-.7v21.6Z" class="g1"/>
<path d="M444.2,402.6h.8V381h-.8v21.6Z" class="g1"/>
<path d="M752.8,402.6h.7V381h-.7v21.6Z" class="g1"/>
<path d="M841.3,402.6h.7V381h-.7v21.6Z" class="g1"/>
<path d="M1149.9,402.6h.7V381h-.7v21.6Z" class="g1"/>
<path d="M1238.2,402.6h.8V381h-.8v21.6Z" class="g1"/>
<path d="M47.1,403.3h.7v-.7h-.7v.7Z" class="g1"/>
<path d="M47.8,403.3H355.7v-.7H47.8v.7Z" class="g1"/>
<path d="M355.7,403.3h.7v-.7h-.7v.7Z" class="g1"/>
<path d="M356.4,403.3h87.8v-.7H356.4v.7Z" class="g1"/>
<path d="M444.2,403.3h.8v-.7h-.8v.7Z" class="g1"/>
<path d="M444.9,403.3H752.8v-.7H444.9v.7Z" class="g1"/>
<path d="M752.8,403.3h.7v-.7h-.7v.7Z" class="g1"/>
<path d="M753.5,403.3h87.8v-.7H753.5v.7Z" class="g1"/>
<path d="M841.3,403.3h.7v-.7h-.7v.7Z" class="g1"/>
<path d="M842,403.3h307.9v-.7H842v.7Z" class="g1"/>
<path d="M1149.9,403.3h.7v-.7h-.7v.7Z" class="g1"/>
<path d="M1150.6,403.3h87.6v-.7h-87.6v.7Z" class="g1"/>
<path d="M1238.2,403.3h.8v-.7h-.8v.7Z" class="g1"/>
<path d="M47.1,425.2h.7V403.3h-.7v21.9Z" class="g1"/>
<path d="M355.7,425.2h.7V403.3h-.7v21.9Z" class="g1"/>
<path d="M444.2,425.2h.8V403.3h-.8v21.9Z" class="g1"/>
<path d="M752.8,425.2h.7V403.3h-.7v21.9Z" class="g1"/>
<path d="M841.3,425.2h.7V403.3h-.7v21.9Z" class="g1"/>
<path d="M1149.9,425.2h.7V403.3h-.7v21.9Z" class="g1"/>
<path d="M1238.2,425.2h.8V403.3h-.8v21.9Z" class="g1"/>
<path d="M47.1,425.9h.7v-.8h-.7v.8Z" class="g1"/>
<path d="M47.8,425.9H355.7v-.8H47.8v.8Z" class="g1"/>
<path d="M355.7,425.9h.7v-.8h-.7v.8Z" class="g1"/>
<path d="M356.4,425.9h87.8v-.8H356.4v.8Z" class="g1"/>
<path d="M444.2,425.9h.8v-.8h-.8v.8Z" class="g1"/>
<path d="M444.9,425.9H752.8v-.8H444.9v.8Z" class="g1"/>
<path d="M752.8,425.9h.7v-.8h-.7v.8Z" class="g1"/>
<path d="M753.5,425.9h87.8v-.8H753.5v.8Z" class="g1"/>
<path d="M841.3,425.9h.7v-.8h-.7v.8Z" class="g1"/>
<path d="M842,425.9h307.9v-.8H842v.8Z" class="g1"/>
<path d="M1149.9,425.9h.7v-.8h-.7v.8Z" class="g1"/>
<path d="M1150.6,425.9h87.6v-.8h-87.6v.8Z" class="g1"/>
<path d="M1238.2,425.9h.8v-.8h-.8v.8Z" class="g1"/>
<path d="M47.1,447.5h.7V425.9h-.7v21.6Z" class="g1"/>
<path d="M355.7,447.5h.7V425.9h-.7v21.6Z" class="g1"/>
<path d="M444.2,447.5h.8V425.9h-.8v21.6Z" class="g1"/>
<path d="M752.8,447.5h.7V425.9h-.7v21.6Z" class="g1"/>
<path d="M841.3,447.5h.7V425.9h-.7v21.6Z" class="g1"/>
<path d="M1149.9,447.5h.7V425.9h-.7v21.6Z" class="g1"/>
<path d="M1238.2,447.5h.8V425.9h-.8v21.6Z" class="g1"/>
<path d="M47.1,448.2h.7v-.7h-.7v.7Z" class="g1"/>
<path d="M47.8,448.2H355.7v-.7H47.8v.7Z" class="g1"/>
<path d="M355.7,448.2h.7v-.7h-.7v.7Z" class="g1"/>
<path d="M356.4,448.2h87.8v-.7H356.4v.7Z" class="g1"/>
<path d="M444.2,448.2h.8v-.7h-.8v.7Z" class="g1"/>
<path d="M444.9,448.2H752.8v-.7H444.9v.7Z" class="g1"/>
<path d="M752.8,448.2h.7v-.7h-.7v.7Z" class="g1"/>
<path d="M753.5,448.2h87.8v-.7H753.5v.7Z" class="g1"/>
<path d="M841.3,448.2h.7v-.7h-.7v.7Z" class="g1"/>
<path d="M842,448.2h307.9v-.7H842v.7Z" class="g1"/>
<path d="M1149.9,448.2h.7v-.7h-.7v.7Z" class="g1"/>
<path d="M1150.6,448.2h87.6v-.7h-87.6v.7Z" class="g1"/>
<path d="M1238.2,448.2h.8v-.7h-.8v.7Z" class="g1"/>
<path d="M47.1,470.1h.7V448.2h-.7v21.9Z" class="g1"/>
<path d="M355.7,470.1h.7V448.2h-.7v21.9Z" class="g1"/>
<path d="M444.2,470.1h.8V448.2h-.8v21.9Z" class="g1"/>
<path d="M752.8,470.1h.7V448.2h-.7v21.9Z" class="g1"/>
<path d="M841.3,470.1h.7V448.2h-.7v21.9Z" class="g1"/>
<path d="M1149.9,470.1h.7V448.2h-.7v21.9Z" class="g1"/>
<path d="M1238.2,470.1h.8V448.2h-.8v21.9Z" class="g1"/>
<path d="M47.1,470.8h.7v-.7h-.7v.7Z" class="g1"/>
<path d="M47.8,470.8H355.7v-.7H47.8v.7Z" class="g1"/>
<path d="M355.7,470.8h.7v-.7h-.7v.7Z" class="g1"/>
<path d="M356.4,470.8h87.8v-.7H356.4v.7Z" class="g1"/>
<path d="M444.2,470.8h.8v-.7h-.8v.7Z" class="g1"/>
<path d="M444.9,470.8H752.8v-.7H444.9v.7Z" class="g1"/>
<path d="M752.8,470.8h.7v-.7h-.7v.7Z" class="g1"/>
<path d="M753.5,470.8h87.8v-.7H753.5v.7Z" class="g1"/>
<path d="M841.3,470.8h.7v-.7h-.7v.7Z" class="g1"/>
<path d="M842,470.8h307.9v-.7H842v.7Z" class="g1"/>
<path d="M1149.9,470.8h.7v-.7h-.7v.7Z" class="g1"/>
<path d="M1150.6,470.8h87.6v-.7h-87.6v.7Z" class="g1"/>
<path d="M1238.2,470.8h.8v-.7h-.8v.7Z" class="g1"/>
<path d="M47.1,492.4h.7V470.8h-.7v21.6Z" class="g1"/>
<path d="M355.7,492.4h.7V470.8h-.7v21.6Z" class="g1"/>
<path d="M444.2,492.4h.8V470.8h-.8v21.6Z" class="g1"/>
<path d="M752.8,492.4h.7V470.8h-.7v21.6Z" class="g1"/>
<path d="M841.3,492.4h.7V470.8h-.7v21.6Z" class="g1"/>
<path d="M1149.9,492.4h.7V470.8h-.7v21.6Z" class="g1"/>
<path d="M1238.2,492.4h.8V470.8h-.8v21.6Z" class="g1"/>
<path d="M47.1,493.2h.7v-.8h-.7v.8Z" class="g1"/>
<path d="M47.8,493.2H355.7v-.8H47.8v.8Z" class="g1"/>
<path d="M355.7,493.2h.7v-.8h-.7v.8Z" class="g1"/>
<path d="M356.4,493.2h87.8v-.8H356.4v.8Z" class="g1"/>
<path d="M444.2,493.2h.8v-.8h-.8v.8Z" class="g1"/>
<path d="M444.9,493.2H752.8v-.8H444.9v.8Z" class="g1"/>
<path d="M752.8,493.2h.7v-.8h-.7v.8Z" class="g1"/>
<path d="M753.5,493.2h87.8v-.8H753.5v.8Z" class="g1"/>
<path d="M841.3,493.2h.7v-.8h-.7v.8Z" class="g1"/>
<path d="M842,493.2h307.9v-.8H842v.8Z" class="g1"/>
<path d="M1149.9,493.2h.7v-.8h-.7v.8Z" class="g1"/>
<path d="M1150.6,493.2h87.6v-.8h-87.6v.8Z" class="g1"/>
<path d="M1238.2,493.2h.8v-.8h-.8v.8Z" class="g1"/>
<path d="M47.1,515h.7V493.2h-.7V515Z" class="g1"/>
<path d="M355.7,515h.7V493.2h-.7V515Z" class="g1"/>
<path d="M444.2,515h.8V493.2h-.8V515Z" class="g1"/>
<path d="M752.8,515h.7V493.2h-.7V515Z" class="g1"/>
<path d="M841.3,515h.7V493.2h-.7V515Z" class="g1"/>
<path d="M1149.9,515h.7V493.2h-.7V515Z" class="g1"/>
<path d="M1238.2,515h.8V493.2h-.8V515Z" class="g1"/>
<path d="M47.1,515.7h.7V515h-.7v.7Z" class="g1"/>
<path d="M47.8,515.7H355.7V515H47.8v.7Z" class="g1"/>
<path d="M355.7,515.7h.7V515h-.7v.7Z" class="g1"/>
<path d="M356.4,515.7h87.8V515H356.4v.7Z" class="g1"/>
<path d="M444.2,515.7h.8V515h-.8v.7Z" class="g1"/>
<path d="M444.9,515.7H752.8V515H444.9v.7Z" class="g1"/>
<path d="M752.8,515.7h.7V515h-.7v.7Z" class="g1"/>
<path d="M753.5,515.7h87.8V515H753.5v.7Z" class="g1"/>
<path d="M841.3,515.7h.7V515h-.7v.7Z" class="g1"/>
<path d="M842,515.7h307.9V515H842v.7Z" class="g1"/>
<path d="M1149.9,515.7h.7V515h-.7v.7Z" class="g1"/>
<path d="M1150.6,515.7h87.6V515h-87.6v.7Z" class="g1"/>
<path d="M1238.2,515.7h.8V515h-.8v.7Z" class="g1"/>
<path d="M47.1,537.4h.7V515.7h-.7v21.7Z" class="g1"/>
<path d="M355.7,537.4h.7V515.7h-.7v21.7Z" class="g1"/>
<path d="M444.2,537.4h.8V515.7h-.8v21.7Z" class="g1"/>
<path d="M752.8,537.4h.7V515.7h-.7v21.7Z" class="g1"/>
<path d="M841.3,537.4h.7V515.7h-.7v21.7Z" class="g1"/>
<path d="M1149.9,537.4h.7V515.7h-.7v21.7Z" class="g1"/>
<path d="M1238.2,537.4h.8V515.7h-.8v21.7Z" class="g1"/>
<path d="M47.1,538.1h.7v-.8h-.7v.8Z" class="g1"/>
<path d="M47.8,538.1H355.7v-.8H47.8v.8Z" class="g1"/>
<path d="M355.7,538.1h.7v-.8h-.7v.8Z" class="g1"/>
<path d="M356.4,538.1h87.8v-.8H356.4v.8Z" class="g1"/>
<path d="M444.2,538.1h.8v-.8h-.8v.8Z" class="g1"/>
<path d="M444.9,538.1H752.8v-.8H444.9v.8Z" class="g1"/>
<path d="M752.8,538.1h.7v-.8h-.7v.8Z" class="g1"/>
<path d="M753.5,538.1h87.8v-.8H753.5v.8Z" class="g1"/>
<path d="M841.3,538.1h.7v-.8h-.7v.8Z" class="g1"/>
<path d="M842,538.1h307.9v-.8H842v.8Z" class="g1"/>
<path d="M1149.9,538.1h.7v-.8h-.7v.8Z" class="g1"/>
<path d="M1150.6,538.1h87.6v-.8h-87.6v.8Z" class="g1"/>
<path d="M1238.2,538.1h.8v-.8h-.8v.8Z" class="g1"/>
<path d="M47.1,559.9h.7V538.1h-.7v21.8Z" class="g1"/>
<path d="M355.7,559.9h.7V538.1h-.7v21.8Z" class="g1"/>
<path d="M444.2,559.9h.8V538.1h-.8v21.8Z" class="g1"/>
<path d="M752.8,559.9h.7V538.1h-.7v21.8Z" class="g1"/>
<path d="M841.3,559.9h.7V538.1h-.7v21.8Z" class="g1"/>
<path d="M1149.9,559.9h.7V538.1h-.7v21.8Z" class="g1"/>
<path d="M1238.2,559.9h.8V538.1h-.8v21.8Z" class="g1"/>
<path d="M47.1,560.6h.7v-.7h-.7v.7Z" class="g1"/>
<path d="M47.8,560.6H355.7v-.7H47.8v.7Z" class="g1"/>
<path d="M355.7,560.6h.7v-.7h-.7v.7Z" class="g1"/>
<path d="M356.4,560.6h87.8v-.7H356.4v.7Z" class="g1"/>
<path d="M444.2,560.6h.8v-.7h-.8v.7Z" class="g1"/>
<path d="M444.9,560.6H752.8v-.7H444.9v.7Z" class="g1"/>
<path d="M752.8,560.6h.7v-.7h-.7v.7Z" class="g1"/>
<path d="M753.5,560.6h87.8v-.7H753.5v.7Z" class="g1"/>
<path d="M841.3,560.6h.7v-.7h-.7v.7Z" class="g1"/>
<path d="M842,560.6h307.9v-.7H842v.7Z" class="g1"/>
<path d="M1149.9,560.6h.7v-.7h-.7v.7Z" class="g1"/>
<path d="M1150.6,560.6h87.6v-.7h-87.6v.7Z" class="g1"/>
<path d="M1238.2,560.6h.8v-.7h-.8v.7Z" class="g1"/>
<path d="M47.1,582.3h.7V560.6h-.7v21.7Z" class="g1"/>
<path d="M355.7,582.3h.7V560.6h-.7v21.7Z" class="g1"/>
<path d="M444.2,582.3h.8V560.6h-.8v21.7Z" class="g1"/>
<path d="M752.8,582.3h.7V560.6h-.7v21.7Z" class="g1"/>
<path d="M841.3,582.3h.7V560.6h-.7v21.7Z" class="g1"/>
<path d="M1149.9,582.3h.7V560.6h-.7v21.7Z" class="g1"/>
<path d="M1238.2,582.3h.8V560.6h-.8v21.7Z" class="g1"/>
<path d="M47.1,583h.7v-.7h-.7v.7Z" class="g1"/>
<path d="M47.8,583H355.7v-.7H47.8v.7Z" class="g1"/>
<path d="M355.7,583h.7v-.7h-.7v.7Z" class="g1"/>
<path d="M356.4,583h87.8v-.7H356.4v.7Z" class="g1"/>
<path d="M444.2,583h.8v-.7h-.8v.7Z" class="g1"/>
<path d="M444.9,583H752.8v-.7H444.9v.7Z" class="g1"/>
<path d="M752.8,583h.7v-.7h-.7v.7Z" class="g1"/>
<path d="M753.5,583h87.8v-.7H753.5v.7Z" class="g1"/>
<path d="M841.3,583h.7v-.7h-.7v.7Z" class="g1"/>
<path d="M842,583h307.9v-.7H842v.7Z" class="g1"/>
<path d="M1149.9,583h.7v-.7h-.7v.7Z" class="g1"/>
<path d="M1150.6,583h87.6v-.7h-87.6v.7Z" class="g1"/>
<path d="M1238.2,583h.8v-.7h-.8v.7Z" class="g1"/>
<path d="M47.1,604.8h.7V583h-.7v21.8Z" class="g1"/>
<path d="M355.7,604.8h.7V583h-.7v21.8Z" class="g1"/>
<path d="M444.2,604.8h.8V583h-.8v21.8Z" class="g1"/>
<path d="M752.8,604.8h.7V583h-.7v21.8Z" class="g1"/>
<path d="M841.3,604.8h.7V583h-.7v21.8Z" class="g1"/>
<path d="M1149.9,604.8h.7V583h-.7v21.8Z" class="g1"/>
<path d="M1238.2,604.8h.8V583h-.8v21.8Z" class="g1"/>
<path d="M47.1,605.6h.7v-.8h-.7v.8Z" class="g1"/>
<path d="M47.8,605.6H355.7v-.8H47.8v.8Z" class="g1"/>
<path d="M355.7,605.6h.7v-.8h-.7v.8Z" class="g1"/>
<path d="M356.4,605.6h87.8v-.8H356.4v.8Z" class="g1"/>
<path d="M444.2,605.6h.8v-.8h-.8v.8Z" class="g1"/>
<path d="M444.9,605.6H752.8v-.8H444.9v.8Z" class="g1"/>
<path d="M752.8,605.6h.7v-.8h-.7v.8Z" class="g1"/>
<path d="M753.5,605.6h87.8v-.8H753.5v.8Z" class="g1"/>
<path d="M841.3,605.6h.7v-.8h-.7v.8Z" class="g1"/>
<path d="M842,605.6h307.9v-.8H842v.8Z" class="g1"/>
<path d="M1149.9,605.6h.7v-.8h-.7v.8Z" class="g1"/>
<path d="M1150.6,605.6h87.6v-.8h-87.6v.8Z" class="g1"/>
<path d="M1238.2,605.6h.8v-.8h-.8v.8Z" class="g1"/>
<path d="M47.1,627.2h.7V605.5h-.7v21.7Z" class="g1"/>
<path d="M47.1,627.9h.7v-.7h-.7v.7Z" class="g1"/>
<path d="M47.1,627.9h.7v-.7h-.7v.7Z" class="g1"/>
<path d="M47.8,627.9H355.7v-.7H47.8v.7Z" class="g1"/>
<path d="M355.7,627.2h.7V605.5h-.7v21.7Z" class="g1"/>
<path d="M355.7,627.9h.7v-.7h-.7v.7Z" class="g1"/>
<path d="M356.4,627.9h87.8v-.7H356.4v.7Z" class="g1"/>
<path d="M444.2,627.2h.8V605.5h-.8v21.7Z" class="g1"/>
<path d="M444.2,627.9h.8v-.7h-.8v.7Z" class="g1"/>
<path d="M444.9,627.9H752.8v-.7H444.9v.7Z" class="g1"/>
<path d="M752.8,627.2h.7V605.5h-.7v21.7Z" class="g1"/>
<path d="M752.8,627.9h.7v-.7h-.7v.7Z" class="g1"/>
<path d="M753.5,627.9h87.8v-.7H753.5v.7Z" class="g1"/>
<path d="M841.3,627.2h.7V605.5h-.7v21.7Z" class="g1"/>
<path d="M841.3,627.9h.7v-.7h-.7v.7Z" class="g1"/>
<path d="M842,627.9h307.9v-.7H842v.7Z" class="g1"/>
<path d="M1149.9,627.2h.7V605.5h-.7v21.7Z" class="g1"/>
<path d="M1149.9,627.9h.7v-.7h-.7v.7Z" class="g1"/>
<path d="M1150.6,627.9h87.6v-.7h-87.6v.7Z" class="g1"/>
<path d="M1238.2,627.2h.8V605.5h-.8v21.7Z" class="g1"/>
<path d="M1238.2,627.9h.8v-.7h-.8v.7Z" class="g1"/>
<path d="M1238.2,627.9h.8v-.7h-.8v.7Z" class="g1"/>
</svg>