<?xml version="1.0" encoding="UTF-8" standalone="no"?>
<!DOCTYPE svg PUBLIC "-//W3C//DTD SVG 1.1//EN"
"http://www.w3.org/Graphics/SVG/1.1/DTD/svg11.dtd">
<svg viewBox="0 0 1286 909" version="1.1" xmlns="http://www.w3.org/2000/svg" xmlns:xlink="http://www.w3.org/1999/xlink">
<defs>
<style type="text/css"><![CDATA[
.g0_1{
fill: #D9D9D9;
}
.g1_1{
}
]]></style>
</defs>
<path fill-rule="evenodd" d="M47.8,185.9H198.4V164.1H47.8v21.8Z" class="g0_1"/>
<path fill-rule="evenodd" d="M55.7,183.9H190.5V166.3H55.7v17.6Z" class="g0_1"/>
<path fill-rule="evenodd" d="M199.1,185.9H393.3V164.1H199.1v21.8Z" class="g0_1"/>
<path fill-rule="evenodd" d="M207,183.9H385.4V166.3H207v17.6Z" class="g0_1"/>
<path fill-rule="evenodd" d="M394,185.9H826.5V164.1H394v21.8Z" class="g0_1"/>
<path fill-rule="evenodd" d="M401.9,183.9H818.6V166.3H401.9v17.6Z" class="g0_1"/>
<path fill-rule="evenodd" d="M827.2,185.9h313.3V164.1H827.2v21.8Z" class="g0_1"/>
<path fill-rule="evenodd" d="M835.1,183.9h297.5V166.3H835.1v17.6Z" class="g0_1"/>
<path fill-rule="evenodd" d="M1141.3,185.9h96.9V164.1h-96.9v21.8Z" class="g0_1"/>
<path fill-rule="evenodd" d="M1149.1,183.9h81.2V166.3h-81.2v17.6Z" class="g0_1"/>
<path d="M47.1,164.1h.7v-.8h-.7v.8Z" class="g1_1"/>
<path d="M47.1,164.1h.7v-.8h-.7v.8Z" class="g1_1"/>
<path d="M47.8,164.1H198.4v-.8H47.8v.8Z" class="g1_1"/>
<path d="M198.4,164.1h.7v-.8h-.7v.8Z" class="g1_1"/>
<path d="M199.1,164.1H393.3v-.8H199.1v.8Z" class="g1_1"/>
<path d="M393.2,164.1h.8v-.8h-.8v.8Z" class="g1_1"/>
<path d="M394,164.1H826.5v-.8H394v.8Z" class="g1_1"/>
<path d="M826.5,164.1h.7v-.8h-.7v.8Z" class="g1_1"/>
<path d="M827.2,164.1h313.1v-.8H827.2v.8Z" class="g1_1"/>
<path d="M1140.3,164.1h.8v-.8h-.8v.8Z" class="g1_1"/>
<path d="M1141.1,164.1h97.1v-.8h-97.1v.8Z" class="g1_1"/>
<path d="M1238.2,164.1h.8v-.8h-.8v.8Z" class="g1_1"/>
<path d="M1238.2,164.1h.8v-.8h-.8v.8Z" class="g1_1"/>
<path d="M47.1,185.9h.7V164.1h-.7v21.8Z" class="g1_1"/>
<path d="M198.4,185.9h.7V164.1h-.7v21.8Z" class="g1_1"/>
<path d="M393.2,185.9h.8V164.1h-.8v21.8Z" class="g1_1"/>
<path d="M826.5,185.9h.7V164.1h-.7v21.8Z" class="g1_1"/>
<path d="M1140.3,185.9h.8V164.1h-.8v21.8Z" class="g1_1"/>
<path d="M1238.2,185.9h.8V164.1h-.8v21.8Z" class="g1_1"/>
<path d="M47.1,186.6h.7v-.7h-.7v.7Z" class="g1_1"/>
<path d="M47.8,186.6H198.4v-.7H47.8v.7Z" class="g1_1"/>
<path d="M198.4,186.6h.7v-.7h-.7v.7Z" class="g1_1"/>
<path d="M199.1,186.6H393.3v-.7H199.1v.7Z" class="g1_1"/>
<path d="M393.2,186.6h.8v-.7h-.8v.7Z" class="g1_1"/>
<path d="M394,186.6H826.5v-.7H394v.7Z" class="g1_1"/>
<path d="M826.5,186.6h.7v-.7h-.7v.7Z" class="g1_1"/>
<path d="M827.2,186.6h313.1v-.7H827.2v.7Z" class="g1_1"/>
<path d="M1140.3,186.6h.8v-.7h-.8v.7Z" class="g1_1"/>
<path d="M1141.1,186.6h97.1v-.7h-97.1v.7Z" class="g1_1"/>
<path d="M1238.2,186.6h.8v-.7h-.8v.7Z" class="g1_1"/>
<path d="M47.1,208.3h.7V186.6h-.7v21.7Z" class="g1_1"/>
<path d="M198.4,208.3h.7V186.6h-.7v21.7Z" class="g1_1"/>
<path d="M393.2,208.3h.8V186.6h-.8v21.7Z" class="g1_1"/>
<path d="M826.5,208.3h.7V186.6h-.7v21.7Z" class="g1_1"/>
<path d="M1140.3,208.3h.8V186.6h-.8v21.7Z" class="g1_1"/>
<path d="M1238.2,208.3h.8V186.6h-.8v21.7Z" class="g1_1"/>
<path d="M47.1,209h.7v-.7h-.7v.7Z" class="g1_1"/>
<path d="M198.4,209h.7v-.7h-.7v.7Z" class="g1_1"/>
<path d="M393.2,209h.8v-.7h-.8v.7Z" class="g1_1"/>
<path d="M826.5,209h.7v-.7h-.7v.7Z" class="g1_1"/>
<path d="M827.2,209h313.1v-.7H827.2v.7Z" class="g1_1"/>
<path d="M1140.3,209h.8v-.7h-.8v.7Z" class="g1_1"/>
<path d="M1141.1,209h97.1v-.7h-97.1v.7Z" class="g1_1"/>
<path d="M1238.2,209h.8v-.7h-.8v.7Z" class="g1_1"/>
<path d="M47.1,230.8h.7V209h-.7v21.8Z" class="g1_1"/>
<path d="M198.4,230.8h.7V209h-.7v21.8Z" class="g1_1"/>
<path d="M393.2,230.8h.8V209h-.8v21.8Z" class="g1_1"/>
<path d="M826.5,230.8h.7V209h-.7v21.8Z" class="g1_1"/>
<path d="M1140.3,230.8h.8V209h-.8v21.8Z" class="g1_1"/>
<path d="M1238.2,230.8h.8V209h-.8v21.8Z" class="g1_1"/>
<path d="M47.1,231.5h.7v-.7h-.7v.7Z" class="g1_1"/>
<path d="M198.4,231.5h.7v-.7h-.7v.7Z" class="g1_1"/>
<path d="M393.2,231.5h.8v-.7h-.8v.7Z" class="g1_1"/>
<path d="M826.5,231.5h.7v-.7h-.7v.7Z" class="g1_1"/>
<path d="M827.2,231.5h313.1v-.7H827.2v.7Z" class="g1_1"/>
<path d="M1140.3,231.5h.8v-.7h-.8v.7Z" class="g1_1"/>
<path d="M1141.1,231.5h97.1v-.7h-97.1v.7Z" class="g1_1"/>
<path d="M1238.2,231.5h.8v-.7h-.8v.7Z" class="g1_1"/>
<path d="M47.1,253.2h.7V231.5h-.7v21.7Z" class="g1_1"/>
<path d="M198.4,253.2h.7V231.5h-.7v21.7Z" class="g1_1"/>
<path d="M393.2,253.2h.8V231.5h-.8v21.7Z" class="g1_1"/>
<path d="M826.5,253.2h.7V231.5h-.7v21.7Z" class="g1_1"/>
<path d="M1140.3,253.2h.8V231.5h-.8v21.7Z" class="g1_1"/>
<path d="M1238.2,253.2h.8V231.5h-.8v21.7Z" class="g1_1"/>
<path d="M47.1,253.9h.7v-.7h-.7v.7Z" class="g1_1"/>
<path d="M198.4,253.9h.7v-.7h-.7v.7Z" class="g1_1"/>
<path d="M393.2,253.9h.8v-.7h-.8v.7Z" class="g1_1"/>
<path d="M826.5,253.9h.7v-.7h-.7v.7Z" class="g1_1"/>
<path d="M827.2,253.9h313.1v-.7H827.2v.7Z" class="g1_1"/>
<path d="M1140.3,253.9h.8v-.7h-.8v.7Z" class="g1_1"/>
<path d="M1141.1,253.9h97.1v-.7h-97.1v.7Z" class="g1_1"/>
<path d="M1238.2,253.9h.8v-.7h-.8v.7Z" class="g1_1"/>
<path d="M47.1,275.7h.7V253.9h-.7v21.8Z" class="g1_1"/>
<path d="M198.4,275.7h.7V253.9h-.7v21.8Z" class="g1_1"/>
<path d="M393.2,275.7h.8V253.9h-.8v21.8Z" class="g1_1"/>
<path d="M826.5,275.7h.7V253.9h-.7v21.8Z" class="g1_1"/>
<path d="M1140.3,275.7h.8V253.9h-.8v21.8Z" class="g1_1"/>
<path d="M1238.2,275.7h.8V253.9h-.8v21.8Z" class="g1_1"/>
<path d="M47.1,276.5h.7v-.8h-.7v.8Z" class="g1_1"/>
<path d="M47.8,276.5H198.4v-.8H47.8v.8Z" class="g1_1"/>
<path d="M198.4,276.5h.7v-.8h-.7v.8Z" class="g1_1"/>
<path d="M199.1,276.5H393.3v-.8H199.1v.8Z" class="g1_1"/>
<path d="M393.2,276.5h.8v-.8h-.8v.8Z" class="g1_1"/>
<path d="M394,276.5H826.5v-.8H394v.8Z" class="g1_1"/>
<path d="M826.5,276.5h.7v-.8h-.7v.8Z" class="g1_1"/>
<path d="M827.2,276.5h313.1v-.8H827.2v.8Z" class="g1_1"/>
<path d="M1140.3,276.5h.8v-.8h-.8v.8Z" class="g1_1"/>
<path d="M1141.1,276.5h97.1v-.8h-97.1v.8Z" class="g1_1"/>
<path d="M1238.2,276.5h.8v-.8h-.8v.8Z" class="g1_1"/>
<path d="M47.1,298.1h.7V276.5h-.7v21.6Z" class="g1_1"/>
<path d="M198.4,298.1h.7V276.5h-.7v21.6Z" class="g1_1"/>
<path d="M393.2,298.1h.8V276.5h-.8v21.6Z" class="g1_1"/>
<path d="M826.5,298.1h.7V276.5h-.7v21.6Z" class="g1_1"/>
<path d="M1140.3,298.1h.8V276.5h-.8v21.6Z" class="g1_1"/>
<path d="M1238.2,298.1h.8V276.5h-.8v21.6Z" class="g1_1"/>
<path d="M47.1,298.8h.7v-.7h-.7v.7Z" class="g1_1"/>
<path d="M198.4,298.8h.7v-.7h-.7v.7Z" class="g1_1"/>
<path d="M393.2,298.8h.8v-.7h-.8v.7Z" class="g1_1"/>
<path d="M826.5,298.8h.7v-.7h-.7v.7Z" class="g1_1"/>
<path d="M827.2,298.8h313.1v-.7H827.2v.7Z" class="g1_1"/>
<path d="M1140.3,298.8h.8v-.7h-.8v.7Z" class="g1_1"/>
<path d="M1141.1,298.8h97.1v-.7h-97.1v.7Z" class="g1_1"/>
<path d="M1238.2,298.8h.8v-.7h-.8v.7Z" class="g1_1"/>
<path d="M47.1,320.7h.7V298.8h-.7v21.9Z" class="g1_1"/>
<path d="M198.4,320.7h.7V298.8h-.7v21.9Z" class="g1_1"/>
<path d="M393.2,320.7h.8V298.8h-.8v21.9Z" class="g1_1"/>
<path d="M826.5,320.7h.7V298.8h-.7v21.9Z" class="g1_1"/>
<path d="M1140.3,320.7h.8V298.8h-.8v21.9Z" class="g1_1"/>
<path d="M1238.2,320.7h.8V298.8h-.8v21.9Z" class="g1_1"/>
<path d="M47.1,321.4h.7v-.8h-.7v.8Z" class="g1_1"/>
<path d="M198.4,321.4h.7v-.8h-.7v.8Z" class="g1_1"/>
<path d="M393.2,321.4h.8v-.8h-.8v.8Z" class="g1_1"/>
<path d="M826.5,321.4h.7v-.8h-.7v.8Z" class="g1_1"/>
<path d="M827.2,321.4h313.1v-.8H827.2v.8Z" class="g1_1"/>
<path d="M1140.3,321.4h.8v-.8h-.8v.8Z" class="g1_1"/>
<path d="M1141.1,321.4h97.1v-.8h-97.1v.8Z" class="g1_1"/>
<path d="M1238.2,321.4h.8v-.8h-.8v.8Z" class="g1_1"/>
<path d="M47.1,343h.7V321.4h-.7V343Z" class="g1_1"/>
<path d="M198.4,343h.7V321.4h-.7V343Z" class="g1_1"/>
<path d="M393.2,343h.8V321.4h-.8V343Z" class="g1_1"/>
<path d="M826.5,343h.7V321.4h-.7V343Z" class="g1_1"/>
<path d="M1140.3,343h.8V321.4h-.8V343Z" class="g1_1"/>
<path d="M1238.2,343h.8V321.4h-.8V343Z" class="g1_1"/>
<path d="M47.1,343.8h.7V343h-.7v.8Z" class="g1_1"/>
<path d="M198.4,343.8h.7V343h-.7v.8Z" class="g1_1"/>
<path d="M393.2,343.8h.8V343h-.8v.8Z" class="g1_1"/>
<path d="M826.5,343.8h.7V343h-.7v.8Z" class="g1_1"/>
<path d="M827.2,343.8h313.1V343H827.2v.8Z" class="g1_1"/>
<path d="M1140.3,343.8h.8V343h-.8v.8Z" class="g1_1"/>
<path d="M1141.1,343.8h97.1V343h-97.1v.8Z" class="g1_1"/>
<path d="M1238.2,343.8h.8V343h-.8v.8Z" class="g1_1"/>
<path d="M47.1,365.6h.7V343.8h-.7v21.8Z" class="g1_1"/>
<path d="M198.4,365.6h.7V343.8h-.7v21.8Z" class="g1_1"/>
<path d="M393.2,365.6h.8V343.8h-.8v21.8Z" class="g1_1"/>
<path d="M826.5,365.6h.7V343.8h-.7v21.8Z" class="g1_1"/>
<path d="M1140.3,365.6h.8V343.8h-.8v21.8Z" class="g1_1"/>
<path d="M1238.2,365.6h.8V343.8h-.8v21.8Z" class="g1_1"/>
<path d="M47.1,366.3h.7v-.7h-.7v.7Z" class="g1_1"/>
<path d="M47.8,366.3H198.4v-.7H47.8v.7Z" class="g1_1"/>
<path d="M198.4,366.3h.7v-.7h-.7v.7Z" class="g1_1"/>
<path d="M199.1,366.3H393.3v-.7H199.1v.7Z" class="g1_1"/>
<path d="M393.2,366.3h.8v-.7h-.8v.7Z" class="g1_1"/>
<path d="M394,366.3H826.5v-.7H394v.7Z" class="g1_1"/>
<path d="M826.5,366.3h.7v-.7h-.7v.7Z" class="g1_1"/>
<path d="M827.2,366.3h313.1v-.7H827.2v.7Z" class="g1_1"/>
<path d="M1140.3,366.3h.8v-.7h-.8v.7Z" class="g1_1"/>
<path d="M1141.1,366.3h97.1v-.7h-97.1v.7Z" class="g1_1"/>
<path d="M1238.2,366.3h.8v-.7h-.8v.7Z" class="g1_1"/>
<path d="M47.1,387.9h.7V366.3h-.7v21.6Z" class="g1_1"/>
<path d="M198.4,387.9h.7V366.3h-.7v21.6Z" class="g1_1"/>
<path d="M393.2,387.9h.8V366.3h-.8v21.6Z" class="g1_1"/>
<path d="M826.5,387.9h.7V366.3h-.7v21.6Z" class="g1_1"/>
<path d="M1140.3,387.9h.8V366.3h-.8v21.6Z" class="g1_1"/>
<path d="M1238.2,387.9h.8V366.3h-.8v21.6Z" class="g1_1"/>
<path d="M47.1,388.7h.7v-.8h-.7v.8Z" class="g1_1"/>
<path d="M198.4,388.7h.7v-.8h-.7v.8Z" class="g1_1"/>
<path d="M393.2,388.7h.8v-.8h-.8v.8Z" class="g1_1"/>
<path d="M826.5,388.7h.7v-.8h-.7v.8Z" class="g1_1"/>
<path d="M827.2,388.7h313.1v-.8H827.2v.8Z" class="g1_1"/>
<path d="M1140.3,388.7h.8v-.8h-.8v.8Z" class="g1_1"/>
<path d="M1141.1,388.7h97.1v-.8h-97.1v.8Z" class="g1_1"/>
<path d="M1238.2,388.7h.8v-.8h-.8v.8Z" class="g1_1"/>
<path d="M47.1,410.5h.7V388.7h-.7v21.8Z" class="g1_1"/>
<path d="M198.4,410.5h.7V388.7h-.7v21.8Z" class="g1_1"/>
<path d="M393.2,410.5h.8V388.7h-.8v21.8Z" class="g1_1"/>
<path d="M826.5,410.5h.7V388.7h-.7v21.8Z" class="g1_1"/>
<path d="M1140.3,410.5h.8V388.7h-.8v21.8Z" class="g1_1"/>
<path d="M1238.2,410.5h.8V388.7h-.8v21.8Z" class="g1_1"/>
<path d="M47.1,411.2h.7v-.7h-.7v.7Z" class="g1_1"/>
<path d="M47.8,411.2H198.4v-.7H47.8v.7Z" class="g1_1"/>
<path d="M198.4,411.2h.7v-.7h-.7v.7Z" class="g1_1"/>
<path d="M199.1,411.2H393.3v-.7H199.1v.7Z" class="g1_1"/>
<path d="M393.2,411.2h.8v-.7h-.8v.7Z" class="g1_1"/>
<path d="M394,411.2H826.5v-.7H394v.7Z" class="g1_1"/>
<path d="M826.5,411.2h.7v-.7h-.7v.7Z" class="g1_1"/>
<path d="M827.2,411.2h313.1v-.7H827.2v.7Z" class="g1_1"/>
<path d="M1140.3,411.2h.8v-.7h-.8v.7Z" class="g1_1"/>
<path d="M1141.1,411.2h97.1v-.7h-97.1v.7Z" class="g1_1"/>
<path d="M1238.2,411.2h.8v-.7h-.8v.7Z" class="g1_1"/>
<path d="M47.1,432.9h.7V411.2h-.7v21.7Z" class="g1_1"/>
<path d="M198.4,432.9h.7V411.2h-.7v21.7Z" class="g1_1"/>
<path d="M393.2,432.9h.8V411.2h-.8v21.7Z" class="g1_1"/>
<path d="M826.5,432.9h.7V411.2h-.7v21.7Z" class="g1_1"/>
<path d="M1140.3,432.9h.8V411.2h-.8v21.7Z" class="g1_1"/>
<path d="M1238.2,432.9h.8V411.2h-.8v21.7Z" class="g1_1"/>
<path d="M47.1,433.6h.7v-.8h-.7v.8Z" class="g1_1"/>
<path d="M198.4,433.6h.7v-.8h-.7v.8Z" class="g1_1"/>
<path d="M393.2,433.6h.8v-.8h-.8v.8Z" class="g1_1"/>
<path d="M826.5,433.6h.7v-.8h-.7v.8Z" class="g1_1"/>
<path d="M827.2,433.6h313.1v-.8H827.2v.8Z" class="g1_1"/>
<path d="M1140.3,433.6h.8v-.8h-.8v.8Z" class="g1_1"/>
<path d="M1141.1,433.6h97.1v-.8h-97.1v.8Z" class="g1_1"/>
<path d="M1238.2,433.6h.8v-.8h-.8v.8Z" class="g1_1"/>
<path d="M47.1,455.4h.7V433.6h-.7v21.8Z" class="g1_1"/>
<path d="M198.4,455.4h.7V433.6h-.7v21.8Z" class="g1_1"/>
<path d="M393.2,455.4h.8V433.6h-.8v21.8Z" class="g1_1"/>
<path d="M826.5,455.4h.7V433.6h-.7v21.8Z" class="g1_1"/>
<path d="M1140.3,455.4h.8V433.6h-.8v21.8Z" class="g1_1"/>
<path d="M1238.2,455.4h.8V433.6h-.8v21.8Z" class="g1_1"/>
<path d="M47.1,456.1h.7v-.7h-.7v.7Z" class="g1_1"/>
<path d="M47.8,456.1H198.4v-.7H47.8v.7Z" class="g1_1"/>
<path d="M198.4,456.1h.7v-.7h-.7v.7Z" class="g1_1"/>
<path d="M199.1,456.1H393.3v-.7H199.1v.7Z" class="g1_1"/>
<path d="M393.2,456.1h.8v-.7h-.8v.7Z" class="g1_1"/>
<path d="M394,456.1H826.5v-.7H394v.7Z" class="g1_1"/>
<path d="M826.5,456.1h.7v-.7h-.7v.7Z" class="g1_1"/>
<path d="M827.2,456.1h313.1v-.7H827.2v.7Z" class="g1_1"/>
<path d="M1140.3,456.1h.8v-.7h-.8v.7Z" class="g1_1"/>
<path d="M1141.1,456.1h97.1v-.7h-97.1v.7Z" class="g1_1"/>
<path d="M1238.2,456.1h.8v-.7h-.8v.7Z" class="g1_1"/>
<path d="M47.1,477.8h.7V456.1h-.7v21.7Z" class="g1_1"/>
<path d="M198.4,477.8h.7V456.1h-.7v21.7Z" class="g1_1"/>
<path d="M393.2,477.8h.8V456.1h-.8v21.7Z" class="g1_1"/>
<path d="M826.5,477.8h.7V456.1h-.7v21.7Z" class="g1_1"/>
<path d="M1140.3,477.8h.8V456.1h-.8v21.7Z" class="g1_1"/>
<path d="M1238.2,477.8h.8V456.1h-.8v21.7Z" class="g1_1"/>
<path d="M47.1,478.5h.7v-.7h-.7v.7Z" class="g1_1"/>
<path d="M198.4,478.5h.7v-.7h-.7v.7Z" class="g1_1"/>
<path d="M393.2,478.5h.8v-.7h-.8v.7Z" class="g1_1"/>
<path d="M826.5,478.5h.7v-.7h-.7v.7Z" class="g1_1"/>
<path d="M827.2,478.5h313.1v-.7H827.2v.7Z" class="g1_1"/>
<path d="M1140.3,478.5h.8v-.7h-.8v.7Z" class="g1_1"/>
<path d="M1141.1,478.5h97.1v-.7h-97.1v.7Z" class="g1_1"/>
<path d="M1238.2,478.5h.8v-.7h-.8v.7Z" class="g1_1"/>
<path d="M47.1,500.3h.7V478.5h-.7v21.8Z" class="g1_1"/>
<path d="M198.4,500.3h.7V478.5h-.7v21.8Z" class="g1_1"/>
<path d="M393.2,500.3h.8V478.5h-.8v21.8Z" class="g1_1"/>
<path d="M826.5,500.3h.7V478.5h-.7v21.8Z" class="g1_1"/>
<path d="M1140.3,500.3h.8V478.5h-.8v21.8Z" class="g1_1"/>
<path d="M1238.2,500.3h.8V478.5h-.8v21.8Z" class="g1_1"/>
<path d="M47.1,501.1h.7v-.8h-.7v.8Z" class="g1_1"/>
<path d="M198.4,501.1h.7v-.8h-.7v.8Z" class="g1_1"/>
<path d="M393.2,501.1h.8v-.8h-.8v.8Z" class="g1_1"/>
<path d="M826.5,501.1h.7v-.8h-.7v.8Z" class="g1_1"/>
<path d="M827.2,501.1h313.1v-.8H827.2v.8Z" class="g1_1"/>
<path d="M1140.3,501.1h.8v-.8h-.8v.8Z" class="g1_1"/>
<path d="M1141.1,501.1h97.1v-.8h-97.1v.8Z" class="g1_1"/>
<path d="M1238.2,501.1h.8v-.8h-.8v.8Z" class="g1_1"/>
<path d="M47.1,522.7h.7V501h-.7v21.7Z" class="g1_1"/>
<path d="M198.4,522.7h.7V501h-.7v21.7Z" class="g1_1"/>
<path d="M393.2,522.7h.8V501h-.8v21.7Z" class="g1_1"/>
<path d="M826.5,522.7h.7V501h-.7v21.7Z" class="g1_1"/>
<path d="M1140.3,522.7h.8V501h-.8v21.7Z" class="g1_1"/>
<path d="M1238.2,522.7h.8V501h-.8v21.7Z" class="g1_1"/>
<path d="M47.1,523.4h.7v-.7h-.7v.7Z" class="g1_1"/>
<path d="M47.8,523.4H198.4v-.7H47.8v.7Z" class="g1_1"/>
<path d="M198.4,523.4h.7v-.7h-.7v.7Z" class="g1_1"/>
<path d="M199.1,523.4H393.3v-.7H199.1v.7Z" class="g1_1"/>
<path d="M393.2,523.4h.8v-.7h-.8v.7Z" class="g1_1"/>
<path d="M394,523.4H826.5v-.7H394v.7Z" class="g1_1"/>
<path d="M826.5,523.4h.7v-.7h-.7v.7Z" class="g1_1"/>
<path d="M827.2,523.4h313.1v-.7H827.2v.7Z" class="g1_1"/>
<path d="M1140.3,523.4h.8v-.7h-.8v.7Z" class="g1_1"/>
<path d="M1141.1,523.4h97.1v-.7h-97.1v.7Z" class="g1_1"/>
<path d="M1238.2,523.4h.8v-.7h-.8v.7Z" class="g1_1"/>
<path d="M47.1,545.2h.7V523.4h-.7v21.8Z" class="g1_1"/>
<path d="M198.4,545.2h.7V523.4h-.7v21.8Z" class="g1_1"/>
<path d="M393.2,545.2h.8V523.4h-.8v21.8Z" class="g1_1"/>
<path d="M826.5,545.2h.7V523.4h-.7v21.8Z" class="g1_1"/>
<path d="M1140.3,545.2h.8V523.4h-.8v21.8Z" class="g1_1"/>
<path d="M1238.2,545.2h.8V523.4h-.8v21.8Z" class="g1_1"/>
<path d="M47.1,546h.7v-.8h-.7v.8Z" class="g1_1"/>
<path d="M198.4,546h.7v-.8h-.7v.8Z" class="g1_1"/>
<path d="M393.2,546h.8v-.8h-.8v.8Z" class="g1_1"/>
<path d="M826.5,546h.7v-.8h-.7v.8Z" class="g1_1"/>
<path d="M827.2,546h313.1v-.8H827.2v.8Z" class="g1_1"/>
<path d="M1140.3,546h.8v-.8h-.8v.8Z" class="g1_1"/>
<path d="M1141.1,546h97.1v-.8h-97.1v.8Z" class="g1_1"/>
<path d="M1238.2,546h.8v-.8h-.8v.8Z" class="g1_1"/>
<path d="M47.1,567.6h.7V546h-.7v21.6Z" class="g1_1"/>
<path d="M198.4,567.6h.7V546h-.7v21.6Z" class="g1_1"/>
<path d="M393.2,567.6h.8V546h-.8v21.6Z" class="g1_1"/>
<path d="M826.5,567.6h.7V546h-.7v21.6Z" class="g1_1"/>
<path d="M1140.3,567.6h.8V546h-.8v21.6Z" class="g1_1"/>
<path d="M1238.2,567.6h.8V546h-.8v21.6Z" class="g1_1"/>
<path d="M47.1,568.3h.7v-.7h-.7v.7Z" class="g1_1"/>
<path d="M198.4,568.3h.7v-.7h-.7v.7Z" class="g1_1"/>
<path d="M393.2,568.3h.8v-.7h-.8v.7Z" class="g1_1"/>
<path d="M826.5,568.3h.7v-.7h-.7v.7Z" class="g1_1"/>
<path d="M827.2,568.3h313.1v-.7H827.2v.7Z" class="g1_1"/>
<path d="M1140.3,568.3h.8v-.7h-.8v.7Z" class="g1_1"/>
<path d="M1141.1,568.3h97.1v-.7h-97.1v.7Z" class="g1_1"/>
<path d="M1238.2,568.3h.8v-.7h-.8v.7Z" class="g1_1"/>
<path d="M47.1,590.2h.7V568.3h-.7v21.9Z" class="g1_1"/>
<path d="M198.4,590.2h.7V568.3h-.7v21.9Z" class="g1_1"/>
<path d="M393.2,590.2h.8V568.3h-.8v21.9Z" class="g1_1"/>
<path d="M826.5,590.2h.7V568.3h-.7v21.9Z" class="g1_1"/>
<path d="M1140.3,590.2h.8V568.3h-.8v21.9Z" class="g1_1"/>
<path d="M1238.2,590.2h.8V568.3h-.8v21.9Z" class="g1_1"/>
<path d="M47.1,590.9h.7v-.8h-.7v.8Z" class="g1_1"/>
<path d="M47.8,590.9H198.4v-.8H47.8v.8Z" class="g1_1"/>
<path d="M198.4,590.9h.7v-.8h-.7v.8Z" class="g1_1"/>
<path d="M199.1,590.9H393.3v-.8H199.1v.8Z" class="g1_1"/>
<path d="M393.2,590.9h.8v-.8h-.8v.8Z" class="g1_1"/>
<path d="M394,590.9H826.5v-.8H394v.8Z" class="g1_1"/>
<path d="M826.5,590.9h.7v-.8h-.7v.8Z" class="g1_1"/>
<path d="M827.2,590.9h313.1v-.8H827.2v.8Z" class="g1_1"/>
<path d="M1140.3,590.9h.8v-.8h-.8v.8Z" class="g1_1"/>
<path d="M1141.1,590.9h97.1v-.8h-97.1v.8Z" class="g1_1"/>
<path d="M1238.2,590.9h.8v-.8h-.8v.8Z" class="g1_1"/>
<path d="M47.1,612.5h.7V590.9h-.7v21.6Z" class="g1_1"/>
<path d="M198.4,612.5h.7V590.9h-.7v21.6Z" class="g1_1"/>
<path d="M393.2,612.5h.8V590.9h-.8v21.6Z" class="g1_1"/>
<path d="M826.5,612.5h.7V590.9h-.7v21.6Z" class="g1_1"/>
<path d="M1140.3,612.5h.8V590.9h-.8v21.6Z" class="g1_1"/>
<path d="M1238.2,612.5h.8V590.9h-.8v21.6Z" class="g1_1"/>
<path d="M47.1,613.3h.7v-.8h-.7v.8Z" class="g1_1"/>
<path d="M198.4,613.3h.7v-.8h-.7v.8Z" class="g1_1"/>
<path d="M393.2,613.3h.8v-.8h-.8v.8Z" class="g1_1"/>
<path d="M826.5,613.3h.7v-.8h-.7v.8Z" class="g1_1"/>
<path d="M827.2,613.3h313.1v-.8H827.2v.8Z" class="g1_1"/>
<path d="M1140.3,613.3h.8v-.8h-.8v.8Z" class="g1_1"/>
<path d="M1141.1,613.3h97.1v-.8h-97.1v.8Z" class="g1_1"/>
<path d="M1238.2,613.3h.8v-.8h-.8v.8Z" class="g1_1"/>
<path d="M47.1,635.1h.7V613.3h-.7v21.8Z" class="g1_1"/>
<path d="M198.4,635.1h.7V613.3h-.7v21.8Z" class="g1_1"/>
<path d="M393.2,635.1h.8V613.3h-.8v21.8Z" class="g1_1"/>
<path d="M826.5,635.1h.7V613.3h-.7v21.8Z" class="g1_1"/>
<path d="M1140.3,635.1h.8V613.3h-.8v21.8Z" class="g1_1"/>
<path d="M1238.2,635.1h.8V613.3h-.8v21.8Z" class="g1_1"/>
<path d="M47.1,635.8h.7v-.7h-.7v.7Z" class="g1_1"/>
<path d="M198.4,635.8h.7v-.7h-.7v.7Z" class="g1_1"/>
<path d="M393.2,635.8h.8v-.7h-.8v.7Z" class="g1_1"/>
<path d="M826.5,635.8h.7v-.7h-.7v.7Z" class="g1_1"/>
<path d="M827.2,635.8h313.1v-.7H827.2v.7Z" class="g1_1"/>
<path d="M1140.3,635.8h.8v-.7h-.8v.7Z" class="g1_1"/>
<path d="M1141.1,635.8h97.1v-.7h-97.1v.7Z" class="g1_1"/>
<path d="M1238.2,635.8h.8v-.7h-.8v.7Z" class="g1_1"/>
<path d="M47.1,657.4h.7V635.8h-.7v21.6Z" class="g1_1"/>
<path d="M198.4,657.4h.7V635.8h-.7v21.6Z" class="g1_1"/>
<path d="M393.2,657.4h.8V635.8h-.8v21.6Z" class="g1_1"/>
<path d="M826.5,657.4h.7V635.8h-.7v21.6Z" class="g1_1"/>
<path d="M1140.3,657.4h.8V635.8h-.8v21.6Z" class="g1_1"/>
<path d="M1238.2,657.4h.8V635.8h-.8v21.6Z" class="g1_1"/>
<path d="M47.1,658.2h.7v-.8h-.7v.8Z" class="g1_1"/>
<path d="M47.8,658.2H198.4v-.8H47.8v.8Z" class="g1_1"/>
<path d="M198.4,658.2h.7v-.8h-.7v.8Z" class="g1_1"/>
<path d="M199.1,658.2H393.3v-.8H199.1v.8Z" class="g1_1"/>
<path d="M393.2,658.2h.8v-.8h-.8v.8Z" class="g1_1"/>
<path d="M394,658.2H826.5v-.8H394v.8Z" class="g1_1"/>
<path d="M826.5,658.2h.7v-.8h-.7v.8Z" class="g1_1"/>
<path d="M827.2,658.2h313.1v-.8H827.2v.8Z" class="g1_1"/>
<path d="M1140.3,658.2h.8v-.8h-.8v.8Z" class="g1_1"/>
<path d="M1141.1,658.2h97.1v-.8h-97.1v.8Z" class="g1_1"/>
<path d="M1238.2,658.2h.8v-.8h-.8v.8Z" class="g1_1"/>
<path d="M47.1,693.4h.7V658.2h-.7v35.2Z" class="g1_1"/>
<path d="M198.4,693.4h.7V658.2h-.7v35.2Z" class="g1_1"/>
<path d="M393.2,693.4h.8V658.2h-.8v35.2Z" class="g1_1"/>
<path d="M826.5,693.4h.7V658.2h-.7v35.2Z" class="g1_1"/>
<path d="M1140.3,693.4h.8V658.2h-.8v35.2Z" class="g1_1"/>
<path d="M1238.2,693.4h.8V658.2h-.8v35.2Z" class="g1_1"/>
<path d="M47.1,694.1h.7v-.7h-.7v.7Z" class="g1_1"/>
<path d="M47.8,694.1H198.4v-.7H47.8v.7Z" class="g1_1"/>
<path d="M198.4,694.1h.7v-.7h-.7v.7Z" class="g1_1"/>
<path d="M199.1,694.1H393.3v-.7H199.1v.7Z" class="g1_1"/>
<path d="M393.2,694.1h.8v-.7h-.8v.7Z" class="g1_1"/>
<path d="M394,694.1H826.5v-.7H394v.7Z" class="g1_1"/>
<path d="M826.5,694.1h.7v-.7h-.7v.7Z" class="g1_1"/>
<path d="M827.2,694.1h313.1v-.7H827.2v.7Z" class="g1_1"/>
<path d="M1140.3,694.1h.8v-.7h-.8v.7Z" class="g1_1"/>
<path d="M1141.1,694.1h97.1v-.7h-97.1v.7Z" class="g1_1"/>
<path d="M1238.2,694.1h.8v-.7h-.8v.7Z" class="g1_1"/>
<path d="M47.1,715.9h.7V694.1h-.7v21.8Z" class="g1_1"/>
<path d="M198.4,715.9h.7V694.1h-.7v21.8Z" class="g1_1"/>
<path d="M393.2,715.9h.8V694.1h-.8v21.8Z" class="g1_1"/>
<path d="M826.5,715.9h.7V694.1h-.7v21.8Z" class="g1_1"/>
<path d="M1140.3,715.9h.8V694.1h-.8v21.8Z" class="g1_1"/>
<path d="M1238.2,715.9h.8V694.1h-.8v21.8Z" class="g1_1"/>
<path d="M47.1,716.7h.7v-.8h-.7v.8Z" class="g1_1"/>
<path d="M198.4,716.7h.7v-.8h-.7v.8Z" class="g1_1"/>
<path d="M393.2,716.7h.8v-.8h-.8v.8Z" class="g1_1"/>
<path d="M826.5,716.7h.7v-.8h-.7v.8Z" class="g1_1"/>
<path d="M827.2,716.7h313.1v-.8H827.2v.8Z" class="g1_1"/>
<path d="M1140.3,716.7h.8v-.8h-.8v.8Z" class="g1_1"/>
<path d="M1141.1,716.7h97.1v-.8h-97.1v.8Z" class="g1_1"/>
<path d="M1238.2,716.7h.8v-.8h-.8v.8Z" class="g1_1"/>
<path d="M47.1,738.3h.7V716.6h-.7v21.7Z" class="g1_1"/>
<path d="M198.4,738.3h.7V716.6h-.7v21.7Z" class="g1_1"/>
<path d="M393.2,738.3h.8V716.6h-.8v21.7Z" class="g1_1"/>
<path d="M826.5,738.3h.7V716.6h-.7v21.7Z" class="g1_1"/>
<path d="M1140.3,738.3h.8V716.6h-.8v21.7Z" class="g1_1"/>
<path d="M1238.2,738.3h.8V716.6h-.8v21.7Z" class="g1_1"/>
<path d="M47.1,739h.7v-.7h-.7v.7Z" class="g1_1"/>
<path d="M198.4,739h.7v-.7h-.7v.7Z" class="g1_1"/>
<path d="M393.2,739h.8v-.7h-.8v.7Z" class="g1_1"/>
<path d="M826.5,739h.7v-.7h-.7v.7Z" class="g1_1"/>
<path d="M827.2,739h313.1v-.7H827.2v.7Z" class="g1_1"/>
<path d="M1140.3,739h.8v-.7h-.8v.7Z" class="g1_1"/>
<path d="M1141.1,739h97.1v-.7h-97.1v.7Z" class="g1_1"/>
<path d="M1238.2,739h.8v-.7h-.8v.7Z" class="g1_1"/>
<path d="M47.1,760.8h.7V739h-.7v21.8Z" class="g1_1"/>
<path d="M198.4,760.8h.7V739h-.7v21.8Z" class="g1_1"/>
<path d="M393.2,760.8h.8V739h-.8v21.8Z" class="g1_1"/>
<path d="M826.5,760.8h.7V739h-.7v21.8Z" class="g1_1"/>
<path d="M1140.3,760.8h.8V739h-.8v21.8Z" class="g1_1"/>
<path d="M1238.2,760.8h.8V739h-.8v21.8Z" class="g1_1"/>
<path d="M47.1,761.6h.7v-.8h-.7v.8Z" class="g1_1"/>
<path d="M47.8,761.6H198.4v-.8H47.8v.8Z" class="g1_1"/>
<path d="M198.4,761.6h.7v-.8h-.7v.8Z" class="g1_1"/>
<path d="M199.1,761.6H393.3v-.8H199.1v.8Z" class="g1_1"/>
<path d="M393.2,761.6h.8v-.8h-.8v.8Z" class="g1_1"/>
<path d="M394,761.6H826.5v-.8H394v.8Z" class="g1_1"/>
<path d="M826.5,761.6h.7v-.8h-.7v.8Z" class="g1_1"/>
<path d="M827.2,761.6h313.1v-.8H827.2v.8Z" class="g1_1"/>
<path d="M1140.3,761.6h.8v-.8h-.8v.8Z" class="g1_1"/>
<path d="M1141.1,761.6h97.1v-.8h-97.1v.8Z" class="g1_1"/>
<path d="M1238.2,761.6h.8v-.8h-.8v.8Z" class="g1_1"/>
<path d="M47.1,783.2h.7V761.6h-.7v21.6Z" class="g1_1"/>
<path d="M198.4,783.2h.7V761.6h-.7v21.6Z" class="g1_1"/>
<path d="M393.2,783.2h.8V761.6h-.8v21.6Z" class="g1_1"/>
<path d="M826.5,783.2h.7V761.6h-.7v21.6Z" class="g1_1"/>
<path d="M1140.3,783.2h.8V761.6h-.8v21.6Z" class="g1_1"/>
<path d="M1238.2,783.2h.8V761.6h-.8v21.6Z" class="g1_1"/>
<path d="M47.1,783.9h.7v-.7h-.7v.7Z" class="g1_1"/>
<path d="M198.4,783.9h.7v-.7h-.7v.7Z" class="g1_1"/>
<path d="M393.2,783.9h.8v-.7h-.8v.7Z" class="g1_1"/>
<path d="M826.5,783.9h.7v-.7h-.7v.7Z" class="g1_1"/>
<path d="M827.2,783.9h313.1v-.7H827.2v.7Z" class="g1_1"/>
<path d="M1140.3,783.9h.8v-.7h-.8v.7Z" class="g1_1"/>
<path d="M1141.1,783.9h97.1v-.7h-97.1v.7Z" class="g1_1"/>
<path d="M1238.2,783.9h.8v-.7h-.8v.7Z" class="g1_1"/>
<path d="M47.1,805.8h.7V783.9h-.7v21.9Z" class="g1_1"/>
<path d="M198.4,805.8h.7V783.9h-.7v21.9Z" class="g1_1"/>
<path d="M393.2,805.8h.8V783.9h-.8v21.9Z" class="g1_1"/>
<path d="M826.5,805.8h.7V783.9h-.7v21.9Z" class="g1_1"/>
<path d="M1140.3,805.8h.8V783.9h-.8v21.9Z" class="g1_1"/>
<path d="M1238.2,805.8h.8V783.9h-.8v21.9Z" class="g1_1"/>
<path d="M47.1,806.5h.7v-.8h-.7v.8Z" class="g1_1"/>
<path d="M198.4,806.5h.7v-.8h-.7v.8Z" class="g1_1"/>
<path d="M393.2,806.5h.8v-.8h-.8v.8Z" class="g1_1"/>
<path d="M826.5,806.5h.7v-.8h-.7v.8Z" class="g1_1"/>
<path d="M827.2,806.5h313.1v-.8H827.2v.8Z" class="g1_1"/>
<path d="M1140.3,806.5h.8v-.8h-.8v.8Z" class="g1_1"/>
<path d="M1141.1,806.5h97.1v-.8h-97.1v.8Z" class="g1_1"/>
<path d="M1238.2,806.5h.8v-.8h-.8v.8Z" class="g1_1"/>
<path d="M47.1,828.1h.7V806.5h-.7v21.6Z" class="g1_1"/>
<path d="M47.1,828.9h.7v-.8h-.7v.8Z" class="g1_1"/>
<path d="M47.1,828.9h.7v-.8h-.7v.8Z" class="g1_1"/>
<path d="M47.8,828.9H198.4v-.8H47.8v.8Z" class="g1_1"/>
<path d="M198.4,828.1h.7V806.5h-.7v21.6Z" class="g1_1"/>
<path d="M198.4,828.9h.7v-.8h-.7v.8Z" class="g1_1"/>
<path d="M199.1,828.9H393.3v-.8H199.1v.8Z" class="g1_1"/>
<path d="M393.2,828.1h.8V806.5h-.8v21.6Z" class="g1_1"/>
<path d="M393.2,828.9h.8v-.8h-.8v.8Z" class="g1_1"/>
<path d="M394,828.9H826.5v-.8H394v.8Z" class="g1_1"/>
<path d="M826.5,828.1h.7V806.5h-.7v21.6Z" class="g1_1"/>
<path d="M826.5,828.9h.7v-.8h-.7v.8Z" class="g1_1"/>
<path d="M827.2,828.9h313.1v-.8H827.2v.8Z" class="g1_1"/>
<path d="M1140.3,828.1h.8V806.5h-.8v21.6Z" class="g1_1"/>
<path d="M1140.3,828.9h.8v-.8h-.8v.8Z" class="g1_1"/>
<path d="M1141.1,828.9h97.1v-.8h-97.1v.8Z" class="g1_1"/>
<path d="M1238.2,828.1h.8V806.5h-.8v21.6Z" class="g1_1"/>
<path d="M1238.2,828.9h.8v-.8h-.8v.8Z" class="g1_1"/>
<path d="M1238.2,828.9h.8v-.8h-.8v.8Z" class="g1_1"/>
</svg>