<?xml version="1.0" encoding="UTF-8" standalone="no"?>
<!DOCTYPE svg PUBLIC "-//W3C//DTD SVG 1.1//EN"
"http://www.w3.org/Graphics/SVG/1.1/DTD/svg11.dtd">
<svg viewBox="0 0 1286 909" version="1.1" xmlns="http://www.w3.org/2000/svg" xmlns:xlink="http://www.w3.org/1999/xlink">
<defs>
<style type="text/css"><![CDATA[
.g0{
fill: #D9D9D9;
}
.g1{
}
]]></style>
</defs>
<path fill-rule="evenodd" d="M47.8,175.4h96.5V153.8H47.8v21.6Z" class="g0"/>
<path fill-rule="evenodd" d="M55.7,173.4h80.7V155.8H55.7v17.6Z" class="g0"/>
<path fill-rule="evenodd" d="M145,175.4H285.1V153.8H145v21.6Z" class="g0"/>
<path fill-rule="evenodd" d="M152.9,173.4H277.2V155.8H152.9v17.6Z" class="g0"/>
<path fill-rule="evenodd" d="M285.8,175.4h789.6V153.8H285.8v21.6Z" class="g0"/>
<path fill-rule="evenodd" d="M293.7,173.4h774V155.8h-774v17.6Z" class="g0"/>
<path fill-rule="evenodd" d="M1076.4,175.4h85.7V153.8h-85.7v21.6Z" class="g0"/>
<path fill-rule="evenodd" d="M1084.2,173.4h70.1V155.8h-70.1v17.6Z" class="g0"/>
<path fill-rule="evenodd" d="M1162.9,175.4h75.3V153.8h-75.3v21.6Z" class="g0"/>
<path fill-rule="evenodd" d="M1170.8,173.4h59.6V155.8h-59.6v17.6Z" class="g0"/>
<path d="M47.1,153.8h.7v-.7h-.7v.7Z" class="g1"/>
<path d="M47.1,153.8h.7v-.7h-.7v.7Z" class="g1"/>
<path d="M47.8,153.8h96.5v-.7H47.8v.7Z" class="g1"/>
<path d="M144.3,153.8h.7v-.7h-.7v.7Z" class="g1"/>
<path d="M145,153.8H285.1v-.7H145v.7Z" class="g1"/>
<path d="M285.1,153.8h.7v-.7h-.7v.7Z" class="g1"/>
<path d="M285.8,153.8h789.6v-.7H285.8v.7Z" class="g1"/>
<path d="M1075.4,153.8h.8v-.7h-.8v.7Z" class="g1"/>
<path d="M1076.2,153.8h86v-.7h-86v.7Z" class="g1"/>
<path d="M1162.1,153.8h.8v-.7h-.8v.7Z" class="g1"/>
<path d="M1162.9,153.8h75.3v-.7h-75.3v.7Z" class="g1"/>
<path d="M1238.2,153.8h.8v-.7h-.8v.7Z" class="g1"/>
<path d="M1238.2,153.8h.8v-.7h-.8v.7Z" class="g1"/>
<path d="M47.1,175.4h.7V153.8h-.7v21.6Z" class="g1"/>
<path d="M144.3,175.4h.7V153.8h-.7v21.6Z" class="g1"/>
<path d="M285.1,175.4h.7V153.8h-.7v21.6Z" class="g1"/>
<path d="M1075.4,175.4h.8V153.8h-.8v21.6Z" class="g1"/>
<path d="M1162.1,175.4h.8V153.8h-.8v21.6Z" class="g1"/>
<path d="M1238.2,175.4h.8V153.8h-.8v21.6Z" class="g1"/>
<path d="M47.1,176.2h.7v-.8h-.7v.8Z" class="g1"/>
<path d="M47.8,176.2h96.5v-.8H47.8v.8Z" class="g1"/>
<path d="M144.3,176.2h.7v-.8h-.7v.8Z" class="g1"/>
<path d="M145,176.2H285.1v-.8H145v.8Z" class="g1"/>
<path d="M285.1,176.2h.7v-.8h-.7v.8Z" class="g1"/>
<path d="M285.8,176.2h789.6v-.8H285.8v.8Z" class="g1"/>
<path d="M1075.4,176.2h.8v-.8h-.8v.8Z" class="g1"/>
<path d="M1076.2,176.2h86v-.8h-86v.8Z" class="g1"/>
<path d="M1162.1,176.2h.8v-.8h-.8v.8Z" class="g1"/>
<path d="M1162.9,176.2h75.3v-.8h-75.3v.8Z" class="g1"/>
<path d="M1238.2,176.2h.8v-.8h-.8v.8Z" class="g1"/>
<path d="M47.1,202h.7V176.2h-.7V202Z" class="g1"/>
<path d="M144.3,202h.7V176.2h-.7V202Z" class="g1"/>
<path d="M285.1,202h.7V176.2h-.7V202Z" class="g1"/>
<path d="M1075.4,202h.8V176.2h-.8V202Z" class="g1"/>
<path d="M1162.1,202h.8V176.2h-.8V202Z" class="g1"/>
<path d="M1238.2,202h.8V176.2h-.8V202Z" class="g1"/>
<path d="M47.1,202.8h.7V202h-.7v.8Z" class="g1"/>
<path d="M144.3,202.8h.7V202h-.7v.8Z" class="g1"/>
<path d="M285.1,202.8h.7V202h-.7v.8Z" class="g1"/>
<path d="M1075.4,202.8h.8V202h-.8v.8Z" class="g1"/>
<path d="M1076.2,202.8h86V202h-86v.8Z" class="g1"/>
<path d="M1162.1,202.8h.8V202h-.8v.8Z" class="g1"/>
<path d="M1162.9,202.8h75.3V202h-75.3v.8Z" class="g1"/>
<path d="M1238.2,202.8h.8V202h-.8v.8Z" class="g1"/>
<path d="M47.1,228.6h.7V202.8h-.7v25.8Z" class="g1"/>
<path d="M144.3,228.6h.7V202.8h-.7v25.8Z" class="g1"/>
<path d="M285.1,228.6h.7V202.8h-.7v25.8Z" class="g1"/>
<path d="M1075.4,228.6h.8V202.8h-.8v25.8Z" class="g1"/>
<path d="M1162.1,228.6h.8V202.8h-.8v25.8Z" class="g1"/>
<path d="M1238.2,228.6h.8V202.8h-.8v25.8Z" class="g1"/>
<path d="M47.1,229.3h.7v-.7h-.7v.7Z" class="g1"/>
<path d="M47.8,229.3h96.5v-.7H47.8v.7Z" class="g1"/>
<path d="M144.3,229.3h.7v-.7h-.7v.7Z" class="g1"/>
<path d="M145,229.3H285.1v-.7H145v.7Z" class="g1"/>
<path d="M285.1,229.3h.7v-.7h-.7v.7Z" class="g1"/>
<path d="M285.8,229.3h789.6v-.7H285.8v.7Z" class="g1"/>
<path d="M1075.4,229.3h.8v-.7h-.8v.7Z" class="g1"/>
<path d="M1076.2,229.3h86v-.7h-86v.7Z" class="g1"/>
<path d="M1162.1,229.3h.8v-.7h-.8v.7Z" class="g1"/>
<path d="M1162.9,229.3h75.3v-.7h-75.3v.7Z" class="g1"/>
<path d="M1238.2,229.3h.8v-.7h-.8v.7Z" class="g1"/>
<path d="M47.1,255.2h.7V229.3h-.7v25.9Z" class="g1"/>
<path d="M144.3,255.2h.7V229.3h-.7v25.9Z" class="g1"/>
<path d="M285.1,255.2h.7V229.3h-.7v25.9Z" class="g1"/>
<path d="M1075.4,255.2h.8V229.3h-.8v25.9Z" class="g1"/>
<path d="M1162.1,255.2h.8V229.3h-.8v25.9Z" class="g1"/>
<path d="M1238.2,255.2h.8V229.3h-.8v25.9Z" class="g1"/>
<path d="M47.1,255.9h.7v-.7h-.7v.7Z" class="g1"/>
<path d="M144.3,255.9h.7v-.7h-.7v.7Z" class="g1"/>
<path d="M285.1,255.9h.7v-.7h-.7v.7Z" class="g1"/>
<path d="M1075.4,255.9h.8v-.7h-.8v.7Z" class="g1"/>
<path d="M1076.2,255.9h86v-.7h-86v.7Z" class="g1"/>
<path d="M1162.1,255.9h.8v-.7h-.8v.7Z" class="g1"/>
<path d="M1162.9,255.9h75.3v-.7h-75.3v.7Z" class="g1"/>
<path d="M1238.2,255.9h.8v-.7h-.8v.7Z" class="g1"/>
<path d="M47.1,281.8h.7V255.9h-.7v25.9Z" class="g1"/>
<path d="M144.3,281.8h.7V255.9h-.7v25.9Z" class="g1"/>
<path d="M285.1,281.8h.7V255.9h-.7v25.9Z" class="g1"/>
<path d="M1075.4,281.8h.8V255.9h-.8v25.9Z" class="g1"/>
<path d="M1162.1,281.8h.8V255.9h-.8v25.9Z" class="g1"/>
<path d="M1238.2,281.8h.8V255.9h-.8v25.9Z" class="g1"/>
<path d="M47.1,282.5h.7v-.7h-.7v.7Z" class="g1"/>
<path d="M47.8,282.5h96.5v-.7H47.8v.7Z" class="g1"/>
<path d="M144.3,282.5h.7v-.7h-.7v.7Z" class="g1"/>
<path d="M145,282.5H285.1v-.7H145v.7Z" class="g1"/>
<path d="M285.1,282.5h.7v-.7h-.7v.7Z" class="g1"/>
<path d="M285.8,282.5h789.6v-.7H285.8v.7Z" class="g1"/>
<path d="M1075.4,282.5h.8v-.7h-.8v.7Z" class="g1"/>
<path d="M1076.2,282.5h86v-.7h-86v.7Z" class="g1"/>
<path d="M1162.1,282.5h.8v-.7h-.8v.7Z" class="g1"/>
<path d="M1162.9,282.5h75.3v-.7h-75.3v.7Z" class="g1"/>
<path d="M1238.2,282.5h.8v-.7h-.8v.7Z" class="g1"/>
<path d="M47.1,308.4h.7V282.5h-.7v25.9Z" class="g1"/>
<path d="M144.3,308.4h.7V282.5h-.7v25.9Z" class="g1"/>
<path d="M285.1,308.4h.7V282.5h-.7v25.9Z" class="g1"/>
<path d="M1075.4,308.4h.8V282.5h-.8v25.9Z" class="g1"/>
<path d="M1162.1,308.4h.8V282.5h-.8v25.9Z" class="g1"/>
<path d="M1238.2,308.4h.8V282.5h-.8v25.9Z" class="g1"/>
<path d="M47.1,309.1h.7v-.7h-.7v.7Z" class="g1"/>
<path d="M144.3,309.1h.7v-.7h-.7v.7Z" class="g1"/>
<path d="M285.1,309.1h.7v-.7h-.7v.7Z" class="g1"/>
<path d="M1075.4,309.1h.8v-.7h-.8v.7Z" class="g1"/>
<path d="M1076.2,309.1h86v-.7h-86v.7Z" class="g1"/>
<path d="M1162.1,309.1h.8v-.7h-.8v.7Z" class="g1"/>
<path d="M1162.9,309.1h75.3v-.7h-75.3v.7Z" class="g1"/>
<path d="M1238.2,309.1h.8v-.7h-.8v.7Z" class="g1"/>
<path d="M47.1,335h.7V309.1h-.7V335Z" class="g1"/>
<path d="M144.3,335h.7V309.1h-.7V335Z" class="g1"/>
<path d="M285.1,335h.7V309.1h-.7V335Z" class="g1"/>
<path d="M1075.4,335h.8V309.1h-.8V335Z" class="g1"/>
<path d="M1162.1,335h.8V309.1h-.8V335Z" class="g1"/>
<path d="M1238.2,335h.8V309.1h-.8V335Z" class="g1"/>
<path d="M47.1,335.7h.7v-.8h-.7v.8Z" class="g1"/>
<path d="M144.3,335.7h.7v-.8h-.7v.8Z" class="g1"/>
<path d="M285.1,335.7h.7v-.8h-.7v.8Z" class="g1"/>
<path d="M1075.4,335.7h.8v-.8h-.8v.8Z" class="g1"/>
<path d="M1076.2,335.7h86v-.8h-86v.8Z" class="g1"/>
<path d="M1162.1,335.7h.8v-.8h-.8v.8Z" class="g1"/>
<path d="M1162.9,335.7h75.3v-.8h-75.3v.8Z" class="g1"/>
<path d="M1238.2,335.7h.8v-.8h-.8v.8Z" class="g1"/>
<path d="M47.1,361.5h.7V335.7h-.7v25.8Z" class="g1"/>
<path d="M144.3,361.5h.7V335.7h-.7v25.8Z" class="g1"/>
<path d="M285.1,361.5h.7V335.7h-.7v25.8Z" class="g1"/>
<path d="M1075.4,361.5h.8V335.7h-.8v25.8Z" class="g1"/>
<path d="M1162.1,361.5h.8V335.7h-.8v25.8Z" class="g1"/>
<path d="M1238.2,361.5h.8V335.7h-.8v25.8Z" class="g1"/>
<path d="M47.1,362.3h.7v-.8h-.7v.8Z" class="g1"/>
<path d="M47.8,362.3h96.5v-.8H47.8v.8Z" class="g1"/>
<path d="M144.3,362.3h.7v-.8h-.7v.8Z" class="g1"/>
<path d="M145,362.3H285.1v-.8H145v.8Z" class="g1"/>
<path d="M285.1,362.3h.7v-.8h-.7v.8Z" class="g1"/>
<path d="M285.8,362.3h789.6v-.8H285.8v.8Z" class="g1"/>
<path d="M1075.4,362.3h.8v-.8h-.8v.8Z" class="g1"/>
<path d="M1076.2,362.3h86v-.8h-86v.8Z" class="g1"/>
<path d="M1162.1,362.3h.8v-.8h-.8v.8Z" class="g1"/>
<path d="M1162.9,362.3h75.3v-.8h-75.3v.8Z" class="g1"/>
<path d="M1238.2,362.3h.8v-.8h-.8v.8Z" class="g1"/>
<path d="M47.1,388.1h.7V362.3h-.7v25.8Z" class="g1"/>
<path d="M144.3,388.1h.7V362.3h-.7v25.8Z" class="g1"/>
<path d="M285.1,388.1h.7V362.3h-.7v25.8Z" class="g1"/>
<path d="M1075.4,388.1h.8V362.3h-.8v25.8Z" class="g1"/>
<path d="M1162.1,388.1h.8V362.3h-.8v25.8Z" class="g1"/>
<path d="M1238.2,388.1h.8V362.3h-.8v25.8Z" class="g1"/>
<path d="M47.1,388.9h.7v-.8h-.7v.8Z" class="g1"/>
<path d="M144.3,388.9h.7v-.8h-.7v.8Z" class="g1"/>
<path d="M285.1,388.9h.7v-.8h-.7v.8Z" class="g1"/>
<path d="M1075.4,388.9h.8v-.8h-.8v.8Z" class="g1"/>
<path d="M1076.2,388.9h86v-.8h-86v.8Z" class="g1"/>
<path d="M1162.1,388.9h.8v-.8h-.8v.8Z" class="g1"/>
<path d="M1162.9,388.9h75.3v-.8h-75.3v.8Z" class="g1"/>
<path d="M1238.2,388.9h.8v-.8h-.8v.8Z" class="g1"/>
<path d="M47.1,414.7h.7V388.8h-.7v25.9Z" class="g1"/>
<path d="M144.3,414.7h.7V388.8h-.7v25.9Z" class="g1"/>
<path d="M285.1,414.7h.7V388.8h-.7v25.9Z" class="g1"/>
<path d="M1075.4,414.7h.8V388.8h-.8v25.9Z" class="g1"/>
<path d="M1162.1,414.7h.8V388.8h-.8v25.9Z" class="g1"/>
<path d="M1238.2,414.7h.8V388.8h-.8v25.9Z" class="g1"/>
<path d="M47.1,415.4h.7v-.7h-.7v.7Z" class="g1"/>
<path d="M144.3,415.4h.7v-.7h-.7v.7Z" class="g1"/>
<path d="M285.1,415.4h.7v-.7h-.7v.7Z" class="g1"/>
<path d="M1075.4,415.4h.8v-.7h-.8v.7Z" class="g1"/>
<path d="M1076.2,415.4h86v-.7h-86v.7Z" class="g1"/>
<path d="M1162.1,415.4h.8v-.7h-.8v.7Z" class="g1"/>
<path d="M1162.9,415.4h75.3v-.7h-75.3v.7Z" class="g1"/>
<path d="M1238.2,415.4h.8v-.7h-.8v.7Z" class="g1"/>
<path d="M47.1,441.3h.7V415.4h-.7v25.9Z" class="g1"/>
<path d="M144.3,441.3h.7V415.4h-.7v25.9Z" class="g1"/>
<path d="M285.1,441.3h.7V415.4h-.7v25.9Z" class="g1"/>
<path d="M1075.4,441.3h.8V415.4h-.8v25.9Z" class="g1"/>
<path d="M1162.1,441.3h.8V415.4h-.8v25.9Z" class="g1"/>
<path d="M1238.2,441.3h.8V415.4h-.8v25.9Z" class="g1"/>
<path d="M47.1,442h.7v-.7h-.7v.7Z" class="g1"/>
<path d="M47.8,442h96.5v-.7H47.8v.7Z" class="g1"/>
<path d="M144.3,442h.7v-.7h-.7v.7Z" class="g1"/>
<path d="M145,442H285.1v-.7H145v.7Z" class="g1"/>
<path d="M285.1,442h.7v-.7h-.7v.7Z" class="g1"/>
<path d="M285.8,442h789.6v-.7H285.8v.7Z" class="g1"/>
<path d="M1075.4,442h.8v-.7h-.8v.7Z" class="g1"/>
<path d="M1076.2,442h86v-.7h-86v.7Z" class="g1"/>
<path d="M1162.1,442h.8v-.7h-.8v.7Z" class="g1"/>
<path d="M1162.9,442h75.3v-.7h-75.3v.7Z" class="g1"/>
<path d="M1238.2,442h.8v-.7h-.8v.7Z" class="g1"/>
<path d="M47.1,467.9h.7V442h-.7v25.9Z" class="g1"/>
<path d="M144.3,467.9h.7V442h-.7v25.9Z" class="g1"/>
<path d="M285.1,467.9h.7V442h-.7v25.9Z" class="g1"/>
<path d="M1075.4,467.9h.8V442h-.8v25.9Z" class="g1"/>
<path d="M1162.1,467.9h.8V442h-.8v25.9Z" class="g1"/>
<path d="M1238.2,467.9h.8V442h-.8v25.9Z" class="g1"/>
<path d="M47.1,468.6h.7v-.7h-.7v.7Z" class="g1"/>
<path d="M144.3,468.6h.7v-.7h-.7v.7Z" class="g1"/>
<path d="M285.1,468.6h.7v-.7h-.7v.7Z" class="g1"/>
<path d="M1075.4,468.6h.8v-.7h-.8v.7Z" class="g1"/>
<path d="M1076.2,468.6h86v-.7h-86v.7Z" class="g1"/>
<path d="M1162.1,468.6h.8v-.7h-.8v.7Z" class="g1"/>
<path d="M1162.9,468.6h75.3v-.7h-75.3v.7Z" class="g1"/>
<path d="M1238.2,468.6h.8v-.7h-.8v.7Z" class="g1"/>
<path d="M47.1,494.5h.7V468.6h-.7v25.9Z" class="g1"/>
<path d="M144.3,494.5h.7V468.6h-.7v25.9Z" class="g1"/>
<path d="M285.1,494.5h.7V468.6h-.7v25.9Z" class="g1"/>
<path d="M1075.4,494.5h.8V468.6h-.8v25.9Z" class="g1"/>
<path d="M1162.1,494.5h.8V468.6h-.8v25.9Z" class="g1"/>
<path d="M1238.2,494.5h.8V468.6h-.8v25.9Z" class="g1"/>
<path d="M47.1,495.2h.7v-.8h-.7v.8Z" class="g1"/>
<path d="M144.3,495.2h.7v-.8h-.7v.8Z" class="g1"/>
<path d="M285.1,495.2h.7v-.8h-.7v.8Z" class="g1"/>
<path d="M1075.4,495.2h.8v-.8h-.8v.8Z" class="g1"/>
<path d="M1076.2,495.2h86v-.8h-86v.8Z" class="g1"/>
<path d="M1162.1,495.2h.8v-.8h-.8v.8Z" class="g1"/>
<path d="M1162.9,495.2h75.3v-.8h-75.3v.8Z" class="g1"/>
<path d="M1238.2,495.2h.8v-.8h-.8v.8Z" class="g1"/>
<path d="M47.1,521h.7V495.2h-.7V521Z" class="g1"/>
<path d="M144.3,521h.7V495.2h-.7V521Z" class="g1"/>
<path d="M285.1,521h.7V495.2h-.7V521Z" class="g1"/>
<path d="M1075.4,521h.8V495.2h-.8V521Z" class="g1"/>
<path d="M1162.1,521h.8V495.2h-.8V521Z" class="g1"/>
<path d="M1238.2,521h.8V495.2h-.8V521Z" class="g1"/>
<path d="M47.1,521.8h.7V521h-.7v.8Z" class="g1"/>
<path d="M47.8,521.8h96.5V521H47.8v.8Z" class="g1"/>
<path d="M144.3,521.8h.7V521h-.7v.8Z" class="g1"/>
<path d="M145,521.8H285.1V521H145v.8Z" class="g1"/>
<path d="M285.1,521.8h.7V521h-.7v.8Z" class="g1"/>
<path d="M285.8,521.8h789.6V521H285.8v.8Z" class="g1"/>
<path d="M1075.4,521.8h.8V521h-.8v.8Z" class="g1"/>
<path d="M1076.2,521.8h86V521h-86v.8Z" class="g1"/>
<path d="M1162.1,521.8h.8V521h-.8v.8Z" class="g1"/>
<path d="M1162.9,521.8h75.3V521h-75.3v.8Z" class="g1"/>
<path d="M1238.2,521.8h.8V521h-.8v.8Z" class="g1"/>
<path d="M47.1,547.6h.7V521.8h-.7v25.8Z" class="g1"/>
<path d="M144.3,547.6h.7V521.8h-.7v25.8Z" class="g1"/>
<path d="M285.1,547.6h.7V521.8h-.7v25.8Z" class="g1"/>
<path d="M1075.4,547.6h.8V521.8h-.8v25.8Z" class="g1"/>
<path d="M1162.1,547.6h.8V521.8h-.8v25.8Z" class="g1"/>
<path d="M1238.2,547.6h.8V521.8h-.8v25.8Z" class="g1"/>
<path d="M47.1,548.4h.7v-.8h-.7v.8Z" class="g1"/>
<path d="M144.3,548.4h.7v-.8h-.7v.8Z" class="g1"/>
<path d="M285.1,548.4h.7v-.8h-.7v.8Z" class="g1"/>
<path d="M1075.4,548.4h.8v-.8h-.8v.8Z" class="g1"/>
<path d="M1076.2,548.4h86v-.8h-86v.8Z" class="g1"/>
<path d="M1162.1,548.4h.8v-.8h-.8v.8Z" class="g1"/>
<path d="M1162.9,548.4h75.3v-.8h-75.3v.8Z" class="g1"/>
<path d="M1238.2,548.4h.8v-.8h-.8v.8Z" class="g1"/>
<path d="M47.1,574.2h.7V548.4h-.7v25.8Z" class="g1"/>
<path d="M144.3,574.2h.7V548.4h-.7v25.8Z" class="g1"/>
<path d="M285.1,574.2h.7V548.4h-.7v25.8Z" class="g1"/>
<path d="M1075.4,574.2h.8V548.4h-.8v25.8Z" class="g1"/>
<path d="M1162.1,574.2h.8V548.4h-.8v25.8Z" class="g1"/>
<path d="M1238.2,574.2h.8V548.4h-.8v25.8Z" class="g1"/>
<path d="M47.1,574.9h.7v-.7h-.7v.7Z" class="g1"/>
<path d="M144.3,574.9h.7v-.7h-.7v.7Z" class="g1"/>
<path d="M285.1,574.9h.7v-.7h-.7v.7Z" class="g1"/>
<path d="M1075.4,574.9h.8v-.7h-.8v.7Z" class="g1"/>
<path d="M1076.2,574.9h86v-.7h-86v.7Z" class="g1"/>
<path d="M1162.1,574.9h.8v-.7h-.8v.7Z" class="g1"/>
<path d="M1162.9,574.9h75.3v-.7h-75.3v.7Z" class="g1"/>
<path d="M1238.2,574.9h.8v-.7h-.8v.7Z" class="g1"/>
<path d="M47.1,600.8h.7V574.9h-.7v25.9Z" class="g1"/>
<path d="M144.3,600.8h.7V574.9h-.7v25.9Z" class="g1"/>
<path d="M285.1,600.8h.7V574.9h-.7v25.9Z" class="g1"/>
<path d="M1075.4,600.8h.8V574.9h-.8v25.9Z" class="g1"/>
<path d="M1162.1,600.8h.8V574.9h-.8v25.9Z" class="g1"/>
<path d="M1238.2,600.8h.8V574.9h-.8v25.9Z" class="g1"/>
<path d="M47.1,601.5h.7v-.7h-.7v.7Z" class="g1"/>
<path d="M47.8,601.5h96.5v-.7H47.8v.7Z" class="g1"/>
<path d="M144.3,601.5h.7v-.7h-.7v.7Z" class="g1"/>
<path d="M145,601.5H285.1v-.7H145v.7Z" class="g1"/>
<path d="M285.1,601.5h.7v-.7h-.7v.7Z" class="g1"/>
<path d="M285.8,601.5h789.6v-.7H285.8v.7Z" class="g1"/>
<path d="M1075.4,601.5h.8v-.7h-.8v.7Z" class="g1"/>
<path d="M1076.2,601.5h86v-.7h-86v.7Z" class="g1"/>
<path d="M1162.1,601.5h.8v-.7h-.8v.7Z" class="g1"/>
<path d="M1162.9,601.5h75.3v-.7h-75.3v.7Z" class="g1"/>
<path d="M1238.2,601.5h.8v-.7h-.8v.7Z" class="g1"/>
<path d="M47.1,627.4h.7V601.5h-.7v25.9Z" class="g1"/>
<path d="M144.3,627.4h.7V601.5h-.7v25.9Z" class="g1"/>
<path d="M285.1,627.4h.7V601.5h-.7v25.9Z" class="g1"/>
<path d="M1075.4,627.4h.8V601.5h-.8v25.9Z" class="g1"/>
<path d="M1162.1,627.4h.8V601.5h-.8v25.9Z" class="g1"/>
<path d="M1238.2,627.4h.8V601.5h-.8v25.9Z" class="g1"/>
<path d="M47.1,628.1h.7v-.7h-.7v.7Z" class="g1"/>
<path d="M144.3,628.1h.7v-.7h-.7v.7Z" class="g1"/>
<path d="M285.1,628.1h.7v-.7h-.7v.7Z" class="g1"/>
<path d="M1075.4,628.1h.8v-.7h-.8v.7Z" class="g1"/>
<path d="M1076.2,628.1h86v-.7h-86v.7Z" class="g1"/>
<path d="M1162.1,628.1h.8v-.7h-.8v.7Z" class="g1"/>
<path d="M1162.9,628.1h75.3v-.7h-75.3v.7Z" class="g1"/>
<path d="M1238.2,628.1h.8v-.7h-.8v.7Z" class="g1"/>
<path d="M47.1,654.1h.7v-26h-.7v26Z" class="g1"/>
<path d="M47.1,654.9h.7v-.8h-.7v.8Z" class="g1"/>
<path d="M47.1,654.9h.7v-.8h-.7v.8Z" class="g1"/>
<path d="M47.8,654.9h96.5v-.8H47.8v.8Z" class="g1"/>
<path d="M144.3,654.1h.7v-26h-.7v26Z" class="g1"/>
<path d="M144.3,654.9h.7v-.8h-.7v.8Z" class="g1"/>
<path d="M145,654.9H285.1v-.8H145v.8Z" class="g1"/>
<path d="M285.1,654.1h.7v-26h-.7v26Z" class="g1"/>
<path d="M285.1,654.9h.7v-.8h-.7v.8Z" class="g1"/>
<path d="M285.8,654.9h789.6v-.8H285.8v.8Z" class="g1"/>
<path d="M1075.4,654.1h.8v-26h-.8v26Z" class="g1"/>
<path d="M1075.4,654.9h.8v-.8h-.8v.8Z" class="g1"/>
<path d="M1076.2,654.9h86v-.8h-86v.8Z" class="g1"/>
<path d="M1162.1,654.1h.8v-26h-.8v26Z" class="g1"/>
<path d="M1162.1,654.9h.8v-.8h-.8v.8Z" class="g1"/>
<path d="M1162.9,654.9h75.3v-.8h-75.3v.8Z" class="g1"/>
<path d="M1238.2,654.1h.8v-26h-.8v26Z" class="g1"/>
<path d="M1238.2,654.9h.8v-.8h-.8v.8Z" class="g1"/>
<path d="M1238.2,654.9h.8v-.8h-.8v.8Z" class="g1"/>
</svg>