<?xml version="1.0" encoding="UTF-8" standalone="no"?>
<!DOCTYPE svg PUBLIC "-//W3C//DTD SVG 1.1//EN"
"http://www.w3.org/Graphics/SVG/1.1/DTD/svg11.dtd">
<svg viewBox="0 0 1286 909" version="1.1" xmlns="http://www.w3.org/2000/svg" xmlns:xlink="http://www.w3.org/1999/xlink">
<defs>
<style type="text/css"><![CDATA[
.g0{
fill: #D9D9D9;
}
.g1{
}
]]></style>
</defs>
<path fill-rule="evenodd" d="M47.8,306H209.2V288.4H47.8V306Z" class="g0"/>
<path d="M55.7,306H201.5V288.4H55.7V306Z" class="g0"/>
<path fill-rule="evenodd" d="M210.1,306H1238.2V288.4H210.1V306Z" class="g0"/>
<path d="M218,306H1230.4V288.4H218V306Z" class="g0"/>
<path d="M47.1,288.4h.7v-.8h-.7v.8Z" class="g1"/>
<path d="M47.1,288.4h.7v-.8h-.7v.8Z" class="g1"/>
<path d="M47.8,288.4H209.2v-.8H47.8v.8Z" class="g1"/>
<path d="M209.2,288.4h.7v-.8h-.7v.8Z" class="g1"/>
<path d="M209.9,288.4H1238.2v-.8H209.9v.8Z" class="g1"/>
<path d="M1238.2,288.4h.8v-.8h-.8v.8Z" class="g1"/>
<path d="M1238.2,288.4h.8v-.8h-.8v.8Z" class="g1"/>
<path d="M47.1,306h.7V288.4h-.7V306Z" class="g1"/>
<path d="M209.2,306h.7V288.4h-.7V306Z" class="g1"/>
<path d="M1238.2,306h.8V288.4h-.8V306Z" class="g1"/>
<path d="M47.1,306.7h.7V306h-.7v.7Z" class="g1"/>
<path d="M47.8,306.7H209.2V306H47.8v.7Z" class="g1"/>
<path d="M209.2,306.7h.7V306h-.7v.7Z" class="g1"/>
<path d="M209.9,306.7H1238.2V306H209.9v.7Z" class="g1"/>
<path d="M1238.2,306.7h.8V306h-.8v.7Z" class="g1"/>
<path d="M47.1,324.3h.7V306.7h-.7v17.6Z" class="g1"/>
<path d="M209.2,324.3h.7V306.7h-.7v17.6Z" class="g1"/>
<path d="M1238.2,324.3h.8V306.7h-.8v17.6Z" class="g1"/>
<path d="M47.1,325.1h.7v-.8h-.7v.8Z" class="g1"/>
<path d="M47.8,325.1H209.2v-.8H47.8v.8Z" class="g1"/>
<path d="M209.2,325.1h.7v-.8h-.7v.8Z" class="g1"/>
<path d="M209.9,325.1H1238.2v-.8H209.9v.8Z" class="g1"/>
<path d="M1238.2,325.1h.8v-.8h-.8v.8Z" class="g1"/>
<path d="M47.1,342.7h.7V325.1h-.7v17.6Z" class="g1"/>
<path d="M209.2,342.7h.7V325.1h-.7v17.6Z" class="g1"/>
<path d="M1238.2,342.7h.8V325.1h-.8v17.6Z" class="g1"/>
<path d="M47.1,343.4h.7v-.8h-.7v.8Z" class="g1"/>
<path d="M47.8,343.4H209.2v-.8H47.8v.8Z" class="g1"/>
<path d="M209.2,343.4h.7v-.8h-.7v.8Z" class="g1"/>
<path d="M209.9,343.4H1238.2v-.8H209.9v.8Z" class="g1"/>
<path d="M1238.2,343.4h.8v-.8h-.8v.8Z" class="g1"/>
<path d="M47.1,361h.7V343.4h-.7V361Z" class="g1"/>
<path d="M209.2,361h.7V343.4h-.7V361Z" class="g1"/>
<path d="M1238.2,361h.8V343.4h-.8V361Z" class="g1"/>
<path d="M47.1,361.7h.7V361h-.7v.7Z" class="g1"/>
<path d="M47.8,361.7H209.2V361H47.8v.7Z" class="g1"/>
<path d="M209.2,361.7h.7V361h-.7v.7Z" class="g1"/>
<path d="M209.9,361.7H1238.2V361H209.9v.7Z" class="g1"/>
<path d="M1238.2,361.7h.8V361h-.8v.7Z" class="g1"/>
<path d="M47.1,379.3h.7V361.7h-.7v17.6Z" class="g1"/>
<path d="M47.1,380.1h.7v-.8h-.7v.8Z" class="g1"/>
<path d="M47.1,380.1h.7v-.8h-.7v.8Z" class="g1"/>
<path d="M47.8,380.1H209.2v-.8H47.8v.8Z" class="g1"/>
<path d="M209.2,379.3h.7V361.7h-.7v17.6Z" class="g1"/>
<path d="M209.2,380.1h.7v-.8h-.7v.8Z" class="g1"/>
<path d="M209.9,380.1H1238.2v-.8H209.9v.8Z" class="g1"/>
<path d="M1238.2,379.3h.8V361.7h-.8v17.6Z" class="g1"/>
<path d="M1238.2,380.1h.8v-.8h-.8v.8Z" class="g1"/>
<path d="M1238.2,380.1h.8v-.8h-.8v.8Z" class="g1"/>
<path fill-rule="evenodd" d="M47.8,412.5H209.2V394.9H47.8v17.6Z" class="g0"/>
<path d="M55.7,412.5H201.5V394.9H55.7v17.6Z" class="g0"/>
<path fill-rule="evenodd" d="M210.1,412.5h194V394.9h-194v17.6Z" class="g0"/>
<path d="M218,412.5H396.2V394.9H218v17.6Z" class="g0"/>
<path fill-rule="evenodd" d="M405,412.5h757.1V394.9H405v17.6Z" class="g0"/>
<path d="M412.7,412.5h741.6V394.9H412.7v17.6Z" class="g0"/>
<path fill-rule="evenodd" d="M1162.9,412.5h75.3V394.9h-75.3v17.6Z" class="g0"/>
<path d="M1170.8,412.5h59.6V394.9h-59.6v17.6Z" class="g0"/>
<path d="M47.1,394.9h.7v-.7h-.7v.7Z" class="g1"/>
<path d="M47.1,394.9h.7v-.7h-.7v.7Z" class="g1"/>
<path d="M47.8,394.9H209.2v-.7H47.8v.7Z" class="g1"/>
<path d="M209.2,394.9h.7v-.7h-.7v.7Z" class="g1"/>
<path d="M209.9,394.9H404.1v-.7H209.9v.7Z" class="g1"/>
<path d="M404.1,394.9h.7v-.7h-.7v.7Z" class="g1"/>
<path d="M404.8,394.9h757.3v-.7H404.8v.7Z" class="g1"/>
<path d="M1162.1,394.9h.8v-.7h-.8v.7Z" class="g1"/>
<path d="M1162.9,394.9h75.3v-.7h-75.3v.7Z" class="g1"/>
<path d="M1238.2,394.9h.8v-.7h-.8v.7Z" class="g1"/>
<path d="M1238.2,394.9h.8v-.7h-.8v.7Z" class="g1"/>
<path d="M47.1,412.5h.7V394.9h-.7v17.6Z" class="g1"/>
<path d="M209.2,412.5h.7V394.9h-.7v17.6Z" class="g1"/>
<path d="M404.1,412.5h.7V394.9h-.7v17.6Z" class="g1"/>
<path d="M1162.1,412.5h.8V394.9h-.8v17.6Z" class="g1"/>
<path d="M1238.2,412.5h.8V394.9h-.8v17.6Z" class="g1"/>
<path d="M47.1,413.2h.7v-.7h-.7v.7Z" class="g1"/>
<path d="M47.8,413.2H209.2v-.7H47.8v.7Z" class="g1"/>
<path d="M209.2,413.2h.7v-.7h-.7v.7Z" class="g1"/>
<path d="M209.9,413.2H404.1v-.7H209.9v.7Z" class="g1"/>
<path d="M404.1,413.2h.7v-.7h-.7v.7Z" class="g1"/>
<path d="M404.8,413.2h757.3v-.7H404.8v.7Z" class="g1"/>
<path d="M1162.1,413.2h.8v-.7h-.8v.7Z" class="g1"/>
<path d="M1162.9,413.2h75.3v-.7h-75.3v.7Z" class="g1"/>
<path d="M1238.2,413.2h.8v-.7h-.8v.7Z" class="g1"/>
<path d="M47.1,430.8h.7V413.2h-.7v17.6Z" class="g1"/>
<path d="M209.2,430.8h.7V413.2h-.7v17.6Z" class="g1"/>
<path d="M404.1,430.8h.7V413.2h-.7v17.6Z" class="g1"/>
<path d="M1162.1,430.8h.8V413.2h-.8v17.6Z" class="g1"/>
<path d="M1238.2,430.8h.8V413.2h-.8v17.6Z" class="g1"/>
<path d="M47.1,431.6h.7v-.8h-.7v.8Z" class="g1"/>
<path d="M47.8,431.6H209.2v-.8H47.8v.8Z" class="g1"/>
<path d="M209.2,431.6h.7v-.8h-.7v.8Z" class="g1"/>
<path d="M209.9,431.6H404.1v-.8H209.9v.8Z" class="g1"/>
<path d="M404.1,431.6h.7v-.8h-.7v.8Z" class="g1"/>
<path d="M404.8,431.6h757.3v-.8H404.8v.8Z" class="g1"/>
<path d="M1162.1,431.6h.8v-.8h-.8v.8Z" class="g1"/>
<path d="M1162.9,431.6h75.3v-.8h-75.3v.8Z" class="g1"/>
<path d="M1238.2,431.6h.8v-.8h-.8v.8Z" class="g1"/>
<path d="M47.1,449.2h.7V431.6h-.7v17.6Z" class="g1"/>
<path d="M209.2,449.2h.7V431.6h-.7v17.6Z" class="g1"/>
<path d="M404.1,449.2h.7V431.6h-.7v17.6Z" class="g1"/>
<path d="M1162.1,449.2h.8V431.6h-.8v17.6Z" class="g1"/>
<path d="M1238.2,449.2h.8V431.6h-.8v17.6Z" class="g1"/>
<path d="M47.1,449.9h.7v-.7h-.7v.7Z" class="g1"/>
<path d="M47.8,449.9H209.2v-.7H47.8v.7Z" class="g1"/>
<path d="M209.2,449.9h.7v-.7h-.7v.7Z" class="g1"/>
<path d="M209.9,449.9H404.1v-.7H209.9v.7Z" class="g1"/>
<path d="M404.1,449.9h.7v-.7h-.7v.7Z" class="g1"/>
<path d="M404.8,449.9h757.3v-.7H404.8v.7Z" class="g1"/>
<path d="M1162.1,449.9h.8v-.7h-.8v.7Z" class="g1"/>
<path d="M1162.9,449.9h75.3v-.7h-75.3v.7Z" class="g1"/>
<path d="M1238.2,449.9h.8v-.7h-.8v.7Z" class="g1"/>
<path d="M47.1,467.5h.7V449.9h-.7v17.6Z" class="g1"/>
<path d="M47.1,468.2h.7v-.7h-.7v.7Z" class="g1"/>
<path d="M47.1,468.2h.7v-.7h-.7v.7Z" class="g1"/>
<path d="M47.8,468.2H209.2v-.7H47.8v.7Z" class="g1"/>
<path d="M209.2,467.5h.7V449.9h-.7v17.6Z" class="g1"/>
<path d="M209.2,468.2h.7v-.7h-.7v.7Z" class="g1"/>
<path d="M209.9,468.2H404.1v-.7H209.9v.7Z" class="g1"/>
<path d="M404.1,467.5h.7V449.9h-.7v17.6Z" class="g1"/>
<path d="M404.1,468.2h.7v-.7h-.7v.7Z" class="g1"/>
<path d="M404.8,468.2h757.3v-.7H404.8v.7Z" class="g1"/>
<path d="M1162.1,467.5h.8V449.9h-.8v17.6Z" class="g1"/>
<path d="M1162.1,468.2h.8v-.7h-.8v.7Z" class="g1"/>
<path d="M1162.9,468.2h75.3v-.7h-75.3v.7Z" class="g1"/>
<path d="M1238.2,467.5h.8V449.9h-.8v17.6Z" class="g1"/>
<path d="M1238.2,468.2h.8v-.7h-.8v.7Z" class="g1"/>
<path d="M1238.2,468.2h.8v-.7h-.8v.7Z" class="g1"/>
<path fill-rule="evenodd" d="M47.8,536.1H209.2V514.3H47.8v21.8Z" class="g0"/>
<path fill-rule="evenodd" d="M55.7,533.9H201.5V516.5H55.7v17.4Z" class="g0"/>
<path fill-rule="evenodd" d="M210.1,536.1h194V514.3h-194v21.8Z" class="g0"/>
<path fill-rule="evenodd" d="M218,533.9H396.2V516.5H218v17.4Z" class="g0"/>
<path fill-rule="evenodd" d="M405,536.1H609.8V514.3H405v21.8Z" class="g0"/>
<path fill-rule="evenodd" d="M412.7,533.9H602.1V516.5H412.7v17.4Z" class="g0"/>
<path fill-rule="evenodd" d="M610.7,536.1H728.9V514.3H610.7v21.8Z" class="g0"/>
<path fill-rule="evenodd" d="M618.6,533.9H721.2V516.5H618.6v17.4Z" class="g0"/>
<path fill-rule="evenodd" d="M729.9,536.1h508.3V514.3H729.9v21.8Z" class="g0"/>
<path fill-rule="evenodd" d="M737.7,533.9h492.7V516.5H737.7v17.4Z" class="g0"/>
<path d="M47.1,514.3h.7v-.8h-.7v.8Z" class="g1"/>
<path d="M47.1,514.3h.7v-.8h-.7v.8Z" class="g1"/>
<path d="M47.8,514.3H209.2v-.8H47.8v.8Z" class="g1"/>
<path d="M209.2,514.3h.7v-.8h-.7v.8Z" class="g1"/>
<path d="M209.9,514.3H404.1v-.8H209.9v.8Z" class="g1"/>
<path d="M404.1,514.3h.7v-.8h-.7v.8Z" class="g1"/>
<path d="M404.8,514.3h205v-.8h-205v.8Z" class="g1"/>
<path d="M609.8,514.3h.7v-.8h-.7v.8Z" class="g1"/>
<path d="M610.5,514.3H728.9v-.8H610.5v.8Z" class="g1"/>
<path d="M728.9,514.3h.8v-.8h-.8v.8Z" class="g1"/>
<path d="M729.7,514.3h508.5v-.8H729.7v.8Z" class="g1"/>
<path d="M1238.2,514.3h.8v-.8h-.8v.8Z" class="g1"/>
<path d="M1238.2,514.3h.8v-.8h-.8v.8Z" class="g1"/>
<path d="M47.1,536.1h.7V514.3h-.7v21.8Z" class="g1"/>
<path d="M209.2,536.1h.7V514.3h-.7v21.8Z" class="g1"/>
<path d="M404.1,536.1h.7V514.3h-.7v21.8Z" class="g1"/>
<path d="M609.8,536.1h.7V514.3h-.7v21.8Z" class="g1"/>
<path d="M728.9,536.1h.8V514.3h-.8v21.8Z" class="g1"/>
<path d="M1238.2,536.1h.8V514.3h-.8v21.8Z" class="g1"/>
<path d="M47.1,536.8h.7v-.7h-.7v.7Z" class="g1"/>
<path d="M47.8,536.8H209.2v-.7H47.8v.7Z" class="g1"/>
<path d="M209.2,536.8h.7v-.7h-.7v.7Z" class="g1"/>
<path d="M209.9,536.8H404.1v-.7H209.9v.7Z" class="g1"/>
<path d="M404.1,536.8h.7v-.7h-.7v.7Z" class="g1"/>
<path d="M404.8,536.8h205v-.7h-205v.7Z" class="g1"/>
<path d="M609.8,536.8h.7v-.7h-.7v.7Z" class="g1"/>
<path d="M610.5,536.8H728.9v-.7H610.5v.7Z" class="g1"/>
<path d="M728.9,536.8h.8v-.7h-.8v.7Z" class="g1"/>
<path d="M729.7,536.8h508.5v-.7H729.7v.7Z" class="g1"/>
<path d="M1238.2,536.8h.8v-.7h-.8v.7Z" class="g1"/>
<path d="M47.1,589.4h.7V536.8h-.7v52.6Z" class="g1"/>
<path d="M209.2,589.4h.7V536.8h-.7v52.6Z" class="g1"/>
<path d="M404.1,589.4h.7V536.8h-.7v52.6Z" class="g1"/>
<path d="M609.8,589.4h.7V536.8h-.7v52.6Z" class="g1"/>
<path d="M728.9,589.4h.8V536.8h-.8v52.6Z" class="g1"/>
<path d="M1238.2,589.4h.8V536.8h-.8v52.6Z" class="g1"/>
<path d="M47.1,590.2h.7v-.8h-.7v.8Z" class="g1"/>
<path d="M47.8,590.2H209.2v-.8H47.8v.8Z" class="g1"/>
<path d="M209.2,590.2h.7v-.8h-.7v.8Z" class="g1"/>
<path d="M209.9,590.2H404.1v-.8H209.9v.8Z" class="g1"/>
<path d="M404.1,590.2h.7v-.8h-.7v.8Z" class="g1"/>
<path d="M404.8,590.2h205v-.8h-205v.8Z" class="g1"/>
<path d="M609.8,590.2h.7v-.8h-.7v.8Z" class="g1"/>
<path d="M610.5,590.2H728.9v-.8H610.5v.8Z" class="g1"/>
<path d="M728.9,590.2h.8v-.8h-.8v.8Z" class="g1"/>
<path d="M729.7,590.2h508.5v-.8H729.7v.8Z" class="g1"/>
<path d="M1238.2,590.2h.8v-.8h-.8v.8Z" class="g1"/>
<path d="M47.1,643h.7V590.2h-.7V643Z" class="g1"/>
<path d="M209.2,643h.7V590.2h-.7V643Z" class="g1"/>
<path d="M404.1,643h.7V590.2h-.7V643Z" class="g1"/>
<path d="M609.8,643h.7V590.2h-.7V643Z" class="g1"/>
<path d="M728.9,643h.8V590.2h-.8V643Z" class="g1"/>
<path d="M1238.2,643h.8V590.2h-.8V643Z" class="g1"/>
<path d="M47.1,643.7h.7v-.8h-.7v.8Z" class="g1"/>
<path d="M47.8,643.7H209.2v-.8H47.8v.8Z" class="g1"/>
<path d="M209.2,643.7h.7v-.8h-.7v.8Z" class="g1"/>
<path d="M209.9,643.7H404.1v-.8H209.9v.8Z" class="g1"/>
<path d="M404.1,643.7h.7v-.8h-.7v.8Z" class="g1"/>
<path d="M404.8,643.7h205v-.8h-205v.8Z" class="g1"/>
<path d="M609.8,643.7h.7v-.8h-.7v.8Z" class="g1"/>
<path d="M610.5,643.7H728.9v-.8H610.5v.8Z" class="g1"/>
<path d="M728.9,643.7h.8v-.8h-.8v.8Z" class="g1"/>
<path d="M729.7,643.7h508.5v-.8H729.7v.8Z" class="g1"/>
<path d="M1238.2,643.7h.8v-.8h-.8v.8Z" class="g1"/>
<path d="M47.1,696.5h.7V643.7h-.7v52.8Z" class="g1"/>
<path d="M209.2,696.5h.7V643.7h-.7v52.8Z" class="g1"/>
<path d="M404.1,696.5h.7V643.7h-.7v52.8Z" class="g1"/>
<path d="M609.8,696.5h.7V643.7h-.7v52.8Z" class="g1"/>
<path d="M728.9,696.5h.8V643.7h-.8v52.8Z" class="g1"/>
<path d="M1238.2,696.5h.8V643.7h-.8v52.8Z" class="g1"/>
<path d="M47.1,697.2h.7v-.7h-.7v.7Z" class="g1"/>
<path d="M47.8,697.2H209.2v-.7H47.8v.7Z" class="g1"/>
<path d="M209.2,697.2h.7v-.7h-.7v.7Z" class="g1"/>
<path d="M209.9,697.2H404.1v-.7H209.9v.7Z" class="g1"/>
<path d="M404.1,697.2h.7v-.7h-.7v.7Z" class="g1"/>
<path d="M404.8,697.2h205v-.7h-205v.7Z" class="g1"/>
<path d="M609.8,697.2h.7v-.7h-.7v.7Z" class="g1"/>
<path d="M610.5,697.2H728.9v-.7H610.5v.7Z" class="g1"/>
<path d="M728.9,697.2h.8v-.7h-.8v.7Z" class="g1"/>
<path d="M729.7,697.2h508.5v-.7H729.7v.7Z" class="g1"/>
<path d="M1238.2,697.2h.8v-.7h-.8v.7Z" class="g1"/>
<path d="M47.1,749.8h.7V697.2h-.7v52.6Z" class="g1"/>
<path d="M209.2,749.8h.7V697.2h-.7v52.6Z" class="g1"/>
<path d="M404.1,749.8h.7V697.2h-.7v52.6Z" class="g1"/>
<path d="M609.8,749.8h.7V697.2h-.7v52.6Z" class="g1"/>
<path d="M728.9,749.8h.8V697.2h-.8v52.6Z" class="g1"/>
<path d="M1238.2,749.8h.8V697.2h-.8v52.6Z" class="g1"/>
<path d="M47.1,750.6h.7v-.8h-.7v.8Z" class="g1"/>
<path d="M47.8,750.6H209.2v-.8H47.8v.8Z" class="g1"/>
<path d="M209.2,750.6h.7v-.8h-.7v.8Z" class="g1"/>
<path d="M209.9,750.6H404.1v-.8H209.9v.8Z" class="g1"/>
<path d="M404.1,750.6h.7v-.8h-.7v.8Z" class="g1"/>
<path d="M404.8,750.6h205v-.8h-205v.8Z" class="g1"/>
<path d="M609.8,750.6h.7v-.8h-.7v.8Z" class="g1"/>
<path d="M610.5,750.6H728.9v-.8H610.5v.8Z" class="g1"/>
<path d="M728.9,750.6h.8v-.8h-.8v.8Z" class="g1"/>
<path d="M729.7,750.6h508.5v-.8H729.7v.8Z" class="g1"/>
<path d="M1238.2,750.6h.8v-.8h-.8v.8Z" class="g1"/>
<path d="M47.1,803.4h.7V750.6h-.7v52.8Z" class="g1"/>
<path d="M47.1,804.1h.7v-.7h-.7v.7Z" class="g1"/>
<path d="M47.1,804.1h.7v-.7h-.7v.7Z" class="g1"/>
<path d="M47.8,804.1H209.2v-.7H47.8v.7Z" class="g1"/>
<path d="M209.2,803.4h.7V750.6h-.7v52.8Z" class="g1"/>
<path d="M209.2,804.1h.7v-.7h-.7v.7Z" class="g1"/>
<path d="M209.9,804.1H404.1v-.7H209.9v.7Z" class="g1"/>
<path d="M404.1,803.4h.7V750.6h-.7v52.8Z" class="g1"/>
<path d="M404.1,804.1h.7v-.7h-.7v.7Z" class="g1"/>
<path d="M404.8,804.1h205v-.7h-205v.7Z" class="g1"/>
<path d="M609.8,803.4h.7V750.6h-.7v52.8Z" class="g1"/>
<path d="M609.8,804.1h.7v-.7h-.7v.7Z" class="g1"/>
<path d="M610.5,804.1H728.9v-.7H610.5v.7Z" class="g1"/>
<path d="M728.9,803.4h.8V750.6h-.8v52.8Z" class="g1"/>
<path d="M728.9,804.1h.8v-.7h-.8v.7Z" class="g1"/>
<path d="M729.7,804.1h508.5v-.7H729.7v.7Z" class="g1"/>
<path d="M1238.2,803.4h.8V750.6h-.8v52.8Z" class="g1"/>
<path d="M1238.2,804.1h.8v-.7h-.8v.7Z" class="g1"/>
<path d="M1238.2,804.1h.8v-.7h-.8v.7Z" class="g1"/>
</svg>