<?xml version="1.0" encoding="UTF-8" standalone="no"?>
<!DOCTYPE svg PUBLIC "-//W3C//DTD SVG 1.1//EN"
"http://www.w3.org/Graphics/SVG/1.1/DTD/svg11.dtd">
<svg viewBox="0 0 1286 909" version="1.1" xmlns="http://www.w3.org/2000/svg" xmlns:xlink="http://www.w3.org/1999/xlink">
<defs>
<style type="text/css"><![CDATA[
.g0{
fill: #D9D9D9;
}
.g1{
}
]]></style>
</defs>
<path fill-rule="evenodd" d="M47.8,65.8H550.9V44H47.8V65.8Z" class="g0"/>
<path fill-rule="evenodd" d="M55.7,63.6H543V46.2H55.7V63.6Z" class="g0"/>
<path fill-rule="evenodd" d="M551.6,65.8h91V44h-91V65.8Z" class="g0"/>
<path fill-rule="evenodd" d="M559.5,63.6h75.2V46.2H559.5V63.6Z" class="g0"/>
<path fill-rule="evenodd" d="M643.3,65.8h508.8V44H643.3V65.8Z" class="g0"/>
<path fill-rule="evenodd" d="M651.2,63.6h493V46.2h-493V63.6Z" class="g0"/>
<path fill-rule="evenodd" d="M1152.8,65.8h85.4V44h-85.4V65.8Z" class="g0"/>
<path fill-rule="evenodd" d="M1160.7,63.6h69.6V46.2h-69.6V63.6Z" class="g0"/>
<path d="M47.1,44h.7v-.7h-.7V44Z" class="g1"/>
<path d="M47.1,44h.7v-.7h-.7V44Z" class="g1"/>
<path d="M47.8,44H550.9v-.7H47.8V44Z" class="g1"/>
<path d="M550.9,44h.8v-.7h-.8V44Z" class="g1"/>
<path d="M551.6,44h91v-.7h-91V44Z" class="g1"/>
<path d="M642.6,44h.7v-.7h-.7V44Z" class="g1"/>
<path d="M643.3,44h508.8v-.7H643.3V44Z" class="g1"/>
<path d="M1152.1,44h.7v-.7h-.7V44Z" class="g1"/>
<path d="M1152.8,44h85.4v-.7h-85.4V44Z" class="g1"/>
<path d="M1238.2,44h.8v-.7h-.8V44Z" class="g1"/>
<path d="M1238.2,44h.8v-.7h-.8V44Z" class="g1"/>
<path d="M47.1,65.8h.7V44h-.7V65.8Z" class="g1"/>
<path d="M550.9,65.8h.8V44h-.8V65.8Z" class="g1"/>
<path d="M642.6,65.8h.7V44h-.7V65.8Z" class="g1"/>
<path d="M1152.1,65.8h.7V44h-.7V65.8Z" class="g1"/>
<path d="M1238.2,65.8h.8V44h-.8V65.8Z" class="g1"/>
<path d="M47.1,66.5h.7v-.7h-.7v.7Z" class="g1"/>
<path d="M47.8,66.5H550.9v-.7H47.8v.7Z" class="g1"/>
<path d="M550.9,66.5h.8v-.7h-.8v.7Z" class="g1"/>
<path d="M551.6,66.5h91v-.7h-91v.7Z" class="g1"/>
<path d="M642.6,66.5h.7v-.7h-.7v.7Z" class="g1"/>
<path d="M643.3,66.5h508.8v-.7H643.3v.7Z" class="g1"/>
<path d="M1152.1,66.5h.7v-.7h-.7v.7Z" class="g1"/>
<path d="M1152.8,66.5h85.4v-.7h-85.4v.7Z" class="g1"/>
<path d="M1238.2,66.5h.8v-.7h-.8v.7Z" class="g1"/>
<path d="M47.1,88.2h.7V66.5h-.7V88.2Z" class="g1"/>
<path d="M550.9,88.2h.8V66.5h-.8V88.2Z" class="g1"/>
<path d="M642.6,88.2h.7V66.5h-.7V88.2Z" class="g1"/>
<path d="M1152.1,88.2h.7V66.5h-.7V88.2Z" class="g1"/>
<path d="M1238.2,88.2h.8V66.5h-.8V88.2Z" class="g1"/>
<path d="M47.1,88.9h.7v-.7h-.7v.7Z" class="g1"/>
<path d="M47.8,88.9H550.9v-.7H47.8v.7Z" class="g1"/>
<path d="M550.9,88.9h.8v-.7h-.8v.7Z" class="g1"/>
<path d="M551.6,88.9h91v-.7h-91v.7Z" class="g1"/>
<path d="M642.6,88.9h.7v-.7h-.7v.7Z" class="g1"/>
<path d="M643.3,88.9h508.8v-.7H643.3v.7Z" class="g1"/>
<path d="M1152.1,88.9h.7v-.7h-.7v.7Z" class="g1"/>
<path d="M1152.8,88.9h85.4v-.7h-85.4v.7Z" class="g1"/>
<path d="M1238.2,88.9h.8v-.7h-.8v.7Z" class="g1"/>
<path d="M47.1,110.7h.7V88.9h-.7v21.8Z" class="g1"/>
<path d="M550.9,110.7h.8V88.9h-.8v21.8Z" class="g1"/>
<path d="M642.6,110.7h.7V88.9h-.7v21.8Z" class="g1"/>
<path d="M1152.1,110.7h.7V88.9h-.7v21.8Z" class="g1"/>
<path d="M1238.2,110.7h.8V88.9h-.8v21.8Z" class="g1"/>
<path d="M47.1,111.5h.7v-.8h-.7v.8Z" class="g1"/>
<path d="M47.8,111.5H550.9v-.8H47.8v.8Z" class="g1"/>
<path d="M550.9,111.5h.8v-.8h-.8v.8Z" class="g1"/>
<path d="M551.6,111.5h91v-.8h-91v.8Z" class="g1"/>
<path d="M642.6,111.5h.7v-.8h-.7v.8Z" class="g1"/>
<path d="M643.3,111.5h508.8v-.8H643.3v.8Z" class="g1"/>
<path d="M1152.1,111.5h.7v-.8h-.7v.8Z" class="g1"/>
<path d="M1152.8,111.5h85.4v-.8h-85.4v.8Z" class="g1"/>
<path d="M1238.2,111.5h.8v-.8h-.8v.8Z" class="g1"/>
<path d="M47.1,133.1h.7V111.5h-.7v21.6Z" class="g1"/>
<path d="M550.9,133.1h.8V111.5h-.8v21.6Z" class="g1"/>
<path d="M642.6,133.1h.7V111.5h-.7v21.6Z" class="g1"/>
<path d="M1152.1,133.1h.7V111.5h-.7v21.6Z" class="g1"/>
<path d="M1238.2,133.1h.8V111.5h-.8v21.6Z" class="g1"/>
<path d="M47.1,133.8h.7v-.7h-.7v.7Z" class="g1"/>
<path d="M47.8,133.8H550.9v-.7H47.8v.7Z" class="g1"/>
<path d="M550.9,133.8h.8v-.7h-.8v.7Z" class="g1"/>
<path d="M551.6,133.8h91v-.7h-91v.7Z" class="g1"/>
<path d="M642.6,133.8h.7v-.7h-.7v.7Z" class="g1"/>
<path d="M643.3,133.8h508.8v-.7H643.3v.7Z" class="g1"/>
<path d="M1152.1,133.8h.7v-.7h-.7v.7Z" class="g1"/>
<path d="M1152.8,133.8h85.4v-.7h-85.4v.7Z" class="g1"/>
<path d="M1238.2,133.8h.8v-.7h-.8v.7Z" class="g1"/>
<path d="M47.1,155.7h.7V133.8h-.7v21.9Z" class="g1"/>
<path d="M550.9,155.7h.8V133.8h-.8v21.9Z" class="g1"/>
<path d="M642.6,155.7h.7V133.8h-.7v21.9Z" class="g1"/>
<path d="M1152.1,155.7h.7V133.8h-.7v21.9Z" class="g1"/>
<path d="M1238.2,155.7h.8V133.8h-.8v21.9Z" class="g1"/>
<path d="M47.1,156.4h.7v-.8h-.7v.8Z" class="g1"/>
<path d="M47.8,156.4H550.9v-.8H47.8v.8Z" class="g1"/>
<path d="M550.9,156.4h.8v-.8h-.8v.8Z" class="g1"/>
<path d="M551.6,156.4h91v-.8h-91v.8Z" class="g1"/>
<path d="M642.6,156.4h.7v-.8h-.7v.8Z" class="g1"/>
<path d="M643.3,156.4h508.8v-.8H643.3v.8Z" class="g1"/>
<path d="M1152.1,156.4h.7v-.8h-.7v.8Z" class="g1"/>
<path d="M1152.8,156.4h85.4v-.8h-85.4v.8Z" class="g1"/>
<path d="M1238.2,156.4h.8v-.8h-.8v.8Z" class="g1"/>
<path d="M47.1,178h.7V156.4h-.7V178Z" class="g1"/>
<path d="M550.9,178h.8V156.4h-.8V178Z" class="g1"/>
<path d="M642.6,178h.7V156.4h-.7V178Z" class="g1"/>
<path d="M1152.1,178h.7V156.4h-.7V178Z" class="g1"/>
<path d="M1238.2,178h.8V156.4h-.8V178Z" class="g1"/>
<path d="M47.1,178.8h.7V178h-.7v.8Z" class="g1"/>
<path d="M47.8,178.8H550.9V178H47.8v.8Z" class="g1"/>
<path d="M550.9,178.8h.8V178h-.8v.8Z" class="g1"/>
<path d="M551.6,178.8h91V178h-91v.8Z" class="g1"/>
<path d="M642.6,178.8h.7V178h-.7v.8Z" class="g1"/>
<path d="M643.3,178.8h508.8V178H643.3v.8Z" class="g1"/>
<path d="M1152.1,178.8h.7V178h-.7v.8Z" class="g1"/>
<path d="M1152.8,178.8h85.4V178h-85.4v.8Z" class="g1"/>
<path d="M1238.2,178.8h.8V178h-.8v.8Z" class="g1"/>
<path d="M47.1,200.6h.7V178.8h-.7v21.8Z" class="g1"/>
<path d="M550.9,200.6h.8V178.8h-.8v21.8Z" class="g1"/>
<path d="M642.6,200.6h.7V178.8h-.7v21.8Z" class="g1"/>
<path d="M1152.1,200.6h.7V178.8h-.7v21.8Z" class="g1"/>
<path d="M1238.2,200.6h.8V178.8h-.8v21.8Z" class="g1"/>
<path d="M47.1,201.3h.7v-.7h-.7v.7Z" class="g1"/>
<path d="M47.8,201.3H550.9v-.7H47.8v.7Z" class="g1"/>
<path d="M550.9,201.3h.8v-.7h-.8v.7Z" class="g1"/>
<path d="M551.6,201.3h91v-.7h-91v.7Z" class="g1"/>
<path d="M642.6,201.3h.7v-.7h-.7v.7Z" class="g1"/>
<path d="M643.3,201.3h508.8v-.7H643.3v.7Z" class="g1"/>
<path d="M1152.1,201.3h.7v-.7h-.7v.7Z" class="g1"/>
<path d="M1152.8,201.3h85.4v-.7h-85.4v.7Z" class="g1"/>
<path d="M1238.2,201.3h.8v-.7h-.8v.7Z" class="g1"/>
<path d="M47.1,222.9h.7V201.3h-.7v21.6Z" class="g1"/>
<path d="M550.9,222.9h.8V201.3h-.8v21.6Z" class="g1"/>
<path d="M642.6,222.9h.7V201.3h-.7v21.6Z" class="g1"/>
<path d="M1152.1,222.9h.7V201.3h-.7v21.6Z" class="g1"/>
<path d="M1238.2,222.9h.8V201.3h-.8v21.6Z" class="g1"/>
<path d="M47.1,223.7h.7v-.8h-.7v.8Z" class="g1"/>
<path d="M47.8,223.7H550.9v-.8H47.8v.8Z" class="g1"/>
<path d="M550.9,223.7h.8v-.8h-.8v.8Z" class="g1"/>
<path d="M551.6,223.7h91v-.8h-91v.8Z" class="g1"/>
<path d="M642.6,223.7h.7v-.8h-.7v.8Z" class="g1"/>
<path d="M643.3,223.7h508.8v-.8H643.3v.8Z" class="g1"/>
<path d="M1152.1,223.7h.7v-.8h-.7v.8Z" class="g1"/>
<path d="M1152.8,223.7h85.4v-.8h-85.4v.8Z" class="g1"/>
<path d="M1238.2,223.7h.8v-.8h-.8v.8Z" class="g1"/>
<path d="M47.1,245.5h.7V223.7h-.7v21.8Z" class="g1"/>
<path d="M550.9,245.5h.8V223.7h-.8v21.8Z" class="g1"/>
<path d="M642.6,245.5h.7V223.7h-.7v21.8Z" class="g1"/>
<path d="M1152.1,245.5h.7V223.7h-.7v21.8Z" class="g1"/>
<path d="M1238.2,245.5h.8V223.7h-.8v21.8Z" class="g1"/>
<path d="M47.1,246.2h.7v-.7h-.7v.7Z" class="g1"/>
<path d="M47.8,246.2H550.9v-.7H47.8v.7Z" class="g1"/>
<path d="M550.9,246.2h.8v-.7h-.8v.7Z" class="g1"/>
<path d="M551.6,246.2h91v-.7h-91v.7Z" class="g1"/>
<path d="M642.6,246.2h.7v-.7h-.7v.7Z" class="g1"/>
<path d="M643.3,246.2h508.8v-.7H643.3v.7Z" class="g1"/>
<path d="M1152.1,246.2h.7v-.7h-.7v.7Z" class="g1"/>
<path d="M1152.8,246.2h85.4v-.7h-85.4v.7Z" class="g1"/>
<path d="M1238.2,246.2h.8v-.7h-.8v.7Z" class="g1"/>
<path d="M47.1,267.9h.7V246.2h-.7v21.7Z" class="g1"/>
<path d="M550.9,267.9h.8V246.2h-.8v21.7Z" class="g1"/>
<path d="M642.6,267.9h.7V246.2h-.7v21.7Z" class="g1"/>
<path d="M1152.1,267.9h.7V246.2h-.7v21.7Z" class="g1"/>
<path d="M1238.2,267.9h.8V246.2h-.8v21.7Z" class="g1"/>
<path d="M47.1,268.6h.7v-.8h-.7v.8Z" class="g1"/>
<path d="M47.8,268.6H550.9v-.8H47.8v.8Z" class="g1"/>
<path d="M550.9,268.6h.8v-.8h-.8v.8Z" class="g1"/>
<path d="M551.6,268.6h91v-.8h-91v.8Z" class="g1"/>
<path d="M642.6,268.6h.7v-.8h-.7v.8Z" class="g1"/>
<path d="M643.3,268.6h508.8v-.8H643.3v.8Z" class="g1"/>
<path d="M1152.1,268.6h.7v-.8h-.7v.8Z" class="g1"/>
<path d="M1152.8,268.6h85.4v-.8h-85.4v.8Z" class="g1"/>
<path d="M1238.2,268.6h.8v-.8h-.8v.8Z" class="g1"/>
<path d="M47.1,290.4h.7V268.6h-.7v21.8Z" class="g1"/>
<path d="M550.9,290.4h.8V268.6h-.8v21.8Z" class="g1"/>
<path d="M642.6,290.4h.7V268.6h-.7v21.8Z" class="g1"/>
<path d="M1152.1,290.4h.7V268.6h-.7v21.8Z" class="g1"/>
<path d="M1238.2,290.4h.8V268.6h-.8v21.8Z" class="g1"/>
<path d="M47.1,291.1h.7v-.7h-.7v.7Z" class="g1"/>
<path d="M47.8,291.1H550.9v-.7H47.8v.7Z" class="g1"/>
<path d="M550.9,291.1h.8v-.7h-.8v.7Z" class="g1"/>
<path d="M551.6,291.1h91v-.7h-91v.7Z" class="g1"/>
<path d="M642.6,291.1h.7v-.7h-.7v.7Z" class="g1"/>
<path d="M643.3,291.1h508.8v-.7H643.3v.7Z" class="g1"/>
<path d="M1152.1,291.1h.7v-.7h-.7v.7Z" class="g1"/>
<path d="M1152.8,291.1h85.4v-.7h-85.4v.7Z" class="g1"/>
<path d="M1238.2,291.1h.8v-.7h-.8v.7Z" class="g1"/>
<path d="M47.1,312.8h.7V291.1h-.7v21.7Z" class="g1"/>
<path d="M550.9,312.8h.8V291.1h-.8v21.7Z" class="g1"/>
<path d="M642.6,312.8h.7V291.1h-.7v21.7Z" class="g1"/>
<path d="M1152.1,312.8h.7V291.1h-.7v21.7Z" class="g1"/>
<path d="M1238.2,312.8h.8V291.1h-.8v21.7Z" class="g1"/>
<path d="M47.1,313.5h.7v-.7h-.7v.7Z" class="g1"/>
<path d="M47.8,313.5H550.9v-.7H47.8v.7Z" class="g1"/>
<path d="M550.9,313.5h.8v-.7h-.8v.7Z" class="g1"/>
<path d="M551.6,313.5h91v-.7h-91v.7Z" class="g1"/>
<path d="M642.6,313.5h.7v-.7h-.7v.7Z" class="g1"/>
<path d="M643.3,313.5h508.8v-.7H643.3v.7Z" class="g1"/>
<path d="M1152.1,313.5h.7v-.7h-.7v.7Z" class="g1"/>
<path d="M1152.8,313.5h85.4v-.7h-85.4v.7Z" class="g1"/>
<path d="M1238.2,313.5h.8v-.7h-.8v.7Z" class="g1"/>
<path d="M47.1,335.3h.7V313.5h-.7v21.8Z" class="g1"/>
<path d="M550.9,335.3h.8V313.5h-.8v21.8Z" class="g1"/>
<path d="M642.6,335.3h.7V313.5h-.7v21.8Z" class="g1"/>
<path d="M1152.1,335.3h.7V313.5h-.7v21.8Z" class="g1"/>
<path d="M1238.2,335.3h.8V313.5h-.8v21.8Z" class="g1"/>
<path d="M47.1,336.1h.7v-.8h-.7v.8Z" class="g1"/>
<path d="M47.8,336.1H550.9v-.8H47.8v.8Z" class="g1"/>
<path d="M550.9,336.1h.8v-.8h-.8v.8Z" class="g1"/>
<path d="M551.6,336.1h91v-.8h-91v.8Z" class="g1"/>
<path d="M642.6,336.1h.7v-.8h-.7v.8Z" class="g1"/>
<path d="M643.3,336.1h508.8v-.8H643.3v.8Z" class="g1"/>
<path d="M1152.1,336.1h.7v-.8h-.7v.8Z" class="g1"/>
<path d="M1152.8,336.1h85.4v-.8h-85.4v.8Z" class="g1"/>
<path d="M1238.2,336.1h.8v-.8h-.8v.8Z" class="g1"/>
<path d="M47.1,357.7h.7V336h-.7v21.7Z" class="g1"/>
<path d="M550.9,357.7h.8V336h-.8v21.7Z" class="g1"/>
<path d="M642.6,357.7h.7V336h-.7v21.7Z" class="g1"/>
<path d="M1152.1,357.7h.7V336h-.7v21.7Z" class="g1"/>
<path d="M1238.2,357.7h.8V336h-.8v21.7Z" class="g1"/>
<path d="M47.1,358.4h.7v-.7h-.7v.7Z" class="g1"/>
<path d="M47.8,358.4H550.9v-.7H47.8v.7Z" class="g1"/>
<path d="M550.9,358.4h.8v-.7h-.8v.7Z" class="g1"/>
<path d="M551.6,358.4h91v-.7h-91v.7Z" class="g1"/>
<path d="M642.6,358.4h.7v-.7h-.7v.7Z" class="g1"/>
<path d="M643.3,358.4h508.8v-.7H643.3v.7Z" class="g1"/>
<path d="M1152.1,358.4h.7v-.7h-.7v.7Z" class="g1"/>
<path d="M1152.8,358.4h85.4v-.7h-85.4v.7Z" class="g1"/>
<path d="M1238.2,358.4h.8v-.7h-.8v.7Z" class="g1"/>
<path d="M47.1,380.2h.7V358.4h-.7v21.8Z" class="g1"/>
<path d="M550.9,380.2h.8V358.4h-.8v21.8Z" class="g1"/>
<path d="M642.6,380.2h.7V358.4h-.7v21.8Z" class="g1"/>
<path d="M1152.1,380.2h.7V358.4h-.7v21.8Z" class="g1"/>
<path d="M1238.2,380.2h.8V358.4h-.8v21.8Z" class="g1"/>
<path d="M47.1,381h.7v-.8h-.7v.8Z" class="g1"/>
<path d="M47.8,381H550.9v-.8H47.8v.8Z" class="g1"/>
<path d="M550.9,381h.8v-.8h-.8v.8Z" class="g1"/>
<path d="M551.6,381h91v-.8h-91v.8Z" class="g1"/>
<path d="M642.6,381h.7v-.8h-.7v.8Z" class="g1"/>
<path d="M643.3,381h508.8v-.8H643.3v.8Z" class="g1"/>
<path d="M1152.1,381h.7v-.8h-.7v.8Z" class="g1"/>
<path d="M1152.8,381h85.4v-.8h-85.4v.8Z" class="g1"/>
<path d="M1238.2,381h.8v-.8h-.8v.8Z" class="g1"/>
<path d="M47.1,402.6h.7V381h-.7v21.6Z" class="g1"/>
<path d="M550.9,402.6h.8V381h-.8v21.6Z" class="g1"/>
<path d="M642.6,402.6h.7V381h-.7v21.6Z" class="g1"/>
<path d="M1152.1,402.6h.7V381h-.7v21.6Z" class="g1"/>
<path d="M1238.2,402.6h.8V381h-.8v21.6Z" class="g1"/>
<path d="M47.1,403.3h.7v-.7h-.7v.7Z" class="g1"/>
<path d="M47.8,403.3H550.9v-.7H47.8v.7Z" class="g1"/>
<path d="M550.9,403.3h.8v-.7h-.8v.7Z" class="g1"/>
<path d="M551.6,403.3h91v-.7h-91v.7Z" class="g1"/>
<path d="M642.6,403.3h.7v-.7h-.7v.7Z" class="g1"/>
<path d="M643.3,403.3h508.8v-.7H643.3v.7Z" class="g1"/>
<path d="M1152.1,403.3h.7v-.7h-.7v.7Z" class="g1"/>
<path d="M1152.8,403.3h85.4v-.7h-85.4v.7Z" class="g1"/>
<path d="M1238.2,403.3h.8v-.7h-.8v.7Z" class="g1"/>
<path d="M47.1,425.2h.7V403.3h-.7v21.9Z" class="g1"/>
<path d="M550.9,425.2h.8V403.3h-.8v21.9Z" class="g1"/>
<path d="M642.6,425.2h.7V403.3h-.7v21.9Z" class="g1"/>
<path d="M1152.1,425.2h.7V403.3h-.7v21.9Z" class="g1"/>
<path d="M1238.2,425.2h.8V403.3h-.8v21.9Z" class="g1"/>
<path d="M47.1,425.9h.7v-.8h-.7v.8Z" class="g1"/>
<path d="M47.8,425.9H550.9v-.8H47.8v.8Z" class="g1"/>
<path d="M550.9,425.9h.8v-.8h-.8v.8Z" class="g1"/>
<path d="M551.6,425.9h91v-.8h-91v.8Z" class="g1"/>
<path d="M642.6,425.9h.7v-.8h-.7v.8Z" class="g1"/>
<path d="M643.3,425.9h.8v-.8h-.8v.8Z" class="g1"/>
<path d="M644.1,425.9h508v-.8h-508v.8Z" class="g1"/>
<path d="M1152.1,425.9h.7v-.8h-.7v.8Z" class="g1"/>
<path d="M1152.8,425.9h85.4v-.8h-85.4v.8Z" class="g1"/>
<path d="M1238.2,425.9h.8v-.8h-.8v.8Z" class="g1"/>
<path d="M1238.2,425.9h.8v-.8h-.8v.8Z" class="g1"/>
<path d="M47.1,447.5h.7V425.9h-.7v21.6Z" class="g1"/>
<path d="M47.1,448.2h.7v-.7h-.7v.7Z" class="g1"/>
<path d="M47.1,448.2h.7v-.7h-.7v.7Z" class="g1"/>
<path d="M47.8,448.2H550.9v-.7H47.8v.7Z" class="g1"/>
<path d="M550.9,447.5h.8V425.9h-.8v21.6Z" class="g1"/>
<path d="M550.9,448.2h.8v-.7h-.8v.7Z" class="g1"/>
<path d="M551.6,448.2h91v-.7h-91v.7Z" class="g1"/>
<path d="M642.6,447.5h.7V425.9h-.7v21.6Z" class="g1"/>
<path d="M642.6,448.2h.7v-.7h-.7v.7Z" class="g1"/>
<path d="M642.6,448.2h.7v-.7h-.7v.7Z" class="g1"/>
</svg>