<?xml version="1.0" encoding="UTF-8" standalone="no"?>
<!DOCTYPE svg PUBLIC "-//W3C//DTD SVG 1.1//EN"
"http://www.w3.org/Graphics/SVG/1.1/DTD/svg11.dtd">
<svg viewBox="0 0 1286 909" version="1.1" xmlns="http://www.w3.org/2000/svg" xmlns:xlink="http://www.w3.org/1999/xlink">
<defs>
<style type="text/css"><![CDATA[
.g0_2{
}
]]></style>
</defs>
<path d="M47.1,35.4h.7v-.8h-.7v.8Z" class="g0_2"/>
<path d="M47.1,35.4h.7v-.8h-.7v.8Z" class="g0_2"/>
<path d="M47.8,35.4H198.4v-.8H47.8v.8Z" class="g0_2"/>
<path d="M198.4,35.4h.7v-.8h-.7v.8Z" class="g0_2"/>
<path d="M199.1,35.4H393.3v-.8H199.1v.8Z" class="g0_2"/>
<path d="M393.2,35.4h.8v-.8h-.8v.8Z" class="g0_2"/>
<path d="M394,35.4H826.5v-.8H394v.8Z" class="g0_2"/>
<path d="M826.5,35.4h.7v-.8h-.7v.8Z" class="g0_2"/>
<path d="M827.2,35.4h313.1v-.8H827.2v.8Z" class="g0_2"/>
<path d="M1140.3,35.4h.8v-.8h-.8v.8Z" class="g0_2"/>
<path d="M1141.1,35.4h97.1v-.8h-97.1v.8Z" class="g0_2"/>
<path d="M1238.2,35.4h.8v-.8h-.8v.8Z" class="g0_2"/>
<path d="M1238.2,35.4h.8v-.8h-.8v.8Z" class="g0_2"/>
<path d="M47.1,70.6h.7V35.4h-.7V70.6Z" class="g0_2"/>
<path d="M198.4,70.6h.7V35.4h-.7V70.6Z" class="g0_2"/>
<path d="M393.2,70.6h.8V35.4h-.8V70.6Z" class="g0_2"/>
<path d="M826.5,70.6h.7V35.4h-.7V70.6Z" class="g0_2"/>
<path d="M1140.3,70.6h.8V35.4h-.8V70.6Z" class="g0_2"/>
<path d="M1238.2,70.6h.8V35.4h-.8V70.6Z" class="g0_2"/>
<path d="M47.1,71.3h.7v-.7h-.7v.7Z" class="g0_2"/>
<path d="M47.8,71.3H198.4v-.7H47.8v.7Z" class="g0_2"/>
<path d="M198.4,71.3h.7v-.7h-.7v.7Z" class="g0_2"/>
<path d="M199.1,71.3H393.3v-.7H199.1v.7Z" class="g0_2"/>
<path d="M393.2,71.3h.8v-.7h-.8v.7Z" class="g0_2"/>
<path d="M394,71.3H826.5v-.7H394v.7Z" class="g0_2"/>
<path d="M826.5,71.3h.7v-.7h-.7v.7Z" class="g0_2"/>
<path d="M827.2,71.3h313.1v-.7H827.2v.7Z" class="g0_2"/>
<path d="M1140.3,71.3h.8v-.7h-.8v.7Z" class="g0_2"/>
<path d="M1141.1,71.3h97.1v-.7h-97.1v.7Z" class="g0_2"/>
<path d="M1238.2,71.3h.8v-.7h-.8v.7Z" class="g0_2"/>
<path d="M47.1,106.5h.7V71.3h-.7v35.2Z" class="g0_2"/>
<path d="M198.4,106.5h.7V71.3h-.7v35.2Z" class="g0_2"/>
<path d="M393.2,106.5h.8V71.3h-.8v35.2Z" class="g0_2"/>
<path d="M826.5,106.5h.7V71.3h-.7v35.2Z" class="g0_2"/>
<path d="M1140.3,106.5h.8V71.3h-.8v35.2Z" class="g0_2"/>
<path d="M1238.2,106.5h.8V71.3h-.8v35.2Z" class="g0_2"/>
<path d="M47.1,107.3h.7v-.8h-.7v.8Z" class="g0_2"/>
<path d="M47.8,107.3H198.4v-.8H47.8v.8Z" class="g0_2"/>
<path d="M198.4,107.3h.7v-.8h-.7v.8Z" class="g0_2"/>
<path d="M199.1,107.3H393.3v-.8H199.1v.8Z" class="g0_2"/>
<path d="M393.2,107.3h.8v-.8h-.8v.8Z" class="g0_2"/>
<path d="M394,107.3H826.5v-.8H394v.8Z" class="g0_2"/>
<path d="M826.5,107.3h.7v-.8h-.7v.8Z" class="g0_2"/>
<path d="M827.2,107.3h313.1v-.8H827.2v.8Z" class="g0_2"/>
<path d="M1140.3,107.3h.8v-.8h-.8v.8Z" class="g0_2"/>
<path d="M1141.1,107.3h97.1v-.8h-97.1v.8Z" class="g0_2"/>
<path d="M1238.2,107.3h.8v-.8h-.8v.8Z" class="g0_2"/>
<path d="M47.1,177.5h.7V107.3h-.7v70.2Z" class="g0_2"/>
<path d="M198.4,177.5h.7V107.3h-.7v70.2Z" class="g0_2"/>
<path d="M393.2,177.5h.8V107.3h-.8v70.2Z" class="g0_2"/>
<path d="M826.5,177.5h.7V107.3h-.7v70.2Z" class="g0_2"/>
<path d="M1140.3,177.5h.8V107.3h-.8v70.2Z" class="g0_2"/>
<path d="M1238.2,177.5h.8V107.3h-.8v70.2Z" class="g0_2"/>
<path d="M47.1,178.2h.7v-.7h-.7v.7Z" class="g0_2"/>
<path d="M47.8,178.2H198.4v-.7H47.8v.7Z" class="g0_2"/>
<path d="M198.4,178.2h.7v-.7h-.7v.7Z" class="g0_2"/>
<path d="M199.1,178.2H393.3v-.7H199.1v.7Z" class="g0_2"/>
<path d="M393.2,178.2h.8v-.7h-.8v.7Z" class="g0_2"/>
<path d="M394,178.2H826.5v-.7H394v.7Z" class="g0_2"/>
<path d="M826.5,178.2h.7v-.7h-.7v.7Z" class="g0_2"/>
<path d="M827.2,178.2h313.1v-.7H827.2v.7Z" class="g0_2"/>
<path d="M1140.3,178.2h.8v-.7h-.8v.7Z" class="g0_2"/>
<path d="M1141.1,178.2h97.1v-.7h-97.1v.7Z" class="g0_2"/>
<path d="M1238.2,178.2h.8v-.7h-.8v.7Z" class="g0_2"/>
<path d="M47.1,248.6h.7V178.2h-.7v70.4Z" class="g0_2"/>
<path d="M198.4,248.6h.7V178.2h-.7v70.4Z" class="g0_2"/>
<path d="M393.2,248.6h.8V178.2h-.8v70.4Z" class="g0_2"/>
<path d="M826.5,248.6h.7V178.2h-.7v70.4Z" class="g0_2"/>
<path d="M1140.3,248.6h.8V178.2h-.8v70.4Z" class="g0_2"/>
<path d="M1238.2,248.6h.8V178.2h-.8v70.4Z" class="g0_2"/>
<path d="M47.1,249.3h.7v-.7h-.7v.7Z" class="g0_2"/>
<path d="M47.8,249.3H198.4v-.7H47.8v.7Z" class="g0_2"/>
<path d="M198.4,249.3h.7v-.7h-.7v.7Z" class="g0_2"/>
<path d="M199.1,249.3H393.3v-.7H199.1v.7Z" class="g0_2"/>
<path d="M393.2,249.3h.8v-.7h-.8v.7Z" class="g0_2"/>
<path d="M394,249.3H826.5v-.7H394v.7Z" class="g0_2"/>
<path d="M826.5,249.3h.7v-.7h-.7v.7Z" class="g0_2"/>
<path d="M827.2,249.3h313.1v-.7H827.2v.7Z" class="g0_2"/>
<path d="M1140.3,249.3h.8v-.7h-.8v.7Z" class="g0_2"/>
<path d="M1141.1,249.3h97.1v-.7h-97.1v.7Z" class="g0_2"/>
<path d="M1238.2,249.3h.8v-.7h-.8v.7Z" class="g0_2"/>
<path d="M47.1,302h.7V249.3h-.7V302Z" class="g0_2"/>
<path d="M198.4,302h.7V249.3h-.7V302Z" class="g0_2"/>
<path d="M393.2,302h.8V249.3h-.8V302Z" class="g0_2"/>
<path d="M826.5,302h.7V249.3h-.7V302Z" class="g0_2"/>
<path d="M1140.3,302h.8V249.3h-.8V302Z" class="g0_2"/>
<path d="M1238.2,302h.8V249.3h-.8V302Z" class="g0_2"/>
<path d="M47.1,302.7h.7v-.8h-.7v.8Z" class="g0_2"/>
<path d="M47.8,302.7H198.4v-.8H47.8v.8Z" class="g0_2"/>
<path d="M198.4,302.7h.7v-.8h-.7v.8Z" class="g0_2"/>
<path d="M199.1,302.7H393.3v-.8H199.1v.8Z" class="g0_2"/>
<path d="M393.2,302.7h.8v-.8h-.8v.8Z" class="g0_2"/>
<path d="M394,302.7H826.5v-.8H394v.8Z" class="g0_2"/>
<path d="M826.5,302.7h.7v-.8h-.7v.8Z" class="g0_2"/>
<path d="M827.2,302.7h313.1v-.8H827.2v.8Z" class="g0_2"/>
<path d="M1140.3,302.7h.8v-.8h-.8v.8Z" class="g0_2"/>
<path d="M1141.1,302.7h97.1v-.8h-97.1v.8Z" class="g0_2"/>
<path d="M1238.2,302.7h.8v-.8h-.8v.8Z" class="g0_2"/>
<path d="M47.1,355.5h.7V302.7h-.7v52.8Z" class="g0_2"/>
<path d="M198.4,355.5h.7V302.7h-.7v52.8Z" class="g0_2"/>
<path d="M393.2,355.5h.8V302.7h-.8v52.8Z" class="g0_2"/>
<path d="M826.5,355.5h.7V302.7h-.7v52.8Z" class="g0_2"/>
<path d="M1140.3,355.5h.8V302.7h-.8v52.8Z" class="g0_2"/>
<path d="M1238.2,355.5h.8V302.7h-.8v52.8Z" class="g0_2"/>
<path d="M47.1,356.2h.7v-.7h-.7v.7Z" class="g0_2"/>
<path d="M47.8,356.2H198.4v-.7H47.8v.7Z" class="g0_2"/>
<path d="M198.4,356.2h.7v-.7h-.7v.7Z" class="g0_2"/>
<path d="M199.1,356.2H393.3v-.7H199.1v.7Z" class="g0_2"/>
<path d="M393.2,356.2h.8v-.7h-.8v.7Z" class="g0_2"/>
<path d="M394,356.2H826.5v-.7H394v.7Z" class="g0_2"/>
<path d="M826.5,356.2h.7v-.7h-.7v.7Z" class="g0_2"/>
<path d="M827.2,356.2h313.1v-.7H827.2v.7Z" class="g0_2"/>
<path d="M1140.3,356.2h.8v-.7h-.8v.7Z" class="g0_2"/>
<path d="M1141.1,356.2h97.1v-.7h-97.1v.7Z" class="g0_2"/>
<path d="M1238.2,356.2h.8v-.7h-.8v.7Z" class="g0_2"/>
<path d="M47.1,382.3h.7V356.2h-.7v26.1Z" class="g0_2"/>
<path d="M198.4,382.3h.7V356.2h-.7v26.1Z" class="g0_2"/>
<path d="M393.2,382.3h.8V356.2h-.8v26.1Z" class="g0_2"/>
<path d="M826.5,382.3h.7V356.2h-.7v26.1Z" class="g0_2"/>
<path d="M1140.3,382.3h.8V356.2h-.8v26.1Z" class="g0_2"/>
<path d="M1238.2,382.3h.8V356.2h-.8v26.1Z" class="g0_2"/>
<path d="M47.1,383h.7v-.8h-.7v.8Z" class="g0_2"/>
<path d="M198.4,383h.7v-.8h-.7v.8Z" class="g0_2"/>
<path d="M393.2,383h.8v-.8h-.8v.8Z" class="g0_2"/>
<path d="M826.5,383h.7v-.8h-.7v.8Z" class="g0_2"/>
<path d="M827.2,383h313.1v-.8H827.2v.8Z" class="g0_2"/>
<path d="M1140.3,383h.8v-.8h-.8v.8Z" class="g0_2"/>
<path d="M1141.1,383h97.1v-.8h-97.1v.8Z" class="g0_2"/>
<path d="M1238.2,383h.8v-.8h-.8v.8Z" class="g0_2"/>
<path d="M47.1,409h.7V383h-.7v26Z" class="g0_2"/>
<path d="M198.4,409h.7V383h-.7v26Z" class="g0_2"/>
<path d="M393.2,409h.8V383h-.8v26Z" class="g0_2"/>
<path d="M826.5,409h.7V383h-.7v26Z" class="g0_2"/>
<path d="M1140.3,409h.8V383h-.8v26Z" class="g0_2"/>
<path d="M1238.2,409h.8V383h-.8v26Z" class="g0_2"/>
<path d="M47.1,409.8h.7V409h-.7v.8Z" class="g0_2"/>
<path d="M198.4,409.8h.7V409h-.7v.8Z" class="g0_2"/>
<path d="M393.2,409.8h.8V409h-.8v.8Z" class="g0_2"/>
<path d="M826.5,409.8h.7V409h-.7v.8Z" class="g0_2"/>
<path d="M827.2,409.8h313.1V409H827.2v.8Z" class="g0_2"/>
<path d="M1140.3,409.8h.8V409h-.8v.8Z" class="g0_2"/>
<path d="M1141.1,409.8h97.1V409h-97.1v.8Z" class="g0_2"/>
<path d="M1238.2,409.8h.8V409h-.8v.8Z" class="g0_2"/>
<path d="M47.1,435.8h.7V409.7h-.7v26.1Z" class="g0_2"/>
<path d="M198.4,435.8h.7V409.7h-.7v26.1Z" class="g0_2"/>
<path d="M393.2,435.8h.8V409.7h-.8v26.1Z" class="g0_2"/>
<path d="M826.5,435.8h.7V409.7h-.7v26.1Z" class="g0_2"/>
<path d="M1140.3,435.8h.8V409.7h-.8v26.1Z" class="g0_2"/>
<path d="M1238.2,435.8h.8V409.7h-.8v26.1Z" class="g0_2"/>
<path d="M47.1,436.5h.7v-.7h-.7v.7Z" class="g0_2"/>
<path d="M198.4,436.5h.7v-.7h-.7v.7Z" class="g0_2"/>
<path d="M393.2,436.5h.8v-.7h-.8v.7Z" class="g0_2"/>
<path d="M826.5,436.5h.7v-.7h-.7v.7Z" class="g0_2"/>
<path d="M827.2,436.5h313.1v-.7H827.2v.7Z" class="g0_2"/>
<path d="M1140.3,436.5h.8v-.7h-.8v.7Z" class="g0_2"/>
<path d="M1141.1,436.5h97.1v-.7h-97.1v.7Z" class="g0_2"/>
<path d="M1238.2,436.5h.8v-.7h-.8v.7Z" class="g0_2"/>
<path d="M47.1,462.4h.7V436.5h-.7v25.9Z" class="g0_2"/>
<path d="M198.4,462.4h.7V436.5h-.7v25.9Z" class="g0_2"/>
<path d="M393.2,462.4h.8V436.5h-.8v25.9Z" class="g0_2"/>
<path d="M826.5,462.4h.7V436.5h-.7v25.9Z" class="g0_2"/>
<path d="M1140.3,462.4h.8V436.5h-.8v25.9Z" class="g0_2"/>
<path d="M1238.2,462.4h.8V436.5h-.8v25.9Z" class="g0_2"/>
<path d="M47.1,463.1h.7v-.7h-.7v.7Z" class="g0_2"/>
<path d="M198.4,463.1h.7v-.7h-.7v.7Z" class="g0_2"/>
<path d="M393.2,463.1h.8v-.7h-.8v.7Z" class="g0_2"/>
<path d="M826.5,463.1h.7v-.7h-.7v.7Z" class="g0_2"/>
<path d="M827.2,463.1h313.1v-.7H827.2v.7Z" class="g0_2"/>
<path d="M1140.3,463.1h.8v-.7h-.8v.7Z" class="g0_2"/>
<path d="M1141.1,463.1h97.1v-.7h-97.1v.7Z" class="g0_2"/>
<path d="M1238.2,463.1h.8v-.7h-.8v.7Z" class="g0_2"/>
<path d="M47.1,514.4h.7V463.1h-.7v51.3Z" class="g0_2"/>
<path d="M198.4,514.4h.7V463.1h-.7v51.3Z" class="g0_2"/>
<path d="M393.2,514.4h.8V463.1h-.8v51.3Z" class="g0_2"/>
<path d="M826.5,514.4h.7V463.1h-.7v51.3Z" class="g0_2"/>
<path d="M1140.3,514.4h.8V463.1h-.8v51.3Z" class="g0_2"/>
<path d="M1238.2,514.4h.8V463.1h-.8v51.3Z" class="g0_2"/>
<path d="M47.1,515.2h.7v-.8h-.7v.8Z" class="g0_2"/>
<path d="M47.8,515.2H198.4v-.8H47.8v.8Z" class="g0_2"/>
<path d="M198.4,515.2h.7v-.8h-.7v.8Z" class="g0_2"/>
<path d="M199.1,515.2H393.3v-.8H199.1v.8Z" class="g0_2"/>
<path d="M393.2,515.2h.8v-.8h-.8v.8Z" class="g0_2"/>
<path d="M394,515.2H826.5v-.8H394v.8Z" class="g0_2"/>
<path d="M826.5,515.2h.7v-.8h-.7v.8Z" class="g0_2"/>
<path d="M827.2,515.2h313.1v-.8H827.2v.8Z" class="g0_2"/>
<path d="M1140.3,515.2h.8v-.8h-.8v.8Z" class="g0_2"/>
<path d="M1141.1,515.2h97.1v-.8h-97.1v.8Z" class="g0_2"/>
<path d="M1238.2,515.2h.8v-.8h-.8v.8Z" class="g0_2"/>
<path d="M47.1,541h.7V515.2h-.7V541Z" class="g0_2"/>
<path d="M198.4,541h.7V515.2h-.7V541Z" class="g0_2"/>
<path d="M393.2,541h.8V515.2h-.8V541Z" class="g0_2"/>
<path d="M826.5,541h.7V515.2h-.7V541Z" class="g0_2"/>
<path d="M1140.3,541h.8V515.2h-.8V541Z" class="g0_2"/>
<path d="M1238.2,541h.8V515.2h-.8V541Z" class="g0_2"/>
<path d="M47.1,541.8h.7V541h-.7v.8Z" class="g0_2"/>
<path d="M198.4,541.8h.7V541h-.7v.8Z" class="g0_2"/>
<path d="M393.2,541.8h.8V541h-.8v.8Z" class="g0_2"/>
<path d="M826.5,541.8h.7V541h-.7v.8Z" class="g0_2"/>
<path d="M827.2,541.8h313.1V541H827.2v.8Z" class="g0_2"/>
<path d="M1140.3,541.8h.8V541h-.8v.8Z" class="g0_2"/>
<path d="M1141.1,541.8h97.1V541h-97.1v.8Z" class="g0_2"/>
<path d="M1238.2,541.8h.8V541h-.8v.8Z" class="g0_2"/>
<path d="M47.1,567.8h.7V541.7h-.7v26.1Z" class="g0_2"/>
<path d="M198.4,567.8h.7V541.7h-.7v26.1Z" class="g0_2"/>
<path d="M393.2,567.8h.8V541.7h-.8v26.1Z" class="g0_2"/>
<path d="M826.5,567.8h.7V541.7h-.7v26.1Z" class="g0_2"/>
<path d="M1140.3,567.8h.8V541.7h-.8v26.1Z" class="g0_2"/>
<path d="M1238.2,567.8h.8V541.7h-.8v26.1Z" class="g0_2"/>
<path d="M47.1,568.5h.7v-.7h-.7v.7Z" class="g0_2"/>
<path d="M198.4,568.5h.7v-.7h-.7v.7Z" class="g0_2"/>
<path d="M393.2,568.5h.8v-.7h-.8v.7Z" class="g0_2"/>
<path d="M826.5,568.5h.7v-.7h-.7v.7Z" class="g0_2"/>
<path d="M827.2,568.5h313.1v-.7H827.2v.7Z" class="g0_2"/>
<path d="M1140.3,568.5h.8v-.7h-.8v.7Z" class="g0_2"/>
<path d="M1141.1,568.5h97.1v-.7h-97.1v.7Z" class="g0_2"/>
<path d="M1238.2,568.5h.8v-.7h-.8v.7Z" class="g0_2"/>
<path d="M47.1,594.6h.7V568.5h-.7v26.1Z" class="g0_2"/>
<path d="M198.4,594.6h.7V568.5h-.7v26.1Z" class="g0_2"/>
<path d="M393.2,594.6h.8V568.5h-.8v26.1Z" class="g0_2"/>
<path d="M826.5,594.6h.7V568.5h-.7v26.1Z" class="g0_2"/>
<path d="M1140.3,594.6h.8V568.5h-.8v26.1Z" class="g0_2"/>
<path d="M1238.2,594.6h.8V568.5h-.8v26.1Z" class="g0_2"/>
<path d="M47.1,595.3h.7v-.8h-.7v.8Z" class="g0_2"/>
<path d="M198.4,595.3h.7v-.8h-.7v.8Z" class="g0_2"/>
<path d="M393.2,595.3h.8v-.8h-.8v.8Z" class="g0_2"/>
<path d="M826.5,595.3h.7v-.8h-.7v.8Z" class="g0_2"/>
<path d="M827.2,595.3h313.1v-.8H827.2v.8Z" class="g0_2"/>
<path d="M1140.3,595.3h.8v-.8h-.8v.8Z" class="g0_2"/>
<path d="M1141.1,595.3h97.1v-.8h-97.1v.8Z" class="g0_2"/>
<path d="M1238.2,595.3h.8v-.8h-.8v.8Z" class="g0_2"/>
<path d="M47.1,621.3h.7v-26h-.7v26Z" class="g0_2"/>
<path d="M198.4,621.3h.7v-26h-.7v26Z" class="g0_2"/>
<path d="M393.2,621.3h.8v-26h-.8v26Z" class="g0_2"/>
<path d="M826.5,621.3h.7v-26h-.7v26Z" class="g0_2"/>
<path d="M1140.3,621.3h.8v-26h-.8v26Z" class="g0_2"/>
<path d="M1238.2,621.3h.8v-26h-.8v26Z" class="g0_2"/>
<path d="M47.1,622.1h.7v-.8h-.7v.8Z" class="g0_2"/>
<path d="M198.4,622.1h.7v-.8h-.7v.8Z" class="g0_2"/>
<path d="M393.2,622.1h.8v-.8h-.8v.8Z" class="g0_2"/>
<path d="M826.5,622.1h.7v-.8h-.7v.8Z" class="g0_2"/>
<path d="M827.2,622.1h313.1v-.8H827.2v.8Z" class="g0_2"/>
<path d="M1140.3,622.1h.8v-.8h-.8v.8Z" class="g0_2"/>
<path d="M1141.1,622.1h97.1v-.8h-97.1v.8Z" class="g0_2"/>
<path d="M1238.2,622.1h.8v-.8h-.8v.8Z" class="g0_2"/>
<path d="M47.1,673.2h.7V622.1h-.7v51.1Z" class="g0_2"/>
<path d="M198.4,673.2h.7V622.1h-.7v51.1Z" class="g0_2"/>
<path d="M393.2,673.2h.8V622.1h-.8v51.1Z" class="g0_2"/>
<path d="M826.5,673.2h.7V622.1h-.7v51.1Z" class="g0_2"/>
<path d="M1140.3,673.2h.8V622.1h-.8v51.1Z" class="g0_2"/>
<path d="M1238.2,673.2h.8V622.1h-.8v51.1Z" class="g0_2"/>
<path d="M47.1,673.9h.7v-.7h-.7v.7Z" class="g0_2"/>
<path d="M47.8,673.9H198.4v-.7H47.8v.7Z" class="g0_2"/>
<path d="M198.4,673.9h.7v-.7h-.7v.7Z" class="g0_2"/>
<path d="M199.1,673.9H393.3v-.7H199.1v.7Z" class="g0_2"/>
<path d="M393.2,673.9h.8v-.7h-.8v.7Z" class="g0_2"/>
<path d="M394,673.9H826.5v-.7H394v.7Z" class="g0_2"/>
<path d="M826.5,673.9h.7v-.7h-.7v.7Z" class="g0_2"/>
<path d="M827.2,673.9h313.1v-.7H827.2v.7Z" class="g0_2"/>
<path d="M1140.3,673.9h.8v-.7h-.8v.7Z" class="g0_2"/>
<path d="M1141.1,673.9h97.1v-.7h-97.1v.7Z" class="g0_2"/>
<path d="M1238.2,673.9h.8v-.7h-.8v.7Z" class="g0_2"/>
<path d="M47.1,700h.7V673.9h-.7V700Z" class="g0_2"/>
<path d="M198.4,700h.7V673.9h-.7V700Z" class="g0_2"/>
<path d="M393.2,700h.8V673.9h-.8V700Z" class="g0_2"/>
<path d="M826.5,700h.7V673.9h-.7V700Z" class="g0_2"/>
<path d="M1140.3,700h.8V673.9h-.8V700Z" class="g0_2"/>
<path d="M1238.2,700h.8V673.9h-.8V700Z" class="g0_2"/>
<path d="M47.1,700.7h.7V700h-.7v.7Z" class="g0_2"/>
<path d="M198.4,700.7h.7V700h-.7v.7Z" class="g0_2"/>
<path d="M393.2,700.7h.8V700h-.8v.7Z" class="g0_2"/>
<path d="M826.5,700.7h.7V700h-.7v.7Z" class="g0_2"/>
<path d="M827.2,700.7h313.1V700H827.2v.7Z" class="g0_2"/>
<path d="M1140.3,700.7h.8V700h-.8v.7Z" class="g0_2"/>
<path d="M1141.1,700.7h97.1V700h-97.1v.7Z" class="g0_2"/>
<path d="M1238.2,700.7h.8V700h-.8v.7Z" class="g0_2"/>
<path d="M47.1,726.7h.7v-26h-.7v26Z" class="g0_2"/>
<path d="M198.4,726.7h.7v-26h-.7v26Z" class="g0_2"/>
<path d="M393.2,726.7h.8v-26h-.8v26Z" class="g0_2"/>
<path d="M826.5,726.7h.7v-26h-.7v26Z" class="g0_2"/>
<path d="M1140.3,726.7h.8v-26h-.8v26Z" class="g0_2"/>
<path d="M1238.2,726.7h.8v-26h-.8v26Z" class="g0_2"/>
<path d="M47.1,727.5h.7v-.8h-.7v.8Z" class="g0_2"/>
<path d="M198.4,727.5h.7v-.8h-.7v.8Z" class="g0_2"/>
<path d="M393.2,727.5h.8v-.8h-.8v.8Z" class="g0_2"/>
<path d="M826.5,727.5h.7v-.8h-.7v.8Z" class="g0_2"/>
<path d="M827.2,727.5h313.1v-.8H827.2v.8Z" class="g0_2"/>
<path d="M1140.3,727.5h.8v-.8h-.8v.8Z" class="g0_2"/>
<path d="M1141.1,727.5h97.1v-.8h-97.1v.8Z" class="g0_2"/>
<path d="M1238.2,727.5h.8v-.8h-.8v.8Z" class="g0_2"/>
<path d="M47.1,753.5h.7v-26h-.7v26Z" class="g0_2"/>
<path d="M198.4,753.5h.7v-26h-.7v26Z" class="g0_2"/>
<path d="M393.2,753.5h.8v-26h-.8v26Z" class="g0_2"/>
<path d="M826.5,753.5h.7v-26h-.7v26Z" class="g0_2"/>
<path d="M1140.3,753.5h.8v-26h-.8v26Z" class="g0_2"/>
<path d="M1238.2,753.5h.8v-26h-.8v26Z" class="g0_2"/>
<path d="M47.1,754.2h.7v-.7h-.7v.7Z" class="g0_2"/>
<path d="M198.4,754.2h.7v-.7h-.7v.7Z" class="g0_2"/>
<path d="M393.2,754.2h.8v-.7h-.8v.7Z" class="g0_2"/>
<path d="M826.5,754.2h.7v-.7h-.7v.7Z" class="g0_2"/>
<path d="M827.2,754.2h313.1v-.7H827.2v.7Z" class="g0_2"/>
<path d="M1140.3,754.2h.8v-.7h-.8v.7Z" class="g0_2"/>
<path d="M1141.1,754.2h97.1v-.7h-97.1v.7Z" class="g0_2"/>
<path d="M1238.2,754.2h.8v-.7h-.8v.7Z" class="g0_2"/>
<path d="M47.1,780.3h.7V754.2h-.7v26.1Z" class="g0_2"/>
<path d="M198.4,780.3h.7V754.2h-.7v26.1Z" class="g0_2"/>
<path d="M393.2,780.3h.8V754.2h-.8v26.1Z" class="g0_2"/>
<path d="M826.5,780.3h.7V754.2h-.7v26.1Z" class="g0_2"/>
<path d="M1140.3,780.3h.8V754.2h-.8v26.1Z" class="g0_2"/>
<path d="M1238.2,780.3h.8V754.2h-.8v26.1Z" class="g0_2"/>
<path d="M47.1,781h.7v-.7h-.7v.7Z" class="g0_2"/>
<path d="M198.4,781h.7v-.7h-.7v.7Z" class="g0_2"/>
<path d="M393.2,781h.8v-.7h-.8v.7Z" class="g0_2"/>
<path d="M826.5,781h.7v-.7h-.7v.7Z" class="g0_2"/>
<path d="M827.2,781h313.1v-.7H827.2v.7Z" class="g0_2"/>
<path d="M1140.3,781h.8v-.7h-.8v.7Z" class="g0_2"/>
<path d="M1141.1,781h97.1v-.7h-97.1v.7Z" class="g0_2"/>
<path d="M1238.2,781h.8v-.7h-.8v.7Z" class="g0_2"/>
<path d="M47.1,832.2h.7V781h-.7v51.2Z" class="g0_2"/>
<path d="M47.1,832.9h.7v-.8h-.7v.8Z" class="g0_2"/>
<path d="M47.1,832.9h.7v-.8h-.7v.8Z" class="g0_2"/>
<path d="M47.8,832.9H198.4v-.8H47.8v.8Z" class="g0_2"/>
<path d="M198.4,832.2h.7V781h-.7v51.2Z" class="g0_2"/>
<path d="M198.4,832.9h.7v-.8h-.7v.8Z" class="g0_2"/>
<path d="M199.1,832.9H393.3v-.8H199.1v.8Z" class="g0_2"/>
<path d="M393.2,832.2h.8V781h-.8v51.2Z" class="g0_2"/>
<path d="M393.2,832.9h.8v-.8h-.8v.8Z" class="g0_2"/>
<path d="M394,832.9H826.5v-.8H394v.8Z" class="g0_2"/>
<path d="M826.5,832.2h.7V781h-.7v51.2Z" class="g0_2"/>
<path d="M826.5,832.9h.7v-.8h-.7v.8Z" class="g0_2"/>
<path d="M827.2,832.9h313.1v-.8H827.2v.8Z" class="g0_2"/>
<path d="M1140.3,832.2h.8V781h-.8v51.2Z" class="g0_2"/>
<path d="M1140.3,832.9h.8v-.8h-.8v.8Z" class="g0_2"/>
<path d="M1141.1,832.9h97.1v-.8h-97.1v.8Z" class="g0_2"/>
<path d="M1238.2,832.2h.8V781h-.8v51.2Z" class="g0_2"/>
<path d="M1238.2,832.9h.8v-.8h-.8v.8Z" class="g0_2"/>
<path d="M1238.2,832.9h.8v-.8h-.8v.8Z" class="g0_2"/>
</svg>