<?xml version="1.0" encoding="UTF-8" standalone="no"?>
<!DOCTYPE svg PUBLIC "-//W3C//DTD SVG 1.1//EN"
"http://www.w3.org/Graphics/SVG/1.1/DTD/svg11.dtd">
<svg viewBox="0 0 1286 909" version="1.1" xmlns="http://www.w3.org/2000/svg" xmlns:xlink="http://www.w3.org/1999/xlink">
<defs>
<style type="text/css"><![CDATA[
.g0{
fill: #D9D9D9;
}
.g1{
}
]]></style>
</defs>
<path fill-rule="evenodd" d="M47.8,156.6h85.7V134.9H47.8v21.7Z" class="g0"/>
<path fill-rule="evenodd" d="M55.7,154.6h69.9V137H55.7v17.6Z" class="g0"/>
<path fill-rule="evenodd" d="M134.2,156.6H252.6V134.9H134.2v21.7Z" class="g0"/>
<path fill-rule="evenodd" d="M142.1,154.6H244.7V137H142.1v17.6Z" class="g0"/>
<path fill-rule="evenodd" d="M253.4,156.6H978.1V134.9H253.4v21.7Z" class="g0"/>
<path fill-rule="evenodd" d="M261.3,154.6H970.2V137H261.3v17.6Z" class="g0"/>
<path fill-rule="evenodd" d="M978.8,156.6h183.3V134.9H978.8v21.7Z" class="g0"/>
<path fill-rule="evenodd" d="M986.7,154.6h167.6V137H986.7v17.6Z" class="g0"/>
<path fill-rule="evenodd" d="M1162.9,156.6h75.3V134.9h-75.3v21.7Z" class="g0"/>
<path fill-rule="evenodd" d="M1170.8,154.6h59.6V137h-59.6v17.6Z" class="g0"/>
<path d="M47.1,134.9h.7v-.7h-.7v.7Z" class="g1"/>
<path d="M47.1,134.9h.7v-.7h-.7v.7Z" class="g1"/>
<path d="M47.8,134.9h85.7v-.7H47.8v.7Z" class="g1"/>
<path d="M133.5,134.9h.7v-.7h-.7v.7Z" class="g1"/>
<path d="M134.2,134.9H252.6v-.7H134.2v.7Z" class="g1"/>
<path d="M252.6,134.9h.8v-.7h-.8v.7Z" class="g1"/>
<path d="M253.4,134.9H978.1v-.7H253.4v.7Z" class="g1"/>
<path d="M978.1,134.9h.7v-.7h-.7v.7Z" class="g1"/>
<path d="M978.8,134.9h183.3v-.7H978.8v.7Z" class="g1"/>
<path d="M1162.1,134.9h.8v-.7h-.8v.7Z" class="g1"/>
<path d="M1162.9,134.9h75.3v-.7h-75.3v.7Z" class="g1"/>
<path d="M1238.2,134.9h.8v-.7h-.8v.7Z" class="g1"/>
<path d="M1238.2,134.9h.8v-.7h-.8v.7Z" class="g1"/>
<path d="M47.1,156.6h.7V134.9h-.7v21.7Z" class="g1"/>
<path d="M133.5,156.6h.7V134.9h-.7v21.7Z" class="g1"/>
<path d="M252.6,156.6h.8V134.9h-.8v21.7Z" class="g1"/>
<path d="M978.1,156.6h.7V134.9h-.7v21.7Z" class="g1"/>
<path d="M1162.1,156.6h.8V134.9h-.8v21.7Z" class="g1"/>
<path d="M1238.2,156.6h.8V134.9h-.8v21.7Z" class="g1"/>
<path d="M47.1,157.3h.7v-.7h-.7v.7Z" class="g1"/>
<path d="M47.8,157.3h85.7v-.7H47.8v.7Z" class="g1"/>
<path d="M133.5,157.3h.7v-.7h-.7v.7Z" class="g1"/>
<path d="M134.2,157.3H252.6v-.7H134.2v.7Z" class="g1"/>
<path d="M252.6,157.3h.8v-.7h-.8v.7Z" class="g1"/>
<path d="M253.4,157.3H978.1v-.7H253.4v.7Z" class="g1"/>
<path d="M978.1,157.3h.7v-.7h-.7v.7Z" class="g1"/>
<path d="M978.8,157.3h183.3v-.7H978.8v.7Z" class="g1"/>
<path d="M1162.1,157.3h.8v-.7h-.8v.7Z" class="g1"/>
<path d="M1162.9,157.3h75.3v-.7h-75.3v.7Z" class="g1"/>
<path d="M1238.2,157.3h.8v-.7h-.8v.7Z" class="g1"/>
<path d="M47.1,179.1h.7V157.3h-.7v21.8Z" class="g1"/>
<path d="M133.5,179.1h.7V157.3h-.7v21.8Z" class="g1"/>
<path d="M252.6,179.1h.8V157.3h-.8v21.8Z" class="g1"/>
<path d="M978.1,179.1h.7V157.3h-.7v21.8Z" class="g1"/>
<path d="M1162.1,179.1h.8V157.3h-.8v21.8Z" class="g1"/>
<path d="M1238.2,179.1h.8V157.3h-.8v21.8Z" class="g1"/>
<path d="M47.1,179.9h.7v-.8h-.7v.8Z" class="g1"/>
<path d="M133.5,179.9h.7v-.8h-.7v.8Z" class="g1"/>
<path d="M252.6,179.9h.8v-.8h-.8v.8Z" class="g1"/>
<path d="M978.1,179.9h.7v-.8h-.7v.8Z" class="g1"/>
<path d="M978.8,179.9h183.3v-.8H978.8v.8Z" class="g1"/>
<path d="M1162.1,179.9h.8v-.8h-.8v.8Z" class="g1"/>
<path d="M1162.9,179.9h75.3v-.8h-75.3v.8Z" class="g1"/>
<path d="M1238.2,179.9h.8v-.8h-.8v.8Z" class="g1"/>
<path d="M47.1,201.5h.7V179.8h-.7v21.7Z" class="g1"/>
<path d="M133.5,201.5h.7V179.8h-.7v21.7Z" class="g1"/>
<path d="M252.6,201.5h.8V179.8h-.8v21.7Z" class="g1"/>
<path d="M978.1,201.5h.7V179.8h-.7v21.7Z" class="g1"/>
<path d="M1162.1,201.5h.8V179.8h-.8v21.7Z" class="g1"/>
<path d="M1238.2,201.5h.8V179.8h-.8v21.7Z" class="g1"/>
<path d="M47.1,202.2h.7v-.7h-.7v.7Z" class="g1"/>
<path d="M133.5,202.2h.7v-.7h-.7v.7Z" class="g1"/>
<path d="M252.6,202.2h.8v-.7h-.8v.7Z" class="g1"/>
<path d="M978.1,202.2h.7v-.7h-.7v.7Z" class="g1"/>
<path d="M978.8,202.2h183.3v-.7H978.8v.7Z" class="g1"/>
<path d="M1162.1,202.2h.8v-.7h-.8v.7Z" class="g1"/>
<path d="M1162.9,202.2h75.3v-.7h-75.3v.7Z" class="g1"/>
<path d="M1238.2,202.2h.8v-.7h-.8v.7Z" class="g1"/>
<path d="M47.1,224h.7V202.2h-.7V224Z" class="g1"/>
<path d="M133.5,224h.7V202.2h-.7V224Z" class="g1"/>
<path d="M252.6,224h.8V202.2h-.8V224Z" class="g1"/>
<path d="M978.1,224h.7V202.2h-.7V224Z" class="g1"/>
<path d="M1162.1,224h.8V202.2h-.8V224Z" class="g1"/>
<path d="M1238.2,224h.8V202.2h-.8V224Z" class="g1"/>
<path d="M47.1,224.8h.7V224h-.7v.8Z" class="g1"/>
<path d="M133.5,224.8h.7V224h-.7v.8Z" class="g1"/>
<path d="M252.6,224.8h.8V224h-.8v.8Z" class="g1"/>
<path d="M978.1,224.8h.7V224h-.7v.8Z" class="g1"/>
<path d="M978.8,224.8h183.3V224H978.8v.8Z" class="g1"/>
<path d="M1162.1,224.8h.8V224h-.8v.8Z" class="g1"/>
<path d="M1162.9,224.8h75.3V224h-75.3v.8Z" class="g1"/>
<path d="M1238.2,224.8h.8V224h-.8v.8Z" class="g1"/>
<path d="M47.1,246.4h.7V224.8h-.7v21.6Z" class="g1"/>
<path d="M133.5,246.4h.7V224.8h-.7v21.6Z" class="g1"/>
<path d="M252.6,246.4h.8V224.8h-.8v21.6Z" class="g1"/>
<path d="M978.1,246.4h.7V224.8h-.7v21.6Z" class="g1"/>
<path d="M1162.1,246.4h.8V224.8h-.8v21.6Z" class="g1"/>
<path d="M1238.2,246.4h.8V224.8h-.8v21.6Z" class="g1"/>
<path d="M47.1,247.1h.7v-.7h-.7v.7Z" class="g1"/>
<path d="M133.5,247.1h.7v-.7h-.7v.7Z" class="g1"/>
<path d="M252.6,247.1h.8v-.7h-.8v.7Z" class="g1"/>
<path d="M978.1,247.1h.7v-.7h-.7v.7Z" class="g1"/>
<path d="M978.8,247.1h183.3v-.7H978.8v.7Z" class="g1"/>
<path d="M1162.1,247.1h.8v-.7h-.8v.7Z" class="g1"/>
<path d="M1162.9,247.1h75.3v-.7h-75.3v.7Z" class="g1"/>
<path d="M1238.2,247.1h.8v-.7h-.8v.7Z" class="g1"/>
<path d="M47.1,269h.7V247.1h-.7V269Z" class="g1"/>
<path d="M133.5,269h.7V247.1h-.7V269Z" class="g1"/>
<path d="M252.6,269h.8V247.1h-.8V269Z" class="g1"/>
<path d="M978.1,269h.7V247.1h-.7V269Z" class="g1"/>
<path d="M1162.1,269h.8V247.1h-.8V269Z" class="g1"/>
<path d="M1238.2,269h.8V247.1h-.8V269Z" class="g1"/>
<path d="M47.1,269.7h.7v-.8h-.7v.8Z" class="g1"/>
<path d="M47.8,269.7h85.7v-.8H47.8v.8Z" class="g1"/>
<path d="M133.5,269.7h.7v-.8h-.7v.8Z" class="g1"/>
<path d="M134.2,269.7H252.6v-.8H134.2v.8Z" class="g1"/>
<path d="M252.6,269.7h.8v-.8h-.8v.8Z" class="g1"/>
<path d="M253.4,269.7H978.1v-.8H253.4v.8Z" class="g1"/>
<path d="M978.1,269.7h.7v-.8h-.7v.8Z" class="g1"/>
<path d="M978.8,269.7h183.3v-.8H978.8v.8Z" class="g1"/>
<path d="M1162.1,269.7h.8v-.8h-.8v.8Z" class="g1"/>
<path d="M1162.9,269.7h75.3v-.8h-75.3v.8Z" class="g1"/>
<path d="M1238.2,269.7h.8v-.8h-.8v.8Z" class="g1"/>
<path d="M47.1,291.3h.7V269.7h-.7v21.6Z" class="g1"/>
<path d="M133.5,291.3h.7V269.7h-.7v21.6Z" class="g1"/>
<path d="M252.6,291.3h.8V269.7h-.8v21.6Z" class="g1"/>
<path d="M978.1,291.3h.7V269.7h-.7v21.6Z" class="g1"/>
<path d="M1162.1,291.3h.8V269.7h-.8v21.6Z" class="g1"/>
<path d="M1238.2,291.3h.8V269.7h-.8v21.6Z" class="g1"/>
<path d="M47.1,292.1h.7v-.8h-.7v.8Z" class="g1"/>
<path d="M133.5,292.1h.7v-.8h-.7v.8Z" class="g1"/>
<path d="M252.6,292.1h.8v-.8h-.8v.8Z" class="g1"/>
<path d="M978.1,292.1h.7v-.8h-.7v.8Z" class="g1"/>
<path d="M978.8,292.1h183.3v-.8H978.8v.8Z" class="g1"/>
<path d="M1162.1,292.1h.8v-.8h-.8v.8Z" class="g1"/>
<path d="M1162.9,292.1h75.3v-.8h-75.3v.8Z" class="g1"/>
<path d="M1238.2,292.1h.8v-.8h-.8v.8Z" class="g1"/>
<path d="M47.1,313.9h.7V292.1h-.7v21.8Z" class="g1"/>
<path d="M133.5,313.9h.7V292.1h-.7v21.8Z" class="g1"/>
<path d="M252.6,313.9h.8V292.1h-.8v21.8Z" class="g1"/>
<path d="M978.1,313.9h.7V292.1h-.7v21.8Z" class="g1"/>
<path d="M1162.1,313.9h.8V292.1h-.8v21.8Z" class="g1"/>
<path d="M1238.2,313.9h.8V292.1h-.8v21.8Z" class="g1"/>
<path d="M47.1,314.6h.7v-.7h-.7v.7Z" class="g1"/>
<path d="M133.5,314.6h.7v-.7h-.7v.7Z" class="g1"/>
<path d="M252.6,314.6h.8v-.7h-.8v.7Z" class="g1"/>
<path d="M978.1,314.6h.7v-.7h-.7v.7Z" class="g1"/>
<path d="M978.8,314.6h183.3v-.7H978.8v.7Z" class="g1"/>
<path d="M1162.1,314.6h.8v-.7h-.8v.7Z" class="g1"/>
<path d="M1162.9,314.6h75.3v-.7h-75.3v.7Z" class="g1"/>
<path d="M1238.2,314.6h.8v-.7h-.8v.7Z" class="g1"/>
<path d="M47.1,336.2h.7V314.6h-.7v21.6Z" class="g1"/>
<path d="M133.5,336.2h.7V314.6h-.7v21.6Z" class="g1"/>
<path d="M252.6,336.2h.8V314.6h-.8v21.6Z" class="g1"/>
<path d="M978.1,336.2h.7V314.6h-.7v21.6Z" class="g1"/>
<path d="M1162.1,336.2h.8V314.6h-.8v21.6Z" class="g1"/>
<path d="M1238.2,336.2h.8V314.6h-.8v21.6Z" class="g1"/>
<path d="M47.1,337h.7v-.8h-.7v.8Z" class="g1"/>
<path d="M133.5,337h.7v-.8h-.7v.8Z" class="g1"/>
<path d="M252.6,337h.8v-.8h-.8v.8Z" class="g1"/>
<path d="M978.1,337h.7v-.8h-.7v.8Z" class="g1"/>
<path d="M978.8,337h183.3v-.8H978.8v.8Z" class="g1"/>
<path d="M1162.1,337h.8v-.8h-.8v.8Z" class="g1"/>
<path d="M1162.9,337h75.3v-.8h-75.3v.8Z" class="g1"/>
<path d="M1238.2,337h.8v-.8h-.8v.8Z" class="g1"/>
<path d="M47.1,358.8h.7V337h-.7v21.8Z" class="g1"/>
<path d="M133.5,358.8h.7V337h-.7v21.8Z" class="g1"/>
<path d="M252.6,358.8h.8V337h-.8v21.8Z" class="g1"/>
<path d="M978.1,358.8h.7V337h-.7v21.8Z" class="g1"/>
<path d="M1162.1,358.8h.8V337h-.8v21.8Z" class="g1"/>
<path d="M1238.2,358.8h.8V337h-.8v21.8Z" class="g1"/>
<path d="M47.1,359.5h.7v-.7h-.7v.7Z" class="g1"/>
<path d="M133.5,359.5h.7v-.7h-.7v.7Z" class="g1"/>
<path d="M252.6,359.5h.8v-.7h-.8v.7Z" class="g1"/>
<path d="M978.1,359.5h.7v-.7h-.7v.7Z" class="g1"/>
<path d="M978.8,359.5h183.3v-.7H978.8v.7Z" class="g1"/>
<path d="M1162.1,359.5h.8v-.7h-.8v.7Z" class="g1"/>
<path d="M1162.9,359.5h75.3v-.7h-75.3v.7Z" class="g1"/>
<path d="M1238.2,359.5h.8v-.7h-.8v.7Z" class="g1"/>
<path d="M47.1,381.2h.7V359.5h-.7v21.7Z" class="g1"/>
<path d="M133.5,381.2h.7V359.5h-.7v21.7Z" class="g1"/>
<path d="M252.6,381.2h.8V359.5h-.8v21.7Z" class="g1"/>
<path d="M978.1,381.2h.7V359.5h-.7v21.7Z" class="g1"/>
<path d="M1162.1,381.2h.8V359.5h-.8v21.7Z" class="g1"/>
<path d="M1238.2,381.2h.8V359.5h-.8v21.7Z" class="g1"/>
<path d="M47.1,381.9h.7v-.8h-.7v.8Z" class="g1"/>
<path d="M47.8,381.9h85.7v-.8H47.8v.8Z" class="g1"/>
<path d="M133.5,381.9h.7v-.8h-.7v.8Z" class="g1"/>
<path d="M134.2,381.9H252.6v-.8H134.2v.8Z" class="g1"/>
<path d="M252.6,381.9h.8v-.8h-.8v.8Z" class="g1"/>
<path d="M253.4,381.9H978.1v-.8H253.4v.8Z" class="g1"/>
<path d="M978.1,381.9h.7v-.8h-.7v.8Z" class="g1"/>
<path d="M978.8,381.9h183.3v-.8H978.8v.8Z" class="g1"/>
<path d="M1162.1,381.9h.8v-.8h-.8v.8Z" class="g1"/>
<path d="M1162.9,381.9h75.3v-.8h-75.3v.8Z" class="g1"/>
<path d="M1238.2,381.9h.8v-.8h-.8v.8Z" class="g1"/>
<path d="M47.1,403.7h.7V381.9h-.7v21.8Z" class="g1"/>
<path d="M133.5,403.7h.7V381.9h-.7v21.8Z" class="g1"/>
<path d="M252.6,403.7h.8V381.9h-.8v21.8Z" class="g1"/>
<path d="M978.1,403.7h.7V381.9h-.7v21.8Z" class="g1"/>
<path d="M1162.1,403.7h.8V381.9h-.8v21.8Z" class="g1"/>
<path d="M1238.2,403.7h.8V381.9h-.8v21.8Z" class="g1"/>
<path d="M47.1,404.4h.7v-.7h-.7v.7Z" class="g1"/>
<path d="M133.5,404.4h.7v-.7h-.7v.7Z" class="g1"/>
<path d="M252.6,404.4h.8v-.7h-.8v.7Z" class="g1"/>
<path d="M978.1,404.4h.7v-.7h-.7v.7Z" class="g1"/>
<path d="M978.8,404.4h183.3v-.7H978.8v.7Z" class="g1"/>
<path d="M1162.1,404.4h.8v-.7h-.8v.7Z" class="g1"/>
<path d="M1162.9,404.4h75.3v-.7h-75.3v.7Z" class="g1"/>
<path d="M1238.2,404.4h.8v-.7h-.8v.7Z" class="g1"/>
<path d="M47.1,426.1h.7V404.4h-.7v21.7Z" class="g1"/>
<path d="M133.5,426.1h.7V404.4h-.7v21.7Z" class="g1"/>
<path d="M252.6,426.1h.8V404.4h-.8v21.7Z" class="g1"/>
<path d="M978.1,426.1h.7V404.4h-.7v21.7Z" class="g1"/>
<path d="M1162.1,426.1h.8V404.4h-.8v21.7Z" class="g1"/>
<path d="M1238.2,426.1h.8V404.4h-.8v21.7Z" class="g1"/>
<path d="M47.1,426.8h.7v-.7h-.7v.7Z" class="g1"/>
<path d="M133.5,426.8h.7v-.7h-.7v.7Z" class="g1"/>
<path d="M252.6,426.8h.8v-.7h-.8v.7Z" class="g1"/>
<path d="M978.1,426.8h.7v-.7h-.7v.7Z" class="g1"/>
<path d="M978.8,426.8h183.3v-.7H978.8v.7Z" class="g1"/>
<path d="M1162.1,426.8h.8v-.7h-.8v.7Z" class="g1"/>
<path d="M1162.9,426.8h75.3v-.7h-75.3v.7Z" class="g1"/>
<path d="M1238.2,426.8h.8v-.7h-.8v.7Z" class="g1"/>
<path d="M47.1,448.6h.7V426.8h-.7v21.8Z" class="g1"/>
<path d="M133.5,448.6h.7V426.8h-.7v21.8Z" class="g1"/>
<path d="M252.6,448.6h.8V426.8h-.8v21.8Z" class="g1"/>
<path d="M978.1,448.6h.7V426.8h-.7v21.8Z" class="g1"/>
<path d="M1162.1,448.6h.8V426.8h-.8v21.8Z" class="g1"/>
<path d="M1238.2,448.6h.8V426.8h-.8v21.8Z" class="g1"/>
<path d="M47.1,449.3h.7v-.7h-.7v.7Z" class="g1"/>
<path d="M133.5,449.3h.7v-.7h-.7v.7Z" class="g1"/>
<path d="M252.6,449.3h.8v-.7h-.8v.7Z" class="g1"/>
<path d="M978.1,449.3h.7v-.7h-.7v.7Z" class="g1"/>
<path d="M978.8,449.3h183.3v-.7H978.8v.7Z" class="g1"/>
<path d="M1162.1,449.3h.8v-.7h-.8v.7Z" class="g1"/>
<path d="M1162.9,449.3h75.3v-.7h-75.3v.7Z" class="g1"/>
<path d="M1238.2,449.3h.8v-.7h-.8v.7Z" class="g1"/>
<path d="M47.1,471h.7V449.3h-.7V471Z" class="g1"/>
<path d="M133.5,471h.7V449.3h-.7V471Z" class="g1"/>
<path d="M252.6,471h.8V449.3h-.8V471Z" class="g1"/>
<path d="M978.1,471h.7V449.3h-.7V471Z" class="g1"/>
<path d="M1162.1,471h.8V449.3h-.8V471Z" class="g1"/>
<path d="M1238.2,471h.8V449.3h-.8V471Z" class="g1"/>
<path d="M47.1,471.7h.7V471h-.7v.7Z" class="g1"/>
<path d="M133.5,471.7h.7V471h-.7v.7Z" class="g1"/>
<path d="M252.6,471.7h.8V471h-.8v.7Z" class="g1"/>
<path d="M978.1,471.7h.7V471h-.7v.7Z" class="g1"/>
<path d="M978.8,471.7h183.3V471H978.8v.7Z" class="g1"/>
<path d="M1162.1,471.7h.8V471h-.8v.7Z" class="g1"/>
<path d="M1162.9,471.7h75.3V471h-75.3v.7Z" class="g1"/>
<path d="M1238.2,471.7h.8V471h-.8v.7Z" class="g1"/>
<path d="M47.1,493.5h.7V471.7h-.7v21.8Z" class="g1"/>
<path d="M133.5,493.5h.7V471.7h-.7v21.8Z" class="g1"/>
<path d="M252.6,493.5h.8V471.7h-.8v21.8Z" class="g1"/>
<path d="M978.1,493.5h.7V471.7h-.7v21.8Z" class="g1"/>
<path d="M1162.1,493.5h.8V471.7h-.8v21.8Z" class="g1"/>
<path d="M1238.2,493.5h.8V471.7h-.8v21.8Z" class="g1"/>
<path d="M47.1,494.3h.7v-.8h-.7v.8Z" class="g1"/>
<path d="M47.8,494.3h85.7v-.8H47.8v.8Z" class="g1"/>
<path d="M133.5,494.3h.7v-.8h-.7v.8Z" class="g1"/>
<path d="M134.2,494.3H252.6v-.8H134.2v.8Z" class="g1"/>
<path d="M252.6,494.3h.8v-.8h-.8v.8Z" class="g1"/>
<path d="M253.4,494.3H978.1v-.8H253.4v.8Z" class="g1"/>
<path d="M978.1,494.3h.7v-.8h-.7v.8Z" class="g1"/>
<path d="M978.8,494.3h183.3v-.8H978.8v.8Z" class="g1"/>
<path d="M1162.1,494.3h.8v-.8h-.8v.8Z" class="g1"/>
<path d="M1162.9,494.3h75.3v-.8h-75.3v.8Z" class="g1"/>
<path d="M1238.2,494.3h.8v-.8h-.8v.8Z" class="g1"/>
<path d="M47.1,515.9h.7V494.3h-.7v21.6Z" class="g1"/>
<path d="M133.5,515.9h.7V494.3h-.7v21.6Z" class="g1"/>
<path d="M252.6,515.9h.8V494.3h-.8v21.6Z" class="g1"/>
<path d="M978.1,515.9h.7V494.3h-.7v21.6Z" class="g1"/>
<path d="M1162.1,515.9h.8V494.3h-.8v21.6Z" class="g1"/>
<path d="M1238.2,515.9h.8V494.3h-.8v21.6Z" class="g1"/>
<path d="M47.1,516.6h.7v-.7h-.7v.7Z" class="g1"/>
<path d="M133.5,516.6h.7v-.7h-.7v.7Z" class="g1"/>
<path d="M252.6,516.6h.8v-.7h-.8v.7Z" class="g1"/>
<path d="M978.1,516.6h.7v-.7h-.7v.7Z" class="g1"/>
<path d="M978.8,516.6h183.3v-.7H978.8v.7Z" class="g1"/>
<path d="M1162.1,516.6h.8v-.7h-.8v.7Z" class="g1"/>
<path d="M1162.9,516.6h75.3v-.7h-75.3v.7Z" class="g1"/>
<path d="M1238.2,516.6h.8v-.7h-.8v.7Z" class="g1"/>
<path d="M47.1,538.3h.7V516.6h-.7v21.7Z" class="g1"/>
<path d="M133.5,538.3h.7V516.6h-.7v21.7Z" class="g1"/>
<path d="M252.6,538.3h.8V516.6h-.8v21.7Z" class="g1"/>
<path d="M978.1,538.3h.7V516.6h-.7v21.7Z" class="g1"/>
<path d="M1162.1,538.3h.8V516.6h-.8v21.7Z" class="g1"/>
<path d="M1238.2,538.3h.8V516.6h-.8v21.7Z" class="g1"/>
<path d="M47.1,539h.7v-.7h-.7v.7Z" class="g1"/>
<path d="M47.8,539h85.7v-.7H47.8v.7Z" class="g1"/>
<path d="M133.5,539h.7v-.7h-.7v.7Z" class="g1"/>
<path d="M134.2,539H252.6v-.7H134.2v.7Z" class="g1"/>
<path d="M252.6,539h.8v-.7h-.8v.7Z" class="g1"/>
<path d="M253.4,539H978.1v-.7H253.4v.7Z" class="g1"/>
<path d="M978.1,539h.7v-.7h-.7v.7Z" class="g1"/>
<path d="M978.8,539h183.3v-.7H978.8v.7Z" class="g1"/>
<path d="M1162.1,539h.8v-.7h-.8v.7Z" class="g1"/>
<path d="M1162.9,539h75.3v-.7h-75.3v.7Z" class="g1"/>
<path d="M1238.2,539h.8v-.7h-.8v.7Z" class="g1"/>
<path d="M47.1,560.8h.7V539h-.7v21.8Z" class="g1"/>
<path d="M133.5,560.8h.7V539h-.7v21.8Z" class="g1"/>
<path d="M252.6,560.8h.8V539h-.8v21.8Z" class="g1"/>
<path d="M978.1,560.8h.7V539h-.7v21.8Z" class="g1"/>
<path d="M1162.1,560.8h.8V539h-.8v21.8Z" class="g1"/>
<path d="M1238.2,560.8h.8V539h-.8v21.8Z" class="g1"/>
<path d="M47.1,561.6h.7v-.8h-.7v.8Z" class="g1"/>
<path d="M133.5,561.6h.7v-.8h-.7v.8Z" class="g1"/>
<path d="M252.6,561.6h.8v-.8h-.8v.8Z" class="g1"/>
<path d="M978.1,561.6h.7v-.8h-.7v.8Z" class="g1"/>
<path d="M978.8,561.6h183.3v-.8H978.8v.8Z" class="g1"/>
<path d="M1162.1,561.6h.8v-.8h-.8v.8Z" class="g1"/>
<path d="M1162.9,561.6h75.3v-.8h-75.3v.8Z" class="g1"/>
<path d="M1238.2,561.6h.8v-.8h-.8v.8Z" class="g1"/>
<path d="M47.1,583.2h.7V561.5h-.7v21.7Z" class="g1"/>
<path d="M133.5,583.2h.7V561.5h-.7v21.7Z" class="g1"/>
<path d="M252.6,583.2h.8V561.5h-.8v21.7Z" class="g1"/>
<path d="M978.1,583.2h.7V561.5h-.7v21.7Z" class="g1"/>
<path d="M1162.1,583.2h.8V561.5h-.8v21.7Z" class="g1"/>
<path d="M1238.2,583.2h.8V561.5h-.8v21.7Z" class="g1"/>
<path d="M47.1,583.9h.7v-.7h-.7v.7Z" class="g1"/>
<path d="M133.5,583.9h.7v-.7h-.7v.7Z" class="g1"/>
<path d="M252.6,583.9h.8v-.7h-.8v.7Z" class="g1"/>
<path d="M978.1,583.9h.7v-.7h-.7v.7Z" class="g1"/>
<path d="M978.8,583.9h183.3v-.7H978.8v.7Z" class="g1"/>
<path d="M1162.1,583.9h.8v-.7h-.8v.7Z" class="g1"/>
<path d="M1162.9,583.9h75.3v-.7h-75.3v.7Z" class="g1"/>
<path d="M1238.2,583.9h.8v-.7h-.8v.7Z" class="g1"/>
<path d="M47.1,605.7h.7V583.9h-.7v21.8Z" class="g1"/>
<path d="M133.5,605.7h.7V583.9h-.7v21.8Z" class="g1"/>
<path d="M252.6,605.7h.8V583.9h-.8v21.8Z" class="g1"/>
<path d="M978.1,605.7h.7V583.9h-.7v21.8Z" class="g1"/>
<path d="M1162.1,605.7h.8V583.9h-.8v21.8Z" class="g1"/>
<path d="M1238.2,605.7h.8V583.9h-.8v21.8Z" class="g1"/>
<path d="M47.1,606.5h.7v-.8h-.7v.8Z" class="g1"/>
<path d="M133.5,606.5h.7v-.8h-.7v.8Z" class="g1"/>
<path d="M252.6,606.5h.8v-.8h-.8v.8Z" class="g1"/>
<path d="M978.1,606.5h.7v-.8h-.7v.8Z" class="g1"/>
<path d="M978.8,606.5h183.3v-.8H978.8v.8Z" class="g1"/>
<path d="M1162.1,606.5h.8v-.8h-.8v.8Z" class="g1"/>
<path d="M1162.9,606.5h75.3v-.8h-75.3v.8Z" class="g1"/>
<path d="M1238.2,606.5h.8v-.8h-.8v.8Z" class="g1"/>
<path d="M47.1,628.1h.7V606.5h-.7v21.6Z" class="g1"/>
<path d="M133.5,628.1h.7V606.5h-.7v21.6Z" class="g1"/>
<path d="M252.6,628.1h.8V606.5h-.8v21.6Z" class="g1"/>
<path d="M978.1,628.1h.7V606.5h-.7v21.6Z" class="g1"/>
<path d="M1162.1,628.1h.8V606.5h-.8v21.6Z" class="g1"/>
<path d="M1238.2,628.1h.8V606.5h-.8v21.6Z" class="g1"/>
<path d="M47.1,628.8h.7v-.7h-.7v.7Z" class="g1"/>
<path d="M133.5,628.8h.7v-.7h-.7v.7Z" class="g1"/>
<path d="M252.6,628.8h.8v-.7h-.8v.7Z" class="g1"/>
<path d="M978.1,628.8h.7v-.7h-.7v.7Z" class="g1"/>
<path d="M978.8,628.8h183.3v-.7H978.8v.7Z" class="g1"/>
<path d="M1162.1,628.8h.8v-.7h-.8v.7Z" class="g1"/>
<path d="M1162.9,628.8h75.3v-.7h-75.3v.7Z" class="g1"/>
<path d="M1238.2,628.8h.8v-.7h-.8v.7Z" class="g1"/>
<path d="M47.1,650.7h.7V628.8h-.7v21.9Z" class="g1"/>
<path d="M133.5,650.7h.7V628.8h-.7v21.9Z" class="g1"/>
<path d="M252.6,650.7h.8V628.8h-.8v21.9Z" class="g1"/>
<path d="M978.1,650.7h.7V628.8h-.7v21.9Z" class="g1"/>
<path d="M1162.1,650.7h.8V628.8h-.8v21.9Z" class="g1"/>
<path d="M1238.2,650.7h.8V628.8h-.8v21.9Z" class="g1"/>
<path d="M47.1,651.4h.7v-.8h-.7v.8Z" class="g1"/>
<path d="M47.8,651.4h85.7v-.8H47.8v.8Z" class="g1"/>
<path d="M133.5,651.4h.7v-.8h-.7v.8Z" class="g1"/>
<path d="M134.2,651.4H252.6v-.8H134.2v.8Z" class="g1"/>
<path d="M252.6,651.4h.8v-.8h-.8v.8Z" class="g1"/>
<path d="M253.4,651.4H978.1v-.8H253.4v.8Z" class="g1"/>
<path d="M978.1,651.4h.7v-.8h-.7v.8Z" class="g1"/>
<path d="M978.8,651.4h183.3v-.8H978.8v.8Z" class="g1"/>
<path d="M1162.1,651.4h.8v-.8h-.8v.8Z" class="g1"/>
<path d="M1162.9,651.4h75.3v-.8h-75.3v.8Z" class="g1"/>
<path d="M1238.2,651.4h.8v-.8h-.8v.8Z" class="g1"/>
<path d="M47.1,673h.7V651.4h-.7V673Z" class="g1"/>
<path d="M133.5,673h.7V651.4h-.7V673Z" class="g1"/>
<path d="M252.6,673h.8V651.4h-.8V673Z" class="g1"/>
<path d="M978.1,673h.7V651.4h-.7V673Z" class="g1"/>
<path d="M1162.1,673h.8V651.4h-.8V673Z" class="g1"/>
<path d="M1238.2,673h.8V651.4h-.8V673Z" class="g1"/>
<path d="M47.1,673.8h.7V673h-.7v.8Z" class="g1"/>
<path d="M133.5,673.8h.7V673h-.7v.8Z" class="g1"/>
<path d="M252.6,673.8h.8V673h-.8v.8Z" class="g1"/>
<path d="M978.1,673.8h.7V673h-.7v.8Z" class="g1"/>
<path d="M978.8,673.8h183.3V673H978.8v.8Z" class="g1"/>
<path d="M1162.1,673.8h.8V673h-.8v.8Z" class="g1"/>
<path d="M1162.9,673.8h75.3V673h-75.3v.8Z" class="g1"/>
<path d="M1238.2,673.8h.8V673h-.8v.8Z" class="g1"/>
<path d="M47.1,695.6h.7V673.8h-.7v21.8Z" class="g1"/>
<path d="M133.5,695.6h.7V673.8h-.7v21.8Z" class="g1"/>
<path d="M252.6,695.6h.8V673.8h-.8v21.8Z" class="g1"/>
<path d="M978.1,695.6h.7V673.8h-.7v21.8Z" class="g1"/>
<path d="M1162.1,695.6h.8V673.8h-.8v21.8Z" class="g1"/>
<path d="M1238.2,695.6h.8V673.8h-.8v21.8Z" class="g1"/>
<path d="M47.1,696.3h.7v-.7h-.7v.7Z" class="g1"/>
<path d="M133.5,696.3h.7v-.7h-.7v.7Z" class="g1"/>
<path d="M252.6,696.3h.8v-.7h-.8v.7Z" class="g1"/>
<path d="M978.1,696.3h.7v-.7h-.7v.7Z" class="g1"/>
<path d="M978.8,696.3h183.3v-.7H978.8v.7Z" class="g1"/>
<path d="M1162.1,696.3h.8v-.7h-.8v.7Z" class="g1"/>
<path d="M1162.9,696.3h75.3v-.7h-75.3v.7Z" class="g1"/>
<path d="M1238.2,696.3h.8v-.7h-.8v.7Z" class="g1"/>
<path d="M47.1,717.9h.7V696.3h-.7v21.6Z" class="g1"/>
<path d="M133.5,717.9h.7V696.3h-.7v21.6Z" class="g1"/>
<path d="M252.6,717.9h.8V696.3h-.8v21.6Z" class="g1"/>
<path d="M978.1,717.9h.7V696.3h-.7v21.6Z" class="g1"/>
<path d="M1162.1,717.9h.8V696.3h-.8v21.6Z" class="g1"/>
<path d="M1238.2,717.9h.8V696.3h-.8v21.6Z" class="g1"/>
<path d="M47.1,718.7h.7v-.8h-.7v.8Z" class="g1"/>
<path d="M133.5,718.7h.7v-.8h-.7v.8Z" class="g1"/>
<path d="M252.6,718.7h.8v-.8h-.8v.8Z" class="g1"/>
<path d="M978.1,718.7h.7v-.8h-.7v.8Z" class="g1"/>
<path d="M978.8,718.7h183.3v-.8H978.8v.8Z" class="g1"/>
<path d="M1162.1,718.7h.8v-.8h-.8v.8Z" class="g1"/>
<path d="M1162.9,718.7h75.3v-.8h-75.3v.8Z" class="g1"/>
<path d="M1238.2,718.7h.8v-.8h-.8v.8Z" class="g1"/>
<path d="M47.1,740.5h.7V718.7h-.7v21.8Z" class="g1"/>
<path d="M133.5,740.5h.7V718.7h-.7v21.8Z" class="g1"/>
<path d="M252.6,740.5h.8V718.7h-.8v21.8Z" class="g1"/>
<path d="M978.1,740.5h.7V718.7h-.7v21.8Z" class="g1"/>
<path d="M1162.1,740.5h.8V718.7h-.8v21.8Z" class="g1"/>
<path d="M1238.2,740.5h.8V718.7h-.8v21.8Z" class="g1"/>
<path d="M47.1,741.2h.7v-.7h-.7v.7Z" class="g1"/>
<path d="M133.5,741.2h.7v-.7h-.7v.7Z" class="g1"/>
<path d="M252.6,741.2h.8v-.7h-.8v.7Z" class="g1"/>
<path d="M978.1,741.2h.7v-.7h-.7v.7Z" class="g1"/>
<path d="M978.8,741.2h183.3v-.7H978.8v.7Z" class="g1"/>
<path d="M1162.1,741.2h.8v-.7h-.8v.7Z" class="g1"/>
<path d="M1162.9,741.2h75.3v-.7h-75.3v.7Z" class="g1"/>
<path d="M1238.2,741.2h.8v-.7h-.8v.7Z" class="g1"/>
<path d="M47.1,762.9h.7V741.2h-.7v21.7Z" class="g1"/>
<path d="M133.5,762.9h.7V741.2h-.7v21.7Z" class="g1"/>
<path d="M252.6,762.9h.8V741.2h-.8v21.7Z" class="g1"/>
<path d="M978.1,762.9h.7V741.2h-.7v21.7Z" class="g1"/>
<path d="M1162.1,762.9h.8V741.2h-.8v21.7Z" class="g1"/>
<path d="M1238.2,762.9h.8V741.2h-.8v21.7Z" class="g1"/>
<path d="M47.1,763.6h.7v-.8h-.7v.8Z" class="g1"/>
<path d="M47.8,763.6h85.7v-.8H47.8v.8Z" class="g1"/>
<path d="M133.5,763.6h.7v-.8h-.7v.8Z" class="g1"/>
<path d="M134.2,763.6H252.6v-.8H134.2v.8Z" class="g1"/>
<path d="M252.6,763.6h.8v-.8h-.8v.8Z" class="g1"/>
<path d="M253.4,763.6H978.1v-.8H253.4v.8Z" class="g1"/>
<path d="M978.1,763.6h.7v-.8h-.7v.8Z" class="g1"/>
<path d="M978.8,763.6h183.3v-.8H978.8v.8Z" class="g1"/>
<path d="M1162.1,763.6h.8v-.8h-.8v.8Z" class="g1"/>
<path d="M1162.9,763.6h75.3v-.8h-75.3v.8Z" class="g1"/>
<path d="M1238.2,763.6h.8v-.8h-.8v.8Z" class="g1"/>
<path d="M47.1,785.4h.7V763.6h-.7v21.8Z" class="g1"/>
<path d="M47.1,786.1h.7v-.7h-.7v.7Z" class="g1"/>
<path d="M47.1,786.1h.7v-.7h-.7v.7Z" class="g1"/>
<path d="M47.8,786.1H1238.2v-.7H47.8v.7Z" class="g1"/>
<path d="M1238.2,785.4h.8V763.6h-.8v21.8Z" class="g1"/>
<path d="M1238.2,786.1h.8v-.7h-.8v.7Z" class="g1"/>
<path d="M1238.2,786.1h.8v-.7h-.8v.7Z" class="g1"/>
</svg>