<?xml version="1.0" encoding="UTF-8" standalone="no"?>
<!DOCTYPE svg PUBLIC "-//W3C//DTD SVG 1.1//EN"
"http://www.w3.org/Graphics/SVG/1.1/DTD/svg11.dtd">
<svg viewBox="0 0 1286 909" version="1.1" xmlns="http://www.w3.org/2000/svg" xmlns:xlink="http://www.w3.org/1999/xlink">
<defs>
<style type="text/css"><![CDATA[
.g0_1{
fill: #D9D9D9;
}
.g1_1{
}
]]></style>
</defs>
<path fill-rule="evenodd" d="M47.8,175.4h96.5V153.8H47.8v21.6Z" class="g0_1"/>
<path fill-rule="evenodd" d="M55.7,173.4h80.7V155.8H55.7v17.6Z" class="g0_1"/>
<path fill-rule="evenodd" d="M145,175.4H263.3V153.8H145v21.6Z" class="g0_1"/>
<path fill-rule="evenodd" d="M152.9,173.4H255.6V155.8H152.9v17.6Z" class="g0_1"/>
<path fill-rule="evenodd" d="M264.2,175.4H728.9V153.8H264.2v21.6Z" class="g0_1"/>
<path fill-rule="evenodd" d="M272.1,173.4H721.2V155.8H272.1v17.6Z" class="g0_1"/>
<path fill-rule="evenodd" d="M729.9,175.4H1173V153.8H729.9v21.6Z" class="g0_1"/>
<path fill-rule="evenodd" d="M737.7,173.4h427.4V155.8H737.7v17.6Z" class="g0_1"/>
<path fill-rule="evenodd" d="M1173.7,175.4h64.5V153.8h-64.5v21.6Z" class="g0_1"/>
<path fill-rule="evenodd" d="M1181.6,173.4h48.8V155.8h-48.8v17.6Z" class="g0_1"/>
<path d="M47.1,153.8h.7v-.7h-.7v.7Z" class="g1_1"/>
<path d="M47.1,153.8h.7v-.7h-.7v.7Z" class="g1_1"/>
<path d="M47.8,153.8h96.5v-.7H47.8v.7Z" class="g1_1"/>
<path d="M144.3,153.8h.7v-.7h-.7v.7Z" class="g1_1"/>
<path d="M145,153.8H263.3v-.7H145v.7Z" class="g1_1"/>
<path d="M263.3,153.8h.7v-.7h-.7v.7Z" class="g1_1"/>
<path d="M264,153.8H728.9v-.7H264v.7Z" class="g1_1"/>
<path d="M728.9,153.8h.8v-.7h-.8v.7Z" class="g1_1"/>
<path d="M729.7,153.8H1173v-.7H729.7v.7Z" class="g1_1"/>
<path d="M1173,153.8h.7v-.7h-.7v.7Z" class="g1_1"/>
<path d="M1173.7,153.8h64.5v-.7h-64.5v.7Z" class="g1_1"/>
<path d="M1238.2,153.8h.8v-.7h-.8v.7Z" class="g1_1"/>
<path d="M1238.2,153.8h.8v-.7h-.8v.7Z" class="g1_1"/>
<path d="M47.1,175.4h.7V153.8h-.7v21.6Z" class="g1_1"/>
<path d="M144.3,175.4h.7V153.8h-.7v21.6Z" class="g1_1"/>
<path d="M263.3,175.4h.7V153.8h-.7v21.6Z" class="g1_1"/>
<path d="M728.9,175.4h.8V153.8h-.8v21.6Z" class="g1_1"/>
<path d="M1173,175.4h.7V153.8h-.7v21.6Z" class="g1_1"/>
<path d="M1238.2,175.4h.8V153.8h-.8v21.6Z" class="g1_1"/>
<path d="M47.1,176.2h.7v-.8h-.7v.8Z" class="g1_1"/>
<path d="M47.8,176.2h96.5v-.8H47.8v.8Z" class="g1_1"/>
<path d="M144.3,176.2h.7v-.8h-.7v.8Z" class="g1_1"/>
<path d="M145,176.2H263.3v-.8H145v.8Z" class="g1_1"/>
<path d="M263.3,176.2h.7v-.8h-.7v.8Z" class="g1_1"/>
<path d="M264,176.2H728.9v-.8H264v.8Z" class="g1_1"/>
<path d="M728.9,176.2h.8v-.8h-.8v.8Z" class="g1_1"/>
<path d="M729.7,176.2H1173v-.8H729.7v.8Z" class="g1_1"/>
<path d="M1173,176.2h.7v-.8h-.7v.8Z" class="g1_1"/>
<path d="M1173.7,176.2h64.5v-.8h-64.5v.8Z" class="g1_1"/>
<path d="M1238.2,176.2h.8v-.8h-.8v.8Z" class="g1_1"/>
<path d="M47.1,264.2h.7v-88h-.7v88Z" class="g1_1"/>
<path d="M144.3,264.2h.7v-88h-.7v88Z" class="g1_1"/>
<path d="M263.3,264.2h.7v-88h-.7v88Z" class="g1_1"/>
<path d="M728.9,264.2h.8v-88h-.8v88Z" class="g1_1"/>
<path d="M1238.2,264.2h.8v-88h-.8v88Z" class="g1_1"/>
<path d="M47.1,264.9h.7v-.7h-.7v.7Z" class="g1_1"/>
<path d="M144.3,264.9h.7v-.7h-.7v.7Z" class="g1_1"/>
<path d="M263.3,264.9h.7v-.7h-.7v.7Z" class="g1_1"/>
<path d="M728.9,264.9h.8v-.7h-.8v.7Z" class="g1_1"/>
<path d="M729.7,264.9h508.5v-.7H729.7v.7Z" class="g1_1"/>
<path d="M1238.2,264.9h.8v-.7h-.8v.7Z" class="g1_1"/>
<path d="M47.1,370.3h.7V264.9h-.7V370.3Z" class="g1_1"/>
<path d="M144.3,370.3h.7V264.9h-.7V370.3Z" class="g1_1"/>
<path d="M263.3,370.3h.7V264.9h-.7V370.3Z" class="g1_1"/>
<path d="M728.9,370.3h.8V264.9h-.8V370.3Z" class="g1_1"/>
<path d="M1238.2,370.3h.8V264.9h-.8V370.3Z" class="g1_1"/>
<path d="M47.1,371.1h.7v-.8h-.7v.8Z" class="g1_1"/>
<path d="M47.8,371.1h96.5v-.8H47.8v.8Z" class="g1_1"/>
<path d="M144.3,371.1h.7v-.8h-.7v.8Z" class="g1_1"/>
<path d="M145,371.1H263.3v-.8H145v.8Z" class="g1_1"/>
<path d="M263.3,371.1h.7v-.8h-.7v.8Z" class="g1_1"/>
<path d="M264,371.1H728.9v-.8H264v.8Z" class="g1_1"/>
<path d="M728.9,371.1h.8v-.8h-.8v.8Z" class="g1_1"/>
<path d="M729.7,371.1H1173v-.8H729.7v.8Z" class="g1_1"/>
<path d="M1173,371.1h.7v-.8h-.7v.8Z" class="g1_1"/>
<path d="M1173.7,371.1h64.5v-.8h-64.5v.8Z" class="g1_1"/>
<path d="M1238.2,371.1h.8v-.8h-.8v.8Z" class="g1_1"/>
<path d="M47.1,423.7h.7V371.1h-.7v52.6Z" class="g1_1"/>
<path d="M144.3,423.7h.7V371.1h-.7v52.6Z" class="g1_1"/>
<path d="M263.3,423.7h.7V371.1h-.7v52.6Z" class="g1_1"/>
<path d="M728.9,423.7h.8V371.1h-.8v52.6Z" class="g1_1"/>
<path d="M1173,423.7h.7V371.1h-.7v52.6Z" class="g1_1"/>
<path d="M1238.2,423.7h.8V371.1h-.8v52.6Z" class="g1_1"/>
<path d="M47.1,424.4h.7v-.7h-.7v.7Z" class="g1_1"/>
<path d="M144.3,424.4h.7v-.7h-.7v.7Z" class="g1_1"/>
<path d="M263.3,424.4h.7v-.7h-.7v.7Z" class="g1_1"/>
<path d="M728.9,424.4h.8v-.7h-.8v.7Z" class="g1_1"/>
<path d="M729.7,424.4H1173v-.7H729.7v.7Z" class="g1_1"/>
<path d="M1173,424.4h.7v-.7h-.7v.7Z" class="g1_1"/>
<path d="M1173.7,424.4h64.5v-.7h-64.5v.7Z" class="g1_1"/>
<path d="M1238.2,424.4h.8v-.7h-.8v.7Z" class="g1_1"/>
<path d="M47.1,477.2h.7V424.4h-.7v52.8Z" class="g1_1"/>
<path d="M144.3,477.2h.7V424.4h-.7v52.8Z" class="g1_1"/>
<path d="M263.3,477.2h.7V424.4h-.7v52.8Z" class="g1_1"/>
<path d="M728.9,477.2h.8V424.4h-.8v52.8Z" class="g1_1"/>
<path d="M1173,477.2h.7V424.4h-.7v52.8Z" class="g1_1"/>
<path d="M1238.2,477.2h.8V424.4h-.8v52.8Z" class="g1_1"/>
<path d="M47.1,477.9h.7v-.7h-.7v.7Z" class="g1_1"/>
<path d="M144.3,477.9h.7v-.7h-.7v.7Z" class="g1_1"/>
<path d="M263.3,477.9h.7v-.7h-.7v.7Z" class="g1_1"/>
<path d="M728.9,477.9h.8v-.7h-.8v.7Z" class="g1_1"/>
<path d="M729.7,477.9H1173v-.7H729.7v.7Z" class="g1_1"/>
<path d="M1173,477.9h.7v-.7h-.7v.7Z" class="g1_1"/>
<path d="M1173.7,477.9h64.5v-.7h-64.5v.7Z" class="g1_1"/>
<path d="M1238.2,477.9h.8v-.7h-.8v.7Z" class="g1_1"/>
<path d="M47.1,530.8h.7V477.9h-.7v52.9Z" class="g1_1"/>
<path d="M144.3,530.8h.7V477.9h-.7v52.9Z" class="g1_1"/>
<path d="M263.3,530.8h.7V477.9h-.7v52.9Z" class="g1_1"/>
<path d="M728.9,530.8h.8V477.9h-.8v52.9Z" class="g1_1"/>
<path d="M1173,530.8h.7V477.9h-.7v52.9Z" class="g1_1"/>
<path d="M1238.2,530.8h.8V477.9h-.8v52.9Z" class="g1_1"/>
<path d="M47.1,531.5h.7v-.8h-.7v.8Z" class="g1_1"/>
<path d="M144.3,531.5h.7v-.8h-.7v.8Z" class="g1_1"/>
<path d="M263.3,531.5h.7v-.8h-.7v.8Z" class="g1_1"/>
<path d="M728.9,531.5h.8v-.8h-.8v.8Z" class="g1_1"/>
<path d="M729.7,531.5H1173v-.8H729.7v.8Z" class="g1_1"/>
<path d="M1173,531.5h.7v-.8h-.7v.8Z" class="g1_1"/>
<path d="M1173.7,531.5h64.5v-.8h-64.5v.8Z" class="g1_1"/>
<path d="M1238.2,531.5h.8v-.8h-.8v.8Z" class="g1_1"/>
<path d="M47.1,584.1h.7V531.5h-.7v52.6Z" class="g1_1"/>
<path d="M144.3,584.1h.7V531.5h-.7v52.6Z" class="g1_1"/>
<path d="M263.3,584.1h.7V531.5h-.7v52.6Z" class="g1_1"/>
<path d="M728.9,584.1h.8V531.5h-.8v52.6Z" class="g1_1"/>
<path d="M1173,584.1h.7V531.5h-.7v52.6Z" class="g1_1"/>
<path d="M1238.2,584.1h.8V531.5h-.8v52.6Z" class="g1_1"/>
<path d="M47.1,584.8h.7v-.7h-.7v.7Z" class="g1_1"/>
<path d="M47.8,584.8h96.5v-.7H47.8v.7Z" class="g1_1"/>
<path d="M144.3,584.8h.7v-.7h-.7v.7Z" class="g1_1"/>
<path d="M145,584.8H263.3v-.7H145v.7Z" class="g1_1"/>
<path d="M263.3,584.8h.7v-.7h-.7v.7Z" class="g1_1"/>
<path d="M264,584.8H728.9v-.7H264v.7Z" class="g1_1"/>
<path d="M728.9,584.8h.8v-.7h-.8v.7Z" class="g1_1"/>
<path d="M729.7,584.8H1173v-.7H729.7v.7Z" class="g1_1"/>
<path d="M1173,584.8h.7v-.7h-.7v.7Z" class="g1_1"/>
<path d="M1173.7,584.8h64.5v-.7h-64.5v.7Z" class="g1_1"/>
<path d="M1238.2,584.8h.8v-.7h-.8v.7Z" class="g1_1"/>
<path d="M47.1,637.6h.7V584.8h-.7v52.8Z" class="g1_1"/>
<path d="M144.3,637.6h.7V584.8h-.7v52.8Z" class="g1_1"/>
<path d="M263.3,637.6h.7V584.8h-.7v52.8Z" class="g1_1"/>
<path d="M728.9,637.6h.8V584.8h-.8v52.8Z" class="g1_1"/>
<path d="M1173,637.6h.7V584.8h-.7v52.8Z" class="g1_1"/>
<path d="M1238.2,637.6h.8V584.8h-.8v52.8Z" class="g1_1"/>
<path d="M47.1,638.4h.7v-.8h-.7v.8Z" class="g1_1"/>
<path d="M144.3,638.4h.7v-.8h-.7v.8Z" class="g1_1"/>
<path d="M263.3,638.4h.7v-.8h-.7v.8Z" class="g1_1"/>
<path d="M728.9,638.4h.8v-.8h-.8v.8Z" class="g1_1"/>
<path d="M729.7,638.4H1173v-.8H729.7v.8Z" class="g1_1"/>
<path d="M1173,638.4h.7v-.8h-.7v.8Z" class="g1_1"/>
<path d="M1173.7,638.4h64.5v-.8h-64.5v.8Z" class="g1_1"/>
<path d="M1238.2,638.4h.8v-.8h-.8v.8Z" class="g1_1"/>
<path d="M47.1,691.2h.7V638.4h-.7v52.8Z" class="g1_1"/>
<path d="M144.3,691.2h.7V638.4h-.7v52.8Z" class="g1_1"/>
<path d="M263.3,691.2h.7V638.4h-.7v52.8Z" class="g1_1"/>
<path d="M728.9,691.2h.8V638.4h-.8v52.8Z" class="g1_1"/>
<path d="M1173,691.2h.7V638.4h-.7v52.8Z" class="g1_1"/>
<path d="M1238.2,691.2h.8V638.4h-.8v52.8Z" class="g1_1"/>
<path d="M47.1,691.9h.7v-.7h-.7v.7Z" class="g1_1"/>
<path d="M144.3,691.9h.7v-.7h-.7v.7Z" class="g1_1"/>
<path d="M263.3,691.9h.7v-.7h-.7v.7Z" class="g1_1"/>
<path d="M728.9,691.9h.8v-.7h-.8v.7Z" class="g1_1"/>
<path d="M729.7,691.9H1173v-.7H729.7v.7Z" class="g1_1"/>
<path d="M1173,691.9h.7v-.7h-.7v.7Z" class="g1_1"/>
<path d="M1173.7,691.9h64.5v-.7h-64.5v.7Z" class="g1_1"/>
<path d="M1238.2,691.9h.8v-.7h-.8v.7Z" class="g1_1"/>
<path d="M47.1,744.5h.7V691.9h-.7v52.6Z" class="g1_1"/>
<path d="M144.3,744.5h.7V691.9h-.7v52.6Z" class="g1_1"/>
<path d="M263.3,744.5h.7V691.9h-.7v52.6Z" class="g1_1"/>
<path d="M728.9,744.5h.8V691.9h-.8v52.6Z" class="g1_1"/>
<path d="M1173,744.5h.7V691.9h-.7v52.6Z" class="g1_1"/>
<path d="M1238.2,744.5h.8V691.9h-.8v52.6Z" class="g1_1"/>
<path d="M47.1,745.3h.7v-.8h-.7v.8Z" class="g1_1"/>
<path d="M144.3,745.3h.7v-.8h-.7v.8Z" class="g1_1"/>
<path d="M263.3,745.3h.7v-.8h-.7v.8Z" class="g1_1"/>
<path d="M728.9,745.3h.8v-.8h-.8v.8Z" class="g1_1"/>
<path d="M729.7,745.3H1173v-.8H729.7v.8Z" class="g1_1"/>
<path d="M1173,745.3h.7v-.8h-.7v.8Z" class="g1_1"/>
<path d="M1173.7,745.3h64.5v-.8h-64.5v.8Z" class="g1_1"/>
<path d="M1238.2,745.3h.8v-.8h-.8v.8Z" class="g1_1"/>
<path d="M47.1,798.1h.7V745.3h-.7v52.8Z" class="g1_1"/>
<path d="M47.1,798.8h.7V798h-.7v.8Z" class="g1_1"/>
<path d="M47.1,798.8h.7V798h-.7v.8Z" class="g1_1"/>
<path d="M47.8,798.8h96.5V798H47.8v.8Z" class="g1_1"/>
<path d="M144.3,798.1h.7V745.3h-.7v52.8Z" class="g1_1"/>
<path d="M144.3,798.8h.7V798h-.7v.8Z" class="g1_1"/>
<path d="M145,798.8H263.3V798H145v.8Z" class="g1_1"/>
<path d="M263.3,798.1h.7V745.3h-.7v52.8Z" class="g1_1"/>
<path d="M263.3,798.8h.7V798h-.7v.8Z" class="g1_1"/>
<path d="M264,798.8H728.9V798H264v.8Z" class="g1_1"/>
<path d="M728.9,798.1h.8V745.3h-.8v52.8Z" class="g1_1"/>
<path d="M728.9,798.8h.8V798h-.8v.8Z" class="g1_1"/>
<path d="M729.7,798.8H1173V798H729.7v.8Z" class="g1_1"/>
<path d="M1173,798.1h.7V745.3h-.7v52.8Z" class="g1_1"/>
<path d="M1173,798.8h.7V798h-.7v.8Z" class="g1_1"/>
<path d="M1173.7,798.8h64.5V798h-64.5v.8Z" class="g1_1"/>
<path d="M1238.2,798.1h.8V745.3h-.8v52.8Z" class="g1_1"/>
<path d="M1238.2,798.8h.8V798h-.8v.8Z" class="g1_1"/>
<path d="M1238.2,798.8h.8V798h-.8v.8Z" class="g1_1"/>
</svg>