<?xml version="1.0" encoding="UTF-8" standalone="no"?>
<!DOCTYPE svg PUBLIC "-//W3C//DTD SVG 1.1//EN"
"http://www.w3.org/Graphics/SVG/1.1/DTD/svg11.dtd">
<svg viewBox="0 0 1286 909" version="1.1" xmlns="http://www.w3.org/2000/svg" xmlns:xlink="http://www.w3.org/1999/xlink">
<defs>
<style type="text/css"><![CDATA[
.g0_3{
fill: #D9D9D9;
}
.g1_3{
}
]]></style>
</defs>
<path fill-rule="evenodd" d="M47.8,65.8H550.9V44H47.8V65.8Z" class="g0_3"/>
<path fill-rule="evenodd" d="M55.7,63.6H543V46.2H55.7V63.6Z" class="g0_3"/>
<path fill-rule="evenodd" d="M551.6,65.8h91V44h-91V65.8Z" class="g0_3"/>
<path fill-rule="evenodd" d="M559.5,63.6h75.2V46.2H559.5V63.6Z" class="g0_3"/>
<path fill-rule="evenodd" d="M643.3,65.8h508.8V44H643.3V65.8Z" class="g0_3"/>
<path fill-rule="evenodd" d="M651.2,63.6h493V46.2h-493V63.6Z" class="g0_3"/>
<path fill-rule="evenodd" d="M1152.8,65.8h85.4V44h-85.4V65.8Z" class="g0_3"/>
<path fill-rule="evenodd" d="M1160.7,63.6h69.6V46.2h-69.6V63.6Z" class="g0_3"/>
<path d="M47.1,44h.7v-.7h-.7V44Z" class="g1_3"/>
<path d="M47.1,44h.7v-.7h-.7V44Z" class="g1_3"/>
<path d="M47.8,44H550.9v-.7H47.8V44Z" class="g1_3"/>
<path d="M550.9,44h.8v-.7h-.8V44Z" class="g1_3"/>
<path d="M551.6,44h91v-.7h-91V44Z" class="g1_3"/>
<path d="M642.6,44h.7v-.7h-.7V44Z" class="g1_3"/>
<path d="M643.3,44h508.8v-.7H643.3V44Z" class="g1_3"/>
<path d="M1152.1,44h.7v-.7h-.7V44Z" class="g1_3"/>
<path d="M1152.8,44h85.4v-.7h-85.4V44Z" class="g1_3"/>
<path d="M1238.2,44h.8v-.7h-.8V44Z" class="g1_3"/>
<path d="M1238.2,44h.8v-.7h-.8V44Z" class="g1_3"/>
<path d="M47.1,65.8h.7V44h-.7V65.8Z" class="g1_3"/>
<path d="M550.9,65.8h.8V44h-.8V65.8Z" class="g1_3"/>
<path d="M642.6,65.8h.7V44h-.7V65.8Z" class="g1_3"/>
<path d="M1152.1,65.8h.7V44h-.7V65.8Z" class="g1_3"/>
<path d="M1238.2,65.8h.8V44h-.8V65.8Z" class="g1_3"/>
<path d="M47.1,66.5h.7v-.7h-.7v.7Z" class="g1_3"/>
<path d="M47.8,66.5H550.9v-.7H47.8v.7Z" class="g1_3"/>
<path d="M550.9,66.5h.8v-.7h-.8v.7Z" class="g1_3"/>
<path d="M551.6,66.5h91v-.7h-91v.7Z" class="g1_3"/>
<path d="M642.6,66.5h.7v-.7h-.7v.7Z" class="g1_3"/>
<path d="M643.3,66.5h508.8v-.7H643.3v.7Z" class="g1_3"/>
<path d="M1152.1,66.5h.7v-.7h-.7v.7Z" class="g1_3"/>
<path d="M1152.8,66.5h85.4v-.7h-85.4v.7Z" class="g1_3"/>
<path d="M1238.2,66.5h.8v-.7h-.8v.7Z" class="g1_3"/>
<path d="M47.1,88.2h.7V66.5h-.7V88.2Z" class="g1_3"/>
<path d="M550.9,88.2h.8V66.5h-.8V88.2Z" class="g1_3"/>
<path d="M642.6,88.2h.7V66.5h-.7V88.2Z" class="g1_3"/>
<path d="M1152.1,88.2h.7V66.5h-.7V88.2Z" class="g1_3"/>
<path d="M1238.2,88.2h.8V66.5h-.8V88.2Z" class="g1_3"/>
<path d="M47.1,88.9h.7v-.7h-.7v.7Z" class="g1_3"/>
<path d="M47.8,88.9H550.9v-.7H47.8v.7Z" class="g1_3"/>
<path d="M550.9,88.9h.8v-.7h-.8v.7Z" class="g1_3"/>
<path d="M551.6,88.9h91v-.7h-91v.7Z" class="g1_3"/>
<path d="M642.6,88.9h.7v-.7h-.7v.7Z" class="g1_3"/>
<path d="M643.3,88.9h508.8v-.7H643.3v.7Z" class="g1_3"/>
<path d="M1152.1,88.9h.7v-.7h-.7v.7Z" class="g1_3"/>
<path d="M1152.8,88.9h85.4v-.7h-85.4v.7Z" class="g1_3"/>
<path d="M1238.2,88.9h.8v-.7h-.8v.7Z" class="g1_3"/>
<path d="M47.1,110.7h.7V88.9h-.7v21.8Z" class="g1_3"/>
<path d="M550.9,110.7h.8V88.9h-.8v21.8Z" class="g1_3"/>
<path d="M642.6,110.7h.7V88.9h-.7v21.8Z" class="g1_3"/>
<path d="M1152.1,110.7h.7V88.9h-.7v21.8Z" class="g1_3"/>
<path d="M1238.2,110.7h.8V88.9h-.8v21.8Z" class="g1_3"/>
<path d="M47.1,111.5h.7v-.8h-.7v.8Z" class="g1_3"/>
<path d="M47.8,111.5H550.9v-.8H47.8v.8Z" class="g1_3"/>
<path d="M550.9,111.5h.8v-.8h-.8v.8Z" class="g1_3"/>
<path d="M551.6,111.5h91v-.8h-91v.8Z" class="g1_3"/>
<path d="M642.6,111.5h.7v-.8h-.7v.8Z" class="g1_3"/>
<path d="M643.3,111.5h508.8v-.8H643.3v.8Z" class="g1_3"/>
<path d="M1152.1,111.5h.7v-.8h-.7v.8Z" class="g1_3"/>
<path d="M1152.8,111.5h85.4v-.8h-85.4v.8Z" class="g1_3"/>
<path d="M1238.2,111.5h.8v-.8h-.8v.8Z" class="g1_3"/>
<path d="M47.1,133.1h.7V111.5h-.7v21.6Z" class="g1_3"/>
<path d="M550.9,133.1h.8V111.5h-.8v21.6Z" class="g1_3"/>
<path d="M642.6,133.1h.7V111.5h-.7v21.6Z" class="g1_3"/>
<path d="M1152.1,133.1h.7V111.5h-.7v21.6Z" class="g1_3"/>
<path d="M1238.2,133.1h.8V111.5h-.8v21.6Z" class="g1_3"/>
<path d="M47.1,133.8h.7v-.7h-.7v.7Z" class="g1_3"/>
<path d="M47.8,133.8H550.9v-.7H47.8v.7Z" class="g1_3"/>
<path d="M550.9,133.8h.8v-.7h-.8v.7Z" class="g1_3"/>
<path d="M551.6,133.8h91v-.7h-91v.7Z" class="g1_3"/>
<path d="M642.6,133.8h.7v-.7h-.7v.7Z" class="g1_3"/>
<path d="M643.3,133.8h508.8v-.7H643.3v.7Z" class="g1_3"/>
<path d="M1152.1,133.8h.7v-.7h-.7v.7Z" class="g1_3"/>
<path d="M1152.8,133.8h85.4v-.7h-85.4v.7Z" class="g1_3"/>
<path d="M1238.2,133.8h.8v-.7h-.8v.7Z" class="g1_3"/>
<path d="M47.1,155.7h.7V133.8h-.7v21.9Z" class="g1_3"/>
<path d="M550.9,155.7h.8V133.8h-.8v21.9Z" class="g1_3"/>
<path d="M642.6,155.7h.7V133.8h-.7v21.9Z" class="g1_3"/>
<path d="M1152.1,155.7h.7V133.8h-.7v21.9Z" class="g1_3"/>
<path d="M1238.2,155.7h.8V133.8h-.8v21.9Z" class="g1_3"/>
<path d="M47.1,156.4h.7v-.8h-.7v.8Z" class="g1_3"/>
<path d="M47.8,156.4H550.9v-.8H47.8v.8Z" class="g1_3"/>
<path d="M550.9,156.4h.8v-.8h-.8v.8Z" class="g1_3"/>
<path d="M551.6,156.4h91v-.8h-91v.8Z" class="g1_3"/>
<path d="M642.6,156.4h.7v-.8h-.7v.8Z" class="g1_3"/>
<path d="M643.3,156.4h508.8v-.8H643.3v.8Z" class="g1_3"/>
<path d="M1152.1,156.4h.7v-.8h-.7v.8Z" class="g1_3"/>
<path d="M1152.8,156.4h85.4v-.8h-85.4v.8Z" class="g1_3"/>
<path d="M1238.2,156.4h.8v-.8h-.8v.8Z" class="g1_3"/>
<path d="M47.1,178h.7V156.4h-.7V178Z" class="g1_3"/>
<path d="M550.9,178h.8V156.4h-.8V178Z" class="g1_3"/>
<path d="M642.6,178h.7V156.4h-.7V178Z" class="g1_3"/>
<path d="M1152.1,178h.7V156.4h-.7V178Z" class="g1_3"/>
<path d="M1238.2,178h.8V156.4h-.8V178Z" class="g1_3"/>
<path d="M47.1,178.8h.7V178h-.7v.8Z" class="g1_3"/>
<path d="M47.8,178.8H550.9V178H47.8v.8Z" class="g1_3"/>
<path d="M550.9,178.8h.8V178h-.8v.8Z" class="g1_3"/>
<path d="M551.6,178.8h91V178h-91v.8Z" class="g1_3"/>
<path d="M642.6,178.8h.7V178h-.7v.8Z" class="g1_3"/>
<path d="M643.3,178.8h508.8V178H643.3v.8Z" class="g1_3"/>
<path d="M1152.1,178.8h.7V178h-.7v.8Z" class="g1_3"/>
<path d="M1152.8,178.8h85.4V178h-85.4v.8Z" class="g1_3"/>
<path d="M1238.2,178.8h.8V178h-.8v.8Z" class="g1_3"/>
<path d="M47.1,200.6h.7V178.8h-.7v21.8Z" class="g1_3"/>
<path d="M550.9,200.6h.8V178.8h-.8v21.8Z" class="g1_3"/>
<path d="M642.6,200.6h.7V178.8h-.7v21.8Z" class="g1_3"/>
<path d="M1152.1,200.6h.7V178.8h-.7v21.8Z" class="g1_3"/>
<path d="M1238.2,200.6h.8V178.8h-.8v21.8Z" class="g1_3"/>
<path d="M47.1,201.3h.7v-.7h-.7v.7Z" class="g1_3"/>
<path d="M47.8,201.3H550.9v-.7H47.8v.7Z" class="g1_3"/>
<path d="M550.9,201.3h.8v-.7h-.8v.7Z" class="g1_3"/>
<path d="M551.6,201.3h91v-.7h-91v.7Z" class="g1_3"/>
<path d="M642.6,201.3h.7v-.7h-.7v.7Z" class="g1_3"/>
<path d="M643.3,201.3h508.8v-.7H643.3v.7Z" class="g1_3"/>
<path d="M1152.1,201.3h.7v-.7h-.7v.7Z" class="g1_3"/>
<path d="M1152.8,201.3h85.4v-.7h-85.4v.7Z" class="g1_3"/>
<path d="M1238.2,201.3h.8v-.7h-.8v.7Z" class="g1_3"/>
<path d="M47.1,222.9h.7V201.3h-.7v21.6Z" class="g1_3"/>
<path d="M550.9,222.9h.8V201.3h-.8v21.6Z" class="g1_3"/>
<path d="M642.6,222.9h.7V201.3h-.7v21.6Z" class="g1_3"/>
<path d="M1152.1,222.9h.7V201.3h-.7v21.6Z" class="g1_3"/>
<path d="M1238.2,222.9h.8V201.3h-.8v21.6Z" class="g1_3"/>
<path d="M47.1,223.7h.7v-.8h-.7v.8Z" class="g1_3"/>
<path d="M47.8,223.7H550.9v-.8H47.8v.8Z" class="g1_3"/>
<path d="M550.9,223.7h.8v-.8h-.8v.8Z" class="g1_3"/>
<path d="M551.6,223.7h91v-.8h-91v.8Z" class="g1_3"/>
<path d="M642.6,223.7h.7v-.8h-.7v.8Z" class="g1_3"/>
<path d="M643.3,223.7h508.8v-.8H643.3v.8Z" class="g1_3"/>
<path d="M1152.1,223.7h.7v-.8h-.7v.8Z" class="g1_3"/>
<path d="M1152.8,223.7h85.4v-.8h-85.4v.8Z" class="g1_3"/>
<path d="M1238.2,223.7h.8v-.8h-.8v.8Z" class="g1_3"/>
<path d="M47.1,245.5h.7V223.7h-.7v21.8Z" class="g1_3"/>
<path d="M550.9,245.5h.8V223.7h-.8v21.8Z" class="g1_3"/>
<path d="M642.6,245.5h.7V223.7h-.7v21.8Z" class="g1_3"/>
<path d="M1152.1,245.5h.7V223.7h-.7v21.8Z" class="g1_3"/>
<path d="M1238.2,245.5h.8V223.7h-.8v21.8Z" class="g1_3"/>
<path d="M47.1,246.2h.7v-.7h-.7v.7Z" class="g1_3"/>
<path d="M47.8,246.2H550.9v-.7H47.8v.7Z" class="g1_3"/>
<path d="M550.9,246.2h.8v-.7h-.8v.7Z" class="g1_3"/>
<path d="M551.6,246.2h91v-.7h-91v.7Z" class="g1_3"/>
<path d="M642.6,246.2h.7v-.7h-.7v.7Z" class="g1_3"/>
<path d="M643.3,246.2h508.8v-.7H643.3v.7Z" class="g1_3"/>
<path d="M1152.1,246.2h.7v-.7h-.7v.7Z" class="g1_3"/>
<path d="M1152.8,246.2h85.4v-.7h-85.4v.7Z" class="g1_3"/>
<path d="M1238.2,246.2h.8v-.7h-.8v.7Z" class="g1_3"/>
<path d="M47.1,267.9h.7V246.2h-.7v21.7Z" class="g1_3"/>
<path d="M550.9,267.9h.8V246.2h-.8v21.7Z" class="g1_3"/>
<path d="M642.6,267.9h.7V246.2h-.7v21.7Z" class="g1_3"/>
<path d="M1152.1,267.9h.7V246.2h-.7v21.7Z" class="g1_3"/>
<path d="M1238.2,267.9h.8V246.2h-.8v21.7Z" class="g1_3"/>
<path d="M47.1,268.6h.7v-.8h-.7v.8Z" class="g1_3"/>
<path d="M47.8,268.6H550.9v-.8H47.8v.8Z" class="g1_3"/>
<path d="M550.9,268.6h.8v-.8h-.8v.8Z" class="g1_3"/>
<path d="M551.6,268.6h91v-.8h-91v.8Z" class="g1_3"/>
<path d="M642.6,268.6h.7v-.8h-.7v.8Z" class="g1_3"/>
<path d="M643.3,268.6h508.8v-.8H643.3v.8Z" class="g1_3"/>
<path d="M1152.1,268.6h.7v-.8h-.7v.8Z" class="g1_3"/>
<path d="M1152.8,268.6h85.4v-.8h-85.4v.8Z" class="g1_3"/>
<path d="M1238.2,268.6h.8v-.8h-.8v.8Z" class="g1_3"/>
<path d="M47.1,290.4h.7V268.6h-.7v21.8Z" class="g1_3"/>
<path d="M550.9,290.4h.8V268.6h-.8v21.8Z" class="g1_3"/>
<path d="M642.6,290.4h.7V268.6h-.7v21.8Z" class="g1_3"/>
<path d="M1152.1,290.4h.7V268.6h-.7v21.8Z" class="g1_3"/>
<path d="M1238.2,290.4h.8V268.6h-.8v21.8Z" class="g1_3"/>
<path d="M47.1,291.1h.7v-.7h-.7v.7Z" class="g1_3"/>
<path d="M47.8,291.1H550.9v-.7H47.8v.7Z" class="g1_3"/>
<path d="M550.9,291.1h.8v-.7h-.8v.7Z" class="g1_3"/>
<path d="M551.6,291.1h91v-.7h-91v.7Z" class="g1_3"/>
<path d="M642.6,291.1h.7v-.7h-.7v.7Z" class="g1_3"/>
<path d="M643.3,291.1h508.8v-.7H643.3v.7Z" class="g1_3"/>
<path d="M1152.1,291.1h.7v-.7h-.7v.7Z" class="g1_3"/>
<path d="M1152.8,291.1h85.4v-.7h-85.4v.7Z" class="g1_3"/>
<path d="M1238.2,291.1h.8v-.7h-.8v.7Z" class="g1_3"/>
<path d="M47.1,312.8h.7V291.1h-.7v21.7Z" class="g1_3"/>
<path d="M550.9,312.8h.8V291.1h-.8v21.7Z" class="g1_3"/>
<path d="M642.6,312.8h.7V291.1h-.7v21.7Z" class="g1_3"/>
<path d="M1152.1,312.8h.7V291.1h-.7v21.7Z" class="g1_3"/>
<path d="M1238.2,312.8h.8V291.1h-.8v21.7Z" class="g1_3"/>
<path d="M47.1,313.5h.7v-.7h-.7v.7Z" class="g1_3"/>
<path d="M47.8,313.5H550.9v-.7H47.8v.7Z" class="g1_3"/>
<path d="M550.9,313.5h.8v-.7h-.8v.7Z" class="g1_3"/>
<path d="M551.6,313.5h91v-.7h-91v.7Z" class="g1_3"/>
<path d="M642.6,313.5h.7v-.7h-.7v.7Z" class="g1_3"/>
<path d="M643.3,313.5h508.8v-.7H643.3v.7Z" class="g1_3"/>
<path d="M1152.1,313.5h.7v-.7h-.7v.7Z" class="g1_3"/>
<path d="M1152.8,313.5h85.4v-.7h-85.4v.7Z" class="g1_3"/>
<path d="M1238.2,313.5h.8v-.7h-.8v.7Z" class="g1_3"/>
<path d="M47.1,335.3h.7V313.5h-.7v21.8Z" class="g1_3"/>
<path d="M550.9,335.3h.8V313.5h-.8v21.8Z" class="g1_3"/>
<path d="M642.6,335.3h.7V313.5h-.7v21.8Z" class="g1_3"/>
<path d="M1152.1,335.3h.7V313.5h-.7v21.8Z" class="g1_3"/>
<path d="M1238.2,335.3h.8V313.5h-.8v21.8Z" class="g1_3"/>
<path d="M47.1,336.1h.7v-.8h-.7v.8Z" class="g1_3"/>
<path d="M47.8,336.1H550.9v-.8H47.8v.8Z" class="g1_3"/>
<path d="M550.9,336.1h.8v-.8h-.8v.8Z" class="g1_3"/>
<path d="M551.6,336.1h91v-.8h-91v.8Z" class="g1_3"/>
<path d="M642.6,336.1h.7v-.8h-.7v.8Z" class="g1_3"/>
<path d="M643.3,336.1h508.8v-.8H643.3v.8Z" class="g1_3"/>
<path d="M1152.1,336.1h.7v-.8h-.7v.8Z" class="g1_3"/>
<path d="M1152.8,336.1h85.4v-.8h-85.4v.8Z" class="g1_3"/>
<path d="M1238.2,336.1h.8v-.8h-.8v.8Z" class="g1_3"/>
<path d="M47.1,357.7h.7V336h-.7v21.7Z" class="g1_3"/>
<path d="M550.9,357.7h.8V336h-.8v21.7Z" class="g1_3"/>
<path d="M642.6,357.7h.7V336h-.7v21.7Z" class="g1_3"/>
<path d="M1152.1,357.7h.7V336h-.7v21.7Z" class="g1_3"/>
<path d="M1238.2,357.7h.8V336h-.8v21.7Z" class="g1_3"/>
<path d="M47.1,358.4h.7v-.7h-.7v.7Z" class="g1_3"/>
<path d="M47.8,358.4H550.9v-.7H47.8v.7Z" class="g1_3"/>
<path d="M550.9,358.4h.8v-.7h-.8v.7Z" class="g1_3"/>
<path d="M551.6,358.4h91v-.7h-91v.7Z" class="g1_3"/>
<path d="M642.6,358.4h.7v-.7h-.7v.7Z" class="g1_3"/>
<path d="M643.3,358.4h508.8v-.7H643.3v.7Z" class="g1_3"/>
<path d="M1152.1,358.4h.7v-.7h-.7v.7Z" class="g1_3"/>
<path d="M1152.8,358.4h85.4v-.7h-85.4v.7Z" class="g1_3"/>
<path d="M1238.2,358.4h.8v-.7h-.8v.7Z" class="g1_3"/>
<path d="M47.1,380.2h.7V358.4h-.7v21.8Z" class="g1_3"/>
<path d="M550.9,380.2h.8V358.4h-.8v21.8Z" class="g1_3"/>
<path d="M642.6,380.2h.7V358.4h-.7v21.8Z" class="g1_3"/>
<path d="M1152.1,380.2h.7V358.4h-.7v21.8Z" class="g1_3"/>
<path d="M1238.2,380.2h.8V358.4h-.8v21.8Z" class="g1_3"/>
<path d="M47.1,381h.7v-.8h-.7v.8Z" class="g1_3"/>
<path d="M47.8,381H550.9v-.8H47.8v.8Z" class="g1_3"/>
<path d="M550.9,381h.8v-.8h-.8v.8Z" class="g1_3"/>
<path d="M551.6,381h91v-.8h-91v.8Z" class="g1_3"/>
<path d="M642.6,381h.7v-.8h-.7v.8Z" class="g1_3"/>
<path d="M643.3,381h508.8v-.8H643.3v.8Z" class="g1_3"/>
<path d="M1152.1,381h.7v-.8h-.7v.8Z" class="g1_3"/>
<path d="M1152.8,381h85.4v-.8h-85.4v.8Z" class="g1_3"/>
<path d="M1238.2,381h.8v-.8h-.8v.8Z" class="g1_3"/>
<path d="M47.1,402.6h.7V381h-.7v21.6Z" class="g1_3"/>
<path d="M550.9,402.6h.8V381h-.8v21.6Z" class="g1_3"/>
<path d="M642.6,402.6h.7V381h-.7v21.6Z" class="g1_3"/>
<path d="M1152.1,402.6h.7V381h-.7v21.6Z" class="g1_3"/>
<path d="M1238.2,402.6h.8V381h-.8v21.6Z" class="g1_3"/>
<path d="M47.1,403.3h.7v-.7h-.7v.7Z" class="g1_3"/>
<path d="M47.8,403.3H550.9v-.7H47.8v.7Z" class="g1_3"/>
<path d="M550.9,403.3h.8v-.7h-.8v.7Z" class="g1_3"/>
<path d="M551.6,403.3h91v-.7h-91v.7Z" class="g1_3"/>
<path d="M642.6,403.3h.7v-.7h-.7v.7Z" class="g1_3"/>
<path d="M643.3,403.3h508.8v-.7H643.3v.7Z" class="g1_3"/>
<path d="M1152.1,403.3h.7v-.7h-.7v.7Z" class="g1_3"/>
<path d="M1152.8,403.3h85.4v-.7h-85.4v.7Z" class="g1_3"/>
<path d="M1238.2,403.3h.8v-.7h-.8v.7Z" class="g1_3"/>
<path d="M47.1,425.2h.7V403.3h-.7v21.9Z" class="g1_3"/>
<path d="M550.9,425.2h.8V403.3h-.8v21.9Z" class="g1_3"/>
<path d="M642.6,425.2h.7V403.3h-.7v21.9Z" class="g1_3"/>
<path d="M1152.1,425.2h.7V403.3h-.7v21.9Z" class="g1_3"/>
<path d="M1238.2,425.2h.8V403.3h-.8v21.9Z" class="g1_3"/>
<path d="M47.1,425.9h.7v-.8h-.7v.8Z" class="g1_3"/>
<path d="M47.8,425.9H550.9v-.8H47.8v.8Z" class="g1_3"/>
<path d="M550.9,425.9h.8v-.8h-.8v.8Z" class="g1_3"/>
<path d="M551.6,425.9h91v-.8h-91v.8Z" class="g1_3"/>
<path d="M642.6,425.9h.7v-.8h-.7v.8Z" class="g1_3"/>
<path d="M643.3,425.9h508.8v-.8H643.3v.8Z" class="g1_3"/>
<path d="M1152.1,425.9h.7v-.8h-.7v.8Z" class="g1_3"/>
<path d="M1152.8,425.9h85.4v-.8h-85.4v.8Z" class="g1_3"/>
<path d="M1238.2,425.9h.8v-.8h-.8v.8Z" class="g1_3"/>
<path d="M47.1,447.5h.7V425.9h-.7v21.6Z" class="g1_3"/>
<path d="M550.9,447.5h.8V425.9h-.8v21.6Z" class="g1_3"/>
<path d="M642.6,447.5h.7V425.9h-.7v21.6Z" class="g1_3"/>
<path d="M1152.1,447.5h.7V425.9h-.7v21.6Z" class="g1_3"/>
<path d="M1238.2,447.5h.8V425.9h-.8v21.6Z" class="g1_3"/>
<path d="M47.1,448.2h.7v-.7h-.7v.7Z" class="g1_3"/>
<path d="M47.8,448.2H550.9v-.7H47.8v.7Z" class="g1_3"/>
<path d="M550.9,448.2h.8v-.7h-.8v.7Z" class="g1_3"/>
<path d="M551.6,448.2h91v-.7h-91v.7Z" class="g1_3"/>
<path d="M642.6,448.2h.7v-.7h-.7v.7Z" class="g1_3"/>
<path d="M643.3,448.2h508.8v-.7H643.3v.7Z" class="g1_3"/>
<path d="M1152.1,448.2h.7v-.7h-.7v.7Z" class="g1_3"/>
<path d="M1152.8,448.2h85.4v-.7h-85.4v.7Z" class="g1_3"/>
<path d="M1238.2,448.2h.8v-.7h-.8v.7Z" class="g1_3"/>
<path d="M47.1,470.1h.7V448.2h-.7v21.9Z" class="g1_3"/>
<path d="M550.9,470.1h.8V448.2h-.8v21.9Z" class="g1_3"/>
<path d="M642.6,470.1h.7V448.2h-.7v21.9Z" class="g1_3"/>
<path d="M1152.1,470.1h.7V448.2h-.7v21.9Z" class="g1_3"/>
<path d="M1238.2,470.1h.8V448.2h-.8v21.9Z" class="g1_3"/>
<path d="M47.1,470.8h.7v-.7h-.7v.7Z" class="g1_3"/>
<path d="M47.8,470.8H550.9v-.7H47.8v.7Z" class="g1_3"/>
<path d="M550.9,470.8h.8v-.7h-.8v.7Z" class="g1_3"/>
<path d="M551.6,470.8h91v-.7h-91v.7Z" class="g1_3"/>
<path d="M642.6,470.8h.7v-.7h-.7v.7Z" class="g1_3"/>
<path d="M643.3,470.8h508.8v-.7H643.3v.7Z" class="g1_3"/>
<path d="M1152.1,470.8h.7v-.7h-.7v.7Z" class="g1_3"/>
<path d="M1152.8,470.8h85.4v-.7h-85.4v.7Z" class="g1_3"/>
<path d="M1238.2,470.8h.8v-.7h-.8v.7Z" class="g1_3"/>
<path d="M47.1,492.4h.7V470.8h-.7v21.6Z" class="g1_3"/>
<path d="M550.9,492.4h.8V470.8h-.8v21.6Z" class="g1_3"/>
<path d="M642.6,492.4h.7V470.8h-.7v21.6Z" class="g1_3"/>
<path d="M1152.1,492.4h.7V470.8h-.7v21.6Z" class="g1_3"/>
<path d="M1238.2,492.4h.8V470.8h-.8v21.6Z" class="g1_3"/>
<path d="M47.1,493.2h.7v-.8h-.7v.8Z" class="g1_3"/>
<path d="M47.8,493.2H550.9v-.8H47.8v.8Z" class="g1_3"/>
<path d="M550.9,493.2h.8v-.8h-.8v.8Z" class="g1_3"/>
<path d="M551.6,493.2h91v-.8h-91v.8Z" class="g1_3"/>
<path d="M642.6,493.2h.7v-.8h-.7v.8Z" class="g1_3"/>
<path d="M643.3,493.2h508.8v-.8H643.3v.8Z" class="g1_3"/>
<path d="M1152.1,493.2h.7v-.8h-.7v.8Z" class="g1_3"/>
<path d="M1152.8,493.2h85.4v-.8h-85.4v.8Z" class="g1_3"/>
<path d="M1238.2,493.2h.8v-.8h-.8v.8Z" class="g1_3"/>
<path d="M47.1,515h.7V493.2h-.7V515Z" class="g1_3"/>
<path d="M550.9,515h.8V493.2h-.8V515Z" class="g1_3"/>
<path d="M642.6,515h.7V493.2h-.7V515Z" class="g1_3"/>
<path d="M1152.1,515h.7V493.2h-.7V515Z" class="g1_3"/>
<path d="M1238.2,515h.8V493.2h-.8V515Z" class="g1_3"/>
<path d="M47.1,515.7h.7V515h-.7v.7Z" class="g1_3"/>
<path d="M47.8,515.7H550.9V515H47.8v.7Z" class="g1_3"/>
<path d="M550.9,515.7h.8V515h-.8v.7Z" class="g1_3"/>
<path d="M551.6,515.7h91V515h-91v.7Z" class="g1_3"/>
<path d="M642.6,515.7h.7V515h-.7v.7Z" class="g1_3"/>
<path d="M643.3,515.7h508.8V515H643.3v.7Z" class="g1_3"/>
<path d="M1152.1,515.7h.7V515h-.7v.7Z" class="g1_3"/>
<path d="M1152.8,515.7h85.4V515h-85.4v.7Z" class="g1_3"/>
<path d="M1238.2,515.7h.8V515h-.8v.7Z" class="g1_3"/>
<path d="M47.1,537.4h.7V515.7h-.7v21.7Z" class="g1_3"/>
<path d="M550.9,537.4h.8V515.7h-.8v21.7Z" class="g1_3"/>
<path d="M642.6,537.4h.7V515.7h-.7v21.7Z" class="g1_3"/>
<path d="M1152.1,537.4h.7V515.7h-.7v21.7Z" class="g1_3"/>
<path d="M1238.2,537.4h.8V515.7h-.8v21.7Z" class="g1_3"/>
<path d="M47.1,538.1h.7v-.8h-.7v.8Z" class="g1_3"/>
<path d="M47.8,538.1H550.9v-.8H47.8v.8Z" class="g1_3"/>
<path d="M550.9,538.1h.8v-.8h-.8v.8Z" class="g1_3"/>
<path d="M551.6,538.1h91v-.8h-91v.8Z" class="g1_3"/>
<path d="M642.6,538.1h.7v-.8h-.7v.8Z" class="g1_3"/>
<path d="M643.3,538.1h508.8v-.8H643.3v.8Z" class="g1_3"/>
<path d="M1152.1,538.1h.7v-.8h-.7v.8Z" class="g1_3"/>
<path d="M1152.8,538.1h85.4v-.8h-85.4v.8Z" class="g1_3"/>
<path d="M1238.2,538.1h.8v-.8h-.8v.8Z" class="g1_3"/>
<path d="M47.1,559.9h.7V538.1h-.7v21.8Z" class="g1_3"/>
<path d="M550.9,559.9h.8V538.1h-.8v21.8Z" class="g1_3"/>
<path d="M642.6,559.9h.7V538.1h-.7v21.8Z" class="g1_3"/>
<path d="M1152.1,559.9h.7V538.1h-.7v21.8Z" class="g1_3"/>
<path d="M1238.2,559.9h.8V538.1h-.8v21.8Z" class="g1_3"/>
<path d="M47.1,560.6h.7v-.7h-.7v.7Z" class="g1_3"/>
<path d="M47.8,560.6H550.9v-.7H47.8v.7Z" class="g1_3"/>
<path d="M550.9,560.6h.8v-.7h-.8v.7Z" class="g1_3"/>
<path d="M551.6,560.6h91v-.7h-91v.7Z" class="g1_3"/>
<path d="M642.6,560.6h.7v-.7h-.7v.7Z" class="g1_3"/>
<path d="M643.3,560.6h508.8v-.7H643.3v.7Z" class="g1_3"/>
<path d="M1152.1,560.6h.7v-.7h-.7v.7Z" class="g1_3"/>
<path d="M1152.8,560.6h85.4v-.7h-85.4v.7Z" class="g1_3"/>
<path d="M1238.2,560.6h.8v-.7h-.8v.7Z" class="g1_3"/>
<path d="M47.1,582.3h.7V560.6h-.7v21.7Z" class="g1_3"/>
<path d="M550.9,582.3h.8V560.6h-.8v21.7Z" class="g1_3"/>
<path d="M642.6,582.3h.7V560.6h-.7v21.7Z" class="g1_3"/>
<path d="M1152.1,582.3h.7V560.6h-.7v21.7Z" class="g1_3"/>
<path d="M1238.2,582.3h.8V560.6h-.8v21.7Z" class="g1_3"/>
<path d="M47.1,583h.7v-.7h-.7v.7Z" class="g1_3"/>
<path d="M47.8,583H550.9v-.7H47.8v.7Z" class="g1_3"/>
<path d="M550.9,583h.8v-.7h-.8v.7Z" class="g1_3"/>
<path d="M551.6,583h91v-.7h-91v.7Z" class="g1_3"/>
<path d="M642.6,583h.7v-.7h-.7v.7Z" class="g1_3"/>
<path d="M643.3,583h508.8v-.7H643.3v.7Z" class="g1_3"/>
<path d="M1152.1,583h.7v-.7h-.7v.7Z" class="g1_3"/>
<path d="M1152.8,583h85.4v-.7h-85.4v.7Z" class="g1_3"/>
<path d="M1238.2,583h.8v-.7h-.8v.7Z" class="g1_3"/>
<path d="M47.1,604.8h.7V583h-.7v21.8Z" class="g1_3"/>
<path d="M550.9,604.8h.8V583h-.8v21.8Z" class="g1_3"/>
<path d="M642.6,604.8h.7V583h-.7v21.8Z" class="g1_3"/>
<path d="M1152.1,604.8h.7V583h-.7v21.8Z" class="g1_3"/>
<path d="M1238.2,604.8h.8V583h-.8v21.8Z" class="g1_3"/>
<path d="M47.1,605.6h.7v-.8h-.7v.8Z" class="g1_3"/>
<path d="M47.8,605.6H550.9v-.8H47.8v.8Z" class="g1_3"/>
<path d="M550.9,605.6h.8v-.8h-.8v.8Z" class="g1_3"/>
<path d="M551.6,605.6h91v-.8h-91v.8Z" class="g1_3"/>
<path d="M642.6,605.6h.7v-.8h-.7v.8Z" class="g1_3"/>
<path d="M643.3,605.6h508.8v-.8H643.3v.8Z" class="g1_3"/>
<path d="M1152.1,605.6h.7v-.8h-.7v.8Z" class="g1_3"/>
<path d="M1152.8,605.6h85.4v-.8h-85.4v.8Z" class="g1_3"/>
<path d="M1238.2,605.6h.8v-.8h-.8v.8Z" class="g1_3"/>
<path d="M47.1,627.2h.7V605.5h-.7v21.7Z" class="g1_3"/>
<path d="M550.9,627.2h.8V605.5h-.8v21.7Z" class="g1_3"/>
<path d="M642.6,627.2h.7V605.5h-.7v21.7Z" class="g1_3"/>
<path d="M1152.1,627.2h.7V605.5h-.7v21.7Z" class="g1_3"/>
<path d="M1238.2,627.2h.8V605.5h-.8v21.7Z" class="g1_3"/>
<path d="M47.1,627.9h.7v-.7h-.7v.7Z" class="g1_3"/>
<path d="M47.8,627.9H550.9v-.7H47.8v.7Z" class="g1_3"/>
<path d="M550.9,627.9h.8v-.7h-.8v.7Z" class="g1_3"/>
<path d="M551.6,627.9h91v-.7h-91v.7Z" class="g1_3"/>
<path d="M642.6,627.9h.7v-.7h-.7v.7Z" class="g1_3"/>
<path d="M643.3,627.9h508.8v-.7H643.3v.7Z" class="g1_3"/>
<path d="M1152.1,627.9h.7v-.7h-.7v.7Z" class="g1_3"/>
<path d="M1152.8,627.9h85.4v-.7h-85.4v.7Z" class="g1_3"/>
<path d="M1238.2,627.9h.8v-.7h-.8v.7Z" class="g1_3"/>
<path d="M47.1,649.7h.7V627.9h-.7v21.8Z" class="g1_3"/>
<path d="M550.9,649.7h.8V627.9h-.8v21.8Z" class="g1_3"/>
<path d="M642.6,649.7h.7V627.9h-.7v21.8Z" class="g1_3"/>
<path d="M1152.1,649.7h.7V627.9h-.7v21.8Z" class="g1_3"/>
<path d="M1238.2,649.7h.8V627.9h-.8v21.8Z" class="g1_3"/>
<path d="M47.1,650.5h.7v-.8h-.7v.8Z" class="g1_3"/>
<path d="M47.8,650.5H550.9v-.8H47.8v.8Z" class="g1_3"/>
<path d="M550.9,650.5h.8v-.8h-.8v.8Z" class="g1_3"/>
<path d="M551.6,650.5h91v-.8h-91v.8Z" class="g1_3"/>
<path d="M642.6,650.5h.7v-.8h-.7v.8Z" class="g1_3"/>
<path d="M643.3,650.5h508.8v-.8H643.3v.8Z" class="g1_3"/>
<path d="M1152.1,650.5h.7v-.8h-.7v.8Z" class="g1_3"/>
<path d="M1152.8,650.5h85.4v-.8h-85.4v.8Z" class="g1_3"/>
<path d="M1238.2,650.5h.8v-.8h-.8v.8Z" class="g1_3"/>
<path d="M47.1,672.1h.7V650.5h-.7v21.6Z" class="g1_3"/>
<path d="M550.9,672.1h.8V650.5h-.8v21.6Z" class="g1_3"/>
<path d="M642.6,672.1h.7V650.5h-.7v21.6Z" class="g1_3"/>
<path d="M1152.1,672.1h.7V650.5h-.7v21.6Z" class="g1_3"/>
<path d="M1238.2,672.1h.8V650.5h-.8v21.6Z" class="g1_3"/>
<path d="M47.1,672.8h.7v-.7h-.7v.7Z" class="g1_3"/>
<path d="M47.8,672.8H550.9v-.7H47.8v.7Z" class="g1_3"/>
<path d="M550.9,672.8h.8v-.7h-.8v.7Z" class="g1_3"/>
<path d="M551.6,672.8h91v-.7h-91v.7Z" class="g1_3"/>
<path d="M642.6,672.8h.7v-.7h-.7v.7Z" class="g1_3"/>
<path d="M643.3,672.8h508.8v-.7H643.3v.7Z" class="g1_3"/>
<path d="M1152.1,672.8h.7v-.7h-.7v.7Z" class="g1_3"/>
<path d="M1152.8,672.8h85.4v-.7h-85.4v.7Z" class="g1_3"/>
<path d="M1238.2,672.8h.8v-.7h-.8v.7Z" class="g1_3"/>
<path d="M47.1,694.7h.7V672.8h-.7v21.9Z" class="g1_3"/>
<path d="M550.9,694.7h.8V672.8h-.8v21.9Z" class="g1_3"/>
<path d="M642.6,694.7h.7V672.8h-.7v21.9Z" class="g1_3"/>
<path d="M1152.1,694.7h.7V672.8h-.7v21.9Z" class="g1_3"/>
<path d="M1238.2,694.7h.8V672.8h-.8v21.9Z" class="g1_3"/>
<path d="M47.1,695.4h.7v-.8h-.7v.8Z" class="g1_3"/>
<path d="M47.8,695.4H550.9v-.8H47.8v.8Z" class="g1_3"/>
<path d="M550.9,695.4h.8v-.8h-.8v.8Z" class="g1_3"/>
<path d="M551.6,695.4h91v-.8h-91v.8Z" class="g1_3"/>
<path d="M642.6,695.4h.7v-.8h-.7v.8Z" class="g1_3"/>
<path d="M643.3,695.4h508.8v-.8H643.3v.8Z" class="g1_3"/>
<path d="M1152.1,695.4h.7v-.8h-.7v.8Z" class="g1_3"/>
<path d="M1152.8,695.4h85.4v-.8h-85.4v.8Z" class="g1_3"/>
<path d="M1238.2,695.4h.8v-.8h-.8v.8Z" class="g1_3"/>
<path d="M47.1,717h.7V695.4h-.7V717Z" class="g1_3"/>
<path d="M550.9,717h.8V695.4h-.8V717Z" class="g1_3"/>
<path d="M642.6,717h.7V695.4h-.7V717Z" class="g1_3"/>
<path d="M1152.1,717h.7V695.4h-.7V717Z" class="g1_3"/>
<path d="M1238.2,717h.8V695.4h-.8V717Z" class="g1_3"/>
<path d="M47.1,717.8h.7V717h-.7v.8Z" class="g1_3"/>
<path d="M47.8,717.8H550.9V717H47.8v.8Z" class="g1_3"/>
<path d="M550.9,717.8h.8V717h-.8v.8Z" class="g1_3"/>
<path d="M551.6,717.8h91V717h-91v.8Z" class="g1_3"/>
<path d="M642.6,717.8h.7V717h-.7v.8Z" class="g1_3"/>
<path d="M643.3,717.8h508.8V717H643.3v.8Z" class="g1_3"/>
<path d="M1152.1,717.8h.7V717h-.7v.8Z" class="g1_3"/>
<path d="M1152.8,717.8h85.4V717h-85.4v.8Z" class="g1_3"/>
<path d="M1238.2,717.8h.8V717h-.8v.8Z" class="g1_3"/>
<path d="M47.1,739.6h.7V717.8h-.7v21.8Z" class="g1_3"/>
<path d="M550.9,739.6h.8V717.8h-.8v21.8Z" class="g1_3"/>
<path d="M642.6,739.6h.7V717.8h-.7v21.8Z" class="g1_3"/>
<path d="M1152.1,739.6h.7V717.8h-.7v21.8Z" class="g1_3"/>
<path d="M1238.2,739.6h.8V717.8h-.8v21.8Z" class="g1_3"/>
<path d="M47.1,740.3h.7v-.7h-.7v.7Z" class="g1_3"/>
<path d="M47.8,740.3H550.9v-.7H47.8v.7Z" class="g1_3"/>
<path d="M550.9,740.3h.8v-.7h-.8v.7Z" class="g1_3"/>
<path d="M551.6,740.3h91v-.7h-91v.7Z" class="g1_3"/>
<path d="M642.6,740.3h.7v-.7h-.7v.7Z" class="g1_3"/>
<path d="M643.3,740.3h508.8v-.7H643.3v.7Z" class="g1_3"/>
<path d="M1152.1,740.3h.7v-.7h-.7v.7Z" class="g1_3"/>
<path d="M1152.8,740.3h85.4v-.7h-85.4v.7Z" class="g1_3"/>
<path d="M1238.2,740.3h.8v-.7h-.8v.7Z" class="g1_3"/>
<path d="M47.1,761.9h.7V740.3h-.7v21.6Z" class="g1_3"/>
<path d="M550.9,761.9h.8V740.3h-.8v21.6Z" class="g1_3"/>
<path d="M642.6,761.9h.7V740.3h-.7v21.6Z" class="g1_3"/>
<path d="M1152.1,761.9h.7V740.3h-.7v21.6Z" class="g1_3"/>
<path d="M1238.2,761.9h.8V740.3h-.8v21.6Z" class="g1_3"/>
<path d="M47.1,762.7h.7v-.8h-.7v.8Z" class="g1_3"/>
<path d="M47.8,762.7H550.9v-.8H47.8v.8Z" class="g1_3"/>
<path d="M550.9,762.7h.8v-.8h-.8v.8Z" class="g1_3"/>
<path d="M551.6,762.7h91v-.8h-91v.8Z" class="g1_3"/>
<path d="M642.6,762.7h.7v-.8h-.7v.8Z" class="g1_3"/>
<path d="M643.3,762.7h508.8v-.8H643.3v.8Z" class="g1_3"/>
<path d="M1152.1,762.7h.7v-.8h-.7v.8Z" class="g1_3"/>
<path d="M1152.8,762.7h85.4v-.8h-85.4v.8Z" class="g1_3"/>
<path d="M1238.2,762.7h.8v-.8h-.8v.8Z" class="g1_3"/>
<path d="M47.1,784.5h.7V762.7h-.7v21.8Z" class="g1_3"/>
<path d="M550.9,784.5h.8V762.7h-.8v21.8Z" class="g1_3"/>
<path d="M642.6,784.5h.7V762.7h-.7v21.8Z" class="g1_3"/>
<path d="M1152.1,784.5h.7V762.7h-.7v21.8Z" class="g1_3"/>
<path d="M1238.2,784.5h.8V762.7h-.8v21.8Z" class="g1_3"/>
<path d="M47.1,785.2h.7v-.7h-.7v.7Z" class="g1_3"/>
<path d="M47.8,785.2H550.9v-.7H47.8v.7Z" class="g1_3"/>
<path d="M550.9,785.2h.8v-.7h-.8v.7Z" class="g1_3"/>
<path d="M551.6,785.2h91v-.7h-91v.7Z" class="g1_3"/>
<path d="M642.6,785.2h.7v-.7h-.7v.7Z" class="g1_3"/>
<path d="M643.3,785.2h508.8v-.7H643.3v.7Z" class="g1_3"/>
<path d="M1152.1,785.2h.7v-.7h-.7v.7Z" class="g1_3"/>
<path d="M1152.8,785.2h85.4v-.7h-85.4v.7Z" class="g1_3"/>
<path d="M1238.2,785.2h.8v-.7h-.8v.7Z" class="g1_3"/>
<path d="M47.1,806.9h.7V785.2h-.7v21.7Z" class="g1_3"/>
<path d="M550.9,806.9h.8V785.2h-.8v21.7Z" class="g1_3"/>
<path d="M642.6,806.9h.7V785.2h-.7v21.7Z" class="g1_3"/>
<path d="M1152.1,806.9h.7V785.2h-.7v21.7Z" class="g1_3"/>
<path d="M1238.2,806.9h.8V785.2h-.8v21.7Z" class="g1_3"/>
<path d="M47.1,807.6h.7v-.8h-.7v.8Z" class="g1_3"/>
<path d="M47.8,807.6H550.9v-.8H47.8v.8Z" class="g1_3"/>
<path d="M550.9,807.6h.8v-.8h-.8v.8Z" class="g1_3"/>
<path d="M551.6,807.6h91v-.8h-91v.8Z" class="g1_3"/>
<path d="M642.6,807.6h.7v-.8h-.7v.8Z" class="g1_3"/>
<path d="M643.3,807.6h508.8v-.8H643.3v.8Z" class="g1_3"/>
<path d="M1152.1,807.6h.7v-.8h-.7v.8Z" class="g1_3"/>
<path d="M1152.8,807.6h85.4v-.8h-85.4v.8Z" class="g1_3"/>
<path d="M1238.2,807.6h.8v-.8h-.8v.8Z" class="g1_3"/>
<path d="M47.1,829.4h.7V807.6h-.7v21.8Z" class="g1_3"/>
<path d="M550.9,829.4h.8V807.6h-.8v21.8Z" class="g1_3"/>
<path d="M642.6,829.4h.7V807.6h-.7v21.8Z" class="g1_3"/>
<path d="M1152.1,829.4h.7V807.6h-.7v21.8Z" class="g1_3"/>
<path d="M1238.2,829.4h.8V807.6h-.8v21.8Z" class="g1_3"/>
<path d="M47.1,830.1h.7v-.7h-.7v.7Z" class="g1_3"/>
<path d="M47.8,830.1H550.9v-.7H47.8v.7Z" class="g1_3"/>
<path d="M550.9,830.1h.8v-.7h-.8v.7Z" class="g1_3"/>
<path d="M551.6,830.1h91v-.7h-91v.7Z" class="g1_3"/>
<path d="M642.6,830.1h.7v-.7h-.7v.7Z" class="g1_3"/>
<path d="M643.3,830.1h508.8v-.7H643.3v.7Z" class="g1_3"/>
<path d="M1152.1,830.1h.7v-.7h-.7v.7Z" class="g1_3"/>
<path d="M1152.8,830.1h85.4v-.7h-85.4v.7Z" class="g1_3"/>
<path d="M1238.2,830.1h.8v-.7h-.8v.7Z" class="g1_3"/>
<path d="M47.1,851.8h.7V830.1h-.7v21.7Z" class="g1_3"/>
<path d="M47.1,852.5h.7v-.7h-.7v.7Z" class="g1_3"/>
<path d="M47.1,852.5h.7v-.7h-.7v.7Z" class="g1_3"/>
<path d="M47.8,852.5H550.9v-.7H47.8v.7Z" class="g1_3"/>
<path d="M550.9,851.8h.8V830.1h-.8v21.7Z" class="g1_3"/>
<path d="M550.9,852.5h.8v-.7h-.8v.7Z" class="g1_3"/>
<path d="M551.6,852.5h91v-.7h-91v.7Z" class="g1_3"/>
<path d="M642.6,851.8h.7V830.1h-.7v21.7Z" class="g1_3"/>
<path d="M642.6,852.5h.7v-.7h-.7v.7Z" class="g1_3"/>
<path d="M643.3,852.5h508.8v-.7H643.3v.7Z" class="g1_3"/>
<path d="M1152.1,851.8h.7V830.1h-.7v21.7Z" class="g1_3"/>
<path d="M1152.1,852.5h.7v-.7h-.7v.7Z" class="g1_3"/>
<path d="M1152.8,852.5h85.4v-.7h-85.4v.7Z" class="g1_3"/>
<path d="M1238.2,851.8h.8V830.1h-.8v21.7Z" class="g1_3"/>
<path d="M1238.2,852.5h.8v-.7h-.8v.7Z" class="g1_3"/>
<path d="M1238.2,852.5h.8v-.7h-.8v.7Z" class="g1_3"/>
</svg>