<?xml version="1.0" encoding="UTF-8" standalone="no"?>
<!DOCTYPE svg PUBLIC "-//W3C//DTD SVG 1.1//EN"
"http://www.w3.org/Graphics/SVG/1.1/DTD/svg11.dtd">
<svg viewBox="0 0 1286 909" version="1.1" xmlns="http://www.w3.org/2000/svg" xmlns:xlink="http://www.w3.org/1999/xlink">
<defs>
<style type="text/css"><![CDATA[
.g0{
fill: #D9D9D9;
}
.g1{
}
]]></style>
</defs>
<path fill-rule="evenodd" d="M47.8,65.8H328.4V44H47.8V65.8Z" class="g0"/>
<path fill-rule="evenodd" d="M55.7,63.6H320.5V46.2H55.7V63.6Z" class="g0"/>
<path fill-rule="evenodd" d="M329.1,65.8H588.3V44H329.1V65.8Z" class="g0"/>
<path fill-rule="evenodd" d="M337,63.6H580.4V46.2H337V63.6Z" class="g0"/>
<path fill-rule="evenodd" d="M589.1,65.8h649.1V44H589.1V65.8Z" class="g0"/>
<path fill-rule="evenodd" d="M596.9,63.6h633.5V46.2H596.9V63.6Z" class="g0"/>
<path d="M47.1,44h.7v-.7h-.7V44Z" class="g1"/>
<path d="M47.1,44h.7v-.7h-.7V44Z" class="g1"/>
<path d="M47.8,44H328.4v-.7H47.8V44Z" class="g1"/>
<path d="M328.4,44h.7v-.7h-.7V44Z" class="g1"/>
<path d="M329.1,44h259v-.7h-259V44Z" class="g1"/>
<path d="M588.1,44h.8v-.7h-.8V44Z" class="g1"/>
<path d="M588.9,44h649.3v-.7H588.9V44Z" class="g1"/>
<path d="M1238.2,44h.8v-.7h-.8V44Z" class="g1"/>
<path d="M1238.2,44h.8v-.7h-.8V44Z" class="g1"/>
<path d="M47.1,65.8h.7V44h-.7V65.8Z" class="g1"/>
<path d="M328.4,65.8h.7V44h-.7V65.8Z" class="g1"/>
<path d="M588.1,65.8h.8V44h-.8V65.8Z" class="g1"/>
<path d="M1238.2,65.8h.8V44h-.8V65.8Z" class="g1"/>
<path d="M47.1,66.5h.7v-.7h-.7v.7Z" class="g1"/>
<path d="M47.8,66.5H328.4v-.7H47.8v.7Z" class="g1"/>
<path d="M328.4,66.5h.7v-.7h-.7v.7Z" class="g1"/>
<path d="M329.1,66.5h259v-.7h-259v.7Z" class="g1"/>
<path d="M588.1,66.5h.8v-.7h-.8v.7Z" class="g1"/>
<path d="M588.9,66.5h649.3v-.7H588.9v.7Z" class="g1"/>
<path d="M1238.2,66.5h.8v-.7h-.8v.7Z" class="g1"/>
<path d="M47.1,88.2h.7V66.5h-.7V88.2Z" class="g1"/>
<path d="M328.4,88.2h.7V66.5h-.7V88.2Z" class="g1"/>
<path d="M588.1,88.2h.8V66.5h-.8V88.2Z" class="g1"/>
<path d="M1238.2,88.2h.8V66.5h-.8V88.2Z" class="g1"/>
<path d="M47.1,88.9h.7v-.7h-.7v.7Z" class="g1"/>
<path d="M47.8,88.9H328.4v-.7H47.8v.7Z" class="g1"/>
<path d="M328.4,88.9h.7v-.7h-.7v.7Z" class="g1"/>
<path d="M329.1,88.9h259v-.7h-259v.7Z" class="g1"/>
<path d="M588.1,88.9h.8v-.7h-.8v.7Z" class="g1"/>
<path d="M588.9,88.9h649.3v-.7H588.9v.7Z" class="g1"/>
<path d="M1238.2,88.9h.8v-.7h-.8v.7Z" class="g1"/>
<path d="M47.1,110.7h.7V88.9h-.7v21.8Z" class="g1"/>
<path d="M328.4,110.7h.7V88.9h-.7v21.8Z" class="g1"/>
<path d="M588.1,110.7h.8V88.9h-.8v21.8Z" class="g1"/>
<path d="M1238.2,110.7h.8V88.9h-.8v21.8Z" class="g1"/>
<path d="M47.1,111.5h.7v-.8h-.7v.8Z" class="g1"/>
<path d="M47.8,111.5H328.4v-.8H47.8v.8Z" class="g1"/>
<path d="M328.4,111.5h.7v-.8h-.7v.8Z" class="g1"/>
<path d="M329.1,111.5h259v-.8h-259v.8Z" class="g1"/>
<path d="M588.1,111.5h.8v-.8h-.8v.8Z" class="g1"/>
<path d="M588.9,111.5h649.3v-.8H588.9v.8Z" class="g1"/>
<path d="M1238.2,111.5h.8v-.8h-.8v.8Z" class="g1"/>
<path d="M47.1,133.1h.7V111.5h-.7v21.6Z" class="g1"/>
<path d="M328.4,133.1h.7V111.5h-.7v21.6Z" class="g1"/>
<path d="M588.1,133.1h.8V111.5h-.8v21.6Z" class="g1"/>
<path d="M1238.2,133.1h.8V111.5h-.8v21.6Z" class="g1"/>
<path d="M47.1,133.8h.7v-.7h-.7v.7Z" class="g1"/>
<path d="M47.8,133.8H328.4v-.7H47.8v.7Z" class="g1"/>
<path d="M328.4,133.8h.7v-.7h-.7v.7Z" class="g1"/>
<path d="M329.1,133.8h259v-.7h-259v.7Z" class="g1"/>
<path d="M588.1,133.8h.8v-.7h-.8v.7Z" class="g1"/>
<path d="M588.9,133.8h649.3v-.7H588.9v.7Z" class="g1"/>
<path d="M1238.2,133.8h.8v-.7h-.8v.7Z" class="g1"/>
<path d="M47.1,155.7h.7V133.8h-.7v21.9Z" class="g1"/>
<path d="M328.4,155.7h.7V133.8h-.7v21.9Z" class="g1"/>
<path d="M588.1,155.7h.8V133.8h-.8v21.9Z" class="g1"/>
<path d="M1238.2,155.7h.8V133.8h-.8v21.9Z" class="g1"/>
<path d="M47.1,156.4h.7v-.8h-.7v.8Z" class="g1"/>
<path d="M47.8,156.4H328.4v-.8H47.8v.8Z" class="g1"/>
<path d="M328.4,156.4h.7v-.8h-.7v.8Z" class="g1"/>
<path d="M329.1,156.4h259v-.8h-259v.8Z" class="g1"/>
<path d="M588.1,156.4h.8v-.8h-.8v.8Z" class="g1"/>
<path d="M588.9,156.4h649.3v-.8H588.9v.8Z" class="g1"/>
<path d="M1238.2,156.4h.8v-.8h-.8v.8Z" class="g1"/>
<path d="M47.1,178h.7V156.4h-.7V178Z" class="g1"/>
<path d="M328.4,178h.7V156.4h-.7V178Z" class="g1"/>
<path d="M588.1,178h.8V156.4h-.8V178Z" class="g1"/>
<path d="M1238.2,178h.8V156.4h-.8V178Z" class="g1"/>
<path d="M47.1,178.8h.7V178h-.7v.8Z" class="g1"/>
<path d="M47.8,178.8H328.4V178H47.8v.8Z" class="g1"/>
<path d="M328.4,178.8h.7V178h-.7v.8Z" class="g1"/>
<path d="M329.1,178.8h259V178h-259v.8Z" class="g1"/>
<path d="M588.1,178.8h.8V178h-.8v.8Z" class="g1"/>
<path d="M588.9,178.8h649.3V178H588.9v.8Z" class="g1"/>
<path d="M1238.2,178.8h.8V178h-.8v.8Z" class="g1"/>
<path d="M47.1,200.6h.7V178.8h-.7v21.8Z" class="g1"/>
<path d="M328.4,200.6h.7V178.8h-.7v21.8Z" class="g1"/>
<path d="M588.1,200.6h.8V178.8h-.8v21.8Z" class="g1"/>
<path d="M1238.2,200.6h.8V178.8h-.8v21.8Z" class="g1"/>
<path d="M47.1,201.3h.7v-.7h-.7v.7Z" class="g1"/>
<path d="M47.8,201.3H328.4v-.7H47.8v.7Z" class="g1"/>
<path d="M328.4,201.3h.7v-.7h-.7v.7Z" class="g1"/>
<path d="M329.1,201.3h259v-.7h-259v.7Z" class="g1"/>
<path d="M588.1,201.3h.8v-.7h-.8v.7Z" class="g1"/>
<path d="M588.9,201.3h649.3v-.7H588.9v.7Z" class="g1"/>
<path d="M1238.2,201.3h.8v-.7h-.8v.7Z" class="g1"/>
<path d="M47.1,222.9h.7V201.3h-.7v21.6Z" class="g1"/>
<path d="M328.4,222.9h.7V201.3h-.7v21.6Z" class="g1"/>
<path d="M588.1,222.9h.8V201.3h-.8v21.6Z" class="g1"/>
<path d="M1238.2,222.9h.8V201.3h-.8v21.6Z" class="g1"/>
<path d="M47.1,223.7h.7v-.8h-.7v.8Z" class="g1"/>
<path d="M47.8,223.7H328.4v-.8H47.8v.8Z" class="g1"/>
<path d="M328.4,223.7h.7v-.8h-.7v.8Z" class="g1"/>
<path d="M329.1,223.7h259v-.8h-259v.8Z" class="g1"/>
<path d="M588.1,223.7h.8v-.8h-.8v.8Z" class="g1"/>
<path d="M588.9,223.7h649.3v-.8H588.9v.8Z" class="g1"/>
<path d="M1238.2,223.7h.8v-.8h-.8v.8Z" class="g1"/>
<path d="M47.1,245.5h.7V223.7h-.7v21.8Z" class="g1"/>
<path d="M328.4,245.5h.7V223.7h-.7v21.8Z" class="g1"/>
<path d="M588.1,245.5h.8V223.7h-.8v21.8Z" class="g1"/>
<path d="M1238.2,245.5h.8V223.7h-.8v21.8Z" class="g1"/>
<path d="M47.1,246.2h.7v-.7h-.7v.7Z" class="g1"/>
<path d="M47.8,246.2H328.4v-.7H47.8v.7Z" class="g1"/>
<path d="M328.4,246.2h.7v-.7h-.7v.7Z" class="g1"/>
<path d="M329.1,246.2h259v-.7h-259v.7Z" class="g1"/>
<path d="M588.1,246.2h.8v-.7h-.8v.7Z" class="g1"/>
<path d="M588.9,246.2h649.3v-.7H588.9v.7Z" class="g1"/>
<path d="M1238.2,246.2h.8v-.7h-.8v.7Z" class="g1"/>
<path d="M47.1,267.9h.7V246.2h-.7v21.7Z" class="g1"/>
<path d="M328.4,267.9h.7V246.2h-.7v21.7Z" class="g1"/>
<path d="M588.1,267.9h.8V246.2h-.8v21.7Z" class="g1"/>
<path d="M1238.2,267.9h.8V246.2h-.8v21.7Z" class="g1"/>
<path d="M47.1,268.6h.7v-.8h-.7v.8Z" class="g1"/>
<path d="M47.8,268.6H328.4v-.8H47.8v.8Z" class="g1"/>
<path d="M328.4,268.6h.7v-.8h-.7v.8Z" class="g1"/>
<path d="M329.1,268.6h259v-.8h-259v.8Z" class="g1"/>
<path d="M588.1,268.6h.8v-.8h-.8v.8Z" class="g1"/>
<path d="M588.9,268.6h649.3v-.8H588.9v.8Z" class="g1"/>
<path d="M1238.2,268.6h.8v-.8h-.8v.8Z" class="g1"/>
<path d="M47.1,290.4h.7V268.6h-.7v21.8Z" class="g1"/>
<path d="M328.4,290.4h.7V268.6h-.7v21.8Z" class="g1"/>
<path d="M588.1,290.4h.8V268.6h-.8v21.8Z" class="g1"/>
<path d="M1238.2,290.4h.8V268.6h-.8v21.8Z" class="g1"/>
<path d="M47.1,291.1h.7v-.7h-.7v.7Z" class="g1"/>
<path d="M47.8,291.1H328.4v-.7H47.8v.7Z" class="g1"/>
<path d="M328.4,291.1h.7v-.7h-.7v.7Z" class="g1"/>
<path d="M329.1,291.1h259v-.7h-259v.7Z" class="g1"/>
<path d="M588.1,291.1h.8v-.7h-.8v.7Z" class="g1"/>
<path d="M588.9,291.1h649.3v-.7H588.9v.7Z" class="g1"/>
<path d="M1238.2,291.1h.8v-.7h-.8v.7Z" class="g1"/>
<path d="M47.1,312.8h.7V291.1h-.7v21.7Z" class="g1"/>
<path d="M328.4,312.8h.7V291.1h-.7v21.7Z" class="g1"/>
<path d="M588.1,312.8h.8V291.1h-.8v21.7Z" class="g1"/>
<path d="M1238.2,312.8h.8V291.1h-.8v21.7Z" class="g1"/>
<path d="M47.1,313.5h.7v-.7h-.7v.7Z" class="g1"/>
<path d="M47.8,313.5H328.4v-.7H47.8v.7Z" class="g1"/>
<path d="M328.4,313.5h.7v-.7h-.7v.7Z" class="g1"/>
<path d="M329.1,313.5h259v-.7h-259v.7Z" class="g1"/>
<path d="M588.1,313.5h.8v-.7h-.8v.7Z" class="g1"/>
<path d="M588.9,313.5h649.3v-.7H588.9v.7Z" class="g1"/>
<path d="M1238.2,313.5h.8v-.7h-.8v.7Z" class="g1"/>
<path d="M47.1,335.3h.7V313.5h-.7v21.8Z" class="g1"/>
<path d="M328.4,335.3h.7V313.5h-.7v21.8Z" class="g1"/>
<path d="M588.1,335.3h.8V313.5h-.8v21.8Z" class="g1"/>
<path d="M1238.2,335.3h.8V313.5h-.8v21.8Z" class="g1"/>
<path d="M47.1,336.1h.7v-.8h-.7v.8Z" class="g1"/>
<path d="M47.8,336.1H328.4v-.8H47.8v.8Z" class="g1"/>
<path d="M328.4,336.1h.7v-.8h-.7v.8Z" class="g1"/>
<path d="M329.1,336.1h259v-.8h-259v.8Z" class="g1"/>
<path d="M588.1,336.1h.8v-.8h-.8v.8Z" class="g1"/>
<path d="M588.9,336.1h649.3v-.8H588.9v.8Z" class="g1"/>
<path d="M1238.2,336.1h.8v-.8h-.8v.8Z" class="g1"/>
<path d="M47.1,357.7h.7V336h-.7v21.7Z" class="g1"/>
<path d="M328.4,357.7h.7V336h-.7v21.7Z" class="g1"/>
<path d="M588.1,357.7h.8V336h-.8v21.7Z" class="g1"/>
<path d="M1238.2,357.7h.8V336h-.8v21.7Z" class="g1"/>
<path d="M47.1,358.4h.7v-.7h-.7v.7Z" class="g1"/>
<path d="M47.8,358.4H328.4v-.7H47.8v.7Z" class="g1"/>
<path d="M328.4,358.4h.7v-.7h-.7v.7Z" class="g1"/>
<path d="M329.1,358.4h259v-.7h-259v.7Z" class="g1"/>
<path d="M588.1,358.4h.8v-.7h-.8v.7Z" class="g1"/>
<path d="M588.9,358.4h649.3v-.7H588.9v.7Z" class="g1"/>
<path d="M1238.2,358.4h.8v-.7h-.8v.7Z" class="g1"/>
<path d="M47.1,380.2h.7V358.4h-.7v21.8Z" class="g1"/>
<path d="M328.4,380.2h.7V358.4h-.7v21.8Z" class="g1"/>
<path d="M588.1,380.2h.8V358.4h-.8v21.8Z" class="g1"/>
<path d="M1238.2,380.2h.8V358.4h-.8v21.8Z" class="g1"/>
<path d="M47.1,381h.7v-.8h-.7v.8Z" class="g1"/>
<path d="M47.8,381H328.4v-.8H47.8v.8Z" class="g1"/>
<path d="M328.4,381h.7v-.8h-.7v.8Z" class="g1"/>
<path d="M329.1,381h259v-.8h-259v.8Z" class="g1"/>
<path d="M588.1,381h.8v-.8h-.8v.8Z" class="g1"/>
<path d="M588.9,381h649.3v-.8H588.9v.8Z" class="g1"/>
<path d="M1238.2,381h.8v-.8h-.8v.8Z" class="g1"/>
<path d="M47.1,402.6h.7V381h-.7v21.6Z" class="g1"/>
<path d="M328.4,402.6h.7V381h-.7v21.6Z" class="g1"/>
<path d="M588.1,402.6h.8V381h-.8v21.6Z" class="g1"/>
<path d="M1238.2,402.6h.8V381h-.8v21.6Z" class="g1"/>
<path d="M47.1,403.3h.7v-.7h-.7v.7Z" class="g1"/>
<path d="M47.8,403.3H328.4v-.7H47.8v.7Z" class="g1"/>
<path d="M328.4,403.3h.7v-.7h-.7v.7Z" class="g1"/>
<path d="M329.1,403.3h259v-.7h-259v.7Z" class="g1"/>
<path d="M588.1,403.3h.8v-.7h-.8v.7Z" class="g1"/>
<path d="M588.9,403.3h649.3v-.7H588.9v.7Z" class="g1"/>
<path d="M1238.2,403.3h.8v-.7h-.8v.7Z" class="g1"/>
<path d="M47.1,425.2h.7V403.3h-.7v21.9Z" class="g1"/>
<path d="M328.4,425.2h.7V403.3h-.7v21.9Z" class="g1"/>
<path d="M588.1,425.2h.8V403.3h-.8v21.9Z" class="g1"/>
<path d="M1238.2,425.2h.8V403.3h-.8v21.9Z" class="g1"/>
<path d="M47.1,425.9h.7v-.8h-.7v.8Z" class="g1"/>
<path d="M47.8,425.9H328.4v-.8H47.8v.8Z" class="g1"/>
<path d="M328.4,425.9h.7v-.8h-.7v.8Z" class="g1"/>
<path d="M329.1,425.9h259v-.8h-259v.8Z" class="g1"/>
<path d="M588.1,425.9h.8v-.8h-.8v.8Z" class="g1"/>
<path d="M588.9,425.9h649.3v-.8H588.9v.8Z" class="g1"/>
<path d="M1238.2,425.9h.8v-.8h-.8v.8Z" class="g1"/>
<path d="M47.1,447.5h.7V425.9h-.7v21.6Z" class="g1"/>
<path d="M328.4,447.5h.7V425.9h-.7v21.6Z" class="g1"/>
<path d="M588.1,447.5h.8V425.9h-.8v21.6Z" class="g1"/>
<path d="M1238.2,447.5h.8V425.9h-.8v21.6Z" class="g1"/>
<path d="M47.1,448.2h.7v-.7h-.7v.7Z" class="g1"/>
<path d="M47.8,448.2H328.4v-.7H47.8v.7Z" class="g1"/>
<path d="M328.4,448.2h.7v-.7h-.7v.7Z" class="g1"/>
<path d="M329.1,448.2h259v-.7h-259v.7Z" class="g1"/>
<path d="M588.1,448.2h.8v-.7h-.8v.7Z" class="g1"/>
<path d="M588.9,448.2h649.3v-.7H588.9v.7Z" class="g1"/>
<path d="M1238.2,448.2h.8v-.7h-.8v.7Z" class="g1"/>
<path d="M47.1,470.1h.7V448.2h-.7v21.9Z" class="g1"/>
<path d="M328.4,470.1h.7V448.2h-.7v21.9Z" class="g1"/>
<path d="M588.1,470.1h.8V448.2h-.8v21.9Z" class="g1"/>
<path d="M1238.2,470.1h.8V448.2h-.8v21.9Z" class="g1"/>
<path d="M47.1,470.8h.7v-.7h-.7v.7Z" class="g1"/>
<path d="M47.8,470.8H328.4v-.7H47.8v.7Z" class="g1"/>
<path d="M328.4,470.8h.7v-.7h-.7v.7Z" class="g1"/>
<path d="M329.1,470.8h259v-.7h-259v.7Z" class="g1"/>
<path d="M588.1,470.8h.8v-.7h-.8v.7Z" class="g1"/>
<path d="M588.9,470.8h649.3v-.7H588.9v.7Z" class="g1"/>
<path d="M1238.2,470.8h.8v-.7h-.8v.7Z" class="g1"/>
<path d="M47.1,492.4h.7V470.8h-.7v21.6Z" class="g1"/>
<path d="M328.4,492.4h.7V470.8h-.7v21.6Z" class="g1"/>
<path d="M588.1,492.4h.8V470.8h-.8v21.6Z" class="g1"/>
<path d="M1238.2,492.4h.8V470.8h-.8v21.6Z" class="g1"/>
<path d="M47.1,493.2h.7v-.8h-.7v.8Z" class="g1"/>
<path d="M47.8,493.2H328.4v-.8H47.8v.8Z" class="g1"/>
<path d="M328.4,493.2h.7v-.8h-.7v.8Z" class="g1"/>
<path d="M329.1,493.2h259v-.8h-259v.8Z" class="g1"/>
<path d="M588.1,493.2h.8v-.8h-.8v.8Z" class="g1"/>
<path d="M588.9,493.2h649.3v-.8H588.9v.8Z" class="g1"/>
<path d="M1238.2,493.2h.8v-.8h-.8v.8Z" class="g1"/>
<path d="M47.1,515h.7V493.2h-.7V515Z" class="g1"/>
<path d="M328.4,515h.7V493.2h-.7V515Z" class="g1"/>
<path d="M588.1,515h.8V493.2h-.8V515Z" class="g1"/>
<path d="M1238.2,515h.8V493.2h-.8V515Z" class="g1"/>
<path d="M47.1,515.7h.7V515h-.7v.7Z" class="g1"/>
<path d="M47.8,515.7H328.4V515H47.8v.7Z" class="g1"/>
<path d="M328.4,515.7h.7V515h-.7v.7Z" class="g1"/>
<path d="M329.1,515.7h259V515h-259v.7Z" class="g1"/>
<path d="M588.1,515.7h.8V515h-.8v.7Z" class="g1"/>
<path d="M588.9,515.7h649.3V515H588.9v.7Z" class="g1"/>
<path d="M1238.2,515.7h.8V515h-.8v.7Z" class="g1"/>
<path d="M47.1,537.4h.7V515.7h-.7v21.7Z" class="g1"/>
<path d="M328.4,537.4h.7V515.7h-.7v21.7Z" class="g1"/>
<path d="M588.1,537.4h.8V515.7h-.8v21.7Z" class="g1"/>
<path d="M1238.2,537.4h.8V515.7h-.8v21.7Z" class="g1"/>
<path d="M47.1,538.1h.7v-.8h-.7v.8Z" class="g1"/>
<path d="M47.8,538.1H328.4v-.8H47.8v.8Z" class="g1"/>
<path d="M328.4,538.1h.7v-.8h-.7v.8Z" class="g1"/>
<path d="M329.1,538.1h259v-.8h-259v.8Z" class="g1"/>
<path d="M588.1,538.1h.8v-.8h-.8v.8Z" class="g1"/>
<path d="M588.9,538.1h649.3v-.8H588.9v.8Z" class="g1"/>
<path d="M1238.2,538.1h.8v-.8h-.8v.8Z" class="g1"/>
<path d="M47.1,559.9h.7V538.1h-.7v21.8Z" class="g1"/>
<path d="M328.4,559.9h.7V538.1h-.7v21.8Z" class="g1"/>
<path d="M588.1,559.9h.8V538.1h-.8v21.8Z" class="g1"/>
<path d="M1238.2,559.9h.8V538.1h-.8v21.8Z" class="g1"/>
<path d="M47.1,560.6h.7v-.7h-.7v.7Z" class="g1"/>
<path d="M47.8,560.6H328.4v-.7H47.8v.7Z" class="g1"/>
<path d="M328.4,560.6h.7v-.7h-.7v.7Z" class="g1"/>
<path d="M329.1,560.6h259v-.7h-259v.7Z" class="g1"/>
<path d="M588.1,560.6h.8v-.7h-.8v.7Z" class="g1"/>
<path d="M588.9,560.6h649.3v-.7H588.9v.7Z" class="g1"/>
<path d="M1238.2,560.6h.8v-.7h-.8v.7Z" class="g1"/>
<path d="M47.1,582.3h.7V560.6h-.7v21.7Z" class="g1"/>
<path d="M328.4,582.3h.7V560.6h-.7v21.7Z" class="g1"/>
<path d="M588.1,582.3h.8V560.6h-.8v21.7Z" class="g1"/>
<path d="M1238.2,582.3h.8V560.6h-.8v21.7Z" class="g1"/>
<path d="M47.1,583h.7v-.7h-.7v.7Z" class="g1"/>
<path d="M47.8,583H328.4v-.7H47.8v.7Z" class="g1"/>
<path d="M328.4,583h.7v-.7h-.7v.7Z" class="g1"/>
<path d="M329.1,583h259v-.7h-259v.7Z" class="g1"/>
<path d="M588.1,583h.8v-.7h-.8v.7Z" class="g1"/>
<path d="M588.9,583h649.3v-.7H588.9v.7Z" class="g1"/>
<path d="M1238.2,583h.8v-.7h-.8v.7Z" class="g1"/>
<path d="M47.1,604.8h.7V583h-.7v21.8Z" class="g1"/>
<path d="M328.4,604.8h.7V583h-.7v21.8Z" class="g1"/>
<path d="M588.1,604.8h.8V583h-.8v21.8Z" class="g1"/>
<path d="M1238.2,604.8h.8V583h-.8v21.8Z" class="g1"/>
<path d="M47.1,605.6h.7v-.8h-.7v.8Z" class="g1"/>
<path d="M47.8,605.6H328.4v-.8H47.8v.8Z" class="g1"/>
<path d="M328.4,605.6h.7v-.8h-.7v.8Z" class="g1"/>
<path d="M329.1,605.6h259v-.8h-259v.8Z" class="g1"/>
<path d="M588.1,605.6h.8v-.8h-.8v.8Z" class="g1"/>
<path d="M588.9,605.6h649.3v-.8H588.9v.8Z" class="g1"/>
<path d="M1238.2,605.6h.8v-.8h-.8v.8Z" class="g1"/>
<path d="M47.1,627.2h.7V605.5h-.7v21.7Z" class="g1"/>
<path d="M328.4,627.2h.7V605.5h-.7v21.7Z" class="g1"/>
<path d="M588.1,627.2h.8V605.5h-.8v21.7Z" class="g1"/>
<path d="M1238.2,627.2h.8V605.5h-.8v21.7Z" class="g1"/>
<path d="M47.1,627.9h.7v-.7h-.7v.7Z" class="g1"/>
<path d="M47.8,627.9H328.4v-.7H47.8v.7Z" class="g1"/>
<path d="M328.4,627.9h.7v-.7h-.7v.7Z" class="g1"/>
<path d="M329.1,627.9h259v-.7h-259v.7Z" class="g1"/>
<path d="M588.1,627.9h.8v-.7h-.8v.7Z" class="g1"/>
<path d="M588.9,627.9h649.3v-.7H588.9v.7Z" class="g1"/>
<path d="M1238.2,627.9h.8v-.7h-.8v.7Z" class="g1"/>
<path d="M47.1,649.7h.7V627.9h-.7v21.8Z" class="g1"/>
<path d="M328.4,649.7h.7V627.9h-.7v21.8Z" class="g1"/>
<path d="M588.1,649.7h.8V627.9h-.8v21.8Z" class="g1"/>
<path d="M1238.2,649.7h.8V627.9h-.8v21.8Z" class="g1"/>
<path d="M47.1,650.5h.7v-.8h-.7v.8Z" class="g1"/>
<path d="M47.8,650.5H328.4v-.8H47.8v.8Z" class="g1"/>
<path d="M328.4,650.5h.7v-.8h-.7v.8Z" class="g1"/>
<path d="M329.1,650.5h259v-.8h-259v.8Z" class="g1"/>
<path d="M588.1,650.5h.8v-.8h-.8v.8Z" class="g1"/>
<path d="M588.9,650.5h649.3v-.8H588.9v.8Z" class="g1"/>
<path d="M1238.2,650.5h.8v-.8h-.8v.8Z" class="g1"/>
<path d="M47.1,672.1h.7V650.5h-.7v21.6Z" class="g1"/>
<path d="M328.4,672.1h.7V650.5h-.7v21.6Z" class="g1"/>
<path d="M588.1,672.1h.8V650.5h-.8v21.6Z" class="g1"/>
<path d="M1238.2,672.1h.8V650.5h-.8v21.6Z" class="g1"/>
<path d="M47.1,672.8h.7v-.7h-.7v.7Z" class="g1"/>
<path d="M47.8,672.8H328.4v-.7H47.8v.7Z" class="g1"/>
<path d="M328.4,672.8h.7v-.7h-.7v.7Z" class="g1"/>
<path d="M329.1,672.8h259v-.7h-259v.7Z" class="g1"/>
<path d="M588.1,672.8h.8v-.7h-.8v.7Z" class="g1"/>
<path d="M588.9,672.8h649.3v-.7H588.9v.7Z" class="g1"/>
<path d="M1238.2,672.8h.8v-.7h-.8v.7Z" class="g1"/>
<path d="M47.1,694.7h.7V672.8h-.7v21.9Z" class="g1"/>
<path d="M328.4,694.7h.7V672.8h-.7v21.9Z" class="g1"/>
<path d="M588.1,694.7h.8V672.8h-.8v21.9Z" class="g1"/>
<path d="M1238.2,694.7h.8V672.8h-.8v21.9Z" class="g1"/>
<path d="M47.1,695.4h.7v-.8h-.7v.8Z" class="g1"/>
<path d="M47.8,695.4H328.4v-.8H47.8v.8Z" class="g1"/>
<path d="M328.4,695.4h.7v-.8h-.7v.8Z" class="g1"/>
<path d="M329.1,695.4h259v-.8h-259v.8Z" class="g1"/>
<path d="M588.1,695.4h.8v-.8h-.8v.8Z" class="g1"/>
<path d="M588.9,695.4h649.3v-.8H588.9v.8Z" class="g1"/>
<path d="M1238.2,695.4h.8v-.8h-.8v.8Z" class="g1"/>
<path d="M47.1,717h.7V695.4h-.7V717Z" class="g1"/>
<path d="M328.4,717h.7V695.4h-.7V717Z" class="g1"/>
<path d="M588.1,717h.8V695.4h-.8V717Z" class="g1"/>
<path d="M1238.2,717h.8V695.4h-.8V717Z" class="g1"/>
<path d="M47.1,717.8h.7V717h-.7v.8Z" class="g1"/>
<path d="M47.8,717.8H328.4V717H47.8v.8Z" class="g1"/>
<path d="M328.4,717.8h.7V717h-.7v.8Z" class="g1"/>
<path d="M329.1,717.8h259V717h-259v.8Z" class="g1"/>
<path d="M588.1,717.8h.8V717h-.8v.8Z" class="g1"/>
<path d="M588.9,717.8h649.3V717H588.9v.8Z" class="g1"/>
<path d="M1238.2,717.8h.8V717h-.8v.8Z" class="g1"/>
<path d="M47.1,739.6h.7V717.8h-.7v21.8Z" class="g1"/>
<path d="M328.4,739.6h.7V717.8h-.7v21.8Z" class="g1"/>
<path d="M588.1,739.6h.8V717.8h-.8v21.8Z" class="g1"/>
<path d="M1238.2,739.6h.8V717.8h-.8v21.8Z" class="g1"/>
<path d="M47.1,740.3h.7v-.7h-.7v.7Z" class="g1"/>
<path d="M47.8,740.3H328.4v-.7H47.8v.7Z" class="g1"/>
<path d="M328.4,740.3h.7v-.7h-.7v.7Z" class="g1"/>
<path d="M329.1,740.3h259v-.7h-259v.7Z" class="g1"/>
<path d="M588.1,740.3h.8v-.7h-.8v.7Z" class="g1"/>
<path d="M588.9,740.3h649.3v-.7H588.9v.7Z" class="g1"/>
<path d="M1238.2,740.3h.8v-.7h-.8v.7Z" class="g1"/>
<path d="M47.1,761.9h.7V740.3h-.7v21.6Z" class="g1"/>
<path d="M328.4,761.9h.7V740.3h-.7v21.6Z" class="g1"/>
<path d="M588.1,761.9h.8V740.3h-.8v21.6Z" class="g1"/>
<path d="M1238.2,761.9h.8V740.3h-.8v21.6Z" class="g1"/>
<path d="M47.1,762.7h.7v-.8h-.7v.8Z" class="g1"/>
<path d="M47.8,762.7H328.4v-.8H47.8v.8Z" class="g1"/>
<path d="M328.4,762.7h.7v-.8h-.7v.8Z" class="g1"/>
<path d="M329.1,762.7h259v-.8h-259v.8Z" class="g1"/>
<path d="M588.1,762.7h.8v-.8h-.8v.8Z" class="g1"/>
<path d="M588.9,762.7h649.3v-.8H588.9v.8Z" class="g1"/>
<path d="M1238.2,762.7h.8v-.8h-.8v.8Z" class="g1"/>
<path d="M47.1,784.5h.7V762.7h-.7v21.8Z" class="g1"/>
<path d="M328.4,784.5h.7V762.7h-.7v21.8Z" class="g1"/>
<path d="M588.1,784.5h.8V762.7h-.8v21.8Z" class="g1"/>
<path d="M1238.2,784.5h.8V762.7h-.8v21.8Z" class="g1"/>
<path d="M47.1,785.2h.7v-.7h-.7v.7Z" class="g1"/>
<path d="M47.8,785.2H328.4v-.7H47.8v.7Z" class="g1"/>
<path d="M328.4,785.2h.7v-.7h-.7v.7Z" class="g1"/>
<path d="M329.1,785.2h259v-.7h-259v.7Z" class="g1"/>
<path d="M588.1,785.2h.8v-.7h-.8v.7Z" class="g1"/>
<path d="M588.9,785.2h649.3v-.7H588.9v.7Z" class="g1"/>
<path d="M1238.2,785.2h.8v-.7h-.8v.7Z" class="g1"/>
<path d="M47.1,806.9h.7V785.2h-.7v21.7Z" class="g1"/>
<path d="M47.1,807.6h.7v-.8h-.7v.8Z" class="g1"/>
<path d="M47.1,807.6h.7v-.8h-.7v.8Z" class="g1"/>
<path d="M47.8,807.6H328.4v-.8H47.8v.8Z" class="g1"/>
<path d="M328.4,806.9h.7V785.2h-.7v21.7Z" class="g1"/>
<path d="M328.4,807.6h.7v-.8h-.7v.8Z" class="g1"/>
<path d="M329.1,807.6h259v-.8h-259v.8Z" class="g1"/>
<path d="M588.1,806.9h.8V785.2h-.8v21.7Z" class="g1"/>
<path d="M588.1,807.6h.8v-.8h-.8v.8Z" class="g1"/>
<path d="M588.9,807.6h649.3v-.8H588.9v.8Z" class="g1"/>
<path d="M1238.2,806.9h.8V785.2h-.8v21.7Z" class="g1"/>
<path d="M1238.2,807.6h.8v-.8h-.8v.8Z" class="g1"/>
<path d="M1238.2,807.6h.8v-.8h-.8v.8Z" class="g1"/>
</svg>