<?xml version="1.0" encoding="UTF-8" standalone="no"?>
<!DOCTYPE svg PUBLIC "-//W3C//DTD SVG 1.1//EN"
"http://www.w3.org/Graphics/SVG/1.1/DTD/svg11.dtd">
<svg viewBox="0 0 1286 909" version="1.1" xmlns="http://www.w3.org/2000/svg" xmlns:xlink="http://www.w3.org/1999/xlink">
<defs>
<style type="text/css"><![CDATA[
.g0_1{
fill: #D9D9D9;
}
.g1_1{
}
]]></style>
</defs>
<path fill-rule="evenodd" d="M47.8,342.7H350V325.1H47.8v17.6Z" class="g0_1"/>
<path d="M55.7,342.7H342.1V325.1H55.7v17.6Z" class="g0_1"/>
<path fill-rule="evenodd" d="M350.7,342.7h887.5V325.1H350.7v17.6Z" class="g0_1"/>
<path d="M358.6,342.7h871.7V325.1H358.6v17.6Z" class="g0_1"/>
<path d="M47.1,325.1h.7v-.8h-.7v.8Z" class="g1_1"/>
<path d="M47.1,325.1h.7v-.8h-.7v.8Z" class="g1_1"/>
<path d="M47.8,325.1H350v-.8H47.8v.8Z" class="g1_1"/>
<path d="M350,325.1h.7v-.8H350v.8Z" class="g1_1"/>
<path d="M350.7,325.1h887.5v-.8H350.7v.8Z" class="g1_1"/>
<path d="M1238.2,325.1h.8v-.8h-.8v.8Z" class="g1_1"/>
<path d="M1238.2,325.1h.8v-.8h-.8v.8Z" class="g1_1"/>
<path d="M47.1,342.7h.7V325.1h-.7v17.6Z" class="g1_1"/>
<path d="M350,342.7h.7V325.1H350v17.6Z" class="g1_1"/>
<path d="M1238.2,342.7h.8V325.1h-.8v17.6Z" class="g1_1"/>
<path d="M47.1,343.4h.7v-.8h-.7v.8Z" class="g1_1"/>
<path d="M47.8,343.4H350v-.8H47.8v.8Z" class="g1_1"/>
<path d="M350,343.4h.7v-.8H350v.8Z" class="g1_1"/>
<path d="M350.7,343.4h887.5v-.8H350.7v.8Z" class="g1_1"/>
<path d="M1238.2,343.4h.8v-.8h-.8v.8Z" class="g1_1"/>
<path d="M47.1,396h.7V343.4h-.7V396Z" class="g1_1"/>
<path d="M350,396h.7V343.4H350V396Z" class="g1_1"/>
<path d="M1238.2,396h.8V343.4h-.8V396Z" class="g1_1"/>
<path d="M47.1,396.7h.7V396h-.7v.7Z" class="g1_1"/>
<path d="M47.8,396.7H350V396H47.8v.7Z" class="g1_1"/>
<path d="M350,396.7h.7V396H350v.7Z" class="g1_1"/>
<path d="M350.7,396.7h887.5V396H350.7v.7Z" class="g1_1"/>
<path d="M1238.2,396.7h.8V396h-.8v.7Z" class="g1_1"/>
<path d="M47.1,449.5h.7V396.7h-.7v52.8Z" class="g1_1"/>
<path d="M350,449.5h.7V396.7H350v52.8Z" class="g1_1"/>
<path d="M1238.2,449.5h.8V396.7h-.8v52.8Z" class="g1_1"/>
<path d="M47.1,450.3h.7v-.8h-.7v.8Z" class="g1_1"/>
<path d="M47.8,450.3H350v-.8H47.8v.8Z" class="g1_1"/>
<path d="M350,450.3h.7v-.8H350v.8Z" class="g1_1"/>
<path d="M350.7,450.3h887.5v-.8H350.7v.8Z" class="g1_1"/>
<path d="M1238.2,450.3h.8v-.8h-.8v.8Z" class="g1_1"/>
<path d="M47.1,503.1h.7V450.3h-.7v52.8Z" class="g1_1"/>
<path d="M350,503.1h.7V450.3H350v52.8Z" class="g1_1"/>
<path d="M1238.2,503.1h.8V450.3h-.8v52.8Z" class="g1_1"/>
<path d="M47.1,503.8h.7v-.7h-.7v.7Z" class="g1_1"/>
<path d="M47.8,503.8H350v-.7H47.8v.7Z" class="g1_1"/>
<path d="M350,503.8h.7v-.7H350v.7Z" class="g1_1"/>
<path d="M350.7,503.8h887.5v-.7H350.7v.7Z" class="g1_1"/>
<path d="M1238.2,503.8h.8v-.7h-.8v.7Z" class="g1_1"/>
<path d="M47.1,556.4h.7V503.8h-.7v52.6Z" class="g1_1"/>
<path d="M350,556.4h.7V503.8H350v52.6Z" class="g1_1"/>
<path d="M1238.2,556.4h.8V503.8h-.8v52.6Z" class="g1_1"/>
<path d="M47.1,557.2h.7v-.8h-.7v.8Z" class="g1_1"/>
<path d="M47.8,557.2H350v-.8H47.8v.8Z" class="g1_1"/>
<path d="M350,557.2h.7v-.8H350v.8Z" class="g1_1"/>
<path d="M350.7,557.2h887.5v-.8H350.7v.8Z" class="g1_1"/>
<path d="M1238.2,557.2h.8v-.8h-.8v.8Z" class="g1_1"/>
<path d="M47.1,610h.7V557.2h-.7V610Z" class="g1_1"/>
<path d="M350,610h.7V557.2H350V610Z" class="g1_1"/>
<path d="M1238.2,610h.8V557.2h-.8V610Z" class="g1_1"/>
<path d="M47.1,610.7h.7v-.8h-.7v.8Z" class="g1_1"/>
<path d="M47.8,610.7H350v-.8H47.8v.8Z" class="g1_1"/>
<path d="M350,610.7h.7v-.8H350v.8Z" class="g1_1"/>
<path d="M350.7,610.7h887.5v-.8H350.7v.8Z" class="g1_1"/>
<path d="M1238.2,610.7h.8v-.8h-.8v.8Z" class="g1_1"/>
<path d="M47.1,645.9h.7V610.7h-.7v35.2Z" class="g1_1"/>
<path d="M350,645.9h.7V610.7H350v35.2Z" class="g1_1"/>
<path d="M1238.2,645.9h.8V610.7h-.8v35.2Z" class="g1_1"/>
<path d="M47.1,646.6h.7v-.7h-.7v.7Z" class="g1_1"/>
<path d="M47.8,646.6H350v-.7H47.8v.7Z" class="g1_1"/>
<path d="M350,646.6h.7v-.7H350v.7Z" class="g1_1"/>
<path d="M350.7,646.6h887.5v-.7H350.7v.7Z" class="g1_1"/>
<path d="M1238.2,646.6h.8v-.7h-.8v.7Z" class="g1_1"/>
<path d="M47.1,681.8h.7V646.6h-.7v35.2Z" class="g1_1"/>
<path d="M350,681.8h.7V646.6H350v35.2Z" class="g1_1"/>
<path d="M1238.2,681.8h.8V646.6h-.8v35.2Z" class="g1_1"/>
<path d="M47.1,682.6h.7v-.8h-.7v.8Z" class="g1_1"/>
<path d="M47.8,682.6H350v-.8H47.8v.8Z" class="g1_1"/>
<path d="M350,682.6h.7v-.8H350v.8Z" class="g1_1"/>
<path d="M350.7,682.6h887.5v-.8H350.7v.8Z" class="g1_1"/>
<path d="M1238.2,682.6h.8v-.8h-.8v.8Z" class="g1_1"/>
<path d="M47.1,717.6h.7v-35h-.7v35Z" class="g1_1"/>
<path d="M350,717.6h.7v-35H350v35Z" class="g1_1"/>
<path d="M1238.2,717.6h.8v-35h-.8v35Z" class="g1_1"/>
<path d="M47.1,718.3h.7v-.7h-.7v.7Z" class="g1_1"/>
<path d="M47.8,718.3H350v-.7H47.8v.7Z" class="g1_1"/>
<path d="M350,718.3h.7v-.7H350v.7Z" class="g1_1"/>
<path d="M350.7,718.3h887.5v-.7H350.7v.7Z" class="g1_1"/>
<path d="M1238.2,718.3h.8v-.7h-.8v.7Z" class="g1_1"/>
<path d="M47.1,753.5h.7V718.3h-.7v35.2Z" class="g1_1"/>
<path d="M350,753.5h.7V718.3H350v35.2Z" class="g1_1"/>
<path d="M1238.2,753.5h.8V718.3h-.8v35.2Z" class="g1_1"/>
<path d="M47.1,754.2h.7v-.7h-.7v.7Z" class="g1_1"/>
<path d="M47.8,754.2H350v-.7H47.8v.7Z" class="g1_1"/>
<path d="M350,754.2h.7v-.7H350v.7Z" class="g1_1"/>
<path d="M350.7,754.2h887.5v-.7H350.7v.7Z" class="g1_1"/>
<path d="M1238.2,754.2h.8v-.7h-.8v.7Z" class="g1_1"/>
<path d="M47.1,771.8h.7V754.2h-.7v17.6Z" class="g1_1"/>
<path d="M350,771.8h.7V754.2H350v17.6Z" class="g1_1"/>
<path d="M1238.2,771.8h.8V754.2h-.8v17.6Z" class="g1_1"/>
<path d="M47.1,772.6h.7v-.8h-.7v.8Z" class="g1_1"/>
<path d="M47.8,772.6H350v-.8H47.8v.8Z" class="g1_1"/>
<path d="M350,772.6h.7v-.8H350v.8Z" class="g1_1"/>
<path d="M350.7,772.6h887.5v-.8H350.7v.8Z" class="g1_1"/>
<path d="M1238.2,772.6h.8v-.8h-.8v.8Z" class="g1_1"/>
<path d="M47.1,807.8h.7V772.6h-.7v35.2Z" class="g1_1"/>
<path d="M47.1,808.5h.7v-.7h-.7v.7Z" class="g1_1"/>
<path d="M47.1,808.5h.7v-.7h-.7v.7Z" class="g1_1"/>
<path d="M47.8,808.5H350v-.7H47.8v.7Z" class="g1_1"/>
<path d="M350,807.8h.7V772.6H350v35.2Z" class="g1_1"/>
<path d="M350,808.5h.7v-.7H350v.7Z" class="g1_1"/>
<path d="M350.7,808.5h887.5v-.7H350.7v.7Z" class="g1_1"/>
<path d="M1238.2,807.8h.8V772.6h-.8v35.2Z" class="g1_1"/>
<path d="M1238.2,808.5h.8v-.7h-.8v.7Z" class="g1_1"/>
<path d="M1238.2,808.5h.8v-.7h-.8v.7Z" class="g1_1"/>
</svg>