<?xml version="1.0" encoding="UTF-8" standalone="no"?>
<!DOCTYPE svg PUBLIC "-//W3C//DTD SVG 1.1//EN"
"http://www.w3.org/Graphics/SVG/1.1/DTD/svg11.dtd">
<svg viewBox="0 0 1286 909" version="1.1" xmlns="http://www.w3.org/2000/svg" xmlns:xlink="http://www.w3.org/1999/xlink">
<defs>
<clipPath id="c0"><path d="M201.9,175.4V153.9h21.6v21.5Z"/></clipPath>
<clipPath id="c1"><path d="M359.7,175.4V153.9h21.6v21.5Z"/></clipPath>
<clipPath id="c2"><path d="M517.5,175.4V153.9h21.7v21.5Z"/></clipPath>
<clipPath id="c3"><path d="M675.4,175.4V153.9H697v21.5Z"/></clipPath>
<clipPath id="c4"><path d="M833.3,175.4V153.9h21.6v21.5Z"/></clipPath>
<clipPath id="c5"><path d="M991.1,175.4V153.9h21.6v21.5Z"/></clipPath>
<clipPath id="c6"><path d="M1148.9,175.4V153.9h21.6v21.5Z"/></clipPath>
<style type="text/css"><![CDATA[
.g0{
fill: #D9D9D9;
}
.g1{
}
]]></style>
</defs>
<path fill-rule="evenodd" d="M47.8,175.4h85.7V153.8H47.8v21.6Z" class="g0"/>
<path fill-rule="evenodd" d="M55.7,173.4h69.9V155.8H55.7v17.6Z" class="g0"/>
<path fill-rule="evenodd" d="M134.2,175.4H291.3V153.8H134.2v21.6Z" class="g0"/>
<path d="M142.1,175.4H283.4V153.8H142.1v21.6Z" class="g0"/>
<path fill-rule="evenodd" d="M292.1,175.4H449V153.8H292.1v21.6Z" class="g0"/>
<path d="M299.9,175.4H441.1V153.8H299.9v21.6Z" class="g0"/>
<path fill-rule="evenodd" d="M449.9,175.4H606.8V153.8H449.9v21.6Z" class="g0"/>
<path d="M457.6,175.4H598.9V153.8H457.6v21.6Z" class="g0"/>
<path fill-rule="evenodd" d="M607.6,175.4H764.7V153.8H607.6v21.6Z" class="g0"/>
<path d="M615.4,175.4H757V153.8H615.4v21.6Z" class="g0"/>
<path fill-rule="evenodd" d="M765.6,175.4H922.5V153.8H765.6v21.6Z" class="g0"/>
<path d="M773.5,175.4H914.6V153.8H773.5v21.6Z" class="g0"/>
<path fill-rule="evenodd" d="M923.3,175.4h157.1V153.8H923.3v21.6Z" class="g0"/>
<path d="M931.1,175.4h141.4V153.8H931.1v21.6Z" class="g0"/>
<path fill-rule="evenodd" d="M1081.1,175.4h157.1V153.8H1081.1v21.6Z" class="g0"/>
<path d="M1089,175.4h141.4V153.8H1089v21.6Z" class="g0"/>
<path d="M47.1,153.8h.7v-.7h-.7v.7Z" class="g1"/>
<path d="M47.1,153.8h.7v-.7h-.7v.7Z" class="g1"/>
<path d="M47.8,153.8h85.7v-.7H47.8v.7Z" class="g1"/>
<path d="M133.5,153.8h.7v-.7h-.7v.7Z" class="g1"/>
<path d="M134.2,153.8H291.1v-.7H134.2v.7Z" class="g1"/>
<path d="M291.1,153.8h.8v-.7h-.8v.7Z" class="g1"/>
<path d="M291.9,153.8H449v-.7H291.9v.7Z" class="g1"/>
<path d="M449,153.8h.7v-.7H449v.7Z" class="g1"/>
<path d="M449.7,153.8H606.8v-.7H449.7v.7Z" class="g1"/>
<path d="M606.8,153.8h.8v-.7h-.8v.7Z" class="g1"/>
<path d="M607.6,153.8H764.7v-.7H607.6v.7Z" class="g1"/>
<path d="M764.7,153.8h.7v-.7h-.7v.7Z" class="g1"/>
<path d="M765.4,153.8H922.5v-.7H765.4v.7Z" class="g1"/>
<path d="M922.5,153.8h.8v-.7h-.8v.7Z" class="g1"/>
<path d="M923.3,153.8h157.1v-.7H923.3v.7Z" class="g1"/>
<path d="M1080.4,153.8h.7v-.7h-.7v.7Z" class="g1"/>
<path d="M1081.1,153.8h157.1v-.7H1081.1v.7Z" class="g1"/>
<path d="M1238.2,153.8h.8v-.7h-.8v.7Z" class="g1"/>
<path d="M1238.2,153.8h.8v-.7h-.8v.7Z" class="g1"/>
<path d="M47.1,175.4h.7V153.8h-.7v21.6Z" class="g1"/>
<path d="M133.5,175.4h.7V153.8h-.7v21.6Z" class="g1"/>
<path d="M291.1,175.4h.8V153.8h-.8v21.6Z" class="g1"/>
<path d="M449,175.4h.7V153.8H449v21.6Z" class="g1"/>
<path d="M606.8,175.4h.8V153.8h-.8v21.6Z" class="g1"/>
<path d="M764.7,175.4h.7V153.8h-.7v21.6Z" class="g1"/>
<path d="M922.5,175.4h.8V153.8h-.8v21.6Z" class="g1"/>
<path d="M1080.4,175.4h.7V153.8h-.7v21.6Z" class="g1"/>
<path d="M1238.2,175.4h.8V153.8h-.8v21.6Z" class="g1"/>
<path d="M47.1,176.2h.7v-.8h-.7v.8Z" class="g1"/>
<path d="M47.8,176.2h85.7v-.8H47.8v.8Z" class="g1"/>
<path d="M133.5,176.2h.7v-.8h-.7v.8Z" class="g1"/>
<path d="M134.2,176.2H291.1v-.8H134.2v.8Z" class="g1"/>
<path d="M291.1,176.2h.8v-.8h-.8v.8Z" class="g1"/>
<path d="M291.9,176.2H449v-.8H291.9v.8Z" class="g1"/>
<path d="M449,176.2h.7v-.8H449v.8Z" class="g1"/>
<path d="M449.7,176.2H606.8v-.8H449.7v.8Z" class="g1"/>
<path d="M606.8,176.2h.8v-.8h-.8v.8Z" class="g1"/>
<path d="M607.6,176.2H764.7v-.8H607.6v.8Z" class="g1"/>
<path d="M764.7,176.2h.7v-.8h-.7v.8Z" class="g1"/>
<path d="M765.4,176.2H922.5v-.8H765.4v.8Z" class="g1"/>
<path d="M922.5,176.2h.8v-.8h-.8v.8Z" class="g1"/>
<path d="M923.3,176.2h157.1v-.8H923.3v.8Z" class="g1"/>
<path d="M1080.4,176.2h.7v-.8h-.7v.8Z" class="g1"/>
<path d="M1081.1,176.2h157.1v-.8H1081.1v.8Z" class="g1"/>
<path d="M1238.2,176.2h.8v-.8h-.8v.8Z" class="g1"/>
<path d="M47.1,198h.7V176.2h-.7V198Z" class="g1"/>
<path d="M133.5,198h.7V176.2h-.7V198Z" class="g1"/>
<path d="M291.1,198h.8V176.2h-.8V198Z" class="g1"/>
<path d="M449,198h.7V176.2H449V198Z" class="g1"/>
<path d="M606.8,198h.8V176.2h-.8V198Z" class="g1"/>
<path d="M764.7,198h.7V176.2h-.7V198Z" class="g1"/>
<path d="M922.5,198h.8V176.2h-.8V198Z" class="g1"/>
<path d="M1080.4,198h.7V176.2h-.7V198Z" class="g1"/>
<path d="M1238.2,198h.8V176.2h-.8V198Z" class="g1"/>
<path d="M47.1,198.7h.7V198h-.7v.7Z" class="g1"/>
<path d="M47.8,198.7h85.7V198H47.8v.7Z" class="g1"/>
<path d="M133.5,198.7h.7V198h-.7v.7Z" class="g1"/>
<path d="M134.2,198.7H291.1V198H134.2v.7Z" class="g1"/>
<path d="M291.1,198.7h.8V198h-.8v.7Z" class="g1"/>
<path d="M291.9,198.7H449V198H291.9v.7Z" class="g1"/>
<path d="M449,198.7h.7V198H449v.7Z" class="g1"/>
<path d="M449.7,198.7H606.8V198H449.7v.7Z" class="g1"/>
<path d="M606.8,198.7h.8V198h-.8v.7Z" class="g1"/>
<path d="M607.6,198.7H764.7V198H607.6v.7Z" class="g1"/>
<path d="M764.7,198.7h.7V198h-.7v.7Z" class="g1"/>
<path d="M765.4,198.7H922.5V198H765.4v.7Z" class="g1"/>
<path d="M922.5,198.7h.8V198h-.8v.7Z" class="g1"/>
<path d="M923.3,198.7h157.1V198H923.3v.7Z" class="g1"/>
<path d="M1080.4,198.7h.7V198h-.7v.7Z" class="g1"/>
<path d="M1081.1,198.7h157.1V198H1081.1v.7Z" class="g1"/>
<path d="M1238.2,198.7h.8V198h-.8v.7Z" class="g1"/>
<path d="M47.1,220.4h.7V198.7h-.7v21.7Z" class="g1"/>
<path d="M133.5,220.4h.7V198.7h-.7v21.7Z" class="g1"/>
<path d="M291.1,220.4h.8V198.7h-.8v21.7Z" class="g1"/>
<path d="M449,220.4h.7V198.7H449v21.7Z" class="g1"/>
<path d="M606.8,220.4h.8V198.7h-.8v21.7Z" class="g1"/>
<path d="M764.7,220.4h.7V198.7h-.7v21.7Z" class="g1"/>
<path d="M922.5,220.4h.8V198.7h-.8v21.7Z" class="g1"/>
<path d="M1080.4,220.4h.7V198.7h-.7v21.7Z" class="g1"/>
<path d="M1238.2,220.4h.8V198.7h-.8v21.7Z" class="g1"/>
<path d="M47.1,221.1h.7v-.7h-.7v.7Z" class="g1"/>
<path d="M47.8,221.1h85.7v-.7H47.8v.7Z" class="g1"/>
<path d="M133.5,221.1h.7v-.7h-.7v.7Z" class="g1"/>
<path d="M134.2,221.1H291.1v-.7H134.2v.7Z" class="g1"/>
<path d="M291.1,221.1h.8v-.7h-.8v.7Z" class="g1"/>
<path d="M291.9,221.1H449v-.7H291.9v.7Z" class="g1"/>
<path d="M449,221.1h.7v-.7H449v.7Z" class="g1"/>
<path d="M449.7,221.1H606.8v-.7H449.7v.7Z" class="g1"/>
<path d="M606.8,221.1h.8v-.7h-.8v.7Z" class="g1"/>
<path d="M607.6,221.1H764.7v-.7H607.6v.7Z" class="g1"/>
<path d="M764.7,221.1h.7v-.7h-.7v.7Z" class="g1"/>
<path d="M765.4,221.1H922.5v-.7H765.4v.7Z" class="g1"/>
<path d="M922.5,221.1h.8v-.7h-.8v.7Z" class="g1"/>
<path d="M923.3,221.1h157.1v-.7H923.3v.7Z" class="g1"/>
<path d="M1080.4,221.1h.7v-.7h-.7v.7Z" class="g1"/>
<path d="M1081.1,221.1h157.1v-.7H1081.1v.7Z" class="g1"/>
<path d="M1238.2,221.1h.8v-.7h-.8v.7Z" class="g1"/>
<path d="M47.1,242.9h.7V221.1h-.7v21.8Z" class="g1"/>
<path d="M47.1,243.7h.7v-.8h-.7v.8Z" class="g1"/>
<path d="M47.1,243.7h.7v-.8h-.7v.8Z" class="g1"/>
<path d="M47.8,243.7h85.7v-.8H47.8v.8Z" class="g1"/>
<path d="M133.5,242.9h.7V221.1h-.7v21.8Z" class="g1"/>
<path d="M133.5,243.7h.7v-.8h-.7v.8Z" class="g1"/>
<path d="M134.2,243.7H291.1v-.8H134.2v.8Z" class="g1"/>
<path d="M291.1,242.9h.8V221.1h-.8v21.8Z" class="g1"/>
<path d="M291.1,243.7h.8v-.8h-.8v.8Z" class="g1"/>
<path d="M291.9,243.7H449v-.8H291.9v.8Z" class="g1"/>
<path d="M449,242.9h.7V221.1H449v21.8Z" class="g1"/>
<path d="M449,243.7h.7v-.8H449v.8Z" class="g1"/>
<path d="M449.7,243.7H606.8v-.8H449.7v.8Z" class="g1"/>
<path d="M606.8,242.9h.8V221.1h-.8v21.8Z" class="g1"/>
<path d="M606.8,243.7h.8v-.8h-.8v.8Z" class="g1"/>
<path d="M607.6,243.7H764.7v-.8H607.6v.8Z" class="g1"/>
<path d="M764.7,242.9h.7V221.1h-.7v21.8Z" class="g1"/>
<path d="M764.7,243.7h.7v-.8h-.7v.8Z" class="g1"/>
<path d="M765.4,243.7H922.5v-.8H765.4v.8Z" class="g1"/>
<path d="M922.5,242.9h.8V221.1h-.8v21.8Z" class="g1"/>
<path d="M922.5,243.7h.8v-.8h-.8v.8Z" class="g1"/>
<path d="M923.3,243.7h157.1v-.8H923.3v.8Z" class="g1"/>
<path d="M1080.4,242.9h.7V221.1h-.7v21.8Z" class="g1"/>
<path d="M1080.4,243.7h.7v-.8h-.7v.8Z" class="g1"/>
<path d="M1081.1,243.7h157.1v-.8H1081.1v.8Z" class="g1"/>
<path d="M1238.2,242.9h.8V221.1h-.8v21.8Z" class="g1"/>
<path d="M1238.2,243.7h.8v-.8h-.8v.8Z" class="g1"/>
<path d="M1238.2,243.7h.8v-.8h-.8v.8Z" class="g1"/>
<image clip-path="url(#c0)" preserveAspectRatio="none" x="202" y="154" width="22" height="21" xlink:href="img/1.png"/>
<image clip-path="url(#c1)" preserveAspectRatio="none" x="360" y="154" width="21" height="21" xlink:href="img/2.png"/>
<image clip-path="url(#c2)" preserveAspectRatio="none" x="518" y="154" width="21" height="21" xlink:href="img/3.png"/>
<image clip-path="url(#c3)" preserveAspectRatio="none" x="675" y="154" width="22" height="21" xlink:href="img/4.png"/>
<image clip-path="url(#c4)" preserveAspectRatio="none" x="833" y="154" width="22" height="21" xlink:href="img/5.png"/>
<image clip-path="url(#c5)" preserveAspectRatio="none" x="991" y="154" width="22" height="21" xlink:href="img/6.png"/>
<image clip-path="url(#c6)" preserveAspectRatio="none" x="1149" y="154" width="22" height="21" xlink:href="img/7.png"/>
</svg>