<?xml version="1.0" encoding="UTF-8" standalone="no"?>
<!DOCTYPE svg PUBLIC "-//W3C//DTD SVG 1.1//EN"
"http://www.w3.org/Graphics/SVG/1.1/DTD/svg11.dtd">
<svg viewBox="0 0 1286 909" version="1.1" xmlns="http://www.w3.org/2000/svg" xmlns:xlink="http://www.w3.org/1999/xlink">
<defs>
<style type="text/css"><![CDATA[
.g0{
fill: #D9D9D9;
}
.g1{
}
]]></style>
</defs>
<path fill-rule="evenodd" d="M47.8,135.7H165.9V114H47.8v21.7Z" class="g0"/>
<path fill-rule="evenodd" d="M55.7,133.7H158V116.1H55.7v17.6Z" class="g0"/>
<path fill-rule="evenodd" d="M166.7,135.7H1238.2V114H166.7v21.7Z" class="g0"/>
<path fill-rule="evenodd" d="M174.5,133.7H1230.4V116.1H174.5v17.6Z" class="g0"/>
<path d="M47.1,114h.7v-.7h-.7v.7Z" class="g1"/>
<path d="M47.1,114h.7v-.7h-.7v.7Z" class="g1"/>
<path d="M47.8,114H165.9v-.7H47.8v.7Z" class="g1"/>
<path d="M165.9,114h.8v-.7h-.8v.7Z" class="g1"/>
<path d="M166.7,114H1238.2v-.7H166.7v.7Z" class="g1"/>
<path d="M1238.2,114h.8v-.7h-.8v.7Z" class="g1"/>
<path d="M1238.2,114h.8v-.7h-.8v.7Z" class="g1"/>
<path d="M47.1,135.7h.7V114h-.7v21.7Z" class="g1"/>
<path d="M165.9,135.7h.8V114h-.8v21.7Z" class="g1"/>
<path d="M1238.2,135.7h.8V114h-.8v21.7Z" class="g1"/>
<path d="M47.1,136.4h.7v-.7h-.7v.7Z" class="g1"/>
<path d="M47.8,136.4H165.9v-.7H47.8v.7Z" class="g1"/>
<path d="M165.9,136.4h.8v-.7h-.8v.7Z" class="g1"/>
<path d="M166.7,136.4H1238.2v-.7H166.7v.7Z" class="g1"/>
<path d="M1238.2,136.4h.8v-.7h-.8v.7Z" class="g1"/>
<path d="M47.1,171.6h.7V136.4h-.7v35.2Z" class="g1"/>
<path d="M165.9,171.6h.8V136.4h-.8v35.2Z" class="g1"/>
<path d="M1238.2,171.6h.8V136.4h-.8v35.2Z" class="g1"/>
<path d="M47.1,172.3h.7v-.7h-.7v.7Z" class="g1"/>
<path d="M47.8,172.3H165.9v-.7H47.8v.7Z" class="g1"/>
<path d="M165.9,172.3h.8v-.7h-.8v.7Z" class="g1"/>
<path d="M166.7,172.3H1238.2v-.7H166.7v.7Z" class="g1"/>
<path d="M1238.2,172.3h.8v-.7h-.8v.7Z" class="g1"/>
<path d="M47.1,194.2h.7V172.3h-.7v21.9Z" class="g1"/>
<path d="M165.9,194.2h.8V172.3h-.8v21.9Z" class="g1"/>
<path d="M1238.2,194.2h.8V172.3h-.8v21.9Z" class="g1"/>
<path d="M47.1,194.9h.7v-.8h-.7v.8Z" class="g1"/>
<path d="M47.8,194.9H165.9v-.8H47.8v.8Z" class="g1"/>
<path d="M165.9,194.9h.8v-.8h-.8v.8Z" class="g1"/>
<path d="M166.7,194.9H1238.2v-.8H166.7v.8Z" class="g1"/>
<path d="M1238.2,194.9h.8v-.8h-.8v.8Z" class="g1"/>
<path d="M47.1,216.5h.7V194.9h-.7v21.6Z" class="g1"/>
<path d="M165.9,216.5h.8V194.9h-.8v21.6Z" class="g1"/>
<path d="M1238.2,216.5h.8V194.9h-.8v21.6Z" class="g1"/>
<path d="M47.1,217.3h.7v-.8h-.7v.8Z" class="g1"/>
<path d="M47.8,217.3H165.9v-.8H47.8v.8Z" class="g1"/>
<path d="M165.9,217.3h.8v-.8h-.8v.8Z" class="g1"/>
<path d="M166.7,217.3H1238.2v-.8H166.7v.8Z" class="g1"/>
<path d="M1238.2,217.3h.8v-.8h-.8v.8Z" class="g1"/>
<path d="M47.1,239.1h.7V217.3h-.7v21.8Z" class="g1"/>
<path d="M165.9,239.1h.8V217.3h-.8v21.8Z" class="g1"/>
<path d="M1238.2,239.1h.8V217.3h-.8v21.8Z" class="g1"/>
<path d="M47.1,239.8h.7v-.7h-.7v.7Z" class="g1"/>
<path d="M47.8,239.8H165.9v-.7H47.8v.7Z" class="g1"/>
<path d="M165.9,239.8h.8v-.7h-.8v.7Z" class="g1"/>
<path d="M166.7,239.8H1238.2v-.7H166.7v.7Z" class="g1"/>
<path d="M1238.2,239.8h.8v-.7h-.8v.7Z" class="g1"/>
<path d="M47.1,261.4h.7V239.8h-.7v21.6Z" class="g1"/>
<path d="M165.9,261.4h.8V239.8h-.8v21.6Z" class="g1"/>
<path d="M1238.2,261.4h.8V239.8h-.8v21.6Z" class="g1"/>
<path d="M47.1,262.2h.7v-.8h-.7v.8Z" class="g1"/>
<path d="M47.8,262.2H165.9v-.8H47.8v.8Z" class="g1"/>
<path d="M165.9,262.2h.8v-.8h-.8v.8Z" class="g1"/>
<path d="M166.7,262.2H1238.2v-.8H166.7v.8Z" class="g1"/>
<path d="M1238.2,262.2h.8v-.8h-.8v.8Z" class="g1"/>
<path d="M47.1,297.4h.7V262.2h-.7v35.2Z" class="g1"/>
<path d="M165.9,297.4h.8V262.2h-.8v35.2Z" class="g1"/>
<path d="M1238.2,297.4h.8V262.2h-.8v35.2Z" class="g1"/>
<path d="M47.1,298.1h.7v-.7h-.7v.7Z" class="g1"/>
<path d="M47.8,298.1H165.9v-.7H47.8v.7Z" class="g1"/>
<path d="M165.9,298.1h.8v-.7h-.8v.7Z" class="g1"/>
<path d="M166.7,298.1H1238.2v-.7H166.7v.7Z" class="g1"/>
<path d="M1238.2,298.1h.8v-.7h-.8v.7Z" class="g1"/>
<path d="M47.1,319.7h.7V298.1h-.7v21.6Z" class="g1"/>
<path d="M165.9,319.7h.8V298.1h-.8v21.6Z" class="g1"/>
<path d="M1238.2,319.7h.8V298.1h-.8v21.6Z" class="g1"/>
<path d="M47.1,320.5h.7v-.8h-.7v.8Z" class="g1"/>
<path d="M47.8,320.5H165.9v-.8H47.8v.8Z" class="g1"/>
<path d="M165.9,320.5h.8v-.8h-.8v.8Z" class="g1"/>
<path d="M166.7,320.5H1238.2v-.8H166.7v.8Z" class="g1"/>
<path d="M1238.2,320.5h.8v-.8h-.8v.8Z" class="g1"/>
<path d="M47.1,355.7h.7V320.5h-.7v35.2Z" class="g1"/>
<path d="M165.9,355.7h.8V320.5h-.8v35.2Z" class="g1"/>
<path d="M1238.2,355.7h.8V320.5h-.8v35.2Z" class="g1"/>
<path d="M47.1,356.4h.7v-.7h-.7v.7Z" class="g1"/>
<path d="M47.8,356.4H165.9v-.7H47.8v.7Z" class="g1"/>
<path d="M165.9,356.4h.8v-.7h-.8v.7Z" class="g1"/>
<path d="M166.7,356.4H1238.2v-.7H166.7v.7Z" class="g1"/>
<path d="M1238.2,356.4h.8v-.7h-.8v.7Z" class="g1"/>
<path d="M47.1,378.2h.7V356.4h-.7v21.8Z" class="g1"/>
<path d="M165.9,378.2h.8V356.4h-.8v21.8Z" class="g1"/>
<path d="M1238.2,378.2h.8V356.4h-.8v21.8Z" class="g1"/>
<path d="M47.1,379h.7v-.8h-.7v.8Z" class="g1"/>
<path d="M47.8,379H165.9v-.8H47.8v.8Z" class="g1"/>
<path d="M165.9,379h.8v-.8h-.8v.8Z" class="g1"/>
<path d="M166.7,379H1238.2v-.8H166.7v.8Z" class="g1"/>
<path d="M1238.2,379h.8v-.8h-.8v.8Z" class="g1"/>
<path d="M47.1,400.6h.7V378.9h-.7v21.7Z" class="g1"/>
<path d="M165.9,400.6h.8V378.9h-.8v21.7Z" class="g1"/>
<path d="M1238.2,400.6h.8V378.9h-.8v21.7Z" class="g1"/>
<path d="M47.1,401.3h.7v-.7h-.7v.7Z" class="g1"/>
<path d="M47.8,401.3H165.9v-.7H47.8v.7Z" class="g1"/>
<path d="M165.9,401.3h.8v-.7h-.8v.7Z" class="g1"/>
<path d="M166.7,401.3H1238.2v-.7H166.7v.7Z" class="g1"/>
<path d="M1238.2,401.3h.8v-.7h-.8v.7Z" class="g1"/>
<path d="M47.1,423.1h.7V401.3h-.7v21.8Z" class="g1"/>
<path d="M165.9,423.1h.8V401.3h-.8v21.8Z" class="g1"/>
<path d="M1238.2,423.1h.8V401.3h-.8v21.8Z" class="g1"/>
<path d="M47.1,423.9h.7v-.8h-.7v.8Z" class="g1"/>
<path d="M47.8,423.9H165.9v-.8H47.8v.8Z" class="g1"/>
<path d="M165.9,423.9h.8v-.8h-.8v.8Z" class="g1"/>
<path d="M166.7,423.9H1238.2v-.8H166.7v.8Z" class="g1"/>
<path d="M1238.2,423.9h.8v-.8h-.8v.8Z" class="g1"/>
<path d="M47.1,445.5h.7V423.9h-.7v21.6Z" class="g1"/>
<path d="M165.9,445.5h.8V423.9h-.8v21.6Z" class="g1"/>
<path d="M1238.2,445.5h.8V423.9h-.8v21.6Z" class="g1"/>
<path d="M47.1,446.2h.7v-.7h-.7v.7Z" class="g1"/>
<path d="M47.8,446.2H165.9v-.7H47.8v.7Z" class="g1"/>
<path d="M165.9,446.2h.8v-.7h-.8v.7Z" class="g1"/>
<path d="M166.7,446.2H1238.2v-.7H166.7v.7Z" class="g1"/>
<path d="M1238.2,446.2h.8v-.7h-.8v.7Z" class="g1"/>
<path d="M47.1,468.1h.7V446.2h-.7v21.9Z" class="g1"/>
<path d="M165.9,468.1h.8V446.2h-.8v21.9Z" class="g1"/>
<path d="M1238.2,468.1h.8V446.2h-.8v21.9Z" class="g1"/>
<path d="M47.1,468.8h.7V468h-.7v.8Z" class="g1"/>
<path d="M47.8,468.8H165.9V468H47.8v.8Z" class="g1"/>
<path d="M165.9,468.8h.8V468h-.8v.8Z" class="g1"/>
<path d="M166.7,468.8H1238.2V468H166.7v.8Z" class="g1"/>
<path d="M1238.2,468.8h.8V468h-.8v.8Z" class="g1"/>
<path d="M47.1,490.4h.7V468.8h-.7v21.6Z" class="g1"/>
<path d="M165.9,490.4h.8V468.8h-.8v21.6Z" class="g1"/>
<path d="M1238.2,490.4h.8V468.8h-.8v21.6Z" class="g1"/>
<path d="M47.1,491.2h.7v-.8h-.7v.8Z" class="g1"/>
<path d="M47.8,491.2H165.9v-.8H47.8v.8Z" class="g1"/>
<path d="M165.9,491.2h.8v-.8h-.8v.8Z" class="g1"/>
<path d="M166.7,491.2H1238.2v-.8H166.7v.8Z" class="g1"/>
<path d="M1238.2,491.2h.8v-.8h-.8v.8Z" class="g1"/>
<path d="M47.1,513h.7V491.2h-.7V513Z" class="g1"/>
<path d="M165.9,513h.8V491.2h-.8V513Z" class="g1"/>
<path d="M1238.2,513h.8V491.2h-.8V513Z" class="g1"/>
<path d="M47.1,513.7h.7V513h-.7v.7Z" class="g1"/>
<path d="M47.8,513.7H165.9V513H47.8v.7Z" class="g1"/>
<path d="M165.9,513.7h.8V513h-.8v.7Z" class="g1"/>
<path d="M166.7,513.7H1238.2V513H166.7v.7Z" class="g1"/>
<path d="M1238.2,513.7h.8V513h-.8v.7Z" class="g1"/>
<path d="M47.1,535.3h.7V513.7h-.7v21.6Z" class="g1"/>
<path d="M165.9,535.3h.8V513.7h-.8v21.6Z" class="g1"/>
<path d="M1238.2,535.3h.8V513.7h-.8v21.6Z" class="g1"/>
<path d="M47.1,536.1h.7v-.8h-.7v.8Z" class="g1"/>
<path d="M47.8,536.1H165.9v-.8H47.8v.8Z" class="g1"/>
<path d="M165.9,536.1h.8v-.8h-.8v.8Z" class="g1"/>
<path d="M166.7,536.1H1238.2v-.8H166.7v.8Z" class="g1"/>
<path d="M1238.2,536.1h.8v-.8h-.8v.8Z" class="g1"/>
<path d="M47.1,557.9h.7V536.1h-.7v21.8Z" class="g1"/>
<path d="M165.9,557.9h.8V536.1h-.8v21.8Z" class="g1"/>
<path d="M1238.2,557.9h.8V536.1h-.8v21.8Z" class="g1"/>
<path d="M47.1,558.6h.7v-.7h-.7v.7Z" class="g1"/>
<path d="M47.8,558.6H165.9v-.7H47.8v.7Z" class="g1"/>
<path d="M165.9,558.6h.8v-.7h-.8v.7Z" class="g1"/>
<path d="M166.7,558.6H1238.2v-.7H166.7v.7Z" class="g1"/>
<path d="M1238.2,558.6h.8v-.7h-.8v.7Z" class="g1"/>
<path d="M47.1,580.3h.7V558.6h-.7v21.7Z" class="g1"/>
<path d="M165.9,580.3h.8V558.6h-.8v21.7Z" class="g1"/>
<path d="M1238.2,580.3h.8V558.6h-.8v21.7Z" class="g1"/>
<path d="M47.1,581h.7v-.8h-.7v.8Z" class="g1"/>
<path d="M47.8,581H165.9v-.8H47.8v.8Z" class="g1"/>
<path d="M165.9,581h.8v-.8h-.8v.8Z" class="g1"/>
<path d="M166.7,581H1238.2v-.8H166.7v.8Z" class="g1"/>
<path d="M1238.2,581h.8v-.8h-.8v.8Z" class="g1"/>
<path d="M47.1,602.8h.7V581h-.7v21.8Z" class="g1"/>
<path d="M47.1,603.5h.7v-.7h-.7v.7Z" class="g1"/>
<path d="M47.1,603.5h.7v-.7h-.7v.7Z" class="g1"/>
<path d="M47.8,603.5H165.9v-.7H47.8v.7Z" class="g1"/>
<path d="M165.9,602.8h.8V581h-.8v21.8Z" class="g1"/>
<path d="M165.9,603.5h.8v-.7h-.8v.7Z" class="g1"/>
<path d="M166.7,603.5H1238.2v-.7H166.7v.7Z" class="g1"/>
<path d="M1238.2,602.8h.8V581h-.8v21.8Z" class="g1"/>
<path d="M1238.2,603.5h.8v-.7h-.8v.7Z" class="g1"/>
<path d="M1238.2,603.5h.8v-.7h-.8v.7Z" class="g1"/>
</svg>