<?xml version="1.0" encoding="UTF-8" standalone="no"?>
<!DOCTYPE svg PUBLIC "-//W3C//DTD SVG 1.1//EN"
"http://www.w3.org/Graphics/SVG/1.1/DTD/svg11.dtd">
<svg viewBox="0 0 1286 909" version="1.1" xmlns="http://www.w3.org/2000/svg" xmlns:xlink="http://www.w3.org/1999/xlink">
<defs>
<style type="text/css"><![CDATA[
.g0{
fill: #D9D9D9;
}
.g1{
}
]]></style>
</defs>
<path fill-rule="evenodd" d="M47.8,194.5h183V172.9H47.8v21.6Z" class="g0"/>
<path fill-rule="evenodd" d="M55.7,192.5H222.9V174.9H55.7v17.6Z" class="g0"/>
<path fill-rule="evenodd" d="M231.7,194.5H1238.2V172.9H231.7v21.6Z" class="g0"/>
<path fill-rule="evenodd" d="M239.4,192.5h990.9V174.9H239.4v17.6Z" class="g0"/>
<path d="M47.1,172.7h.7V172h-.7v.7Z" class="g1"/>
<path d="M47.1,172.7h.7V172h-.7v.7Z" class="g1"/>
<path d="M47.8,172.7h183V172H47.8v.7Z" class="g1"/>
<path d="M230.8,172.7h.7V172h-.7v.7Z" class="g1"/>
<path d="M231.5,172.7H1238.2V172H231.5v.7Z" class="g1"/>
<path d="M1238.2,172.7h.8V172h-.8v.7Z" class="g1"/>
<path d="M1238.2,172.7h.8V172h-.8v.7Z" class="g1"/>
<path d="M47.1,194.5h.7V172.7h-.7v21.8Z" class="g1"/>
<path d="M230.8,194.5h.7V172.7h-.7v21.8Z" class="g1"/>
<path d="M1238.2,194.5h.8V172.7h-.8v21.8Z" class="g1"/>
<path d="M47.1,195.3h.7v-.8h-.7v.8Z" class="g1"/>
<path d="M47.8,195.3h183v-.8H47.8v.8Z" class="g1"/>
<path d="M230.8,195.3h.7v-.8h-.7v.8Z" class="g1"/>
<path d="M231.5,195.3H1238.2v-.8H231.5v.8Z" class="g1"/>
<path d="M1238.2,195.3h.8v-.8h-.8v.8Z" class="g1"/>
<path d="M47.1,216.9h.7V195.2h-.7v21.7Z" class="g1"/>
<path d="M230.8,216.9h.7V195.2h-.7v21.7Z" class="g1"/>
<path d="M1238.2,216.9h.8V195.2h-.8v21.7Z" class="g1"/>
<path d="M47.1,217.6h.7v-.7h-.7v.7Z" class="g1"/>
<path d="M47.8,217.6h183v-.7H47.8v.7Z" class="g1"/>
<path d="M230.8,217.6h.7v-.7h-.7v.7Z" class="g1"/>
<path d="M231.5,217.6H1238.2v-.7H231.5v.7Z" class="g1"/>
<path d="M1238.2,217.6h.8v-.7h-.8v.7Z" class="g1"/>
<path d="M47.1,239.4h.7V217.6h-.7v21.8Z" class="g1"/>
<path d="M230.8,239.4h.7V217.6h-.7v21.8Z" class="g1"/>
<path d="M1238.2,239.4h.8V217.6h-.8v21.8Z" class="g1"/>
<path d="M47.1,240.2h.7v-.8h-.7v.8Z" class="g1"/>
<path d="M47.8,240.2h183v-.8H47.8v.8Z" class="g1"/>
<path d="M230.8,240.2h.7v-.8h-.7v.8Z" class="g1"/>
<path d="M231.5,240.2H1238.2v-.8H231.5v.8Z" class="g1"/>
<path d="M1238.2,240.2h.8v-.8h-.8v.8Z" class="g1"/>
<path d="M47.1,261.8h.7V240.2h-.7v21.6Z" class="g1"/>
<path d="M230.8,261.8h.7V240.2h-.7v21.6Z" class="g1"/>
<path d="M1238.2,261.8h.8V240.2h-.8v21.6Z" class="g1"/>
<path d="M47.1,262.5h.7v-.7h-.7v.7Z" class="g1"/>
<path d="M47.8,262.5h183v-.7H47.8v.7Z" class="g1"/>
<path d="M230.8,262.5h.7v-.7h-.7v.7Z" class="g1"/>
<path d="M231.5,262.5H1238.2v-.7H231.5v.7Z" class="g1"/>
<path d="M1238.2,262.5h.8v-.7h-.8v.7Z" class="g1"/>
<path d="M47.1,284.3h.7V262.5h-.7v21.8Z" class="g1"/>
<path d="M230.8,284.3h.7V262.5h-.7v21.8Z" class="g1"/>
<path d="M1238.2,284.3h.8V262.5h-.8v21.8Z" class="g1"/>
<path d="M47.1,285.1h.7v-.8h-.7v.8Z" class="g1"/>
<path d="M47.8,285.1h183v-.8H47.8v.8Z" class="g1"/>
<path d="M230.8,285.1h.7v-.8h-.7v.8Z" class="g1"/>
<path d="M231.5,285.1H1238.2v-.8H231.5v.8Z" class="g1"/>
<path d="M1238.2,285.1h.8v-.8h-.8v.8Z" class="g1"/>
<path d="M47.1,306.7h.7V285.1h-.7v21.6Z" class="g1"/>
<path d="M230.8,306.7h.7V285.1h-.7v21.6Z" class="g1"/>
<path d="M1238.2,306.7h.8V285.1h-.8v21.6Z" class="g1"/>
<path d="M47.1,307.5h.7v-.8h-.7v.8Z" class="g1"/>
<path d="M47.8,307.5h183v-.8H47.8v.8Z" class="g1"/>
<path d="M230.8,307.5h.7v-.8h-.7v.8Z" class="g1"/>
<path d="M231.5,307.5H1238.2v-.8H231.5v.8Z" class="g1"/>
<path d="M1238.2,307.5h.8v-.8h-.8v.8Z" class="g1"/>
<path d="M47.1,329.3h.7V307.5h-.7v21.8Z" class="g1"/>
<path d="M230.8,329.3h.7V307.5h-.7v21.8Z" class="g1"/>
<path d="M1238.2,329.3h.8V307.5h-.8v21.8Z" class="g1"/>
<path d="M47.1,330h.7v-.7h-.7v.7Z" class="g1"/>
<path d="M47.8,330h183v-.7H47.8v.7Z" class="g1"/>
<path d="M230.8,330h.7v-.7h-.7v.7Z" class="g1"/>
<path d="M231.5,330H1238.2v-.7H231.5v.7Z" class="g1"/>
<path d="M1238.2,330h.8v-.7h-.8v.7Z" class="g1"/>
<path d="M47.1,351.6h.7V330h-.7v21.6Z" class="g1"/>
<path d="M230.8,351.6h.7V330h-.7v21.6Z" class="g1"/>
<path d="M1238.2,351.6h.8V330h-.8v21.6Z" class="g1"/>
<path d="M47.1,352.4h.7v-.8h-.7v.8Z" class="g1"/>
<path d="M47.8,352.4h183v-.8H47.8v.8Z" class="g1"/>
<path d="M230.8,352.4h.7v-.8h-.7v.8Z" class="g1"/>
<path d="M231.5,352.4H1238.2v-.8H231.5v.8Z" class="g1"/>
<path d="M1238.2,352.4h.8v-.8h-.8v.8Z" class="g1"/>
<path d="M47.1,374.2h.7V352.4h-.7v21.8Z" class="g1"/>
<path d="M230.8,374.2h.7V352.4h-.7v21.8Z" class="g1"/>
<path d="M1238.2,374.2h.8V352.4h-.8v21.8Z" class="g1"/>
<path d="M47.1,374.9h.7v-.7h-.7v.7Z" class="g1"/>
<path d="M47.8,374.9h183v-.7H47.8v.7Z" class="g1"/>
<path d="M230.8,374.9h.7v-.7h-.7v.7Z" class="g1"/>
<path d="M231.5,374.9H1238.2v-.7H231.5v.7Z" class="g1"/>
<path d="M1238.2,374.9h.8v-.7h-.8v.7Z" class="g1"/>
<path d="M47.1,396.5h.7V374.9h-.7v21.6Z" class="g1"/>
<path d="M230.8,396.5h.7V374.9h-.7v21.6Z" class="g1"/>
<path d="M1238.2,396.5h.8V374.9h-.8v21.6Z" class="g1"/>
<path d="M47.1,397.3h.7v-.8h-.7v.8Z" class="g1"/>
<path d="M47.8,397.3h183v-.8H47.8v.8Z" class="g1"/>
<path d="M230.8,397.3h.7v-.8h-.7v.8Z" class="g1"/>
<path d="M231.5,397.3H1238.2v-.8H231.5v.8Z" class="g1"/>
<path d="M1238.2,397.3h.8v-.8h-.8v.8Z" class="g1"/>
<path d="M47.1,419.1h.7V397.3h-.7v21.8Z" class="g1"/>
<path d="M230.8,419.1h.7V397.3h-.7v21.8Z" class="g1"/>
<path d="M1238.2,419.1h.8V397.3h-.8v21.8Z" class="g1"/>
<path d="M47.1,419.8h.7v-.7h-.7v.7Z" class="g1"/>
<path d="M47.8,419.8h183v-.7H47.8v.7Z" class="g1"/>
<path d="M230.8,419.8h.7v-.7h-.7v.7Z" class="g1"/>
<path d="M231.5,419.8H1238.2v-.7H231.5v.7Z" class="g1"/>
<path d="M1238.2,419.8h.8v-.7h-.8v.7Z" class="g1"/>
<path d="M47.1,441.5h.7V419.8h-.7v21.7Z" class="g1"/>
<path d="M230.8,441.5h.7V419.8h-.7v21.7Z" class="g1"/>
<path d="M1238.2,441.5h.8V419.8h-.8v21.7Z" class="g1"/>
<path d="M47.1,442.2h.7v-.7h-.7v.7Z" class="g1"/>
<path d="M47.8,442.2h183v-.7H47.8v.7Z" class="g1"/>
<path d="M230.8,442.2h.7v-.7h-.7v.7Z" class="g1"/>
<path d="M231.5,442.2H1238.2v-.7H231.5v.7Z" class="g1"/>
<path d="M1238.2,442.2h.8v-.7h-.8v.7Z" class="g1"/>
<path d="M47.1,464h.7V442.2h-.7V464Z" class="g1"/>
<path d="M230.8,464h.7V442.2h-.7V464Z" class="g1"/>
<path d="M1238.2,464h.8V442.2h-.8V464Z" class="g1"/>
<path d="M47.1,464.8h.7V464h-.7v.8Z" class="g1"/>
<path d="M47.8,464.8h183V464H47.8v.8Z" class="g1"/>
<path d="M230.8,464.8h.7V464h-.7v.8Z" class="g1"/>
<path d="M231.5,464.8H1238.2V464H231.5v.8Z" class="g1"/>
<path d="M1238.2,464.8h.8V464h-.8v.8Z" class="g1"/>
<path d="M47.1,486.4h.7V464.7h-.7v21.7Z" class="g1"/>
<path d="M230.8,486.4h.7V464.7h-.7v21.7Z" class="g1"/>
<path d="M1238.2,486.4h.8V464.7h-.8v21.7Z" class="g1"/>
<path d="M47.1,487.1h.7v-.7h-.7v.7Z" class="g1"/>
<path d="M47.8,487.1h183v-.7H47.8v.7Z" class="g1"/>
<path d="M230.8,487.1h.7v-.7h-.7v.7Z" class="g1"/>
<path d="M231.5,487.1H1238.2v-.7H231.5v.7Z" class="g1"/>
<path d="M1238.2,487.1h.8v-.7h-.8v.7Z" class="g1"/>
<path d="M47.1,508.9h.7V487.1h-.7v21.8Z" class="g1"/>
<path d="M230.8,508.9h.7V487.1h-.7v21.8Z" class="g1"/>
<path d="M1238.2,508.9h.8V487.1h-.8v21.8Z" class="g1"/>
<path d="M47.1,509.7h.7v-.8h-.7v.8Z" class="g1"/>
<path d="M47.8,509.7h183v-.8H47.8v.8Z" class="g1"/>
<path d="M230.8,509.7h.7v-.8h-.7v.8Z" class="g1"/>
<path d="M231.5,509.7H1238.2v-.8H231.5v.8Z" class="g1"/>
<path d="M1238.2,509.7h.8v-.8h-.8v.8Z" class="g1"/>
<path d="M47.1,531.3h.7V509.7h-.7v21.6Z" class="g1"/>
<path d="M230.8,531.3h.7V509.7h-.7v21.6Z" class="g1"/>
<path d="M1238.2,531.3h.8V509.7h-.8v21.6Z" class="g1"/>
<path d="M47.1,532h.7v-.7h-.7v.7Z" class="g1"/>
<path d="M47.8,532h183v-.7H47.8v.7Z" class="g1"/>
<path d="M230.8,532h.7v-.7h-.7v.7Z" class="g1"/>
<path d="M231.5,532H1238.2v-.7H231.5v.7Z" class="g1"/>
<path d="M1238.2,532h.8v-.7h-.8v.7Z" class="g1"/>
<path d="M47.1,553.9h.7V532h-.7v21.9Z" class="g1"/>
<path d="M47.1,554.6h.7v-.8h-.7v.8Z" class="g1"/>
<path d="M47.1,554.6h.7v-.8h-.7v.8Z" class="g1"/>
<path d="M47.8,554.6h183v-.8H47.8v.8Z" class="g1"/>
<path d="M230.8,553.9h.7V532h-.7v21.9Z" class="g1"/>
<path d="M230.8,554.6h.7v-.8h-.7v.8Z" class="g1"/>
<path d="M231.5,554.6H1238.2v-.8H231.5v.8Z" class="g1"/>
<path d="M1238.2,553.9h.8V532h-.8v21.9Z" class="g1"/>
<path d="M1238.2,554.6h.8v-.8h-.8v.8Z" class="g1"/>
<path d="M1238.2,554.6h.8v-.8h-.8v.8Z" class="g1"/>
</svg>