<?xml version="1.0" encoding="UTF-8" standalone="no"?>
<!DOCTYPE svg PUBLIC "-//W3C//DTD SVG 1.1//EN"
"http://www.w3.org/Graphics/SVG/1.1/DTD/svg11.dtd">
<svg viewBox="0 0 1286 909" version="1.1" xmlns="http://www.w3.org/2000/svg" xmlns:xlink="http://www.w3.org/1999/xlink">
<defs>
<style type="text/css"><![CDATA[
.g0{
fill: #D9D9D9;
}
.g1{
}
]]></style>
</defs>
<path fill-rule="evenodd" d="M47.8,156.6h85.7V134.9H47.8v21.7Z" class="g0"/>
<path fill-rule="evenodd" d="M55.7,154.6h69.9V137H55.7v17.6Z" class="g0"/>
<path fill-rule="evenodd" d="M134.2,156.6H317.5V134.9H134.2v21.7Z" class="g0"/>
<path fill-rule="evenodd" d="M142.1,154.6H309.6V137H142.1v17.6Z" class="g0"/>
<path fill-rule="evenodd" d="M318.3,156.6h692.2V134.9H318.3v21.7Z" class="g0"/>
<path fill-rule="evenodd" d="M326.1,154.6h676.5V137H326.1v17.6Z" class="g0"/>
<path fill-rule="evenodd" d="M1011.3,156.6h107.6V134.9H1011.3v21.7Z" class="g0"/>
<path fill-rule="evenodd" d="M1019.2,154.6H1111V137h-91.8v17.6Z" class="g0"/>
<path fill-rule="evenodd" d="M1119.6,156.6h118.6V134.9H1119.6v21.7Z" class="g0"/>
<path fill-rule="evenodd" d="M1127.5,154.6h102.9V137H1127.5v17.6Z" class="g0"/>
<path d="M47.1,134.9h.7v-.7h-.7v.7Z" class="g1"/>
<path d="M47.1,134.9h.7v-.7h-.7v.7Z" class="g1"/>
<path d="M47.8,134.9h85.7v-.7H47.8v.7Z" class="g1"/>
<path d="M133.5,134.9h.7v-.7h-.7v.7Z" class="g1"/>
<path d="M134.2,134.9H317.5v-.7H134.2v.7Z" class="g1"/>
<path d="M317.5,134.9h.8v-.7h-.8v.7Z" class="g1"/>
<path d="M318.3,134.9h692.2v-.7H318.3v.7Z" class="g1"/>
<path d="M1010.5,134.9h.8v-.7h-.8v.7Z" class="g1"/>
<path d="M1011.3,134.9h107.6v-.7H1011.3v.7Z" class="g1"/>
<path d="M1118.9,134.9h.7v-.7h-.7v.7Z" class="g1"/>
<path d="M1119.6,134.9h118.6v-.7H1119.6v.7Z" class="g1"/>
<path d="M1238.2,134.9h.8v-.7h-.8v.7Z" class="g1"/>
<path d="M1238.2,134.9h.8v-.7h-.8v.7Z" class="g1"/>
<path d="M47.1,156.6h.7V134.9h-.7v21.7Z" class="g1"/>
<path d="M133.5,156.6h.7V134.9h-.7v21.7Z" class="g1"/>
<path d="M317.5,156.6h.8V134.9h-.8v21.7Z" class="g1"/>
<path d="M1010.5,156.6h.8V134.9h-.8v21.7Z" class="g1"/>
<path d="M1118.9,156.6h.7V134.9h-.7v21.7Z" class="g1"/>
<path d="M1238.2,156.6h.8V134.9h-.8v21.7Z" class="g1"/>
<path d="M47.1,157.3h.7v-.7h-.7v.7Z" class="g1"/>
<path d="M47.8,157.3h85.7v-.7H47.8v.7Z" class="g1"/>
<path d="M133.5,157.3h.7v-.7h-.7v.7Z" class="g1"/>
<path d="M134.2,157.3H317.5v-.7H134.2v.7Z" class="g1"/>
<path d="M317.5,157.3h.8v-.7h-.8v.7Z" class="g1"/>
<path d="M318.3,157.3h692.2v-.7H318.3v.7Z" class="g1"/>
<path d="M1010.5,157.3h.8v-.7h-.8v.7Z" class="g1"/>
<path d="M1011.3,157.3h107.6v-.7H1011.3v.7Z" class="g1"/>
<path d="M1118.9,157.3h.7v-.7h-.7v.7Z" class="g1"/>
<path d="M1119.6,157.3h118.6v-.7H1119.6v.7Z" class="g1"/>
<path d="M1238.2,157.3h.8v-.7h-.8v.7Z" class="g1"/>
<path d="M47.1,178.9h.7V157.3h-.7v21.6Z" class="g1"/>
<path d="M133.5,178.9h.7V157.3h-.7v21.6Z" class="g1"/>
<path d="M317.5,178.9h.8V157.3h-.8v21.6Z" class="g1"/>
<path d="M1010.5,178.9h.8V157.3h-.8v21.6Z" class="g1"/>
<path d="M1118.9,178.9h.7V157.3h-.7v21.6Z" class="g1"/>
<path d="M1238.2,178.9h.8V157.3h-.8v21.6Z" class="g1"/>
<path d="M47.1,179.7h.7v-.8h-.7v.8Z" class="g1"/>
<path d="M133.5,179.7h.7v-.8h-.7v.8Z" class="g1"/>
<path d="M317.5,179.7h.8v-.8h-.8v.8Z" class="g1"/>
<path d="M1010.5,179.7h.8v-.8h-.8v.8Z" class="g1"/>
<path d="M1011.3,179.7h107.6v-.8H1011.3v.8Z" class="g1"/>
<path d="M1118.9,179.7h.7v-.8h-.7v.8Z" class="g1"/>
<path d="M1119.6,179.7h118.6v-.8H1119.6v.8Z" class="g1"/>
<path d="M1238.2,179.7h.8v-.8h-.8v.8Z" class="g1"/>
<path d="M47.1,201.3h.7V179.7h-.7v21.6Z" class="g1"/>
<path d="M133.5,201.3h.7V179.7h-.7v21.6Z" class="g1"/>
<path d="M317.5,201.3h.8V179.7h-.8v21.6Z" class="g1"/>
<path d="M1010.5,201.3h.8V179.7h-.8v21.6Z" class="g1"/>
<path d="M1118.9,201.3h.7V179.7h-.7v21.6Z" class="g1"/>
<path d="M1238.2,201.3h.8V179.7h-.8v21.6Z" class="g1"/>
<path d="M47.1,202h.7v-.7h-.7v.7Z" class="g1"/>
<path d="M47.8,202h85.7v-.7H47.8v.7Z" class="g1"/>
<path d="M133.5,202h.7v-.7h-.7v.7Z" class="g1"/>
<path d="M134.2,202H317.5v-.7H134.2v.7Z" class="g1"/>
<path d="M317.5,202h.8v-.7h-.8v.7Z" class="g1"/>
<path d="M318.3,202h692.2v-.7H318.3v.7Z" class="g1"/>
<path d="M1010.5,202h.8v-.7h-.8v.7Z" class="g1"/>
<path d="M1011.3,202h107.6v-.7H1011.3v.7Z" class="g1"/>
<path d="M1118.9,202h.7v-.7h-.7v.7Z" class="g1"/>
<path d="M1119.6,202h118.6v-.7H1119.6v.7Z" class="g1"/>
<path d="M1238.2,202h.8v-.7h-.8v.7Z" class="g1"/>
<path d="M47.1,237.2h.7V202h-.7v35.2Z" class="g1"/>
<path d="M133.5,237.2h.7V202h-.7v35.2Z" class="g1"/>
<path d="M317.5,237.2h.8V202h-.8v35.2Z" class="g1"/>
<path d="M1010.5,237.2h.8V202h-.8v35.2Z" class="g1"/>
<path d="M1118.9,237.2h.7V202h-.7v35.2Z" class="g1"/>
<path d="M1238.2,237.2h.8V202h-.8v35.2Z" class="g1"/>
<path d="M47.1,238h.7v-.8h-.7v.8Z" class="g1"/>
<path d="M47.8,238h85.7v-.8H47.8v.8Z" class="g1"/>
<path d="M133.5,238h.7v-.8h-.7v.8Z" class="g1"/>
<path d="M134.2,238H317.5v-.8H134.2v.8Z" class="g1"/>
<path d="M317.5,238h.8v-.8h-.8v.8Z" class="g1"/>
<path d="M318.3,238h692.2v-.8H318.3v.8Z" class="g1"/>
<path d="M1010.5,238h.8v-.8h-.8v.8Z" class="g1"/>
<path d="M1011.3,238h107.6v-.8H1011.3v.8Z" class="g1"/>
<path d="M1118.9,238h.7v-.8h-.7v.8Z" class="g1"/>
<path d="M1119.6,238h118.6v-.8H1119.6v.8Z" class="g1"/>
<path d="M1238.2,238h.8v-.8h-.8v.8Z" class="g1"/>
<path d="M47.1,273.2h.7V238h-.7v35.2Z" class="g1"/>
<path d="M133.5,273.2h.7V238h-.7v35.2Z" class="g1"/>
<path d="M317.5,273.2h.8V238h-.8v35.2Z" class="g1"/>
<path d="M1010.5,273.2h.8V238h-.8v35.2Z" class="g1"/>
<path d="M1118.9,273.2h.7V238h-.7v35.2Z" class="g1"/>
<path d="M1238.2,273.2h.8V238h-.8v35.2Z" class="g1"/>
<path d="M47.1,273.9h.7v-.7h-.7v.7Z" class="g1"/>
<path d="M47.8,273.9h85.7v-.7H47.8v.7Z" class="g1"/>
<path d="M133.5,273.9h.7v-.7h-.7v.7Z" class="g1"/>
<path d="M134.2,273.9H317.5v-.7H134.2v.7Z" class="g1"/>
<path d="M317.5,273.9h.8v-.7h-.8v.7Z" class="g1"/>
<path d="M318.3,273.9h692.2v-.7H318.3v.7Z" class="g1"/>
<path d="M1010.5,273.9h.8v-.7h-.8v.7Z" class="g1"/>
<path d="M1011.3,273.9h107.6v-.7H1011.3v.7Z" class="g1"/>
<path d="M1118.9,273.9h.7v-.7h-.7v.7Z" class="g1"/>
<path d="M1119.6,273.9h118.6v-.7H1119.6v.7Z" class="g1"/>
<path d="M1238.2,273.9h.8v-.7h-.8v.7Z" class="g1"/>
<path d="M47.1,309.1h.7V273.9h-.7v35.2Z" class="g1"/>
<path d="M133.5,309.1h.7V273.9h-.7v35.2Z" class="g1"/>
<path d="M317.5,309.1h.8V273.9h-.8v35.2Z" class="g1"/>
<path d="M1010.5,309.1h.8V273.9h-.8v35.2Z" class="g1"/>
<path d="M1118.9,309.1h.7V273.9h-.7v35.2Z" class="g1"/>
<path d="M1238.2,309.1h.8V273.9h-.8v35.2Z" class="g1"/>
<path d="M47.1,309.8h.7v-.7h-.7v.7Z" class="g1"/>
<path d="M47.8,309.8h85.7v-.7H47.8v.7Z" class="g1"/>
<path d="M133.5,309.8h.7v-.7h-.7v.7Z" class="g1"/>
<path d="M134.2,309.8H317.5v-.7H134.2v.7Z" class="g1"/>
<path d="M317.5,309.8h.8v-.7h-.8v.7Z" class="g1"/>
<path d="M318.3,309.8h692.2v-.7H318.3v.7Z" class="g1"/>
<path d="M1010.5,309.8h.8v-.7h-.8v.7Z" class="g1"/>
<path d="M1011.3,309.8h107.6v-.7H1011.3v.7Z" class="g1"/>
<path d="M1118.9,309.8h.7v-.7h-.7v.7Z" class="g1"/>
<path d="M1119.6,309.8h118.6v-.7H1119.6v.7Z" class="g1"/>
<path d="M1238.2,309.8h.8v-.7h-.8v.7Z" class="g1"/>
<path d="M47.1,344.9h.7V309.8h-.7v35.1Z" class="g1"/>
<path d="M133.5,344.9h.7V309.8h-.7v35.1Z" class="g1"/>
<path d="M317.5,344.9h.8V309.8h-.8v35.1Z" class="g1"/>
<path d="M1010.5,344.9h.8V309.8h-.8v35.1Z" class="g1"/>
<path d="M1118.9,344.9h.7V309.8h-.7v35.1Z" class="g1"/>
<path d="M1238.2,344.9h.8V309.8h-.8v35.1Z" class="g1"/>
<path d="M47.1,345.6h.7v-.8h-.7v.8Z" class="g1"/>
<path d="M47.8,345.6h85.7v-.8H47.8v.8Z" class="g1"/>
<path d="M133.5,345.6h.7v-.8h-.7v.8Z" class="g1"/>
<path d="M134.2,345.6H317.5v-.8H134.2v.8Z" class="g1"/>
<path d="M317.5,345.6h.8v-.8h-.8v.8Z" class="g1"/>
<path d="M318.3,345.6h692.2v-.8H318.3v.8Z" class="g1"/>
<path d="M1010.5,345.6h.8v-.8h-.8v.8Z" class="g1"/>
<path d="M1011.3,345.6h107.6v-.8H1011.3v.8Z" class="g1"/>
<path d="M1118.9,345.6h.7v-.8h-.7v.8Z" class="g1"/>
<path d="M1119.6,345.6h118.6v-.8H1119.6v.8Z" class="g1"/>
<path d="M1238.2,345.6h.8v-.8h-.8v.8Z" class="g1"/>
<path d="M47.1,380.8h.7V345.6h-.7v35.2Z" class="g1"/>
<path d="M133.5,380.8h.7V345.6h-.7v35.2Z" class="g1"/>
<path d="M317.5,380.8h.8V345.6h-.8v35.2Z" class="g1"/>
<path d="M1010.5,380.8h.8V345.6h-.8v35.2Z" class="g1"/>
<path d="M1118.9,380.8h.7V345.6h-.7v35.2Z" class="g1"/>
<path d="M1238.2,380.8h.8V345.6h-.8v35.2Z" class="g1"/>
<path d="M47.1,381.5h.7v-.7h-.7v.7Z" class="g1"/>
<path d="M47.8,381.5h85.7v-.7H47.8v.7Z" class="g1"/>
<path d="M133.5,381.5h.7v-.7h-.7v.7Z" class="g1"/>
<path d="M134.2,381.5H317.5v-.7H134.2v.7Z" class="g1"/>
<path d="M317.5,381.5h.8v-.7h-.8v.7Z" class="g1"/>
<path d="M318.3,381.5h692.2v-.7H318.3v.7Z" class="g1"/>
<path d="M1010.5,381.5h.8v-.7h-.8v.7Z" class="g1"/>
<path d="M1011.3,381.5h107.6v-.7H1011.3v.7Z" class="g1"/>
<path d="M1118.9,381.5h.7v-.7h-.7v.7Z" class="g1"/>
<path d="M1119.6,381.5h118.6v-.7H1119.6v.7Z" class="g1"/>
<path d="M1238.2,381.5h.8v-.7h-.8v.7Z" class="g1"/>
<path d="M47.1,416.7h.7V381.5h-.7v35.2Z" class="g1"/>
<path d="M47.1,417.5h.7v-.8h-.7v.8Z" class="g1"/>
<path d="M47.1,417.5h.7v-.8h-.7v.8Z" class="g1"/>
<path d="M47.8,417.5h85.7v-.8H47.8v.8Z" class="g1"/>
<path d="M133.5,416.7h.7V381.5h-.7v35.2Z" class="g1"/>
<path d="M133.5,417.5h.7v-.8h-.7v.8Z" class="g1"/>
<path d="M134.2,417.5H317.5v-.8H134.2v.8Z" class="g1"/>
<path d="M317.5,416.7h.8V381.5h-.8v35.2Z" class="g1"/>
<path d="M317.5,417.5h.8v-.8h-.8v.8Z" class="g1"/>
<path d="M318.3,417.5h692.2v-.8H318.3v.8Z" class="g1"/>
<path d="M1010.5,416.7h.8V381.5h-.8v35.2Z" class="g1"/>
<path d="M1010.5,417.5h.8v-.8h-.8v.8Z" class="g1"/>
<path d="M1011.3,417.5h107.6v-.8H1011.3v.8Z" class="g1"/>
<path d="M1118.9,416.7h.7V381.5h-.7v35.2Z" class="g1"/>
<path d="M1118.9,417.5h.7v-.8h-.7v.8Z" class="g1"/>
<path d="M1119.6,417.5h118.6v-.8H1119.6v.8Z" class="g1"/>
<path d="M1238.2,416.7h.8V381.5h-.8v35.2Z" class="g1"/>
<path d="M1238.2,417.5h.8v-.8h-.8v.8Z" class="g1"/>
<path d="M1238.2,417.5h.8v-.8h-.8v.8Z" class="g1"/>
</svg>