<?xml version="1.0" encoding="UTF-8" standalone="no"?>
<!DOCTYPE svg PUBLIC "-//W3C//DTD SVG 1.1//EN"
"http://www.w3.org/Graphics/SVG/1.1/DTD/svg11.dtd">
<svg viewBox="0 0 1286 909" version="1.1" xmlns="http://www.w3.org/2000/svg" xmlns:xlink="http://www.w3.org/1999/xlink">
<defs>
<clipPath id="c0"><path d="M362.5,65.7V44.1h21.7V65.7Z"/></clipPath>
<clipPath id="c1"><path d="M628.8,65.7V44.1h21.6V65.7Z"/></clipPath>
<clipPath id="c2"><path d="M362.5,133.1V111.5h21.7v21.6Z"/></clipPath>
<clipPath id="c3"><path d="M495.6,133.1V111.5h21.7v21.6Z"/></clipPath>
<clipPath id="c4"><path d="M628.8,133.1V111.5h21.6v21.6Z"/></clipPath>
<clipPath id="c5"><path d="M761.9,133.1V111.5h21.6v21.6Z"/></clipPath>
<clipPath id="c6"><path d="M895,133.1V111.5h21.6v21.6Z"/></clipPath>
<clipPath id="c7"><path d="M1028.2,133.1V111.5h21.6v21.6Z"/></clipPath>
<clipPath id="c8"><path d="M1161.3,133.1V111.5h21.6v21.6Z"/></clipPath>
<clipPath id="c9"><path d="M362.5,200.5V178.9h21.7v21.6Z"/></clipPath>
<clipPath id="ca"><path d="M628.8,200.5V178.9h21.6v21.6Z"/></clipPath>
<clipPath id="cb"><path d="M362.5,267.9V246.2h21.7v21.7Z"/></clipPath>
<clipPath id="cc"><path d="M495.6,267.9V246.2h21.7v21.7Z"/></clipPath>
<clipPath id="cd"><path d="M628.8,267.9V246.2h21.6v21.7Z"/></clipPath>
<clipPath id="ce"><path d="M761.9,267.9V246.2h21.6v21.7Z"/></clipPath>
<clipPath id="cf"><path d="M895,267.9V246.2h21.6v21.7Z"/></clipPath>
<clipPath id="cg"><path d="M1028.2,267.9V246.2h21.6v21.7Z"/></clipPath>
<clipPath id="ch"><path d="M1161.3,267.9V246.2h21.6v21.7Z"/></clipPath>
<clipPath id="ci"><path d="M362.5,335.2V313.6h21.7v21.6Z"/></clipPath>
<clipPath id="cj"><path d="M628.8,335.2V313.6h21.6v21.6Z"/></clipPath>
<clipPath id="ck"><path d="M362.5,402.6V381h21.7v21.6Z"/></clipPath>
<clipPath id="cl"><path d="M495.6,402.6V381h21.7v21.6Z"/></clipPath>
<clipPath id="cm"><path d="M628.8,402.6V381h21.6v21.6Z"/></clipPath>
<clipPath id="cn"><path d="M761.9,402.6V381h21.6v21.6Z"/></clipPath>
<clipPath id="co"><path d="M895,402.6V381h21.6v21.6Z"/></clipPath>
<clipPath id="cp"><path d="M1028.2,402.6V381h21.6v21.6Z"/></clipPath>
<clipPath id="cq"><path d="M1161.3,402.6V381h21.6v21.6Z"/></clipPath>
<style type="text/css"><![CDATA[
.g0{
fill: #F1F1F1;
}
.g1{
}
.g2{
fill: #FFFFFF;
}
]]></style>
</defs>
<path fill-rule="evenodd" d="M47.8,65.8H306.3V44H47.8V65.8Z" class="g0"/>
<path fill-rule="evenodd" d="M55.7,63.6H298.6V46.2H55.7V63.6Z" class="g0"/>
<path fill-rule="evenodd" d="M307.3,65.8H439.4V44H307.3V65.8Z" class="g0"/>
<path d="M315.2,65.8H431.6V44.2H315.2V65.8Z" class="g0"/>
<path fill-rule="evenodd" d="M440.2,65.8H572.7V44H440.2V65.8Z" class="g0"/>
<path d="M448.1,65.8H564.9V44.2H448.1V65.8Z" class="g0"/>
<path fill-rule="evenodd" d="M573.5,65.8H705.8V44H573.5V65.8Z" class="g0"/>
<path d="M581.3,65.8H698V44.2H581.3V65.8Z" class="g0"/>
<path fill-rule="evenodd" d="M706.6,65.8H838.9V44H706.6V65.8Z" class="g0"/>
<path d="M714.5,65.8H831.1V44.2H714.5V65.8Z" class="g0"/>
<path fill-rule="evenodd" d="M839.7,65.8H972V44H839.7V65.8Z" class="g0"/>
<path d="M847.6,65.8H964.2V44.2H847.6V65.8Z" class="g0"/>
<path fill-rule="evenodd" d="M972.8,65.8h132.3V44H972.8V65.8Z" class="g0"/>
<path d="M980.7,65.8h116.6V44.2H980.7V65.8Z" class="g0"/>
<path fill-rule="evenodd" d="M1105.9,65.8h132.3V44H1105.9V65.8Z" class="g0"/>
<path d="M1113.8,65.8h116.6V44.2H1113.8V65.8Z" class="g0"/>
<path d="M47.1,44h.7v-.7h-.7V44Z" class="g1"/>
<path d="M47.1,44h.7v-.7h-.7V44Z" class="g1"/>
<path d="M47.8,44H306.3v-.7H47.8V44Z" class="g1"/>
<path d="M306.4,44h.7v-.7h-.7V44Z" class="g1"/>
<path d="M307.1,44H439.5v-.7H307.1V44Z" class="g1"/>
<path d="M439.5,44h.7v-.7h-.7V44Z" class="g1"/>
<path d="M440.2,44H572.6v-.7H440.2V44Z" class="g1"/>
<path d="M572.6,44h.7v-.7h-.7V44Z" class="g1"/>
<path d="M573.3,44H705.8v-.7H573.3V44Z" class="g1"/>
<path d="M705.8,44h.8v-.7h-.8V44Z" class="g1"/>
<path d="M706.6,44H838.8v-.7H706.6V44Z" class="g1"/>
<path d="M838.8,44h.7v-.7h-.7V44Z" class="g1"/>
<path d="M839.5,44H972v-.7H839.5V44Z" class="g1"/>
<path d="M972,44h.8v-.7H972V44Z" class="g1"/>
<path d="M972.8,44h132.3v-.7H972.8V44Z" class="g1"/>
<path d="M1105.1,44h.8v-.7h-.8V44Z" class="g1"/>
<path d="M1105.9,44h132.3v-.7H1105.9V44Z" class="g1"/>
<path d="M1238.2,44h.8v-.7h-.8V44Z" class="g1"/>
<path d="M1238.2,44h.8v-.7h-.8V44Z" class="g1"/>
<path d="M47.1,65.8h.7V44h-.7V65.8Z" class="g1"/>
<path d="M306.4,65.8h.7V44h-.7V65.8Z" class="g1"/>
<path d="M439.5,65.8h.7V44h-.7V65.8Z" class="g1"/>
<path d="M572.6,65.8h.7V44h-.7V65.8Z" class="g1"/>
<path d="M705.8,65.8h.8V44h-.8V65.8Z" class="g1"/>
<path d="M838.8,65.8h.7V44h-.7V65.8Z" class="g1"/>
<path d="M972,65.8h.8V44H972V65.8Z" class="g1"/>
<path d="M1105.1,65.8h.8V44h-.8V65.8Z" class="g1"/>
<path d="M1238.2,65.8h.8V44h-.8V65.8Z" class="g1"/>
<path d="M47.1,66.5h.7v-.7h-.7v.7Z" class="g1"/>
<path d="M47.8,66.5H306.3v-.7H47.8v.7Z" class="g1"/>
<path d="M306.4,66.5h.7v-.7h-.7v.7Z" class="g1"/>
<path d="M307.1,66.5H439.5v-.7H307.1v.7Z" class="g1"/>
<path d="M439.5,66.5h.7v-.7h-.7v.7Z" class="g1"/>
<path d="M440.2,66.5H572.6v-.7H440.2v.7Z" class="g1"/>
<path d="M572.6,66.5h.7v-.7h-.7v.7Z" class="g1"/>
<path d="M573.3,66.5H705.8v-.7H573.3v.7Z" class="g1"/>
<path d="M705.8,66.5h.8v-.7h-.8v.7Z" class="g1"/>
<path d="M706.6,66.5H838.8v-.7H706.6v.7Z" class="g1"/>
<path d="M838.8,66.5h.7v-.7h-.7v.7Z" class="g1"/>
<path d="M839.5,66.5H972v-.7H839.5v.7Z" class="g1"/>
<path d="M972,66.5h.8v-.7H972v.7Z" class="g1"/>
<path d="M972.8,66.5h132.3v-.7H972.8v.7Z" class="g1"/>
<path d="M1105.1,66.5h.8v-.7h-.8v.7Z" class="g1"/>
<path d="M1105.9,66.5h132.3v-.7H1105.9v.7Z" class="g1"/>
<path d="M1238.2,66.5h.8v-.7h-.8v.7Z" class="g1"/>
<path d="M47.1,88.2h.7V66.5h-.7V88.2Z" class="g1"/>
<path d="M306.4,88.2h.7V66.5h-.7V88.2Z" class="g1"/>
<path d="M439.5,88.2h.7V66.5h-.7V88.2Z" class="g1"/>
<path d="M572.6,88.2h.7V66.5h-.7V88.2Z" class="g1"/>
<path d="M705.8,88.2h.8V66.5h-.8V88.2Z" class="g1"/>
<path d="M838.8,88.2h.7V66.5h-.7V88.2Z" class="g1"/>
<path d="M972,88.2h.8V66.5H972V88.2Z" class="g1"/>
<path d="M1105.1,88.2h.8V66.5h-.8V88.2Z" class="g1"/>
<path d="M1238.2,88.2h.8V66.5h-.8V88.2Z" class="g1"/>
<path fill-rule="evenodd" d="M47.8,110.7H1238.2V88.9H47.8v21.8Z" class="g2"/>
<path fill-rule="evenodd" d="M55.7,108.5H1230.4V91.1H55.7v17.4Z" class="g2"/>
<path d="M47.1,88.9h.7v-.7h-.7v.7Z" class="g1"/>
<path d="M47.8,88.9H306.3v-.7H47.8v.7Z" class="g1"/>
<path d="M306.4,88.9h.7v-.7h-.7v.7Z" class="g1"/>
<path d="M307.1,88.9H439.5v-.7H307.1v.7Z" class="g1"/>
<path d="M439.5,88.9h.7v-.7h-.7v.7Z" class="g1"/>
<path d="M440.2,88.9H572.6v-.7H440.2v.7Z" class="g1"/>
<path d="M572.6,88.9h.7v-.7h-.7v.7Z" class="g1"/>
<path d="M573.3,88.9H705.8v-.7H573.3v.7Z" class="g1"/>
<path d="M705.8,88.9h.8v-.7h-.8v.7Z" class="g1"/>
<path d="M706.6,88.9H838.8v-.7H706.6v.7Z" class="g1"/>
<path d="M838.8,88.9h.7v-.7h-.7v.7Z" class="g1"/>
<path d="M839.5,88.9H972v-.7H839.5v.7Z" class="g1"/>
<path d="M972,88.9h.8v-.7H972v.7Z" class="g1"/>
<path d="M972.8,88.9h132.3v-.7H972.8v.7Z" class="g1"/>
<path d="M1105.1,88.9h.8v-.7h-.8v.7Z" class="g1"/>
<path d="M1105.9,88.9h132.3v-.7H1105.9v.7Z" class="g1"/>
<path d="M1238.2,88.9h.8v-.7h-.8v.7Z" class="g1"/>
<path d="M47.1,110.7h.7V88.9h-.7v21.8Z" class="g1"/>
<path d="M1238.2,110.7h.8V88.9h-.8v21.8Z" class="g1"/>
<path fill-rule="evenodd" d="M47.8,133.1H306.3V111.5H47.8v21.6Z" class="g0"/>
<path fill-rule="evenodd" d="M55.7,131.1H298.6V113.5H55.7v17.6Z" class="g0"/>
<path fill-rule="evenodd" d="M307.3,133.1H439.4V111.5H307.3v21.6Z" class="g0"/>
<path d="M315.2,133.1H431.6V111.5H315.2v21.6Z" class="g0"/>
<path fill-rule="evenodd" d="M440.2,133.1H572.7V111.5H440.2v21.6Z" class="g0"/>
<path d="M448.1,133.1H564.9V111.5H448.1v21.6Z" class="g0"/>
<path fill-rule="evenodd" d="M573.5,133.1H705.8V111.5H573.5v21.6Z" class="g0"/>
<path d="M581.3,133.1H698V111.5H581.3v21.6Z" class="g0"/>
<path fill-rule="evenodd" d="M706.6,133.1H838.9V111.5H706.6v21.6Z" class="g0"/>
<path d="M714.5,133.1H831.1V111.5H714.5v21.6Z" class="g0"/>
<path fill-rule="evenodd" d="M839.7,133.1H972V111.5H839.7v21.6Z" class="g0"/>
<path d="M847.6,133.1H964.2V111.5H847.6v21.6Z" class="g0"/>
<path fill-rule="evenodd" d="M972.8,133.1h132.3V111.5H972.8v21.6Z" class="g0"/>
<path d="M980.7,133.1h116.6V111.5H980.7v21.6Z" class="g0"/>
<path fill-rule="evenodd" d="M1105.9,133.1h132.3V111.5H1105.9v21.6Z" class="g0"/>
<path d="M1113.8,133.1h116.6V111.5H1113.8v21.6Z" class="g0"/>
<path d="M47.1,111.5h.7v-.8h-.7v.8Z" class="g1"/>
<path d="M47.8,111.5H306.3v-.8H47.8v.8Z" class="g1"/>
<path d="M306.4,111.5h.7v-.8h-.7v.8Z" class="g1"/>
<path d="M307.1,111.5H439.5v-.8H307.1v.8Z" class="g1"/>
<path d="M439.5,111.5h.7v-.8h-.7v.8Z" class="g1"/>
<path d="M440.2,111.5H572.6v-.8H440.2v.8Z" class="g1"/>
<path d="M572.6,111.5h.7v-.8h-.7v.8Z" class="g1"/>
<path d="M573.3,111.5H705.8v-.8H573.3v.8Z" class="g1"/>
<path d="M705.8,111.5h.8v-.8h-.8v.8Z" class="g1"/>
<path d="M706.6,111.5H838.8v-.8H706.6v.8Z" class="g1"/>
<path d="M838.8,111.5h.7v-.8h-.7v.8Z" class="g1"/>
<path d="M839.5,111.5H972v-.8H839.5v.8Z" class="g1"/>
<path d="M972,111.5h.8v-.8H972v.8Z" class="g1"/>
<path d="M972.8,111.5h132.3v-.8H972.8v.8Z" class="g1"/>
<path d="M1105.1,111.5h.8v-.8h-.8v.8Z" class="g1"/>
<path d="M1105.9,111.5h132.3v-.8H1105.9v.8Z" class="g1"/>
<path d="M1238.2,111.5h.8v-.8h-.8v.8Z" class="g1"/>
<path d="M47.1,133.1h.7V111.5h-.7v21.6Z" class="g1"/>
<path d="M306.4,133.1h.7V111.5h-.7v21.6Z" class="g1"/>
<path d="M439.5,133.1h.7V111.5h-.7v21.6Z" class="g1"/>
<path d="M572.6,133.1h.7V111.5h-.7v21.6Z" class="g1"/>
<path d="M705.8,133.1h.8V111.5h-.8v21.6Z" class="g1"/>
<path d="M838.8,133.1h.7V111.5h-.7v21.6Z" class="g1"/>
<path d="M972,133.1h.8V111.5H972v21.6Z" class="g1"/>
<path d="M1105.1,133.1h.8V111.5h-.8v21.6Z" class="g1"/>
<path d="M1238.2,133.1h.8V111.5h-.8v21.6Z" class="g1"/>
<path d="M47.1,133.8h.7v-.7h-.7v.7Z" class="g1"/>
<path d="M47.8,133.8H306.3v-.7H47.8v.7Z" class="g1"/>
<path d="M306.4,133.8h.7v-.7h-.7v.7Z" class="g1"/>
<path d="M307.1,133.8H439.5v-.7H307.1v.7Z" class="g1"/>
<path d="M439.5,133.8h.7v-.7h-.7v.7Z" class="g1"/>
<path d="M440.2,133.8H572.6v-.7H440.2v.7Z" class="g1"/>
<path d="M572.6,133.8h.7v-.7h-.7v.7Z" class="g1"/>
<path d="M573.3,133.8H705.8v-.7H573.3v.7Z" class="g1"/>
<path d="M705.8,133.8h.8v-.7h-.8v.7Z" class="g1"/>
<path d="M706.6,133.8H838.8v-.7H706.6v.7Z" class="g1"/>
<path d="M838.8,133.8h.7v-.7h-.7v.7Z" class="g1"/>
<path d="M839.5,133.8H972v-.7H839.5v.7Z" class="g1"/>
<path d="M972,133.8h.8v-.7H972v.7Z" class="g1"/>
<path d="M972.8,133.8h132.3v-.7H972.8v.7Z" class="g1"/>
<path d="M1105.1,133.8h.8v-.7h-.8v.7Z" class="g1"/>
<path d="M1105.9,133.8h132.3v-.7H1105.9v.7Z" class="g1"/>
<path d="M1238.2,133.8h.8v-.7h-.8v.7Z" class="g1"/>
<path d="M47.1,155.7h.7V133.8h-.7v21.9Z" class="g1"/>
<path d="M306.4,155.7h.7V133.8h-.7v21.9Z" class="g1"/>
<path d="M439.5,155.7h.7V133.8h-.7v21.9Z" class="g1"/>
<path d="M572.6,155.7h.7V133.8h-.7v21.9Z" class="g1"/>
<path d="M705.8,155.7h.8V133.8h-.8v21.9Z" class="g1"/>
<path d="M838.8,155.7h.7V133.8h-.7v21.9Z" class="g1"/>
<path d="M972,155.7h.8V133.8H972v21.9Z" class="g1"/>
<path d="M1105.1,155.7h.8V133.8h-.8v21.9Z" class="g1"/>
<path d="M1238.2,155.7h.8V133.8h-.8v21.9Z" class="g1"/>
<path fill-rule="evenodd" d="M47.8,178H1238.2V156.4H47.8V178Z" class="g2"/>
<path fill-rule="evenodd" d="M55.7,176H1230.4V158.4H55.7V176Z" class="g2"/>
<path d="M47.1,156.4h.7v-.8h-.7v.8Z" class="g1"/>
<path d="M47.8,156.4H306.3v-.8H47.8v.8Z" class="g1"/>
<path d="M306.4,156.4h.7v-.8h-.7v.8Z" class="g1"/>
<path d="M307.1,156.4H439.5v-.8H307.1v.8Z" class="g1"/>
<path d="M439.5,156.4h.7v-.8h-.7v.8Z" class="g1"/>
<path d="M440.2,156.4H572.6v-.8H440.2v.8Z" class="g1"/>
<path d="M572.6,156.4h.7v-.8h-.7v.8Z" class="g1"/>
<path d="M573.3,156.4H705.8v-.8H573.3v.8Z" class="g1"/>
<path d="M705.8,156.4h.8v-.8h-.8v.8Z" class="g1"/>
<path d="M706.6,156.4H838.8v-.8H706.6v.8Z" class="g1"/>
<path d="M838.8,156.4h.7v-.8h-.7v.8Z" class="g1"/>
<path d="M839.5,156.4H972v-.8H839.5v.8Z" class="g1"/>
<path d="M972,156.4h.8v-.8H972v.8Z" class="g1"/>
<path d="M972.8,156.4h132.3v-.8H972.8v.8Z" class="g1"/>
<path d="M1105.1,156.4h.8v-.8h-.8v.8Z" class="g1"/>
<path d="M1105.9,156.4h132.3v-.8H1105.9v.8Z" class="g1"/>
<path d="M1238.2,156.4h.8v-.8h-.8v.8Z" class="g1"/>
<path d="M47.1,178h.7V156.4h-.7V178Z" class="g1"/>
<path d="M1238.2,178h.8V156.4h-.8V178Z" class="g1"/>
<path fill-rule="evenodd" d="M47.8,200.6H306.3V178.8H47.8v21.8Z" class="g0"/>
<path fill-rule="evenodd" d="M55.7,198.4H298.6V181H55.7v17.4Z" class="g0"/>
<path fill-rule="evenodd" d="M307.3,200.6H439.4V178.8H307.3v21.8Z" class="g0"/>
<path d="M315.2,200.6H431.6V178.9H315.2v21.7Z" class="g0"/>
<path fill-rule="evenodd" d="M440.2,200.6H572.7V178.8H440.2v21.8Z" class="g0"/>
<path d="M448.1,200.6H564.9V178.9H448.1v21.7Z" class="g0"/>
<path fill-rule="evenodd" d="M573.5,200.6H705.8V178.8H573.5v21.8Z" class="g0"/>
<path d="M581.3,200.6H698V178.9H581.3v21.7Z" class="g0"/>
<path fill-rule="evenodd" d="M706.6,200.6H838.9V178.8H706.6v21.8Z" class="g0"/>
<path d="M714.5,200.6H831.1V178.9H714.5v21.7Z" class="g0"/>
<path fill-rule="evenodd" d="M839.7,200.6H972V178.8H839.7v21.8Z" class="g0"/>
<path d="M847.6,200.6H964.2V178.9H847.6v21.7Z" class="g0"/>
<path fill-rule="evenodd" d="M972.8,200.6h132.3V178.8H972.8v21.8Z" class="g0"/>
<path d="M980.7,200.6h116.6V178.9H980.7v21.7Z" class="g0"/>
<path fill-rule="evenodd" d="M1105.9,200.6h132.3V178.8H1105.9v21.8Z" class="g0"/>
<path d="M1113.8,200.6h116.6V178.9H1113.8v21.7Z" class="g0"/>
<path d="M47.1,178.8h.7V178h-.7v.8Z" class="g1"/>
<path d="M47.8,178.8H306.3V178H47.8v.8Z" class="g1"/>
<path d="M306.4,178.8h.7V178h-.7v.8Z" class="g1"/>
<path d="M307.1,178.8H439.5V178H307.1v.8Z" class="g1"/>
<path d="M439.5,178.8h.7V178h-.7v.8Z" class="g1"/>
<path d="M440.2,178.8H572.6V178H440.2v.8Z" class="g1"/>
<path d="M572.6,178.8h.7V178h-.7v.8Z" class="g1"/>
<path d="M573.3,178.8H705.8V178H573.3v.8Z" class="g1"/>
<path d="M705.8,178.8h.8V178h-.8v.8Z" class="g1"/>
<path d="M706.6,178.8H838.8V178H706.6v.8Z" class="g1"/>
<path d="M838.8,178.8h.7V178h-.7v.8Z" class="g1"/>
<path d="M839.5,178.8H972V178H839.5v.8Z" class="g1"/>
<path d="M972,178.8h.8V178H972v.8Z" class="g1"/>
<path d="M972.8,178.8h132.3V178H972.8v.8Z" class="g1"/>
<path d="M1105.1,178.8h.8V178h-.8v.8Z" class="g1"/>
<path d="M1105.9,178.8h132.3V178H1105.9v.8Z" class="g1"/>
<path d="M1238.2,178.8h.8V178h-.8v.8Z" class="g1"/>
<path d="M47.1,200.6h.7V178.8h-.7v21.8Z" class="g1"/>
<path d="M306.4,200.6h.7V178.8h-.7v21.8Z" class="g1"/>
<path d="M439.5,200.6h.7V178.8h-.7v21.8Z" class="g1"/>
<path d="M572.6,200.6h.7V178.8h-.7v21.8Z" class="g1"/>
<path d="M705.8,200.6h.8V178.8h-.8v21.8Z" class="g1"/>
<path d="M838.8,200.6h.7V178.8h-.7v21.8Z" class="g1"/>
<path d="M972,200.6h.8V178.8H972v21.8Z" class="g1"/>
<path d="M1105.1,200.6h.8V178.8h-.8v21.8Z" class="g1"/>
<path d="M1238.2,200.6h.8V178.8h-.8v21.8Z" class="g1"/>
<path d="M47.1,201.3h.7v-.7h-.7v.7Z" class="g1"/>
<path d="M47.8,201.3H306.3v-.7H47.8v.7Z" class="g1"/>
<path d="M306.4,201.3h.7v-.7h-.7v.7Z" class="g1"/>
<path d="M307.1,201.3H439.5v-.7H307.1v.7Z" class="g1"/>
<path d="M439.5,201.3h.7v-.7h-.7v.7Z" class="g1"/>
<path d="M440.2,201.3H572.6v-.7H440.2v.7Z" class="g1"/>
<path d="M572.6,201.3h.7v-.7h-.7v.7Z" class="g1"/>
<path d="M573.3,201.3H705.8v-.7H573.3v.7Z" class="g1"/>
<path d="M705.8,201.3h.8v-.7h-.8v.7Z" class="g1"/>
<path d="M706.6,201.3H838.8v-.7H706.6v.7Z" class="g1"/>
<path d="M838.8,201.3h.7v-.7h-.7v.7Z" class="g1"/>
<path d="M839.5,201.3H972v-.7H839.5v.7Z" class="g1"/>
<path d="M972,201.3h.8v-.7H972v.7Z" class="g1"/>
<path d="M972.8,201.3h132.3v-.7H972.8v.7Z" class="g1"/>
<path d="M1105.1,201.3h.8v-.7h-.8v.7Z" class="g1"/>
<path d="M1105.9,201.3h132.3v-.7H1105.9v.7Z" class="g1"/>
<path d="M1238.2,201.3h.8v-.7h-.8v.7Z" class="g1"/>
<path d="M47.1,222.9h.7V201.3h-.7v21.6Z" class="g1"/>
<path d="M306.4,222.9h.7V201.3h-.7v21.6Z" class="g1"/>
<path d="M439.5,222.9h.7V201.3h-.7v21.6Z" class="g1"/>
<path d="M572.6,222.9h.7V201.3h-.7v21.6Z" class="g1"/>
<path d="M705.8,222.9h.8V201.3h-.8v21.6Z" class="g1"/>
<path d="M838.8,222.9h.7V201.3h-.7v21.6Z" class="g1"/>
<path d="M972,222.9h.8V201.3H972v21.6Z" class="g1"/>
<path d="M1105.1,222.9h.8V201.3h-.8v21.6Z" class="g1"/>
<path d="M1238.2,222.9h.8V201.3h-.8v21.6Z" class="g1"/>
<path fill-rule="evenodd" d="M47.8,245.5H1238.2V223.7H47.8v21.8Z" class="g2"/>
<path fill-rule="evenodd" d="M55.7,243.3H1230.4V225.9H55.7v17.4Z" class="g2"/>
<path d="M47.1,223.7h.7v-.8h-.7v.8Z" class="g1"/>
<path d="M47.8,223.7H306.3v-.8H47.8v.8Z" class="g1"/>
<path d="M306.4,223.7h.7v-.8h-.7v.8Z" class="g1"/>
<path d="M307.1,223.7H439.5v-.8H307.1v.8Z" class="g1"/>
<path d="M439.5,223.7h.7v-.8h-.7v.8Z" class="g1"/>
<path d="M440.2,223.7H572.6v-.8H440.2v.8Z" class="g1"/>
<path d="M572.6,223.7h.7v-.8h-.7v.8Z" class="g1"/>
<path d="M573.3,223.7H705.8v-.8H573.3v.8Z" class="g1"/>
<path d="M705.8,223.7h.8v-.8h-.8v.8Z" class="g1"/>
<path d="M706.6,223.7H838.8v-.8H706.6v.8Z" class="g1"/>
<path d="M838.8,223.7h.7v-.8h-.7v.8Z" class="g1"/>
<path d="M839.5,223.7H972v-.8H839.5v.8Z" class="g1"/>
<path d="M972,223.7h.8v-.8H972v.8Z" class="g1"/>
<path d="M972.8,223.7h132.3v-.8H972.8v.8Z" class="g1"/>
<path d="M1105.1,223.7h.8v-.8h-.8v.8Z" class="g1"/>
<path d="M1105.9,223.7h132.3v-.8H1105.9v.8Z" class="g1"/>
<path d="M1238.2,223.7h.8v-.8h-.8v.8Z" class="g1"/>
<path d="M47.1,245.5h.7V223.7h-.7v21.8Z" class="g1"/>
<path d="M1238.2,245.5h.8V223.7h-.8v21.8Z" class="g1"/>
<path fill-rule="evenodd" d="M47.8,267.9H306.3V246.2H47.8v21.7Z" class="g0"/>
<path fill-rule="evenodd" d="M55.7,265.8H298.6V248.2H55.7v17.6Z" class="g0"/>
<path fill-rule="evenodd" d="M307.3,267.9H439.4V246.2H307.3v21.7Z" class="g0"/>
<path d="M315.2,267.9H431.6V246.2H315.2v21.7Z" class="g0"/>
<path fill-rule="evenodd" d="M440.2,267.9H572.7V246.2H440.2v21.7Z" class="g0"/>
<path d="M448.1,267.9H564.9V246.2H448.1v21.7Z" class="g0"/>
<path fill-rule="evenodd" d="M573.5,267.9H705.8V246.2H573.5v21.7Z" class="g0"/>
<path d="M581.3,267.9H698V246.2H581.3v21.7Z" class="g0"/>
<path fill-rule="evenodd" d="M706.6,267.9H838.9V246.2H706.6v21.7Z" class="g0"/>
<path d="M714.5,267.9H831.1V246.2H714.5v21.7Z" class="g0"/>
<path fill-rule="evenodd" d="M839.7,267.9H972V246.2H839.7v21.7Z" class="g0"/>
<path d="M847.6,267.9H964.2V246.2H847.6v21.7Z" class="g0"/>
<path fill-rule="evenodd" d="M972.8,267.9h132.3V246.2H972.8v21.7Z" class="g0"/>
<path d="M980.7,267.9h116.6V246.2H980.7v21.7Z" class="g0"/>
<path fill-rule="evenodd" d="M1105.9,267.9h132.3V246.2H1105.9v21.7Z" class="g0"/>
<path d="M1113.8,267.9h116.6V246.2H1113.8v21.7Z" class="g0"/>
<path d="M47.1,246.2h.7v-.7h-.7v.7Z" class="g1"/>
<path d="M47.8,246.2H306.3v-.7H47.8v.7Z" class="g1"/>
<path d="M306.4,246.2h.7v-.7h-.7v.7Z" class="g1"/>
<path d="M307.1,246.2H439.5v-.7H307.1v.7Z" class="g1"/>
<path d="M439.5,246.2h.7v-.7h-.7v.7Z" class="g1"/>
<path d="M440.2,246.2H572.6v-.7H440.2v.7Z" class="g1"/>
<path d="M572.6,246.2h.7v-.7h-.7v.7Z" class="g1"/>
<path d="M573.3,246.2H705.8v-.7H573.3v.7Z" class="g1"/>
<path d="M705.8,246.2h.8v-.7h-.8v.7Z" class="g1"/>
<path d="M706.6,246.2H838.8v-.7H706.6v.7Z" class="g1"/>
<path d="M838.8,246.2h.7v-.7h-.7v.7Z" class="g1"/>
<path d="M839.5,246.2H972v-.7H839.5v.7Z" class="g1"/>
<path d="M972,246.2h.8v-.7H972v.7Z" class="g1"/>
<path d="M972.8,246.2h132.3v-.7H972.8v.7Z" class="g1"/>
<path d="M1105.1,246.2h.8v-.7h-.8v.7Z" class="g1"/>
<path d="M1105.9,246.2h132.3v-.7H1105.9v.7Z" class="g1"/>
<path d="M1238.2,246.2h.8v-.7h-.8v.7Z" class="g1"/>
<path d="M47.1,267.9h.7V246.2h-.7v21.7Z" class="g1"/>
<path d="M306.4,267.9h.7V246.2h-.7v21.7Z" class="g1"/>
<path d="M439.5,267.9h.7V246.2h-.7v21.7Z" class="g1"/>
<path d="M572.6,267.9h.7V246.2h-.7v21.7Z" class="g1"/>
<path d="M705.8,267.9h.8V246.2h-.8v21.7Z" class="g1"/>
<path d="M838.8,267.9h.7V246.2h-.7v21.7Z" class="g1"/>
<path d="M972,267.9h.8V246.2H972v21.7Z" class="g1"/>
<path d="M1105.1,267.9h.8V246.2h-.8v21.7Z" class="g1"/>
<path d="M1238.2,267.9h.8V246.2h-.8v21.7Z" class="g1"/>
<path d="M47.1,268.6h.7v-.8h-.7v.8Z" class="g1"/>
<path d="M47.8,268.6H306.3v-.8H47.8v.8Z" class="g1"/>
<path d="M306.4,268.6h.7v-.8h-.7v.8Z" class="g1"/>
<path d="M307.1,268.6H439.5v-.8H307.1v.8Z" class="g1"/>
<path d="M439.5,268.6h.7v-.8h-.7v.8Z" class="g1"/>
<path d="M440.2,268.6H572.6v-.8H440.2v.8Z" class="g1"/>
<path d="M572.6,268.6h.7v-.8h-.7v.8Z" class="g1"/>
<path d="M573.3,268.6H705.8v-.8H573.3v.8Z" class="g1"/>
<path d="M705.8,268.6h.8v-.8h-.8v.8Z" class="g1"/>
<path d="M706.6,268.6H838.8v-.8H706.6v.8Z" class="g1"/>
<path d="M838.8,268.6h.7v-.8h-.7v.8Z" class="g1"/>
<path d="M839.5,268.6H972v-.8H839.5v.8Z" class="g1"/>
<path d="M972,268.6h.8v-.8H972v.8Z" class="g1"/>
<path d="M972.8,268.6h132.3v-.8H972.8v.8Z" class="g1"/>
<path d="M1105.1,268.6h.8v-.8h-.8v.8Z" class="g1"/>
<path d="M1105.9,268.6h132.3v-.8H1105.9v.8Z" class="g1"/>
<path d="M1238.2,268.6h.8v-.8h-.8v.8Z" class="g1"/>
<path d="M47.1,290.4h.7V268.6h-.7v21.8Z" class="g1"/>
<path d="M306.4,290.4h.7V268.6h-.7v21.8Z" class="g1"/>
<path d="M439.5,290.4h.7V268.6h-.7v21.8Z" class="g1"/>
<path d="M572.6,290.4h.7V268.6h-.7v21.8Z" class="g1"/>
<path d="M705.8,290.4h.8V268.6h-.8v21.8Z" class="g1"/>
<path d="M838.8,290.4h.7V268.6h-.7v21.8Z" class="g1"/>
<path d="M972,290.4h.8V268.6H972v21.8Z" class="g1"/>
<path d="M1105.1,290.4h.8V268.6h-.8v21.8Z" class="g1"/>
<path d="M1238.2,290.4h.8V268.6h-.8v21.8Z" class="g1"/>
<path fill-rule="evenodd" d="M47.8,312.8H1238.2V291.1H47.8v21.7Z" class="g2"/>
<path fill-rule="evenodd" d="M55.7,310.7H1230.4V293.2H55.7v17.5Z" class="g2"/>
<path d="M47.1,291.1h.7v-.7h-.7v.7Z" class="g1"/>
<path d="M47.8,291.1H306.3v-.7H47.8v.7Z" class="g1"/>
<path d="M306.4,291.1h.7v-.7h-.7v.7Z" class="g1"/>
<path d="M307.1,291.1H439.5v-.7H307.1v.7Z" class="g1"/>
<path d="M439.5,291.1h.7v-.7h-.7v.7Z" class="g1"/>
<path d="M440.2,291.1H572.6v-.7H440.2v.7Z" class="g1"/>
<path d="M572.6,291.1h.7v-.7h-.7v.7Z" class="g1"/>
<path d="M573.3,291.1H705.8v-.7H573.3v.7Z" class="g1"/>
<path d="M705.8,291.1h.8v-.7h-.8v.7Z" class="g1"/>
<path d="M706.6,291.1H838.8v-.7H706.6v.7Z" class="g1"/>
<path d="M838.8,291.1h.7v-.7h-.7v.7Z" class="g1"/>
<path d="M839.5,291.1H972v-.7H839.5v.7Z" class="g1"/>
<path d="M972,291.1h.8v-.7H972v.7Z" class="g1"/>
<path d="M972.8,291.1h132.3v-.7H972.8v.7Z" class="g1"/>
<path d="M1105.1,291.1h.8v-.7h-.8v.7Z" class="g1"/>
<path d="M1105.9,291.1h132.3v-.7H1105.9v.7Z" class="g1"/>
<path d="M1238.2,291.1h.8v-.7h-.8v.7Z" class="g1"/>
<path d="M47.1,312.8h.7V291.1h-.7v21.7Z" class="g1"/>
<path d="M1238.2,312.8h.8V291.1h-.8v21.7Z" class="g1"/>
<path fill-rule="evenodd" d="M47.8,335.3H306.3V313.5H47.8v21.8Z" class="g0"/>
<path fill-rule="evenodd" d="M55.7,333.1H298.6V315.7H55.7v17.4Z" class="g0"/>
<path fill-rule="evenodd" d="M307.3,335.3H439.4V313.5H307.3v21.8Z" class="g0"/>
<path d="M315.2,335.3H431.6V313.7H315.2v21.6Z" class="g0"/>
<path fill-rule="evenodd" d="M440.2,335.3H572.7V313.5H440.2v21.8Z" class="g0"/>
<path d="M448.1,335.3H564.9V313.7H448.1v21.6Z" class="g0"/>
<path fill-rule="evenodd" d="M573.5,335.3H705.8V313.5H573.5v21.8Z" class="g0"/>
<path d="M581.3,335.3H698V313.7H581.3v21.6Z" class="g0"/>
<path fill-rule="evenodd" d="M706.6,335.3H838.9V313.5H706.6v21.8Z" class="g0"/>
<path d="M714.5,335.3H831.1V313.7H714.5v21.6Z" class="g0"/>
<path fill-rule="evenodd" d="M839.7,335.3H972V313.5H839.7v21.8Z" class="g0"/>
<path d="M847.6,335.3H964.2V313.7H847.6v21.6Z" class="g0"/>
<path fill-rule="evenodd" d="M972.8,335.3h132.3V313.5H972.8v21.8Z" class="g0"/>
<path d="M980.7,335.3h116.6V313.7H980.7v21.6Z" class="g0"/>
<path fill-rule="evenodd" d="M1105.9,335.3h132.3V313.5H1105.9v21.8Z" class="g0"/>
<path d="M1113.8,335.3h116.6V313.7H1113.8v21.6Z" class="g0"/>
<path d="M47.1,313.5h.7v-.7h-.7v.7Z" class="g1"/>
<path d="M47.8,313.5H306.3v-.7H47.8v.7Z" class="g1"/>
<path d="M306.4,313.5h.7v-.7h-.7v.7Z" class="g1"/>
<path d="M307.1,313.5H439.5v-.7H307.1v.7Z" class="g1"/>
<path d="M439.5,313.5h.7v-.7h-.7v.7Z" class="g1"/>
<path d="M440.2,313.5H572.6v-.7H440.2v.7Z" class="g1"/>
<path d="M572.6,313.5h.7v-.7h-.7v.7Z" class="g1"/>
<path d="M573.3,313.5H705.8v-.7H573.3v.7Z" class="g1"/>
<path d="M705.8,313.5h.8v-.7h-.8v.7Z" class="g1"/>
<path d="M706.6,313.5H838.8v-.7H706.6v.7Z" class="g1"/>
<path d="M838.8,313.5h.7v-.7h-.7v.7Z" class="g1"/>
<path d="M839.5,313.5H972v-.7H839.5v.7Z" class="g1"/>
<path d="M972,313.5h.8v-.7H972v.7Z" class="g1"/>
<path d="M972.8,313.5h132.3v-.7H972.8v.7Z" class="g1"/>
<path d="M1105.1,313.5h.8v-.7h-.8v.7Z" class="g1"/>
<path d="M1105.9,313.5h132.3v-.7H1105.9v.7Z" class="g1"/>
<path d="M1238.2,313.5h.8v-.7h-.8v.7Z" class="g1"/>
<path d="M47.1,335.3h.7V313.5h-.7v21.8Z" class="g1"/>
<path d="M306.4,335.3h.7V313.5h-.7v21.8Z" class="g1"/>
<path d="M439.5,335.3h.7V313.5h-.7v21.8Z" class="g1"/>
<path d="M572.6,335.3h.7V313.5h-.7v21.8Z" class="g1"/>
<path d="M705.8,335.3h.8V313.5h-.8v21.8Z" class="g1"/>
<path d="M838.8,335.3h.7V313.5h-.7v21.8Z" class="g1"/>
<path d="M972,335.3h.8V313.5H972v21.8Z" class="g1"/>
<path d="M1105.1,335.3h.8V313.5h-.8v21.8Z" class="g1"/>
<path d="M1238.2,335.3h.8V313.5h-.8v21.8Z" class="g1"/>
<path d="M47.1,336.1h.7v-.8h-.7v.8Z" class="g1"/>
<path d="M47.8,336.1H306.3v-.8H47.8v.8Z" class="g1"/>
<path d="M306.4,336.1h.7v-.8h-.7v.8Z" class="g1"/>
<path d="M307.1,336.1H439.5v-.8H307.1v.8Z" class="g1"/>
<path d="M439.5,336.1h.7v-.8h-.7v.8Z" class="g1"/>
<path d="M440.2,336.1H572.6v-.8H440.2v.8Z" class="g1"/>
<path d="M572.6,336.1h.7v-.8h-.7v.8Z" class="g1"/>
<path d="M573.3,336.1H705.8v-.8H573.3v.8Z" class="g1"/>
<path d="M705.8,336.1h.8v-.8h-.8v.8Z" class="g1"/>
<path d="M706.6,336.1H838.8v-.8H706.6v.8Z" class="g1"/>
<path d="M838.8,336.1h.7v-.8h-.7v.8Z" class="g1"/>
<path d="M839.5,336.1H972v-.8H839.5v.8Z" class="g1"/>
<path d="M972,336.1h.8v-.8H972v.8Z" class="g1"/>
<path d="M972.8,336.1h132.3v-.8H972.8v.8Z" class="g1"/>
<path d="M1105.1,336.1h.8v-.8h-.8v.8Z" class="g1"/>
<path d="M1105.9,336.1h132.3v-.8H1105.9v.8Z" class="g1"/>
<path d="M1238.2,336.1h.8v-.8h-.8v.8Z" class="g1"/>
<path d="M47.1,357.7h.7V336h-.7v21.7Z" class="g1"/>
<path d="M306.4,357.7h.7V336h-.7v21.7Z" class="g1"/>
<path d="M439.5,357.7h.7V336h-.7v21.7Z" class="g1"/>
<path d="M572.6,357.7h.7V336h-.7v21.7Z" class="g1"/>
<path d="M705.8,357.7h.8V336h-.8v21.7Z" class="g1"/>
<path d="M838.8,357.7h.7V336h-.7v21.7Z" class="g1"/>
<path d="M972,357.7h.8V336H972v21.7Z" class="g1"/>
<path d="M1105.1,357.7h.8V336h-.8v21.7Z" class="g1"/>
<path d="M1238.2,357.7h.8V336h-.8v21.7Z" class="g1"/>
<path fill-rule="evenodd" d="M47.8,380.2H1238.2V358.4H47.8v21.8Z" class="g2"/>
<path fill-rule="evenodd" d="M55.7,378H1230.4V360.6H55.7V378Z" class="g2"/>
<path d="M47.1,358.4h.7v-.7h-.7v.7Z" class="g1"/>
<path d="M47.8,358.4H306.3v-.7H47.8v.7Z" class="g1"/>
<path d="M306.4,358.4h.7v-.7h-.7v.7Z" class="g1"/>
<path d="M307.1,358.4H439.5v-.7H307.1v.7Z" class="g1"/>
<path d="M439.5,358.4h.7v-.7h-.7v.7Z" class="g1"/>
<path d="M440.2,358.4H572.6v-.7H440.2v.7Z" class="g1"/>
<path d="M572.6,358.4h.7v-.7h-.7v.7Z" class="g1"/>
<path d="M573.3,358.4H705.8v-.7H573.3v.7Z" class="g1"/>
<path d="M705.8,358.4h.8v-.7h-.8v.7Z" class="g1"/>
<path d="M706.6,358.4H838.8v-.7H706.6v.7Z" class="g1"/>
<path d="M838.8,358.4h.7v-.7h-.7v.7Z" class="g1"/>
<path d="M839.5,358.4H972v-.7H839.5v.7Z" class="g1"/>
<path d="M972,358.4h.8v-.7H972v.7Z" class="g1"/>
<path d="M972.8,358.4h132.3v-.7H972.8v.7Z" class="g1"/>
<path d="M1105.1,358.4h.8v-.7h-.8v.7Z" class="g1"/>
<path d="M1105.9,358.4h132.3v-.7H1105.9v.7Z" class="g1"/>
<path d="M1238.2,358.4h.8v-.7h-.8v.7Z" class="g1"/>
<path d="M47.1,380.2h.7V358.4h-.7v21.8Z" class="g1"/>
<path d="M1238.2,380.2h.8V358.4h-.8v21.8Z" class="g1"/>
<path fill-rule="evenodd" d="M47.8,402.6H306.3V381H47.8v21.6Z" class="g0"/>
<path fill-rule="evenodd" d="M55.7,400.6H298.6V383H55.7v17.6Z" class="g0"/>
<path fill-rule="evenodd" d="M307.3,402.6H439.4V381H307.3v21.6Z" class="g0"/>
<path d="M315.2,402.6H431.6V381H315.2v21.6Z" class="g0"/>
<path fill-rule="evenodd" d="M440.2,402.6H572.7V381H440.2v21.6Z" class="g0"/>
<path d="M448.1,402.6H564.9V381H448.1v21.6Z" class="g0"/>
<path fill-rule="evenodd" d="M573.5,402.6H705.8V381H573.5v21.6Z" class="g0"/>
<path d="M581.3,402.6H698V381H581.3v21.6Z" class="g0"/>
<path fill-rule="evenodd" d="M706.6,402.6H838.9V381H706.6v21.6Z" class="g0"/>
<path d="M714.5,402.6H831.1V381H714.5v21.6Z" class="g0"/>
<path fill-rule="evenodd" d="M839.7,402.6H972V381H839.7v21.6Z" class="g0"/>
<path d="M847.6,402.6H964.2V381H847.6v21.6Z" class="g0"/>
<path fill-rule="evenodd" d="M972.8,402.6h132.3V381H972.8v21.6Z" class="g0"/>
<path d="M980.7,402.6h116.6V381H980.7v21.6Z" class="g0"/>
<path fill-rule="evenodd" d="M1105.9,402.6h132.3V381H1105.9v21.6Z" class="g0"/>
<path d="M1113.8,402.6h116.6V381H1113.8v21.6Z" class="g0"/>
<path d="M47.1,381h.7v-.8h-.7v.8Z" class="g1"/>
<path d="M47.8,381H306.3v-.8H47.8v.8Z" class="g1"/>
<path d="M306.4,381h.7v-.8h-.7v.8Z" class="g1"/>
<path d="M307.1,381H439.5v-.8H307.1v.8Z" class="g1"/>
<path d="M439.5,381h.7v-.8h-.7v.8Z" class="g1"/>
<path d="M440.2,381H572.6v-.8H440.2v.8Z" class="g1"/>
<path d="M572.6,381h.7v-.8h-.7v.8Z" class="g1"/>
<path d="M573.3,381H705.8v-.8H573.3v.8Z" class="g1"/>
<path d="M705.8,381h.8v-.8h-.8v.8Z" class="g1"/>
<path d="M706.6,381H838.8v-.8H706.6v.8Z" class="g1"/>
<path d="M838.8,381h.7v-.8h-.7v.8Z" class="g1"/>
<path d="M839.5,381H972v-.8H839.5v.8Z" class="g1"/>
<path d="M972,381h.8v-.8H972v.8Z" class="g1"/>
<path d="M972.8,381h132.3v-.8H972.8v.8Z" class="g1"/>
<path d="M1105.1,381h.8v-.8h-.8v.8Z" class="g1"/>
<path d="M1105.9,381h132.3v-.8H1105.9v.8Z" class="g1"/>
<path d="M1238.2,381h.8v-.8h-.8v.8Z" class="g1"/>
<path d="M47.1,402.6h.7V381h-.7v21.6Z" class="g1"/>
<path d="M306.4,402.6h.7V381h-.7v21.6Z" class="g1"/>
<path d="M439.5,402.6h.7V381h-.7v21.6Z" class="g1"/>
<path d="M572.6,402.6h.7V381h-.7v21.6Z" class="g1"/>
<path d="M705.8,402.6h.8V381h-.8v21.6Z" class="g1"/>
<path d="M838.8,402.6h.7V381h-.7v21.6Z" class="g1"/>
<path d="M972,402.6h.8V381H972v21.6Z" class="g1"/>
<path d="M1105.1,402.6h.8V381h-.8v21.6Z" class="g1"/>
<path d="M1238.2,402.6h.8V381h-.8v21.6Z" class="g1"/>
<path d="M47.1,403.3h.7v-.7h-.7v.7Z" class="g1"/>
<path d="M47.8,403.3H306.3v-.7H47.8v.7Z" class="g1"/>
<path d="M306.4,403.3h.7v-.7h-.7v.7Z" class="g1"/>
<path d="M307.1,403.3H439.5v-.7H307.1v.7Z" class="g1"/>
<path d="M439.5,403.3h.7v-.7h-.7v.7Z" class="g1"/>
<path d="M440.2,403.3H572.6v-.7H440.2v.7Z" class="g1"/>
<path d="M572.6,403.3h.7v-.7h-.7v.7Z" class="g1"/>
<path d="M573.3,403.3H705.8v-.7H573.3v.7Z" class="g1"/>
<path d="M705.8,403.3h.8v-.7h-.8v.7Z" class="g1"/>
<path d="M706.6,403.3H838.8v-.7H706.6v.7Z" class="g1"/>
<path d="M838.8,403.3h.7v-.7h-.7v.7Z" class="g1"/>
<path d="M839.5,403.3H972v-.7H839.5v.7Z" class="g1"/>
<path d="M972,403.3h.8v-.7H972v.7Z" class="g1"/>
<path d="M972.8,403.3h132.3v-.7H972.8v.7Z" class="g1"/>
<path d="M1105.1,403.3h.8v-.7h-.8v.7Z" class="g1"/>
<path d="M1105.9,403.3h132.3v-.7H1105.9v.7Z" class="g1"/>
<path d="M1238.2,403.3h.8v-.7h-.8v.7Z" class="g1"/>
<path d="M47.1,425.2h.7V403.3h-.7v21.9Z" class="g1"/>
<path d="M306.4,425.2h.7V403.3h-.7v21.9Z" class="g1"/>
<path d="M439.5,425.2h.7V403.3h-.7v21.9Z" class="g1"/>
<path d="M572.6,425.2h.7V403.3h-.7v21.9Z" class="g1"/>
<path d="M705.8,425.2h.8V403.3h-.8v21.9Z" class="g1"/>
<path d="M838.8,425.2h.7V403.3h-.7v21.9Z" class="g1"/>
<path d="M972,425.2h.8V403.3H972v21.9Z" class="g1"/>
<path d="M1105.1,425.2h.8V403.3h-.8v21.9Z" class="g1"/>
<path d="M1238.2,425.2h.8V403.3h-.8v21.9Z" class="g1"/>
<path fill-rule="evenodd" d="M47.8,447.5H1238.2V425.9H47.8v21.6Z" class="g2"/>
<path fill-rule="evenodd" d="M55.7,445.5H1230.4V427.9H55.7v17.6Z" class="g2"/>
<path d="M47.1,425.9h.7v-.8h-.7v.8Z" class="g1"/>
<path d="M47.8,425.9H306.3v-.8H47.8v.8Z" class="g1"/>
<path d="M306.4,425.9h.7v-.8h-.7v.8Z" class="g1"/>
<path d="M307.1,425.9H439.5v-.8H307.1v.8Z" class="g1"/>
<path d="M439.5,425.9h.7v-.8h-.7v.8Z" class="g1"/>
<path d="M440.2,425.9H572.6v-.8H440.2v.8Z" class="g1"/>
<path d="M572.6,425.9h.7v-.8h-.7v.8Z" class="g1"/>
<path d="M573.3,425.9H705.8v-.8H573.3v.8Z" class="g1"/>
<path d="M705.8,425.9h.8v-.8h-.8v.8Z" class="g1"/>
<path d="M706.6,425.9H838.8v-.8H706.6v.8Z" class="g1"/>
<path d="M838.8,425.9h.7v-.8h-.7v.8Z" class="g1"/>
<path d="M839.5,425.9H972v-.8H839.5v.8Z" class="g1"/>
<path d="M972,425.9h.8v-.8H972v.8Z" class="g1"/>
<path d="M972.8,425.9h132.3v-.8H972.8v.8Z" class="g1"/>
<path d="M1105.1,425.9h.8v-.8h-.8v.8Z" class="g1"/>
<path d="M1105.9,425.9h132.3v-.8H1105.9v.8Z" class="g1"/>
<path d="M1238.2,425.9h.8v-.8h-.8v.8Z" class="g1"/>
<path d="M47.1,447.5h.7V425.9h-.7v21.6Z" class="g1"/>
<path d="M47.1,448.2h.7v-.7h-.7v.7Z" class="g1"/>
<path d="M47.1,448.2h.7v-.7h-.7v.7Z" class="g1"/>
<path d="M47.8,448.2H1238.2v-.7H47.8v.7Z" class="g1"/>
<path d="M1238.2,447.5h.8V425.9h-.8v21.6Z" class="g1"/>
<path d="M1238.2,448.2h.8v-.7h-.8v.7Z" class="g1"/>
<path d="M1238.2,448.2h.8v-.7h-.8v.7Z" class="g1"/>
<image clip-path="url(#c0)" preserveAspectRatio="none" x="363" y="44" width="21" height="22" xlink:href="img/1.png"/>
<image preserveAspectRatio="none" x="496" y="44" width="21" height="22" xlink:href="img/2.png"/>
<image clip-path="url(#c1)" preserveAspectRatio="none" x="629" y="44" width="21" height="22" xlink:href="img/3.png"/>
<image preserveAspectRatio="none" x="762" y="44" width="22" height="22" xlink:href="img/4.png"/>
<image preserveAspectRatio="none" x="895" y="44" width="22" height="22" xlink:href="img/5.png"/>
<image preserveAspectRatio="none" x="1028" y="44" width="22" height="22" xlink:href="img/6.png"/>
<image preserveAspectRatio="none" x="1161" y="44" width="22" height="22" xlink:href="img/7.png"/>
<image clip-path="url(#c2)" preserveAspectRatio="none" x="363" y="111" width="21" height="22" xlink:href="img/8.png"/>
<image clip-path="url(#c3)" preserveAspectRatio="none" x="496" y="111" width="21" height="22" xlink:href="img/9.png"/>
<image clip-path="url(#c4)" preserveAspectRatio="none" x="629" y="111" width="21" height="22" xlink:href="img/10.png"/>
<image clip-path="url(#c5)" preserveAspectRatio="none" x="762" y="111" width="22" height="22" xlink:href="img/11.png"/>
<image clip-path="url(#c6)" preserveAspectRatio="none" x="895" y="111" width="22" height="22" xlink:href="img/12.png"/>
<image clip-path="url(#c7)" preserveAspectRatio="none" x="1028" y="111" width="22" height="22" xlink:href="img/13.png"/>
<image clip-path="url(#c8)" preserveAspectRatio="none" x="1161" y="111" width="22" height="22" xlink:href="img/14.png"/>
<image clip-path="url(#c9)" preserveAspectRatio="none" x="363" y="179" width="21" height="21" xlink:href="img/15.png"/>
<image preserveAspectRatio="none" x="496" y="179" width="21" height="21" xlink:href="img/16.png"/>
<image clip-path="url(#ca)" preserveAspectRatio="none" x="629" y="179" width="21" height="21" xlink:href="img/17.png"/>
<image preserveAspectRatio="none" x="762" y="179" width="22" height="21" xlink:href="img/18.png"/>
<image preserveAspectRatio="none" x="895" y="179" width="22" height="21" xlink:href="img/19.png"/>
<image preserveAspectRatio="none" x="1028" y="179" width="22" height="21" xlink:href="img/20.png"/>
<image preserveAspectRatio="none" x="1161" y="179" width="22" height="21" xlink:href="img/21.png"/>
<image clip-path="url(#cb)" preserveAspectRatio="none" x="363" y="246" width="21" height="22" xlink:href="img/22.png"/>
<image clip-path="url(#cc)" preserveAspectRatio="none" x="496" y="246" width="21" height="22" xlink:href="img/23.png"/>
<image clip-path="url(#cd)" preserveAspectRatio="none" x="629" y="246" width="21" height="22" xlink:href="img/24.png"/>
<image clip-path="url(#ce)" preserveAspectRatio="none" x="762" y="246" width="22" height="22" xlink:href="img/25.png"/>
<image clip-path="url(#cf)" preserveAspectRatio="none" x="895" y="246" width="22" height="22" xlink:href="img/26.png"/>
<image clip-path="url(#cg)" preserveAspectRatio="none" x="1028" y="246" width="22" height="22" xlink:href="img/27.png"/>
<image clip-path="url(#ch)" preserveAspectRatio="none" x="1161" y="246" width="22" height="22" xlink:href="img/28.png"/>
<image clip-path="url(#ci)" preserveAspectRatio="none" x="363" y="314" width="21" height="21" xlink:href="img/29.png"/>
<image preserveAspectRatio="none" x="496" y="314" width="21" height="21" xlink:href="img/30.png"/>
<image clip-path="url(#cj)" preserveAspectRatio="none" x="629" y="314" width="21" height="21" xlink:href="img/31.png"/>
<image preserveAspectRatio="none" x="762" y="314" width="22" height="21" xlink:href="img/32.png"/>
<image preserveAspectRatio="none" x="895" y="314" width="22" height="21" xlink:href="img/33.png"/>
<image preserveAspectRatio="none" x="1028" y="314" width="22" height="21" xlink:href="img/34.png"/>
<image preserveAspectRatio="none" x="1161" y="314" width="22" height="21" xlink:href="img/35.png"/>
<image clip-path="url(#ck)" preserveAspectRatio="none" x="363" y="381" width="21" height="22" xlink:href="img/36.png"/>
<image clip-path="url(#cl)" preserveAspectRatio="none" x="496" y="381" width="21" height="22" xlink:href="img/37.png"/>
<image clip-path="url(#cm)" preserveAspectRatio="none" x="629" y="381" width="21" height="22" xlink:href="img/38.png"/>
<image clip-path="url(#cn)" preserveAspectRatio="none" x="762" y="381" width="22" height="22" xlink:href="img/39.png"/>
<image clip-path="url(#co)" preserveAspectRatio="none" x="895" y="381" width="22" height="22" xlink:href="img/40.png"/>
<image clip-path="url(#cp)" preserveAspectRatio="none" x="1028" y="381" width="22" height="22" xlink:href="img/41.png"/>
<image clip-path="url(#cq)" preserveAspectRatio="none" x="1161" y="381" width="22" height="22" xlink:href="img/42.png"/>
</svg>