<?xml version="1.0" encoding="UTF-8" standalone="no"?>
<!DOCTYPE svg PUBLIC "-//W3C//DTD SVG 1.1//EN"
"http://www.w3.org/Graphics/SVG/1.1/DTD/svg11.dtd">
<svg viewBox="0 0 1286 909" version="1.1" xmlns="http://www.w3.org/2000/svg" xmlns:xlink="http://www.w3.org/1999/xlink">
<defs>
<style type="text/css"><![CDATA[
.g0{
}
.g1{
fill: #D9D9D9;
}
]]></style>
</defs>
<path d="M47.1,44h.7v-.7h-.7V44Z" class="g0"/>
<path d="M47.1,44h.7v-.7h-.7V44Z" class="g0"/>
<path d="M47.8,44h75.4v-.7H47.8V44Z" class="g0"/>
<path d="M123.2,44h.7v-.7h-.7V44Z" class="g0"/>
<path d="M123.9,44H923.8v-.7H123.9V44Z" class="g0"/>
<path d="M923.8,44h.7v-.7h-.7V44Z" class="g0"/>
<path d="M924.5,44h313.7v-.7H924.5V44Z" class="g0"/>
<path d="M1238.2,44h.8v-.7h-.8V44Z" class="g0"/>
<path d="M1238.2,44h.8v-.7h-.8V44Z" class="g0"/>
<path d="M47.1,79.2h.7V44h-.7V79.2Z" class="g0"/>
<path d="M123.2,79.2h.7V44h-.7V79.2Z" class="g0"/>
<path d="M923.8,79.2h.7V44h-.7V79.2Z" class="g0"/>
<path d="M1238.2,79.2h.8V44h-.8V79.2Z" class="g0"/>
<path d="M47.1,79.9h.7v-.7h-.7v.7Z" class="g0"/>
<path d="M47.8,79.9h75.4v-.7H47.8v.7Z" class="g0"/>
<path d="M123.2,79.9h.7v-.7h-.7v.7Z" class="g0"/>
<path d="M123.9,79.9H923.8v-.7H123.9v.7Z" class="g0"/>
<path d="M923.8,79.9h.7v-.7h-.7v.7Z" class="g0"/>
<path d="M924.5,79.9h313.7v-.7H924.5v.7Z" class="g0"/>
<path d="M1238.2,79.9h.8v-.7h-.8v.7Z" class="g0"/>
<path d="M47.1,101.8h.7V79.9h-.7v21.9Z" class="g0"/>
<path d="M123.2,101.8h.7V79.9h-.7v21.9Z" class="g0"/>
<path d="M923.8,101.8h.7V79.9h-.7v21.9Z" class="g0"/>
<path d="M1238.2,101.8h.8V79.9h-.8v21.9Z" class="g0"/>
<path d="M47.1,102.5h.7v-.8h-.7v.8Z" class="g0"/>
<path d="M47.8,102.5h75.4v-.8H47.8v.8Z" class="g0"/>
<path d="M123.2,102.5h.7v-.8h-.7v.8Z" class="g0"/>
<path d="M123.9,102.5H923.8v-.8H123.9v.8Z" class="g0"/>
<path d="M923.8,102.5h.7v-.8h-.7v.8Z" class="g0"/>
<path d="M924.5,102.5h313.7v-.8H924.5v.8Z" class="g0"/>
<path d="M1238.2,102.5h.8v-.8h-.8v.8Z" class="g0"/>
<path d="M47.1,137.5h.7v-35h-.7v35Z" class="g0"/>
<path d="M123.2,137.5h.7v-35h-.7v35Z" class="g0"/>
<path d="M923.8,137.5h.7v-35h-.7v35Z" class="g0"/>
<path d="M1238.2,137.5h.8v-35h-.8v35Z" class="g0"/>
<path d="M47.1,138.2h.7v-.7h-.7v.7Z" class="g0"/>
<path d="M47.8,138.2h75.4v-.7H47.8v.7Z" class="g0"/>
<path d="M123.2,138.2h.7v-.7h-.7v.7Z" class="g0"/>
<path d="M123.9,138.2H923.8v-.7H123.9v.7Z" class="g0"/>
<path d="M923.8,138.2h.7v-.7h-.7v.7Z" class="g0"/>
<path d="M924.5,138.2h313.7v-.7H924.5v.7Z" class="g0"/>
<path d="M1238.2,138.2h.8v-.7h-.8v.7Z" class="g0"/>
<path d="M47.1,160.1h.7V138.2h-.7v21.9Z" class="g0"/>
<path d="M123.2,160.1h.7V138.2h-.7v21.9Z" class="g0"/>
<path d="M923.8,160.1h.7V138.2h-.7v21.9Z" class="g0"/>
<path d="M1238.2,160.1h.8V138.2h-.8v21.9Z" class="g0"/>
<path d="M47.1,160.8h.7V160h-.7v.8Z" class="g0"/>
<path d="M47.8,160.8h75.4V160H47.8v.8Z" class="g0"/>
<path d="M123.2,160.8h.7V160h-.7v.8Z" class="g0"/>
<path d="M123.9,160.8H923.8V160H123.9v.8Z" class="g0"/>
<path d="M923.8,160.8h.7V160h-.7v.8Z" class="g0"/>
<path d="M924.5,160.8h313.7V160H924.5v.8Z" class="g0"/>
<path d="M1238.2,160.8h.8V160h-.8v.8Z" class="g0"/>
<path d="M47.1,182.4h.7V160.8h-.7v21.6Z" class="g0"/>
<path d="M123.2,182.4h.7V160.8h-.7v21.6Z" class="g0"/>
<path d="M923.8,182.4h.7V160.8h-.7v21.6Z" class="g0"/>
<path d="M1238.2,182.4h.8V160.8h-.8v21.6Z" class="g0"/>
<path d="M47.1,183.2h.7v-.8h-.7v.8Z" class="g0"/>
<path d="M47.8,183.2h75.4v-.8H47.8v.8Z" class="g0"/>
<path d="M123.2,183.2h.7v-.8h-.7v.8Z" class="g0"/>
<path d="M123.9,183.2H923.8v-.8H123.9v.8Z" class="g0"/>
<path d="M923.8,183.2h.7v-.8h-.7v.8Z" class="g0"/>
<path d="M924.5,183.2h313.7v-.8H924.5v.8Z" class="g0"/>
<path d="M1238.2,183.2h.8v-.8h-.8v.8Z" class="g0"/>
<path d="M47.1,205h.7V183.2h-.7V205Z" class="g0"/>
<path d="M123.2,205h.7V183.2h-.7V205Z" class="g0"/>
<path d="M923.8,205h.7V183.2h-.7V205Z" class="g0"/>
<path d="M1238.2,205h.8V183.2h-.8V205Z" class="g0"/>
<path d="M47.1,205.7h.7V205h-.7v.7Z" class="g0"/>
<path d="M47.8,205.7h75.4V205H47.8v.7Z" class="g0"/>
<path d="M123.2,205.7h.7V205h-.7v.7Z" class="g0"/>
<path d="M123.9,205.7H923.8V205H123.9v.7Z" class="g0"/>
<path d="M923.8,205.7h.7V205h-.7v.7Z" class="g0"/>
<path d="M924.5,205.7h313.7V205H924.5v.7Z" class="g0"/>
<path d="M1238.2,205.7h.8V205h-.8v.7Z" class="g0"/>
<path d="M47.1,240.9h.7V205.7h-.7v35.2Z" class="g0"/>
<path d="M123.2,240.9h.7V205.7h-.7v35.2Z" class="g0"/>
<path d="M923.8,240.9h.7V205.7h-.7v35.2Z" class="g0"/>
<path d="M1238.2,240.9h.8V205.7h-.8v35.2Z" class="g0"/>
<path d="M47.1,241.6h.7v-.7h-.7v.7Z" class="g0"/>
<path d="M47.8,241.6h75.4v-.7H47.8v.7Z" class="g0"/>
<path d="M123.2,241.6h.7v-.7h-.7v.7Z" class="g0"/>
<path d="M123.9,241.6H923.8v-.7H123.9v.7Z" class="g0"/>
<path d="M923.8,241.6h.7v-.7h-.7v.7Z" class="g0"/>
<path d="M924.5,241.6h313.7v-.7H924.5v.7Z" class="g0"/>
<path d="M1238.2,241.6h.8v-.7h-.8v.7Z" class="g0"/>
<path d="M47.1,263.3h.7V241.6h-.7v21.7Z" class="g0"/>
<path d="M123.2,263.3h.7V241.6h-.7v21.7Z" class="g0"/>
<path d="M923.8,263.3h.7V241.6h-.7v21.7Z" class="g0"/>
<path d="M1238.2,263.3h.8V241.6h-.8v21.7Z" class="g0"/>
<path d="M47.1,264h.7v-.7h-.7v.7Z" class="g0"/>
<path d="M47.8,264h75.4v-.7H47.8v.7Z" class="g0"/>
<path d="M123.2,264h.7v-.7h-.7v.7Z" class="g0"/>
<path d="M123.9,264H923.8v-.7H123.9v.7Z" class="g0"/>
<path d="M923.8,264h.7v-.7h-.7v.7Z" class="g0"/>
<path d="M924.5,264h313.7v-.7H924.5v.7Z" class="g0"/>
<path d="M1238.2,264h.8v-.7h-.8v.7Z" class="g0"/>
<path d="M47.1,285.8h.7V264h-.7v21.8Z" class="g0"/>
<path d="M123.2,285.8h.7V264h-.7v21.8Z" class="g0"/>
<path d="M923.8,285.8h.7V264h-.7v21.8Z" class="g0"/>
<path d="M1238.2,285.8h.8V264h-.8v21.8Z" class="g0"/>
<path d="M47.1,286.5h.7v-.7h-.7v.7Z" class="g0"/>
<path d="M47.8,286.5h75.4v-.7H47.8v.7Z" class="g0"/>
<path d="M123.2,286.5h.7v-.7h-.7v.7Z" class="g0"/>
<path d="M123.9,286.5H923.8v-.7H123.9v.7Z" class="g0"/>
<path d="M923.8,286.5h.7v-.7h-.7v.7Z" class="g0"/>
<path d="M924.5,286.5h313.7v-.7H924.5v.7Z" class="g0"/>
<path d="M1238.2,286.5h.8v-.7h-.8v.7Z" class="g0"/>
<path d="M47.1,308.2h.7V286.5h-.7v21.7Z" class="g0"/>
<path d="M123.2,308.2h.7V286.5h-.7v21.7Z" class="g0"/>
<path d="M923.8,308.2h.7V286.5h-.7v21.7Z" class="g0"/>
<path d="M1238.2,308.2h.8V286.5h-.8v21.7Z" class="g0"/>
<path d="M47.1,308.9h.7v-.7h-.7v.7Z" class="g0"/>
<path d="M47.8,308.9h75.4v-.7H47.8v.7Z" class="g0"/>
<path d="M123.2,308.9h.7v-.7h-.7v.7Z" class="g0"/>
<path d="M123.9,308.9H923.8v-.7H123.9v.7Z" class="g0"/>
<path d="M923.8,308.9h.7v-.7h-.7v.7Z" class="g0"/>
<path d="M924.5,308.9h313.7v-.7H924.5v.7Z" class="g0"/>
<path d="M1238.2,308.9h.8v-.7h-.8v.7Z" class="g0"/>
<path d="M47.1,330.7h.7V308.9h-.7v21.8Z" class="g0"/>
<path d="M123.2,330.7h.7V308.9h-.7v21.8Z" class="g0"/>
<path d="M923.8,330.7h.7V308.9h-.7v21.8Z" class="g0"/>
<path d="M1238.2,330.7h.8V308.9h-.8v21.8Z" class="g0"/>
<path d="M47.1,331.5h.7v-.8h-.7v.8Z" class="g0"/>
<path d="M47.8,331.5h75.4v-.8H47.8v.8Z" class="g0"/>
<path d="M123.2,331.5h.7v-.8h-.7v.8Z" class="g0"/>
<path d="M123.9,331.5H923.8v-.8H123.9v.8Z" class="g0"/>
<path d="M923.8,331.5h.7v-.8h-.7v.8Z" class="g0"/>
<path d="M924.5,331.5h313.7v-.8H924.5v.8Z" class="g0"/>
<path d="M1238.2,331.5h.8v-.8h-.8v.8Z" class="g0"/>
<path d="M47.1,353.1h.7V331.5h-.7v21.6Z" class="g0"/>
<path d="M123.2,353.1h.7V331.5h-.7v21.6Z" class="g0"/>
<path d="M923.8,353.1h.7V331.5h-.7v21.6Z" class="g0"/>
<path d="M1238.2,353.1h.8V331.5h-.8v21.6Z" class="g0"/>
<path d="M47.1,353.8h.7v-.7h-.7v.7Z" class="g0"/>
<path d="M47.8,353.8h75.4v-.7H47.8v.7Z" class="g0"/>
<path d="M123.2,353.8h.7v-.7h-.7v.7Z" class="g0"/>
<path d="M123.9,353.8H923.8v-.7H123.9v.7Z" class="g0"/>
<path d="M923.8,353.8h.7v-.7h-.7v.7Z" class="g0"/>
<path d="M924.5,353.8h313.7v-.7H924.5v.7Z" class="g0"/>
<path d="M1238.2,353.8h.8v-.7h-.8v.7Z" class="g0"/>
<path d="M47.1,375.7h.7V353.8h-.7v21.9Z" class="g0"/>
<path d="M123.2,375.7h.7V353.8h-.7v21.9Z" class="g0"/>
<path d="M923.8,375.7h.7V353.8h-.7v21.9Z" class="g0"/>
<path d="M1238.2,375.7h.8V353.8h-.8v21.9Z" class="g0"/>
<path d="M47.1,376.4h.7v-.8h-.7v.8Z" class="g0"/>
<path d="M47.8,376.4h75.4v-.8H47.8v.8Z" class="g0"/>
<path d="M123.2,376.4h.7v-.8h-.7v.8Z" class="g0"/>
<path d="M123.9,376.4H923.8v-.8H123.9v.8Z" class="g0"/>
<path d="M923.8,376.4h.7v-.8h-.7v.8Z" class="g0"/>
<path d="M924.5,376.4h313.7v-.8H924.5v.8Z" class="g0"/>
<path d="M1238.2,376.4h.8v-.8h-.8v.8Z" class="g0"/>
<path d="M47.1,398h.7V376.4h-.7V398Z" class="g0"/>
<path d="M123.2,398h.7V376.4h-.7V398Z" class="g0"/>
<path d="M923.8,398h.7V376.4h-.7V398Z" class="g0"/>
<path d="M1238.2,398h.8V376.4h-.8V398Z" class="g0"/>
<path d="M47.1,398.8h.7V398h-.7v.8Z" class="g0"/>
<path d="M47.8,398.8h75.4V398H47.8v.8Z" class="g0"/>
<path d="M123.2,398.8h.7V398h-.7v.8Z" class="g0"/>
<path d="M123.9,398.8H923.8V398H123.9v.8Z" class="g0"/>
<path d="M923.8,398.8h.7V398h-.7v.8Z" class="g0"/>
<path d="M924.5,398.8h313.7V398H924.5v.8Z" class="g0"/>
<path d="M1238.2,398.8h.8V398h-.8v.8Z" class="g0"/>
<path d="M47.1,420.6h.7V398.8h-.7v21.8Z" class="g0"/>
<path d="M123.2,420.6h.7V398.8h-.7v21.8Z" class="g0"/>
<path d="M923.8,420.6h.7V398.8h-.7v21.8Z" class="g0"/>
<path d="M1238.2,420.6h.8V398.8h-.8v21.8Z" class="g0"/>
<path d="M47.1,421.3h.7v-.7h-.7v.7Z" class="g0"/>
<path d="M47.8,421.3h75.4v-.7H47.8v.7Z" class="g0"/>
<path d="M123.2,421.3h.7v-.7h-.7v.7Z" class="g0"/>
<path d="M123.9,421.3H923.8v-.7H123.9v.7Z" class="g0"/>
<path d="M923.8,421.3h.7v-.7h-.7v.7Z" class="g0"/>
<path d="M924.5,421.3h313.7v-.7H924.5v.7Z" class="g0"/>
<path d="M1238.2,421.3h.8v-.7h-.8v.7Z" class="g0"/>
<path d="M47.1,442.9h.7V421.3h-.7v21.6Z" class="g0"/>
<path d="M123.2,442.9h.7V421.3h-.7v21.6Z" class="g0"/>
<path d="M923.8,442.9h.7V421.3h-.7v21.6Z" class="g0"/>
<path d="M1238.2,442.9h.8V421.3h-.8v21.6Z" class="g0"/>
<path d="M47.1,443.7h.7v-.8h-.7v.8Z" class="g0"/>
<path d="M47.8,443.7h75.4v-.8H47.8v.8Z" class="g0"/>
<path d="M123.2,443.7h.7v-.8h-.7v.8Z" class="g0"/>
<path d="M123.9,443.7H923.8v-.8H123.9v.8Z" class="g0"/>
<path d="M923.8,443.7h.7v-.8h-.7v.8Z" class="g0"/>
<path d="M924.5,443.7h313.7v-.8H924.5v.8Z" class="g0"/>
<path d="M1238.2,443.7h.8v-.8h-.8v.8Z" class="g0"/>
<path d="M47.1,465.5h.7V443.7h-.7v21.8Z" class="g0"/>
<path d="M123.2,465.5h.7V443.7h-.7v21.8Z" class="g0"/>
<path d="M923.8,465.5h.7V443.7h-.7v21.8Z" class="g0"/>
<path d="M1238.2,465.5h.8V443.7h-.8v21.8Z" class="g0"/>
<path d="M47.1,466.2h.7v-.7h-.7v.7Z" class="g0"/>
<path d="M47.8,466.2h75.4v-.7H47.8v.7Z" class="g0"/>
<path d="M123.2,466.2h.7v-.7h-.7v.7Z" class="g0"/>
<path d="M123.9,466.2H923.8v-.7H123.9v.7Z" class="g0"/>
<path d="M923.8,466.2h.7v-.7h-.7v.7Z" class="g0"/>
<path d="M924.5,466.2h313.7v-.7H924.5v.7Z" class="g0"/>
<path d="M1238.2,466.2h.8v-.7h-.8v.7Z" class="g0"/>
<path d="M47.1,487.9h.7V466.2h-.7v21.7Z" class="g0"/>
<path d="M47.1,488.6h.7v-.8h-.7v.8Z" class="g0"/>
<path d="M47.1,488.6h.7v-.8h-.7v.8Z" class="g0"/>
<path d="M47.8,488.6h75.4v-.8H47.8v.8Z" class="g0"/>
<path d="M123.2,487.9h.7V466.2h-.7v21.7Z" class="g0"/>
<path d="M123.2,488.6h.7v-.8h-.7v.8Z" class="g0"/>
<path d="M123.9,488.6H923.8v-.8H123.9v.8Z" class="g0"/>
<path d="M923.8,487.9h.7V466.2h-.7v21.7Z" class="g0"/>
<path d="M923.8,488.6h.7v-.8h-.7v.8Z" class="g0"/>
<path d="M924.5,488.6h313.7v-.8H924.5v.8Z" class="g0"/>
<path d="M1238.2,487.9h.8V466.2h-.8v21.7Z" class="g0"/>
<path d="M1238.2,488.6h.8v-.8h-.8v.8Z" class="g0"/>
<path d="M1238.2,488.6h.8v-.8h-.8v.8Z" class="g0"/>
<path fill-rule="evenodd" d="M47.8,525.3h876V503.6H47.8v21.7Z" class="g1"/>
<path fill-rule="evenodd" d="M55.7,523.2H915.9V505.6H55.7v17.6Z" class="g1"/>
<path fill-rule="evenodd" d="M924.7,525.3h313.5V503.6H924.7v21.7Z" class="g1"/>
<path fill-rule="evenodd" d="M932.4,523.2h298V505.6h-298v17.6Z" class="g1"/>
<path d="M47.1,503.4h.7v-.7h-.7v.7Z" class="g0"/>
<path d="M47.1,503.4h.7v-.7h-.7v.7Z" class="g0"/>
<path d="M47.8,503.4h876v-.7H47.8v.7Z" class="g0"/>
<path d="M923.8,503.4h.7v-.7h-.7v.7Z" class="g0"/>
<path d="M924.5,503.4h313.7v-.7H924.5v.7Z" class="g0"/>
<path d="M1238.2,503.4h.8v-.7h-.8v.7Z" class="g0"/>
<path d="M1238.2,503.4h.8v-.7h-.8v.7Z" class="g0"/>
<path d="M47.1,525.3h.7V503.4h-.7v21.9Z" class="g0"/>
<path d="M923.8,525.3h.7V503.4h-.7v21.9Z" class="g0"/>
<path d="M1238.2,525.3h.8V503.4h-.8v21.9Z" class="g0"/>
<path fill-rule="evenodd" d="M47.8,547.6h75.4V526H47.8v21.6Z" class="g1"/>
<path fill-rule="evenodd" d="M55.7,545.6h59.6V528H55.7v17.6Z" class="g1"/>
<path fill-rule="evenodd" d="M123.9,547.6H923.8V526H123.9v21.6Z" class="g1"/>
<path fill-rule="evenodd" d="M131.8,545.6H915.9V528H131.8v17.6Z" class="g1"/>
<path fill-rule="evenodd" d="M924.7,547.6h313.5V526H924.7v21.6Z" class="g1"/>
<path fill-rule="evenodd" d="M932.4,545.6h298V528h-298v17.6Z" class="g1"/>
<path d="M47.1,526h.7v-.8h-.7v.8Z" class="g0"/>
<path d="M47.8,526h75.4v-.8H47.8v.8Z" class="g0"/>
<path d="M123.2,526h.7v-.8h-.7v.8Z" class="g0"/>
<path d="M123.9,526H923.8v-.8H123.9v.8Z" class="g0"/>
<path d="M923.8,526h.7v-.8h-.7v.8Z" class="g0"/>
<path d="M924.5,526h313.7v-.8H924.5v.8Z" class="g0"/>
<path d="M1238.2,526h.8v-.8h-.8v.8Z" class="g0"/>
<path d="M47.1,547.6h.7V526h-.7v21.6Z" class="g0"/>
<path d="M123.2,547.6h.7V526h-.7v21.6Z" class="g0"/>
<path d="M923.8,547.6h.7V526h-.7v21.6Z" class="g0"/>
<path d="M1238.2,547.6h.8V526h-.8v21.6Z" class="g0"/>
<path d="M47.1,548.4h.7v-.8h-.7v.8Z" class="g0"/>
<path d="M47.8,548.4h75.4v-.8H47.8v.8Z" class="g0"/>
<path d="M123.2,548.4h.7v-.8h-.7v.8Z" class="g0"/>
<path d="M123.9,548.4H923.8v-.8H123.9v.8Z" class="g0"/>
<path d="M923.8,548.4h.7v-.8h-.7v.8Z" class="g0"/>
<path d="M924.5,548.4h313.7v-.8H924.5v.8Z" class="g0"/>
<path d="M1238.2,548.4h.8v-.8h-.8v.8Z" class="g0"/>
<path d="M47.1,570.2h.7V548.4h-.7v21.8Z" class="g0"/>
<path d="M123.2,570.2h.7V548.4h-.7v21.8Z" class="g0"/>
<path d="M923.8,570.2h.7V548.4h-.7v21.8Z" class="g0"/>
<path d="M1238.2,570.2h.8V548.4h-.8v21.8Z" class="g0"/>
<path d="M47.1,570.9h.7v-.7h-.7v.7Z" class="g0"/>
<path d="M47.8,570.9h75.4v-.7H47.8v.7Z" class="g0"/>
<path d="M123.2,570.9h.7v-.7h-.7v.7Z" class="g0"/>
<path d="M123.9,570.9H923.8v-.7H123.9v.7Z" class="g0"/>
<path d="M923.8,570.9h.7v-.7h-.7v.7Z" class="g0"/>
<path d="M924.5,570.9h313.7v-.7H924.5v.7Z" class="g0"/>
<path d="M1238.2,570.9h.8v-.7h-.8v.7Z" class="g0"/>
<path d="M47.1,592.5h.7V570.9h-.7v21.6Z" class="g0"/>
<path d="M123.2,592.5h.7V570.9h-.7v21.6Z" class="g0"/>
<path d="M923.8,592.5h.7V570.9h-.7v21.6Z" class="g0"/>
<path d="M1238.2,592.5h.8V570.9h-.8v21.6Z" class="g0"/>
<path d="M47.1,593.3h.7v-.8h-.7v.8Z" class="g0"/>
<path d="M47.8,593.3h75.4v-.8H47.8v.8Z" class="g0"/>
<path d="M123.2,593.3h.7v-.8h-.7v.8Z" class="g0"/>
<path d="M123.9,593.3H923.8v-.8H123.9v.8Z" class="g0"/>
<path d="M923.8,593.3h.7v-.8h-.7v.8Z" class="g0"/>
<path d="M924.5,593.3h313.7v-.8H924.5v.8Z" class="g0"/>
<path d="M1238.2,593.3h.8v-.8h-.8v.8Z" class="g0"/>
<path d="M47.1,615.1h.7V593.3h-.7v21.8Z" class="g0"/>
<path d="M123.2,615.1h.7V593.3h-.7v21.8Z" class="g0"/>
<path d="M923.8,615.1h.7V593.3h-.7v21.8Z" class="g0"/>
<path d="M1238.2,615.1h.8V593.3h-.8v21.8Z" class="g0"/>
<path d="M47.1,615.8h.7v-.7h-.7v.7Z" class="g0"/>
<path d="M47.8,615.8h75.4v-.7H47.8v.7Z" class="g0"/>
<path d="M123.2,615.8h.7v-.7h-.7v.7Z" class="g0"/>
<path d="M123.9,615.8H923.8v-.7H123.9v.7Z" class="g0"/>
<path d="M923.8,615.8h.7v-.7h-.7v.7Z" class="g0"/>
<path d="M924.5,615.8h313.7v-.7H924.5v.7Z" class="g0"/>
<path d="M1238.2,615.8h.8v-.7h-.8v.7Z" class="g0"/>
<path d="M47.1,637.5h.7V615.8h-.7v21.7Z" class="g0"/>
<path d="M123.2,637.5h.7V615.8h-.7v21.7Z" class="g0"/>
<path d="M923.8,637.5h.7V615.8h-.7v21.7Z" class="g0"/>
<path d="M1238.2,637.5h.8V615.8h-.8v21.7Z" class="g0"/>
<path d="M47.1,638.2h.7v-.8h-.7v.8Z" class="g0"/>
<path d="M47.8,638.2h75.4v-.8H47.8v.8Z" class="g0"/>
<path d="M123.2,638.2h.7v-.8h-.7v.8Z" class="g0"/>
<path d="M123.9,638.2H923.8v-.8H123.9v.8Z" class="g0"/>
<path d="M923.8,638.2h.7v-.8h-.7v.8Z" class="g0"/>
<path d="M924.5,638.2h313.7v-.8H924.5v.8Z" class="g0"/>
<path d="M1238.2,638.2h.8v-.8h-.8v.8Z" class="g0"/>
<path d="M47.1,660h.7V638.2h-.7V660Z" class="g0"/>
<path d="M123.2,660h.7V638.2h-.7V660Z" class="g0"/>
<path d="M923.8,660h.7V638.2h-.7V660Z" class="g0"/>
<path d="M1238.2,660h.8V638.2h-.8V660Z" class="g0"/>
<path d="M47.1,660.7h.7V660h-.7v.7Z" class="g0"/>
<path d="M47.8,660.7h75.4V660H47.8v.7Z" class="g0"/>
<path d="M123.2,660.7h.7V660h-.7v.7Z" class="g0"/>
<path d="M123.9,660.7H923.8V660H123.9v.7Z" class="g0"/>
<path d="M923.8,660.7h.7V660h-.7v.7Z" class="g0"/>
<path d="M924.5,660.7h313.7V660H924.5v.7Z" class="g0"/>
<path d="M1238.2,660.7h.8V660h-.8v.7Z" class="g0"/>
<path d="M47.1,682.4h.7V660.7h-.7v21.7Z" class="g0"/>
<path d="M123.2,682.4h.7V660.7h-.7v21.7Z" class="g0"/>
<path d="M923.8,682.4h.7V660.7h-.7v21.7Z" class="g0"/>
<path d="M1238.2,682.4h.8V660.7h-.8v21.7Z" class="g0"/>
<path d="M47.1,683.1h.7v-.7h-.7v.7Z" class="g0"/>
<path d="M47.8,683.1h75.4v-.7H47.8v.7Z" class="g0"/>
<path d="M123.2,683.1h.7v-.7h-.7v.7Z" class="g0"/>
<path d="M123.9,683.1H923.8v-.7H123.9v.7Z" class="g0"/>
<path d="M923.8,683.1h.7v-.7h-.7v.7Z" class="g0"/>
<path d="M924.5,683.1h313.7v-.7H924.5v.7Z" class="g0"/>
<path d="M1238.2,683.1h.8v-.7h-.8v.7Z" class="g0"/>
<path d="M47.1,704.9h.7V683.1h-.7v21.8Z" class="g0"/>
<path d="M47.1,705.7h.7v-.8h-.7v.8Z" class="g0"/>
<path d="M47.1,705.7h.7v-.8h-.7v.8Z" class="g0"/>
<path d="M47.8,705.7h75.4v-.8H47.8v.8Z" class="g0"/>
<path d="M123.2,704.9h.7V683.1h-.7v21.8Z" class="g0"/>
<path d="M123.2,705.7h.7v-.8h-.7v.8Z" class="g0"/>
<path d="M123.9,705.7H923.8v-.8H123.9v.8Z" class="g0"/>
<path d="M923.8,704.9h.7V683.1h-.7v21.8Z" class="g0"/>
<path d="M923.8,705.7h.7v-.8h-.7v.8Z" class="g0"/>
<path d="M924.5,705.7h313.7v-.8H924.5v.8Z" class="g0"/>
<path d="M1238.2,704.9h.8V683.1h-.8v21.8Z" class="g0"/>
<path d="M1238.2,705.7h.8v-.8h-.8v.8Z" class="g0"/>
<path d="M1238.2,705.7h.8v-.8h-.8v.8Z" class="g0"/>
</svg>