<?xml version="1.0" encoding="UTF-8" standalone="no"?>
<!DOCTYPE svg PUBLIC "-//W3C//DTD SVG 1.1//EN"
"http://www.w3.org/Graphics/SVG/1.1/DTD/svg11.dtd">
<svg viewBox="0 0 1286 909" version="1.1" xmlns="http://www.w3.org/2000/svg" xmlns:xlink="http://www.w3.org/1999/xlink">
<defs>
<style type="text/css"><![CDATA[
.g0{
fill: #D9D9D9;
}
.g1{
}
]]></style>
</defs>
<path fill-rule="evenodd" d="M47.8,65.8H155.1V44H47.8V65.8Z" class="g0"/>
<path fill-rule="evenodd" d="M55.7,63.6h91.5V46.2H55.7V63.6Z" class="g0"/>
<path fill-rule="evenodd" d="M155.8,65.8h205V44h-205V65.8Z" class="g0"/>
<path fill-rule="evenodd" d="M163.7,63.6H352.9V46.2H163.7V63.6Z" class="g0"/>
<path fill-rule="evenodd" d="M361.5,65.8H772.4V44H361.5V65.8Z" class="g0"/>
<path fill-rule="evenodd" d="M369.4,63.6H764.5V46.2H369.4V63.6Z" class="g0"/>
<path fill-rule="evenodd" d="M773.1,65.8h465.1V44H773.1V65.8Z" class="g0"/>
<path fill-rule="evenodd" d="M781,63.6h449.4V46.2H781V63.6Z" class="g0"/>
<path d="M47.1,44h.7v-.7h-.7V44Z" class="g1"/>
<path d="M47.1,44h.7v-.7h-.7V44Z" class="g1"/>
<path d="M47.8,44H155.1v-.7H47.8V44Z" class="g1"/>
<path d="M155.1,44h.7v-.7h-.7V44Z" class="g1"/>
<path d="M155.8,44h205v-.7h-205V44Z" class="g1"/>
<path d="M360.8,44h.7v-.7h-.7V44Z" class="g1"/>
<path d="M361.5,44H772.4v-.7H361.5V44Z" class="g1"/>
<path d="M772.4,44h.7v-.7h-.7V44Z" class="g1"/>
<path d="M773.1,44h465.1v-.7H773.1V44Z" class="g1"/>
<path d="M1238.2,44h.8v-.7h-.8V44Z" class="g1"/>
<path d="M1238.2,44h.8v-.7h-.8V44Z" class="g1"/>
<path d="M47.1,65.8h.7V44h-.7V65.8Z" class="g1"/>
<path d="M155.1,65.8h.7V44h-.7V65.8Z" class="g1"/>
<path d="M360.8,65.8h.7V44h-.7V65.8Z" class="g1"/>
<path d="M772.4,65.8h.7V44h-.7V65.8Z" class="g1"/>
<path d="M1238.2,65.8h.8V44h-.8V65.8Z" class="g1"/>
<path d="M47.1,66.5h.7v-.7h-.7v.7Z" class="g1"/>
<path d="M47.8,66.5H155.1v-.7H47.8v.7Z" class="g1"/>
<path d="M155.1,66.5h.7v-.7h-.7v.7Z" class="g1"/>
<path d="M155.8,66.5h205v-.7h-205v.7Z" class="g1"/>
<path d="M360.8,66.5h.7v-.7h-.7v.7Z" class="g1"/>
<path d="M361.5,66.5H772.4v-.7H361.5v.7Z" class="g1"/>
<path d="M772.4,66.5h.7v-.7h-.7v.7Z" class="g1"/>
<path d="M773.1,66.5h465.1v-.7H773.1v.7Z" class="g1"/>
<path d="M1238.2,66.5h.8v-.7h-.8v.7Z" class="g1"/>
<path d="M47.1,88.2h.7V66.5h-.7V88.2Z" class="g1"/>
<path d="M155.1,88.2h.7V66.5h-.7V88.2Z" class="g1"/>
<path d="M360.8,88.2h.7V66.5h-.7V88.2Z" class="g1"/>
<path d="M772.4,88.2h.7V66.5h-.7V88.2Z" class="g1"/>
<path d="M1238.2,88.2h.8V66.5h-.8V88.2Z" class="g1"/>
<path d="M47.1,88.9h.7v-.7h-.7v.7Z" class="g1"/>
<path d="M155.1,88.9h.7v-.7h-.7v.7Z" class="g1"/>
<path d="M360.8,88.9h.7v-.7h-.7v.7Z" class="g1"/>
<path d="M772.4,88.9h.7v-.7h-.7v.7Z" class="g1"/>
<path d="M773.1,88.9h465.1v-.7H773.1v.7Z" class="g1"/>
<path d="M1238.2,88.9h.8v-.7h-.8v.7Z" class="g1"/>
<path d="M47.1,176.9h.7v-88h-.7v88Z" class="g1"/>
<path d="M155.1,176.9h.7v-88h-.7v88Z" class="g1"/>
<path d="M360.8,176.9h.7v-88h-.7v88Z" class="g1"/>
<path d="M772.4,176.9h.7v-88h-.7v88Z" class="g1"/>
<path d="M1238.2,176.9h.8v-88h-.8v88Z" class="g1"/>
<path d="M47.1,177.6h.7v-.7h-.7v.7Z" class="g1"/>
<path d="M155.1,177.6h.7v-.7h-.7v.7Z" class="g1"/>
<path d="M360.8,177.6h.7v-.7h-.7v.7Z" class="g1"/>
<path d="M772.4,177.6h.7v-.7h-.7v.7Z" class="g1"/>
<path d="M773.1,177.6h465.1v-.7H773.1v.7Z" class="g1"/>
<path d="M1238.2,177.6h.8v-.7h-.8v.7Z" class="g1"/>
<path d="M47.1,265.5h.7V177.6h-.7v87.9Z" class="g1"/>
<path d="M155.1,265.5h.7V177.6h-.7v87.9Z" class="g1"/>
<path d="M360.8,265.5h.7V177.6h-.7v87.9Z" class="g1"/>
<path d="M772.4,265.5h.7V177.6h-.7v87.9Z" class="g1"/>
<path d="M1238.2,265.5h.8V177.6h-.8v87.9Z" class="g1"/>
<path d="M47.1,266.2h.7v-.7h-.7v.7Z" class="g1"/>
<path d="M47.8,266.2H155.1v-.7H47.8v.7Z" class="g1"/>
<path d="M155.1,266.2h.7v-.7h-.7v.7Z" class="g1"/>
<path d="M155.8,266.2h205v-.7h-205v.7Z" class="g1"/>
<path d="M360.8,266.2h.7v-.7h-.7v.7Z" class="g1"/>
<path d="M361.5,266.2H772.4v-.7H361.5v.7Z" class="g1"/>
<path d="M772.4,266.2h.7v-.7h-.7v.7Z" class="g1"/>
<path d="M773.1,266.2h465.1v-.7H773.1v.7Z" class="g1"/>
<path d="M1238.2,266.2h.8v-.7h-.8v.7Z" class="g1"/>
<path d="M47.1,345.6h.7V266.2h-.7v79.4Z" class="g1"/>
<path d="M155.1,345.6h.7V266.2h-.7v79.4Z" class="g1"/>
<path d="M360.8,345.6h.7V266.2h-.7v79.4Z" class="g1"/>
<path d="M772.4,345.6h.7V266.2h-.7v79.4Z" class="g1"/>
<path d="M1238.2,345.6h.8V266.2h-.8v79.4Z" class="g1"/>
<path d="M47.1,346.3h.7v-.7h-.7v.7Z" class="g1"/>
<path d="M155.1,346.3h.7v-.7h-.7v.7Z" class="g1"/>
<path d="M360.8,346.3h.7v-.7h-.7v.7Z" class="g1"/>
<path d="M772.4,346.3h.7v-.7h-.7v.7Z" class="g1"/>
<path d="M773.1,346.3h465.1v-.7H773.1v.7Z" class="g1"/>
<path d="M1238.2,346.3h.8v-.7h-.8v.7Z" class="g1"/>
<path d="M47.1,442h.7V346.3h-.7V442Z" class="g1"/>
<path d="M155.1,442h.7V346.3h-.7V442Z" class="g1"/>
<path d="M360.8,442h.7V346.3h-.7V442Z" class="g1"/>
<path d="M772.4,442h.7V346.3h-.7V442Z" class="g1"/>
<path d="M1238.2,442h.8V346.3h-.8V442Z" class="g1"/>
<path d="M47.1,442.8h.7V442h-.7v.8Z" class="g1"/>
<path d="M47.8,442.8H155.1V442H47.8v.8Z" class="g1"/>
<path d="M155.1,442.8h.7V442h-.7v.8Z" class="g1"/>
<path d="M155.8,442.8h205V442h-205v.8Z" class="g1"/>
<path d="M360.8,442.8h.7V442h-.7v.8Z" class="g1"/>
<path d="M361.5,442.8H772.4V442H361.5v.8Z" class="g1"/>
<path d="M772.4,442.8h.7V442h-.7v.8Z" class="g1"/>
<path d="M773.1,442.8h465.1V442H773.1v.8Z" class="g1"/>
<path d="M1238.2,442.8h.8V442h-.8v.8Z" class="g1"/>
<path d="M47.1,495.4h.7V442.8h-.7v52.6Z" class="g1"/>
<path d="M155.1,495.4h.7V442.8h-.7v52.6Z" class="g1"/>
<path d="M360.8,495.4h.7V442.8h-.7v52.6Z" class="g1"/>
<path d="M772.4,495.4h.7V442.8h-.7v52.6Z" class="g1"/>
<path d="M1238.2,495.4h.8V442.8h-.8v52.6Z" class="g1"/>
<path d="M47.1,496.1h.7v-.7h-.7v.7Z" class="g1"/>
<path d="M155.1,496.1h.7v-.7h-.7v.7Z" class="g1"/>
<path d="M360.8,496.1h.7v-.7h-.7v.7Z" class="g1"/>
<path d="M772.4,496.1h.7v-.7h-.7v.7Z" class="g1"/>
<path d="M773.1,496.1h465.1v-.7H773.1v.7Z" class="g1"/>
<path d="M1238.2,496.1h.8v-.7h-.8v.7Z" class="g1"/>
<path d="M47.1,548.9h.7V496.1h-.7v52.8Z" class="g1"/>
<path d="M155.1,548.9h.7V496.1h-.7v52.8Z" class="g1"/>
<path d="M360.8,548.9h.7V496.1h-.7v52.8Z" class="g1"/>
<path d="M772.4,548.9h.7V496.1h-.7v52.8Z" class="g1"/>
<path d="M1238.2,548.9h.8V496.1h-.8v52.8Z" class="g1"/>
<path d="M47.1,549.6h.7v-.7h-.7v.7Z" class="g1"/>
<path d="M155.1,549.6h.7v-.7h-.7v.7Z" class="g1"/>
<path d="M360.8,549.6h.7v-.7h-.7v.7Z" class="g1"/>
<path d="M772.4,549.6h.7v-.7h-.7v.7Z" class="g1"/>
<path d="M773.1,549.6h465.1v-.7H773.1v.7Z" class="g1"/>
<path d="M1238.2,549.6h.8v-.7h-.8v.7Z" class="g1"/>
<path d="M47.1,602.4h.7V549.6h-.7v52.8Z" class="g1"/>
<path d="M47.1,603.2h.7v-.8h-.7v.8Z" class="g1"/>
<path d="M47.1,603.2h.7v-.8h-.7v.8Z" class="g1"/>
<path d="M47.8,603.2H155.1v-.8H47.8v.8Z" class="g1"/>
<path d="M155.1,602.4h.7V549.6h-.7v52.8Z" class="g1"/>
<path d="M155.1,603.2h.7v-.8h-.7v.8Z" class="g1"/>
<path d="M155.8,603.2h205v-.8h-205v.8Z" class="g1"/>
<path d="M360.8,602.4h.7V549.6h-.7v52.8Z" class="g1"/>
<path d="M360.8,603.2h.7v-.8h-.7v.8Z" class="g1"/>
<path d="M361.5,603.2H772.4v-.8H361.5v.8Z" class="g1"/>
<path d="M772.4,602.4h.7V549.6h-.7v52.8Z" class="g1"/>
<path d="M772.4,603.2h.7v-.8h-.7v.8Z" class="g1"/>
<path d="M773.1,603.2h465.1v-.8H773.1v.8Z" class="g1"/>
<path d="M1238.2,602.4h.8V549.6h-.8v52.8Z" class="g1"/>
<path d="M1238.2,603.2h.8v-.8h-.8v.8Z" class="g1"/>
<path d="M1238.2,603.2h.8v-.8h-.8v.8Z" class="g1"/>
</svg>