<?xml version="1.0" encoding="UTF-8" standalone="no"?>
<!DOCTYPE svg PUBLIC "-//W3C//DTD SVG 1.1//EN"
"http://www.w3.org/Graphics/SVG/1.1/DTD/svg11.dtd">
<svg viewBox="0 0 1286 909" version="1.1" xmlns="http://www.w3.org/2000/svg" xmlns:xlink="http://www.w3.org/1999/xlink">
<defs>
<style type="text/css"><![CDATA[
.g0{
fill: #D9D9D9;
}
.g1{
}
]]></style>
</defs>
<path fill-rule="evenodd" d="M47.8,213.4H220V191.8H47.8v21.6Z" class="g0"/>
<path fill-rule="evenodd" d="M55.7,211.4H212.1V193.8H55.7v17.6Z" class="g0"/>
<path fill-rule="evenodd" d="M220.7,213.4H750.6V191.8H220.7v21.6Z" class="g0"/>
<path fill-rule="evenodd" d="M228.6,211.4H742.7V193.8H228.6v17.6Z" class="g0"/>
<path fill-rule="evenodd" d="M751.5,213.4h334.8V191.8H751.5v21.6Z" class="g0"/>
<path fill-rule="evenodd" d="M759.2,211.4h319.2V193.8H759.2v17.6Z" class="g0"/>
<path fill-rule="evenodd" d="M1087,213.4h151.2V191.8H1087v21.6Z" class="g0"/>
<path fill-rule="evenodd" d="M1094.9,211.4h135.5V193.8H1094.9v17.6Z" class="g0"/>
<path d="M47.1,191.8h.7V191h-.7v.8Z" class="g1"/>
<path d="M47.1,191.8h.7V191h-.7v.8Z" class="g1"/>
<path d="M47.8,191.8H220V191H47.8v.8Z" class="g1"/>
<path d="M220,191.8h.7V191H220v.8Z" class="g1"/>
<path d="M220.7,191.8H750.6V191H220.7v.8Z" class="g1"/>
<path d="M750.6,191.8h.7V191h-.7v.8Z" class="g1"/>
<path d="M751.3,191.8h335V191h-335v.8Z" class="g1"/>
<path d="M1086.3,191.8h.7V191h-.7v.8Z" class="g1"/>
<path d="M1087,191.8h151.2V191H1087v.8Z" class="g1"/>
<path d="M1238.2,191.8h.8V191h-.8v.8Z" class="g1"/>
<path d="M1238.2,191.8h.8V191h-.8v.8Z" class="g1"/>
<path d="M47.1,213.4h.7V191.8h-.7v21.6Z" class="g1"/>
<path d="M220,213.4h.7V191.8H220v21.6Z" class="g1"/>
<path d="M750.6,213.4h.7V191.8h-.7v21.6Z" class="g1"/>
<path d="M1086.3,213.4h.7V191.8h-.7v21.6Z" class="g1"/>
<path d="M1238.2,213.4h.8V191.8h-.8v21.6Z" class="g1"/>
<path d="M47.1,214.1h.7v-.7h-.7v.7Z" class="g1"/>
<path d="M47.8,214.1H220v-.7H47.8v.7Z" class="g1"/>
<path d="M220,214.1h.7v-.7H220v.7Z" class="g1"/>
<path d="M220.7,214.1H750.6v-.7H220.7v.7Z" class="g1"/>
<path d="M750.6,214.1h.7v-.7h-.7v.7Z" class="g1"/>
<path d="M751.3,214.1h335v-.7h-335v.7Z" class="g1"/>
<path d="M1086.3,214.1h.7v-.7h-.7v.7Z" class="g1"/>
<path d="M1087,214.1h151.2v-.7H1087v.7Z" class="g1"/>
<path d="M1238.2,214.1h.8v-.7h-.8v.7Z" class="g1"/>
<path d="M47.1,236h.7V214.1h-.7V236Z" class="g1"/>
<path d="M220,236h.7V214.1H220V236Z" class="g1"/>
<path d="M750.6,236h.7V214.1h-.7V236Z" class="g1"/>
<path d="M1086.3,236h.7V214.1h-.7V236Z" class="g1"/>
<path d="M1238.2,236h.8V214.1h-.8V236Z" class="g1"/>
<path d="M47.1,236.7h.7v-.8h-.7v.8Z" class="g1"/>
<path d="M47.8,236.7H220v-.8H47.8v.8Z" class="g1"/>
<path d="M220,236.7h.7v-.8H220v.8Z" class="g1"/>
<path d="M220.7,236.7H750.6v-.8H220.7v.8Z" class="g1"/>
<path d="M750.6,236.7h.7v-.8h-.7v.8Z" class="g1"/>
<path d="M751.3,236.7h335v-.8h-335v.8Z" class="g1"/>
<path d="M1086.3,236.7h.7v-.8h-.7v.8Z" class="g1"/>
<path d="M1087,236.7h151.2v-.8H1087v.8Z" class="g1"/>
<path d="M1238.2,236.7h.8v-.8h-.8v.8Z" class="g1"/>
<path d="M47.1,258.3h.7V236.7h-.7v21.6Z" class="g1"/>
<path d="M220,258.3h.7V236.7H220v21.6Z" class="g1"/>
<path d="M750.6,258.3h.7V236.7h-.7v21.6Z" class="g1"/>
<path d="M1086.3,258.3h.7V236.7h-.7v21.6Z" class="g1"/>
<path d="M1238.2,258.3h.8V236.7h-.8v21.6Z" class="g1"/>
<path d="M47.1,259h.7v-.7h-.7v.7Z" class="g1"/>
<path d="M47.8,259H220v-.7H47.8v.7Z" class="g1"/>
<path d="M220,259h.7v-.7H220v.7Z" class="g1"/>
<path d="M220.7,259H750.6v-.7H220.7v.7Z" class="g1"/>
<path d="M750.6,259h.7v-.7h-.7v.7Z" class="g1"/>
<path d="M751.3,259h335v-.7h-335v.7Z" class="g1"/>
<path d="M1086.3,259h.7v-.7h-.7v.7Z" class="g1"/>
<path d="M1087,259h151.2v-.7H1087v.7Z" class="g1"/>
<path d="M1238.2,259h.8v-.7h-.8v.7Z" class="g1"/>
<path d="M47.1,280.9h.7V259h-.7v21.9Z" class="g1"/>
<path d="M220,280.9h.7V259H220v21.9Z" class="g1"/>
<path d="M750.6,280.9h.7V259h-.7v21.9Z" class="g1"/>
<path d="M1086.3,280.9h.7V259h-.7v21.9Z" class="g1"/>
<path d="M1238.2,280.9h.8V259h-.8v21.9Z" class="g1"/>
<path d="M47.1,281.6h.7v-.7h-.7v.7Z" class="g1"/>
<path d="M47.8,281.6H220v-.7H47.8v.7Z" class="g1"/>
<path d="M220,281.6h.7v-.7H220v.7Z" class="g1"/>
<path d="M220.7,281.6H750.6v-.7H220.7v.7Z" class="g1"/>
<path d="M750.6,281.6h.7v-.7h-.7v.7Z" class="g1"/>
<path d="M751.3,281.6h335v-.7h-335v.7Z" class="g1"/>
<path d="M1086.3,281.6h.7v-.7h-.7v.7Z" class="g1"/>
<path d="M1087,281.6h151.2v-.7H1087v.7Z" class="g1"/>
<path d="M1238.2,281.6h.8v-.7h-.8v.7Z" class="g1"/>
<path d="M47.1,303.2h.7V281.6h-.7v21.6Z" class="g1"/>
<path d="M220,303.2h.7V281.6H220v21.6Z" class="g1"/>
<path d="M750.6,303.2h.7V281.6h-.7v21.6Z" class="g1"/>
<path d="M1086.3,303.2h.7V281.6h-.7v21.6Z" class="g1"/>
<path d="M1238.2,303.2h.8V281.6h-.8v21.6Z" class="g1"/>
<path d="M47.1,304h.7v-.8h-.7v.8Z" class="g1"/>
<path d="M47.8,304H220v-.8H47.8v.8Z" class="g1"/>
<path d="M220,304h.7v-.8H220v.8Z" class="g1"/>
<path d="M220.7,304H750.6v-.8H220.7v.8Z" class="g1"/>
<path d="M750.6,304h.7v-.8h-.7v.8Z" class="g1"/>
<path d="M751.3,304h335v-.8h-335v.8Z" class="g1"/>
<path d="M1086.3,304h.7v-.8h-.7v.8Z" class="g1"/>
<path d="M1087,304h151.2v-.8H1087v.8Z" class="g1"/>
<path d="M1238.2,304h.8v-.8h-.8v.8Z" class="g1"/>
<path d="M47.1,325.8h.7V304h-.7v21.8Z" class="g1"/>
<path d="M220,325.8h.7V304H220v21.8Z" class="g1"/>
<path d="M750.6,325.8h.7V304h-.7v21.8Z" class="g1"/>
<path d="M1086.3,325.8h.7V304h-.7v21.8Z" class="g1"/>
<path d="M1238.2,325.8h.8V304h-.8v21.8Z" class="g1"/>
<path d="M47.1,326.5h.7v-.7h-.7v.7Z" class="g1"/>
<path d="M47.8,326.5H220v-.7H47.8v.7Z" class="g1"/>
<path d="M220,326.5h.7v-.7H220v.7Z" class="g1"/>
<path d="M220.7,326.5H750.6v-.7H220.7v.7Z" class="g1"/>
<path d="M750.6,326.5h.7v-.7h-.7v.7Z" class="g1"/>
<path d="M751.3,326.5h335v-.7h-335v.7Z" class="g1"/>
<path d="M1086.3,326.5h.7v-.7h-.7v.7Z" class="g1"/>
<path d="M1087,326.5h151.2v-.7H1087v.7Z" class="g1"/>
<path d="M1238.2,326.5h.8v-.7h-.8v.7Z" class="g1"/>
<path d="M47.1,348.2h.7V326.5h-.7v21.7Z" class="g1"/>
<path d="M220,348.2h.7V326.5H220v21.7Z" class="g1"/>
<path d="M750.6,348.2h.7V326.5h-.7v21.7Z" class="g1"/>
<path d="M1086.3,348.2h.7V326.5h-.7v21.7Z" class="g1"/>
<path d="M1238.2,348.2h.8V326.5h-.8v21.7Z" class="g1"/>
<path d="M47.1,348.9h.7v-.8h-.7v.8Z" class="g1"/>
<path d="M47.8,348.9H220v-.8H47.8v.8Z" class="g1"/>
<path d="M220,348.9h.7v-.8H220v.8Z" class="g1"/>
<path d="M220.7,348.9H750.6v-.8H220.7v.8Z" class="g1"/>
<path d="M750.6,348.9h.7v-.8h-.7v.8Z" class="g1"/>
<path d="M751.3,348.9h335v-.8h-335v.8Z" class="g1"/>
<path d="M1086.3,348.9h.7v-.8h-.7v.8Z" class="g1"/>
<path d="M1087,348.9h151.2v-.8H1087v.8Z" class="g1"/>
<path d="M1238.2,348.9h.8v-.8h-.8v.8Z" class="g1"/>
<path d="M47.1,370.7h.7V348.9h-.7v21.8Z" class="g1"/>
<path d="M220,370.7h.7V348.9H220v21.8Z" class="g1"/>
<path d="M750.6,370.7h.7V348.9h-.7v21.8Z" class="g1"/>
<path d="M1086.3,370.7h.7V348.9h-.7v21.8Z" class="g1"/>
<path d="M1238.2,370.7h.8V348.9h-.8v21.8Z" class="g1"/>
<path d="M47.1,371.4h.7v-.7h-.7v.7Z" class="g1"/>
<path d="M47.8,371.4H220v-.7H47.8v.7Z" class="g1"/>
<path d="M220,371.4h.7v-.7H220v.7Z" class="g1"/>
<path d="M220.7,371.4H750.6v-.7H220.7v.7Z" class="g1"/>
<path d="M750.6,371.4h.7v-.7h-.7v.7Z" class="g1"/>
<path d="M751.3,371.4h335v-.7h-335v.7Z" class="g1"/>
<path d="M1086.3,371.4h.7v-.7h-.7v.7Z" class="g1"/>
<path d="M1087,371.4h151.2v-.7H1087v.7Z" class="g1"/>
<path d="M1238.2,371.4h.8v-.7h-.8v.7Z" class="g1"/>
<path d="M47.1,393.1h.7V371.4h-.7v21.7Z" class="g1"/>
<path d="M220,393.1h.7V371.4H220v21.7Z" class="g1"/>
<path d="M750.6,393.1h.7V371.4h-.7v21.7Z" class="g1"/>
<path d="M1086.3,393.1h.7V371.4h-.7v21.7Z" class="g1"/>
<path d="M1238.2,393.1h.8V371.4h-.8v21.7Z" class="g1"/>
<path d="M47.1,393.8h.7v-.7h-.7v.7Z" class="g1"/>
<path d="M47.8,393.8H220v-.7H47.8v.7Z" class="g1"/>
<path d="M220,393.8h.7v-.7H220v.7Z" class="g1"/>
<path d="M220.7,393.8H750.6v-.7H220.7v.7Z" class="g1"/>
<path d="M750.6,393.8h.7v-.7h-.7v.7Z" class="g1"/>
<path d="M751.3,393.8h335v-.7h-335v.7Z" class="g1"/>
<path d="M1086.3,393.8h.7v-.7h-.7v.7Z" class="g1"/>
<path d="M1087,393.8h151.2v-.7H1087v.7Z" class="g1"/>
<path d="M1238.2,393.8h.8v-.7h-.8v.7Z" class="g1"/>
<path d="M47.1,415.6h.7V393.8h-.7v21.8Z" class="g1"/>
<path d="M220,415.6h.7V393.8H220v21.8Z" class="g1"/>
<path d="M750.6,415.6h.7V393.8h-.7v21.8Z" class="g1"/>
<path d="M1086.3,415.6h.7V393.8h-.7v21.8Z" class="g1"/>
<path d="M1238.2,415.6h.8V393.8h-.8v21.8Z" class="g1"/>
<path d="M47.1,416.4h.7v-.8h-.7v.8Z" class="g1"/>
<path d="M47.8,416.4H220v-.8H47.8v.8Z" class="g1"/>
<path d="M220,416.4h.7v-.8H220v.8Z" class="g1"/>
<path d="M220.7,416.4H750.6v-.8H220.7v.8Z" class="g1"/>
<path d="M750.6,416.4h.7v-.8h-.7v.8Z" class="g1"/>
<path d="M751.3,416.4h335v-.8h-335v.8Z" class="g1"/>
<path d="M1086.3,416.4h.7v-.8h-.7v.8Z" class="g1"/>
<path d="M1087,416.4h151.2v-.8H1087v.8Z" class="g1"/>
<path d="M1238.2,416.4h.8v-.8h-.8v.8Z" class="g1"/>
<path d="M47.1,438h.7V416.3h-.7V438Z" class="g1"/>
<path d="M220,438h.7V416.3H220V438Z" class="g1"/>
<path d="M750.6,438h.7V416.3h-.7V438Z" class="g1"/>
<path d="M1086.3,438h.7V416.3h-.7V438Z" class="g1"/>
<path d="M1238.2,438h.8V416.3h-.8V438Z" class="g1"/>
<path d="M47.1,438.7h.7V438h-.7v.7Z" class="g1"/>
<path d="M47.8,438.7H220V438H47.8v.7Z" class="g1"/>
<path d="M220,438.7h.7V438H220v.7Z" class="g1"/>
<path d="M220.7,438.7H750.6V438H220.7v.7Z" class="g1"/>
<path d="M750.6,438.7h.7V438h-.7v.7Z" class="g1"/>
<path d="M751.3,438.7h335V438h-335v.7Z" class="g1"/>
<path d="M1086.3,438.7h.7V438h-.7v.7Z" class="g1"/>
<path d="M1087,438.7h151.2V438H1087v.7Z" class="g1"/>
<path d="M1238.2,438.7h.8V438h-.8v.7Z" class="g1"/>
<path d="M47.1,460.5h.7V438.7h-.7v21.8Z" class="g1"/>
<path d="M220,460.5h.7V438.7H220v21.8Z" class="g1"/>
<path d="M750.6,460.5h.7V438.7h-.7v21.8Z" class="g1"/>
<path d="M1086.3,460.5h.7V438.7h-.7v21.8Z" class="g1"/>
<path d="M1238.2,460.5h.8V438.7h-.8v21.8Z" class="g1"/>
<path d="M47.1,461.3h.7v-.8h-.7v.8Z" class="g1"/>
<path d="M47.8,461.3H220v-.8H47.8v.8Z" class="g1"/>
<path d="M220,461.3h.7v-.8H220v.8Z" class="g1"/>
<path d="M220.7,461.3H750.6v-.8H220.7v.8Z" class="g1"/>
<path d="M750.6,461.3h.7v-.8h-.7v.8Z" class="g1"/>
<path d="M751.3,461.3h335v-.8h-335v.8Z" class="g1"/>
<path d="M1086.3,461.3h.7v-.8h-.7v.8Z" class="g1"/>
<path d="M1087,461.3h151.2v-.8H1087v.8Z" class="g1"/>
<path d="M1238.2,461.3h.8v-.8h-.8v.8Z" class="g1"/>
<path d="M47.1,482.9h.7V461.3h-.7v21.6Z" class="g1"/>
<path d="M220,482.9h.7V461.3H220v21.6Z" class="g1"/>
<path d="M750.6,482.9h.7V461.3h-.7v21.6Z" class="g1"/>
<path d="M1086.3,482.9h.7V461.3h-.7v21.6Z" class="g1"/>
<path d="M1238.2,482.9h.8V461.3h-.8v21.6Z" class="g1"/>
<path d="M47.1,483.6h.7v-.7h-.7v.7Z" class="g1"/>
<path d="M47.8,483.6H220v-.7H47.8v.7Z" class="g1"/>
<path d="M220,483.6h.7v-.7H220v.7Z" class="g1"/>
<path d="M220.7,483.6H750.6v-.7H220.7v.7Z" class="g1"/>
<path d="M750.6,483.6h.7v-.7h-.7v.7Z" class="g1"/>
<path d="M751.3,483.6h335v-.7h-335v.7Z" class="g1"/>
<path d="M1086.3,483.6h.7v-.7h-.7v.7Z" class="g1"/>
<path d="M1087,483.6h151.2v-.7H1087v.7Z" class="g1"/>
<path d="M1238.2,483.6h.8v-.7h-.8v.7Z" class="g1"/>
<path d="M47.1,505.4h.7V483.6h-.7v21.8Z" class="g1"/>
<path d="M220,505.4h.7V483.6H220v21.8Z" class="g1"/>
<path d="M750.6,505.4h.7V483.6h-.7v21.8Z" class="g1"/>
<path d="M1086.3,505.4h.7V483.6h-.7v21.8Z" class="g1"/>
<path d="M1238.2,505.4h.8V483.6h-.8v21.8Z" class="g1"/>
<path d="M47.1,506.2h.7v-.8h-.7v.8Z" class="g1"/>
<path d="M47.8,506.2H220v-.8H47.8v.8Z" class="g1"/>
<path d="M220,506.2h.7v-.8H220v.8Z" class="g1"/>
<path d="M220.7,506.2H750.6v-.8H220.7v.8Z" class="g1"/>
<path d="M750.6,506.2h.7v-.8h-.7v.8Z" class="g1"/>
<path d="M751.3,506.2h335v-.8h-335v.8Z" class="g1"/>
<path d="M1086.3,506.2h.7v-.8h-.7v.8Z" class="g1"/>
<path d="M1087,506.2h151.2v-.8H1087v.8Z" class="g1"/>
<path d="M1238.2,506.2h.8v-.8h-.8v.8Z" class="g1"/>
<path d="M47.1,527.8h.7V506.2h-.7v21.6Z" class="g1"/>
<path d="M220,527.8h.7V506.2H220v21.6Z" class="g1"/>
<path d="M750.6,527.8h.7V506.2h-.7v21.6Z" class="g1"/>
<path d="M1086.3,527.8h.7V506.2h-.7v21.6Z" class="g1"/>
<path d="M1238.2,527.8h.8V506.2h-.8v21.6Z" class="g1"/>
<path d="M47.1,528.6h.7v-.8h-.7v.8Z" class="g1"/>
<path d="M47.8,528.6H220v-.8H47.8v.8Z" class="g1"/>
<path d="M220,528.6h.7v-.8H220v.8Z" class="g1"/>
<path d="M220.7,528.6H750.6v-.8H220.7v.8Z" class="g1"/>
<path d="M750.6,528.6h.7v-.8h-.7v.8Z" class="g1"/>
<path d="M751.3,528.6h335v-.8h-335v.8Z" class="g1"/>
<path d="M1086.3,528.6h.7v-.8h-.7v.8Z" class="g1"/>
<path d="M1087,528.6h151.2v-.8H1087v.8Z" class="g1"/>
<path d="M1238.2,528.6h.8v-.8h-.8v.8Z" class="g1"/>
<path d="M47.1,550.4h.7V528.6h-.7v21.8Z" class="g1"/>
<path d="M220,550.4h.7V528.6H220v21.8Z" class="g1"/>
<path d="M750.6,550.4h.7V528.6h-.7v21.8Z" class="g1"/>
<path d="M1086.3,550.4h.7V528.6h-.7v21.8Z" class="g1"/>
<path d="M1238.2,550.4h.8V528.6h-.8v21.8Z" class="g1"/>
<path d="M47.1,551.1h.7v-.7h-.7v.7Z" class="g1"/>
<path d="M47.8,551.1H220v-.7H47.8v.7Z" class="g1"/>
<path d="M220,551.1h.7v-.7H220v.7Z" class="g1"/>
<path d="M220.7,551.1H750.6v-.7H220.7v.7Z" class="g1"/>
<path d="M750.6,551.1h.7v-.7h-.7v.7Z" class="g1"/>
<path d="M751.3,551.1h335v-.7h-335v.7Z" class="g1"/>
<path d="M1086.3,551.1h.7v-.7h-.7v.7Z" class="g1"/>
<path d="M1087,551.1h151.2v-.7H1087v.7Z" class="g1"/>
<path d="M1238.2,551.1h.8v-.7h-.8v.7Z" class="g1"/>
<path d="M47.1,572.7h.7V551.1h-.7v21.6Z" class="g1"/>
<path d="M220,572.7h.7V551.1H220v21.6Z" class="g1"/>
<path d="M750.6,572.7h.7V551.1h-.7v21.6Z" class="g1"/>
<path d="M1086.3,572.7h.7V551.1h-.7v21.6Z" class="g1"/>
<path d="M1238.2,572.7h.8V551.1h-.8v21.6Z" class="g1"/>
<path d="M47.1,573.5h.7v-.8h-.7v.8Z" class="g1"/>
<path d="M47.8,573.5H220v-.8H47.8v.8Z" class="g1"/>
<path d="M220,573.5h.7v-.8H220v.8Z" class="g1"/>
<path d="M220.7,573.5H750.6v-.8H220.7v.8Z" class="g1"/>
<path d="M750.6,573.5h.7v-.8h-.7v.8Z" class="g1"/>
<path d="M751.3,573.5h335v-.8h-335v.8Z" class="g1"/>
<path d="M1086.3,573.5h.7v-.8h-.7v.8Z" class="g1"/>
<path d="M1087,573.5h151.2v-.8H1087v.8Z" class="g1"/>
<path d="M1238.2,573.5h.8v-.8h-.8v.8Z" class="g1"/>
<path d="M47.1,595.3h.7V573.5h-.7v21.8Z" class="g1"/>
<path d="M220,595.3h.7V573.5H220v21.8Z" class="g1"/>
<path d="M750.6,595.3h.7V573.5h-.7v21.8Z" class="g1"/>
<path d="M1086.3,595.3h.7V573.5h-.7v21.8Z" class="g1"/>
<path d="M1238.2,595.3h.8V573.5h-.8v21.8Z" class="g1"/>
<path d="M47.1,596h.7v-.7h-.7v.7Z" class="g1"/>
<path d="M47.8,596H220v-.7H47.8v.7Z" class="g1"/>
<path d="M220,596h.7v-.7H220v.7Z" class="g1"/>
<path d="M220.7,596H750.6v-.7H220.7v.7Z" class="g1"/>
<path d="M750.6,596h.7v-.7h-.7v.7Z" class="g1"/>
<path d="M751.3,596h335v-.7h-335v.7Z" class="g1"/>
<path d="M1086.3,596h.7v-.7h-.7v.7Z" class="g1"/>
<path d="M1087,596h151.2v-.7H1087v.7Z" class="g1"/>
<path d="M1238.2,596h.8v-.7h-.8v.7Z" class="g1"/>
<path d="M47.1,617.7h.7V596h-.7v21.7Z" class="g1"/>
<path d="M220,617.7h.7V596H220v21.7Z" class="g1"/>
<path d="M750.6,617.7h.7V596h-.7v21.7Z" class="g1"/>
<path d="M1086.3,617.7h.7V596h-.7v21.7Z" class="g1"/>
<path d="M1238.2,617.7h.8V596h-.8v21.7Z" class="g1"/>
<path d="M47.1,618.4h.7v-.8h-.7v.8Z" class="g1"/>
<path d="M47.8,618.4H220v-.8H47.8v.8Z" class="g1"/>
<path d="M220,618.4h.7v-.8H220v.8Z" class="g1"/>
<path d="M220.7,618.4H750.6v-.8H220.7v.8Z" class="g1"/>
<path d="M750.6,618.4h.7v-.8h-.7v.8Z" class="g1"/>
<path d="M751.3,618.4h335v-.8h-335v.8Z" class="g1"/>
<path d="M1086.3,618.4h.7v-.8h-.7v.8Z" class="g1"/>
<path d="M1087,618.4h151.2v-.8H1087v.8Z" class="g1"/>
<path d="M1238.2,618.4h.8v-.8h-.8v.8Z" class="g1"/>
<path d="M47.1,640.2h.7V618.4h-.7v21.8Z" class="g1"/>
<path d="M220,640.2h.7V618.4H220v21.8Z" class="g1"/>
<path d="M750.6,640.2h.7V618.4h-.7v21.8Z" class="g1"/>
<path d="M1086.3,640.2h.7V618.4h-.7v21.8Z" class="g1"/>
<path d="M1238.2,640.2h.8V618.4h-.8v21.8Z" class="g1"/>
<path d="M47.1,640.9h.7v-.7h-.7v.7Z" class="g1"/>
<path d="M47.8,640.9H220v-.7H47.8v.7Z" class="g1"/>
<path d="M220,640.9h.7v-.7H220v.7Z" class="g1"/>
<path d="M220.7,640.9H750.6v-.7H220.7v.7Z" class="g1"/>
<path d="M750.6,640.9h.7v-.7h-.7v.7Z" class="g1"/>
<path d="M751.3,640.9h335v-.7h-335v.7Z" class="g1"/>
<path d="M1086.3,640.9h.7v-.7h-.7v.7Z" class="g1"/>
<path d="M1087,640.9h151.2v-.7H1087v.7Z" class="g1"/>
<path d="M1238.2,640.9h.8v-.7h-.8v.7Z" class="g1"/>
<path d="M47.1,662.6h.7V640.9h-.7v21.7Z" class="g1"/>
<path d="M220,662.6h.7V640.9H220v21.7Z" class="g1"/>
<path d="M750.6,662.6h.7V640.9h-.7v21.7Z" class="g1"/>
<path d="M1086.3,662.6h.7V640.9h-.7v21.7Z" class="g1"/>
<path d="M1238.2,662.6h.8V640.9h-.8v21.7Z" class="g1"/>
<path d="M47.1,663.3h.7v-.7h-.7v.7Z" class="g1"/>
<path d="M47.8,663.3H220v-.7H47.8v.7Z" class="g1"/>
<path d="M220,663.3h.7v-.7H220v.7Z" class="g1"/>
<path d="M220.7,663.3H750.6v-.7H220.7v.7Z" class="g1"/>
<path d="M750.6,663.3h.7v-.7h-.7v.7Z" class="g1"/>
<path d="M751.3,663.3h335v-.7h-335v.7Z" class="g1"/>
<path d="M1086.3,663.3h.7v-.7h-.7v.7Z" class="g1"/>
<path d="M1087,663.3h151.2v-.7H1087v.7Z" class="g1"/>
<path d="M1238.2,663.3h.8v-.7h-.8v.7Z" class="g1"/>
<path d="M47.1,685.1h.7V663.3h-.7v21.8Z" class="g1"/>
<path d="M220,685.1h.7V663.3H220v21.8Z" class="g1"/>
<path d="M750.6,685.1h.7V663.3h-.7v21.8Z" class="g1"/>
<path d="M1086.3,685.1h.7V663.3h-.7v21.8Z" class="g1"/>
<path d="M1238.2,685.1h.8V663.3h-.8v21.8Z" class="g1"/>
<path d="M47.1,685.9h.7v-.8h-.7v.8Z" class="g1"/>
<path d="M47.8,685.9H220v-.8H47.8v.8Z" class="g1"/>
<path d="M220,685.9h.7v-.8H220v.8Z" class="g1"/>
<path d="M220.7,685.9H750.6v-.8H220.7v.8Z" class="g1"/>
<path d="M750.6,685.9h.7v-.8h-.7v.8Z" class="g1"/>
<path d="M751.3,685.9h335v-.8h-335v.8Z" class="g1"/>
<path d="M1086.3,685.9h.7v-.8h-.7v.8Z" class="g1"/>
<path d="M1087,685.9h151.2v-.8H1087v.8Z" class="g1"/>
<path d="M1238.2,685.9h.8v-.8h-.8v.8Z" class="g1"/>
<path d="M47.1,707.5h.7V685.8h-.7v21.7Z" class="g1"/>
<path d="M47.1,708.2h.7v-.7h-.7v.7Z" class="g1"/>
<path d="M47.1,708.2h.7v-.7h-.7v.7Z" class="g1"/>
<path d="M47.8,708.2H220v-.7H47.8v.7Z" class="g1"/>
<path d="M220,707.5h.7V685.8H220v21.7Z" class="g1"/>
<path d="M220,708.2h.7v-.7H220v.7Z" class="g1"/>
<path d="M220.7,708.2H750.6v-.7H220.7v.7Z" class="g1"/>
<path d="M750.6,707.5h.7V685.8h-.7v21.7Z" class="g1"/>
<path d="M750.6,708.2h.7v-.7h-.7v.7Z" class="g1"/>
<path d="M751.3,708.2h335v-.7h-335v.7Z" class="g1"/>
<path d="M1086.3,707.5h.7V685.8h-.7v21.7Z" class="g1"/>
<path d="M1086.3,708.2h.7v-.7h-.7v.7Z" class="g1"/>
<path d="M1087,708.2h151.2v-.7H1087v.7Z" class="g1"/>
<path d="M1238.2,707.5h.8V685.8h-.8v21.7Z" class="g1"/>
<path d="M1238.2,708.2h.8v-.7h-.8v.7Z" class="g1"/>
<path d="M1238.2,708.2h.8v-.7h-.8v.7Z" class="g1"/>
</svg>