<?xml version="1.0" encoding="UTF-8" standalone="no"?>
<!DOCTYPE svg PUBLIC "-//W3C//DTD SVG 1.1//EN"
"http://www.w3.org/Graphics/SVG/1.1/DTD/svg11.dtd">
<svg viewBox="0 0 1286 909" version="1.1" xmlns="http://www.w3.org/2000/svg" xmlns:xlink="http://www.w3.org/1999/xlink">
<defs>
<style type="text/css"><![CDATA[
.g0_1{
fill: #D9D9D9;
}
.g1_1{
}
]]></style>
</defs>
<path fill-rule="evenodd" d="M47.8,225.7h876V204H47.8v21.7Z" class="g0_1"/>
<path fill-rule="evenodd" d="M55.7,223.7H915.9V206.1H55.7v17.6Z" class="g0_1"/>
<path fill-rule="evenodd" d="M924.7,225.7h313.5V204H924.7v21.7Z" class="g0_1"/>
<path fill-rule="evenodd" d="M932.4,223.7h298V206.1h-298v17.6Z" class="g0_1"/>
<path d="M47.1,203.9h.7v-.8h-.7v.8Z" class="g1_1"/>
<path d="M47.1,203.9h.7v-.8h-.7v.8Z" class="g1_1"/>
<path d="M47.8,203.9h876v-.8H47.8v.8Z" class="g1_1"/>
<path d="M923.8,203.9h.7v-.8h-.7v.8Z" class="g1_1"/>
<path d="M924.5,203.9h313.7v-.8H924.5v.8Z" class="g1_1"/>
<path d="M1238.2,203.9h.8v-.8h-.8v.8Z" class="g1_1"/>
<path d="M1238.2,203.9h.8v-.8h-.8v.8Z" class="g1_1"/>
<path d="M47.1,225.7h.7V203.9h-.7v21.8Z" class="g1_1"/>
<path d="M923.8,225.7h.7V203.9h-.7v21.8Z" class="g1_1"/>
<path d="M1238.2,225.7h.8V203.9h-.8v21.8Z" class="g1_1"/>
<path fill-rule="evenodd" d="M47.8,248.1h64V226.4h-64v21.7Z" class="g0_1"/>
<path fill-rule="evenodd" d="M55.7,246H104V228.4H55.7V246Z" class="g0_1"/>
<path fill-rule="evenodd" d="M112.6,248.1H923.8V226.4H112.6v21.7Z" class="g0_1"/>
<path fill-rule="evenodd" d="M120.4,246H915.9V228.4H120.4V246Z" class="g0_1"/>
<path fill-rule="evenodd" d="M924.7,248.1h313.5V226.4H924.7v21.7Z" class="g0_1"/>
<path fill-rule="evenodd" d="M932.4,246h298V228.4h-298V246Z" class="g0_1"/>
<path d="M47.1,226.4h.7v-.7h-.7v.7Z" class="g1_1"/>
<path d="M47.8,226.4h64v-.7h-64v.7Z" class="g1_1"/>
<path d="M111.8,226.4h.8v-.7h-.8v.7Z" class="g1_1"/>
<path d="M112.6,226.4H923.8v-.7H112.6v.7Z" class="g1_1"/>
<path d="M923.8,226.4h.7v-.7h-.7v.7Z" class="g1_1"/>
<path d="M924.5,226.4h313.7v-.7H924.5v.7Z" class="g1_1"/>
<path d="M1238.2,226.4h.8v-.7h-.8v.7Z" class="g1_1"/>
<path d="M47.1,248.1h.7V226.4h-.7v21.7Z" class="g1_1"/>
<path d="M111.8,248.1h.8V226.4h-.8v21.7Z" class="g1_1"/>
<path d="M923.8,248.1h.7V226.4h-.7v21.7Z" class="g1_1"/>
<path d="M1238.2,248.1h.8V226.4h-.8v21.7Z" class="g1_1"/>
<path d="M47.1,248.8h.7V248h-.7v.8Z" class="g1_1"/>
<path d="M47.8,248.8h64V248h-64v.8Z" class="g1_1"/>
<path d="M111.8,248.8h.8V248h-.8v.8Z" class="g1_1"/>
<path d="M112.6,248.8H923.8V248H112.6v.8Z" class="g1_1"/>
<path d="M923.8,248.8h.7V248h-.7v.8Z" class="g1_1"/>
<path d="M924.5,248.8h313.7V248H924.5v.8Z" class="g1_1"/>
<path d="M1238.2,248.8h.8V248h-.8v.8Z" class="g1_1"/>
<path d="M47.1,270.6h.7V248.8h-.7v21.8Z" class="g1_1"/>
<path d="M111.8,270.6h.8V248.8h-.8v21.8Z" class="g1_1"/>
<path d="M923.8,270.6h.7V248.8h-.7v21.8Z" class="g1_1"/>
<path d="M1238.2,270.6h.8V248.8h-.8v21.8Z" class="g1_1"/>
<path d="M47.1,271.3h.7v-.7h-.7v.7Z" class="g1_1"/>
<path d="M47.8,271.3h64v-.7h-64v.7Z" class="g1_1"/>
<path d="M111.8,271.3h.8v-.7h-.8v.7Z" class="g1_1"/>
<path d="M112.6,271.3H923.8v-.7H112.6v.7Z" class="g1_1"/>
<path d="M923.8,271.3h.7v-.7h-.7v.7Z" class="g1_1"/>
<path d="M924.5,271.3h313.7v-.7H924.5v.7Z" class="g1_1"/>
<path d="M1238.2,271.3h.8v-.7h-.8v.7Z" class="g1_1"/>
<path d="M47.1,293h.7V271.3h-.7V293Z" class="g1_1"/>
<path d="M111.8,293h.8V271.3h-.8V293Z" class="g1_1"/>
<path d="M923.8,293h.7V271.3h-.7V293Z" class="g1_1"/>
<path d="M1238.2,293h.8V271.3h-.8V293Z" class="g1_1"/>
<path d="M47.1,293.7h.7V293h-.7v.7Z" class="g1_1"/>
<path d="M47.8,293.7h64V293h-64v.7Z" class="g1_1"/>
<path d="M111.8,293.7h.8V293h-.8v.7Z" class="g1_1"/>
<path d="M112.6,293.7H923.8V293H112.6v.7Z" class="g1_1"/>
<path d="M923.8,293.7h.7V293h-.7v.7Z" class="g1_1"/>
<path d="M924.5,293.7h313.7V293H924.5v.7Z" class="g1_1"/>
<path d="M1238.2,293.7h.8V293h-.8v.7Z" class="g1_1"/>
<path d="M47.1,315.5h.7V293.7h-.7v21.8Z" class="g1_1"/>
<path d="M111.8,315.5h.8V293.7h-.8v21.8Z" class="g1_1"/>
<path d="M923.8,315.5h.7V293.7h-.7v21.8Z" class="g1_1"/>
<path d="M1238.2,315.5h.8V293.7h-.8v21.8Z" class="g1_1"/>
<path d="M47.1,316.3h.7v-.8h-.7v.8Z" class="g1_1"/>
<path d="M47.8,316.3h64v-.8h-64v.8Z" class="g1_1"/>
<path d="M111.8,316.3h.8v-.8h-.8v.8Z" class="g1_1"/>
<path d="M112.6,316.3H923.8v-.8H112.6v.8Z" class="g1_1"/>
<path d="M923.8,316.3h.7v-.8h-.7v.8Z" class="g1_1"/>
<path d="M924.5,316.3h313.7v-.8H924.5v.8Z" class="g1_1"/>
<path d="M1238.2,316.3h.8v-.8h-.8v.8Z" class="g1_1"/>
<path d="M47.1,337.9h.7V316.2h-.7v21.7Z" class="g1_1"/>
<path d="M111.8,337.9h.8V316.2h-.8v21.7Z" class="g1_1"/>
<path d="M923.8,337.9h.7V316.2h-.7v21.7Z" class="g1_1"/>
<path d="M1238.2,337.9h.8V316.2h-.8v21.7Z" class="g1_1"/>
<path d="M47.1,338.6h.7v-.7h-.7v.7Z" class="g1_1"/>
<path d="M47.8,338.6h64v-.7h-64v.7Z" class="g1_1"/>
<path d="M111.8,338.6h.8v-.7h-.8v.7Z" class="g1_1"/>
<path d="M112.6,338.6H923.8v-.7H112.6v.7Z" class="g1_1"/>
<path d="M923.8,338.6h.7v-.7h-.7v.7Z" class="g1_1"/>
<path d="M924.5,338.6h313.7v-.7H924.5v.7Z" class="g1_1"/>
<path d="M1238.2,338.6h.8v-.7h-.8v.7Z" class="g1_1"/>
<path d="M47.1,360.4h.7V338.6h-.7v21.8Z" class="g1_1"/>
<path d="M111.8,360.4h.8V338.6h-.8v21.8Z" class="g1_1"/>
<path d="M923.8,360.4h.7V338.6h-.7v21.8Z" class="g1_1"/>
<path d="M1238.2,360.4h.8V338.6h-.8v21.8Z" class="g1_1"/>
<path d="M47.1,361.2h.7v-.8h-.7v.8Z" class="g1_1"/>
<path d="M47.8,361.2h64v-.8h-64v.8Z" class="g1_1"/>
<path d="M111.8,361.2h.8v-.8h-.8v.8Z" class="g1_1"/>
<path d="M112.6,361.2H923.8v-.8H112.6v.8Z" class="g1_1"/>
<path d="M923.8,361.2h.7v-.8h-.7v.8Z" class="g1_1"/>
<path d="M924.5,361.2h313.7v-.8H924.5v.8Z" class="g1_1"/>
<path d="M1238.2,361.2h.8v-.8h-.8v.8Z" class="g1_1"/>
<path d="M47.1,382.8h.7V361.2h-.7v21.6Z" class="g1_1"/>
<path d="M111.8,382.8h.8V361.2h-.8v21.6Z" class="g1_1"/>
<path d="M923.8,382.8h.7V361.2h-.7v21.6Z" class="g1_1"/>
<path d="M1238.2,382.8h.8V361.2h-.8v21.6Z" class="g1_1"/>
<path d="M47.1,383.5h.7v-.7h-.7v.7Z" class="g1_1"/>
<path d="M47.8,383.5h64v-.7h-64v.7Z" class="g1_1"/>
<path d="M111.8,383.5h.8v-.7h-.8v.7Z" class="g1_1"/>
<path d="M112.6,383.5H923.8v-.7H112.6v.7Z" class="g1_1"/>
<path d="M923.8,383.5h.7v-.7h-.7v.7Z" class="g1_1"/>
<path d="M924.5,383.5h313.7v-.7H924.5v.7Z" class="g1_1"/>
<path d="M1238.2,383.5h.8v-.7h-.8v.7Z" class="g1_1"/>
<path d="M47.1,405.4h.7V383.5h-.7v21.9Z" class="g1_1"/>
<path d="M111.8,405.4h.8V383.5h-.8v21.9Z" class="g1_1"/>
<path d="M923.8,405.4h.7V383.5h-.7v21.9Z" class="g1_1"/>
<path d="M1238.2,405.4h.8V383.5h-.8v21.9Z" class="g1_1"/>
<path d="M47.1,406.1h.7v-.8h-.7v.8Z" class="g1_1"/>
<path d="M47.8,406.1h64v-.8h-64v.8Z" class="g1_1"/>
<path d="M111.8,406.1h.8v-.8h-.8v.8Z" class="g1_1"/>
<path d="M112.6,406.1H923.8v-.8H112.6v.8Z" class="g1_1"/>
<path d="M923.8,406.1h.7v-.8h-.7v.8Z" class="g1_1"/>
<path d="M924.5,406.1h313.7v-.8H924.5v.8Z" class="g1_1"/>
<path d="M1238.2,406.1h.8v-.8h-.8v.8Z" class="g1_1"/>
<path d="M47.1,427.7h.7V406.1h-.7v21.6Z" class="g1_1"/>
<path d="M111.8,427.7h.8V406.1h-.8v21.6Z" class="g1_1"/>
<path d="M923.8,427.7h.7V406.1h-.7v21.6Z" class="g1_1"/>
<path d="M1238.2,427.7h.8V406.1h-.8v21.6Z" class="g1_1"/>
<path d="M47.1,428.5h.7v-.8h-.7v.8Z" class="g1_1"/>
<path d="M47.8,428.5h64v-.8h-64v.8Z" class="g1_1"/>
<path d="M111.8,428.5h.8v-.8h-.8v.8Z" class="g1_1"/>
<path d="M112.6,428.5H923.8v-.8H112.6v.8Z" class="g1_1"/>
<path d="M923.8,428.5h.7v-.8h-.7v.8Z" class="g1_1"/>
<path d="M924.5,428.5h313.7v-.8H924.5v.8Z" class="g1_1"/>
<path d="M1238.2,428.5h.8v-.8h-.8v.8Z" class="g1_1"/>
<path d="M47.1,450.3h.7V428.5h-.7v21.8Z" class="g1_1"/>
<path d="M111.8,450.3h.8V428.5h-.8v21.8Z" class="g1_1"/>
<path d="M923.8,450.3h.7V428.5h-.7v21.8Z" class="g1_1"/>
<path d="M1238.2,450.3h.8V428.5h-.8v21.8Z" class="g1_1"/>
<path d="M47.1,451h.7v-.7h-.7v.7Z" class="g1_1"/>
<path d="M47.8,451h64v-.7h-64v.7Z" class="g1_1"/>
<path d="M111.8,451h.8v-.7h-.8v.7Z" class="g1_1"/>
<path d="M112.6,451H923.8v-.7H112.6v.7Z" class="g1_1"/>
<path d="M923.8,451h.7v-.7h-.7v.7Z" class="g1_1"/>
<path d="M924.5,451h313.7v-.7H924.5v.7Z" class="g1_1"/>
<path d="M1238.2,451h.8v-.7h-.8v.7Z" class="g1_1"/>
<path d="M47.1,472.6h.7V451h-.7v21.6Z" class="g1_1"/>
<path d="M111.8,472.6h.8V451h-.8v21.6Z" class="g1_1"/>
<path d="M923.8,472.6h.7V451h-.7v21.6Z" class="g1_1"/>
<path d="M1238.2,472.6h.8V451h-.8v21.6Z" class="g1_1"/>
<path d="M47.1,473.4h.7v-.8h-.7v.8Z" class="g1_1"/>
<path d="M47.8,473.4h64v-.8h-64v.8Z" class="g1_1"/>
<path d="M111.8,473.4h.8v-.8h-.8v.8Z" class="g1_1"/>
<path d="M112.6,473.4H923.8v-.8H112.6v.8Z" class="g1_1"/>
<path d="M923.8,473.4h.7v-.8h-.7v.8Z" class="g1_1"/>
<path d="M924.5,473.4h313.7v-.8H924.5v.8Z" class="g1_1"/>
<path d="M1238.2,473.4h.8v-.8h-.8v.8Z" class="g1_1"/>
<path d="M47.1,495.2h.7V473.4h-.7v21.8Z" class="g1_1"/>
<path d="M111.8,495.2h.8V473.4h-.8v21.8Z" class="g1_1"/>
<path d="M923.8,495.2h.7V473.4h-.7v21.8Z" class="g1_1"/>
<path d="M1238.2,495.2h.8V473.4h-.8v21.8Z" class="g1_1"/>
<path d="M47.1,495.9h.7v-.7h-.7v.7Z" class="g1_1"/>
<path d="M47.8,495.9h64v-.7h-64v.7Z" class="g1_1"/>
<path d="M111.8,495.9h.8v-.7h-.8v.7Z" class="g1_1"/>
<path d="M112.6,495.9H923.8v-.7H112.6v.7Z" class="g1_1"/>
<path d="M923.8,495.9h.7v-.7h-.7v.7Z" class="g1_1"/>
<path d="M924.5,495.9h313.7v-.7H924.5v.7Z" class="g1_1"/>
<path d="M1238.2,495.9h.8v-.7h-.8v.7Z" class="g1_1"/>
<path d="M47.1,517.6h.7V495.9h-.7v21.7Z" class="g1_1"/>
<path d="M111.8,517.6h.8V495.9h-.8v21.7Z" class="g1_1"/>
<path d="M923.8,517.6h.7V495.9h-.7v21.7Z" class="g1_1"/>
<path d="M1238.2,517.6h.8V495.9h-.8v21.7Z" class="g1_1"/>
<path d="M47.1,518.3h.7v-.8h-.7v.8Z" class="g1_1"/>
<path d="M47.8,518.3h64v-.8h-64v.8Z" class="g1_1"/>
<path d="M111.8,518.3h.8v-.8h-.8v.8Z" class="g1_1"/>
<path d="M112.6,518.3H923.8v-.8H112.6v.8Z" class="g1_1"/>
<path d="M923.8,518.3h.7v-.8h-.7v.8Z" class="g1_1"/>
<path d="M924.5,518.3h313.7v-.8H924.5v.8Z" class="g1_1"/>
<path d="M1238.2,518.3h.8v-.8h-.8v.8Z" class="g1_1"/>
<path d="M47.1,540.1h.7V518.3h-.7v21.8Z" class="g1_1"/>
<path d="M111.8,540.1h.8V518.3h-.8v21.8Z" class="g1_1"/>
<path d="M923.8,540.1h.7V518.3h-.7v21.8Z" class="g1_1"/>
<path d="M1238.2,540.1h.8V518.3h-.8v21.8Z" class="g1_1"/>
<path d="M47.1,540.8h.7v-.7h-.7v.7Z" class="g1_1"/>
<path d="M47.8,540.8h64v-.7h-64v.7Z" class="g1_1"/>
<path d="M111.8,540.8h.8v-.7h-.8v.7Z" class="g1_1"/>
<path d="M112.6,540.8H923.8v-.7H112.6v.7Z" class="g1_1"/>
<path d="M923.8,540.8h.7v-.7h-.7v.7Z" class="g1_1"/>
<path d="M924.5,540.8h313.7v-.7H924.5v.7Z" class="g1_1"/>
<path d="M1238.2,540.8h.8v-.7h-.8v.7Z" class="g1_1"/>
<path d="M47.1,562.5h.7V540.8h-.7v21.7Z" class="g1_1"/>
<path d="M111.8,562.5h.8V540.8h-.8v21.7Z" class="g1_1"/>
<path d="M923.8,562.5h.7V540.8h-.7v21.7Z" class="g1_1"/>
<path d="M1238.2,562.5h.8V540.8h-.8v21.7Z" class="g1_1"/>
<path d="M47.1,563.2h.7v-.7h-.7v.7Z" class="g1_1"/>
<path d="M47.8,563.2h64v-.7h-64v.7Z" class="g1_1"/>
<path d="M111.8,563.2h.8v-.7h-.8v.7Z" class="g1_1"/>
<path d="M112.6,563.2H923.8v-.7H112.6v.7Z" class="g1_1"/>
<path d="M923.8,563.2h.7v-.7h-.7v.7Z" class="g1_1"/>
<path d="M924.5,563.2h313.7v-.7H924.5v.7Z" class="g1_1"/>
<path d="M1238.2,563.2h.8v-.7h-.8v.7Z" class="g1_1"/>
<path d="M47.1,598.4h.7V563.2h-.7v35.2Z" class="g1_1"/>
<path d="M111.8,598.4h.8V563.2h-.8v35.2Z" class="g1_1"/>
<path d="M923.8,598.4h.7V563.2h-.7v35.2Z" class="g1_1"/>
<path d="M1238.2,598.4h.8V563.2h-.8v35.2Z" class="g1_1"/>
<path d="M47.1,599.1h.7v-.7h-.7v.7Z" class="g1_1"/>
<path d="M47.8,599.1h64v-.7h-64v.7Z" class="g1_1"/>
<path d="M111.8,599.1h.8v-.7h-.8v.7Z" class="g1_1"/>
<path d="M112.6,599.1H923.8v-.7H112.6v.7Z" class="g1_1"/>
<path d="M923.8,599.1h.7v-.7h-.7v.7Z" class="g1_1"/>
<path d="M924.5,599.1h313.7v-.7H924.5v.7Z" class="g1_1"/>
<path d="M1238.2,599.1h.8v-.7h-.8v.7Z" class="g1_1"/>
<path d="M47.1,621h.7V599.1h-.7V621Z" class="g1_1"/>
<path d="M111.8,621h.8V599.1h-.8V621Z" class="g1_1"/>
<path d="M923.8,621h.7V599.1h-.7V621Z" class="g1_1"/>
<path d="M1238.2,621h.8V599.1h-.8V621Z" class="g1_1"/>
<path d="M47.1,621.7h.7v-.8h-.7v.8Z" class="g1_1"/>
<path d="M47.8,621.7h64v-.8h-64v.8Z" class="g1_1"/>
<path d="M111.8,621.7h.8v-.8h-.8v.8Z" class="g1_1"/>
<path d="M112.6,621.7H923.8v-.8H112.6v.8Z" class="g1_1"/>
<path d="M923.8,621.7h.7v-.8h-.7v.8Z" class="g1_1"/>
<path d="M924.5,621.7h313.7v-.8H924.5v.8Z" class="g1_1"/>
<path d="M1238.2,621.7h.8v-.8h-.8v.8Z" class="g1_1"/>
<path d="M47.1,656.9h.7V621.7h-.7v35.2Z" class="g1_1"/>
<path d="M111.8,656.9h.8V621.7h-.8v35.2Z" class="g1_1"/>
<path d="M923.8,656.9h.7V621.7h-.7v35.2Z" class="g1_1"/>
<path d="M1238.2,656.9h.8V621.7h-.8v35.2Z" class="g1_1"/>
<path d="M47.1,657.6h.7v-.7h-.7v.7Z" class="g1_1"/>
<path d="M47.8,657.6h64v-.7h-64v.7Z" class="g1_1"/>
<path d="M111.8,657.6h.8v-.7h-.8v.7Z" class="g1_1"/>
<path d="M112.6,657.6H923.8v-.7H112.6v.7Z" class="g1_1"/>
<path d="M923.8,657.6h.7v-.7h-.7v.7Z" class="g1_1"/>
<path d="M924.5,657.6h313.7v-.7H924.5v.7Z" class="g1_1"/>
<path d="M1238.2,657.6h.8v-.7h-.8v.7Z" class="g1_1"/>
<path d="M47.1,692.6h.7v-35h-.7v35Z" class="g1_1"/>
<path d="M111.8,692.6h.8v-35h-.8v35Z" class="g1_1"/>
<path d="M923.8,692.6h.7v-35h-.7v35Z" class="g1_1"/>
<path d="M1238.2,692.6h.8v-35h-.8v35Z" class="g1_1"/>
<path d="M47.1,693.4h.7v-.8h-.7v.8Z" class="g1_1"/>
<path d="M47.8,693.4h64v-.8h-64v.8Z" class="g1_1"/>
<path d="M111.8,693.4h.8v-.8h-.8v.8Z" class="g1_1"/>
<path d="M112.6,693.4H923.8v-.8H112.6v.8Z" class="g1_1"/>
<path d="M923.8,693.4h.7v-.8h-.7v.8Z" class="g1_1"/>
<path d="M924.5,693.4h313.7v-.8H924.5v.8Z" class="g1_1"/>
<path d="M1238.2,693.4h.8v-.8h-.8v.8Z" class="g1_1"/>
<path d="M47.1,728.6h.7V693.4h-.7v35.2Z" class="g1_1"/>
<path d="M111.8,728.6h.8V693.4h-.8v35.2Z" class="g1_1"/>
<path d="M923.8,728.6h.7V693.4h-.7v35.2Z" class="g1_1"/>
<path d="M1238.2,728.6h.8V693.4h-.8v35.2Z" class="g1_1"/>
<path d="M47.1,729.3h.7v-.7h-.7v.7Z" class="g1_1"/>
<path d="M47.8,729.3h64v-.7h-64v.7Z" class="g1_1"/>
<path d="M111.8,729.3h.8v-.7h-.8v.7Z" class="g1_1"/>
<path d="M112.6,729.3H923.8v-.7H112.6v.7Z" class="g1_1"/>
<path d="M923.8,729.3h.7v-.7h-.7v.7Z" class="g1_1"/>
<path d="M924.5,729.3h313.7v-.7H924.5v.7Z" class="g1_1"/>
<path d="M1238.2,729.3h.8v-.7h-.8v.7Z" class="g1_1"/>
<path d="M47.1,751.1h.7V729.3h-.7v21.8Z" class="g1_1"/>
<path d="M111.8,751.1h.8V729.3h-.8v21.8Z" class="g1_1"/>
<path d="M923.8,751.1h.7V729.3h-.7v21.8Z" class="g1_1"/>
<path d="M1238.2,751.1h.8V729.3h-.8v21.8Z" class="g1_1"/>
<path d="M47.1,751.9h.7v-.8h-.7v.8Z" class="g1_1"/>
<path d="M47.8,751.9h64v-.8h-64v.8Z" class="g1_1"/>
<path d="M111.8,751.9h.8v-.8h-.8v.8Z" class="g1_1"/>
<path d="M112.6,751.9H923.8v-.8H112.6v.8Z" class="g1_1"/>
<path d="M923.8,751.9h.7v-.8h-.7v.8Z" class="g1_1"/>
<path d="M924.5,751.9h313.7v-.8H924.5v.8Z" class="g1_1"/>
<path d="M1238.2,751.9h.8v-.8h-.8v.8Z" class="g1_1"/>
<path d="M47.1,773.5h.7V751.8h-.7v21.7Z" class="g1_1"/>
<path d="M111.8,773.5h.8V751.8h-.8v21.7Z" class="g1_1"/>
<path d="M923.8,773.5h.7V751.8h-.7v21.7Z" class="g1_1"/>
<path d="M1238.2,773.5h.8V751.8h-.8v21.7Z" class="g1_1"/>
<path d="M47.1,774.2h.7v-.7h-.7v.7Z" class="g1_1"/>
<path d="M47.8,774.2h64v-.7h-64v.7Z" class="g1_1"/>
<path d="M111.8,774.2h.8v-.7h-.8v.7Z" class="g1_1"/>
<path d="M112.6,774.2H923.8v-.7H112.6v.7Z" class="g1_1"/>
<path d="M923.8,774.2h.7v-.7h-.7v.7Z" class="g1_1"/>
<path d="M924.5,774.2h313.7v-.7H924.5v.7Z" class="g1_1"/>
<path d="M1238.2,774.2h.8v-.7h-.8v.7Z" class="g1_1"/>
<path d="M47.1,796h.7V774.2h-.7V796Z" class="g1_1"/>
<path d="M111.8,796h.8V774.2h-.8V796Z" class="g1_1"/>
<path d="M923.8,796h.7V774.2h-.7V796Z" class="g1_1"/>
<path d="M1238.2,796h.8V774.2h-.8V796Z" class="g1_1"/>
<path d="M47.1,796.8h.7V796h-.7v.8Z" class="g1_1"/>
<path d="M47.8,796.8h64V796h-64v.8Z" class="g1_1"/>
<path d="M111.8,796.8h.8V796h-.8v.8Z" class="g1_1"/>
<path d="M112.6,796.8H923.8V796H112.6v.8Z" class="g1_1"/>
<path d="M923.8,796.8h.7V796h-.7v.8Z" class="g1_1"/>
<path d="M924.5,796.8h313.7V796H924.5v.8Z" class="g1_1"/>
<path d="M1238.2,796.8h.8V796h-.8v.8Z" class="g1_1"/>
<path d="M47.1,818.4h.7V796.8h-.7v21.6Z" class="g1_1"/>
<path d="M111.8,818.4h.8V796.8h-.8v21.6Z" class="g1_1"/>
<path d="M923.8,818.4h.7V796.8h-.7v21.6Z" class="g1_1"/>
<path d="M1238.2,818.4h.8V796.8h-.8v21.6Z" class="g1_1"/>
<path d="M47.1,819.1h.7v-.7h-.7v.7Z" class="g1_1"/>
<path d="M47.8,819.1h64v-.7h-64v.7Z" class="g1_1"/>
<path d="M111.8,819.1h.8v-.7h-.8v.7Z" class="g1_1"/>
<path d="M112.6,819.1H923.8v-.7H112.6v.7Z" class="g1_1"/>
<path d="M923.8,819.1h.7v-.7h-.7v.7Z" class="g1_1"/>
<path d="M924.5,819.1h313.7v-.7H924.5v.7Z" class="g1_1"/>
<path d="M1238.2,819.1h.8v-.7h-.8v.7Z" class="g1_1"/>
<path d="M47.1,841h.7V819.1h-.7V841Z" class="g1_1"/>
<path d="M47.1,841.7h.7v-.8h-.7v.8Z" class="g1_1"/>
<path d="M47.1,841.7h.7v-.8h-.7v.8Z" class="g1_1"/>
<path d="M47.8,841.7h64v-.8h-64v.8Z" class="g1_1"/>
<path d="M111.8,841h.8V819.1h-.8V841Z" class="g1_1"/>
<path d="M111.8,841.7h.8v-.8h-.8v.8Z" class="g1_1"/>
<path d="M112.6,841.7H923.8v-.8H112.6v.8Z" class="g1_1"/>
<path d="M923.8,841h.7V819.1h-.7V841Z" class="g1_1"/>
<path d="M923.8,841.7h.7v-.8h-.7v.8Z" class="g1_1"/>
<path d="M924.5,841.7h313.7v-.8H924.5v.8Z" class="g1_1"/>
<path d="M1238.2,841h.8V819.1h-.8V841Z" class="g1_1"/>
<path d="M1238.2,841.7h.8v-.8h-.8v.8Z" class="g1_1"/>
<path d="M1238.2,841.7h.8v-.8h-.8v.8Z" class="g1_1"/>
</svg>