<?xml version="1.0" encoding="UTF-8" standalone="no"?>
<!DOCTYPE svg PUBLIC "-//W3C//DTD SVG 1.1//EN"
"http://www.w3.org/Graphics/SVG/1.1/DTD/svg11.dtd">
<svg viewBox="0 0 1286 909" version="1.1" xmlns="http://www.w3.org/2000/svg" xmlns:xlink="http://www.w3.org/1999/xlink">
<defs>
<style type="text/css"><![CDATA[
.g0_1{
fill: #D9D9D9;
}
.g1_1{
}
]]></style>
</defs>
<path fill-rule="evenodd" d="M47.8,175.4H274.1V153.8H47.8v21.6Z" class="g0_1"/>
<path fill-rule="evenodd" d="M55.7,173.4H266.2V155.8H55.7v17.6Z" class="g0_1"/>
<path fill-rule="evenodd" d="M274.8,175.4H599.1V153.8H274.8v21.6Z" class="g0_1"/>
<path fill-rule="evenodd" d="M282.7,173.4H591.3V155.8H282.7v17.6Z" class="g0_1"/>
<path fill-rule="evenodd" d="M599.9,175.4h638.3V153.8H599.9v21.6Z" class="g0_1"/>
<path fill-rule="evenodd" d="M607.7,173.4h622.6V155.8H607.7v17.6Z" class="g0_1"/>
<path d="M47.1,153.8h.7v-.7h-.7v.7Z" class="g1_1"/>
<path d="M47.1,153.8h.7v-.7h-.7v.7Z" class="g1_1"/>
<path d="M47.8,153.8H274.1v-.7H47.8v.7Z" class="g1_1"/>
<path d="M274.1,153.8h.7v-.7h-.7v.7Z" class="g1_1"/>
<path d="M274.8,153.8H599.1v-.7H274.8v.7Z" class="g1_1"/>
<path d="M599.1,153.8h.8v-.7h-.8v.7Z" class="g1_1"/>
<path d="M599.9,153.8h638.3v-.7H599.9v.7Z" class="g1_1"/>
<path d="M1238.2,153.8h.8v-.7h-.8v.7Z" class="g1_1"/>
<path d="M1238.2,153.8h.8v-.7h-.8v.7Z" class="g1_1"/>
<path d="M47.1,175.4h.7V153.8h-.7v21.6Z" class="g1_1"/>
<path d="M274.1,175.4h.7V153.8h-.7v21.6Z" class="g1_1"/>
<path d="M599.1,175.4h.8V153.8h-.8v21.6Z" class="g1_1"/>
<path d="M1238.2,175.4h.8V153.8h-.8v21.6Z" class="g1_1"/>
<path d="M47.1,176.2h.7v-.8h-.7v.8Z" class="g1_1"/>
<path d="M47.8,176.2H274.1v-.8H47.8v.8Z" class="g1_1"/>
<path d="M274.1,176.2h.7v-.8h-.7v.8Z" class="g1_1"/>
<path d="M274.8,176.2H599.1v-.8H274.8v.8Z" class="g1_1"/>
<path d="M599.1,176.2h.8v-.8h-.8v.8Z" class="g1_1"/>
<path d="M599.9,176.2h638.3v-.8H599.9v.8Z" class="g1_1"/>
<path d="M1238.2,176.2h.8v-.8h-.8v.8Z" class="g1_1"/>
<path d="M47.1,229h.7V176.2h-.7V229Z" class="g1_1"/>
<path d="M274.1,229h.7V176.2h-.7V229Z" class="g1_1"/>
<path d="M599.1,229h.8V176.2h-.8V229Z" class="g1_1"/>
<path d="M1238.2,229h.8V176.2h-.8V229Z" class="g1_1"/>
<path d="M47.1,229.7h.7V229h-.7v.7Z" class="g1_1"/>
<path d="M47.8,229.7H274.1V229H47.8v.7Z" class="g1_1"/>
<path d="M274.1,229.7h.7V229h-.7v.7Z" class="g1_1"/>
<path d="M274.8,229.7H599.1V229H274.8v.7Z" class="g1_1"/>
<path d="M599.1,229.7h.8V229h-.8v.7Z" class="g1_1"/>
<path d="M599.9,229.7h638.3V229H599.9v.7Z" class="g1_1"/>
<path d="M1238.2,229.7h.8V229h-.8v.7Z" class="g1_1"/>
<path d="M47.1,282.5h.7V229.7h-.7v52.8Z" class="g1_1"/>
<path d="M274.1,282.5h.7V229.7h-.7v52.8Z" class="g1_1"/>
<path d="M599.1,282.5h.8V229.7h-.8v52.8Z" class="g1_1"/>
<path d="M1238.2,282.5h.8V229.7h-.8v52.8Z" class="g1_1"/>
<path d="M47.1,283.2h.7v-.7h-.7v.7Z" class="g1_1"/>
<path d="M47.8,283.2H274.1v-.7H47.8v.7Z" class="g1_1"/>
<path d="M274.1,283.2h.7v-.7h-.7v.7Z" class="g1_1"/>
<path d="M274.8,283.2H599.1v-.7H274.8v.7Z" class="g1_1"/>
<path d="M599.1,283.2h.8v-.7h-.8v.7Z" class="g1_1"/>
<path d="M599.9,283.2h638.3v-.7H599.9v.7Z" class="g1_1"/>
<path d="M1238.2,283.2h.8v-.7h-.8v.7Z" class="g1_1"/>
<path d="M47.1,339.5h.7V283.2h-.7v56.3Z" class="g1_1"/>
<path d="M274.1,339.5h.7V283.2h-.7v56.3Z" class="g1_1"/>
<path d="M599.1,339.5h.8V283.2h-.8v56.3Z" class="g1_1"/>
<path d="M1238.2,339.5h.8V283.2h-.8v56.3Z" class="g1_1"/>
<path d="M47.1,340.3h.7v-.8h-.7v.8Z" class="g1_1"/>
<path d="M47.8,340.3H274.1v-.8H47.8v.8Z" class="g1_1"/>
<path d="M274.1,340.3h.7v-.8h-.7v.8Z" class="g1_1"/>
<path d="M274.8,340.3H599.1v-.8H274.8v.8Z" class="g1_1"/>
<path d="M599.1,340.3h.8v-.8h-.8v.8Z" class="g1_1"/>
<path d="M599.9,340.3h638.3v-.8H599.9v.8Z" class="g1_1"/>
<path d="M1238.2,340.3h.8v-.8h-.8v.8Z" class="g1_1"/>
<path d="M47.1,375.3h.7v-35h-.7v35Z" class="g1_1"/>
<path d="M274.1,375.3h.7v-35h-.7v35Z" class="g1_1"/>
<path d="M599.1,375.3h.8v-35h-.8v35Z" class="g1_1"/>
<path d="M1238.2,375.3h.8v-35h-.8v35Z" class="g1_1"/>
<path d="M47.1,376h.7v-.7h-.7v.7Z" class="g1_1"/>
<path d="M47.8,376H274.1v-.7H47.8v.7Z" class="g1_1"/>
<path d="M274.1,376h.7v-.7h-.7v.7Z" class="g1_1"/>
<path d="M274.8,376H599.1v-.7H274.8v.7Z" class="g1_1"/>
<path d="M599.1,376h.8v-.7h-.8v.7Z" class="g1_1"/>
<path d="M599.9,376h638.3v-.7H599.9v.7Z" class="g1_1"/>
<path d="M1238.2,376h.8v-.7h-.8v.7Z" class="g1_1"/>
<path d="M47.1,411.2h.7V376h-.7v35.2Z" class="g1_1"/>
<path d="M274.1,411.2h.7V376h-.7v35.2Z" class="g1_1"/>
<path d="M599.1,411.2h.8V376h-.8v35.2Z" class="g1_1"/>
<path d="M1238.2,411.2h.8V376h-.8v35.2Z" class="g1_1"/>
<path d="M47.1,412h.7v-.8h-.7v.8Z" class="g1_1"/>
<path d="M47.8,412H274.1v-.8H47.8v.8Z" class="g1_1"/>
<path d="M274.1,412h.7v-.8h-.7v.8Z" class="g1_1"/>
<path d="M274.8,412H599.1v-.8H274.8v.8Z" class="g1_1"/>
<path d="M599.1,412h.8v-.8h-.8v.8Z" class="g1_1"/>
<path d="M599.9,412h638.3v-.8H599.9v.8Z" class="g1_1"/>
<path d="M1238.2,412h.8v-.8h-.8v.8Z" class="g1_1"/>
<path d="M47.1,447.1h.7V411.9h-.7v35.2Z" class="g1_1"/>
<path d="M274.1,447.1h.7V411.9h-.7v35.2Z" class="g1_1"/>
<path d="M599.1,447.1h.8V411.9h-.8v35.2Z" class="g1_1"/>
<path d="M1238.2,447.1h.8V411.9h-.8v35.2Z" class="g1_1"/>
<path d="M47.1,447.9h.7v-.8h-.7v.8Z" class="g1_1"/>
<path d="M47.8,447.9H274.1v-.8H47.8v.8Z" class="g1_1"/>
<path d="M274.1,447.9h.7v-.8h-.7v.8Z" class="g1_1"/>
<path d="M274.8,447.9H599.1v-.8H274.8v.8Z" class="g1_1"/>
<path d="M599.1,447.9h.8v-.8h-.8v.8Z" class="g1_1"/>
<path d="M599.9,447.9h638.3v-.8H599.9v.8Z" class="g1_1"/>
<path d="M1238.2,447.9h.8v-.8h-.8v.8Z" class="g1_1"/>
<path d="M47.1,500.7h.7V447.9h-.7v52.8Z" class="g1_1"/>
<path d="M274.1,500.7h.7V447.9h-.7v52.8Z" class="g1_1"/>
<path d="M599.1,500.7h.8V447.9h-.8v52.8Z" class="g1_1"/>
<path d="M1238.2,500.7h.8V447.9h-.8v52.8Z" class="g1_1"/>
<path d="M47.1,501.4h.7v-.7h-.7v.7Z" class="g1_1"/>
<path d="M47.8,501.4H274.1v-.7H47.8v.7Z" class="g1_1"/>
<path d="M274.1,501.4h.7v-.7h-.7v.7Z" class="g1_1"/>
<path d="M274.8,501.4H599.1v-.7H274.8v.7Z" class="g1_1"/>
<path d="M599.1,501.4h.8v-.7h-.8v.7Z" class="g1_1"/>
<path d="M599.9,501.4h638.3v-.7H599.9v.7Z" class="g1_1"/>
<path d="M1238.2,501.4h.8v-.7h-.8v.7Z" class="g1_1"/>
<path d="M47.1,571.6h.7V501.4h-.7v70.2Z" class="g1_1"/>
<path d="M274.1,571.6h.7V501.4h-.7v70.2Z" class="g1_1"/>
<path d="M599.1,571.6h.8V501.4h-.8v70.2Z" class="g1_1"/>
<path d="M1238.2,571.6h.8V501.4h-.8v70.2Z" class="g1_1"/>
<path d="M47.1,572.4h.7v-.8h-.7v.8Z" class="g1_1"/>
<path d="M47.8,572.4H274.1v-.8H47.8v.8Z" class="g1_1"/>
<path d="M274.1,572.4h.7v-.8h-.7v.8Z" class="g1_1"/>
<path d="M274.8,572.4H599.1v-.8H274.8v.8Z" class="g1_1"/>
<path d="M599.1,572.4h.8v-.8h-.8v.8Z" class="g1_1"/>
<path d="M599.9,572.4h638.3v-.8H599.9v.8Z" class="g1_1"/>
<path d="M1238.2,572.4h.8v-.8h-.8v.8Z" class="g1_1"/>
<path d="M47.1,607.6h.7V572.4h-.7v35.2Z" class="g1_1"/>
<path d="M274.1,607.6h.7V572.4h-.7v35.2Z" class="g1_1"/>
<path d="M599.1,607.6h.8V572.4h-.8v35.2Z" class="g1_1"/>
<path d="M1238.2,607.6h.8V572.4h-.8v35.2Z" class="g1_1"/>
<path d="M47.1,608.3h.7v-.7h-.7v.7Z" class="g1_1"/>
<path d="M47.8,608.3H274.1v-.7H47.8v.7Z" class="g1_1"/>
<path d="M274.1,608.3h.7v-.7h-.7v.7Z" class="g1_1"/>
<path d="M274.8,608.3H599.1v-.7H274.8v.7Z" class="g1_1"/>
<path d="M599.1,608.3h.8v-.7h-.8v.7Z" class="g1_1"/>
<path d="M599.9,608.3h638.3v-.7H599.9v.7Z" class="g1_1"/>
<path d="M1238.2,608.3h.8v-.7h-.8v.7Z" class="g1_1"/>
<path d="M47.1,643.5h.7V608.3h-.7v35.2Z" class="g1_1"/>
<path d="M274.1,643.5h.7V608.3h-.7v35.2Z" class="g1_1"/>
<path d="M599.1,643.5h.8V608.3h-.8v35.2Z" class="g1_1"/>
<path d="M1238.2,643.5h.8V608.3h-.8v35.2Z" class="g1_1"/>
<path d="M47.1,644.2h.7v-.7h-.7v.7Z" class="g1_1"/>
<path d="M47.8,644.2H274.1v-.7H47.8v.7Z" class="g1_1"/>
<path d="M274.1,644.2h.7v-.7h-.7v.7Z" class="g1_1"/>
<path d="M274.8,644.2H599.1v-.7H274.8v.7Z" class="g1_1"/>
<path d="M599.1,644.2h.8v-.7h-.8v.7Z" class="g1_1"/>
<path d="M599.9,644.2h638.3v-.7H599.9v.7Z" class="g1_1"/>
<path d="M1238.2,644.2h.8v-.7h-.8v.7Z" class="g1_1"/>
<path d="M47.1,679.4h.7V644.2h-.7v35.2Z" class="g1_1"/>
<path d="M274.1,679.4h.7V644.2h-.7v35.2Z" class="g1_1"/>
<path d="M599.1,679.4h.8V644.2h-.8v35.2Z" class="g1_1"/>
<path d="M1238.2,679.4h.8V644.2h-.8v35.2Z" class="g1_1"/>
<path d="M47.1,680.2h.7v-.8h-.7v.8Z" class="g1_1"/>
<path d="M47.8,680.2H274.1v-.8H47.8v.8Z" class="g1_1"/>
<path d="M274.1,680.2h.7v-.8h-.7v.8Z" class="g1_1"/>
<path d="M274.8,680.2H599.1v-.8H274.8v.8Z" class="g1_1"/>
<path d="M599.1,680.2h.8v-.8h-.8v.8Z" class="g1_1"/>
<path d="M599.9,680.2h638.3v-.8H599.9v.8Z" class="g1_1"/>
<path d="M1238.2,680.2h.8v-.8h-.8v.8Z" class="g1_1"/>
<path d="M47.1,715.2h.7v-35h-.7v35Z" class="g1_1"/>
<path d="M274.1,715.2h.7v-35h-.7v35Z" class="g1_1"/>
<path d="M599.1,715.2h.8v-35h-.8v35Z" class="g1_1"/>
<path d="M1238.2,715.2h.8v-35h-.8v35Z" class="g1_1"/>
<path d="M47.1,715.9h.7v-.7h-.7v.7Z" class="g1_1"/>
<path d="M47.8,715.9H274.1v-.7H47.8v.7Z" class="g1_1"/>
<path d="M274.1,715.9h.7v-.7h-.7v.7Z" class="g1_1"/>
<path d="M274.8,715.9H599.1v-.7H274.8v.7Z" class="g1_1"/>
<path d="M599.1,715.9h.8v-.7h-.8v.7Z" class="g1_1"/>
<path d="M599.9,715.9h638.3v-.7H599.9v.7Z" class="g1_1"/>
<path d="M1238.2,715.9h.8v-.7h-.8v.7Z" class="g1_1"/>
<path d="M47.1,751.1h.7V715.9h-.7v35.2Z" class="g1_1"/>
<path d="M274.1,751.1h.7V715.9h-.7v35.2Z" class="g1_1"/>
<path d="M599.1,751.1h.8V715.9h-.8v35.2Z" class="g1_1"/>
<path d="M1238.2,751.1h.8V715.9h-.8v35.2Z" class="g1_1"/>
<path d="M47.1,751.9h.7v-.8h-.7v.8Z" class="g1_1"/>
<path d="M47.8,751.9H274.1v-.8H47.8v.8Z" class="g1_1"/>
<path d="M274.1,751.9h.7v-.8h-.7v.8Z" class="g1_1"/>
<path d="M274.8,751.9H599.1v-.8H274.8v.8Z" class="g1_1"/>
<path d="M599.1,751.9h.8v-.8h-.8v.8Z" class="g1_1"/>
<path d="M599.9,751.9h638.3v-.8H599.9v.8Z" class="g1_1"/>
<path d="M1238.2,751.9h.8v-.8h-.8v.8Z" class="g1_1"/>
<path d="M47.1,822.3h.7V751.9h-.7v70.4Z" class="g1_1"/>
<path d="M274.1,822.3h.7V751.9h-.7v70.4Z" class="g1_1"/>
<path d="M599.1,822.3h.8V751.9h-.8v70.4Z" class="g1_1"/>
<path d="M1238.2,822.3h.8V751.9h-.8v70.4Z" class="g1_1"/>
<path d="M47.1,823h.7v-.8h-.7v.8Z" class="g1_1"/>
<path d="M47.8,823H274.1v-.8H47.8v.8Z" class="g1_1"/>
<path d="M274.1,823h.7v-.8h-.7v.8Z" class="g1_1"/>
<path d="M274.8,823H599.1v-.8H274.8v.8Z" class="g1_1"/>
<path d="M599.1,823h.8v-.8h-.8v.8Z" class="g1_1"/>
<path d="M599.9,823h638.3v-.8H599.9v.8Z" class="g1_1"/>
<path d="M1238.2,823h.8v-.8h-.8v.8Z" class="g1_1"/>
<path d="M47.1,858.2h.7V823h-.7v35.2Z" class="g1_1"/>
<path d="M47.1,858.9h.7v-.7h-.7v.7Z" class="g1_1"/>
<path d="M47.1,858.9h.7v-.7h-.7v.7Z" class="g1_1"/>
<path d="M47.8,858.9H274.1v-.7H47.8v.7Z" class="g1_1"/>
<path d="M274.1,858.2h.7V823h-.7v35.2Z" class="g1_1"/>
<path d="M274.1,858.9h.7v-.7h-.7v.7Z" class="g1_1"/>
<path d="M274.8,858.9H599.1v-.7H274.8v.7Z" class="g1_1"/>
<path d="M599.1,858.2h.8V823h-.8v35.2Z" class="g1_1"/>
<path d="M599.1,858.9h.8v-.7h-.8v.7Z" class="g1_1"/>
<path d="M599.9,858.9h638.3v-.7H599.9v.7Z" class="g1_1"/>
<path d="M1238.2,858.2h.8V823h-.8v35.2Z" class="g1_1"/>
<path d="M1238.2,858.9h.8v-.7h-.8v.7Z" class="g1_1"/>
<path d="M1238.2,858.9h.8v-.7h-.8v.7Z" class="g1_1"/>
</svg>