<?xml version="1.0" encoding="UTF-8" standalone="no"?>
<!DOCTYPE svg PUBLIC "-//W3C//DTD SVG 1.1//EN"
"http://www.w3.org/Graphics/SVG/1.1/DTD/svg11.dtd">
<svg viewBox="0 0 1286 909" version="1.1" xmlns="http://www.w3.org/2000/svg" xmlns:xlink="http://www.w3.org/1999/xlink">
<defs>
<style type="text/css"><![CDATA[
.g0_1{
fill: #D9D9D9;
}
.g1_1{
}
]]></style>
</defs>
<path fill-rule="evenodd" d="M47.8,175.4H274.1V153.8H47.8v21.6Z" class="g0_1"/>
<path fill-rule="evenodd" d="M55.7,173.4H266.2V155.8H55.7v17.6Z" class="g0_1"/>
<path fill-rule="evenodd" d="M274.8,175.4H599.1V153.8H274.8v21.6Z" class="g0_1"/>
<path fill-rule="evenodd" d="M282.7,173.4H591.3V155.8H282.7v17.6Z" class="g0_1"/>
<path fill-rule="evenodd" d="M599.9,175.4h638.3V153.8H599.9v21.6Z" class="g0_1"/>
<path fill-rule="evenodd" d="M607.7,173.4h622.6V155.8H607.7v17.6Z" class="g0_1"/>
<path d="M47.1,153.8h.7v-.7h-.7v.7Z" class="g1_1"/>
<path d="M47.1,153.8h.7v-.7h-.7v.7Z" class="g1_1"/>
<path d="M47.8,153.8H274.1v-.7H47.8v.7Z" class="g1_1"/>
<path d="M274.1,153.8h.7v-.7h-.7v.7Z" class="g1_1"/>
<path d="M274.8,153.8H599.1v-.7H274.8v.7Z" class="g1_1"/>
<path d="M599.1,153.8h.8v-.7h-.8v.7Z" class="g1_1"/>
<path d="M599.9,153.8h638.3v-.7H599.9v.7Z" class="g1_1"/>
<path d="M1238.2,153.8h.8v-.7h-.8v.7Z" class="g1_1"/>
<path d="M1238.2,153.8h.8v-.7h-.8v.7Z" class="g1_1"/>
<path d="M47.1,175.4h.7V153.8h-.7v21.6Z" class="g1_1"/>
<path d="M274.1,175.4h.7V153.8h-.7v21.6Z" class="g1_1"/>
<path d="M599.1,175.4h.8V153.8h-.8v21.6Z" class="g1_1"/>
<path d="M1238.2,175.4h.8V153.8h-.8v21.6Z" class="g1_1"/>
<path d="M47.1,176.2h.7v-.8h-.7v.8Z" class="g1_1"/>
<path d="M47.8,176.2H274.1v-.8H47.8v.8Z" class="g1_1"/>
<path d="M274.1,176.2h.7v-.8h-.7v.8Z" class="g1_1"/>
<path d="M274.8,176.2H599.1v-.8H274.8v.8Z" class="g1_1"/>
<path d="M599.1,176.2h.8v-.8h-.8v.8Z" class="g1_1"/>
<path d="M599.9,176.2h638.3v-.8H599.9v.8Z" class="g1_1"/>
<path d="M1238.2,176.2h.8v-.8h-.8v.8Z" class="g1_1"/>
<path d="M47.1,229h.7V176.2h-.7V229Z" class="g1_1"/>
<path d="M274.1,229h.7V176.2h-.7V229Z" class="g1_1"/>
<path d="M599.1,229h.8V176.2h-.8V229Z" class="g1_1"/>
<path d="M1238.2,229h.8V176.2h-.8V229Z" class="g1_1"/>
<path d="M47.1,229.7h.7V229h-.7v.7Z" class="g1_1"/>
<path d="M47.8,229.7H274.1V229H47.8v.7Z" class="g1_1"/>
<path d="M274.1,229.7h.7V229h-.7v.7Z" class="g1_1"/>
<path d="M274.8,229.7H599.1V229H274.8v.7Z" class="g1_1"/>
<path d="M599.1,229.7h.8V229h-.8v.7Z" class="g1_1"/>
<path d="M599.9,229.7h638.3V229H599.9v.7Z" class="g1_1"/>
<path d="M1238.2,229.7h.8V229h-.8v.7Z" class="g1_1"/>
<path d="M47.1,282.5h.7V229.7h-.7v52.8Z" class="g1_1"/>
<path d="M274.1,282.5h.7V229.7h-.7v52.8Z" class="g1_1"/>
<path d="M599.1,282.5h.8V229.7h-.8v52.8Z" class="g1_1"/>
<path d="M1238.2,282.5h.8V229.7h-.8v52.8Z" class="g1_1"/>
<path d="M47.1,283.2h.7v-.7h-.7v.7Z" class="g1_1"/>
<path d="M47.8,283.2H274.1v-.7H47.8v.7Z" class="g1_1"/>
<path d="M274.1,283.2h.7v-.7h-.7v.7Z" class="g1_1"/>
<path d="M274.8,283.2H599.1v-.7H274.8v.7Z" class="g1_1"/>
<path d="M599.1,283.2h.8v-.7h-.8v.7Z" class="g1_1"/>
<path d="M599.9,283.2h638.3v-.7H599.9v.7Z" class="g1_1"/>
<path d="M1238.2,283.2h.8v-.7h-.8v.7Z" class="g1_1"/>
<path d="M47.1,335.9h.7V283.2h-.7v52.7Z" class="g1_1"/>
<path d="M274.1,335.9h.7V283.2h-.7v52.7Z" class="g1_1"/>
<path d="M599.1,335.9h.8V283.2h-.8v52.7Z" class="g1_1"/>
<path d="M1238.2,335.9h.8V283.2h-.8v52.7Z" class="g1_1"/>
<path d="M47.1,336.6h.7v-.7h-.7v.7Z" class="g1_1"/>
<path d="M47.8,336.6H274.1v-.7H47.8v.7Z" class="g1_1"/>
<path d="M274.1,336.6h.7v-.7h-.7v.7Z" class="g1_1"/>
<path d="M274.8,336.6H599.1v-.7H274.8v.7Z" class="g1_1"/>
<path d="M599.1,336.6h.8v-.7h-.8v.7Z" class="g1_1"/>
<path d="M599.9,336.6h638.3v-.7H599.9v.7Z" class="g1_1"/>
<path d="M1238.2,336.6h.8v-.7h-.8v.7Z" class="g1_1"/>
<path d="M47.1,392.9h.7V336.6h-.7v56.3Z" class="g1_1"/>
<path d="M274.1,392.9h.7V336.6h-.7v56.3Z" class="g1_1"/>
<path d="M599.1,392.9h.8V336.6h-.8v56.3Z" class="g1_1"/>
<path d="M1238.2,392.9h.8V336.6h-.8v56.3Z" class="g1_1"/>
<path d="M47.1,393.6h.7v-.7h-.7v.7Z" class="g1_1"/>
<path d="M47.8,393.6H274.1v-.7H47.8v.7Z" class="g1_1"/>
<path d="M274.1,393.6h.7v-.7h-.7v.7Z" class="g1_1"/>
<path d="M274.8,393.6H599.1v-.7H274.8v.7Z" class="g1_1"/>
<path d="M599.1,393.6h.8v-.7h-.8v.7Z" class="g1_1"/>
<path d="M599.9,393.6h638.3v-.7H599.9v.7Z" class="g1_1"/>
<path d="M1238.2,393.6h.8v-.7h-.8v.7Z" class="g1_1"/>
<path d="M47.1,428.8h.7V393.6h-.7v35.2Z" class="g1_1"/>
<path d="M274.1,428.8h.7V393.6h-.7v35.2Z" class="g1_1"/>
<path d="M599.1,428.8h.8V393.6h-.8v35.2Z" class="g1_1"/>
<path d="M1238.2,428.8h.8V393.6h-.8v35.2Z" class="g1_1"/>
<path d="M47.1,429.6h.7v-.8h-.7v.8Z" class="g1_1"/>
<path d="M47.8,429.6H274.1v-.8H47.8v.8Z" class="g1_1"/>
<path d="M274.1,429.6h.7v-.8h-.7v.8Z" class="g1_1"/>
<path d="M274.8,429.6H599.1v-.8H274.8v.8Z" class="g1_1"/>
<path d="M599.1,429.6h.8v-.8h-.8v.8Z" class="g1_1"/>
<path d="M599.9,429.6h638.3v-.8H599.9v.8Z" class="g1_1"/>
<path d="M1238.2,429.6h.8v-.8h-.8v.8Z" class="g1_1"/>
<path d="M47.1,464.8h.7V429.6h-.7v35.2Z" class="g1_1"/>
<path d="M274.1,464.8h.7V429.6h-.7v35.2Z" class="g1_1"/>
<path d="M599.1,464.8h.8V429.6h-.8v35.2Z" class="g1_1"/>
<path d="M1238.2,464.8h.8V429.6h-.8v35.2Z" class="g1_1"/>
<path d="M47.1,465.5h.7v-.8h-.7v.8Z" class="g1_1"/>
<path d="M47.8,465.5H274.1v-.8H47.8v.8Z" class="g1_1"/>
<path d="M274.1,465.5h.7v-.8h-.7v.8Z" class="g1_1"/>
<path d="M274.8,465.5H599.1v-.8H274.8v.8Z" class="g1_1"/>
<path d="M599.1,465.5h.8v-.8h-.8v.8Z" class="g1_1"/>
<path d="M599.9,465.5h638.3v-.8H599.9v.8Z" class="g1_1"/>
<path d="M1238.2,465.5h.8v-.8h-.8v.8Z" class="g1_1"/>
<path d="M47.1,500.7h.7V465.5h-.7v35.2Z" class="g1_1"/>
<path d="M274.1,500.7h.7V465.5h-.7v35.2Z" class="g1_1"/>
<path d="M599.1,500.7h.8V465.5h-.8v35.2Z" class="g1_1"/>
<path d="M1238.2,500.7h.8V465.5h-.8v35.2Z" class="g1_1"/>
<path d="M47.1,501.4h.7v-.7h-.7v.7Z" class="g1_1"/>
<path d="M47.8,501.4H274.1v-.7H47.8v.7Z" class="g1_1"/>
<path d="M274.1,501.4h.7v-.7h-.7v.7Z" class="g1_1"/>
<path d="M274.8,501.4H599.1v-.7H274.8v.7Z" class="g1_1"/>
<path d="M599.1,501.4h.8v-.7h-.8v.7Z" class="g1_1"/>
<path d="M599.9,501.4h638.3v-.7H599.9v.7Z" class="g1_1"/>
<path d="M1238.2,501.4h.8v-.7h-.8v.7Z" class="g1_1"/>
<path d="M47.1,536.4h.7v-35h-.7v35Z" class="g1_1"/>
<path d="M274.1,536.4h.7v-35h-.7v35Z" class="g1_1"/>
<path d="M599.1,536.4h.8v-35h-.8v35Z" class="g1_1"/>
<path d="M1238.2,536.4h.8v-35h-.8v35Z" class="g1_1"/>
<path d="M47.1,537.2h.7v-.8h-.7v.8Z" class="g1_1"/>
<path d="M47.8,537.2H274.1v-.8H47.8v.8Z" class="g1_1"/>
<path d="M274.1,537.2h.7v-.8h-.7v.8Z" class="g1_1"/>
<path d="M274.8,537.2H599.1v-.8H274.8v.8Z" class="g1_1"/>
<path d="M599.1,537.2h.8v-.8h-.8v.8Z" class="g1_1"/>
<path d="M599.9,537.2h638.3v-.8H599.9v.8Z" class="g1_1"/>
<path d="M1238.2,537.2h.8v-.8h-.8v.8Z" class="g1_1"/>
<path d="M47.1,590h.7V537.2h-.7V590Z" class="g1_1"/>
<path d="M274.1,590h.7V537.2h-.7V590Z" class="g1_1"/>
<path d="M599.1,590h.8V537.2h-.8V590Z" class="g1_1"/>
<path d="M1238.2,590h.8V537.2h-.8V590Z" class="g1_1"/>
<path d="M47.1,590.7h.7V590h-.7v.7Z" class="g1_1"/>
<path d="M47.8,590.7H274.1V590H47.8v.7Z" class="g1_1"/>
<path d="M274.1,590.7h.7V590h-.7v.7Z" class="g1_1"/>
<path d="M274.8,590.7H599.1V590H274.8v.7Z" class="g1_1"/>
<path d="M599.1,590.7h.8V590h-.8v.7Z" class="g1_1"/>
<path d="M599.9,590.7h638.3V590H599.9v.7Z" class="g1_1"/>
<path d="M1238.2,590.7h.8V590h-.8v.7Z" class="g1_1"/>
<path d="M47.1,643.5h.7V590.7h-.7v52.8Z" class="g1_1"/>
<path d="M274.1,643.5h.7V590.7h-.7v52.8Z" class="g1_1"/>
<path d="M599.1,643.5h.8V590.7h-.8v52.8Z" class="g1_1"/>
<path d="M1238.2,643.5h.8V590.7h-.8v52.8Z" class="g1_1"/>
<path d="M47.1,644.2h.7v-.7h-.7v.7Z" class="g1_1"/>
<path d="M47.8,644.2H274.1v-.7H47.8v.7Z" class="g1_1"/>
<path d="M274.1,644.2h.7v-.7h-.7v.7Z" class="g1_1"/>
<path d="M274.8,644.2H599.1v-.7H274.8v.7Z" class="g1_1"/>
<path d="M599.1,644.2h.8v-.7h-.8v.7Z" class="g1_1"/>
<path d="M599.9,644.2h638.3v-.7H599.9v.7Z" class="g1_1"/>
<path d="M1238.2,644.2h.8v-.7h-.8v.7Z" class="g1_1"/>
<path d="M47.1,714.5h.7V644.2h-.7v70.3Z" class="g1_1"/>
<path d="M274.1,714.5h.7V644.2h-.7v70.3Z" class="g1_1"/>
<path d="M599.1,714.5h.8V644.2h-.8v70.3Z" class="g1_1"/>
<path d="M1238.2,714.5h.8V644.2h-.8v70.3Z" class="g1_1"/>
<path d="M47.1,715.2h.7v-.8h-.7v.8Z" class="g1_1"/>
<path d="M47.8,715.2H274.1v-.8H47.8v.8Z" class="g1_1"/>
<path d="M274.1,715.2h.7v-.8h-.7v.8Z" class="g1_1"/>
<path d="M274.8,715.2H599.1v-.8H274.8v.8Z" class="g1_1"/>
<path d="M599.1,715.2h.8v-.8h-.8v.8Z" class="g1_1"/>
<path d="M599.9,715.2h638.3v-.8H599.9v.8Z" class="g1_1"/>
<path d="M1238.2,715.2h.8v-.8h-.8v.8Z" class="g1_1"/>
<path d="M47.1,750.4h.7V715.2h-.7v35.2Z" class="g1_1"/>
<path d="M274.1,750.4h.7V715.2h-.7v35.2Z" class="g1_1"/>
<path d="M599.1,750.4h.8V715.2h-.8v35.2Z" class="g1_1"/>
<path d="M1238.2,750.4h.8V715.2h-.8v35.2Z" class="g1_1"/>
<path d="M47.1,751.1h.7v-.7h-.7v.7Z" class="g1_1"/>
<path d="M47.8,751.1H274.1v-.7H47.8v.7Z" class="g1_1"/>
<path d="M274.1,751.1h.7v-.7h-.7v.7Z" class="g1_1"/>
<path d="M274.8,751.1H599.1v-.7H274.8v.7Z" class="g1_1"/>
<path d="M599.1,751.1h.8v-.7h-.8v.7Z" class="g1_1"/>
<path d="M599.9,751.1h638.3v-.7H599.9v.7Z" class="g1_1"/>
<path d="M1238.2,751.1h.8v-.7h-.8v.7Z" class="g1_1"/>
<path d="M47.1,786.3h.7V751.1h-.7v35.2Z" class="g1_1"/>
<path d="M274.1,786.3h.7V751.1h-.7v35.2Z" class="g1_1"/>
<path d="M599.1,786.3h.8V751.1h-.8v35.2Z" class="g1_1"/>
<path d="M1238.2,786.3h.8V751.1h-.8v35.2Z" class="g1_1"/>
<path d="M47.1,787.1h.7v-.8h-.7v.8Z" class="g1_1"/>
<path d="M47.8,787.1H274.1v-.8H47.8v.8Z" class="g1_1"/>
<path d="M274.1,787.1h.7v-.8h-.7v.8Z" class="g1_1"/>
<path d="M274.8,787.1H599.1v-.8H274.8v.8Z" class="g1_1"/>
<path d="M599.1,787.1h.8v-.8h-.8v.8Z" class="g1_1"/>
<path d="M599.9,787.1h638.3v-.8H599.9v.8Z" class="g1_1"/>
<path d="M1238.2,787.1h.8v-.8h-.8v.8Z" class="g1_1"/>
<path d="M47.1,822.3h.7V787.1h-.7v35.2Z" class="g1_1"/>
<path d="M274.1,822.3h.7V787.1h-.7v35.2Z" class="g1_1"/>
<path d="M599.1,822.3h.8V787.1h-.8v35.2Z" class="g1_1"/>
<path d="M1238.2,822.3h.8V787.1h-.8v35.2Z" class="g1_1"/>
<path d="M47.1,823h.7v-.8h-.7v.8Z" class="g1_1"/>
<path d="M47.8,823H274.1v-.8H47.8v.8Z" class="g1_1"/>
<path d="M274.1,823h.7v-.8h-.7v.8Z" class="g1_1"/>
<path d="M274.8,823H599.1v-.8H274.8v.8Z" class="g1_1"/>
<path d="M599.1,823h.8v-.8h-.8v.8Z" class="g1_1"/>
<path d="M599.9,823h638.3v-.8H599.9v.8Z" class="g1_1"/>
<path d="M1238.2,823h.8v-.8h-.8v.8Z" class="g1_1"/>
<path d="M47.1,858.2h.7V823h-.7v35.2Z" class="g1_1"/>
<path d="M47.1,858.9h.7v-.7h-.7v.7Z" class="g1_1"/>
<path d="M47.1,858.9h.7v-.7h-.7v.7Z" class="g1_1"/>
<path d="M47.8,858.9H274.1v-.7H47.8v.7Z" class="g1_1"/>
<path d="M274.1,858.2h.7V823h-.7v35.2Z" class="g1_1"/>
<path d="M274.1,858.9h.7v-.7h-.7v.7Z" class="g1_1"/>
<path d="M274.8,858.9H599.1v-.7H274.8v.7Z" class="g1_1"/>
<path d="M599.1,858.2h.8V823h-.8v35.2Z" class="g1_1"/>
<path d="M599.1,858.9h.8v-.7h-.8v.7Z" class="g1_1"/>
<path d="M599.9,858.9h638.3v-.7H599.9v.7Z" class="g1_1"/>
<path d="M1238.2,858.2h.8V823h-.8v35.2Z" class="g1_1"/>
<path d="M1238.2,858.9h.8v-.7h-.8v.7Z" class="g1_1"/>
<path d="M1238.2,858.9h.8v-.7h-.8v.7Z" class="g1_1"/>
</svg>