<?xml version="1.0" encoding="UTF-8" standalone="no"?>
<!DOCTYPE svg PUBLIC "-//W3C//DTD SVG 1.1//EN"
"http://www.w3.org/Graphics/SVG/1.1/DTD/svg11.dtd">
<svg viewBox="0 0 1286 909" version="1.1" xmlns="http://www.w3.org/2000/svg" xmlns:xlink="http://www.w3.org/1999/xlink">
<defs>
<style type="text/css"><![CDATA[
.g0{
fill: #D9D9D9;
}
.g1{
}
]]></style>
</defs>
<path fill-rule="evenodd" d="M47.8,65.8H664V44H47.8V65.8Z" class="g0"/>
<path fill-rule="evenodd" d="M55.7,63.6H656.2V46.2H55.7V63.6Z" class="g0"/>
<path fill-rule="evenodd" d="M664.8,65.8H951.1V44H664.8V65.8Z" class="g0"/>
<path fill-rule="evenodd" d="M672.7,63.6H943.3V46.2H672.7V63.6Z" class="g0"/>
<path fill-rule="evenodd" d="M951.9,65.8h286.3V44H951.9V65.8Z" class="g0"/>
<path fill-rule="evenodd" d="M959.8,63.6h270.6V46.2H959.8V63.6Z" class="g0"/>
<path d="M47.1,44h.7v-.7h-.7V44Z" class="g1"/>
<path d="M47.1,44h.7v-.7h-.7V44Z" class="g1"/>
<path d="M47.8,44H664v-.7H47.8V44Z" class="g1"/>
<path d="M664,44h.8v-.7H664V44Z" class="g1"/>
<path d="M664.8,44H951.1v-.7H664.8V44Z" class="g1"/>
<path d="M951.1,44h.8v-.7h-.8V44Z" class="g1"/>
<path d="M951.9,44h286.3v-.7H951.9V44Z" class="g1"/>
<path d="M1238.2,44h.8v-.7h-.8V44Z" class="g1"/>
<path d="M1238.2,44h.8v-.7h-.8V44Z" class="g1"/>
<path d="M47.1,65.8h.7V44h-.7V65.8Z" class="g1"/>
<path d="M664,65.8h.8V44H664V65.8Z" class="g1"/>
<path d="M951.1,65.8h.8V44h-.8V65.8Z" class="g1"/>
<path d="M1238.2,65.8h.8V44h-.8V65.8Z" class="g1"/>
<path d="M47.1,66.5h.7v-.7h-.7v.7Z" class="g1"/>
<path d="M47.8,66.5H664v-.7H47.8v.7Z" class="g1"/>
<path d="M664,66.5h.8v-.7H664v.7Z" class="g1"/>
<path d="M664.8,66.5H951.1v-.7H664.8v.7Z" class="g1"/>
<path d="M951.1,66.5h.8v-.7h-.8v.7Z" class="g1"/>
<path d="M951.9,66.5h286.3v-.7H951.9v.7Z" class="g1"/>
<path d="M1238.2,66.5h.8v-.7h-.8v.7Z" class="g1"/>
<path d="M47.1,88.2h.7V66.5h-.7V88.2Z" class="g1"/>
<path d="M664,88.2h.8V66.5H664V88.2Z" class="g1"/>
<path d="M951.1,88.2h.8V66.5h-.8V88.2Z" class="g1"/>
<path d="M1238.2,88.2h.8V66.5h-.8V88.2Z" class="g1"/>
<path d="M47.1,88.9h.7v-.7h-.7v.7Z" class="g1"/>
<path d="M47.8,88.9H664v-.7H47.8v.7Z" class="g1"/>
<path d="M664,88.9h.8v-.7H664v.7Z" class="g1"/>
<path d="M664.8,88.9H951.1v-.7H664.8v.7Z" class="g1"/>
<path d="M951.1,88.9h.8v-.7h-.8v.7Z" class="g1"/>
<path d="M951.9,88.9h286.3v-.7H951.9v.7Z" class="g1"/>
<path d="M1238.2,88.9h.8v-.7h-.8v.7Z" class="g1"/>
<path d="M47.1,110.7h.7V88.9h-.7v21.8Z" class="g1"/>
<path d="M664,110.7h.8V88.9H664v21.8Z" class="g1"/>
<path d="M951.1,110.7h.8V88.9h-.8v21.8Z" class="g1"/>
<path d="M1238.2,110.7h.8V88.9h-.8v21.8Z" class="g1"/>
<path d="M47.1,111.5h.7v-.8h-.7v.8Z" class="g1"/>
<path d="M47.8,111.5H664v-.8H47.8v.8Z" class="g1"/>
<path d="M664,111.5h.8v-.8H664v.8Z" class="g1"/>
<path d="M664.8,111.5H951.1v-.8H664.8v.8Z" class="g1"/>
<path d="M951.1,111.5h.8v-.8h-.8v.8Z" class="g1"/>
<path d="M951.9,111.5h286.3v-.8H951.9v.8Z" class="g1"/>
<path d="M1238.2,111.5h.8v-.8h-.8v.8Z" class="g1"/>
<path d="M47.1,133.1h.7V111.5h-.7v21.6Z" class="g1"/>
<path d="M664,133.1h.8V111.5H664v21.6Z" class="g1"/>
<path d="M951.1,133.1h.8V111.5h-.8v21.6Z" class="g1"/>
<path d="M1238.2,133.1h.8V111.5h-.8v21.6Z" class="g1"/>
<path d="M47.1,133.8h.7v-.7h-.7v.7Z" class="g1"/>
<path d="M47.8,133.8H664v-.7H47.8v.7Z" class="g1"/>
<path d="M664,133.8h.8v-.7H664v.7Z" class="g1"/>
<path d="M664.8,133.8H951.1v-.7H664.8v.7Z" class="g1"/>
<path d="M951.1,133.8h.8v-.7h-.8v.7Z" class="g1"/>
<path d="M951.9,133.8h286.3v-.7H951.9v.7Z" class="g1"/>
<path d="M1238.2,133.8h.8v-.7h-.8v.7Z" class="g1"/>
<path d="M47.1,155.7h.7V133.8h-.7v21.9Z" class="g1"/>
<path d="M664,155.7h.8V133.8H664v21.9Z" class="g1"/>
<path d="M951.1,155.7h.8V133.8h-.8v21.9Z" class="g1"/>
<path d="M1238.2,155.7h.8V133.8h-.8v21.9Z" class="g1"/>
<path d="M47.1,156.4h.7v-.8h-.7v.8Z" class="g1"/>
<path d="M47.8,156.4H664v-.8H47.8v.8Z" class="g1"/>
<path d="M664,156.4h.8v-.8H664v.8Z" class="g1"/>
<path d="M664.8,156.4H951.1v-.8H664.8v.8Z" class="g1"/>
<path d="M951.1,156.4h.8v-.8h-.8v.8Z" class="g1"/>
<path d="M951.9,156.4h286.3v-.8H951.9v.8Z" class="g1"/>
<path d="M1238.2,156.4h.8v-.8h-.8v.8Z" class="g1"/>
<path d="M47.1,178h.7V156.4h-.7V178Z" class="g1"/>
<path d="M664,178h.8V156.4H664V178Z" class="g1"/>
<path d="M951.1,178h.8V156.4h-.8V178Z" class="g1"/>
<path d="M1238.2,178h.8V156.4h-.8V178Z" class="g1"/>
<path d="M47.1,178.8h.7V178h-.7v.8Z" class="g1"/>
<path d="M47.8,178.8H664V178H47.8v.8Z" class="g1"/>
<path d="M664,178.8h.8V178H664v.8Z" class="g1"/>
<path d="M664.8,178.8H951.1V178H664.8v.8Z" class="g1"/>
<path d="M951.1,178.8h.8V178h-.8v.8Z" class="g1"/>
<path d="M951.9,178.8h286.3V178H951.9v.8Z" class="g1"/>
<path d="M1238.2,178.8h.8V178h-.8v.8Z" class="g1"/>
<path d="M47.1,200.6h.7V178.8h-.7v21.8Z" class="g1"/>
<path d="M664,200.6h.8V178.8H664v21.8Z" class="g1"/>
<path d="M951.1,200.6h.8V178.8h-.8v21.8Z" class="g1"/>
<path d="M1238.2,200.6h.8V178.8h-.8v21.8Z" class="g1"/>
<path d="M47.1,201.3h.7v-.7h-.7v.7Z" class="g1"/>
<path d="M47.8,201.3H664v-.7H47.8v.7Z" class="g1"/>
<path d="M664,201.3h.8v-.7H664v.7Z" class="g1"/>
<path d="M664.8,201.3H951.1v-.7H664.8v.7Z" class="g1"/>
<path d="M951.1,201.3h.8v-.7h-.8v.7Z" class="g1"/>
<path d="M951.9,201.3h286.3v-.7H951.9v.7Z" class="g1"/>
<path d="M1238.2,201.3h.8v-.7h-.8v.7Z" class="g1"/>
<path d="M47.1,222.9h.7V201.3h-.7v21.6Z" class="g1"/>
<path d="M664,222.9h.8V201.3H664v21.6Z" class="g1"/>
<path d="M951.1,222.9h.8V201.3h-.8v21.6Z" class="g1"/>
<path d="M1238.2,222.9h.8V201.3h-.8v21.6Z" class="g1"/>
<path d="M47.1,223.7h.7v-.8h-.7v.8Z" class="g1"/>
<path d="M47.8,223.7H664v-.8H47.8v.8Z" class="g1"/>
<path d="M664,223.7h.8v-.8H664v.8Z" class="g1"/>
<path d="M664.8,223.7H951.1v-.8H664.8v.8Z" class="g1"/>
<path d="M951.1,223.7h.8v-.8h-.8v.8Z" class="g1"/>
<path d="M951.9,223.7h286.3v-.8H951.9v.8Z" class="g1"/>
<path d="M1238.2,223.7h.8v-.8h-.8v.8Z" class="g1"/>
<path d="M47.1,245.5h.7V223.7h-.7v21.8Z" class="g1"/>
<path d="M664,245.5h.8V223.7H664v21.8Z" class="g1"/>
<path d="M951.1,245.5h.8V223.7h-.8v21.8Z" class="g1"/>
<path d="M1238.2,245.5h.8V223.7h-.8v21.8Z" class="g1"/>
<path d="M47.1,246.2h.7v-.7h-.7v.7Z" class="g1"/>
<path d="M47.8,246.2H664v-.7H47.8v.7Z" class="g1"/>
<path d="M664,246.2h.8v-.7H664v.7Z" class="g1"/>
<path d="M664.8,246.2H951.1v-.7H664.8v.7Z" class="g1"/>
<path d="M951.1,246.2h.8v-.7h-.8v.7Z" class="g1"/>
<path d="M951.9,246.2h286.3v-.7H951.9v.7Z" class="g1"/>
<path d="M1238.2,246.2h.8v-.7h-.8v.7Z" class="g1"/>
<path d="M47.1,267.9h.7V246.2h-.7v21.7Z" class="g1"/>
<path d="M664,267.9h.8V246.2H664v21.7Z" class="g1"/>
<path d="M951.1,267.9h.8V246.2h-.8v21.7Z" class="g1"/>
<path d="M1238.2,267.9h.8V246.2h-.8v21.7Z" class="g1"/>
<path d="M47.1,268.6h.7v-.8h-.7v.8Z" class="g1"/>
<path d="M47.8,268.6H664v-.8H47.8v.8Z" class="g1"/>
<path d="M664,268.6h.8v-.8H664v.8Z" class="g1"/>
<path d="M664.8,268.6H951.1v-.8H664.8v.8Z" class="g1"/>
<path d="M951.1,268.6h.8v-.8h-.8v.8Z" class="g1"/>
<path d="M951.9,268.6h286.3v-.8H951.9v.8Z" class="g1"/>
<path d="M1238.2,268.6h.8v-.8h-.8v.8Z" class="g1"/>
<path d="M47.1,290.4h.7V268.6h-.7v21.8Z" class="g1"/>
<path d="M664,290.4h.8V268.6H664v21.8Z" class="g1"/>
<path d="M951.1,290.4h.8V268.6h-.8v21.8Z" class="g1"/>
<path d="M1238.2,290.4h.8V268.6h-.8v21.8Z" class="g1"/>
<path d="M47.1,291.1h.7v-.7h-.7v.7Z" class="g1"/>
<path d="M47.8,291.1H664v-.7H47.8v.7Z" class="g1"/>
<path d="M664,291.1h.8v-.7H664v.7Z" class="g1"/>
<path d="M664.8,291.1H951.1v-.7H664.8v.7Z" class="g1"/>
<path d="M951.1,291.1h.8v-.7h-.8v.7Z" class="g1"/>
<path d="M951.9,291.1h286.3v-.7H951.9v.7Z" class="g1"/>
<path d="M1238.2,291.1h.8v-.7h-.8v.7Z" class="g1"/>
<path d="M47.1,312.8h.7V291.1h-.7v21.7Z" class="g1"/>
<path d="M664,312.8h.8V291.1H664v21.7Z" class="g1"/>
<path d="M951.1,312.8h.8V291.1h-.8v21.7Z" class="g1"/>
<path d="M1238.2,312.8h.8V291.1h-.8v21.7Z" class="g1"/>
<path d="M47.1,313.5h.7v-.7h-.7v.7Z" class="g1"/>
<path d="M47.8,313.5H664v-.7H47.8v.7Z" class="g1"/>
<path d="M664,313.5h.8v-.7H664v.7Z" class="g1"/>
<path d="M664.8,313.5H951.1v-.7H664.8v.7Z" class="g1"/>
<path d="M951.1,313.5h.8v-.7h-.8v.7Z" class="g1"/>
<path d="M951.9,313.5h286.3v-.7H951.9v.7Z" class="g1"/>
<path d="M1238.2,313.5h.8v-.7h-.8v.7Z" class="g1"/>
<path d="M47.1,335.3h.7V313.5h-.7v21.8Z" class="g1"/>
<path d="M664,335.3h.8V313.5H664v21.8Z" class="g1"/>
<path d="M951.1,335.3h.8V313.5h-.8v21.8Z" class="g1"/>
<path d="M1238.2,335.3h.8V313.5h-.8v21.8Z" class="g1"/>
<path d="M47.1,336.1h.7v-.8h-.7v.8Z" class="g1"/>
<path d="M47.8,336.1H664v-.8H47.8v.8Z" class="g1"/>
<path d="M664,336.1h.8v-.8H664v.8Z" class="g1"/>
<path d="M664.8,336.1H951.1v-.8H664.8v.8Z" class="g1"/>
<path d="M951.1,336.1h.8v-.8h-.8v.8Z" class="g1"/>
<path d="M951.9,336.1h286.3v-.8H951.9v.8Z" class="g1"/>
<path d="M1238.2,336.1h.8v-.8h-.8v.8Z" class="g1"/>
<path d="M47.1,357.7h.7V336h-.7v21.7Z" class="g1"/>
<path d="M664,357.7h.8V336H664v21.7Z" class="g1"/>
<path d="M951.1,357.7h.8V336h-.8v21.7Z" class="g1"/>
<path d="M1238.2,357.7h.8V336h-.8v21.7Z" class="g1"/>
<path d="M47.1,358.4h.7v-.7h-.7v.7Z" class="g1"/>
<path d="M47.8,358.4H664v-.7H47.8v.7Z" class="g1"/>
<path d="M664,358.4h.8v-.7H664v.7Z" class="g1"/>
<path d="M664.8,358.4H951.1v-.7H664.8v.7Z" class="g1"/>
<path d="M951.1,358.4h.8v-.7h-.8v.7Z" class="g1"/>
<path d="M951.9,358.4h286.3v-.7H951.9v.7Z" class="g1"/>
<path d="M1238.2,358.4h.8v-.7h-.8v.7Z" class="g1"/>
<path d="M47.1,380.2h.7V358.4h-.7v21.8Z" class="g1"/>
<path d="M664,380.2h.8V358.4H664v21.8Z" class="g1"/>
<path d="M951.1,380.2h.8V358.4h-.8v21.8Z" class="g1"/>
<path d="M1238.2,380.2h.8V358.4h-.8v21.8Z" class="g1"/>
<path d="M47.1,381h.7v-.8h-.7v.8Z" class="g1"/>
<path d="M47.8,381H664v-.8H47.8v.8Z" class="g1"/>
<path d="M664,381h.8v-.8H664v.8Z" class="g1"/>
<path d="M664.8,381H951.1v-.8H664.8v.8Z" class="g1"/>
<path d="M951.1,381h.8v-.8h-.8v.8Z" class="g1"/>
<path d="M951.9,381h286.3v-.8H951.9v.8Z" class="g1"/>
<path d="M1238.2,381h.8v-.8h-.8v.8Z" class="g1"/>
<path d="M47.1,402.6h.7V381h-.7v21.6Z" class="g1"/>
<path d="M664,402.6h.8V381H664v21.6Z" class="g1"/>
<path d="M951.1,402.6h.8V381h-.8v21.6Z" class="g1"/>
<path d="M1238.2,402.6h.8V381h-.8v21.6Z" class="g1"/>
<path d="M47.1,403.3h.7v-.7h-.7v.7Z" class="g1"/>
<path d="M47.8,403.3H664v-.7H47.8v.7Z" class="g1"/>
<path d="M664,403.3h.8v-.7H664v.7Z" class="g1"/>
<path d="M664.8,403.3H951.1v-.7H664.8v.7Z" class="g1"/>
<path d="M951.1,403.3h.8v-.7h-.8v.7Z" class="g1"/>
<path d="M951.9,403.3h286.3v-.7H951.9v.7Z" class="g1"/>
<path d="M1238.2,403.3h.8v-.7h-.8v.7Z" class="g1"/>
<path d="M47.1,425.2h.7V403.3h-.7v21.9Z" class="g1"/>
<path d="M664,425.2h.8V403.3H664v21.9Z" class="g1"/>
<path d="M951.1,425.2h.8V403.3h-.8v21.9Z" class="g1"/>
<path d="M1238.2,425.2h.8V403.3h-.8v21.9Z" class="g1"/>
<path d="M47.1,425.9h.7v-.8h-.7v.8Z" class="g1"/>
<path d="M47.8,425.9H664v-.8H47.8v.8Z" class="g1"/>
<path d="M664,425.9h.8v-.8H664v.8Z" class="g1"/>
<path d="M664.8,425.9H951.1v-.8H664.8v.8Z" class="g1"/>
<path d="M951.1,425.9h.8v-.8h-.8v.8Z" class="g1"/>
<path d="M951.9,425.9h286.3v-.8H951.9v.8Z" class="g1"/>
<path d="M1238.2,425.9h.8v-.8h-.8v.8Z" class="g1"/>
<path d="M47.1,447.5h.7V425.9h-.7v21.6Z" class="g1"/>
<path d="M664,447.5h.8V425.9H664v21.6Z" class="g1"/>
<path d="M951.1,447.5h.8V425.9h-.8v21.6Z" class="g1"/>
<path d="M1238.2,447.5h.8V425.9h-.8v21.6Z" class="g1"/>
<path d="M47.1,448.2h.7v-.7h-.7v.7Z" class="g1"/>
<path d="M47.8,448.2H664v-.7H47.8v.7Z" class="g1"/>
<path d="M664,448.2h.8v-.7H664v.7Z" class="g1"/>
<path d="M664.8,448.2H951.1v-.7H664.8v.7Z" class="g1"/>
<path d="M951.1,448.2h.8v-.7h-.8v.7Z" class="g1"/>
<path d="M951.9,448.2h286.3v-.7H951.9v.7Z" class="g1"/>
<path d="M1238.2,448.2h.8v-.7h-.8v.7Z" class="g1"/>
<path d="M47.1,470.1h.7V448.2h-.7v21.9Z" class="g1"/>
<path d="M664,470.1h.8V448.2H664v21.9Z" class="g1"/>
<path d="M951.1,470.1h.8V448.2h-.8v21.9Z" class="g1"/>
<path d="M1238.2,470.1h.8V448.2h-.8v21.9Z" class="g1"/>
<path d="M47.1,470.8h.7v-.7h-.7v.7Z" class="g1"/>
<path d="M47.8,470.8H664v-.7H47.8v.7Z" class="g1"/>
<path d="M664,470.8h.8v-.7H664v.7Z" class="g1"/>
<path d="M664.8,470.8H951.1v-.7H664.8v.7Z" class="g1"/>
<path d="M951.1,470.8h.8v-.7h-.8v.7Z" class="g1"/>
<path d="M951.9,470.8h286.3v-.7H951.9v.7Z" class="g1"/>
<path d="M1238.2,470.8h.8v-.7h-.8v.7Z" class="g1"/>
<path d="M47.1,492.4h.7V470.8h-.7v21.6Z" class="g1"/>
<path d="M664,492.4h.8V470.8H664v21.6Z" class="g1"/>
<path d="M951.1,492.4h.8V470.8h-.8v21.6Z" class="g1"/>
<path d="M1238.2,492.4h.8V470.8h-.8v21.6Z" class="g1"/>
<path d="M47.1,493.2h.7v-.8h-.7v.8Z" class="g1"/>
<path d="M47.8,493.2H664v-.8H47.8v.8Z" class="g1"/>
<path d="M664,493.2h.8v-.8H664v.8Z" class="g1"/>
<path d="M664.8,493.2H951.1v-.8H664.8v.8Z" class="g1"/>
<path d="M951.1,493.2h.8v-.8h-.8v.8Z" class="g1"/>
<path d="M951.9,493.2h286.3v-.8H951.9v.8Z" class="g1"/>
<path d="M1238.2,493.2h.8v-.8h-.8v.8Z" class="g1"/>
<path d="M47.1,515h.7V493.2h-.7V515Z" class="g1"/>
<path d="M664,515h.8V493.2H664V515Z" class="g1"/>
<path d="M951.1,515h.8V493.2h-.8V515Z" class="g1"/>
<path d="M1238.2,515h.8V493.2h-.8V515Z" class="g1"/>
<path d="M47.1,515.7h.7V515h-.7v.7Z" class="g1"/>
<path d="M47.8,515.7H664V515H47.8v.7Z" class="g1"/>
<path d="M664,515.7h.8V515H664v.7Z" class="g1"/>
<path d="M664.8,515.7H951.1V515H664.8v.7Z" class="g1"/>
<path d="M951.1,515.7h.8V515h-.8v.7Z" class="g1"/>
<path d="M951.9,515.7h286.3V515H951.9v.7Z" class="g1"/>
<path d="M1238.2,515.7h.8V515h-.8v.7Z" class="g1"/>
<path d="M47.1,537.4h.7V515.7h-.7v21.7Z" class="g1"/>
<path d="M664,537.4h.8V515.7H664v21.7Z" class="g1"/>
<path d="M951.1,537.4h.8V515.7h-.8v21.7Z" class="g1"/>
<path d="M1238.2,537.4h.8V515.7h-.8v21.7Z" class="g1"/>
<path d="M47.1,538.1h.7v-.8h-.7v.8Z" class="g1"/>
<path d="M47.8,538.1H664v-.8H47.8v.8Z" class="g1"/>
<path d="M664,538.1h.8v-.8H664v.8Z" class="g1"/>
<path d="M664.8,538.1H951.1v-.8H664.8v.8Z" class="g1"/>
<path d="M951.1,538.1h.8v-.8h-.8v.8Z" class="g1"/>
<path d="M951.9,538.1h286.3v-.8H951.9v.8Z" class="g1"/>
<path d="M1238.2,538.1h.8v-.8h-.8v.8Z" class="g1"/>
<path d="M47.1,559.9h.7V538.1h-.7v21.8Z" class="g1"/>
<path d="M664,559.9h.8V538.1H664v21.8Z" class="g1"/>
<path d="M951.1,559.9h.8V538.1h-.8v21.8Z" class="g1"/>
<path d="M1238.2,559.9h.8V538.1h-.8v21.8Z" class="g1"/>
<path d="M47.1,560.6h.7v-.7h-.7v.7Z" class="g1"/>
<path d="M47.8,560.6H664v-.7H47.8v.7Z" class="g1"/>
<path d="M664,560.6h.8v-.7H664v.7Z" class="g1"/>
<path d="M664.8,560.6H951.1v-.7H664.8v.7Z" class="g1"/>
<path d="M951.1,560.6h.8v-.7h-.8v.7Z" class="g1"/>
<path d="M951.9,560.6h286.3v-.7H951.9v.7Z" class="g1"/>
<path d="M1238.2,560.6h.8v-.7h-.8v.7Z" class="g1"/>
<path d="M47.1,582.3h.7V560.6h-.7v21.7Z" class="g1"/>
<path d="M664,582.3h.8V560.6H664v21.7Z" class="g1"/>
<path d="M951.1,582.3h.8V560.6h-.8v21.7Z" class="g1"/>
<path d="M1238.2,582.3h.8V560.6h-.8v21.7Z" class="g1"/>
<path d="M47.1,583h.7v-.7h-.7v.7Z" class="g1"/>
<path d="M47.8,583H664v-.7H47.8v.7Z" class="g1"/>
<path d="M664,583h.8v-.7H664v.7Z" class="g1"/>
<path d="M664.8,583H951.1v-.7H664.8v.7Z" class="g1"/>
<path d="M951.1,583h.8v-.7h-.8v.7Z" class="g1"/>
<path d="M951.9,583h286.3v-.7H951.9v.7Z" class="g1"/>
<path d="M1238.2,583h.8v-.7h-.8v.7Z" class="g1"/>
<path d="M47.1,604.8h.7V583h-.7v21.8Z" class="g1"/>
<path d="M664,604.8h.8V583H664v21.8Z" class="g1"/>
<path d="M951.1,604.8h.8V583h-.8v21.8Z" class="g1"/>
<path d="M1238.2,604.8h.8V583h-.8v21.8Z" class="g1"/>
<path d="M47.1,605.6h.7v-.8h-.7v.8Z" class="g1"/>
<path d="M47.8,605.6H664v-.8H47.8v.8Z" class="g1"/>
<path d="M664,605.6h.8v-.8H664v.8Z" class="g1"/>
<path d="M664.8,605.6H951.1v-.8H664.8v.8Z" class="g1"/>
<path d="M951.1,605.6h.8v-.8h-.8v.8Z" class="g1"/>
<path d="M951.9,605.6h286.3v-.8H951.9v.8Z" class="g1"/>
<path d="M1238.2,605.6h.8v-.8h-.8v.8Z" class="g1"/>
<path d="M47.1,627.2h.7V605.5h-.7v21.7Z" class="g1"/>
<path d="M664,627.2h.8V605.5H664v21.7Z" class="g1"/>
<path d="M951.1,627.2h.8V605.5h-.8v21.7Z" class="g1"/>
<path d="M1238.2,627.2h.8V605.5h-.8v21.7Z" class="g1"/>
<path d="M47.1,627.9h.7v-.7h-.7v.7Z" class="g1"/>
<path d="M47.8,627.9H664v-.7H47.8v.7Z" class="g1"/>
<path d="M664,627.9h.8v-.7H664v.7Z" class="g1"/>
<path d="M664.8,627.9H951.1v-.7H664.8v.7Z" class="g1"/>
<path d="M951.1,627.9h.8v-.7h-.8v.7Z" class="g1"/>
<path d="M951.9,627.9h286.3v-.7H951.9v.7Z" class="g1"/>
<path d="M1238.2,627.9h.8v-.7h-.8v.7Z" class="g1"/>
<path d="M47.1,649.7h.7V627.9h-.7v21.8Z" class="g1"/>
<path d="M47.1,650.5h.7v-.8h-.7v.8Z" class="g1"/>
<path d="M47.1,650.5h.7v-.8h-.7v.8Z" class="g1"/>
<path d="M47.8,650.5H664v-.8H47.8v.8Z" class="g1"/>
<path d="M664,649.7h.8V627.9H664v21.8Z" class="g1"/>
<path d="M664,650.5h.8v-.8H664v.8Z" class="g1"/>
<path d="M664.8,650.5H951.1v-.8H664.8v.8Z" class="g1"/>
<path d="M951.1,649.7h.8V627.9h-.8v21.8Z" class="g1"/>
<path d="M951.1,650.5h.8v-.8h-.8v.8Z" class="g1"/>
<path d="M951.9,650.5h286.3v-.8H951.9v.8Z" class="g1"/>
<path d="M1238.2,649.7h.8V627.9h-.8v21.8Z" class="g1"/>
<path d="M1238.2,650.5h.8v-.8h-.8v.8Z" class="g1"/>
<path d="M1238.2,650.5h.8v-.8h-.8v.8Z" class="g1"/>
</svg>