<?xml version="1.0" encoding="UTF-8" standalone="no"?>
<!DOCTYPE svg PUBLIC "-//W3C//DTD SVG 1.1//EN"
"http://www.w3.org/Graphics/SVG/1.1/DTD/svg11.dtd">
<svg viewBox="0 0 1286 909" version="1.1" xmlns="http://www.w3.org/2000/svg" xmlns:xlink="http://www.w3.org/1999/xlink">
<defs>
<style type="text/css"><![CDATA[
.g0{
fill: #D9D9D9;
}
.g1{
}
]]></style>
</defs>
<path fill-rule="evenodd" d="M47.8,65.8h96.5V44H47.8V65.8Z" class="g0"/>
<path fill-rule="evenodd" d="M55.7,63.6h80.7V46.2H55.7V63.6Z" class="g0"/>
<path fill-rule="evenodd" d="M145,65.8H263.3V44H145V65.8Z" class="g0"/>
<path fill-rule="evenodd" d="M152.9,63.6H255.6V46.2H152.9V63.6Z" class="g0"/>
<path fill-rule="evenodd" d="M264.2,65.8H739.8V44H264.2V65.8Z" class="g0"/>
<path fill-rule="evenodd" d="M272.1,63.6H731.9V46.2H272.1V63.6Z" class="g0"/>
<path fill-rule="evenodd" d="M740.5,65.8H1173V44H740.5V65.8Z" class="g0"/>
<path fill-rule="evenodd" d="M748.4,63.6h416.7V46.2H748.4V63.6Z" class="g0"/>
<path fill-rule="evenodd" d="M1173.7,65.8h64.5V44h-64.5V65.8Z" class="g0"/>
<path fill-rule="evenodd" d="M1181.6,63.6h48.8V46.2h-48.8V63.6Z" class="g0"/>
<path d="M47.1,44h.7v-.7h-.7V44Z" class="g1"/>
<path d="M47.1,44h.7v-.7h-.7V44Z" class="g1"/>
<path d="M47.8,44h96.5v-.7H47.8V44Z" class="g1"/>
<path d="M144.3,44h.7v-.7h-.7V44Z" class="g1"/>
<path d="M145,44H263.3v-.7H145V44Z" class="g1"/>
<path d="M263.3,44h.7v-.7h-.7V44Z" class="g1"/>
<path d="M264,44H739.8v-.7H264V44Z" class="g1"/>
<path d="M739.8,44h.7v-.7h-.7V44Z" class="g1"/>
<path d="M740.5,44H1173v-.7H740.5V44Z" class="g1"/>
<path d="M1173,44h.7v-.7h-.7V44Z" class="g1"/>
<path d="M1173.7,44h64.5v-.7h-64.5V44Z" class="g1"/>
<path d="M1238.2,44h.8v-.7h-.8V44Z" class="g1"/>
<path d="M1238.2,44h.8v-.7h-.8V44Z" class="g1"/>
<path d="M47.1,65.8h.7V44h-.7V65.8Z" class="g1"/>
<path d="M144.3,65.8h.7V44h-.7V65.8Z" class="g1"/>
<path d="M263.3,65.8h.7V44h-.7V65.8Z" class="g1"/>
<path d="M739.8,65.8h.7V44h-.7V65.8Z" class="g1"/>
<path d="M1173,65.8h.7V44h-.7V65.8Z" class="g1"/>
<path d="M1238.2,65.8h.8V44h-.8V65.8Z" class="g1"/>
<path d="M47.1,66.5h.7v-.7h-.7v.7Z" class="g1"/>
<path d="M47.8,66.5h96.5v-.7H47.8v.7Z" class="g1"/>
<path d="M144.3,66.5h.7v-.7h-.7v.7Z" class="g1"/>
<path d="M145,66.5H263.3v-.7H145v.7Z" class="g1"/>
<path d="M263.3,66.5h.7v-.7h-.7v.7Z" class="g1"/>
<path d="M264,66.5H739.8v-.7H264v.7Z" class="g1"/>
<path d="M739.8,66.5h.7v-.7h-.7v.7Z" class="g1"/>
<path d="M740.5,66.5H1173v-.7H740.5v.7Z" class="g1"/>
<path d="M1173,66.5h.7v-.7h-.7v.7Z" class="g1"/>
<path d="M1173.7,66.5h64.5v-.7h-64.5v.7Z" class="g1"/>
<path d="M1238.2,66.5h.8v-.7h-.8v.7Z" class="g1"/>
<path d="M47.1,119.2h.7V66.5h-.7v52.7Z" class="g1"/>
<path d="M144.3,119.2h.7V66.5h-.7v52.7Z" class="g1"/>
<path d="M263.3,119.2h.7V66.5h-.7v52.7Z" class="g1"/>
<path d="M739.8,119.2h.7V66.5h-.7v52.7Z" class="g1"/>
<path d="M1173,119.2h.7V66.5h-.7v52.7Z" class="g1"/>
<path d="M1238.2,119.2h.8V66.5h-.8v52.7Z" class="g1"/>
<path d="M47.1,119.9h.7v-.7h-.7v.7Z" class="g1"/>
<path d="M144.3,119.9h.7v-.7h-.7v.7Z" class="g1"/>
<path d="M263.3,119.9h.7v-.7h-.7v.7Z" class="g1"/>
<path d="M739.8,119.9h.7v-.7h-.7v.7Z" class="g1"/>
<path d="M740.5,119.9H1173v-.7H740.5v.7Z" class="g1"/>
<path d="M1173,119.9h.7v-.7h-.7v.7Z" class="g1"/>
<path d="M1173.7,119.9h64.5v-.7h-64.5v.7Z" class="g1"/>
<path d="M1238.2,119.9h.8v-.7h-.8v.7Z" class="g1"/>
<path d="M47.1,172.7h.7V119.9h-.7v52.8Z" class="g1"/>
<path d="M144.3,172.7h.7V119.9h-.7v52.8Z" class="g1"/>
<path d="M263.3,172.7h.7V119.9h-.7v52.8Z" class="g1"/>
<path d="M739.8,172.7h.7V119.9h-.7v52.8Z" class="g1"/>
<path d="M1173,172.7h.7V119.9h-.7v52.8Z" class="g1"/>
<path d="M1238.2,172.7h.8V119.9h-.8v52.8Z" class="g1"/>
<path d="M47.1,173.4h.7v-.7h-.7v.7Z" class="g1"/>
<path d="M144.3,173.4h.7v-.7h-.7v.7Z" class="g1"/>
<path d="M263.3,173.4h.7v-.7h-.7v.7Z" class="g1"/>
<path d="M739.8,173.4h.7v-.7h-.7v.7Z" class="g1"/>
<path d="M740.5,173.4H1173v-.7H740.5v.7Z" class="g1"/>
<path d="M1173,173.4h.7v-.7h-.7v.7Z" class="g1"/>
<path d="M1173.7,173.4h64.5v-.7h-64.5v.7Z" class="g1"/>
<path d="M1238.2,173.4h.8v-.7h-.8v.7Z" class="g1"/>
<path d="M47.1,226.2h.7V173.4h-.7v52.8Z" class="g1"/>
<path d="M144.3,226.2h.7V173.4h-.7v52.8Z" class="g1"/>
<path d="M263.3,226.2h.7V173.4h-.7v52.8Z" class="g1"/>
<path d="M739.8,226.2h.7V173.4h-.7v52.8Z" class="g1"/>
<path d="M1173,226.2h.7V173.4h-.7v52.8Z" class="g1"/>
<path d="M1238.2,226.2h.8V173.4h-.8v52.8Z" class="g1"/>
<path d="M47.1,227h.7v-.8h-.7v.8Z" class="g1"/>
<path d="M144.3,227h.7v-.8h-.7v.8Z" class="g1"/>
<path d="M263.3,227h.7v-.8h-.7v.8Z" class="g1"/>
<path d="M739.8,227h.7v-.8h-.7v.8Z" class="g1"/>
<path d="M740.5,227H1173v-.8H740.5v.8Z" class="g1"/>
<path d="M1173,227h.7v-.8h-.7v.8Z" class="g1"/>
<path d="M1173.7,227h64.5v-.8h-64.5v.8Z" class="g1"/>
<path d="M1238.2,227h.8v-.8h-.8v.8Z" class="g1"/>
<path d="M47.1,279.6h.7V227h-.7v52.6Z" class="g1"/>
<path d="M144.3,279.6h.7V227h-.7v52.6Z" class="g1"/>
<path d="M263.3,279.6h.7V227h-.7v52.6Z" class="g1"/>
<path d="M739.8,279.6h.7V227h-.7v52.6Z" class="g1"/>
<path d="M1173,279.6h.7V227h-.7v52.6Z" class="g1"/>
<path d="M1238.2,279.6h.8V227h-.8v52.6Z" class="g1"/>
<path d="M47.1,280.3h.7v-.7h-.7v.7Z" class="g1"/>
<path d="M47.8,280.3h96.5v-.7H47.8v.7Z" class="g1"/>
<path d="M144.3,280.3h.7v-.7h-.7v.7Z" class="g1"/>
<path d="M145,280.3H263.3v-.7H145v.7Z" class="g1"/>
<path d="M263.3,280.3h.7v-.7h-.7v.7Z" class="g1"/>
<path d="M264,280.3H739.8v-.7H264v.7Z" class="g1"/>
<path d="M739.8,280.3h.7v-.7h-.7v.7Z" class="g1"/>
<path d="M740.5,280.3H1173v-.7H740.5v.7Z" class="g1"/>
<path d="M1173,280.3h.7v-.7h-.7v.7Z" class="g1"/>
<path d="M1173.7,280.3h64.5v-.7h-64.5v.7Z" class="g1"/>
<path d="M1238.2,280.3h.8v-.7h-.8v.7Z" class="g1"/>
<path d="M47.1,333.1h.7V280.3h-.7v52.8Z" class="g1"/>
<path d="M144.3,333.1h.7V280.3h-.7v52.8Z" class="g1"/>
<path d="M263.3,333.1h.7V280.3h-.7v52.8Z" class="g1"/>
<path d="M739.8,333.1h.7V280.3h-.7v52.8Z" class="g1"/>
<path d="M1173,333.1h.7V280.3h-.7v52.8Z" class="g1"/>
<path d="M1238.2,333.1h.8V280.3h-.8v52.8Z" class="g1"/>
<path d="M47.1,333.9h.7v-.8h-.7v.8Z" class="g1"/>
<path d="M144.3,333.9h.7v-.8h-.7v.8Z" class="g1"/>
<path d="M263.3,333.9h.7v-.8h-.7v.8Z" class="g1"/>
<path d="M739.8,333.9h.7v-.8h-.7v.8Z" class="g1"/>
<path d="M740.5,333.9H1173v-.8H740.5v.8Z" class="g1"/>
<path d="M1173,333.9h.7v-.8h-.7v.8Z" class="g1"/>
<path d="M1173.7,333.9h64.5v-.8h-64.5v.8Z" class="g1"/>
<path d="M1238.2,333.9h.8v-.8h-.8v.8Z" class="g1"/>
<path d="M47.1,386.7h.7V333.9h-.7v52.8Z" class="g1"/>
<path d="M144.3,386.7h.7V333.9h-.7v52.8Z" class="g1"/>
<path d="M263.3,386.7h.7V333.9h-.7v52.8Z" class="g1"/>
<path d="M739.8,386.7h.7V333.9h-.7v52.8Z" class="g1"/>
<path d="M1173,386.7h.7V333.9h-.7v52.8Z" class="g1"/>
<path d="M1238.2,386.7h.8V333.9h-.8v52.8Z" class="g1"/>
<path d="M47.1,387.4h.7v-.8h-.7v.8Z" class="g1"/>
<path d="M144.3,387.4h.7v-.8h-.7v.8Z" class="g1"/>
<path d="M263.3,387.4h.7v-.8h-.7v.8Z" class="g1"/>
<path d="M739.8,387.4h.7v-.8h-.7v.8Z" class="g1"/>
<path d="M740.5,387.4H1173v-.8H740.5v.8Z" class="g1"/>
<path d="M1173,387.4h.7v-.8h-.7v.8Z" class="g1"/>
<path d="M1173.7,387.4h64.5v-.8h-64.5v.8Z" class="g1"/>
<path d="M1238.2,387.4h.8v-.8h-.8v.8Z" class="g1"/>
<path d="M47.1,440h.7V387.4h-.7V440Z" class="g1"/>
<path d="M144.3,440h.7V387.4h-.7V440Z" class="g1"/>
<path d="M263.3,440h.7V387.4h-.7V440Z" class="g1"/>
<path d="M739.8,440h.7V387.4h-.7V440Z" class="g1"/>
<path d="M1173,440h.7V387.4h-.7V440Z" class="g1"/>
<path d="M1238.2,440h.8V387.4h-.8V440Z" class="g1"/>
<path d="M47.1,440.7h.7V440h-.7v.7Z" class="g1"/>
<path d="M144.3,440.7h.7V440h-.7v.7Z" class="g1"/>
<path d="M263.3,440.7h.7V440h-.7v.7Z" class="g1"/>
<path d="M739.8,440.7h.7V440h-.7v.7Z" class="g1"/>
<path d="M740.5,440.7H1173V440H740.5v.7Z" class="g1"/>
<path d="M1173,440.7h.7V440h-.7v.7Z" class="g1"/>
<path d="M1173.7,440.7h64.5V440h-64.5v.7Z" class="g1"/>
<path d="M1238.2,440.7h.8V440h-.8v.7Z" class="g1"/>
<path d="M47.1,493.5h.7V440.7h-.7v52.8Z" class="g1"/>
<path d="M144.3,493.5h.7V440.7h-.7v52.8Z" class="g1"/>
<path d="M263.3,493.5h.7V440.7h-.7v52.8Z" class="g1"/>
<path d="M739.8,493.5h.7V440.7h-.7v52.8Z" class="g1"/>
<path d="M1173,493.5h.7V440.7h-.7v52.8Z" class="g1"/>
<path d="M1238.2,493.5h.8V440.7h-.8v52.8Z" class="g1"/>
<path d="M47.1,494.3h.7v-.8h-.7v.8Z" class="g1"/>
<path d="M47.8,494.3h96.5v-.8H47.8v.8Z" class="g1"/>
<path d="M144.3,494.3h.7v-.8h-.7v.8Z" class="g1"/>
<path d="M145,494.3H263.3v-.8H145v.8Z" class="g1"/>
<path d="M263.3,494.3h.7v-.8h-.7v.8Z" class="g1"/>
<path d="M264,494.3H739.8v-.8H264v.8Z" class="g1"/>
<path d="M739.8,494.3h.7v-.8h-.7v.8Z" class="g1"/>
<path d="M740.5,494.3H1173v-.8H740.5v.8Z" class="g1"/>
<path d="M1173,494.3h.7v-.8h-.7v.8Z" class="g1"/>
<path d="M1173.7,494.3h64.5v-.8h-64.5v.8Z" class="g1"/>
<path d="M1238.2,494.3h.8v-.8h-.8v.8Z" class="g1"/>
<path d="M47.1,547.1h.7V494.3h-.7v52.8Z" class="g1"/>
<path d="M144.3,547.1h.7V494.3h-.7v52.8Z" class="g1"/>
<path d="M263.3,547.1h.7V494.3h-.7v52.8Z" class="g1"/>
<path d="M739.8,547.1h.7V494.3h-.7v52.8Z" class="g1"/>
<path d="M1173,547.1h.7V494.3h-.7v52.8Z" class="g1"/>
<path d="M1238.2,547.1h.8V494.3h-.8v52.8Z" class="g1"/>
<path d="M47.1,547.8h.7v-.7h-.7v.7Z" class="g1"/>
<path d="M144.3,547.8h.7v-.7h-.7v.7Z" class="g1"/>
<path d="M263.3,547.8h.7v-.7h-.7v.7Z" class="g1"/>
<path d="M739.8,547.8h.7v-.7h-.7v.7Z" class="g1"/>
<path d="M740.5,547.8H1173v-.7H740.5v.7Z" class="g1"/>
<path d="M1173,547.8h.7v-.7h-.7v.7Z" class="g1"/>
<path d="M1173.7,547.8h64.5v-.7h-64.5v.7Z" class="g1"/>
<path d="M1238.2,547.8h.8v-.7h-.8v.7Z" class="g1"/>
<path d="M47.1,600.4h.7V547.8h-.7v52.6Z" class="g1"/>
<path d="M144.3,600.4h.7V547.8h-.7v52.6Z" class="g1"/>
<path d="M263.3,600.4h.7V547.8h-.7v52.6Z" class="g1"/>
<path d="M739.8,600.4h.7V547.8h-.7v52.6Z" class="g1"/>
<path d="M1173,600.4h.7V547.8h-.7v52.6Z" class="g1"/>
<path d="M1238.2,600.4h.8V547.8h-.8v52.6Z" class="g1"/>
<path d="M47.1,601.2h.7v-.8h-.7v.8Z" class="g1"/>
<path d="M144.3,601.2h.7v-.8h-.7v.8Z" class="g1"/>
<path d="M263.3,601.2h.7v-.8h-.7v.8Z" class="g1"/>
<path d="M739.8,601.2h.7v-.8h-.7v.8Z" class="g1"/>
<path d="M740.5,601.2H1173v-.8H740.5v.8Z" class="g1"/>
<path d="M1173,601.2h.7v-.8h-.7v.8Z" class="g1"/>
<path d="M1173.7,601.2h64.5v-.8h-64.5v.8Z" class="g1"/>
<path d="M1238.2,601.2h.8v-.8h-.8v.8Z" class="g1"/>
<path d="M47.1,654h.7V601.2h-.7V654Z" class="g1"/>
<path d="M144.3,654h.7V601.2h-.7V654Z" class="g1"/>
<path d="M263.3,654h.7V601.2h-.7V654Z" class="g1"/>
<path d="M739.8,654h.7V601.2h-.7V654Z" class="g1"/>
<path d="M1173,654h.7V601.2h-.7V654Z" class="g1"/>
<path d="M1238.2,654h.8V601.2h-.8V654Z" class="g1"/>
<path d="M47.1,654.7h.7v-.8h-.7v.8Z" class="g1"/>
<path d="M144.3,654.7h.7v-.8h-.7v.8Z" class="g1"/>
<path d="M263.3,654.7h.7v-.8h-.7v.8Z" class="g1"/>
<path d="M739.8,654.7h.7v-.8h-.7v.8Z" class="g1"/>
<path d="M740.5,654.7H1173v-.8H740.5v.8Z" class="g1"/>
<path d="M1173,654.7h.7v-.8h-.7v.8Z" class="g1"/>
<path d="M1173.7,654.7h64.5v-.8h-64.5v.8Z" class="g1"/>
<path d="M1238.2,654.7h.8v-.8h-.8v.8Z" class="g1"/>
<path d="M47.1,707.5h.7V654.7h-.7v52.8Z" class="g1"/>
<path d="M47.1,708.2h.7v-.7h-.7v.7Z" class="g1"/>
<path d="M47.1,708.2h.7v-.7h-.7v.7Z" class="g1"/>
<path d="M47.8,708.2h96.5v-.7H47.8v.7Z" class="g1"/>
<path d="M144.3,707.5h.7V654.7h-.7v52.8Z" class="g1"/>
<path d="M144.3,708.2h.7v-.7h-.7v.7Z" class="g1"/>
<path d="M145,708.2H263.3v-.7H145v.7Z" class="g1"/>
<path d="M263.3,707.5h.7V654.7h-.7v52.8Z" class="g1"/>
<path d="M263.3,708.2h.7v-.7h-.7v.7Z" class="g1"/>
<path d="M264,708.2H739.8v-.7H264v.7Z" class="g1"/>
<path d="M739.8,707.5h.7V654.7h-.7v52.8Z" class="g1"/>
<path d="M739.8,708.2h.7v-.7h-.7v.7Z" class="g1"/>
<path d="M740.5,708.2H1173v-.7H740.5v.7Z" class="g1"/>
<path d="M1173,707.5h.7V654.7h-.7v52.8Z" class="g1"/>
<path d="M1173,708.2h.7v-.7h-.7v.7Z" class="g1"/>
<path d="M1173.7,708.2h64.5v-.7h-64.5v.7Z" class="g1"/>
<path d="M1238.2,707.5h.8V654.7h-.8v52.8Z" class="g1"/>
<path d="M1238.2,708.2h.8v-.7h-.8v.7Z" class="g1"/>
<path d="M1238.2,708.2h.8v-.7h-.8v.7Z" class="g1"/>
</svg>