<?xml version="1.0" encoding="UTF-8" standalone="no"?>
<!DOCTYPE svg PUBLIC "-//W3C//DTD SVG 1.1//EN"
"http://www.w3.org/Graphics/SVG/1.1/DTD/svg11.dtd">
<svg viewBox="0 0 1286 909" version="1.1" xmlns="http://www.w3.org/2000/svg" xmlns:xlink="http://www.w3.org/1999/xlink">
<defs>
<style type="text/css"><![CDATA[
.g0_1{
fill: #D9D9D9;
}
.g1_1{
}
]]></style>
</defs>
<path fill-rule="evenodd" d="M47.8,194.5H355.7V172.9H47.8v21.6Z" class="g0_1"/>
<path fill-rule="evenodd" d="M55.7,192.5H347.8V174.9H55.7v17.6Z" class="g0_1"/>
<path fill-rule="evenodd" d="M356.4,194.5h88V172.9h-88v21.6Z" class="g0_1"/>
<path fill-rule="evenodd" d="M364.3,192.5h72.2V174.9H364.3v17.6Z" class="g0_1"/>
<path fill-rule="evenodd" d="M445.1,194.5H752.8V172.9H445.1v21.6Z" class="g0_1"/>
<path fill-rule="evenodd" d="M453,192.5H745.1V174.9H453v17.6Z" class="g0_1"/>
<path fill-rule="evenodd" d="M753.7,194.5h87.6V172.9H753.7v21.6Z" class="g0_1"/>
<path fill-rule="evenodd" d="M761.6,192.5h71.8V174.9H761.6v17.6Z" class="g0_1"/>
<path fill-rule="evenodd" d="M842,194.5h307.9V172.9H842v21.6Z" class="g0_1"/>
<path fill-rule="evenodd" d="M849.9,192.5H1142V174.9H849.9v17.6Z" class="g0_1"/>
<path fill-rule="evenodd" d="M1150.6,194.5h87.6V172.9h-87.6v21.6Z" class="g0_1"/>
<path fill-rule="evenodd" d="M1158.5,192.5h71.9V174.9h-71.9v17.6Z" class="g0_1"/>
<path d="M47.1,172.7h.7V172h-.7v.7Z" class="g1_1"/>
<path d="M47.1,172.7h.7V172h-.7v.7Z" class="g1_1"/>
<path d="M47.8,172.7H355.7V172H47.8v.7Z" class="g1_1"/>
<path d="M355.7,172.7h.7V172h-.7v.7Z" class="g1_1"/>
<path d="M356.4,172.7h87.8V172H356.4v.7Z" class="g1_1"/>
<path d="M444.2,172.7h.8V172h-.8v.7Z" class="g1_1"/>
<path d="M444.9,172.7H752.8V172H444.9v.7Z" class="g1_1"/>
<path d="M752.8,172.7h.7V172h-.7v.7Z" class="g1_1"/>
<path d="M753.5,172.7h87.8V172H753.5v.7Z" class="g1_1"/>
<path d="M841.3,172.7h.7V172h-.7v.7Z" class="g1_1"/>
<path d="M842,172.7h307.9V172H842v.7Z" class="g1_1"/>
<path d="M1149.9,172.7h.7V172h-.7v.7Z" class="g1_1"/>
<path d="M1150.6,172.7h87.6V172h-87.6v.7Z" class="g1_1"/>
<path d="M1238.2,172.7h.8V172h-.8v.7Z" class="g1_1"/>
<path d="M1238.2,172.7h.8V172h-.8v.7Z" class="g1_1"/>
<path d="M47.1,194.5h.7V172.7h-.7v21.8Z" class="g1_1"/>
<path d="M355.7,194.5h.7V172.7h-.7v21.8Z" class="g1_1"/>
<path d="M444.2,194.5h.8V172.7h-.8v21.8Z" class="g1_1"/>
<path d="M752.8,194.5h.7V172.7h-.7v21.8Z" class="g1_1"/>
<path d="M841.3,194.5h.7V172.7h-.7v21.8Z" class="g1_1"/>
<path d="M1149.9,194.5h.7V172.7h-.7v21.8Z" class="g1_1"/>
<path d="M1238.2,194.5h.8V172.7h-.8v21.8Z" class="g1_1"/>
<path d="M47.1,195.3h.7v-.8h-.7v.8Z" class="g1_1"/>
<path d="M47.8,195.3H355.7v-.8H47.8v.8Z" class="g1_1"/>
<path d="M355.7,195.3h.7v-.8h-.7v.8Z" class="g1_1"/>
<path d="M356.4,195.3h87.8v-.8H356.4v.8Z" class="g1_1"/>
<path d="M444.2,195.3h.8v-.8h-.8v.8Z" class="g1_1"/>
<path d="M444.9,195.3H752.8v-.8H444.9v.8Z" class="g1_1"/>
<path d="M752.8,195.3h.7v-.8h-.7v.8Z" class="g1_1"/>
<path d="M753.5,195.3h87.8v-.8H753.5v.8Z" class="g1_1"/>
<path d="M841.3,195.3h.7v-.8h-.7v.8Z" class="g1_1"/>
<path d="M842,195.3h307.9v-.8H842v.8Z" class="g1_1"/>
<path d="M1149.9,195.3h.7v-.8h-.7v.8Z" class="g1_1"/>
<path d="M1150.6,195.3h87.6v-.8h-87.6v.8Z" class="g1_1"/>
<path d="M1238.2,195.3h.8v-.8h-.8v.8Z" class="g1_1"/>
<path d="M47.1,216.9h.7V195.2h-.7v21.7Z" class="g1_1"/>
<path d="M355.7,216.9h.7V195.2h-.7v21.7Z" class="g1_1"/>
<path d="M444.2,216.9h.8V195.2h-.8v21.7Z" class="g1_1"/>
<path d="M752.8,216.9h.7V195.2h-.7v21.7Z" class="g1_1"/>
<path d="M841.3,216.9h.7V195.2h-.7v21.7Z" class="g1_1"/>
<path d="M1149.9,216.9h.7V195.2h-.7v21.7Z" class="g1_1"/>
<path d="M1238.2,216.9h.8V195.2h-.8v21.7Z" class="g1_1"/>
<path d="M47.1,217.6h.7v-.7h-.7v.7Z" class="g1_1"/>
<path d="M47.8,217.6H355.7v-.7H47.8v.7Z" class="g1_1"/>
<path d="M355.7,217.6h.7v-.7h-.7v.7Z" class="g1_1"/>
<path d="M356.4,217.6h87.8v-.7H356.4v.7Z" class="g1_1"/>
<path d="M444.2,217.6h.8v-.7h-.8v.7Z" class="g1_1"/>
<path d="M444.9,217.6H752.8v-.7H444.9v.7Z" class="g1_1"/>
<path d="M752.8,217.6h.7v-.7h-.7v.7Z" class="g1_1"/>
<path d="M753.5,217.6h87.8v-.7H753.5v.7Z" class="g1_1"/>
<path d="M841.3,217.6h.7v-.7h-.7v.7Z" class="g1_1"/>
<path d="M842,217.6h307.9v-.7H842v.7Z" class="g1_1"/>
<path d="M1149.9,217.6h.7v-.7h-.7v.7Z" class="g1_1"/>
<path d="M1150.6,217.6h87.6v-.7h-87.6v.7Z" class="g1_1"/>
<path d="M1238.2,217.6h.8v-.7h-.8v.7Z" class="g1_1"/>
<path d="M47.1,239.4h.7V217.6h-.7v21.8Z" class="g1_1"/>
<path d="M355.7,239.4h.7V217.6h-.7v21.8Z" class="g1_1"/>
<path d="M444.2,239.4h.8V217.6h-.8v21.8Z" class="g1_1"/>
<path d="M752.8,239.4h.7V217.6h-.7v21.8Z" class="g1_1"/>
<path d="M841.3,239.4h.7V217.6h-.7v21.8Z" class="g1_1"/>
<path d="M1149.9,239.4h.7V217.6h-.7v21.8Z" class="g1_1"/>
<path d="M1238.2,239.4h.8V217.6h-.8v21.8Z" class="g1_1"/>
<path d="M47.1,240.2h.7v-.8h-.7v.8Z" class="g1_1"/>
<path d="M47.8,240.2H355.7v-.8H47.8v.8Z" class="g1_1"/>
<path d="M355.7,240.2h.7v-.8h-.7v.8Z" class="g1_1"/>
<path d="M356.4,240.2h87.8v-.8H356.4v.8Z" class="g1_1"/>
<path d="M444.2,240.2h.8v-.8h-.8v.8Z" class="g1_1"/>
<path d="M444.9,240.2H752.8v-.8H444.9v.8Z" class="g1_1"/>
<path d="M752.8,240.2h.7v-.8h-.7v.8Z" class="g1_1"/>
<path d="M753.5,240.2h87.8v-.8H753.5v.8Z" class="g1_1"/>
<path d="M841.3,240.2h.7v-.8h-.7v.8Z" class="g1_1"/>
<path d="M842,240.2h307.9v-.8H842v.8Z" class="g1_1"/>
<path d="M1149.9,240.2h.7v-.8h-.7v.8Z" class="g1_1"/>
<path d="M1150.6,240.2h87.6v-.8h-87.6v.8Z" class="g1_1"/>
<path d="M1238.2,240.2h.8v-.8h-.8v.8Z" class="g1_1"/>
<path d="M47.1,261.8h.7V240.2h-.7v21.6Z" class="g1_1"/>
<path d="M355.7,261.8h.7V240.2h-.7v21.6Z" class="g1_1"/>
<path d="M444.2,261.8h.8V240.2h-.8v21.6Z" class="g1_1"/>
<path d="M752.8,261.8h.7V240.2h-.7v21.6Z" class="g1_1"/>
<path d="M841.3,261.8h.7V240.2h-.7v21.6Z" class="g1_1"/>
<path d="M1149.9,261.8h.7V240.2h-.7v21.6Z" class="g1_1"/>
<path d="M1238.2,261.8h.8V240.2h-.8v21.6Z" class="g1_1"/>
<path d="M47.1,262.5h.7v-.7h-.7v.7Z" class="g1_1"/>
<path d="M47.8,262.5H355.7v-.7H47.8v.7Z" class="g1_1"/>
<path d="M355.7,262.5h.7v-.7h-.7v.7Z" class="g1_1"/>
<path d="M356.4,262.5h87.8v-.7H356.4v.7Z" class="g1_1"/>
<path d="M444.2,262.5h.8v-.7h-.8v.7Z" class="g1_1"/>
<path d="M444.9,262.5H752.8v-.7H444.9v.7Z" class="g1_1"/>
<path d="M752.8,262.5h.7v-.7h-.7v.7Z" class="g1_1"/>
<path d="M753.5,262.5h87.8v-.7H753.5v.7Z" class="g1_1"/>
<path d="M841.3,262.5h.7v-.7h-.7v.7Z" class="g1_1"/>
<path d="M842,262.5h307.9v-.7H842v.7Z" class="g1_1"/>
<path d="M1149.9,262.5h.7v-.7h-.7v.7Z" class="g1_1"/>
<path d="M1150.6,262.5h87.6v-.7h-87.6v.7Z" class="g1_1"/>
<path d="M1238.2,262.5h.8v-.7h-.8v.7Z" class="g1_1"/>
<path d="M47.1,284.3h.7V262.5h-.7v21.8Z" class="g1_1"/>
<path d="M355.7,284.3h.7V262.5h-.7v21.8Z" class="g1_1"/>
<path d="M444.2,284.3h.8V262.5h-.8v21.8Z" class="g1_1"/>
<path d="M752.8,284.3h.7V262.5h-.7v21.8Z" class="g1_1"/>
<path d="M841.3,284.3h.7V262.5h-.7v21.8Z" class="g1_1"/>
<path d="M1149.9,284.3h.7V262.5h-.7v21.8Z" class="g1_1"/>
<path d="M1238.2,284.3h.8V262.5h-.8v21.8Z" class="g1_1"/>
<path d="M47.1,285.1h.7v-.8h-.7v.8Z" class="g1_1"/>
<path d="M47.8,285.1H355.7v-.8H47.8v.8Z" class="g1_1"/>
<path d="M355.7,285.1h.7v-.8h-.7v.8Z" class="g1_1"/>
<path d="M356.4,285.1h87.8v-.8H356.4v.8Z" class="g1_1"/>
<path d="M444.2,285.1h.8v-.8h-.8v.8Z" class="g1_1"/>
<path d="M444.9,285.1H752.8v-.8H444.9v.8Z" class="g1_1"/>
<path d="M752.8,285.1h.7v-.8h-.7v.8Z" class="g1_1"/>
<path d="M753.5,285.1h87.8v-.8H753.5v.8Z" class="g1_1"/>
<path d="M841.3,285.1h.7v-.8h-.7v.8Z" class="g1_1"/>
<path d="M842,285.1h307.9v-.8H842v.8Z" class="g1_1"/>
<path d="M1149.9,285.1h.7v-.8h-.7v.8Z" class="g1_1"/>
<path d="M1150.6,285.1h87.6v-.8h-87.6v.8Z" class="g1_1"/>
<path d="M1238.2,285.1h.8v-.8h-.8v.8Z" class="g1_1"/>
<path d="M47.1,306.7h.7V285.1h-.7v21.6Z" class="g1_1"/>
<path d="M355.7,306.7h.7V285.1h-.7v21.6Z" class="g1_1"/>
<path d="M444.2,306.7h.8V285.1h-.8v21.6Z" class="g1_1"/>
<path d="M752.8,306.7h.7V285.1h-.7v21.6Z" class="g1_1"/>
<path d="M841.3,306.7h.7V285.1h-.7v21.6Z" class="g1_1"/>
<path d="M1149.9,306.7h.7V285.1h-.7v21.6Z" class="g1_1"/>
<path d="M1238.2,306.7h.8V285.1h-.8v21.6Z" class="g1_1"/>
<path d="M47.1,307.5h.7v-.8h-.7v.8Z" class="g1_1"/>
<path d="M47.8,307.5H355.7v-.8H47.8v.8Z" class="g1_1"/>
<path d="M355.7,307.5h.7v-.8h-.7v.8Z" class="g1_1"/>
<path d="M356.4,307.5h87.8v-.8H356.4v.8Z" class="g1_1"/>
<path d="M444.2,307.5h.8v-.8h-.8v.8Z" class="g1_1"/>
<path d="M444.9,307.5H752.8v-.8H444.9v.8Z" class="g1_1"/>
<path d="M752.8,307.5h.7v-.8h-.7v.8Z" class="g1_1"/>
<path d="M753.5,307.5h87.8v-.8H753.5v.8Z" class="g1_1"/>
<path d="M841.3,307.5h.7v-.8h-.7v.8Z" class="g1_1"/>
<path d="M842,307.5h307.9v-.8H842v.8Z" class="g1_1"/>
<path d="M1149.9,307.5h.7v-.8h-.7v.8Z" class="g1_1"/>
<path d="M1150.6,307.5h87.6v-.8h-87.6v.8Z" class="g1_1"/>
<path d="M1238.2,307.5h.8v-.8h-.8v.8Z" class="g1_1"/>
<path d="M47.1,329.3h.7V307.5h-.7v21.8Z" class="g1_1"/>
<path d="M355.7,329.3h.7V307.5h-.7v21.8Z" class="g1_1"/>
<path d="M444.2,329.3h.8V307.5h-.8v21.8Z" class="g1_1"/>
<path d="M752.8,329.3h.7V307.5h-.7v21.8Z" class="g1_1"/>
<path d="M841.3,329.3h.7V307.5h-.7v21.8Z" class="g1_1"/>
<path d="M1149.9,329.3h.7V307.5h-.7v21.8Z" class="g1_1"/>
<path d="M1238.2,329.3h.8V307.5h-.8v21.8Z" class="g1_1"/>
<path d="M47.1,330h.7v-.7h-.7v.7Z" class="g1_1"/>
<path d="M47.8,330H355.7v-.7H47.8v.7Z" class="g1_1"/>
<path d="M355.7,330h.7v-.7h-.7v.7Z" class="g1_1"/>
<path d="M356.4,330h87.8v-.7H356.4v.7Z" class="g1_1"/>
<path d="M444.2,330h.8v-.7h-.8v.7Z" class="g1_1"/>
<path d="M444.9,330H752.8v-.7H444.9v.7Z" class="g1_1"/>
<path d="M752.8,330h.7v-.7h-.7v.7Z" class="g1_1"/>
<path d="M753.5,330h87.8v-.7H753.5v.7Z" class="g1_1"/>
<path d="M841.3,330h.7v-.7h-.7v.7Z" class="g1_1"/>
<path d="M842,330h307.9v-.7H842v.7Z" class="g1_1"/>
<path d="M1149.9,330h.7v-.7h-.7v.7Z" class="g1_1"/>
<path d="M1150.6,330h87.6v-.7h-87.6v.7Z" class="g1_1"/>
<path d="M1238.2,330h.8v-.7h-.8v.7Z" class="g1_1"/>
<path d="M47.1,351.6h.7V330h-.7v21.6Z" class="g1_1"/>
<path d="M355.7,351.6h.7V330h-.7v21.6Z" class="g1_1"/>
<path d="M444.2,351.6h.8V330h-.8v21.6Z" class="g1_1"/>
<path d="M752.8,351.6h.7V330h-.7v21.6Z" class="g1_1"/>
<path d="M841.3,351.6h.7V330h-.7v21.6Z" class="g1_1"/>
<path d="M1149.9,351.6h.7V330h-.7v21.6Z" class="g1_1"/>
<path d="M1238.2,351.6h.8V330h-.8v21.6Z" class="g1_1"/>
<path d="M47.1,352.4h.7v-.8h-.7v.8Z" class="g1_1"/>
<path d="M47.8,352.4H355.7v-.8H47.8v.8Z" class="g1_1"/>
<path d="M355.7,352.4h.7v-.8h-.7v.8Z" class="g1_1"/>
<path d="M356.4,352.4h87.8v-.8H356.4v.8Z" class="g1_1"/>
<path d="M444.2,352.4h.8v-.8h-.8v.8Z" class="g1_1"/>
<path d="M444.9,352.4H752.8v-.8H444.9v.8Z" class="g1_1"/>
<path d="M752.8,352.4h.7v-.8h-.7v.8Z" class="g1_1"/>
<path d="M753.5,352.4h87.8v-.8H753.5v.8Z" class="g1_1"/>
<path d="M841.3,352.4h.7v-.8h-.7v.8Z" class="g1_1"/>
<path d="M842,352.4h307.9v-.8H842v.8Z" class="g1_1"/>
<path d="M1149.9,352.4h.7v-.8h-.7v.8Z" class="g1_1"/>
<path d="M1150.6,352.4h87.6v-.8h-87.6v.8Z" class="g1_1"/>
<path d="M1238.2,352.4h.8v-.8h-.8v.8Z" class="g1_1"/>
<path d="M47.1,374.2h.7V352.4h-.7v21.8Z" class="g1_1"/>
<path d="M355.7,374.2h.7V352.4h-.7v21.8Z" class="g1_1"/>
<path d="M444.2,374.2h.8V352.4h-.8v21.8Z" class="g1_1"/>
<path d="M752.8,374.2h.7V352.4h-.7v21.8Z" class="g1_1"/>
<path d="M841.3,374.2h.7V352.4h-.7v21.8Z" class="g1_1"/>
<path d="M1149.9,374.2h.7V352.4h-.7v21.8Z" class="g1_1"/>
<path d="M1238.2,374.2h.8V352.4h-.8v21.8Z" class="g1_1"/>
<path d="M47.1,374.9h.7v-.7h-.7v.7Z" class="g1_1"/>
<path d="M47.8,374.9H355.7v-.7H47.8v.7Z" class="g1_1"/>
<path d="M355.7,374.9h.7v-.7h-.7v.7Z" class="g1_1"/>
<path d="M356.4,374.9h87.8v-.7H356.4v.7Z" class="g1_1"/>
<path d="M444.2,374.9h.8v-.7h-.8v.7Z" class="g1_1"/>
<path d="M444.9,374.9H752.8v-.7H444.9v.7Z" class="g1_1"/>
<path d="M752.8,374.9h.7v-.7h-.7v.7Z" class="g1_1"/>
<path d="M753.5,374.9h87.8v-.7H753.5v.7Z" class="g1_1"/>
<path d="M841.3,374.9h.7v-.7h-.7v.7Z" class="g1_1"/>
<path d="M842,374.9h307.9v-.7H842v.7Z" class="g1_1"/>
<path d="M1149.9,374.9h.7v-.7h-.7v.7Z" class="g1_1"/>
<path d="M1150.6,374.9h87.6v-.7h-87.6v.7Z" class="g1_1"/>
<path d="M1238.2,374.9h.8v-.7h-.8v.7Z" class="g1_1"/>
<path d="M47.1,396.5h.7V374.9h-.7v21.6Z" class="g1_1"/>
<path d="M355.7,396.5h.7V374.9h-.7v21.6Z" class="g1_1"/>
<path d="M444.2,396.5h.8V374.9h-.8v21.6Z" class="g1_1"/>
<path d="M752.8,396.5h.7V374.9h-.7v21.6Z" class="g1_1"/>
<path d="M841.3,396.5h.7V374.9h-.7v21.6Z" class="g1_1"/>
<path d="M1149.9,396.5h.7V374.9h-.7v21.6Z" class="g1_1"/>
<path d="M1238.2,396.5h.8V374.9h-.8v21.6Z" class="g1_1"/>
<path d="M47.1,397.3h.7v-.8h-.7v.8Z" class="g1_1"/>
<path d="M47.8,397.3H355.7v-.8H47.8v.8Z" class="g1_1"/>
<path d="M355.7,397.3h.7v-.8h-.7v.8Z" class="g1_1"/>
<path d="M356.4,397.3h87.8v-.8H356.4v.8Z" class="g1_1"/>
<path d="M444.2,397.3h.8v-.8h-.8v.8Z" class="g1_1"/>
<path d="M444.9,397.3H752.8v-.8H444.9v.8Z" class="g1_1"/>
<path d="M752.8,397.3h.7v-.8h-.7v.8Z" class="g1_1"/>
<path d="M753.5,397.3h87.8v-.8H753.5v.8Z" class="g1_1"/>
<path d="M841.3,397.3h.7v-.8h-.7v.8Z" class="g1_1"/>
<path d="M842,397.3h307.9v-.8H842v.8Z" class="g1_1"/>
<path d="M1149.9,397.3h.7v-.8h-.7v.8Z" class="g1_1"/>
<path d="M1150.6,397.3h87.6v-.8h-87.6v.8Z" class="g1_1"/>
<path d="M1238.2,397.3h.8v-.8h-.8v.8Z" class="g1_1"/>
<path d="M47.1,419.1h.7V397.3h-.7v21.8Z" class="g1_1"/>
<path d="M355.7,419.1h.7V397.3h-.7v21.8Z" class="g1_1"/>
<path d="M444.2,419.1h.8V397.3h-.8v21.8Z" class="g1_1"/>
<path d="M752.8,419.1h.7V397.3h-.7v21.8Z" class="g1_1"/>
<path d="M841.3,419.1h.7V397.3h-.7v21.8Z" class="g1_1"/>
<path d="M1149.9,419.1h.7V397.3h-.7v21.8Z" class="g1_1"/>
<path d="M1238.2,419.1h.8V397.3h-.8v21.8Z" class="g1_1"/>
<path d="M47.1,419.8h.7v-.7h-.7v.7Z" class="g1_1"/>
<path d="M47.8,419.8H355.7v-.7H47.8v.7Z" class="g1_1"/>
<path d="M355.7,419.8h.7v-.7h-.7v.7Z" class="g1_1"/>
<path d="M356.4,419.8h87.8v-.7H356.4v.7Z" class="g1_1"/>
<path d="M444.2,419.8h.8v-.7h-.8v.7Z" class="g1_1"/>
<path d="M444.9,419.8H752.8v-.7H444.9v.7Z" class="g1_1"/>
<path d="M752.8,419.8h.7v-.7h-.7v.7Z" class="g1_1"/>
<path d="M753.5,419.8h87.8v-.7H753.5v.7Z" class="g1_1"/>
<path d="M841.3,419.8h.7v-.7h-.7v.7Z" class="g1_1"/>
<path d="M842,419.8h307.9v-.7H842v.7Z" class="g1_1"/>
<path d="M1149.9,419.8h.7v-.7h-.7v.7Z" class="g1_1"/>
<path d="M1150.6,419.8h87.6v-.7h-87.6v.7Z" class="g1_1"/>
<path d="M1238.2,419.8h.8v-.7h-.8v.7Z" class="g1_1"/>
<path d="M47.1,441.5h.7V419.8h-.7v21.7Z" class="g1_1"/>
<path d="M355.7,441.5h.7V419.8h-.7v21.7Z" class="g1_1"/>
<path d="M444.2,441.5h.8V419.8h-.8v21.7Z" class="g1_1"/>
<path d="M752.8,441.5h.7V419.8h-.7v21.7Z" class="g1_1"/>
<path d="M841.3,441.5h.7V419.8h-.7v21.7Z" class="g1_1"/>
<path d="M1149.9,441.5h.7V419.8h-.7v21.7Z" class="g1_1"/>
<path d="M1238.2,441.5h.8V419.8h-.8v21.7Z" class="g1_1"/>
<path d="M47.1,442.2h.7v-.7h-.7v.7Z" class="g1_1"/>
<path d="M47.8,442.2H355.7v-.7H47.8v.7Z" class="g1_1"/>
<path d="M355.7,442.2h.7v-.7h-.7v.7Z" class="g1_1"/>
<path d="M356.4,442.2h87.8v-.7H356.4v.7Z" class="g1_1"/>
<path d="M444.2,442.2h.8v-.7h-.8v.7Z" class="g1_1"/>
<path d="M444.9,442.2H752.8v-.7H444.9v.7Z" class="g1_1"/>
<path d="M752.8,442.2h.7v-.7h-.7v.7Z" class="g1_1"/>
<path d="M753.5,442.2h87.8v-.7H753.5v.7Z" class="g1_1"/>
<path d="M841.3,442.2h.7v-.7h-.7v.7Z" class="g1_1"/>
<path d="M842,442.2h307.9v-.7H842v.7Z" class="g1_1"/>
<path d="M1149.9,442.2h.7v-.7h-.7v.7Z" class="g1_1"/>
<path d="M1150.6,442.2h87.6v-.7h-87.6v.7Z" class="g1_1"/>
<path d="M1238.2,442.2h.8v-.7h-.8v.7Z" class="g1_1"/>
<path d="M47.1,464h.7V442.2h-.7V464Z" class="g1_1"/>
<path d="M355.7,464h.7V442.2h-.7V464Z" class="g1_1"/>
<path d="M444.2,464h.8V442.2h-.8V464Z" class="g1_1"/>
<path d="M752.8,464h.7V442.2h-.7V464Z" class="g1_1"/>
<path d="M841.3,464h.7V442.2h-.7V464Z" class="g1_1"/>
<path d="M1149.9,464h.7V442.2h-.7V464Z" class="g1_1"/>
<path d="M1238.2,464h.8V442.2h-.8V464Z" class="g1_1"/>
<path d="M47.1,464.8h.7V464h-.7v.8Z" class="g1_1"/>
<path d="M47.8,464.8H355.7V464H47.8v.8Z" class="g1_1"/>
<path d="M355.7,464.8h.7V464h-.7v.8Z" class="g1_1"/>
<path d="M356.4,464.8h87.8V464H356.4v.8Z" class="g1_1"/>
<path d="M444.2,464.8h.8V464h-.8v.8Z" class="g1_1"/>
<path d="M444.9,464.8H752.8V464H444.9v.8Z" class="g1_1"/>
<path d="M752.8,464.8h.7V464h-.7v.8Z" class="g1_1"/>
<path d="M753.5,464.8h87.8V464H753.5v.8Z" class="g1_1"/>
<path d="M841.3,464.8h.7V464h-.7v.8Z" class="g1_1"/>
<path d="M842,464.8h307.9V464H842v.8Z" class="g1_1"/>
<path d="M1149.9,464.8h.7V464h-.7v.8Z" class="g1_1"/>
<path d="M1150.6,464.8h87.6V464h-87.6v.8Z" class="g1_1"/>
<path d="M1238.2,464.8h.8V464h-.8v.8Z" class="g1_1"/>
<path d="M47.1,486.4h.7V464.7h-.7v21.7Z" class="g1_1"/>
<path d="M355.7,486.4h.7V464.7h-.7v21.7Z" class="g1_1"/>
<path d="M444.2,486.4h.8V464.7h-.8v21.7Z" class="g1_1"/>
<path d="M752.8,486.4h.7V464.7h-.7v21.7Z" class="g1_1"/>
<path d="M841.3,486.4h.7V464.7h-.7v21.7Z" class="g1_1"/>
<path d="M1149.9,486.4h.7V464.7h-.7v21.7Z" class="g1_1"/>
<path d="M1238.2,486.4h.8V464.7h-.8v21.7Z" class="g1_1"/>
<path d="M47.1,487.1h.7v-.7h-.7v.7Z" class="g1_1"/>
<path d="M47.8,487.1H355.7v-.7H47.8v.7Z" class="g1_1"/>
<path d="M355.7,487.1h.7v-.7h-.7v.7Z" class="g1_1"/>
<path d="M356.4,487.1h87.8v-.7H356.4v.7Z" class="g1_1"/>
<path d="M444.2,487.1h.8v-.7h-.8v.7Z" class="g1_1"/>
<path d="M444.9,487.1H752.8v-.7H444.9v.7Z" class="g1_1"/>
<path d="M752.8,487.1h.7v-.7h-.7v.7Z" class="g1_1"/>
<path d="M753.5,487.1h87.8v-.7H753.5v.7Z" class="g1_1"/>
<path d="M841.3,487.1h.7v-.7h-.7v.7Z" class="g1_1"/>
<path d="M842,487.1h307.9v-.7H842v.7Z" class="g1_1"/>
<path d="M1149.9,487.1h.7v-.7h-.7v.7Z" class="g1_1"/>
<path d="M1150.6,487.1h87.6v-.7h-87.6v.7Z" class="g1_1"/>
<path d="M1238.2,487.1h.8v-.7h-.8v.7Z" class="g1_1"/>
<path d="M47.1,508.9h.7V487.1h-.7v21.8Z" class="g1_1"/>
<path d="M355.7,508.9h.7V487.1h-.7v21.8Z" class="g1_1"/>
<path d="M444.2,508.9h.8V487.1h-.8v21.8Z" class="g1_1"/>
<path d="M752.8,508.9h.7V487.1h-.7v21.8Z" class="g1_1"/>
<path d="M841.3,508.9h.7V487.1h-.7v21.8Z" class="g1_1"/>
<path d="M1149.9,508.9h.7V487.1h-.7v21.8Z" class="g1_1"/>
<path d="M1238.2,508.9h.8V487.1h-.8v21.8Z" class="g1_1"/>
<path d="M47.1,509.7h.7v-.8h-.7v.8Z" class="g1_1"/>
<path d="M47.8,509.7H355.7v-.8H47.8v.8Z" class="g1_1"/>
<path d="M355.7,509.7h.7v-.8h-.7v.8Z" class="g1_1"/>
<path d="M356.4,509.7h87.8v-.8H356.4v.8Z" class="g1_1"/>
<path d="M444.2,509.7h.8v-.8h-.8v.8Z" class="g1_1"/>
<path d="M444.9,509.7H752.8v-.8H444.9v.8Z" class="g1_1"/>
<path d="M752.8,509.7h.7v-.8h-.7v.8Z" class="g1_1"/>
<path d="M753.5,509.7h87.8v-.8H753.5v.8Z" class="g1_1"/>
<path d="M841.3,509.7h.7v-.8h-.7v.8Z" class="g1_1"/>
<path d="M842,509.7h307.9v-.8H842v.8Z" class="g1_1"/>
<path d="M1149.9,509.7h.7v-.8h-.7v.8Z" class="g1_1"/>
<path d="M1150.6,509.7h87.6v-.8h-87.6v.8Z" class="g1_1"/>
<path d="M1238.2,509.7h.8v-.8h-.8v.8Z" class="g1_1"/>
<path d="M47.1,531.3h.7V509.7h-.7v21.6Z" class="g1_1"/>
<path d="M355.7,531.3h.7V509.7h-.7v21.6Z" class="g1_1"/>
<path d="M444.2,531.3h.8V509.7h-.8v21.6Z" class="g1_1"/>
<path d="M752.8,531.3h.7V509.7h-.7v21.6Z" class="g1_1"/>
<path d="M841.3,531.3h.7V509.7h-.7v21.6Z" class="g1_1"/>
<path d="M1149.9,531.3h.7V509.7h-.7v21.6Z" class="g1_1"/>
<path d="M1238.2,531.3h.8V509.7h-.8v21.6Z" class="g1_1"/>
<path d="M47.1,532h.7v-.7h-.7v.7Z" class="g1_1"/>
<path d="M47.8,532H355.7v-.7H47.8v.7Z" class="g1_1"/>
<path d="M355.7,532h.7v-.7h-.7v.7Z" class="g1_1"/>
<path d="M356.4,532h87.8v-.7H356.4v.7Z" class="g1_1"/>
<path d="M444.2,532h.8v-.7h-.8v.7Z" class="g1_1"/>
<path d="M444.9,532H752.8v-.7H444.9v.7Z" class="g1_1"/>
<path d="M752.8,532h.7v-.7h-.7v.7Z" class="g1_1"/>
<path d="M753.5,532h87.8v-.7H753.5v.7Z" class="g1_1"/>
<path d="M841.3,532h.7v-.7h-.7v.7Z" class="g1_1"/>
<path d="M842,532h307.9v-.7H842v.7Z" class="g1_1"/>
<path d="M1149.9,532h.7v-.7h-.7v.7Z" class="g1_1"/>
<path d="M1150.6,532h87.6v-.7h-87.6v.7Z" class="g1_1"/>
<path d="M1238.2,532h.8v-.7h-.8v.7Z" class="g1_1"/>
<path d="M47.1,553.9h.7V532h-.7v21.9Z" class="g1_1"/>
<path d="M355.7,553.9h.7V532h-.7v21.9Z" class="g1_1"/>
<path d="M444.2,553.9h.8V532h-.8v21.9Z" class="g1_1"/>
<path d="M752.8,553.9h.7V532h-.7v21.9Z" class="g1_1"/>
<path d="M841.3,553.9h.7V532h-.7v21.9Z" class="g1_1"/>
<path d="M1149.9,553.9h.7V532h-.7v21.9Z" class="g1_1"/>
<path d="M1238.2,553.9h.8V532h-.8v21.9Z" class="g1_1"/>
<path d="M47.1,554.6h.7v-.8h-.7v.8Z" class="g1_1"/>
<path d="M47.8,554.6H355.7v-.8H47.8v.8Z" class="g1_1"/>
<path d="M355.7,554.6h.7v-.8h-.7v.8Z" class="g1_1"/>
<path d="M356.4,554.6h87.8v-.8H356.4v.8Z" class="g1_1"/>
<path d="M444.2,554.6h.8v-.8h-.8v.8Z" class="g1_1"/>
<path d="M444.9,554.6H752.8v-.8H444.9v.8Z" class="g1_1"/>
<path d="M752.8,554.6h.7v-.8h-.7v.8Z" class="g1_1"/>
<path d="M753.5,554.6h87.8v-.8H753.5v.8Z" class="g1_1"/>
<path d="M841.3,554.6h.7v-.8h-.7v.8Z" class="g1_1"/>
<path d="M842,554.6h307.9v-.8H842v.8Z" class="g1_1"/>
<path d="M1149.9,554.6h.7v-.8h-.7v.8Z" class="g1_1"/>
<path d="M1150.6,554.6h87.6v-.8h-87.6v.8Z" class="g1_1"/>
<path d="M1238.2,554.6h.8v-.8h-.8v.8Z" class="g1_1"/>
<path d="M47.1,576.2h.7V554.6h-.7v21.6Z" class="g1_1"/>
<path d="M355.7,576.2h.7V554.6h-.7v21.6Z" class="g1_1"/>
<path d="M444.2,576.2h.8V554.6h-.8v21.6Z" class="g1_1"/>
<path d="M752.8,576.2h.7V554.6h-.7v21.6Z" class="g1_1"/>
<path d="M841.3,576.2h.7V554.6h-.7v21.6Z" class="g1_1"/>
<path d="M1149.9,576.2h.7V554.6h-.7v21.6Z" class="g1_1"/>
<path d="M1238.2,576.2h.8V554.6h-.8v21.6Z" class="g1_1"/>
<path d="M47.1,577h.7v-.8h-.7v.8Z" class="g1_1"/>
<path d="M47.8,577H355.7v-.8H47.8v.8Z" class="g1_1"/>
<path d="M355.7,577h.7v-.8h-.7v.8Z" class="g1_1"/>
<path d="M356.4,577h87.8v-.8H356.4v.8Z" class="g1_1"/>
<path d="M444.2,577h.8v-.8h-.8v.8Z" class="g1_1"/>
<path d="M444.9,577H752.8v-.8H444.9v.8Z" class="g1_1"/>
<path d="M752.8,577h.7v-.8h-.7v.8Z" class="g1_1"/>
<path d="M753.5,577h87.8v-.8H753.5v.8Z" class="g1_1"/>
<path d="M841.3,577h.7v-.8h-.7v.8Z" class="g1_1"/>
<path d="M842,577h307.9v-.8H842v.8Z" class="g1_1"/>
<path d="M1149.9,577h.7v-.8h-.7v.8Z" class="g1_1"/>
<path d="M1150.6,577h87.6v-.8h-87.6v.8Z" class="g1_1"/>
<path d="M1238.2,577h.8v-.8h-.8v.8Z" class="g1_1"/>
<path d="M47.1,598.8h.7V577h-.7v21.8Z" class="g1_1"/>
<path d="M355.7,598.8h.7V577h-.7v21.8Z" class="g1_1"/>
<path d="M444.2,598.8h.8V577h-.8v21.8Z" class="g1_1"/>
<path d="M752.8,598.8h.7V577h-.7v21.8Z" class="g1_1"/>
<path d="M841.3,598.8h.7V577h-.7v21.8Z" class="g1_1"/>
<path d="M1149.9,598.8h.7V577h-.7v21.8Z" class="g1_1"/>
<path d="M1238.2,598.8h.8V577h-.8v21.8Z" class="g1_1"/>
<path d="M47.1,599.5h.7v-.7h-.7v.7Z" class="g1_1"/>
<path d="M47.8,599.5H355.7v-.7H47.8v.7Z" class="g1_1"/>
<path d="M355.7,599.5h.7v-.7h-.7v.7Z" class="g1_1"/>
<path d="M356.4,599.5h87.8v-.7H356.4v.7Z" class="g1_1"/>
<path d="M444.2,599.5h.8v-.7h-.8v.7Z" class="g1_1"/>
<path d="M444.9,599.5H752.8v-.7H444.9v.7Z" class="g1_1"/>
<path d="M752.8,599.5h.7v-.7h-.7v.7Z" class="g1_1"/>
<path d="M753.5,599.5h87.8v-.7H753.5v.7Z" class="g1_1"/>
<path d="M841.3,599.5h.7v-.7h-.7v.7Z" class="g1_1"/>
<path d="M842,599.5h307.9v-.7H842v.7Z" class="g1_1"/>
<path d="M1149.9,599.5h.7v-.7h-.7v.7Z" class="g1_1"/>
<path d="M1150.6,599.5h87.6v-.7h-87.6v.7Z" class="g1_1"/>
<path d="M1238.2,599.5h.8v-.7h-.8v.7Z" class="g1_1"/>
<path d="M47.1,621.1h.7V599.5h-.7v21.6Z" class="g1_1"/>
<path d="M355.7,621.1h.7V599.5h-.7v21.6Z" class="g1_1"/>
<path d="M444.2,621.1h.8V599.5h-.8v21.6Z" class="g1_1"/>
<path d="M752.8,621.1h.7V599.5h-.7v21.6Z" class="g1_1"/>
<path d="M841.3,621.1h.7V599.5h-.7v21.6Z" class="g1_1"/>
<path d="M1149.9,621.1h.7V599.5h-.7v21.6Z" class="g1_1"/>
<path d="M1238.2,621.1h.8V599.5h-.8v21.6Z" class="g1_1"/>
<path d="M47.1,621.9h.7v-.8h-.7v.8Z" class="g1_1"/>
<path d="M47.8,621.9H355.7v-.8H47.8v.8Z" class="g1_1"/>
<path d="M355.7,621.9h.7v-.8h-.7v.8Z" class="g1_1"/>
<path d="M356.4,621.9h87.8v-.8H356.4v.8Z" class="g1_1"/>
<path d="M444.2,621.9h.8v-.8h-.8v.8Z" class="g1_1"/>
<path d="M444.9,621.9H752.8v-.8H444.9v.8Z" class="g1_1"/>
<path d="M752.8,621.9h.7v-.8h-.7v.8Z" class="g1_1"/>
<path d="M753.5,621.9h87.8v-.8H753.5v.8Z" class="g1_1"/>
<path d="M841.3,621.9h.7v-.8h-.7v.8Z" class="g1_1"/>
<path d="M842,621.9h307.9v-.8H842v.8Z" class="g1_1"/>
<path d="M1149.9,621.9h.7v-.8h-.7v.8Z" class="g1_1"/>
<path d="M1150.6,621.9h87.6v-.8h-87.6v.8Z" class="g1_1"/>
<path d="M1238.2,621.9h.8v-.8h-.8v.8Z" class="g1_1"/>
<path d="M47.1,643.7h.7V621.9h-.7v21.8Z" class="g1_1"/>
<path d="M355.7,643.7h.7V621.9h-.7v21.8Z" class="g1_1"/>
<path d="M444.2,643.7h.8V621.9h-.8v21.8Z" class="g1_1"/>
<path d="M752.8,643.7h.7V621.9h-.7v21.8Z" class="g1_1"/>
<path d="M841.3,643.7h.7V621.9h-.7v21.8Z" class="g1_1"/>
<path d="M1149.9,643.7h.7V621.9h-.7v21.8Z" class="g1_1"/>
<path d="M1238.2,643.7h.8V621.9h-.8v21.8Z" class="g1_1"/>
<path d="M47.1,644.4h.7v-.7h-.7v.7Z" class="g1_1"/>
<path d="M47.8,644.4H355.7v-.7H47.8v.7Z" class="g1_1"/>
<path d="M355.7,644.4h.7v-.7h-.7v.7Z" class="g1_1"/>
<path d="M356.4,644.4h87.8v-.7H356.4v.7Z" class="g1_1"/>
<path d="M444.2,644.4h.8v-.7h-.8v.7Z" class="g1_1"/>
<path d="M444.9,644.4H752.8v-.7H444.9v.7Z" class="g1_1"/>
<path d="M752.8,644.4h.7v-.7h-.7v.7Z" class="g1_1"/>
<path d="M753.5,644.4h87.8v-.7H753.5v.7Z" class="g1_1"/>
<path d="M841.3,644.4h.7v-.7h-.7v.7Z" class="g1_1"/>
<path d="M842,644.4h307.9v-.7H842v.7Z" class="g1_1"/>
<path d="M1149.9,644.4h.7v-.7h-.7v.7Z" class="g1_1"/>
<path d="M1150.6,644.4h87.6v-.7h-87.6v.7Z" class="g1_1"/>
<path d="M1238.2,644.4h.8v-.7h-.8v.7Z" class="g1_1"/>
<path d="M47.1,666.1h.7V644.4h-.7v21.7Z" class="g1_1"/>
<path d="M355.7,666.1h.7V644.4h-.7v21.7Z" class="g1_1"/>
<path d="M444.2,666.1h.8V644.4h-.8v21.7Z" class="g1_1"/>
<path d="M752.8,666.1h.7V644.4h-.7v21.7Z" class="g1_1"/>
<path d="M841.3,666.1h.7V644.4h-.7v21.7Z" class="g1_1"/>
<path d="M1149.9,666.1h.7V644.4h-.7v21.7Z" class="g1_1"/>
<path d="M1238.2,666.1h.8V644.4h-.8v21.7Z" class="g1_1"/>
<path d="M47.1,666.8h.7V666h-.7v.8Z" class="g1_1"/>
<path d="M47.8,666.8H355.7V666H47.8v.8Z" class="g1_1"/>
<path d="M355.7,666.8h.7V666h-.7v.8Z" class="g1_1"/>
<path d="M356.4,666.8h87.8V666H356.4v.8Z" class="g1_1"/>
<path d="M444.2,666.8h.8V666h-.8v.8Z" class="g1_1"/>
<path d="M444.9,666.8H752.8V666H444.9v.8Z" class="g1_1"/>
<path d="M752.8,666.8h.7V666h-.7v.8Z" class="g1_1"/>
<path d="M753.5,666.8h87.8V666H753.5v.8Z" class="g1_1"/>
<path d="M841.3,666.8h.7V666h-.7v.8Z" class="g1_1"/>
<path d="M842,666.8h307.9V666H842v.8Z" class="g1_1"/>
<path d="M1149.9,666.8h.7V666h-.7v.8Z" class="g1_1"/>
<path d="M1150.6,666.8h87.6V666h-87.6v.8Z" class="g1_1"/>
<path d="M1238.2,666.8h.8V666h-.8v.8Z" class="g1_1"/>
<path d="M47.1,688.6h.7V666.8h-.7v21.8Z" class="g1_1"/>
<path d="M355.7,688.6h.7V666.8h-.7v21.8Z" class="g1_1"/>
<path d="M444.2,688.6h.8V666.8h-.8v21.8Z" class="g1_1"/>
<path d="M752.8,688.6h.7V666.8h-.7v21.8Z" class="g1_1"/>
<path d="M841.3,688.6h.7V666.8h-.7v21.8Z" class="g1_1"/>
<path d="M1149.9,688.6h.7V666.8h-.7v21.8Z" class="g1_1"/>
<path d="M1238.2,688.6h.8V666.8h-.8v21.8Z" class="g1_1"/>
<path d="M47.1,689.3h.7v-.7h-.7v.7Z" class="g1_1"/>
<path d="M47.8,689.3H355.7v-.7H47.8v.7Z" class="g1_1"/>
<path d="M355.7,689.3h.7v-.7h-.7v.7Z" class="g1_1"/>
<path d="M356.4,689.3h87.8v-.7H356.4v.7Z" class="g1_1"/>
<path d="M444.2,689.3h.8v-.7h-.8v.7Z" class="g1_1"/>
<path d="M444.9,689.3H752.8v-.7H444.9v.7Z" class="g1_1"/>
<path d="M752.8,689.3h.7v-.7h-.7v.7Z" class="g1_1"/>
<path d="M753.5,689.3h87.8v-.7H753.5v.7Z" class="g1_1"/>
<path d="M841.3,689.3h.7v-.7h-.7v.7Z" class="g1_1"/>
<path d="M842,689.3h307.9v-.7H842v.7Z" class="g1_1"/>
<path d="M1149.9,689.3h.7v-.7h-.7v.7Z" class="g1_1"/>
<path d="M1150.6,689.3h87.6v-.7h-87.6v.7Z" class="g1_1"/>
<path d="M1238.2,689.3h.8v-.7h-.8v.7Z" class="g1_1"/>
<path d="M47.1,711h.7V689.3h-.7V711Z" class="g1_1"/>
<path d="M355.7,711h.7V689.3h-.7V711Z" class="g1_1"/>
<path d="M444.2,711h.8V689.3h-.8V711Z" class="g1_1"/>
<path d="M752.8,711h.7V689.3h-.7V711Z" class="g1_1"/>
<path d="M841.3,711h.7V689.3h-.7V711Z" class="g1_1"/>
<path d="M1149.9,711h.7V689.3h-.7V711Z" class="g1_1"/>
<path d="M1238.2,711h.8V689.3h-.8V711Z" class="g1_1"/>
<path d="M47.1,711.7h.7V711h-.7v.7Z" class="g1_1"/>
<path d="M47.8,711.7H355.7V711H47.8v.7Z" class="g1_1"/>
<path d="M355.7,711.7h.7V711h-.7v.7Z" class="g1_1"/>
<path d="M356.4,711.7h87.8V711H356.4v.7Z" class="g1_1"/>
<path d="M444.2,711.7h.8V711h-.8v.7Z" class="g1_1"/>
<path d="M444.9,711.7H752.8V711H444.9v.7Z" class="g1_1"/>
<path d="M752.8,711.7h.7V711h-.7v.7Z" class="g1_1"/>
<path d="M753.5,711.7h87.8V711H753.5v.7Z" class="g1_1"/>
<path d="M841.3,711.7h.7V711h-.7v.7Z" class="g1_1"/>
<path d="M842,711.7h307.9V711H842v.7Z" class="g1_1"/>
<path d="M1149.9,711.7h.7V711h-.7v.7Z" class="g1_1"/>
<path d="M1150.6,711.7h87.6V711h-87.6v.7Z" class="g1_1"/>
<path d="M1238.2,711.7h.8V711h-.8v.7Z" class="g1_1"/>
<path d="M47.1,733.5h.7V711.7h-.7v21.8Z" class="g1_1"/>
<path d="M355.7,733.5h.7V711.7h-.7v21.8Z" class="g1_1"/>
<path d="M444.2,733.5h.8V711.7h-.8v21.8Z" class="g1_1"/>
<path d="M752.8,733.5h.7V711.7h-.7v21.8Z" class="g1_1"/>
<path d="M841.3,733.5h.7V711.7h-.7v21.8Z" class="g1_1"/>
<path d="M1149.9,733.5h.7V711.7h-.7v21.8Z" class="g1_1"/>
<path d="M1238.2,733.5h.8V711.7h-.8v21.8Z" class="g1_1"/>
<path d="M47.1,734.3h.7v-.8h-.7v.8Z" class="g1_1"/>
<path d="M47.8,734.3H355.7v-.8H47.8v.8Z" class="g1_1"/>
<path d="M355.7,734.3h.7v-.8h-.7v.8Z" class="g1_1"/>
<path d="M356.4,734.3h87.8v-.8H356.4v.8Z" class="g1_1"/>
<path d="M444.2,734.3h.8v-.8h-.8v.8Z" class="g1_1"/>
<path d="M444.9,734.3H752.8v-.8H444.9v.8Z" class="g1_1"/>
<path d="M752.8,734.3h.7v-.8h-.7v.8Z" class="g1_1"/>
<path d="M753.5,734.3h87.8v-.8H753.5v.8Z" class="g1_1"/>
<path d="M841.3,734.3h.7v-.8h-.7v.8Z" class="g1_1"/>
<path d="M842,734.3h307.9v-.8H842v.8Z" class="g1_1"/>
<path d="M1149.9,734.3h.7v-.8h-.7v.8Z" class="g1_1"/>
<path d="M1150.6,734.3h87.6v-.8h-87.6v.8Z" class="g1_1"/>
<path d="M1238.2,734.3h.8v-.8h-.8v.8Z" class="g1_1"/>
<path d="M47.1,755.9h.7V734.2h-.7v21.7Z" class="g1_1"/>
<path d="M355.7,755.9h.7V734.2h-.7v21.7Z" class="g1_1"/>
<path d="M444.2,755.9h.8V734.2h-.8v21.7Z" class="g1_1"/>
<path d="M752.8,755.9h.7V734.2h-.7v21.7Z" class="g1_1"/>
<path d="M841.3,755.9h.7V734.2h-.7v21.7Z" class="g1_1"/>
<path d="M1149.9,755.9h.7V734.2h-.7v21.7Z" class="g1_1"/>
<path d="M1238.2,755.9h.8V734.2h-.8v21.7Z" class="g1_1"/>
<path d="M47.1,756.6h.7v-.7h-.7v.7Z" class="g1_1"/>
<path d="M47.8,756.6H355.7v-.7H47.8v.7Z" class="g1_1"/>
<path d="M355.7,756.6h.7v-.7h-.7v.7Z" class="g1_1"/>
<path d="M356.4,756.6h87.8v-.7H356.4v.7Z" class="g1_1"/>
<path d="M444.2,756.6h.8v-.7h-.8v.7Z" class="g1_1"/>
<path d="M444.9,756.6H752.8v-.7H444.9v.7Z" class="g1_1"/>
<path d="M752.8,756.6h.7v-.7h-.7v.7Z" class="g1_1"/>
<path d="M753.5,756.6h87.8v-.7H753.5v.7Z" class="g1_1"/>
<path d="M841.3,756.6h.7v-.7h-.7v.7Z" class="g1_1"/>
<path d="M842,756.6h307.9v-.7H842v.7Z" class="g1_1"/>
<path d="M1149.9,756.6h.7v-.7h-.7v.7Z" class="g1_1"/>
<path d="M1150.6,756.6h87.6v-.7h-87.6v.7Z" class="g1_1"/>
<path d="M1238.2,756.6h.8v-.7h-.8v.7Z" class="g1_1"/>
<path d="M47.1,778.4h.7V756.6h-.7v21.8Z" class="g1_1"/>
<path d="M355.7,778.4h.7V756.6h-.7v21.8Z" class="g1_1"/>
<path d="M444.2,778.4h.8V756.6h-.8v21.8Z" class="g1_1"/>
<path d="M752.8,778.4h.7V756.6h-.7v21.8Z" class="g1_1"/>
<path d="M841.3,778.4h.7V756.6h-.7v21.8Z" class="g1_1"/>
<path d="M1149.9,778.4h.7V756.6h-.7v21.8Z" class="g1_1"/>
<path d="M1238.2,778.4h.8V756.6h-.8v21.8Z" class="g1_1"/>
<path d="M47.1,779.2h.7v-.8h-.7v.8Z" class="g1_1"/>
<path d="M47.8,779.2H355.7v-.8H47.8v.8Z" class="g1_1"/>
<path d="M355.7,779.2h.7v-.8h-.7v.8Z" class="g1_1"/>
<path d="M356.4,779.2h87.8v-.8H356.4v.8Z" class="g1_1"/>
<path d="M444.2,779.2h.8v-.8h-.8v.8Z" class="g1_1"/>
<path d="M444.9,779.2H752.8v-.8H444.9v.8Z" class="g1_1"/>
<path d="M752.8,779.2h.7v-.8h-.7v.8Z" class="g1_1"/>
<path d="M753.5,779.2h87.8v-.8H753.5v.8Z" class="g1_1"/>
<path d="M841.3,779.2h.7v-.8h-.7v.8Z" class="g1_1"/>
<path d="M842,779.2h307.9v-.8H842v.8Z" class="g1_1"/>
<path d="M1149.9,779.2h.7v-.8h-.7v.8Z" class="g1_1"/>
<path d="M1150.6,779.2h87.6v-.8h-87.6v.8Z" class="g1_1"/>
<path d="M1238.2,779.2h.8v-.8h-.8v.8Z" class="g1_1"/>
<path d="M47.1,800.8h.7V779.2h-.7v21.6Z" class="g1_1"/>
<path d="M355.7,800.8h.7V779.2h-.7v21.6Z" class="g1_1"/>
<path d="M444.2,800.8h.8V779.2h-.8v21.6Z" class="g1_1"/>
<path d="M752.8,800.8h.7V779.2h-.7v21.6Z" class="g1_1"/>
<path d="M841.3,800.8h.7V779.2h-.7v21.6Z" class="g1_1"/>
<path d="M1149.9,800.8h.7V779.2h-.7v21.6Z" class="g1_1"/>
<path d="M1238.2,800.8h.8V779.2h-.8v21.6Z" class="g1_1"/>
<path d="M47.1,801.5h.7v-.7h-.7v.7Z" class="g1_1"/>
<path d="M47.8,801.5H355.7v-.7H47.8v.7Z" class="g1_1"/>
<path d="M355.7,801.5h.7v-.7h-.7v.7Z" class="g1_1"/>
<path d="M356.4,801.5h87.8v-.7H356.4v.7Z" class="g1_1"/>
<path d="M444.2,801.5h.8v-.7h-.8v.7Z" class="g1_1"/>
<path d="M444.9,801.5H752.8v-.7H444.9v.7Z" class="g1_1"/>
<path d="M752.8,801.5h.7v-.7h-.7v.7Z" class="g1_1"/>
<path d="M753.5,801.5h87.8v-.7H753.5v.7Z" class="g1_1"/>
<path d="M841.3,801.5h.7v-.7h-.7v.7Z" class="g1_1"/>
<path d="M842,801.5h307.9v-.7H842v.7Z" class="g1_1"/>
<path d="M1149.9,801.5h.7v-.7h-.7v.7Z" class="g1_1"/>
<path d="M1150.6,801.5h87.6v-.7h-87.6v.7Z" class="g1_1"/>
<path d="M1238.2,801.5h.8v-.7h-.8v.7Z" class="g1_1"/>
<path d="M47.1,823.4h.7V801.5h-.7v21.9Z" class="g1_1"/>
<path d="M355.7,823.4h.7V801.5h-.7v21.9Z" class="g1_1"/>
<path d="M444.2,823.4h.8V801.5h-.8v21.9Z" class="g1_1"/>
<path d="M752.8,823.4h.7V801.5h-.7v21.9Z" class="g1_1"/>
<path d="M841.3,823.4h.7V801.5h-.7v21.9Z" class="g1_1"/>
<path d="M1149.9,823.4h.7V801.5h-.7v21.9Z" class="g1_1"/>
<path d="M1238.2,823.4h.8V801.5h-.8v21.9Z" class="g1_1"/>
<path d="M47.1,824.1h.7v-.8h-.7v.8Z" class="g1_1"/>
<path d="M47.8,824.1H355.7v-.8H47.8v.8Z" class="g1_1"/>
<path d="M355.7,824.1h.7v-.8h-.7v.8Z" class="g1_1"/>
<path d="M356.4,824.1h87.8v-.8H356.4v.8Z" class="g1_1"/>
<path d="M444.2,824.1h.8v-.8h-.8v.8Z" class="g1_1"/>
<path d="M444.9,824.1H752.8v-.8H444.9v.8Z" class="g1_1"/>
<path d="M752.8,824.1h.7v-.8h-.7v.8Z" class="g1_1"/>
<path d="M753.5,824.1h87.8v-.8H753.5v.8Z" class="g1_1"/>
<path d="M841.3,824.1h.7v-.8h-.7v.8Z" class="g1_1"/>
<path d="M842,824.1h307.9v-.8H842v.8Z" class="g1_1"/>
<path d="M1149.9,824.1h.7v-.8h-.7v.8Z" class="g1_1"/>
<path d="M1150.6,824.1h87.6v-.8h-87.6v.8Z" class="g1_1"/>
<path d="M1238.2,824.1h.8v-.8h-.8v.8Z" class="g1_1"/>
<path d="M47.1,845.9h.7V824.1h-.7v21.8Z" class="g1_1"/>
<path d="M47.1,846.6h.7v-.7h-.7v.7Z" class="g1_1"/>
<path d="M47.1,846.6h.7v-.7h-.7v.7Z" class="g1_1"/>
<path d="M47.8,846.6H355.7v-.7H47.8v.7Z" class="g1_1"/>
<path d="M355.7,845.9h.7V824.1h-.7v21.8Z" class="g1_1"/>
<path d="M355.7,846.6h.7v-.7h-.7v.7Z" class="g1_1"/>
<path d="M356.4,846.6h87.8v-.7H356.4v.7Z" class="g1_1"/>
<path d="M444.2,845.9h.8V824.1h-.8v21.8Z" class="g1_1"/>
<path d="M444.2,846.6h.8v-.7h-.8v.7Z" class="g1_1"/>
<path d="M444.9,846.6H752.8v-.7H444.9v.7Z" class="g1_1"/>
<path d="M752.8,845.9h.7V824.1h-.7v21.8Z" class="g1_1"/>
<path d="M752.8,846.6h.7v-.7h-.7v.7Z" class="g1_1"/>
<path d="M753.5,846.6h87.8v-.7H753.5v.7Z" class="g1_1"/>
<path d="M841.3,845.9h.7V824.1h-.7v21.8Z" class="g1_1"/>
<path d="M841.3,846.6h.7v-.7h-.7v.7Z" class="g1_1"/>
<path d="M842,846.6h307.9v-.7H842v.7Z" class="g1_1"/>
<path d="M1149.9,845.9h.7V824.1h-.7v21.8Z" class="g1_1"/>
<path d="M1149.9,846.6h.7v-.7h-.7v.7Z" class="g1_1"/>
<path d="M1150.6,846.6h87.6v-.7h-87.6v.7Z" class="g1_1"/>
<path d="M1238.2,845.9h.8V824.1h-.8v21.8Z" class="g1_1"/>
<path d="M1238.2,846.6h.8v-.7h-.8v.7Z" class="g1_1"/>
<path d="M1238.2,846.6h.8v-.7h-.8v.7Z" class="g1_1"/>
</svg>