<?xml version="1.0" encoding="UTF-8" standalone="no"?>
<!DOCTYPE svg PUBLIC "-//W3C//DTD SVG 1.1//EN"
"http://www.w3.org/Graphics/SVG/1.1/DTD/svg11.dtd">
<svg viewBox="0 0 1286 909" version="1.1" xmlns="http://www.w3.org/2000/svg" xmlns:xlink="http://www.w3.org/1999/xlink">
<defs>
<style type="text/css"><![CDATA[
.g0_2{
fill: #D9D9D9;
}
.g1_2{
}
]]></style>
</defs>
<path fill-rule="evenodd" d="M47.8,65.8H196.2V44H47.8V65.8Z" class="g0_2"/>
<path fill-rule="evenodd" d="M55.7,63.6H188.3V46.2H55.7V63.6Z" class="g0_2"/>
<path fill-rule="evenodd" d="M196.9,65.8H345V44H196.9V65.8Z" class="g0_2"/>
<path fill-rule="evenodd" d="M204.8,63.6H337.1V46.2H204.8V63.6Z" class="g0_2"/>
<path fill-rule="evenodd" d="M345.8,65.8H493.9V44H345.8V65.8Z" class="g0_2"/>
<path fill-rule="evenodd" d="M353.6,63.6H486V46.2H353.6V63.6Z" class="g0_2"/>
<path fill-rule="evenodd" d="M494.6,65.8H642.8V44H494.6V65.8Z" class="g0_2"/>
<path fill-rule="evenodd" d="M502.5,63.6H634.9V46.2H502.5V63.6Z" class="g0_2"/>
<path fill-rule="evenodd" d="M643.5,65.8H791.6V44H643.5V65.8Z" class="g0_2"/>
<path fill-rule="evenodd" d="M651.4,63.6H783.8V46.2H651.4V63.6Z" class="g0_2"/>
<path fill-rule="evenodd" d="M792.4,65.8H940.5V44H792.4V65.8Z" class="g0_2"/>
<path fill-rule="evenodd" d="M800.2,63.6H932.6V46.2H800.2V63.6Z" class="g0_2"/>
<path fill-rule="evenodd" d="M941.2,65.8h148.2V44H941.2V65.8Z" class="g0_2"/>
<path fill-rule="evenodd" d="M949.1,63.6h132.4V46.2H949.1V63.6Z" class="g0_2"/>
<path fill-rule="evenodd" d="M1090.1,65.8h148.1V44H1090.1V65.8Z" class="g0_2"/>
<path fill-rule="evenodd" d="M1098,63.6h132.4V46.2H1098V63.6Z" class="g0_2"/>
<path d="M47.1,44h.7v-.7h-.7V44Z" class="g1_2"/>
<path d="M47.1,44h.7v-.7h-.7V44Z" class="g1_2"/>
<path d="M47.8,44H196.2v-.7H47.8V44Z" class="g1_2"/>
<path d="M196.2,44h.7v-.7h-.7V44Z" class="g1_2"/>
<path d="M196.9,44H345v-.7H196.9V44Z" class="g1_2"/>
<path d="M345,44h.8v-.7H345V44Z" class="g1_2"/>
<path d="M345.8,44H493.9v-.7H345.8V44Z" class="g1_2"/>
<path d="M493.9,44h.7v-.7h-.7V44Z" class="g1_2"/>
<path d="M494.6,44H642.8v-.7H494.6V44Z" class="g1_2"/>
<path d="M642.8,44h.7v-.7h-.7V44Z" class="g1_2"/>
<path d="M643.5,44H791.6v-.7H643.5V44Z" class="g1_2"/>
<path d="M791.6,44h.8v-.7h-.8V44Z" class="g1_2"/>
<path d="M792.4,44H940.5v-.7H792.4V44Z" class="g1_2"/>
<path d="M940.5,44h.7v-.7h-.7V44Z" class="g1_2"/>
<path d="M941.2,44h148.2v-.7H941.2V44Z" class="g1_2"/>
<path d="M1089.4,44h.7v-.7h-.7V44Z" class="g1_2"/>
<path d="M1090.1,44h148.1v-.7H1090.1V44Z" class="g1_2"/>
<path d="M1238.2,44h.8v-.7h-.8V44Z" class="g1_2"/>
<path d="M1238.2,44h.8v-.7h-.8V44Z" class="g1_2"/>
<path d="M47.1,65.8h.7V44h-.7V65.8Z" class="g1_2"/>
<path d="M196.2,65.8h.7V44h-.7V65.8Z" class="g1_2"/>
<path d="M345,65.8h.8V44H345V65.8Z" class="g1_2"/>
<path d="M493.9,65.8h.7V44h-.7V65.8Z" class="g1_2"/>
<path d="M642.8,65.8h.7V44h-.7V65.8Z" class="g1_2"/>
<path d="M791.6,65.8h.8V44h-.8V65.8Z" class="g1_2"/>
<path d="M940.5,65.8h.7V44h-.7V65.8Z" class="g1_2"/>
<path d="M1089.4,65.8h.7V44h-.7V65.8Z" class="g1_2"/>
<path d="M1238.2,65.8h.8V44h-.8V65.8Z" class="g1_2"/>
<path d="M47.1,66.5h.7v-.7h-.7v.7Z" class="g1_2"/>
<path d="M47.8,66.5H196.2v-.7H47.8v.7Z" class="g1_2"/>
<path d="M196.2,66.5h.7v-.7h-.7v.7Z" class="g1_2"/>
<path d="M196.9,66.5H345v-.7H196.9v.7Z" class="g1_2"/>
<path d="M345,66.5h.8v-.7H345v.7Z" class="g1_2"/>
<path d="M345.8,66.5H493.9v-.7H345.8v.7Z" class="g1_2"/>
<path d="M493.9,66.5h.7v-.7h-.7v.7Z" class="g1_2"/>
<path d="M494.6,66.5H642.8v-.7H494.6v.7Z" class="g1_2"/>
<path d="M642.8,66.5h.7v-.7h-.7v.7Z" class="g1_2"/>
<path d="M643.5,66.5H791.6v-.7H643.5v.7Z" class="g1_2"/>
<path d="M791.6,66.5h.8v-.7h-.8v.7Z" class="g1_2"/>
<path d="M792.4,66.5H940.5v-.7H792.4v.7Z" class="g1_2"/>
<path d="M940.5,66.5h.7v-.7h-.7v.7Z" class="g1_2"/>
<path d="M941.2,66.5h148.2v-.7H941.2v.7Z" class="g1_2"/>
<path d="M1089.4,66.5h.7v-.7h-.7v.7Z" class="g1_2"/>
<path d="M1090.1,66.5h148.1v-.7H1090.1v.7Z" class="g1_2"/>
<path d="M1238.2,66.5h.8v-.7h-.8v.7Z" class="g1_2"/>
<path d="M47.1,88.2h.7V66.5h-.7V88.2Z" class="g1_2"/>
<path d="M196.2,88.2h.7V66.5h-.7V88.2Z" class="g1_2"/>
<path d="M345,88.2h.8V66.5H345V88.2Z" class="g1_2"/>
<path d="M493.9,88.2h.7V66.5h-.7V88.2Z" class="g1_2"/>
<path d="M642.8,88.2h.7V66.5h-.7V88.2Z" class="g1_2"/>
<path d="M791.6,88.2h.8V66.5h-.8V88.2Z" class="g1_2"/>
<path d="M940.5,88.2h.7V66.5h-.7V88.2Z" class="g1_2"/>
<path d="M1089.4,88.2h.7V66.5h-.7V88.2Z" class="g1_2"/>
<path d="M1238.2,88.2h.8V66.5h-.8V88.2Z" class="g1_2"/>
<path d="M47.1,88.9h.7v-.7h-.7v.7Z" class="g1_2"/>
<path d="M47.8,88.9H196.2v-.7H47.8v.7Z" class="g1_2"/>
<path d="M196.2,88.9h.7v-.7h-.7v.7Z" class="g1_2"/>
<path d="M196.9,88.9H345v-.7H196.9v.7Z" class="g1_2"/>
<path d="M345,88.9h.8v-.7H345v.7Z" class="g1_2"/>
<path d="M345.8,88.9H493.9v-.7H345.8v.7Z" class="g1_2"/>
<path d="M493.9,88.9h.7v-.7h-.7v.7Z" class="g1_2"/>
<path d="M494.6,88.9H642.8v-.7H494.6v.7Z" class="g1_2"/>
<path d="M642.8,88.9h.7v-.7h-.7v.7Z" class="g1_2"/>
<path d="M643.5,88.9H791.6v-.7H643.5v.7Z" class="g1_2"/>
<path d="M791.6,88.9h.8v-.7h-.8v.7Z" class="g1_2"/>
<path d="M792.4,88.9H940.5v-.7H792.4v.7Z" class="g1_2"/>
<path d="M940.5,88.9h.7v-.7h-.7v.7Z" class="g1_2"/>
<path d="M941.2,88.9h148.2v-.7H941.2v.7Z" class="g1_2"/>
<path d="M1089.4,88.9h.7v-.7h-.7v.7Z" class="g1_2"/>
<path d="M1090.1,88.9h148.1v-.7H1090.1v.7Z" class="g1_2"/>
<path d="M1238.2,88.9h.8v-.7h-.8v.7Z" class="g1_2"/>
<path d="M47.1,110.7h.7V88.9h-.7v21.8Z" class="g1_2"/>
<path d="M196.2,110.7h.7V88.9h-.7v21.8Z" class="g1_2"/>
<path d="M345,110.7h.8V88.9H345v21.8Z" class="g1_2"/>
<path d="M493.9,110.7h.7V88.9h-.7v21.8Z" class="g1_2"/>
<path d="M642.8,110.7h.7V88.9h-.7v21.8Z" class="g1_2"/>
<path d="M791.6,110.7h.8V88.9h-.8v21.8Z" class="g1_2"/>
<path d="M940.5,110.7h.7V88.9h-.7v21.8Z" class="g1_2"/>
<path d="M1089.4,110.7h.7V88.9h-.7v21.8Z" class="g1_2"/>
<path d="M1238.2,110.7h.8V88.9h-.8v21.8Z" class="g1_2"/>
<path d="M47.1,111.5h.7v-.8h-.7v.8Z" class="g1_2"/>
<path d="M47.8,111.5H196.2v-.8H47.8v.8Z" class="g1_2"/>
<path d="M196.2,111.5h.7v-.8h-.7v.8Z" class="g1_2"/>
<path d="M196.9,111.5H345v-.8H196.9v.8Z" class="g1_2"/>
<path d="M345,111.5h.8v-.8H345v.8Z" class="g1_2"/>
<path d="M345.8,111.5H493.9v-.8H345.8v.8Z" class="g1_2"/>
<path d="M493.9,111.5h.7v-.8h-.7v.8Z" class="g1_2"/>
<path d="M494.6,111.5H642.8v-.8H494.6v.8Z" class="g1_2"/>
<path d="M642.8,111.5h.7v-.8h-.7v.8Z" class="g1_2"/>
<path d="M643.5,111.5H791.6v-.8H643.5v.8Z" class="g1_2"/>
<path d="M791.6,111.5h.8v-.8h-.8v.8Z" class="g1_2"/>
<path d="M792.4,111.5H940.5v-.8H792.4v.8Z" class="g1_2"/>
<path d="M940.5,111.5h.7v-.8h-.7v.8Z" class="g1_2"/>
<path d="M941.2,111.5h148.2v-.8H941.2v.8Z" class="g1_2"/>
<path d="M1089.4,111.5h.7v-.8h-.7v.8Z" class="g1_2"/>
<path d="M1090.1,111.5h148.1v-.8H1090.1v.8Z" class="g1_2"/>
<path d="M1238.2,111.5h.8v-.8h-.8v.8Z" class="g1_2"/>
<path d="M47.1,133.1h.7V111.5h-.7v21.6Z" class="g1_2"/>
<path d="M196.2,133.1h.7V111.5h-.7v21.6Z" class="g1_2"/>
<path d="M345,133.1h.8V111.5H345v21.6Z" class="g1_2"/>
<path d="M493.9,133.1h.7V111.5h-.7v21.6Z" class="g1_2"/>
<path d="M642.8,133.1h.7V111.5h-.7v21.6Z" class="g1_2"/>
<path d="M791.6,133.1h.8V111.5h-.8v21.6Z" class="g1_2"/>
<path d="M940.5,133.1h.7V111.5h-.7v21.6Z" class="g1_2"/>
<path d="M1089.4,133.1h.7V111.5h-.7v21.6Z" class="g1_2"/>
<path d="M1238.2,133.1h.8V111.5h-.8v21.6Z" class="g1_2"/>
<path d="M47.1,133.8h.7v-.7h-.7v.7Z" class="g1_2"/>
<path d="M47.8,133.8H196.2v-.7H47.8v.7Z" class="g1_2"/>
<path d="M196.2,133.8h.7v-.7h-.7v.7Z" class="g1_2"/>
<path d="M196.9,133.8H345v-.7H196.9v.7Z" class="g1_2"/>
<path d="M345,133.8h.8v-.7H345v.7Z" class="g1_2"/>
<path d="M345.8,133.8H493.9v-.7H345.8v.7Z" class="g1_2"/>
<path d="M493.9,133.8h.7v-.7h-.7v.7Z" class="g1_2"/>
<path d="M494.6,133.8H642.8v-.7H494.6v.7Z" class="g1_2"/>
<path d="M642.8,133.8h.7v-.7h-.7v.7Z" class="g1_2"/>
<path d="M643.5,133.8H791.6v-.7H643.5v.7Z" class="g1_2"/>
<path d="M791.6,133.8h.8v-.7h-.8v.7Z" class="g1_2"/>
<path d="M792.4,133.8H940.5v-.7H792.4v.7Z" class="g1_2"/>
<path d="M940.5,133.8h.7v-.7h-.7v.7Z" class="g1_2"/>
<path d="M941.2,133.8h148.2v-.7H941.2v.7Z" class="g1_2"/>
<path d="M1089.4,133.8h.7v-.7h-.7v.7Z" class="g1_2"/>
<path d="M1090.1,133.8h148.1v-.7H1090.1v.7Z" class="g1_2"/>
<path d="M1238.2,133.8h.8v-.7h-.8v.7Z" class="g1_2"/>
<path d="M47.1,155.7h.7V133.8h-.7v21.9Z" class="g1_2"/>
<path d="M196.2,155.7h.7V133.8h-.7v21.9Z" class="g1_2"/>
<path d="M345,155.7h.8V133.8H345v21.9Z" class="g1_2"/>
<path d="M493.9,155.7h.7V133.8h-.7v21.9Z" class="g1_2"/>
<path d="M642.8,155.7h.7V133.8h-.7v21.9Z" class="g1_2"/>
<path d="M791.6,155.7h.8V133.8h-.8v21.9Z" class="g1_2"/>
<path d="M940.5,155.7h.7V133.8h-.7v21.9Z" class="g1_2"/>
<path d="M1089.4,155.7h.7V133.8h-.7v21.9Z" class="g1_2"/>
<path d="M1238.2,155.7h.8V133.8h-.8v21.9Z" class="g1_2"/>
<path d="M47.1,156.4h.7v-.8h-.7v.8Z" class="g1_2"/>
<path d="M47.8,156.4H196.2v-.8H47.8v.8Z" class="g1_2"/>
<path d="M196.2,156.4h.7v-.8h-.7v.8Z" class="g1_2"/>
<path d="M196.9,156.4H345v-.8H196.9v.8Z" class="g1_2"/>
<path d="M345,156.4h.8v-.8H345v.8Z" class="g1_2"/>
<path d="M345.8,156.4H493.9v-.8H345.8v.8Z" class="g1_2"/>
<path d="M493.9,156.4h.7v-.8h-.7v.8Z" class="g1_2"/>
<path d="M494.6,156.4H642.8v-.8H494.6v.8Z" class="g1_2"/>
<path d="M642.8,156.4h.7v-.8h-.7v.8Z" class="g1_2"/>
<path d="M643.5,156.4H791.6v-.8H643.5v.8Z" class="g1_2"/>
<path d="M791.6,156.4h.8v-.8h-.8v.8Z" class="g1_2"/>
<path d="M792.4,156.4H940.5v-.8H792.4v.8Z" class="g1_2"/>
<path d="M940.5,156.4h.7v-.8h-.7v.8Z" class="g1_2"/>
<path d="M941.2,156.4h148.2v-.8H941.2v.8Z" class="g1_2"/>
<path d="M1089.4,156.4h.7v-.8h-.7v.8Z" class="g1_2"/>
<path d="M1090.1,156.4h148.1v-.8H1090.1v.8Z" class="g1_2"/>
<path d="M1238.2,156.4h.8v-.8h-.8v.8Z" class="g1_2"/>
<path d="M47.1,178h.7V156.4h-.7V178Z" class="g1_2"/>
<path d="M196.2,178h.7V156.4h-.7V178Z" class="g1_2"/>
<path d="M345,178h.8V156.4H345V178Z" class="g1_2"/>
<path d="M493.9,178h.7V156.4h-.7V178Z" class="g1_2"/>
<path d="M642.8,178h.7V156.4h-.7V178Z" class="g1_2"/>
<path d="M791.6,178h.8V156.4h-.8V178Z" class="g1_2"/>
<path d="M940.5,178h.7V156.4h-.7V178Z" class="g1_2"/>
<path d="M1089.4,178h.7V156.4h-.7V178Z" class="g1_2"/>
<path d="M1238.2,178h.8V156.4h-.8V178Z" class="g1_2"/>
<path d="M47.1,178.8h.7V178h-.7v.8Z" class="g1_2"/>
<path d="M47.8,178.8H196.2V178H47.8v.8Z" class="g1_2"/>
<path d="M196.2,178.8h.7V178h-.7v.8Z" class="g1_2"/>
<path d="M196.9,178.8H345V178H196.9v.8Z" class="g1_2"/>
<path d="M345,178.8h.8V178H345v.8Z" class="g1_2"/>
<path d="M345.8,178.8H493.9V178H345.8v.8Z" class="g1_2"/>
<path d="M493.9,178.8h.7V178h-.7v.8Z" class="g1_2"/>
<path d="M494.6,178.8H642.8V178H494.6v.8Z" class="g1_2"/>
<path d="M642.8,178.8h.7V178h-.7v.8Z" class="g1_2"/>
<path d="M643.5,178.8H791.6V178H643.5v.8Z" class="g1_2"/>
<path d="M791.6,178.8h.8V178h-.8v.8Z" class="g1_2"/>
<path d="M792.4,178.8H940.5V178H792.4v.8Z" class="g1_2"/>
<path d="M940.5,178.8h.7V178h-.7v.8Z" class="g1_2"/>
<path d="M941.2,178.8h148.2V178H941.2v.8Z" class="g1_2"/>
<path d="M1089.4,178.8h.7V178h-.7v.8Z" class="g1_2"/>
<path d="M1090.1,178.8h148.1V178H1090.1v.8Z" class="g1_2"/>
<path d="M1238.2,178.8h.8V178h-.8v.8Z" class="g1_2"/>
<path d="M47.1,200.6h.7V178.8h-.7v21.8Z" class="g1_2"/>
<path d="M196.2,200.6h.7V178.8h-.7v21.8Z" class="g1_2"/>
<path d="M345,200.6h.8V178.8H345v21.8Z" class="g1_2"/>
<path d="M493.9,200.6h.7V178.8h-.7v21.8Z" class="g1_2"/>
<path d="M642.8,200.6h.7V178.8h-.7v21.8Z" class="g1_2"/>
<path d="M791.6,200.6h.8V178.8h-.8v21.8Z" class="g1_2"/>
<path d="M940.5,200.6h.7V178.8h-.7v21.8Z" class="g1_2"/>
<path d="M1089.4,200.6h.7V178.8h-.7v21.8Z" class="g1_2"/>
<path d="M1238.2,200.6h.8V178.8h-.8v21.8Z" class="g1_2"/>
<path d="M47.1,201.3h.7v-.7h-.7v.7Z" class="g1_2"/>
<path d="M47.8,201.3H196.2v-.7H47.8v.7Z" class="g1_2"/>
<path d="M196.2,201.3h.7v-.7h-.7v.7Z" class="g1_2"/>
<path d="M196.9,201.3H345v-.7H196.9v.7Z" class="g1_2"/>
<path d="M345,201.3h.8v-.7H345v.7Z" class="g1_2"/>
<path d="M345.8,201.3H493.9v-.7H345.8v.7Z" class="g1_2"/>
<path d="M493.9,201.3h.7v-.7h-.7v.7Z" class="g1_2"/>
<path d="M494.6,201.3H642.8v-.7H494.6v.7Z" class="g1_2"/>
<path d="M642.8,201.3h.7v-.7h-.7v.7Z" class="g1_2"/>
<path d="M643.5,201.3H791.6v-.7H643.5v.7Z" class="g1_2"/>
<path d="M791.6,201.3h.8v-.7h-.8v.7Z" class="g1_2"/>
<path d="M792.4,201.3H940.5v-.7H792.4v.7Z" class="g1_2"/>
<path d="M940.5,201.3h.7v-.7h-.7v.7Z" class="g1_2"/>
<path d="M941.2,201.3h148.2v-.7H941.2v.7Z" class="g1_2"/>
<path d="M1089.4,201.3h.7v-.7h-.7v.7Z" class="g1_2"/>
<path d="M1090.1,201.3h148.1v-.7H1090.1v.7Z" class="g1_2"/>
<path d="M1238.2,201.3h.8v-.7h-.8v.7Z" class="g1_2"/>
<path d="M47.1,222.9h.7V201.3h-.7v21.6Z" class="g1_2"/>
<path d="M196.2,222.9h.7V201.3h-.7v21.6Z" class="g1_2"/>
<path d="M345,222.9h.8V201.3H345v21.6Z" class="g1_2"/>
<path d="M493.9,222.9h.7V201.3h-.7v21.6Z" class="g1_2"/>
<path d="M642.8,222.9h.7V201.3h-.7v21.6Z" class="g1_2"/>
<path d="M791.6,222.9h.8V201.3h-.8v21.6Z" class="g1_2"/>
<path d="M940.5,222.9h.7V201.3h-.7v21.6Z" class="g1_2"/>
<path d="M1089.4,222.9h.7V201.3h-.7v21.6Z" class="g1_2"/>
<path d="M1238.2,222.9h.8V201.3h-.8v21.6Z" class="g1_2"/>
<path d="M47.1,223.7h.7v-.8h-.7v.8Z" class="g1_2"/>
<path d="M47.8,223.7H196.2v-.8H47.8v.8Z" class="g1_2"/>
<path d="M196.2,223.7h.7v-.8h-.7v.8Z" class="g1_2"/>
<path d="M196.9,223.7H345v-.8H196.9v.8Z" class="g1_2"/>
<path d="M345,223.7h.8v-.8H345v.8Z" class="g1_2"/>
<path d="M345.8,223.7H493.9v-.8H345.8v.8Z" class="g1_2"/>
<path d="M493.9,223.7h.7v-.8h-.7v.8Z" class="g1_2"/>
<path d="M494.6,223.7H642.8v-.8H494.6v.8Z" class="g1_2"/>
<path d="M642.8,223.7h.7v-.8h-.7v.8Z" class="g1_2"/>
<path d="M643.5,223.7H791.6v-.8H643.5v.8Z" class="g1_2"/>
<path d="M791.6,223.7h.8v-.8h-.8v.8Z" class="g1_2"/>
<path d="M792.4,223.7H940.5v-.8H792.4v.8Z" class="g1_2"/>
<path d="M940.5,223.7h.7v-.8h-.7v.8Z" class="g1_2"/>
<path d="M941.2,223.7h148.2v-.8H941.2v.8Z" class="g1_2"/>
<path d="M1089.4,223.7h.7v-.8h-.7v.8Z" class="g1_2"/>
<path d="M1090.1,223.7h148.1v-.8H1090.1v.8Z" class="g1_2"/>
<path d="M1238.2,223.7h.8v-.8h-.8v.8Z" class="g1_2"/>
<path d="M47.1,245.5h.7V223.7h-.7v21.8Z" class="g1_2"/>
<path d="M196.2,245.5h.7V223.7h-.7v21.8Z" class="g1_2"/>
<path d="M345,245.5h.8V223.7H345v21.8Z" class="g1_2"/>
<path d="M493.9,245.5h.7V223.7h-.7v21.8Z" class="g1_2"/>
<path d="M642.8,245.5h.7V223.7h-.7v21.8Z" class="g1_2"/>
<path d="M791.6,245.5h.8V223.7h-.8v21.8Z" class="g1_2"/>
<path d="M940.5,245.5h.7V223.7h-.7v21.8Z" class="g1_2"/>
<path d="M1089.4,245.5h.7V223.7h-.7v21.8Z" class="g1_2"/>
<path d="M1238.2,245.5h.8V223.7h-.8v21.8Z" class="g1_2"/>
<path d="M47.1,246.2h.7v-.7h-.7v.7Z" class="g1_2"/>
<path d="M47.8,246.2H196.2v-.7H47.8v.7Z" class="g1_2"/>
<path d="M196.2,246.2h.7v-.7h-.7v.7Z" class="g1_2"/>
<path d="M196.9,246.2H345v-.7H196.9v.7Z" class="g1_2"/>
<path d="M345,246.2h.8v-.7H345v.7Z" class="g1_2"/>
<path d="M345.8,246.2H493.9v-.7H345.8v.7Z" class="g1_2"/>
<path d="M493.9,246.2h.7v-.7h-.7v.7Z" class="g1_2"/>
<path d="M494.6,246.2H642.8v-.7H494.6v.7Z" class="g1_2"/>
<path d="M642.8,246.2h.7v-.7h-.7v.7Z" class="g1_2"/>
<path d="M643.5,246.2H791.6v-.7H643.5v.7Z" class="g1_2"/>
<path d="M791.6,246.2h.8v-.7h-.8v.7Z" class="g1_2"/>
<path d="M792.4,246.2H940.5v-.7H792.4v.7Z" class="g1_2"/>
<path d="M940.5,246.2h.7v-.7h-.7v.7Z" class="g1_2"/>
<path d="M941.2,246.2h148.2v-.7H941.2v.7Z" class="g1_2"/>
<path d="M1089.4,246.2h.7v-.7h-.7v.7Z" class="g1_2"/>
<path d="M1090.1,246.2h148.1v-.7H1090.1v.7Z" class="g1_2"/>
<path d="M1238.2,246.2h.8v-.7h-.8v.7Z" class="g1_2"/>
<path d="M47.1,267.9h.7V246.2h-.7v21.7Z" class="g1_2"/>
<path d="M196.2,267.9h.7V246.2h-.7v21.7Z" class="g1_2"/>
<path d="M345,267.9h.8V246.2H345v21.7Z" class="g1_2"/>
<path d="M493.9,267.9h.7V246.2h-.7v21.7Z" class="g1_2"/>
<path d="M642.8,267.9h.7V246.2h-.7v21.7Z" class="g1_2"/>
<path d="M791.6,267.9h.8V246.2h-.8v21.7Z" class="g1_2"/>
<path d="M940.5,267.9h.7V246.2h-.7v21.7Z" class="g1_2"/>
<path d="M1089.4,267.9h.7V246.2h-.7v21.7Z" class="g1_2"/>
<path d="M1238.2,267.9h.8V246.2h-.8v21.7Z" class="g1_2"/>
<path d="M47.1,268.6h.7v-.8h-.7v.8Z" class="g1_2"/>
<path d="M47.8,268.6H196.2v-.8H47.8v.8Z" class="g1_2"/>
<path d="M196.2,268.6h.7v-.8h-.7v.8Z" class="g1_2"/>
<path d="M196.9,268.6H345v-.8H196.9v.8Z" class="g1_2"/>
<path d="M345,268.6h.8v-.8H345v.8Z" class="g1_2"/>
<path d="M345.8,268.6H493.9v-.8H345.8v.8Z" class="g1_2"/>
<path d="M493.9,268.6h.7v-.8h-.7v.8Z" class="g1_2"/>
<path d="M494.6,268.6H642.8v-.8H494.6v.8Z" class="g1_2"/>
<path d="M642.8,268.6h.7v-.8h-.7v.8Z" class="g1_2"/>
<path d="M643.5,268.6H791.6v-.8H643.5v.8Z" class="g1_2"/>
<path d="M791.6,268.6h.8v-.8h-.8v.8Z" class="g1_2"/>
<path d="M792.4,268.6H940.5v-.8H792.4v.8Z" class="g1_2"/>
<path d="M940.5,268.6h.7v-.8h-.7v.8Z" class="g1_2"/>
<path d="M941.2,268.6h148.2v-.8H941.2v.8Z" class="g1_2"/>
<path d="M1089.4,268.6h.7v-.8h-.7v.8Z" class="g1_2"/>
<path d="M1090.1,268.6h148.1v-.8H1090.1v.8Z" class="g1_2"/>
<path d="M1238.2,268.6h.8v-.8h-.8v.8Z" class="g1_2"/>
<path d="M47.1,290.4h.7V268.6h-.7v21.8Z" class="g1_2"/>
<path d="M196.2,290.4h.7V268.6h-.7v21.8Z" class="g1_2"/>
<path d="M345,290.4h.8V268.6H345v21.8Z" class="g1_2"/>
<path d="M493.9,290.4h.7V268.6h-.7v21.8Z" class="g1_2"/>
<path d="M642.8,290.4h.7V268.6h-.7v21.8Z" class="g1_2"/>
<path d="M791.6,290.4h.8V268.6h-.8v21.8Z" class="g1_2"/>
<path d="M940.5,290.4h.7V268.6h-.7v21.8Z" class="g1_2"/>
<path d="M1089.4,290.4h.7V268.6h-.7v21.8Z" class="g1_2"/>
<path d="M1238.2,290.4h.8V268.6h-.8v21.8Z" class="g1_2"/>
<path d="M47.1,291.1h.7v-.7h-.7v.7Z" class="g1_2"/>
<path d="M47.8,291.1H196.2v-.7H47.8v.7Z" class="g1_2"/>
<path d="M196.2,291.1h.7v-.7h-.7v.7Z" class="g1_2"/>
<path d="M196.9,291.1H345v-.7H196.9v.7Z" class="g1_2"/>
<path d="M345,291.1h.8v-.7H345v.7Z" class="g1_2"/>
<path d="M345.8,291.1H493.9v-.7H345.8v.7Z" class="g1_2"/>
<path d="M493.9,291.1h.7v-.7h-.7v.7Z" class="g1_2"/>
<path d="M494.6,291.1H642.8v-.7H494.6v.7Z" class="g1_2"/>
<path d="M642.8,291.1h.7v-.7h-.7v.7Z" class="g1_2"/>
<path d="M643.5,291.1H791.6v-.7H643.5v.7Z" class="g1_2"/>
<path d="M791.6,291.1h.8v-.7h-.8v.7Z" class="g1_2"/>
<path d="M792.4,291.1H940.5v-.7H792.4v.7Z" class="g1_2"/>
<path d="M940.5,291.1h.7v-.7h-.7v.7Z" class="g1_2"/>
<path d="M941.2,291.1h148.2v-.7H941.2v.7Z" class="g1_2"/>
<path d="M1089.4,291.1h.7v-.7h-.7v.7Z" class="g1_2"/>
<path d="M1090.1,291.1h148.1v-.7H1090.1v.7Z" class="g1_2"/>
<path d="M1238.2,291.1h.8v-.7h-.8v.7Z" class="g1_2"/>
<path d="M47.1,312.8h.7V291.1h-.7v21.7Z" class="g1_2"/>
<path d="M196.2,312.8h.7V291.1h-.7v21.7Z" class="g1_2"/>
<path d="M345,312.8h.8V291.1H345v21.7Z" class="g1_2"/>
<path d="M493.9,312.8h.7V291.1h-.7v21.7Z" class="g1_2"/>
<path d="M642.8,312.8h.7V291.1h-.7v21.7Z" class="g1_2"/>
<path d="M791.6,312.8h.8V291.1h-.8v21.7Z" class="g1_2"/>
<path d="M940.5,312.8h.7V291.1h-.7v21.7Z" class="g1_2"/>
<path d="M1089.4,312.8h.7V291.1h-.7v21.7Z" class="g1_2"/>
<path d="M1238.2,312.8h.8V291.1h-.8v21.7Z" class="g1_2"/>
<path d="M47.1,313.5h.7v-.7h-.7v.7Z" class="g1_2"/>
<path d="M47.8,313.5H196.2v-.7H47.8v.7Z" class="g1_2"/>
<path d="M196.2,313.5h.7v-.7h-.7v.7Z" class="g1_2"/>
<path d="M196.9,313.5H345v-.7H196.9v.7Z" class="g1_2"/>
<path d="M345,313.5h.8v-.7H345v.7Z" class="g1_2"/>
<path d="M345.8,313.5H493.9v-.7H345.8v.7Z" class="g1_2"/>
<path d="M493.9,313.5h.7v-.7h-.7v.7Z" class="g1_2"/>
<path d="M494.6,313.5H642.8v-.7H494.6v.7Z" class="g1_2"/>
<path d="M642.8,313.5h.7v-.7h-.7v.7Z" class="g1_2"/>
<path d="M643.5,313.5H791.6v-.7H643.5v.7Z" class="g1_2"/>
<path d="M791.6,313.5h.8v-.7h-.8v.7Z" class="g1_2"/>
<path d="M792.4,313.5H940.5v-.7H792.4v.7Z" class="g1_2"/>
<path d="M940.5,313.5h.7v-.7h-.7v.7Z" class="g1_2"/>
<path d="M941.2,313.5h148.2v-.7H941.2v.7Z" class="g1_2"/>
<path d="M1089.4,313.5h.7v-.7h-.7v.7Z" class="g1_2"/>
<path d="M1090.1,313.5h148.1v-.7H1090.1v.7Z" class="g1_2"/>
<path d="M1238.2,313.5h.8v-.7h-.8v.7Z" class="g1_2"/>
<path d="M47.1,335.3h.7V313.5h-.7v21.8Z" class="g1_2"/>
<path d="M196.2,335.3h.7V313.5h-.7v21.8Z" class="g1_2"/>
<path d="M345,335.3h.8V313.5H345v21.8Z" class="g1_2"/>
<path d="M493.9,335.3h.7V313.5h-.7v21.8Z" class="g1_2"/>
<path d="M642.8,335.3h.7V313.5h-.7v21.8Z" class="g1_2"/>
<path d="M791.6,335.3h.8V313.5h-.8v21.8Z" class="g1_2"/>
<path d="M940.5,335.3h.7V313.5h-.7v21.8Z" class="g1_2"/>
<path d="M1089.4,335.3h.7V313.5h-.7v21.8Z" class="g1_2"/>
<path d="M1238.2,335.3h.8V313.5h-.8v21.8Z" class="g1_2"/>
<path d="M47.1,336.1h.7v-.8h-.7v.8Z" class="g1_2"/>
<path d="M47.8,336.1H196.2v-.8H47.8v.8Z" class="g1_2"/>
<path d="M196.2,336.1h.7v-.8h-.7v.8Z" class="g1_2"/>
<path d="M196.9,336.1H345v-.8H196.9v.8Z" class="g1_2"/>
<path d="M345,336.1h.8v-.8H345v.8Z" class="g1_2"/>
<path d="M345.8,336.1H493.9v-.8H345.8v.8Z" class="g1_2"/>
<path d="M493.9,336.1h.7v-.8h-.7v.8Z" class="g1_2"/>
<path d="M494.6,336.1H642.8v-.8H494.6v.8Z" class="g1_2"/>
<path d="M642.8,336.1h.7v-.8h-.7v.8Z" class="g1_2"/>
<path d="M643.5,336.1H791.6v-.8H643.5v.8Z" class="g1_2"/>
<path d="M791.6,336.1h.8v-.8h-.8v.8Z" class="g1_2"/>
<path d="M792.4,336.1H940.5v-.8H792.4v.8Z" class="g1_2"/>
<path d="M940.5,336.1h.7v-.8h-.7v.8Z" class="g1_2"/>
<path d="M941.2,336.1h148.2v-.8H941.2v.8Z" class="g1_2"/>
<path d="M1089.4,336.1h.7v-.8h-.7v.8Z" class="g1_2"/>
<path d="M1090.1,336.1h148.1v-.8H1090.1v.8Z" class="g1_2"/>
<path d="M1238.2,336.1h.8v-.8h-.8v.8Z" class="g1_2"/>
<path d="M47.1,357.7h.7V336h-.7v21.7Z" class="g1_2"/>
<path d="M196.2,357.7h.7V336h-.7v21.7Z" class="g1_2"/>
<path d="M345,357.7h.8V336H345v21.7Z" class="g1_2"/>
<path d="M493.9,357.7h.7V336h-.7v21.7Z" class="g1_2"/>
<path d="M642.8,357.7h.7V336h-.7v21.7Z" class="g1_2"/>
<path d="M791.6,357.7h.8V336h-.8v21.7Z" class="g1_2"/>
<path d="M940.5,357.7h.7V336h-.7v21.7Z" class="g1_2"/>
<path d="M1089.4,357.7h.7V336h-.7v21.7Z" class="g1_2"/>
<path d="M1238.2,357.7h.8V336h-.8v21.7Z" class="g1_2"/>
<path d="M47.1,358.4h.7v-.7h-.7v.7Z" class="g1_2"/>
<path d="M47.8,358.4H196.2v-.7H47.8v.7Z" class="g1_2"/>
<path d="M196.2,358.4h.7v-.7h-.7v.7Z" class="g1_2"/>
<path d="M196.9,358.4H345v-.7H196.9v.7Z" class="g1_2"/>
<path d="M345,358.4h.8v-.7H345v.7Z" class="g1_2"/>
<path d="M345.8,358.4H493.9v-.7H345.8v.7Z" class="g1_2"/>
<path d="M493.9,358.4h.7v-.7h-.7v.7Z" class="g1_2"/>
<path d="M494.6,358.4H642.8v-.7H494.6v.7Z" class="g1_2"/>
<path d="M642.8,358.4h.7v-.7h-.7v.7Z" class="g1_2"/>
<path d="M643.5,358.4H791.6v-.7H643.5v.7Z" class="g1_2"/>
<path d="M791.6,358.4h.8v-.7h-.8v.7Z" class="g1_2"/>
<path d="M792.4,358.4H940.5v-.7H792.4v.7Z" class="g1_2"/>
<path d="M940.5,358.4h.7v-.7h-.7v.7Z" class="g1_2"/>
<path d="M941.2,358.4h148.2v-.7H941.2v.7Z" class="g1_2"/>
<path d="M1089.4,358.4h.7v-.7h-.7v.7Z" class="g1_2"/>
<path d="M1090.1,358.4h148.1v-.7H1090.1v.7Z" class="g1_2"/>
<path d="M1238.2,358.4h.8v-.7h-.8v.7Z" class="g1_2"/>
<path d="M47.1,380.2h.7V358.4h-.7v21.8Z" class="g1_2"/>
<path d="M196.2,380.2h.7V358.4h-.7v21.8Z" class="g1_2"/>
<path d="M345,380.2h.8V358.4H345v21.8Z" class="g1_2"/>
<path d="M493.9,380.2h.7V358.4h-.7v21.8Z" class="g1_2"/>
<path d="M642.8,380.2h.7V358.4h-.7v21.8Z" class="g1_2"/>
<path d="M791.6,380.2h.8V358.4h-.8v21.8Z" class="g1_2"/>
<path d="M940.5,380.2h.7V358.4h-.7v21.8Z" class="g1_2"/>
<path d="M1089.4,380.2h.7V358.4h-.7v21.8Z" class="g1_2"/>
<path d="M1238.2,380.2h.8V358.4h-.8v21.8Z" class="g1_2"/>
<path d="M47.1,381h.7v-.8h-.7v.8Z" class="g1_2"/>
<path d="M47.8,381H196.2v-.8H47.8v.8Z" class="g1_2"/>
<path d="M196.2,381h.7v-.8h-.7v.8Z" class="g1_2"/>
<path d="M196.9,381H345v-.8H196.9v.8Z" class="g1_2"/>
<path d="M345,381h.8v-.8H345v.8Z" class="g1_2"/>
<path d="M345.8,381H493.9v-.8H345.8v.8Z" class="g1_2"/>
<path d="M493.9,381h.7v-.8h-.7v.8Z" class="g1_2"/>
<path d="M494.6,381H642.8v-.8H494.6v.8Z" class="g1_2"/>
<path d="M642.8,381h.7v-.8h-.7v.8Z" class="g1_2"/>
<path d="M643.5,381H791.6v-.8H643.5v.8Z" class="g1_2"/>
<path d="M791.6,381h.8v-.8h-.8v.8Z" class="g1_2"/>
<path d="M792.4,381H940.5v-.8H792.4v.8Z" class="g1_2"/>
<path d="M940.5,381h.7v-.8h-.7v.8Z" class="g1_2"/>
<path d="M941.2,381h148.2v-.8H941.2v.8Z" class="g1_2"/>
<path d="M1089.4,381h.7v-.8h-.7v.8Z" class="g1_2"/>
<path d="M1090.1,381h148.1v-.8H1090.1v.8Z" class="g1_2"/>
<path d="M1238.2,381h.8v-.8h-.8v.8Z" class="g1_2"/>
<path d="M47.1,402.6h.7V381h-.7v21.6Z" class="g1_2"/>
<path d="M196.2,402.6h.7V381h-.7v21.6Z" class="g1_2"/>
<path d="M345,402.6h.8V381H345v21.6Z" class="g1_2"/>
<path d="M493.9,402.6h.7V381h-.7v21.6Z" class="g1_2"/>
<path d="M642.8,402.6h.7V381h-.7v21.6Z" class="g1_2"/>
<path d="M791.6,402.6h.8V381h-.8v21.6Z" class="g1_2"/>
<path d="M940.5,402.6h.7V381h-.7v21.6Z" class="g1_2"/>
<path d="M1089.4,402.6h.7V381h-.7v21.6Z" class="g1_2"/>
<path d="M1238.2,402.6h.8V381h-.8v21.6Z" class="g1_2"/>
<path d="M47.1,403.3h.7v-.7h-.7v.7Z" class="g1_2"/>
<path d="M47.8,403.3H196.2v-.7H47.8v.7Z" class="g1_2"/>
<path d="M196.2,403.3h.7v-.7h-.7v.7Z" class="g1_2"/>
<path d="M196.9,403.3H345v-.7H196.9v.7Z" class="g1_2"/>
<path d="M345,403.3h.8v-.7H345v.7Z" class="g1_2"/>
<path d="M345.8,403.3H493.9v-.7H345.8v.7Z" class="g1_2"/>
<path d="M493.9,403.3h.7v-.7h-.7v.7Z" class="g1_2"/>
<path d="M494.6,403.3H642.8v-.7H494.6v.7Z" class="g1_2"/>
<path d="M642.8,403.3h.7v-.7h-.7v.7Z" class="g1_2"/>
<path d="M643.5,403.3H791.6v-.7H643.5v.7Z" class="g1_2"/>
<path d="M791.6,403.3h.8v-.7h-.8v.7Z" class="g1_2"/>
<path d="M792.4,403.3H940.5v-.7H792.4v.7Z" class="g1_2"/>
<path d="M940.5,403.3h.7v-.7h-.7v.7Z" class="g1_2"/>
<path d="M941.2,403.3h148.2v-.7H941.2v.7Z" class="g1_2"/>
<path d="M1089.4,403.3h.7v-.7h-.7v.7Z" class="g1_2"/>
<path d="M1090.1,403.3h148.1v-.7H1090.1v.7Z" class="g1_2"/>
<path d="M1238.2,403.3h.8v-.7h-.8v.7Z" class="g1_2"/>
<path d="M47.1,425.2h.7V403.3h-.7v21.9Z" class="g1_2"/>
<path d="M196.2,425.2h.7V403.3h-.7v21.9Z" class="g1_2"/>
<path d="M345,425.2h.8V403.3H345v21.9Z" class="g1_2"/>
<path d="M493.9,425.2h.7V403.3h-.7v21.9Z" class="g1_2"/>
<path d="M642.8,425.2h.7V403.3h-.7v21.9Z" class="g1_2"/>
<path d="M791.6,425.2h.8V403.3h-.8v21.9Z" class="g1_2"/>
<path d="M940.5,425.2h.7V403.3h-.7v21.9Z" class="g1_2"/>
<path d="M1089.4,425.2h.7V403.3h-.7v21.9Z" class="g1_2"/>
<path d="M1238.2,425.2h.8V403.3h-.8v21.9Z" class="g1_2"/>
<path d="M47.1,425.9h.7v-.8h-.7v.8Z" class="g1_2"/>
<path d="M47.8,425.9H196.2v-.8H47.8v.8Z" class="g1_2"/>
<path d="M196.2,425.9h.7v-.8h-.7v.8Z" class="g1_2"/>
<path d="M196.9,425.9H345v-.8H196.9v.8Z" class="g1_2"/>
<path d="M345,425.9h.8v-.8H345v.8Z" class="g1_2"/>
<path d="M345.8,425.9H493.9v-.8H345.8v.8Z" class="g1_2"/>
<path d="M493.9,425.9h.7v-.8h-.7v.8Z" class="g1_2"/>
<path d="M494.6,425.9H642.8v-.8H494.6v.8Z" class="g1_2"/>
<path d="M642.8,425.9h.7v-.8h-.7v.8Z" class="g1_2"/>
<path d="M643.5,425.9H791.6v-.8H643.5v.8Z" class="g1_2"/>
<path d="M791.6,425.9h.8v-.8h-.8v.8Z" class="g1_2"/>
<path d="M792.4,425.9H940.5v-.8H792.4v.8Z" class="g1_2"/>
<path d="M940.5,425.9h.7v-.8h-.7v.8Z" class="g1_2"/>
<path d="M941.2,425.9h148.2v-.8H941.2v.8Z" class="g1_2"/>
<path d="M1089.4,425.9h.7v-.8h-.7v.8Z" class="g1_2"/>
<path d="M1090.1,425.9h148.1v-.8H1090.1v.8Z" class="g1_2"/>
<path d="M1238.2,425.9h.8v-.8h-.8v.8Z" class="g1_2"/>
<path d="M47.1,447.5h.7V425.9h-.7v21.6Z" class="g1_2"/>
<path d="M196.2,447.5h.7V425.9h-.7v21.6Z" class="g1_2"/>
<path d="M345,447.5h.8V425.9H345v21.6Z" class="g1_2"/>
<path d="M493.9,447.5h.7V425.9h-.7v21.6Z" class="g1_2"/>
<path d="M642.8,447.5h.7V425.9h-.7v21.6Z" class="g1_2"/>
<path d="M791.6,447.5h.8V425.9h-.8v21.6Z" class="g1_2"/>
<path d="M940.5,447.5h.7V425.9h-.7v21.6Z" class="g1_2"/>
<path d="M1089.4,447.5h.7V425.9h-.7v21.6Z" class="g1_2"/>
<path d="M1238.2,447.5h.8V425.9h-.8v21.6Z" class="g1_2"/>
<path d="M47.1,448.2h.7v-.7h-.7v.7Z" class="g1_2"/>
<path d="M47.8,448.2H196.2v-.7H47.8v.7Z" class="g1_2"/>
<path d="M196.2,448.2h.7v-.7h-.7v.7Z" class="g1_2"/>
<path d="M196.9,448.2H345v-.7H196.9v.7Z" class="g1_2"/>
<path d="M345,448.2h.8v-.7H345v.7Z" class="g1_2"/>
<path d="M345.8,448.2H493.9v-.7H345.8v.7Z" class="g1_2"/>
<path d="M493.9,448.2h.7v-.7h-.7v.7Z" class="g1_2"/>
<path d="M494.6,448.2H642.8v-.7H494.6v.7Z" class="g1_2"/>
<path d="M642.8,448.2h.7v-.7h-.7v.7Z" class="g1_2"/>
<path d="M643.5,448.2H791.6v-.7H643.5v.7Z" class="g1_2"/>
<path d="M791.6,448.2h.8v-.7h-.8v.7Z" class="g1_2"/>
<path d="M792.4,448.2H940.5v-.7H792.4v.7Z" class="g1_2"/>
<path d="M940.5,448.2h.7v-.7h-.7v.7Z" class="g1_2"/>
<path d="M941.2,448.2h148.2v-.7H941.2v.7Z" class="g1_2"/>
<path d="M1089.4,448.2h.7v-.7h-.7v.7Z" class="g1_2"/>
<path d="M1090.1,448.2h148.1v-.7H1090.1v.7Z" class="g1_2"/>
<path d="M1238.2,448.2h.8v-.7h-.8v.7Z" class="g1_2"/>
<path d="M47.1,470.1h.7V448.2h-.7v21.9Z" class="g1_2"/>
<path d="M196.2,470.1h.7V448.2h-.7v21.9Z" class="g1_2"/>
<path d="M345,470.1h.8V448.2H345v21.9Z" class="g1_2"/>
<path d="M493.9,470.1h.7V448.2h-.7v21.9Z" class="g1_2"/>
<path d="M642.8,470.1h.7V448.2h-.7v21.9Z" class="g1_2"/>
<path d="M791.6,470.1h.8V448.2h-.8v21.9Z" class="g1_2"/>
<path d="M940.5,470.1h.7V448.2h-.7v21.9Z" class="g1_2"/>
<path d="M1089.4,470.1h.7V448.2h-.7v21.9Z" class="g1_2"/>
<path d="M1238.2,470.1h.8V448.2h-.8v21.9Z" class="g1_2"/>
<path d="M47.1,470.8h.7v-.7h-.7v.7Z" class="g1_2"/>
<path d="M47.8,470.8H196.2v-.7H47.8v.7Z" class="g1_2"/>
<path d="M196.2,470.8h.7v-.7h-.7v.7Z" class="g1_2"/>
<path d="M196.9,470.8H345v-.7H196.9v.7Z" class="g1_2"/>
<path d="M345,470.8h.8v-.7H345v.7Z" class="g1_2"/>
<path d="M345.8,470.8H493.9v-.7H345.8v.7Z" class="g1_2"/>
<path d="M493.9,470.8h.7v-.7h-.7v.7Z" class="g1_2"/>
<path d="M494.6,470.8H642.8v-.7H494.6v.7Z" class="g1_2"/>
<path d="M642.8,470.8h.7v-.7h-.7v.7Z" class="g1_2"/>
<path d="M643.5,470.8H791.6v-.7H643.5v.7Z" class="g1_2"/>
<path d="M791.6,470.8h.8v-.7h-.8v.7Z" class="g1_2"/>
<path d="M792.4,470.8H940.5v-.7H792.4v.7Z" class="g1_2"/>
<path d="M940.5,470.8h.7v-.7h-.7v.7Z" class="g1_2"/>
<path d="M941.2,470.8h148.2v-.7H941.2v.7Z" class="g1_2"/>
<path d="M1089.4,470.8h.7v-.7h-.7v.7Z" class="g1_2"/>
<path d="M1090.1,470.8h148.1v-.7H1090.1v.7Z" class="g1_2"/>
<path d="M1238.2,470.8h.8v-.7h-.8v.7Z" class="g1_2"/>
<path d="M47.1,492.4h.7V470.8h-.7v21.6Z" class="g1_2"/>
<path d="M196.2,492.4h.7V470.8h-.7v21.6Z" class="g1_2"/>
<path d="M345,492.4h.8V470.8H345v21.6Z" class="g1_2"/>
<path d="M493.9,492.4h.7V470.8h-.7v21.6Z" class="g1_2"/>
<path d="M642.8,492.4h.7V470.8h-.7v21.6Z" class="g1_2"/>
<path d="M791.6,492.4h.8V470.8h-.8v21.6Z" class="g1_2"/>
<path d="M940.5,492.4h.7V470.8h-.7v21.6Z" class="g1_2"/>
<path d="M1089.4,492.4h.7V470.8h-.7v21.6Z" class="g1_2"/>
<path d="M1238.2,492.4h.8V470.8h-.8v21.6Z" class="g1_2"/>
<path d="M47.1,493.2h.7v-.8h-.7v.8Z" class="g1_2"/>
<path d="M47.8,493.2H196.2v-.8H47.8v.8Z" class="g1_2"/>
<path d="M196.2,493.2h.7v-.8h-.7v.8Z" class="g1_2"/>
<path d="M196.9,493.2H345v-.8H196.9v.8Z" class="g1_2"/>
<path d="M345,493.2h.8v-.8H345v.8Z" class="g1_2"/>
<path d="M345.8,493.2H493.9v-.8H345.8v.8Z" class="g1_2"/>
<path d="M493.9,493.2h.7v-.8h-.7v.8Z" class="g1_2"/>
<path d="M494.6,493.2H642.8v-.8H494.6v.8Z" class="g1_2"/>
<path d="M642.8,493.2h.7v-.8h-.7v.8Z" class="g1_2"/>
<path d="M643.5,493.2H791.6v-.8H643.5v.8Z" class="g1_2"/>
<path d="M791.6,493.2h.8v-.8h-.8v.8Z" class="g1_2"/>
<path d="M792.4,493.2H940.5v-.8H792.4v.8Z" class="g1_2"/>
<path d="M940.5,493.2h.7v-.8h-.7v.8Z" class="g1_2"/>
<path d="M941.2,493.2h148.2v-.8H941.2v.8Z" class="g1_2"/>
<path d="M1089.4,493.2h.7v-.8h-.7v.8Z" class="g1_2"/>
<path d="M1090.1,493.2h148.1v-.8H1090.1v.8Z" class="g1_2"/>
<path d="M1238.2,493.2h.8v-.8h-.8v.8Z" class="g1_2"/>
<path d="M47.1,515h.7V493.2h-.7V515Z" class="g1_2"/>
<path d="M196.2,515h.7V493.2h-.7V515Z" class="g1_2"/>
<path d="M345,515h.8V493.2H345V515Z" class="g1_2"/>
<path d="M493.9,515h.7V493.2h-.7V515Z" class="g1_2"/>
<path d="M642.8,515h.7V493.2h-.7V515Z" class="g1_2"/>
<path d="M791.6,515h.8V493.2h-.8V515Z" class="g1_2"/>
<path d="M940.5,515h.7V493.2h-.7V515Z" class="g1_2"/>
<path d="M1089.4,515h.7V493.2h-.7V515Z" class="g1_2"/>
<path d="M1238.2,515h.8V493.2h-.8V515Z" class="g1_2"/>
<path d="M47.1,515.7h.7V515h-.7v.7Z" class="g1_2"/>
<path d="M47.8,515.7H196.2V515H47.8v.7Z" class="g1_2"/>
<path d="M196.2,515.7h.7V515h-.7v.7Z" class="g1_2"/>
<path d="M196.9,515.7H345V515H196.9v.7Z" class="g1_2"/>
<path d="M345,515.7h.8V515H345v.7Z" class="g1_2"/>
<path d="M345.8,515.7H493.9V515H345.8v.7Z" class="g1_2"/>
<path d="M493.9,515.7h.7V515h-.7v.7Z" class="g1_2"/>
<path d="M494.6,515.7H642.8V515H494.6v.7Z" class="g1_2"/>
<path d="M642.8,515.7h.7V515h-.7v.7Z" class="g1_2"/>
<path d="M643.5,515.7H791.6V515H643.5v.7Z" class="g1_2"/>
<path d="M791.6,515.7h.8V515h-.8v.7Z" class="g1_2"/>
<path d="M792.4,515.7H940.5V515H792.4v.7Z" class="g1_2"/>
<path d="M940.5,515.7h.7V515h-.7v.7Z" class="g1_2"/>
<path d="M941.2,515.7h148.2V515H941.2v.7Z" class="g1_2"/>
<path d="M1089.4,515.7h.7V515h-.7v.7Z" class="g1_2"/>
<path d="M1090.1,515.7h148.1V515H1090.1v.7Z" class="g1_2"/>
<path d="M1238.2,515.7h.8V515h-.8v.7Z" class="g1_2"/>
<path d="M47.1,537.4h.7V515.7h-.7v21.7Z" class="g1_2"/>
<path d="M196.2,537.4h.7V515.7h-.7v21.7Z" class="g1_2"/>
<path d="M345,537.4h.8V515.7H345v21.7Z" class="g1_2"/>
<path d="M493.9,537.4h.7V515.7h-.7v21.7Z" class="g1_2"/>
<path d="M642.8,537.4h.7V515.7h-.7v21.7Z" class="g1_2"/>
<path d="M791.6,537.4h.8V515.7h-.8v21.7Z" class="g1_2"/>
<path d="M940.5,537.4h.7V515.7h-.7v21.7Z" class="g1_2"/>
<path d="M1089.4,537.4h.7V515.7h-.7v21.7Z" class="g1_2"/>
<path d="M1238.2,537.4h.8V515.7h-.8v21.7Z" class="g1_2"/>
<path d="M47.1,538.1h.7v-.8h-.7v.8Z" class="g1_2"/>
<path d="M47.8,538.1H196.2v-.8H47.8v.8Z" class="g1_2"/>
<path d="M196.2,538.1h.7v-.8h-.7v.8Z" class="g1_2"/>
<path d="M196.9,538.1H345v-.8H196.9v.8Z" class="g1_2"/>
<path d="M345,538.1h.8v-.8H345v.8Z" class="g1_2"/>
<path d="M345.8,538.1H493.9v-.8H345.8v.8Z" class="g1_2"/>
<path d="M493.9,538.1h.7v-.8h-.7v.8Z" class="g1_2"/>
<path d="M494.6,538.1H642.8v-.8H494.6v.8Z" class="g1_2"/>
<path d="M642.8,538.1h.7v-.8h-.7v.8Z" class="g1_2"/>
<path d="M643.5,538.1H791.6v-.8H643.5v.8Z" class="g1_2"/>
<path d="M791.6,538.1h.8v-.8h-.8v.8Z" class="g1_2"/>
<path d="M792.4,538.1H940.5v-.8H792.4v.8Z" class="g1_2"/>
<path d="M940.5,538.1h.7v-.8h-.7v.8Z" class="g1_2"/>
<path d="M941.2,538.1h148.2v-.8H941.2v.8Z" class="g1_2"/>
<path d="M1089.4,538.1h.7v-.8h-.7v.8Z" class="g1_2"/>
<path d="M1090.1,538.1h148.1v-.8H1090.1v.8Z" class="g1_2"/>
<path d="M1238.2,538.1h.8v-.8h-.8v.8Z" class="g1_2"/>
<path d="M47.1,559.9h.7V538.1h-.7v21.8Z" class="g1_2"/>
<path d="M196.2,559.9h.7V538.1h-.7v21.8Z" class="g1_2"/>
<path d="M345,559.9h.8V538.1H345v21.8Z" class="g1_2"/>
<path d="M493.9,559.9h.7V538.1h-.7v21.8Z" class="g1_2"/>
<path d="M642.8,559.9h.7V538.1h-.7v21.8Z" class="g1_2"/>
<path d="M791.6,559.9h.8V538.1h-.8v21.8Z" class="g1_2"/>
<path d="M940.5,559.9h.7V538.1h-.7v21.8Z" class="g1_2"/>
<path d="M1089.4,559.9h.7V538.1h-.7v21.8Z" class="g1_2"/>
<path d="M1238.2,559.9h.8V538.1h-.8v21.8Z" class="g1_2"/>
<path d="M47.1,560.6h.7v-.7h-.7v.7Z" class="g1_2"/>
<path d="M47.8,560.6H196.2v-.7H47.8v.7Z" class="g1_2"/>
<path d="M196.2,560.6h.7v-.7h-.7v.7Z" class="g1_2"/>
<path d="M196.9,560.6H345v-.7H196.9v.7Z" class="g1_2"/>
<path d="M345,560.6h.8v-.7H345v.7Z" class="g1_2"/>
<path d="M345.8,560.6H493.9v-.7H345.8v.7Z" class="g1_2"/>
<path d="M493.9,560.6h.7v-.7h-.7v.7Z" class="g1_2"/>
<path d="M494.6,560.6H642.8v-.7H494.6v.7Z" class="g1_2"/>
<path d="M642.8,560.6h.7v-.7h-.7v.7Z" class="g1_2"/>
<path d="M643.5,560.6H791.6v-.7H643.5v.7Z" class="g1_2"/>
<path d="M791.6,560.6h.8v-.7h-.8v.7Z" class="g1_2"/>
<path d="M792.4,560.6H940.5v-.7H792.4v.7Z" class="g1_2"/>
<path d="M940.5,560.6h.7v-.7h-.7v.7Z" class="g1_2"/>
<path d="M941.2,560.6h148.2v-.7H941.2v.7Z" class="g1_2"/>
<path d="M1089.4,560.6h.7v-.7h-.7v.7Z" class="g1_2"/>
<path d="M1090.1,560.6h148.1v-.7H1090.1v.7Z" class="g1_2"/>
<path d="M1238.2,560.6h.8v-.7h-.8v.7Z" class="g1_2"/>
<path d="M47.1,582.3h.7V560.6h-.7v21.7Z" class="g1_2"/>
<path d="M196.2,582.3h.7V560.6h-.7v21.7Z" class="g1_2"/>
<path d="M345,582.3h.8V560.6H345v21.7Z" class="g1_2"/>
<path d="M493.9,582.3h.7V560.6h-.7v21.7Z" class="g1_2"/>
<path d="M642.8,582.3h.7V560.6h-.7v21.7Z" class="g1_2"/>
<path d="M791.6,582.3h.8V560.6h-.8v21.7Z" class="g1_2"/>
<path d="M940.5,582.3h.7V560.6h-.7v21.7Z" class="g1_2"/>
<path d="M1089.4,582.3h.7V560.6h-.7v21.7Z" class="g1_2"/>
<path d="M1238.2,582.3h.8V560.6h-.8v21.7Z" class="g1_2"/>
<path d="M47.1,583h.7v-.7h-.7v.7Z" class="g1_2"/>
<path d="M47.8,583H196.2v-.7H47.8v.7Z" class="g1_2"/>
<path d="M196.2,583h.7v-.7h-.7v.7Z" class="g1_2"/>
<path d="M196.9,583H345v-.7H196.9v.7Z" class="g1_2"/>
<path d="M345,583h.8v-.7H345v.7Z" class="g1_2"/>
<path d="M345.8,583H493.9v-.7H345.8v.7Z" class="g1_2"/>
<path d="M493.9,583h.7v-.7h-.7v.7Z" class="g1_2"/>
<path d="M494.6,583H642.8v-.7H494.6v.7Z" class="g1_2"/>
<path d="M642.8,583h.7v-.7h-.7v.7Z" class="g1_2"/>
<path d="M643.5,583H791.6v-.7H643.5v.7Z" class="g1_2"/>
<path d="M791.6,583h.8v-.7h-.8v.7Z" class="g1_2"/>
<path d="M792.4,583H940.5v-.7H792.4v.7Z" class="g1_2"/>
<path d="M940.5,583h.7v-.7h-.7v.7Z" class="g1_2"/>
<path d="M941.2,583h148.2v-.7H941.2v.7Z" class="g1_2"/>
<path d="M1089.4,583h.7v-.7h-.7v.7Z" class="g1_2"/>
<path d="M1090.1,583h148.1v-.7H1090.1v.7Z" class="g1_2"/>
<path d="M1238.2,583h.8v-.7h-.8v.7Z" class="g1_2"/>
<path d="M47.1,604.8h.7V583h-.7v21.8Z" class="g1_2"/>
<path d="M196.2,604.8h.7V583h-.7v21.8Z" class="g1_2"/>
<path d="M345,604.8h.8V583H345v21.8Z" class="g1_2"/>
<path d="M493.9,604.8h.7V583h-.7v21.8Z" class="g1_2"/>
<path d="M642.8,604.8h.7V583h-.7v21.8Z" class="g1_2"/>
<path d="M791.6,604.8h.8V583h-.8v21.8Z" class="g1_2"/>
<path d="M940.5,604.8h.7V583h-.7v21.8Z" class="g1_2"/>
<path d="M1089.4,604.8h.7V583h-.7v21.8Z" class="g1_2"/>
<path d="M1238.2,604.8h.8V583h-.8v21.8Z" class="g1_2"/>
<path d="M47.1,605.6h.7v-.8h-.7v.8Z" class="g1_2"/>
<path d="M47.8,605.6H196.2v-.8H47.8v.8Z" class="g1_2"/>
<path d="M196.2,605.6h.7v-.8h-.7v.8Z" class="g1_2"/>
<path d="M196.9,605.6H345v-.8H196.9v.8Z" class="g1_2"/>
<path d="M345,605.6h.8v-.8H345v.8Z" class="g1_2"/>
<path d="M345.8,605.6H493.9v-.8H345.8v.8Z" class="g1_2"/>
<path d="M493.9,605.6h.7v-.8h-.7v.8Z" class="g1_2"/>
<path d="M494.6,605.6H642.8v-.8H494.6v.8Z" class="g1_2"/>
<path d="M642.8,605.6h.7v-.8h-.7v.8Z" class="g1_2"/>
<path d="M643.5,605.6H791.6v-.8H643.5v.8Z" class="g1_2"/>
<path d="M791.6,605.6h.8v-.8h-.8v.8Z" class="g1_2"/>
<path d="M792.4,605.6H940.5v-.8H792.4v.8Z" class="g1_2"/>
<path d="M940.5,605.6h.7v-.8h-.7v.8Z" class="g1_2"/>
<path d="M941.2,605.6h148.2v-.8H941.2v.8Z" class="g1_2"/>
<path d="M1089.4,605.6h.7v-.8h-.7v.8Z" class="g1_2"/>
<path d="M1090.1,605.6h148.1v-.8H1090.1v.8Z" class="g1_2"/>
<path d="M1238.2,605.6h.8v-.8h-.8v.8Z" class="g1_2"/>
<path d="M47.1,627.2h.7V605.5h-.7v21.7Z" class="g1_2"/>
<path d="M196.2,627.2h.7V605.5h-.7v21.7Z" class="g1_2"/>
<path d="M345,627.2h.8V605.5H345v21.7Z" class="g1_2"/>
<path d="M493.9,627.2h.7V605.5h-.7v21.7Z" class="g1_2"/>
<path d="M642.8,627.2h.7V605.5h-.7v21.7Z" class="g1_2"/>
<path d="M791.6,627.2h.8V605.5h-.8v21.7Z" class="g1_2"/>
<path d="M940.5,627.2h.7V605.5h-.7v21.7Z" class="g1_2"/>
<path d="M1089.4,627.2h.7V605.5h-.7v21.7Z" class="g1_2"/>
<path d="M1238.2,627.2h.8V605.5h-.8v21.7Z" class="g1_2"/>
<path d="M47.1,627.9h.7v-.7h-.7v.7Z" class="g1_2"/>
<path d="M47.8,627.9H196.2v-.7H47.8v.7Z" class="g1_2"/>
<path d="M196.2,627.9h.7v-.7h-.7v.7Z" class="g1_2"/>
<path d="M196.9,627.9H345v-.7H196.9v.7Z" class="g1_2"/>
<path d="M345,627.9h.8v-.7H345v.7Z" class="g1_2"/>
<path d="M345.8,627.9H493.9v-.7H345.8v.7Z" class="g1_2"/>
<path d="M493.9,627.9h.7v-.7h-.7v.7Z" class="g1_2"/>
<path d="M494.6,627.9H642.8v-.7H494.6v.7Z" class="g1_2"/>
<path d="M642.8,627.9h.7v-.7h-.7v.7Z" class="g1_2"/>
<path d="M643.5,627.9H791.6v-.7H643.5v.7Z" class="g1_2"/>
<path d="M791.6,627.9h.8v-.7h-.8v.7Z" class="g1_2"/>
<path d="M792.4,627.9H940.5v-.7H792.4v.7Z" class="g1_2"/>
<path d="M940.5,627.9h.7v-.7h-.7v.7Z" class="g1_2"/>
<path d="M941.2,627.9h148.2v-.7H941.2v.7Z" class="g1_2"/>
<path d="M1089.4,627.9h.7v-.7h-.7v.7Z" class="g1_2"/>
<path d="M1090.1,627.9h148.1v-.7H1090.1v.7Z" class="g1_2"/>
<path d="M1238.2,627.9h.8v-.7h-.8v.7Z" class="g1_2"/>
<path d="M47.1,649.7h.7V627.9h-.7v21.8Z" class="g1_2"/>
<path d="M196.2,649.7h.7V627.9h-.7v21.8Z" class="g1_2"/>
<path d="M345,649.7h.8V627.9H345v21.8Z" class="g1_2"/>
<path d="M493.9,649.7h.7V627.9h-.7v21.8Z" class="g1_2"/>
<path d="M642.8,649.7h.7V627.9h-.7v21.8Z" class="g1_2"/>
<path d="M791.6,649.7h.8V627.9h-.8v21.8Z" class="g1_2"/>
<path d="M940.5,649.7h.7V627.9h-.7v21.8Z" class="g1_2"/>
<path d="M1089.4,649.7h.7V627.9h-.7v21.8Z" class="g1_2"/>
<path d="M1238.2,649.7h.8V627.9h-.8v21.8Z" class="g1_2"/>
<path d="M47.1,650.5h.7v-.8h-.7v.8Z" class="g1_2"/>
<path d="M47.8,650.5H196.2v-.8H47.8v.8Z" class="g1_2"/>
<path d="M196.2,650.5h.7v-.8h-.7v.8Z" class="g1_2"/>
<path d="M196.9,650.5H345v-.8H196.9v.8Z" class="g1_2"/>
<path d="M345,650.5h.8v-.8H345v.8Z" class="g1_2"/>
<path d="M345.8,650.5H493.9v-.8H345.8v.8Z" class="g1_2"/>
<path d="M493.9,650.5h.7v-.8h-.7v.8Z" class="g1_2"/>
<path d="M494.6,650.5H642.8v-.8H494.6v.8Z" class="g1_2"/>
<path d="M642.8,650.5h.7v-.8h-.7v.8Z" class="g1_2"/>
<path d="M643.5,650.5H791.6v-.8H643.5v.8Z" class="g1_2"/>
<path d="M791.6,650.5h.8v-.8h-.8v.8Z" class="g1_2"/>
<path d="M792.4,650.5H940.5v-.8H792.4v.8Z" class="g1_2"/>
<path d="M940.5,650.5h.7v-.8h-.7v.8Z" class="g1_2"/>
<path d="M941.2,650.5h148.2v-.8H941.2v.8Z" class="g1_2"/>
<path d="M1089.4,650.5h.7v-.8h-.7v.8Z" class="g1_2"/>
<path d="M1090.1,650.5h148.1v-.8H1090.1v.8Z" class="g1_2"/>
<path d="M1238.2,650.5h.8v-.8h-.8v.8Z" class="g1_2"/>
<path d="M47.1,672.1h.7V650.5h-.7v21.6Z" class="g1_2"/>
<path d="M196.2,672.1h.7V650.5h-.7v21.6Z" class="g1_2"/>
<path d="M345,672.1h.8V650.5H345v21.6Z" class="g1_2"/>
<path d="M493.9,672.1h.7V650.5h-.7v21.6Z" class="g1_2"/>
<path d="M642.8,672.1h.7V650.5h-.7v21.6Z" class="g1_2"/>
<path d="M791.6,672.1h.8V650.5h-.8v21.6Z" class="g1_2"/>
<path d="M940.5,672.1h.7V650.5h-.7v21.6Z" class="g1_2"/>
<path d="M1089.4,672.1h.7V650.5h-.7v21.6Z" class="g1_2"/>
<path d="M1238.2,672.1h.8V650.5h-.8v21.6Z" class="g1_2"/>
<path d="M47.1,672.8h.7v-.7h-.7v.7Z" class="g1_2"/>
<path d="M47.8,672.8H196.2v-.7H47.8v.7Z" class="g1_2"/>
<path d="M196.2,672.8h.7v-.7h-.7v.7Z" class="g1_2"/>
<path d="M196.9,672.8H345v-.7H196.9v.7Z" class="g1_2"/>
<path d="M345,672.8h.8v-.7H345v.7Z" class="g1_2"/>
<path d="M345.8,672.8H493.9v-.7H345.8v.7Z" class="g1_2"/>
<path d="M493.9,672.8h.7v-.7h-.7v.7Z" class="g1_2"/>
<path d="M494.6,672.8H642.8v-.7H494.6v.7Z" class="g1_2"/>
<path d="M642.8,672.8h.7v-.7h-.7v.7Z" class="g1_2"/>
<path d="M643.5,672.8H791.6v-.7H643.5v.7Z" class="g1_2"/>
<path d="M791.6,672.8h.8v-.7h-.8v.7Z" class="g1_2"/>
<path d="M792.4,672.8H940.5v-.7H792.4v.7Z" class="g1_2"/>
<path d="M940.5,672.8h.7v-.7h-.7v.7Z" class="g1_2"/>
<path d="M941.2,672.8h148.2v-.7H941.2v.7Z" class="g1_2"/>
<path d="M1089.4,672.8h.7v-.7h-.7v.7Z" class="g1_2"/>
<path d="M1090.1,672.8h148.1v-.7H1090.1v.7Z" class="g1_2"/>
<path d="M1238.2,672.8h.8v-.7h-.8v.7Z" class="g1_2"/>
<path d="M47.1,694.7h.7V672.8h-.7v21.9Z" class="g1_2"/>
<path d="M196.2,694.7h.7V672.8h-.7v21.9Z" class="g1_2"/>
<path d="M345,694.7h.8V672.8H345v21.9Z" class="g1_2"/>
<path d="M493.9,694.7h.7V672.8h-.7v21.9Z" class="g1_2"/>
<path d="M642.8,694.7h.7V672.8h-.7v21.9Z" class="g1_2"/>
<path d="M791.6,694.7h.8V672.8h-.8v21.9Z" class="g1_2"/>
<path d="M940.5,694.7h.7V672.8h-.7v21.9Z" class="g1_2"/>
<path d="M1089.4,694.7h.7V672.8h-.7v21.9Z" class="g1_2"/>
<path d="M1238.2,694.7h.8V672.8h-.8v21.9Z" class="g1_2"/>
<path d="M47.1,695.4h.7v-.8h-.7v.8Z" class="g1_2"/>
<path d="M47.8,695.4H196.2v-.8H47.8v.8Z" class="g1_2"/>
<path d="M196.2,695.4h.7v-.8h-.7v.8Z" class="g1_2"/>
<path d="M196.9,695.4H345v-.8H196.9v.8Z" class="g1_2"/>
<path d="M345,695.4h.8v-.8H345v.8Z" class="g1_2"/>
<path d="M345.8,695.4H493.9v-.8H345.8v.8Z" class="g1_2"/>
<path d="M493.9,695.4h.7v-.8h-.7v.8Z" class="g1_2"/>
<path d="M494.6,695.4H642.8v-.8H494.6v.8Z" class="g1_2"/>
<path d="M642.8,695.4h.7v-.8h-.7v.8Z" class="g1_2"/>
<path d="M643.5,695.4H791.6v-.8H643.5v.8Z" class="g1_2"/>
<path d="M791.6,695.4h.8v-.8h-.8v.8Z" class="g1_2"/>
<path d="M792.4,695.4H940.5v-.8H792.4v.8Z" class="g1_2"/>
<path d="M940.5,695.4h.7v-.8h-.7v.8Z" class="g1_2"/>
<path d="M941.2,695.4h148.2v-.8H941.2v.8Z" class="g1_2"/>
<path d="M1089.4,695.4h.7v-.8h-.7v.8Z" class="g1_2"/>
<path d="M1090.1,695.4h148.1v-.8H1090.1v.8Z" class="g1_2"/>
<path d="M1238.2,695.4h.8v-.8h-.8v.8Z" class="g1_2"/>
<path d="M47.1,717h.7V695.4h-.7V717Z" class="g1_2"/>
<path d="M196.2,717h.7V695.4h-.7V717Z" class="g1_2"/>
<path d="M345,717h.8V695.4H345V717Z" class="g1_2"/>
<path d="M493.9,717h.7V695.4h-.7V717Z" class="g1_2"/>
<path d="M642.8,717h.7V695.4h-.7V717Z" class="g1_2"/>
<path d="M791.6,717h.8V695.4h-.8V717Z" class="g1_2"/>
<path d="M940.5,717h.7V695.4h-.7V717Z" class="g1_2"/>
<path d="M1089.4,717h.7V695.4h-.7V717Z" class="g1_2"/>
<path d="M1238.2,717h.8V695.4h-.8V717Z" class="g1_2"/>
<path d="M47.1,717.8h.7V717h-.7v.8Z" class="g1_2"/>
<path d="M47.8,717.8H196.2V717H47.8v.8Z" class="g1_2"/>
<path d="M196.2,717.8h.7V717h-.7v.8Z" class="g1_2"/>
<path d="M196.9,717.8H345V717H196.9v.8Z" class="g1_2"/>
<path d="M345,717.8h.8V717H345v.8Z" class="g1_2"/>
<path d="M345.8,717.8H493.9V717H345.8v.8Z" class="g1_2"/>
<path d="M493.9,717.8h.7V717h-.7v.8Z" class="g1_2"/>
<path d="M494.6,717.8H642.8V717H494.6v.8Z" class="g1_2"/>
<path d="M642.8,717.8h.7V717h-.7v.8Z" class="g1_2"/>
<path d="M643.5,717.8H791.6V717H643.5v.8Z" class="g1_2"/>
<path d="M791.6,717.8h.8V717h-.8v.8Z" class="g1_2"/>
<path d="M792.4,717.8H940.5V717H792.4v.8Z" class="g1_2"/>
<path d="M940.5,717.8h.7V717h-.7v.8Z" class="g1_2"/>
<path d="M941.2,717.8h148.2V717H941.2v.8Z" class="g1_2"/>
<path d="M1089.4,717.8h.7V717h-.7v.8Z" class="g1_2"/>
<path d="M1090.1,717.8h148.1V717H1090.1v.8Z" class="g1_2"/>
<path d="M1238.2,717.8h.8V717h-.8v.8Z" class="g1_2"/>
<path d="M47.1,739.6h.7V717.8h-.7v21.8Z" class="g1_2"/>
<path d="M196.2,739.6h.7V717.8h-.7v21.8Z" class="g1_2"/>
<path d="M345,739.6h.8V717.8H345v21.8Z" class="g1_2"/>
<path d="M493.9,739.6h.7V717.8h-.7v21.8Z" class="g1_2"/>
<path d="M642.8,739.6h.7V717.8h-.7v21.8Z" class="g1_2"/>
<path d="M791.6,739.6h.8V717.8h-.8v21.8Z" class="g1_2"/>
<path d="M940.5,739.6h.7V717.8h-.7v21.8Z" class="g1_2"/>
<path d="M1089.4,739.6h.7V717.8h-.7v21.8Z" class="g1_2"/>
<path d="M1238.2,739.6h.8V717.8h-.8v21.8Z" class="g1_2"/>
<path d="M47.1,740.3h.7v-.7h-.7v.7Z" class="g1_2"/>
<path d="M47.8,740.3H196.2v-.7H47.8v.7Z" class="g1_2"/>
<path d="M196.2,740.3h.7v-.7h-.7v.7Z" class="g1_2"/>
<path d="M196.9,740.3H345v-.7H196.9v.7Z" class="g1_2"/>
<path d="M345,740.3h.8v-.7H345v.7Z" class="g1_2"/>
<path d="M345.8,740.3H493.9v-.7H345.8v.7Z" class="g1_2"/>
<path d="M493.9,740.3h.7v-.7h-.7v.7Z" class="g1_2"/>
<path d="M494.6,740.3H642.8v-.7H494.6v.7Z" class="g1_2"/>
<path d="M642.8,740.3h.7v-.7h-.7v.7Z" class="g1_2"/>
<path d="M643.5,740.3H791.6v-.7H643.5v.7Z" class="g1_2"/>
<path d="M791.6,740.3h.8v-.7h-.8v.7Z" class="g1_2"/>
<path d="M792.4,740.3H940.5v-.7H792.4v.7Z" class="g1_2"/>
<path d="M940.5,740.3h.7v-.7h-.7v.7Z" class="g1_2"/>
<path d="M941.2,740.3h148.2v-.7H941.2v.7Z" class="g1_2"/>
<path d="M1089.4,740.3h.7v-.7h-.7v.7Z" class="g1_2"/>
<path d="M1090.1,740.3h148.1v-.7H1090.1v.7Z" class="g1_2"/>
<path d="M1238.2,740.3h.8v-.7h-.8v.7Z" class="g1_2"/>
<path d="M47.1,761.9h.7V740.3h-.7v21.6Z" class="g1_2"/>
<path d="M196.2,761.9h.7V740.3h-.7v21.6Z" class="g1_2"/>
<path d="M345,761.9h.8V740.3H345v21.6Z" class="g1_2"/>
<path d="M493.9,761.9h.7V740.3h-.7v21.6Z" class="g1_2"/>
<path d="M642.8,761.9h.7V740.3h-.7v21.6Z" class="g1_2"/>
<path d="M791.6,761.9h.8V740.3h-.8v21.6Z" class="g1_2"/>
<path d="M940.5,761.9h.7V740.3h-.7v21.6Z" class="g1_2"/>
<path d="M1089.4,761.9h.7V740.3h-.7v21.6Z" class="g1_2"/>
<path d="M1238.2,761.9h.8V740.3h-.8v21.6Z" class="g1_2"/>
<path d="M47.1,762.7h.7v-.8h-.7v.8Z" class="g1_2"/>
<path d="M47.8,762.7H196.2v-.8H47.8v.8Z" class="g1_2"/>
<path d="M196.2,762.7h.7v-.8h-.7v.8Z" class="g1_2"/>
<path d="M196.9,762.7H345v-.8H196.9v.8Z" class="g1_2"/>
<path d="M345,762.7h.8v-.8H345v.8Z" class="g1_2"/>
<path d="M345.8,762.7H493.9v-.8H345.8v.8Z" class="g1_2"/>
<path d="M493.9,762.7h.7v-.8h-.7v.8Z" class="g1_2"/>
<path d="M494.6,762.7H642.8v-.8H494.6v.8Z" class="g1_2"/>
<path d="M642.8,762.7h.7v-.8h-.7v.8Z" class="g1_2"/>
<path d="M643.5,762.7H791.6v-.8H643.5v.8Z" class="g1_2"/>
<path d="M791.6,762.7h.8v-.8h-.8v.8Z" class="g1_2"/>
<path d="M792.4,762.7H940.5v-.8H792.4v.8Z" class="g1_2"/>
<path d="M940.5,762.7h.7v-.8h-.7v.8Z" class="g1_2"/>
<path d="M941.2,762.7h148.2v-.8H941.2v.8Z" class="g1_2"/>
<path d="M1089.4,762.7h.7v-.8h-.7v.8Z" class="g1_2"/>
<path d="M1090.1,762.7h148.1v-.8H1090.1v.8Z" class="g1_2"/>
<path d="M1238.2,762.7h.8v-.8h-.8v.8Z" class="g1_2"/>
<path d="M47.1,784.5h.7V762.7h-.7v21.8Z" class="g1_2"/>
<path d="M196.2,784.5h.7V762.7h-.7v21.8Z" class="g1_2"/>
<path d="M345,784.5h.8V762.7H345v21.8Z" class="g1_2"/>
<path d="M493.9,784.5h.7V762.7h-.7v21.8Z" class="g1_2"/>
<path d="M642.8,784.5h.7V762.7h-.7v21.8Z" class="g1_2"/>
<path d="M791.6,784.5h.8V762.7h-.8v21.8Z" class="g1_2"/>
<path d="M940.5,784.5h.7V762.7h-.7v21.8Z" class="g1_2"/>
<path d="M1089.4,784.5h.7V762.7h-.7v21.8Z" class="g1_2"/>
<path d="M1238.2,784.5h.8V762.7h-.8v21.8Z" class="g1_2"/>
<path d="M47.1,785.2h.7v-.7h-.7v.7Z" class="g1_2"/>
<path d="M47.8,785.2H196.2v-.7H47.8v.7Z" class="g1_2"/>
<path d="M196.2,785.2h.7v-.7h-.7v.7Z" class="g1_2"/>
<path d="M196.9,785.2H345v-.7H196.9v.7Z" class="g1_2"/>
<path d="M345,785.2h.8v-.7H345v.7Z" class="g1_2"/>
<path d="M345.8,785.2H493.9v-.7H345.8v.7Z" class="g1_2"/>
<path d="M493.9,785.2h.7v-.7h-.7v.7Z" class="g1_2"/>
<path d="M494.6,785.2H642.8v-.7H494.6v.7Z" class="g1_2"/>
<path d="M642.8,785.2h.7v-.7h-.7v.7Z" class="g1_2"/>
<path d="M643.5,785.2H791.6v-.7H643.5v.7Z" class="g1_2"/>
<path d="M791.6,785.2h.8v-.7h-.8v.7Z" class="g1_2"/>
<path d="M792.4,785.2H940.5v-.7H792.4v.7Z" class="g1_2"/>
<path d="M940.5,785.2h.7v-.7h-.7v.7Z" class="g1_2"/>
<path d="M941.2,785.2h148.2v-.7H941.2v.7Z" class="g1_2"/>
<path d="M1089.4,785.2h.7v-.7h-.7v.7Z" class="g1_2"/>
<path d="M1090.1,785.2h148.1v-.7H1090.1v.7Z" class="g1_2"/>
<path d="M1238.2,785.2h.8v-.7h-.8v.7Z" class="g1_2"/>
<path d="M47.1,806.9h.7V785.2h-.7v21.7Z" class="g1_2"/>
<path d="M47.1,807.6h.7v-.8h-.7v.8Z" class="g1_2"/>
<path d="M47.1,807.6h.7v-.8h-.7v.8Z" class="g1_2"/>
<path d="M47.8,807.6H196.2v-.8H47.8v.8Z" class="g1_2"/>
<path d="M196.2,806.9h.7V785.2h-.7v21.7Z" class="g1_2"/>
<path d="M196.2,807.6h.7v-.8h-.7v.8Z" class="g1_2"/>
<path d="M196.9,807.6H345v-.8H196.9v.8Z" class="g1_2"/>
<path d="M345,806.9h.8V785.2H345v21.7Z" class="g1_2"/>
<path d="M345,807.6h.8v-.8H345v.8Z" class="g1_2"/>
<path d="M345.8,807.6H493.9v-.8H345.8v.8Z" class="g1_2"/>
<path d="M493.9,806.9h.7V785.2h-.7v21.7Z" class="g1_2"/>
<path d="M493.9,807.6h.7v-.8h-.7v.8Z" class="g1_2"/>
<path d="M494.6,807.6H642.8v-.8H494.6v.8Z" class="g1_2"/>
<path d="M642.8,806.9h.7V785.2h-.7v21.7Z" class="g1_2"/>
<path d="M642.8,807.6h.7v-.8h-.7v.8Z" class="g1_2"/>
<path d="M643.5,807.6H791.6v-.8H643.5v.8Z" class="g1_2"/>
<path d="M791.6,806.9h.8V785.2h-.8v21.7Z" class="g1_2"/>
<path d="M791.6,807.6h.8v-.8h-.8v.8Z" class="g1_2"/>
<path d="M792.4,807.6H940.5v-.8H792.4v.8Z" class="g1_2"/>
<path d="M940.5,806.9h.7V785.2h-.7v21.7Z" class="g1_2"/>
<path d="M940.5,807.6h.7v-.8h-.7v.8Z" class="g1_2"/>
<path d="M941.2,807.6h148.2v-.8H941.2v.8Z" class="g1_2"/>
<path d="M1089.4,806.9h.7V785.2h-.7v21.7Z" class="g1_2"/>
<path d="M1089.4,807.6h.7v-.8h-.7v.8Z" class="g1_2"/>
<path d="M1090.1,807.6h148.1v-.8H1090.1v.8Z" class="g1_2"/>
<path d="M1238.2,806.9h.8V785.2h-.8v21.7Z" class="g1_2"/>
<path d="M1238.2,807.6h.8v-.8h-.8v.8Z" class="g1_2"/>
<path d="M1238.2,807.6h.8v-.8h-.8v.8Z" class="g1_2"/>
</svg>