<?xml version="1.0" encoding="UTF-8" standalone="no"?>
<!DOCTYPE svg PUBLIC "-//W3C//DTD SVG 1.1//EN"
"http://www.w3.org/Graphics/SVG/1.1/DTD/svg11.dtd">
<svg viewBox="0 0 1286 909" version="1.1" xmlns="http://www.w3.org/2000/svg" xmlns:xlink="http://www.w3.org/1999/xlink">
<defs>
<style type="text/css"><![CDATA[
.g0{
fill: #D9D9D9;
}
.g1{
}
]]></style>
</defs>
<path fill-rule="evenodd" d="M47.8,166.8h96.5V145.2H47.8v21.6Z" class="g0"/>
<path fill-rule="evenodd" d="M55.7,164.8h80.7V147.2H55.7v17.6Z" class="g0"/>
<path fill-rule="evenodd" d="M145,166.8H295.9V145.2H145v21.6Z" class="g0"/>
<path fill-rule="evenodd" d="M152.9,164.8H288V147.2H152.9v17.6Z" class="g0"/>
<path fill-rule="evenodd" d="M296.6,166.8h713.9V145.2H296.6v21.6Z" class="g0"/>
<path fill-rule="evenodd" d="M304.5,164.8h698.2V147.2H304.5v17.6Z" class="g0"/>
<path fill-rule="evenodd" d="M1011.3,166.8h150.8V145.2H1011.3v21.6Z" class="g0"/>
<path fill-rule="evenodd" d="M1019.2,164.8h135.1V147.2H1019.2v17.6Z" class="g0"/>
<path fill-rule="evenodd" d="M1162.9,166.8h75.3V145.2h-75.3v21.6Z" class="g0"/>
<path fill-rule="evenodd" d="M1170.8,164.8h59.6V147.2h-59.6v17.6Z" class="g0"/>
<path d="M47.1,145.2h.7v-.7h-.7v.7Z" class="g1"/>
<path d="M47.1,145.2h.7v-.7h-.7v.7Z" class="g1"/>
<path d="M47.8,145.2h96.5v-.7H47.8v.7Z" class="g1"/>
<path d="M144.3,145.2h.7v-.7h-.7v.7Z" class="g1"/>
<path d="M145,145.2H295.9v-.7H145v.7Z" class="g1"/>
<path d="M295.9,145.2h.7v-.7h-.7v.7Z" class="g1"/>
<path d="M296.6,145.2h713.9v-.7H296.6v.7Z" class="g1"/>
<path d="M1010.5,145.2h.8v-.7h-.8v.7Z" class="g1"/>
<path d="M1011.3,145.2h150.8v-.7H1011.3v.7Z" class="g1"/>
<path d="M1162.1,145.2h.8v-.7h-.8v.7Z" class="g1"/>
<path d="M1162.9,145.2h75.3v-.7h-75.3v.7Z" class="g1"/>
<path d="M1238.2,145.2h.8v-.7h-.8v.7Z" class="g1"/>
<path d="M1238.2,145.2h.8v-.7h-.8v.7Z" class="g1"/>
<path d="M47.1,166.8h.7V145.2h-.7v21.6Z" class="g1"/>
<path d="M144.3,166.8h.7V145.2h-.7v21.6Z" class="g1"/>
<path d="M295.9,166.8h.7V145.2h-.7v21.6Z" class="g1"/>
<path d="M1010.5,166.8h.8V145.2h-.8v21.6Z" class="g1"/>
<path d="M1162.1,166.8h.8V145.2h-.8v21.6Z" class="g1"/>
<path d="M1238.2,166.8h.8V145.2h-.8v21.6Z" class="g1"/>
<path d="M47.1,167.6h.7v-.8h-.7v.8Z" class="g1"/>
<path d="M47.8,167.6h96.5v-.8H47.8v.8Z" class="g1"/>
<path d="M144.3,167.6h.7v-.8h-.7v.8Z" class="g1"/>
<path d="M145,167.6H295.9v-.8H145v.8Z" class="g1"/>
<path d="M295.9,167.6h.7v-.8h-.7v.8Z" class="g1"/>
<path d="M296.6,167.6h713.9v-.8H296.6v.8Z" class="g1"/>
<path d="M1010.5,167.6h.8v-.8h-.8v.8Z" class="g1"/>
<path d="M1011.3,167.6h150.8v-.8H1011.3v.8Z" class="g1"/>
<path d="M1162.1,167.6h.8v-.8h-.8v.8Z" class="g1"/>
<path d="M1162.9,167.6h75.3v-.8h-75.3v.8Z" class="g1"/>
<path d="M1238.2,167.6h.8v-.8h-.8v.8Z" class="g1"/>
<path d="M47.1,189.4h.7V167.6h-.7v21.8Z" class="g1"/>
<path d="M144.3,189.4h.7V167.6h-.7v21.8Z" class="g1"/>
<path d="M295.9,189.4h.7V167.6h-.7v21.8Z" class="g1"/>
<path d="M1010.5,189.4h.8V167.6h-.8v21.8Z" class="g1"/>
<path d="M1162.1,189.4h.8V167.6h-.8v21.8Z" class="g1"/>
<path d="M1238.2,189.4h.8V167.6h-.8v21.8Z" class="g1"/>
<path d="M47.1,190.1h.7v-.7h-.7v.7Z" class="g1"/>
<path d="M144.3,190.1h.7v-.7h-.7v.7Z" class="g1"/>
<path d="M295.9,190.1h.7v-.7h-.7v.7Z" class="g1"/>
<path d="M1010.5,190.1h.8v-.7h-.8v.7Z" class="g1"/>
<path d="M1011.3,190.1h150.8v-.7H1011.3v.7Z" class="g1"/>
<path d="M1162.1,190.1h.8v-.7h-.8v.7Z" class="g1"/>
<path d="M1162.9,190.1h75.3v-.7h-75.3v.7Z" class="g1"/>
<path d="M1238.2,190.1h.8v-.7h-.8v.7Z" class="g1"/>
<path d="M47.1,211.8h.7V190.1h-.7v21.7Z" class="g1"/>
<path d="M144.3,211.8h.7V190.1h-.7v21.7Z" class="g1"/>
<path d="M295.9,211.8h.7V190.1h-.7v21.7Z" class="g1"/>
<path d="M1010.5,211.8h.8V190.1h-.8v21.7Z" class="g1"/>
<path d="M1162.1,211.8h.8V190.1h-.8v21.7Z" class="g1"/>
<path d="M1238.2,211.8h.8V190.1h-.8v21.7Z" class="g1"/>
<path d="M47.1,212.5h.7v-.8h-.7v.8Z" class="g1"/>
<path d="M144.3,212.5h.7v-.8h-.7v.8Z" class="g1"/>
<path d="M295.9,212.5h.7v-.8h-.7v.8Z" class="g1"/>
<path d="M1010.5,212.5h.8v-.8h-.8v.8Z" class="g1"/>
<path d="M1011.3,212.5h150.8v-.8H1011.3v.8Z" class="g1"/>
<path d="M1162.1,212.5h.8v-.8h-.8v.8Z" class="g1"/>
<path d="M1162.9,212.5h75.3v-.8h-75.3v.8Z" class="g1"/>
<path d="M1238.2,212.5h.8v-.8h-.8v.8Z" class="g1"/>
<path d="M47.1,234.3h.7V212.5h-.7v21.8Z" class="g1"/>
<path d="M144.3,234.3h.7V212.5h-.7v21.8Z" class="g1"/>
<path d="M295.9,234.3h.7V212.5h-.7v21.8Z" class="g1"/>
<path d="M1010.5,234.3h.8V212.5h-.8v21.8Z" class="g1"/>
<path d="M1162.1,234.3h.8V212.5h-.8v21.8Z" class="g1"/>
<path d="M1238.2,234.3h.8V212.5h-.8v21.8Z" class="g1"/>
<path d="M47.1,235h.7v-.7h-.7v.7Z" class="g1"/>
<path d="M144.3,235h.7v-.7h-.7v.7Z" class="g1"/>
<path d="M295.9,235h.7v-.7h-.7v.7Z" class="g1"/>
<path d="M1010.5,235h.8v-.7h-.8v.7Z" class="g1"/>
<path d="M1011.3,235h150.8v-.7H1011.3v.7Z" class="g1"/>
<path d="M1162.1,235h.8v-.7h-.8v.7Z" class="g1"/>
<path d="M1162.9,235h75.3v-.7h-75.3v.7Z" class="g1"/>
<path d="M1238.2,235h.8v-.7h-.8v.7Z" class="g1"/>
<path d="M47.1,256.7h.7V235h-.7v21.7Z" class="g1"/>
<path d="M144.3,256.7h.7V235h-.7v21.7Z" class="g1"/>
<path d="M295.9,256.7h.7V235h-.7v21.7Z" class="g1"/>
<path d="M1010.5,256.7h.8V235h-.8v21.7Z" class="g1"/>
<path d="M1162.1,256.7h.8V235h-.8v21.7Z" class="g1"/>
<path d="M1238.2,256.7h.8V235h-.8v21.7Z" class="g1"/>
<path d="M47.1,257.4h.7v-.7h-.7v.7Z" class="g1"/>
<path d="M47.8,257.4h96.5v-.7H47.8v.7Z" class="g1"/>
<path d="M144.3,257.4h.7v-.7h-.7v.7Z" class="g1"/>
<path d="M145,257.4H295.9v-.7H145v.7Z" class="g1"/>
<path d="M295.9,257.4h.7v-.7h-.7v.7Z" class="g1"/>
<path d="M296.6,257.4h713.9v-.7H296.6v.7Z" class="g1"/>
<path d="M1010.5,257.4h.8v-.7h-.8v.7Z" class="g1"/>
<path d="M1011.3,257.4h150.8v-.7H1011.3v.7Z" class="g1"/>
<path d="M1162.1,257.4h.8v-.7h-.8v.7Z" class="g1"/>
<path d="M1162.9,257.4h75.3v-.7h-75.3v.7Z" class="g1"/>
<path d="M1238.2,257.4h.8v-.7h-.8v.7Z" class="g1"/>
<path d="M47.1,279.2h.7V257.4h-.7v21.8Z" class="g1"/>
<path d="M144.3,279.2h.7V257.4h-.7v21.8Z" class="g1"/>
<path d="M295.9,279.2h.7V257.4h-.7v21.8Z" class="g1"/>
<path d="M1010.5,279.2h.8V257.4h-.8v21.8Z" class="g1"/>
<path d="M1162.1,279.2h.8V257.4h-.8v21.8Z" class="g1"/>
<path d="M1238.2,279.2h.8V257.4h-.8v21.8Z" class="g1"/>
<path d="M47.1,280h.7v-.8h-.7v.8Z" class="g1"/>
<path d="M144.3,280h.7v-.8h-.7v.8Z" class="g1"/>
<path d="M295.9,280h.7v-.8h-.7v.8Z" class="g1"/>
<path d="M1010.5,280h.8v-.8h-.8v.8Z" class="g1"/>
<path d="M1011.3,280h150.8v-.8H1011.3v.8Z" class="g1"/>
<path d="M1162.1,280h.8v-.8h-.8v.8Z" class="g1"/>
<path d="M1162.9,280h75.3v-.8h-75.3v.8Z" class="g1"/>
<path d="M1238.2,280h.8v-.8h-.8v.8Z" class="g1"/>
<path d="M47.1,301.6h.7V279.9h-.7v21.7Z" class="g1"/>
<path d="M144.3,301.6h.7V279.9h-.7v21.7Z" class="g1"/>
<path d="M295.9,301.6h.7V279.9h-.7v21.7Z" class="g1"/>
<path d="M1010.5,301.6h.8V279.9h-.8v21.7Z" class="g1"/>
<path d="M1162.1,301.6h.8V279.9h-.8v21.7Z" class="g1"/>
<path d="M1238.2,301.6h.8V279.9h-.8v21.7Z" class="g1"/>
<path d="M47.1,302.3h.7v-.7h-.7v.7Z" class="g1"/>
<path d="M144.3,302.3h.7v-.7h-.7v.7Z" class="g1"/>
<path d="M295.9,302.3h.7v-.7h-.7v.7Z" class="g1"/>
<path d="M1010.5,302.3h.8v-.7h-.8v.7Z" class="g1"/>
<path d="M1011.3,302.3h150.8v-.7H1011.3v.7Z" class="g1"/>
<path d="M1162.1,302.3h.8v-.7h-.8v.7Z" class="g1"/>
<path d="M1162.9,302.3h75.3v-.7h-75.3v.7Z" class="g1"/>
<path d="M1238.2,302.3h.8v-.7h-.8v.7Z" class="g1"/>
<path d="M47.1,324.1h.7V302.3h-.7v21.8Z" class="g1"/>
<path d="M144.3,324.1h.7V302.3h-.7v21.8Z" class="g1"/>
<path d="M295.9,324.1h.7V302.3h-.7v21.8Z" class="g1"/>
<path d="M1010.5,324.1h.8V302.3h-.8v21.8Z" class="g1"/>
<path d="M1162.1,324.1h.8V302.3h-.8v21.8Z" class="g1"/>
<path d="M1238.2,324.1h.8V302.3h-.8v21.8Z" class="g1"/>
<path d="M47.1,324.9h.7v-.8h-.7v.8Z" class="g1"/>
<path d="M144.3,324.9h.7v-.8h-.7v.8Z" class="g1"/>
<path d="M295.9,324.9h.7v-.8h-.7v.8Z" class="g1"/>
<path d="M1010.5,324.9h.8v-.8h-.8v.8Z" class="g1"/>
<path d="M1011.3,324.9h150.8v-.8H1011.3v.8Z" class="g1"/>
<path d="M1162.1,324.9h.8v-.8h-.8v.8Z" class="g1"/>
<path d="M1162.9,324.9h75.3v-.8h-75.3v.8Z" class="g1"/>
<path d="M1238.2,324.9h.8v-.8h-.8v.8Z" class="g1"/>
<path d="M47.1,346.5h.7V324.9h-.7v21.6Z" class="g1"/>
<path d="M144.3,346.5h.7V324.9h-.7v21.6Z" class="g1"/>
<path d="M295.9,346.5h.7V324.9h-.7v21.6Z" class="g1"/>
<path d="M1010.5,346.5h.8V324.9h-.8v21.6Z" class="g1"/>
<path d="M1162.1,346.5h.8V324.9h-.8v21.6Z" class="g1"/>
<path d="M1238.2,346.5h.8V324.9h-.8v21.6Z" class="g1"/>
<path d="M47.1,347.2h.7v-.7h-.7v.7Z" class="g1"/>
<path d="M47.8,347.2h96.5v-.7H47.8v.7Z" class="g1"/>
<path d="M144.3,347.2h.7v-.7h-.7v.7Z" class="g1"/>
<path d="M145,347.2H295.9v-.7H145v.7Z" class="g1"/>
<path d="M295.9,347.2h.7v-.7h-.7v.7Z" class="g1"/>
<path d="M296.6,347.2h713.9v-.7H296.6v.7Z" class="g1"/>
<path d="M1010.5,347.2h.8v-.7h-.8v.7Z" class="g1"/>
<path d="M1011.3,347.2h150.8v-.7H1011.3v.7Z" class="g1"/>
<path d="M1162.1,347.2h.8v-.7h-.8v.7Z" class="g1"/>
<path d="M1162.9,347.2h75.3v-.7h-75.3v.7Z" class="g1"/>
<path d="M1238.2,347.2h.8v-.7h-.8v.7Z" class="g1"/>
<path d="M47.1,369h.7V347.2h-.7V369Z" class="g1"/>
<path d="M144.3,369h.7V347.2h-.7V369Z" class="g1"/>
<path d="M295.9,369h.7V347.2h-.7V369Z" class="g1"/>
<path d="M1010.5,369h.8V347.2h-.8V369Z" class="g1"/>
<path d="M1162.1,369h.8V347.2h-.8V369Z" class="g1"/>
<path d="M1238.2,369h.8V347.2h-.8V369Z" class="g1"/>
<path d="M47.1,369.8h.7V369h-.7v.8Z" class="g1"/>
<path d="M144.3,369.8h.7V369h-.7v.8Z" class="g1"/>
<path d="M295.9,369.8h.7V369h-.7v.8Z" class="g1"/>
<path d="M1010.5,369.8h.8V369h-.8v.8Z" class="g1"/>
<path d="M1011.3,369.8h150.8V369H1011.3v.8Z" class="g1"/>
<path d="M1162.1,369.8h.8V369h-.8v.8Z" class="g1"/>
<path d="M1162.9,369.8h75.3V369h-75.3v.8Z" class="g1"/>
<path d="M1238.2,369.8h.8V369h-.8v.8Z" class="g1"/>
<path d="M47.1,391.4h.7V369.8h-.7v21.6Z" class="g1"/>
<path d="M144.3,391.4h.7V369.8h-.7v21.6Z" class="g1"/>
<path d="M295.9,391.4h.7V369.8h-.7v21.6Z" class="g1"/>
<path d="M1010.5,391.4h.8V369.8h-.8v21.6Z" class="g1"/>
<path d="M1162.1,391.4h.8V369.8h-.8v21.6Z" class="g1"/>
<path d="M1238.2,391.4h.8V369.8h-.8v21.6Z" class="g1"/>
<path d="M47.1,392.1h.7v-.7h-.7v.7Z" class="g1"/>
<path d="M144.3,392.1h.7v-.7h-.7v.7Z" class="g1"/>
<path d="M295.9,392.1h.7v-.7h-.7v.7Z" class="g1"/>
<path d="M1010.5,392.1h.8v-.7h-.8v.7Z" class="g1"/>
<path d="M1011.3,392.1h150.8v-.7H1011.3v.7Z" class="g1"/>
<path d="M1162.1,392.1h.8v-.7h-.8v.7Z" class="g1"/>
<path d="M1162.9,392.1h75.3v-.7h-75.3v.7Z" class="g1"/>
<path d="M1238.2,392.1h.8v-.7h-.8v.7Z" class="g1"/>
<path d="M47.1,414h.7V392.2h-.7V414Z" class="g1"/>
<path d="M144.3,414h.7V392.2h-.7V414Z" class="g1"/>
<path d="M295.9,414h.7V392.2h-.7V414Z" class="g1"/>
<path d="M1010.5,414h.8V392.2h-.8V414Z" class="g1"/>
<path d="M1162.1,414h.8V392.2h-.8V414Z" class="g1"/>
<path d="M1238.2,414h.8V392.2h-.8V414Z" class="g1"/>
<path d="M47.1,414.7h.7V414h-.7v.7Z" class="g1"/>
<path d="M144.3,414.7h.7V414h-.7v.7Z" class="g1"/>
<path d="M295.9,414.7h.7V414h-.7v.7Z" class="g1"/>
<path d="M1010.5,414.7h.8V414h-.8v.7Z" class="g1"/>
<path d="M1011.3,414.7h150.8V414H1011.3v.7Z" class="g1"/>
<path d="M1162.1,414.7h.8V414h-.8v.7Z" class="g1"/>
<path d="M1162.9,414.7h75.3V414h-75.3v.7Z" class="g1"/>
<path d="M1238.2,414.7h.8V414h-.8v.7Z" class="g1"/>
<path d="M47.1,436.3h.7V414.7h-.7v21.6Z" class="g1"/>
<path d="M144.3,436.3h.7V414.7h-.7v21.6Z" class="g1"/>
<path d="M295.9,436.3h.7V414.7h-.7v21.6Z" class="g1"/>
<path d="M1010.5,436.3h.8V414.7h-.8v21.6Z" class="g1"/>
<path d="M1162.1,436.3h.8V414.7h-.8v21.6Z" class="g1"/>
<path d="M1238.2,436.3h.8V414.7h-.8v21.6Z" class="g1"/>
<path d="M47.1,437.1h.7v-.8h-.7v.8Z" class="g1"/>
<path d="M47.8,437.1h96.5v-.8H47.8v.8Z" class="g1"/>
<path d="M144.3,437.1h.7v-.8h-.7v.8Z" class="g1"/>
<path d="M145,437.1H295.9v-.8H145v.8Z" class="g1"/>
<path d="M295.9,437.1h.7v-.8h-.7v.8Z" class="g1"/>
<path d="M296.6,437.1h713.9v-.8H296.6v.8Z" class="g1"/>
<path d="M1010.5,437.1h.8v-.8h-.8v.8Z" class="g1"/>
<path d="M1011.3,437.1h150.8v-.8H1011.3v.8Z" class="g1"/>
<path d="M1162.1,437.1h.8v-.8h-.8v.8Z" class="g1"/>
<path d="M1162.9,437.1h75.3v-.8h-75.3v.8Z" class="g1"/>
<path d="M1238.2,437.1h.8v-.8h-.8v.8Z" class="g1"/>
<path d="M47.1,458.9h.7V437.1h-.7v21.8Z" class="g1"/>
<path d="M144.3,458.9h.7V437.1h-.7v21.8Z" class="g1"/>
<path d="M295.9,458.9h.7V437.1h-.7v21.8Z" class="g1"/>
<path d="M1010.5,458.9h.8V437.1h-.8v21.8Z" class="g1"/>
<path d="M1162.1,458.9h.8V437.1h-.8v21.8Z" class="g1"/>
<path d="M1238.2,458.9h.8V437.1h-.8v21.8Z" class="g1"/>
<path d="M47.1,459.6h.7v-.7h-.7v.7Z" class="g1"/>
<path d="M144.3,459.6h.7v-.7h-.7v.7Z" class="g1"/>
<path d="M295.9,459.6h.7v-.7h-.7v.7Z" class="g1"/>
<path d="M1010.5,459.6h.8v-.7h-.8v.7Z" class="g1"/>
<path d="M1011.3,459.6h150.8v-.7H1011.3v.7Z" class="g1"/>
<path d="M1162.1,459.6h.8v-.7h-.8v.7Z" class="g1"/>
<path d="M1162.9,459.6h75.3v-.7h-75.3v.7Z" class="g1"/>
<path d="M1238.2,459.6h.8v-.7h-.8v.7Z" class="g1"/>
<path d="M47.1,481.3h.7V459.6h-.7v21.7Z" class="g1"/>
<path d="M144.3,481.3h.7V459.6h-.7v21.7Z" class="g1"/>
<path d="M295.9,481.3h.7V459.6h-.7v21.7Z" class="g1"/>
<path d="M1010.5,481.3h.8V459.6h-.8v21.7Z" class="g1"/>
<path d="M1162.1,481.3h.8V459.6h-.8v21.7Z" class="g1"/>
<path d="M1238.2,481.3h.8V459.6h-.8v21.7Z" class="g1"/>
<path d="M47.1,482h.7v-.8h-.7v.8Z" class="g1"/>
<path d="M144.3,482h.7v-.8h-.7v.8Z" class="g1"/>
<path d="M295.9,482h.7v-.8h-.7v.8Z" class="g1"/>
<path d="M1010.5,482h.8v-.8h-.8v.8Z" class="g1"/>
<path d="M1011.3,482h150.8v-.8H1011.3v.8Z" class="g1"/>
<path d="M1162.1,482h.8v-.8h-.8v.8Z" class="g1"/>
<path d="M1162.9,482h75.3v-.8h-75.3v.8Z" class="g1"/>
<path d="M1238.2,482h.8v-.8h-.8v.8Z" class="g1"/>
<path d="M47.1,503.8h.7V482h-.7v21.8Z" class="g1"/>
<path d="M144.3,503.8h.7V482h-.7v21.8Z" class="g1"/>
<path d="M295.9,503.8h.7V482h-.7v21.8Z" class="g1"/>
<path d="M1010.5,503.8h.8V482h-.8v21.8Z" class="g1"/>
<path d="M1162.1,503.8h.8V482h-.8v21.8Z" class="g1"/>
<path d="M1238.2,503.8h.8V482h-.8v21.8Z" class="g1"/>
<path d="M47.1,504.5h.7v-.7h-.7v.7Z" class="g1"/>
<path d="M144.3,504.5h.7v-.7h-.7v.7Z" class="g1"/>
<path d="M295.9,504.5h.7v-.7h-.7v.7Z" class="g1"/>
<path d="M1010.5,504.5h.8v-.7h-.8v.7Z" class="g1"/>
<path d="M1011.3,504.5h150.8v-.7H1011.3v.7Z" class="g1"/>
<path d="M1162.1,504.5h.8v-.7h-.8v.7Z" class="g1"/>
<path d="M1162.9,504.5h75.3v-.7h-75.3v.7Z" class="g1"/>
<path d="M1238.2,504.5h.8v-.7h-.8v.7Z" class="g1"/>
<path d="M47.1,526.2h.7V504.5h-.7v21.7Z" class="g1"/>
<path d="M144.3,526.2h.7V504.5h-.7v21.7Z" class="g1"/>
<path d="M295.9,526.2h.7V504.5h-.7v21.7Z" class="g1"/>
<path d="M1010.5,526.2h.8V504.5h-.8v21.7Z" class="g1"/>
<path d="M1162.1,526.2h.8V504.5h-.8v21.7Z" class="g1"/>
<path d="M1238.2,526.2h.8V504.5h-.8v21.7Z" class="g1"/>
<path d="M47.1,526.9h.7v-.7h-.7v.7Z" class="g1"/>
<path d="M47.8,526.9h96.5v-.7H47.8v.7Z" class="g1"/>
<path d="M144.3,526.9h.7v-.7h-.7v.7Z" class="g1"/>
<path d="M145,526.9H295.9v-.7H145v.7Z" class="g1"/>
<path d="M295.9,526.9h.7v-.7h-.7v.7Z" class="g1"/>
<path d="M296.6,526.9h713.9v-.7H296.6v.7Z" class="g1"/>
<path d="M1010.5,526.9h.8v-.7h-.8v.7Z" class="g1"/>
<path d="M1011.3,526.9h150.8v-.7H1011.3v.7Z" class="g1"/>
<path d="M1162.1,526.9h.8v-.7h-.8v.7Z" class="g1"/>
<path d="M1162.9,526.9h75.3v-.7h-75.3v.7Z" class="g1"/>
<path d="M1238.2,526.9h.8v-.7h-.8v.7Z" class="g1"/>
<path d="M47.1,548.7h.7V526.9h-.7v21.8Z" class="g1"/>
<path d="M144.3,548.7h.7V526.9h-.7v21.8Z" class="g1"/>
<path d="M295.9,548.7h.7V526.9h-.7v21.8Z" class="g1"/>
<path d="M1010.5,548.7h.8V526.9h-.8v21.8Z" class="g1"/>
<path d="M1162.1,548.7h.8V526.9h-.8v21.8Z" class="g1"/>
<path d="M1238.2,548.7h.8V526.9h-.8v21.8Z" class="g1"/>
<path d="M47.1,549.5h.7v-.8h-.7v.8Z" class="g1"/>
<path d="M144.3,549.5h.7v-.8h-.7v.8Z" class="g1"/>
<path d="M295.9,549.5h.7v-.8h-.7v.8Z" class="g1"/>
<path d="M1010.5,549.5h.8v-.8h-.8v.8Z" class="g1"/>
<path d="M1011.3,549.5h150.8v-.8H1011.3v.8Z" class="g1"/>
<path d="M1162.1,549.5h.8v-.8h-.8v.8Z" class="g1"/>
<path d="M1162.9,549.5h75.3v-.8h-75.3v.8Z" class="g1"/>
<path d="M1238.2,549.5h.8v-.8h-.8v.8Z" class="g1"/>
<path d="M47.1,571.1h.7V549.4h-.7v21.7Z" class="g1"/>
<path d="M144.3,571.1h.7V549.4h-.7v21.7Z" class="g1"/>
<path d="M295.9,571.1h.7V549.4h-.7v21.7Z" class="g1"/>
<path d="M1010.5,571.1h.8V549.4h-.8v21.7Z" class="g1"/>
<path d="M1162.1,571.1h.8V549.4h-.8v21.7Z" class="g1"/>
<path d="M1238.2,571.1h.8V549.4h-.8v21.7Z" class="g1"/>
<path d="M47.1,571.8h.7v-.7h-.7v.7Z" class="g1"/>
<path d="M144.3,571.8h.7v-.7h-.7v.7Z" class="g1"/>
<path d="M295.9,571.8h.7v-.7h-.7v.7Z" class="g1"/>
<path d="M1010.5,571.8h.8v-.7h-.8v.7Z" class="g1"/>
<path d="M1011.3,571.8h150.8v-.7H1011.3v.7Z" class="g1"/>
<path d="M1162.1,571.8h.8v-.7h-.8v.7Z" class="g1"/>
<path d="M1162.9,571.8h75.3v-.7h-75.3v.7Z" class="g1"/>
<path d="M1238.2,571.8h.8v-.7h-.8v.7Z" class="g1"/>
<path d="M47.1,593.6h.7V571.8h-.7v21.8Z" class="g1"/>
<path d="M144.3,593.6h.7V571.8h-.7v21.8Z" class="g1"/>
<path d="M295.9,593.6h.7V571.8h-.7v21.8Z" class="g1"/>
<path d="M1010.5,593.6h.8V571.8h-.8v21.8Z" class="g1"/>
<path d="M1162.1,593.6h.8V571.8h-.8v21.8Z" class="g1"/>
<path d="M1238.2,593.6h.8V571.8h-.8v21.8Z" class="g1"/>
<path d="M47.1,594.4h.7v-.8h-.7v.8Z" class="g1"/>
<path d="M144.3,594.4h.7v-.8h-.7v.8Z" class="g1"/>
<path d="M295.9,594.4h.7v-.8h-.7v.8Z" class="g1"/>
<path d="M1010.5,594.4h.8v-.8h-.8v.8Z" class="g1"/>
<path d="M1011.3,594.4h150.8v-.8H1011.3v.8Z" class="g1"/>
<path d="M1162.1,594.4h.8v-.8h-.8v.8Z" class="g1"/>
<path d="M1162.9,594.4h75.3v-.8h-75.3v.8Z" class="g1"/>
<path d="M1238.2,594.4h.8v-.8h-.8v.8Z" class="g1"/>
<path d="M47.1,616h.7V594.4h-.7V616Z" class="g1"/>
<path d="M144.3,616h.7V594.4h-.7V616Z" class="g1"/>
<path d="M295.9,616h.7V594.4h-.7V616Z" class="g1"/>
<path d="M1010.5,616h.8V594.4h-.8V616Z" class="g1"/>
<path d="M1162.1,616h.8V594.4h-.8V616Z" class="g1"/>
<path d="M1238.2,616h.8V594.4h-.8V616Z" class="g1"/>
<path d="M47.1,616.7h.7V616h-.7v.7Z" class="g1"/>
<path d="M47.8,616.7h96.5V616H47.8v.7Z" class="g1"/>
<path d="M144.3,616.7h.7V616h-.7v.7Z" class="g1"/>
<path d="M145,616.7H295.9V616H145v.7Z" class="g1"/>
<path d="M295.9,616.7h.7V616h-.7v.7Z" class="g1"/>
<path d="M296.6,616.7h713.9V616H296.6v.7Z" class="g1"/>
<path d="M1010.5,616.7h.8V616h-.8v.7Z" class="g1"/>
<path d="M1011.3,616.7h150.8V616H1011.3v.7Z" class="g1"/>
<path d="M1162.1,616.7h.8V616h-.8v.7Z" class="g1"/>
<path d="M1162.9,616.7h75.3V616h-75.3v.7Z" class="g1"/>
<path d="M1238.2,616.7h.8V616h-.8v.7Z" class="g1"/>
<path d="M47.1,638.6h.7V616.7h-.7v21.9Z" class="g1"/>
<path d="M144.3,638.6h.7V616.7h-.7v21.9Z" class="g1"/>
<path d="M295.9,638.6h.7V616.7h-.7v21.9Z" class="g1"/>
<path d="M1010.5,638.6h.8V616.7h-.8v21.9Z" class="g1"/>
<path d="M1162.1,638.6h.8V616.7h-.8v21.9Z" class="g1"/>
<path d="M1238.2,638.6h.8V616.7h-.8v21.9Z" class="g1"/>
<path d="M47.1,639.3h.7v-.8h-.7v.8Z" class="g1"/>
<path d="M144.3,639.3h.7v-.8h-.7v.8Z" class="g1"/>
<path d="M295.9,639.3h.7v-.8h-.7v.8Z" class="g1"/>
<path d="M1010.5,639.3h.8v-.8h-.8v.8Z" class="g1"/>
<path d="M1011.3,639.3h150.8v-.8H1011.3v.8Z" class="g1"/>
<path d="M1162.1,639.3h.8v-.8h-.8v.8Z" class="g1"/>
<path d="M1162.9,639.3h75.3v-.8h-75.3v.8Z" class="g1"/>
<path d="M1238.2,639.3h.8v-.8h-.8v.8Z" class="g1"/>
<path d="M47.1,660.9h.7V639.3h-.7v21.6Z" class="g1"/>
<path d="M144.3,660.9h.7V639.3h-.7v21.6Z" class="g1"/>
<path d="M295.9,660.9h.7V639.3h-.7v21.6Z" class="g1"/>
<path d="M1010.5,660.9h.8V639.3h-.8v21.6Z" class="g1"/>
<path d="M1162.1,660.9h.8V639.3h-.8v21.6Z" class="g1"/>
<path d="M1238.2,660.9h.8V639.3h-.8v21.6Z" class="g1"/>
<path d="M47.1,661.7h.7v-.8h-.7v.8Z" class="g1"/>
<path d="M47.8,661.7h96.5v-.8H47.8v.8Z" class="g1"/>
<path d="M144.3,661.7h.7v-.8h-.7v.8Z" class="g1"/>
<path d="M145,661.7H295.9v-.8H145v.8Z" class="g1"/>
<path d="M295.9,661.7h.7v-.8h-.7v.8Z" class="g1"/>
<path d="M296.6,661.7h713.9v-.8H296.6v.8Z" class="g1"/>
<path d="M1010.5,661.7h.8v-.8h-.8v.8Z" class="g1"/>
<path d="M1011.3,661.7h150.8v-.8H1011.3v.8Z" class="g1"/>
<path d="M1162.1,661.7h.8v-.8h-.8v.8Z" class="g1"/>
<path d="M1162.9,661.7h75.3v-.8h-75.3v.8Z" class="g1"/>
<path d="M1238.2,661.7h.8v-.8h-.8v.8Z" class="g1"/>
<path d="M47.1,683.5h.7V661.7h-.7v21.8Z" class="g1"/>
<path d="M144.3,683.5h.7V661.7h-.7v21.8Z" class="g1"/>
<path d="M295.9,683.5h.7V661.7h-.7v21.8Z" class="g1"/>
<path d="M1010.5,683.5h.8V661.7h-.8v21.8Z" class="g1"/>
<path d="M1162.1,683.5h.8V661.7h-.8v21.8Z" class="g1"/>
<path d="M1238.2,683.5h.8V661.7h-.8v21.8Z" class="g1"/>
<path d="M47.1,684.2h.7v-.7h-.7v.7Z" class="g1"/>
<path d="M144.3,684.2h.7v-.7h-.7v.7Z" class="g1"/>
<path d="M295.9,684.2h.7v-.7h-.7v.7Z" class="g1"/>
<path d="M1010.5,684.2h.8v-.7h-.8v.7Z" class="g1"/>
<path d="M1011.3,684.2h150.8v-.7H1011.3v.7Z" class="g1"/>
<path d="M1162.1,684.2h.8v-.7h-.8v.7Z" class="g1"/>
<path d="M1162.9,684.2h75.3v-.7h-75.3v.7Z" class="g1"/>
<path d="M1238.2,684.2h.8v-.7h-.8v.7Z" class="g1"/>
<path d="M47.1,705.8h.7V684.2h-.7v21.6Z" class="g1"/>
<path d="M144.3,705.8h.7V684.2h-.7v21.6Z" class="g1"/>
<path d="M295.9,705.8h.7V684.2h-.7v21.6Z" class="g1"/>
<path d="M1010.5,705.8h.8V684.2h-.8v21.6Z" class="g1"/>
<path d="M1162.1,705.8h.8V684.2h-.8v21.6Z" class="g1"/>
<path d="M1238.2,705.8h.8V684.2h-.8v21.6Z" class="g1"/>
<path d="M47.1,706.6h.7v-.8h-.7v.8Z" class="g1"/>
<path d="M47.8,706.6h96.5v-.8H47.8v.8Z" class="g1"/>
<path d="M144.3,706.6h.7v-.8h-.7v.8Z" class="g1"/>
<path d="M145,706.6H295.9v-.8H145v.8Z" class="g1"/>
<path d="M295.9,706.6h.7v-.8h-.7v.8Z" class="g1"/>
<path d="M296.6,706.6h713.9v-.8H296.6v.8Z" class="g1"/>
<path d="M1010.5,706.6h.8v-.8h-.8v.8Z" class="g1"/>
<path d="M1011.3,706.6h150.8v-.8H1011.3v.8Z" class="g1"/>
<path d="M1162.1,706.6h.8v-.8h-.8v.8Z" class="g1"/>
<path d="M1162.9,706.6h75.3v-.8h-75.3v.8Z" class="g1"/>
<path d="M1238.2,706.6h.8v-.8h-.8v.8Z" class="g1"/>
<path d="M47.1,728.4h.7V706.6h-.7v21.8Z" class="g1"/>
<path d="M144.3,728.4h.7V706.6h-.7v21.8Z" class="g1"/>
<path d="M295.9,728.4h.7V706.6h-.7v21.8Z" class="g1"/>
<path d="M1010.5,728.4h.8V706.6h-.8v21.8Z" class="g1"/>
<path d="M1162.1,728.4h.8V706.6h-.8v21.8Z" class="g1"/>
<path d="M1238.2,728.4h.8V706.6h-.8v21.8Z" class="g1"/>
<path d="M47.1,729.1h.7v-.7h-.7v.7Z" class="g1"/>
<path d="M144.3,729.1h.7v-.7h-.7v.7Z" class="g1"/>
<path d="M295.9,729.1h.7v-.7h-.7v.7Z" class="g1"/>
<path d="M1010.5,729.1h.8v-.7h-.8v.7Z" class="g1"/>
<path d="M1011.3,729.1h150.8v-.7H1011.3v.7Z" class="g1"/>
<path d="M1162.1,729.1h.8v-.7h-.8v.7Z" class="g1"/>
<path d="M1162.9,729.1h75.3v-.7h-75.3v.7Z" class="g1"/>
<path d="M1238.2,729.1h.8v-.7h-.8v.7Z" class="g1"/>
<path d="M47.1,750.8h.7V729.1h-.7v21.7Z" class="g1"/>
<path d="M144.3,750.8h.7V729.1h-.7v21.7Z" class="g1"/>
<path d="M295.9,750.8h.7V729.1h-.7v21.7Z" class="g1"/>
<path d="M1010.5,750.8h.8V729.1h-.8v21.7Z" class="g1"/>
<path d="M1162.1,750.8h.8V729.1h-.8v21.7Z" class="g1"/>
<path d="M1238.2,750.8h.8V729.1h-.8v21.7Z" class="g1"/>
<path d="M47.1,751.5h.7v-.8h-.7v.8Z" class="g1"/>
<path d="M144.3,751.5h.7v-.8h-.7v.8Z" class="g1"/>
<path d="M295.9,751.5h.7v-.8h-.7v.8Z" class="g1"/>
<path d="M1010.5,751.5h.8v-.8h-.8v.8Z" class="g1"/>
<path d="M1011.3,751.5h150.8v-.8H1011.3v.8Z" class="g1"/>
<path d="M1162.1,751.5h.8v-.8h-.8v.8Z" class="g1"/>
<path d="M1162.9,751.5h75.3v-.8h-75.3v.8Z" class="g1"/>
<path d="M1238.2,751.5h.8v-.8h-.8v.8Z" class="g1"/>
<path d="M47.1,773.3h.7V751.5h-.7v21.8Z" class="g1"/>
<path d="M144.3,773.3h.7V751.5h-.7v21.8Z" class="g1"/>
<path d="M295.9,773.3h.7V751.5h-.7v21.8Z" class="g1"/>
<path d="M1010.5,773.3h.8V751.5h-.8v21.8Z" class="g1"/>
<path d="M1162.1,773.3h.8V751.5h-.8v21.8Z" class="g1"/>
<path d="M1238.2,773.3h.8V751.5h-.8v21.8Z" class="g1"/>
<path d="M47.1,774h.7v-.7h-.7v.7Z" class="g1"/>
<path d="M47.8,774h96.5v-.7H47.8v.7Z" class="g1"/>
<path d="M144.3,774h.7v-.7h-.7v.7Z" class="g1"/>
<path d="M145,774H295.9v-.7H145v.7Z" class="g1"/>
<path d="M295.9,774h.7v-.7h-.7v.7Z" class="g1"/>
<path d="M296.6,774h713.9v-.7H296.6v.7Z" class="g1"/>
<path d="M1010.5,774h.8v-.7h-.8v.7Z" class="g1"/>
<path d="M1011.3,774h150.8v-.7H1011.3v.7Z" class="g1"/>
<path d="M1162.1,774h.8v-.7h-.8v.7Z" class="g1"/>
<path d="M1162.9,774h75.3v-.7h-75.3v.7Z" class="g1"/>
<path d="M1238.2,774h.8v-.7h-.8v.7Z" class="g1"/>
<path d="M47.1,795.7h.7V774h-.7v21.7Z" class="g1"/>
<path d="M144.3,795.7h.7V774h-.7v21.7Z" class="g1"/>
<path d="M295.9,795.7h.7V774h-.7v21.7Z" class="g1"/>
<path d="M1010.5,795.7h.8V774h-.8v21.7Z" class="g1"/>
<path d="M1162.1,795.7h.8V774h-.8v21.7Z" class="g1"/>
<path d="M1238.2,795.7h.8V774h-.8v21.7Z" class="g1"/>
<path d="M47.1,796.4h.7v-.7h-.7v.7Z" class="g1"/>
<path d="M144.3,796.4h.7v-.7h-.7v.7Z" class="g1"/>
<path d="M295.9,796.4h.7v-.7h-.7v.7Z" class="g1"/>
<path d="M1010.5,796.4h.8v-.7h-.8v.7Z" class="g1"/>
<path d="M1011.3,796.4h150.8v-.7H1011.3v.7Z" class="g1"/>
<path d="M1162.1,796.4h.8v-.7h-.8v.7Z" class="g1"/>
<path d="M1162.9,796.4h75.3v-.7h-75.3v.7Z" class="g1"/>
<path d="M1238.2,796.4h.8v-.7h-.8v.7Z" class="g1"/>
<path d="M47.1,818.2h.7V796.4h-.7v21.8Z" class="g1"/>
<path d="M144.3,818.2h.7V796.4h-.7v21.8Z" class="g1"/>
<path d="M295.9,818.2h.7V796.4h-.7v21.8Z" class="g1"/>
<path d="M1010.5,818.2h.8V796.4h-.8v21.8Z" class="g1"/>
<path d="M1162.1,818.2h.8V796.4h-.8v21.8Z" class="g1"/>
<path d="M1238.2,818.2h.8V796.4h-.8v21.8Z" class="g1"/>
<path d="M47.1,819h.7v-.8h-.7v.8Z" class="g1"/>
<path d="M144.3,819h.7v-.8h-.7v.8Z" class="g1"/>
<path d="M295.9,819h.7v-.8h-.7v.8Z" class="g1"/>
<path d="M1010.5,819h.8v-.8h-.8v.8Z" class="g1"/>
<path d="M1011.3,819h150.8v-.8H1011.3v.8Z" class="g1"/>
<path d="M1162.1,819h.8v-.8h-.8v.8Z" class="g1"/>
<path d="M1162.9,819h75.3v-.8h-75.3v.8Z" class="g1"/>
<path d="M1238.2,819h.8v-.8h-.8v.8Z" class="g1"/>
<path d="M47.1,840.8h.7V819h-.7v21.8Z" class="g1"/>
<path d="M47.1,841.5h.7v-.7h-.7v.7Z" class="g1"/>
<path d="M47.1,841.5h.7v-.7h-.7v.7Z" class="g1"/>
<path d="M47.8,841.5h96.5v-.7H47.8v.7Z" class="g1"/>
<path d="M144.3,840.8h.7V819h-.7v21.8Z" class="g1"/>
<path d="M144.3,841.5h.7v-.7h-.7v.7Z" class="g1"/>
<path d="M145,841.5H295.9v-.7H145v.7Z" class="g1"/>
<path d="M295.9,840.8h.7V819h-.7v21.8Z" class="g1"/>
<path d="M295.9,841.5h.7v-.7h-.7v.7Z" class="g1"/>
<path d="M296.6,841.5h713.9v-.7H296.6v.7Z" class="g1"/>
<path d="M1010.5,840.8h.8V819h-.8v21.8Z" class="g1"/>
<path d="M1010.5,841.5h.8v-.7h-.8v.7Z" class="g1"/>
<path d="M1011.3,841.5h150.8v-.7H1011.3v.7Z" class="g1"/>
<path d="M1162.1,840.8h.8V819h-.8v21.8Z" class="g1"/>
<path d="M1162.1,841.5h.8v-.7h-.8v.7Z" class="g1"/>
<path d="M1162.9,841.5h75.3v-.7h-75.3v.7Z" class="g1"/>
<path d="M1238.2,840.8h.8V819h-.8v21.8Z" class="g1"/>
<path d="M1238.2,841.5h.8v-.7h-.8v.7Z" class="g1"/>
<path d="M1238.2,841.5h.8v-.7h-.8v.7Z" class="g1"/>
</svg>