<?xml version="1.0" encoding="UTF-8" standalone="no"?>
<!DOCTYPE svg PUBLIC "-//W3C//DTD SVG 1.1//EN"
"http://www.w3.org/Graphics/SVG/1.1/DTD/svg11.dtd">
<svg viewBox="0 0 1286 909" version="1.1" xmlns="http://www.w3.org/2000/svg" xmlns:xlink="http://www.w3.org/1999/xlink">
<defs>
<style type="text/css"><![CDATA[
.g0{
fill: #D9D9D9;
}
.g1{
}
]]></style>
</defs>
<path fill-rule="evenodd" d="M47.8,156.6h85.7V134.9H47.8v21.7Z" class="g0"/>
<path fill-rule="evenodd" d="M55.7,154.6h69.9V137H55.7v17.6Z" class="g0"/>
<path fill-rule="evenodd" d="M134.2,156.6H360.8V134.9H134.2v21.7Z" class="g0"/>
<path fill-rule="evenodd" d="M142.1,154.6H352.9V137H142.1v17.6Z" class="g0"/>
<path fill-rule="evenodd" d="M361.5,156.6H988.9V134.9H361.5v21.7Z" class="g0"/>
<path fill-rule="evenodd" d="M369.4,154.6H981V137H369.4v17.6Z" class="g0"/>
<path fill-rule="evenodd" d="M989.6,156.6h248.6V134.9H989.6v21.7Z" class="g0"/>
<path fill-rule="evenodd" d="M997.5,154.6h232.8V137H997.5v17.6Z" class="g0"/>
<path d="M47.1,134.9h.7v-.7h-.7v.7Z" class="g1"/>
<path d="M47.1,134.9h.7v-.7h-.7v.7Z" class="g1"/>
<path d="M47.8,134.9h85.7v-.7H47.8v.7Z" class="g1"/>
<path d="M133.5,134.9h.7v-.7h-.7v.7Z" class="g1"/>
<path d="M134.2,134.9H360.8v-.7H134.2v.7Z" class="g1"/>
<path d="M360.8,134.9h.7v-.7h-.7v.7Z" class="g1"/>
<path d="M361.5,134.9H988.9v-.7H361.5v.7Z" class="g1"/>
<path d="M988.9,134.9h.7v-.7h-.7v.7Z" class="g1"/>
<path d="M989.6,134.9h248.6v-.7H989.6v.7Z" class="g1"/>
<path d="M1238.2,134.9h.8v-.7h-.8v.7Z" class="g1"/>
<path d="M1238.2,134.9h.8v-.7h-.8v.7Z" class="g1"/>
<path d="M47.1,156.6h.7V134.9h-.7v21.7Z" class="g1"/>
<path d="M133.5,156.6h.7V134.9h-.7v21.7Z" class="g1"/>
<path d="M360.8,156.6h.7V134.9h-.7v21.7Z" class="g1"/>
<path d="M988.9,156.6h.7V134.9h-.7v21.7Z" class="g1"/>
<path d="M1238.2,156.6h.8V134.9h-.8v21.7Z" class="g1"/>
<path d="M47.1,157.3h.7v-.7h-.7v.7Z" class="g1"/>
<path d="M47.8,157.3h85.7v-.7H47.8v.7Z" class="g1"/>
<path d="M133.5,157.3h.7v-.7h-.7v.7Z" class="g1"/>
<path d="M134.2,157.3H360.8v-.7H134.2v.7Z" class="g1"/>
<path d="M360.8,157.3h.7v-.7h-.7v.7Z" class="g1"/>
<path d="M361.5,157.3H988.9v-.7H361.5v.7Z" class="g1"/>
<path d="M988.9,157.3h.7v-.7h-.7v.7Z" class="g1"/>
<path d="M989.6,157.3h75v-.7h-75v.7Z" class="g1"/>
<path d="M1064.6,157.3h.8v-.7h-.8v.7Z" class="g1"/>
<path d="M1065.4,157.3h118.4v-.7H1065.4v.7Z" class="g1"/>
<path d="M1183.8,157.3h.7v-.7h-.7v.7Z" class="g1"/>
<path d="M1184.5,157.3h53.7v-.7h-53.7v.7Z" class="g1"/>
<path d="M1238.2,157.3h.8v-.7h-.8v.7Z" class="g1"/>
<path d="M47.1,178.9h.7V157.3h-.7v21.6Z" class="g1"/>
<path d="M133.5,178.9h.7V157.3h-.7v21.6Z" class="g1"/>
<path d="M360.8,178.9h.7V157.3h-.7v21.6Z" class="g1"/>
<path d="M988.9,178.9h.7V157.3h-.7v21.6Z" class="g1"/>
<path d="M1064.6,178.9h.8V157.3h-.8v21.6Z" class="g1"/>
<path d="M1183.8,178.9h.7V157.3h-.7v21.6Z" class="g1"/>
<path d="M1238.2,178.9h.8V157.3h-.8v21.6Z" class="g1"/>
<path d="M47.1,179.7h.7v-.8h-.7v.8Z" class="g1"/>
<path d="M133.5,179.7h.7v-.8h-.7v.8Z" class="g1"/>
<path d="M360.8,179.7h.7v-.8h-.7v.8Z" class="g1"/>
<path d="M988.9,179.7h.7v-.8h-.7v.8Z" class="g1"/>
<path d="M989.6,179.7h75v-.8h-75v.8Z" class="g1"/>
<path d="M1064.6,179.7h.8v-.8h-.8v.8Z" class="g1"/>
<path d="M1065.4,179.7h118.4v-.8H1065.4v.8Z" class="g1"/>
<path d="M1183.8,179.7h.7v-.8h-.7v.8Z" class="g1"/>
<path d="M1184.5,179.7h53.7v-.8h-53.7v.8Z" class="g1"/>
<path d="M1238.2,179.7h.8v-.8h-.8v.8Z" class="g1"/>
<path d="M47.1,201.3h.7V179.7h-.7v21.6Z" class="g1"/>
<path d="M133.5,201.3h.7V179.7h-.7v21.6Z" class="g1"/>
<path d="M360.8,201.3h.7V179.7h-.7v21.6Z" class="g1"/>
<path d="M988.9,201.3h.7V179.7h-.7v21.6Z" class="g1"/>
<path d="M1064.6,201.3h.8V179.7h-.8v21.6Z" class="g1"/>
<path d="M1183.8,201.3h.7V179.7h-.7v21.6Z" class="g1"/>
<path d="M1238.2,201.3h.8V179.7h-.8v21.6Z" class="g1"/>
<path d="M47.1,202h.7v-.7h-.7v.7Z" class="g1"/>
<path d="M133.5,202h.7v-.7h-.7v.7Z" class="g1"/>
<path d="M360.8,202h.7v-.7h-.7v.7Z" class="g1"/>
<path d="M988.9,202h.7v-.7h-.7v.7Z" class="g1"/>
<path d="M989.6,202h75v-.7h-75v.7Z" class="g1"/>
<path d="M1064.6,202h.8v-.7h-.8v.7Z" class="g1"/>
<path d="M1065.4,202h118.4v-.7H1065.4v.7Z" class="g1"/>
<path d="M1183.8,202h.7v-.7h-.7v.7Z" class="g1"/>
<path d="M1184.5,202h53.7v-.7h-53.7v.7Z" class="g1"/>
<path d="M1238.2,202h.8v-.7h-.8v.7Z" class="g1"/>
<path d="M47.1,223.7h.7V202h-.7v21.7Z" class="g1"/>
<path d="M133.5,223.7h.7V202h-.7v21.7Z" class="g1"/>
<path d="M360.8,223.7h.7V202h-.7v21.7Z" class="g1"/>
<path d="M988.9,223.7h.7V202h-.7v21.7Z" class="g1"/>
<path d="M1064.6,223.7h.8V202h-.8v21.7Z" class="g1"/>
<path d="M1183.8,223.7h.7V202h-.7v21.7Z" class="g1"/>
<path d="M1238.2,223.7h.8V202h-.8v21.7Z" class="g1"/>
<path d="M47.1,224.4h.7v-.7h-.7v.7Z" class="g1"/>
<path d="M133.5,224.4h.7v-.7h-.7v.7Z" class="g1"/>
<path d="M360.8,224.4h.7v-.7h-.7v.7Z" class="g1"/>
<path d="M988.9,224.4h.7v-.7h-.7v.7Z" class="g1"/>
<path d="M989.6,224.4h75v-.7h-75v.7Z" class="g1"/>
<path d="M1064.6,224.4h.8v-.7h-.8v.7Z" class="g1"/>
<path d="M1065.4,224.4h118.4v-.7H1065.4v.7Z" class="g1"/>
<path d="M1183.8,224.4h.7v-.7h-.7v.7Z" class="g1"/>
<path d="M1184.5,224.4h53.7v-.7h-53.7v.7Z" class="g1"/>
<path d="M1238.2,224.4h.8v-.7h-.8v.7Z" class="g1"/>
<path d="M47.1,246h.7V224.4h-.7V246Z" class="g1"/>
<path d="M133.5,246h.7V224.4h-.7V246Z" class="g1"/>
<path d="M360.8,246h.7V224.4h-.7V246Z" class="g1"/>
<path d="M988.9,246h.7V224.4h-.7V246Z" class="g1"/>
<path d="M1064.6,246h.8V224.4h-.8V246Z" class="g1"/>
<path d="M1183.8,246h.7V224.4h-.7V246Z" class="g1"/>
<path d="M1238.2,246h.8V224.4h-.8V246Z" class="g1"/>
<path d="M47.1,246.8h.7V246h-.7v.8Z" class="g1"/>
<path d="M133.5,246.8h.7V246h-.7v.8Z" class="g1"/>
<path d="M360.8,246.8h.7V246h-.7v.8Z" class="g1"/>
<path d="M988.9,246.8h.7V246h-.7v.8Z" class="g1"/>
<path d="M989.6,246.8h75V246h-75v.8Z" class="g1"/>
<path d="M1064.6,246.8h.8V246h-.8v.8Z" class="g1"/>
<path d="M1065.4,246.8h118.4V246H1065.4v.8Z" class="g1"/>
<path d="M1183.8,246.8h.7V246h-.7v.8Z" class="g1"/>
<path d="M1184.5,246.8h53.7V246h-53.7v.8Z" class="g1"/>
<path d="M1238.2,246.8h.8V246h-.8v.8Z" class="g1"/>
<path d="M47.1,268.4h.7V246.8h-.7v21.6Z" class="g1"/>
<path d="M133.5,268.4h.7V246.8h-.7v21.6Z" class="g1"/>
<path d="M360.8,268.4h.7V246.8h-.7v21.6Z" class="g1"/>
<path d="M988.9,268.4h.7V246.8h-.7v21.6Z" class="g1"/>
<path d="M1064.6,268.4h.8V246.8h-.8v21.6Z" class="g1"/>
<path d="M1183.8,268.4h.7V246.8h-.7v21.6Z" class="g1"/>
<path d="M1238.2,268.4h.8V246.8h-.8v21.6Z" class="g1"/>
<path d="M47.1,269.1h.7v-.7h-.7v.7Z" class="g1"/>
<path d="M47.8,269.1h85.7v-.7H47.8v.7Z" class="g1"/>
<path d="M133.5,269.1h.7v-.7h-.7v.7Z" class="g1"/>
<path d="M134.2,269.1H360.8v-.7H134.2v.7Z" class="g1"/>
<path d="M360.8,269.1h.7v-.7h-.7v.7Z" class="g1"/>
<path d="M361.5,269.1H988.9v-.7H361.5v.7Z" class="g1"/>
<path d="M988.9,269.1h.7v-.7h-.7v.7Z" class="g1"/>
<path d="M989.6,269.1h75v-.7h-75v.7Z" class="g1"/>
<path d="M1064.6,269.1h.8v-.7h-.8v.7Z" class="g1"/>
<path d="M1065.4,269.1h118.4v-.7H1065.4v.7Z" class="g1"/>
<path d="M1183.8,269.1h.7v-.7h-.7v.7Z" class="g1"/>
<path d="M1184.5,269.1h53.7v-.7h-53.7v.7Z" class="g1"/>
<path d="M1238.2,269.1h.8v-.7h-.8v.7Z" class="g1"/>
<path d="M47.1,291h.7V269.1h-.7V291Z" class="g1"/>
<path d="M133.5,291h.7V269.1h-.7V291Z" class="g1"/>
<path d="M360.8,291h.7V269.1h-.7V291Z" class="g1"/>
<path d="M988.9,291h.7V269.1h-.7V291Z" class="g1"/>
<path d="M1064.6,291h.8V269.1h-.8V291Z" class="g1"/>
<path d="M1183.8,291h.7V269.1h-.7V291Z" class="g1"/>
<path d="M1238.2,291h.8V269.1h-.8V291Z" class="g1"/>
<path d="M47.1,291.7h.7v-.8h-.7v.8Z" class="g1"/>
<path d="M133.5,291.7h.7v-.8h-.7v.8Z" class="g1"/>
<path d="M360.8,291.7h.7v-.8h-.7v.8Z" class="g1"/>
<path d="M988.9,291.7h.7v-.8h-.7v.8Z" class="g1"/>
<path d="M989.6,291.7h75v-.8h-75v.8Z" class="g1"/>
<path d="M1064.6,291.7h.8v-.8h-.8v.8Z" class="g1"/>
<path d="M1065.4,291.7h118.4v-.8H1065.4v.8Z" class="g1"/>
<path d="M1183.8,291.7h.7v-.8h-.7v.8Z" class="g1"/>
<path d="M1184.5,291.7h53.7v-.8h-53.7v.8Z" class="g1"/>
<path d="M1238.2,291.7h.8v-.8h-.8v.8Z" class="g1"/>
<path d="M47.1,313.3h.7V291.7h-.7v21.6Z" class="g1"/>
<path d="M133.5,313.3h.7V291.7h-.7v21.6Z" class="g1"/>
<path d="M360.8,313.3h.7V291.7h-.7v21.6Z" class="g1"/>
<path d="M988.9,313.3h.7V291.7h-.7v21.6Z" class="g1"/>
<path d="M1064.6,313.3h.8V291.7h-.8v21.6Z" class="g1"/>
<path d="M1183.8,313.3h.7V291.7h-.7v21.6Z" class="g1"/>
<path d="M1238.2,313.3h.8V291.7h-.8v21.6Z" class="g1"/>
<path d="M47.1,314h.7v-.7h-.7v.7Z" class="g1"/>
<path d="M133.5,314h.7v-.7h-.7v.7Z" class="g1"/>
<path d="M360.8,314h.7v-.7h-.7v.7Z" class="g1"/>
<path d="M988.9,314h.7v-.7h-.7v.7Z" class="g1"/>
<path d="M989.6,314h75v-.7h-75v.7Z" class="g1"/>
<path d="M1064.6,314h.8v-.7h-.8v.7Z" class="g1"/>
<path d="M1065.4,314h118.4v-.7H1065.4v.7Z" class="g1"/>
<path d="M1183.8,314h.7v-.7h-.7v.7Z" class="g1"/>
<path d="M1184.5,314h53.7v-.7h-53.7v.7Z" class="g1"/>
<path d="M1238.2,314h.8v-.7h-.8v.7Z" class="g1"/>
<path d="M47.1,335.7h.7V314h-.7v21.7Z" class="g1"/>
<path d="M133.5,335.7h.7V314h-.7v21.7Z" class="g1"/>
<path d="M360.8,335.7h.7V314h-.7v21.7Z" class="g1"/>
<path d="M988.9,335.7h.7V314h-.7v21.7Z" class="g1"/>
<path d="M1064.6,335.7h.8V314h-.8v21.7Z" class="g1"/>
<path d="M1183.8,335.7h.7V314h-.7v21.7Z" class="g1"/>
<path d="M1238.2,335.7h.8V314h-.8v21.7Z" class="g1"/>
<path d="M47.1,336.4h.7v-.7h-.7v.7Z" class="g1"/>
<path d="M133.5,336.4h.7v-.7h-.7v.7Z" class="g1"/>
<path d="M360.8,336.4h.7v-.7h-.7v.7Z" class="g1"/>
<path d="M988.9,336.4h.7v-.7h-.7v.7Z" class="g1"/>
<path d="M989.6,336.4h75v-.7h-75v.7Z" class="g1"/>
<path d="M1064.6,336.4h.8v-.7h-.8v.7Z" class="g1"/>
<path d="M1065.4,336.4h118.4v-.7H1065.4v.7Z" class="g1"/>
<path d="M1183.8,336.4h.7v-.7h-.7v.7Z" class="g1"/>
<path d="M1184.5,336.4h53.7v-.7h-53.7v.7Z" class="g1"/>
<path d="M1238.2,336.4h.8v-.7h-.8v.7Z" class="g1"/>
<path d="M47.1,358.1h.7V336.4h-.7v21.7Z" class="g1"/>
<path d="M133.5,358.1h.7V336.4h-.7v21.7Z" class="g1"/>
<path d="M360.8,358.1h.7V336.4h-.7v21.7Z" class="g1"/>
<path d="M988.9,358.1h.7V336.4h-.7v21.7Z" class="g1"/>
<path d="M1064.6,358.1h.8V336.4h-.8v21.7Z" class="g1"/>
<path d="M1183.8,358.1h.7V336.4h-.7v21.7Z" class="g1"/>
<path d="M1238.2,358.1h.8V336.4h-.8v21.7Z" class="g1"/>
<path d="M47.1,358.8h.7V358h-.7v.8Z" class="g1"/>
<path d="M133.5,358.8h.7V358h-.7v.8Z" class="g1"/>
<path d="M360.8,358.8h.7V358h-.7v.8Z" class="g1"/>
<path d="M988.9,358.8h.7V358h-.7v.8Z" class="g1"/>
<path d="M989.6,358.8h75V358h-75v.8Z" class="g1"/>
<path d="M1064.6,358.8h.8V358h-.8v.8Z" class="g1"/>
<path d="M1065.4,358.8h118.4V358H1065.4v.8Z" class="g1"/>
<path d="M1183.8,358.8h.7V358h-.7v.8Z" class="g1"/>
<path d="M1184.5,358.8h53.7V358h-53.7v.8Z" class="g1"/>
<path d="M1238.2,358.8h.8V358h-.8v.8Z" class="g1"/>
<path d="M47.1,380.4h.7V358.8h-.7v21.6Z" class="g1"/>
<path d="M133.5,380.4h.7V358.8h-.7v21.6Z" class="g1"/>
<path d="M360.8,380.4h.7V358.8h-.7v21.6Z" class="g1"/>
<path d="M988.9,380.4h.7V358.8h-.7v21.6Z" class="g1"/>
<path d="M1064.6,380.4h.8V358.8h-.8v21.6Z" class="g1"/>
<path d="M1183.8,380.4h.7V358.8h-.7v21.6Z" class="g1"/>
<path d="M1238.2,380.4h.8V358.8h-.8v21.6Z" class="g1"/>
<path d="M47.1,381.2h.7v-.8h-.7v.8Z" class="g1"/>
<path d="M47.8,381.2h85.7v-.8H47.8v.8Z" class="g1"/>
<path d="M133.5,381.2h.7v-.8h-.7v.8Z" class="g1"/>
<path d="M134.2,381.2H360.8v-.8H134.2v.8Z" class="g1"/>
<path d="M360.8,381.2h.7v-.8h-.7v.8Z" class="g1"/>
<path d="M361.5,381.2H988.9v-.8H361.5v.8Z" class="g1"/>
<path d="M988.9,381.2h.7v-.8h-.7v.8Z" class="g1"/>
<path d="M989.6,381.2h75v-.8h-75v.8Z" class="g1"/>
<path d="M1064.6,381.2h.8v-.8h-.8v.8Z" class="g1"/>
<path d="M1065.4,381.2h118.4v-.8H1065.4v.8Z" class="g1"/>
<path d="M1183.8,381.2h.7v-.8h-.7v.8Z" class="g1"/>
<path d="M1184.5,381.2h53.7v-.8h-53.7v.8Z" class="g1"/>
<path d="M1238.2,381.2h.8v-.8h-.8v.8Z" class="g1"/>
<path d="M47.1,402.8h.7V381.1h-.7v21.7Z" class="g1"/>
<path d="M133.5,402.8h.7V381.1h-.7v21.7Z" class="g1"/>
<path d="M360.8,402.8h.7V381.1h-.7v21.7Z" class="g1"/>
<path d="M988.9,402.8h.7V381.1h-.7v21.7Z" class="g1"/>
<path d="M1064.6,402.8h.8V381.1h-.8v21.7Z" class="g1"/>
<path d="M1183.8,402.8h.7V381.1h-.7v21.7Z" class="g1"/>
<path d="M1238.2,402.8h.8V381.1h-.8v21.7Z" class="g1"/>
<path d="M47.1,403.5h.7v-.7h-.7v.7Z" class="g1"/>
<path d="M133.5,403.5h.7v-.7h-.7v.7Z" class="g1"/>
<path d="M360.8,403.5h.7v-.7h-.7v.7Z" class="g1"/>
<path d="M988.9,403.5h.7v-.7h-.7v.7Z" class="g1"/>
<path d="M989.6,403.5h75v-.7h-75v.7Z" class="g1"/>
<path d="M1064.6,403.5h.8v-.7h-.8v.7Z" class="g1"/>
<path d="M1065.4,403.5h118.4v-.7H1065.4v.7Z" class="g1"/>
<path d="M1183.8,403.5h.7v-.7h-.7v.7Z" class="g1"/>
<path d="M1184.5,403.5h53.7v-.7h-53.7v.7Z" class="g1"/>
<path d="M1238.2,403.5h.8v-.7h-.8v.7Z" class="g1"/>
<path d="M47.1,425.2h.7V403.5h-.7v21.7Z" class="g1"/>
<path d="M133.5,425.2h.7V403.5h-.7v21.7Z" class="g1"/>
<path d="M360.8,425.2h.7V403.5h-.7v21.7Z" class="g1"/>
<path d="M988.9,425.2h.7V403.5h-.7v21.7Z" class="g1"/>
<path d="M1064.6,425.2h.8V403.5h-.8v21.7Z" class="g1"/>
<path d="M1183.8,425.2h.7V403.5h-.7v21.7Z" class="g1"/>
<path d="M1238.2,425.2h.8V403.5h-.8v21.7Z" class="g1"/>
<path d="M47.1,425.9h.7v-.8h-.7v.8Z" class="g1"/>
<path d="M133.5,425.9h.7v-.8h-.7v.8Z" class="g1"/>
<path d="M360.8,425.9h.7v-.8h-.7v.8Z" class="g1"/>
<path d="M988.9,425.9h.7v-.8h-.7v.8Z" class="g1"/>
<path d="M989.6,425.9h75v-.8h-75v.8Z" class="g1"/>
<path d="M1064.6,425.9h.8v-.8h-.8v.8Z" class="g1"/>
<path d="M1065.4,425.9h118.4v-.8H1065.4v.8Z" class="g1"/>
<path d="M1183.8,425.9h.7v-.8h-.7v.8Z" class="g1"/>
<path d="M1184.5,425.9h53.7v-.8h-53.7v.8Z" class="g1"/>
<path d="M1238.2,425.9h.8v-.8h-.8v.8Z" class="g1"/>
<path d="M47.1,447.5h.7V425.9h-.7v21.6Z" class="g1"/>
<path d="M133.5,447.5h.7V425.9h-.7v21.6Z" class="g1"/>
<path d="M360.8,447.5h.7V425.9h-.7v21.6Z" class="g1"/>
<path d="M988.9,447.5h.7V425.9h-.7v21.6Z" class="g1"/>
<path d="M1064.6,447.5h.8V425.9h-.8v21.6Z" class="g1"/>
<path d="M1183.8,447.5h.7V425.9h-.7v21.6Z" class="g1"/>
<path d="M1238.2,447.5h.8V425.9h-.8v21.6Z" class="g1"/>
<path d="M47.1,448.2h.7v-.7h-.7v.7Z" class="g1"/>
<path d="M133.5,448.2h.7v-.7h-.7v.7Z" class="g1"/>
<path d="M360.8,448.2h.7v-.7h-.7v.7Z" class="g1"/>
<path d="M988.9,448.2h.7v-.7h-.7v.7Z" class="g1"/>
<path d="M989.6,448.2h75v-.7h-75v.7Z" class="g1"/>
<path d="M1064.6,448.2h.8v-.7h-.8v.7Z" class="g1"/>
<path d="M1065.4,448.2h118.4v-.7H1065.4v.7Z" class="g1"/>
<path d="M1183.8,448.2h.7v-.7h-.7v.7Z" class="g1"/>
<path d="M1184.5,448.2h53.7v-.7h-53.7v.7Z" class="g1"/>
<path d="M1238.2,448.2h.8v-.7h-.8v.7Z" class="g1"/>
<path d="M47.1,469.9h.7V448.2h-.7v21.7Z" class="g1"/>
<path d="M133.5,469.9h.7V448.2h-.7v21.7Z" class="g1"/>
<path d="M360.8,469.9h.7V448.2h-.7v21.7Z" class="g1"/>
<path d="M988.9,469.9h.7V448.2h-.7v21.7Z" class="g1"/>
<path d="M1064.6,469.9h.8V448.2h-.8v21.7Z" class="g1"/>
<path d="M1183.8,469.9h.7V448.2h-.7v21.7Z" class="g1"/>
<path d="M1238.2,469.9h.8V448.2h-.8v21.7Z" class="g1"/>
<path d="M47.1,470.6h.7v-.7h-.7v.7Z" class="g1"/>
<path d="M133.5,470.6h.7v-.7h-.7v.7Z" class="g1"/>
<path d="M360.8,470.6h.7v-.7h-.7v.7Z" class="g1"/>
<path d="M988.9,470.6h.7v-.7h-.7v.7Z" class="g1"/>
<path d="M989.6,470.6h75v-.7h-75v.7Z" class="g1"/>
<path d="M1064.6,470.6h.8v-.7h-.8v.7Z" class="g1"/>
<path d="M1065.4,470.6h118.4v-.7H1065.4v.7Z" class="g1"/>
<path d="M1183.8,470.6h.7v-.7h-.7v.7Z" class="g1"/>
<path d="M1184.5,470.6h53.7v-.7h-53.7v.7Z" class="g1"/>
<path d="M1238.2,470.6h.8v-.7h-.8v.7Z" class="g1"/>
<path d="M47.1,492.3h.7V470.6h-.7v21.7Z" class="g1"/>
<path d="M133.5,492.3h.7V470.6h-.7v21.7Z" class="g1"/>
<path d="M360.8,492.3h.7V470.6h-.7v21.7Z" class="g1"/>
<path d="M988.9,492.3h.7V470.6h-.7v21.7Z" class="g1"/>
<path d="M1064.6,492.3h.8V470.6h-.8v21.7Z" class="g1"/>
<path d="M1183.8,492.3h.7V470.6h-.7v21.7Z" class="g1"/>
<path d="M1238.2,492.3h.8V470.6h-.8v21.7Z" class="g1"/>
<path d="M47.1,493h.7v-.8h-.7v.8Z" class="g1"/>
<path d="M47.8,493h85.7v-.8H47.8v.8Z" class="g1"/>
<path d="M133.5,493h.7v-.8h-.7v.8Z" class="g1"/>
<path d="M134.2,493H360.8v-.8H134.2v.8Z" class="g1"/>
<path d="M360.8,493h.7v-.8h-.7v.8Z" class="g1"/>
<path d="M361.5,493H988.9v-.8H361.5v.8Z" class="g1"/>
<path d="M988.9,493h.7v-.8h-.7v.8Z" class="g1"/>
<path d="M989.6,493h75v-.8h-75v.8Z" class="g1"/>
<path d="M1064.6,493h.8v-.8h-.8v.8Z" class="g1"/>
<path d="M1065.4,493h118.4v-.8H1065.4v.8Z" class="g1"/>
<path d="M1183.8,493h.7v-.8h-.7v.8Z" class="g1"/>
<path d="M1184.5,493h53.7v-.8h-53.7v.8Z" class="g1"/>
<path d="M1238.2,493h.8v-.8h-.8v.8Z" class="g1"/>
<path d="M47.1,514.6h.7V493h-.7v21.6Z" class="g1"/>
<path d="M133.5,514.6h.7V493h-.7v21.6Z" class="g1"/>
<path d="M360.8,514.6h.7V493h-.7v21.6Z" class="g1"/>
<path d="M988.9,514.6h.7V493h-.7v21.6Z" class="g1"/>
<path d="M1064.6,514.6h.8V493h-.8v21.6Z" class="g1"/>
<path d="M1183.8,514.6h.7V493h-.7v21.6Z" class="g1"/>
<path d="M1238.2,514.6h.8V493h-.8v21.6Z" class="g1"/>
<path d="M47.1,515.4h.7v-.8h-.7v.8Z" class="g1"/>
<path d="M133.5,515.4h.7v-.8h-.7v.8Z" class="g1"/>
<path d="M360.8,515.4h.7v-.8h-.7v.8Z" class="g1"/>
<path d="M988.9,515.4h.7v-.8h-.7v.8Z" class="g1"/>
<path d="M989.6,515.4h75v-.8h-75v.8Z" class="g1"/>
<path d="M1064.6,515.4h.8v-.8h-.8v.8Z" class="g1"/>
<path d="M1065.4,515.4h118.4v-.8H1065.4v.8Z" class="g1"/>
<path d="M1183.8,515.4h.7v-.8h-.7v.8Z" class="g1"/>
<path d="M1184.5,515.4h53.7v-.8h-53.7v.8Z" class="g1"/>
<path d="M1238.2,515.4h.8v-.8h-.8v.8Z" class="g1"/>
<path d="M47.1,537h.7V515.3h-.7V537Z" class="g1"/>
<path d="M133.5,537h.7V515.3h-.7V537Z" class="g1"/>
<path d="M360.8,537h.7V515.3h-.7V537Z" class="g1"/>
<path d="M988.9,537h.7V515.3h-.7V537Z" class="g1"/>
<path d="M1064.6,537h.8V515.3h-.8V537Z" class="g1"/>
<path d="M1183.8,537h.7V515.3h-.7V537Z" class="g1"/>
<path d="M1238.2,537h.8V515.3h-.8V537Z" class="g1"/>
<path d="M47.1,537.7h.7V537h-.7v.7Z" class="g1"/>
<path d="M133.5,537.7h.7V537h-.7v.7Z" class="g1"/>
<path d="M360.8,537.7h.7V537h-.7v.7Z" class="g1"/>
<path d="M988.9,537.7h.7V537h-.7v.7Z" class="g1"/>
<path d="M989.6,537.7h75V537h-75v.7Z" class="g1"/>
<path d="M1064.6,537.7h.8V537h-.8v.7Z" class="g1"/>
<path d="M1065.4,537.7h118.4V537H1065.4v.7Z" class="g1"/>
<path d="M1183.8,537.7h.7V537h-.7v.7Z" class="g1"/>
<path d="M1184.5,537.7h53.7V537h-53.7v.7Z" class="g1"/>
<path d="M1238.2,537.7h.8V537h-.8v.7Z" class="g1"/>
<path d="M47.1,559.5h.7V537.7h-.7v21.8Z" class="g1"/>
<path d="M133.5,559.5h.7V537.7h-.7v21.8Z" class="g1"/>
<path d="M360.8,559.5h.7V537.7h-.7v21.8Z" class="g1"/>
<path d="M988.9,559.5h.7V537.7h-.7v21.8Z" class="g1"/>
<path d="M1064.6,559.5h.8V537.7h-.8v21.8Z" class="g1"/>
<path d="M1183.8,559.5h.7V537.7h-.7v21.8Z" class="g1"/>
<path d="M1238.2,559.5h.8V537.7h-.8v21.8Z" class="g1"/>
<path d="M47.1,560.3h.7v-.8h-.7v.8Z" class="g1"/>
<path d="M133.5,560.3h.7v-.8h-.7v.8Z" class="g1"/>
<path d="M360.8,560.3h.7v-.8h-.7v.8Z" class="g1"/>
<path d="M988.9,560.3h.7v-.8h-.7v.8Z" class="g1"/>
<path d="M989.6,560.3h75v-.8h-75v.8Z" class="g1"/>
<path d="M1064.6,560.3h.8v-.8h-.8v.8Z" class="g1"/>
<path d="M1065.4,560.3h118.4v-.8H1065.4v.8Z" class="g1"/>
<path d="M1183.8,560.3h.7v-.8h-.7v.8Z" class="g1"/>
<path d="M1184.5,560.3h53.7v-.8h-53.7v.8Z" class="g1"/>
<path d="M1238.2,560.3h.8v-.8h-.8v.8Z" class="g1"/>
<path d="M47.1,581.9h.7V560.3h-.7v21.6Z" class="g1"/>
<path d="M133.5,581.9h.7V560.3h-.7v21.6Z" class="g1"/>
<path d="M360.8,581.9h.7V560.3h-.7v21.6Z" class="g1"/>
<path d="M988.9,581.9h.7V560.3h-.7v21.6Z" class="g1"/>
<path d="M1064.6,581.9h.8V560.3h-.8v21.6Z" class="g1"/>
<path d="M1183.8,581.9h.7V560.3h-.7v21.6Z" class="g1"/>
<path d="M1238.2,581.9h.8V560.3h-.8v21.6Z" class="g1"/>
<path d="M47.1,582.6h.7v-.7h-.7v.7Z" class="g1"/>
<path d="M133.5,582.6h.7v-.7h-.7v.7Z" class="g1"/>
<path d="M360.8,582.6h.7v-.7h-.7v.7Z" class="g1"/>
<path d="M988.9,582.6h.7v-.7h-.7v.7Z" class="g1"/>
<path d="M989.6,582.6h75v-.7h-75v.7Z" class="g1"/>
<path d="M1064.6,582.6h.8v-.7h-.8v.7Z" class="g1"/>
<path d="M1065.4,582.6h118.4v-.7H1065.4v.7Z" class="g1"/>
<path d="M1183.8,582.6h.7v-.7h-.7v.7Z" class="g1"/>
<path d="M1184.5,582.6h53.7v-.7h-53.7v.7Z" class="g1"/>
<path d="M1238.2,582.6h.8v-.7h-.8v.7Z" class="g1"/>
<path d="M47.1,604.3h.7V582.6h-.7v21.7Z" class="g1"/>
<path d="M133.5,604.3h.7V582.6h-.7v21.7Z" class="g1"/>
<path d="M360.8,604.3h.7V582.6h-.7v21.7Z" class="g1"/>
<path d="M988.9,604.3h.7V582.6h-.7v21.7Z" class="g1"/>
<path d="M1064.6,604.3h.8V582.6h-.8v21.7Z" class="g1"/>
<path d="M1183.8,604.3h.7V582.6h-.7v21.7Z" class="g1"/>
<path d="M1238.2,604.3h.8V582.6h-.8v21.7Z" class="g1"/>
<path d="M47.1,605h.7v-.7h-.7v.7Z" class="g1"/>
<path d="M47.8,605h85.7v-.7H47.8v.7Z" class="g1"/>
<path d="M133.5,605h.7v-.7h-.7v.7Z" class="g1"/>
<path d="M134.2,605H360.8v-.7H134.2v.7Z" class="g1"/>
<path d="M360.8,605h.7v-.7h-.7v.7Z" class="g1"/>
<path d="M361.5,605H988.9v-.7H361.5v.7Z" class="g1"/>
<path d="M988.9,605h.7v-.7h-.7v.7Z" class="g1"/>
<path d="M989.6,605h75v-.7h-75v.7Z" class="g1"/>
<path d="M1064.6,605h.8v-.7h-.8v.7Z" class="g1"/>
<path d="M1065.4,605h118.4v-.7H1065.4v.7Z" class="g1"/>
<path d="M1183.8,605h.7v-.7h-.7v.7Z" class="g1"/>
<path d="M1184.5,605h53.7v-.7h-53.7v.7Z" class="g1"/>
<path d="M1238.2,605h.8v-.7h-.8v.7Z" class="g1"/>
<path d="M47.1,626.6h.7V605h-.7v21.6Z" class="g1"/>
<path d="M133.5,626.6h.7V605h-.7v21.6Z" class="g1"/>
<path d="M360.8,626.6h.7V605h-.7v21.6Z" class="g1"/>
<path d="M988.9,626.6h.7V605h-.7v21.6Z" class="g1"/>
<path d="M1064.6,626.6h.8V605h-.8v21.6Z" class="g1"/>
<path d="M1183.8,626.6h.7V605h-.7v21.6Z" class="g1"/>
<path d="M1238.2,626.6h.8V605h-.8v21.6Z" class="g1"/>
<path d="M47.1,627.4h.7v-.8h-.7v.8Z" class="g1"/>
<path d="M133.5,627.4h.7v-.8h-.7v.8Z" class="g1"/>
<path d="M360.8,627.4h.7v-.8h-.7v.8Z" class="g1"/>
<path d="M988.9,627.4h.7v-.8h-.7v.8Z" class="g1"/>
<path d="M989.6,627.4h75v-.8h-75v.8Z" class="g1"/>
<path d="M1064.6,627.4h.8v-.8h-.8v.8Z" class="g1"/>
<path d="M1065.4,627.4h118.4v-.8H1065.4v.8Z" class="g1"/>
<path d="M1183.8,627.4h.7v-.8h-.7v.8Z" class="g1"/>
<path d="M1184.5,627.4h53.7v-.8h-53.7v.8Z" class="g1"/>
<path d="M1238.2,627.4h.8v-.8h-.8v.8Z" class="g1"/>
<path d="M47.1,649h.7V627.4h-.7V649Z" class="g1"/>
<path d="M133.5,649h.7V627.4h-.7V649Z" class="g1"/>
<path d="M360.8,649h.7V627.4h-.7V649Z" class="g1"/>
<path d="M988.9,649h.7V627.4h-.7V649Z" class="g1"/>
<path d="M1064.6,649h.8V627.4h-.8V649Z" class="g1"/>
<path d="M1183.8,649h.7V627.4h-.7V649Z" class="g1"/>
<path d="M1238.2,649h.8V627.4h-.8V649Z" class="g1"/>
<path d="M47.1,649.7h.7V649h-.7v.7Z" class="g1"/>
<path d="M133.5,649.7h.7V649h-.7v.7Z" class="g1"/>
<path d="M360.8,649.7h.7V649h-.7v.7Z" class="g1"/>
<path d="M988.9,649.7h.7V649h-.7v.7Z" class="g1"/>
<path d="M989.6,649.7h75V649h-75v.7Z" class="g1"/>
<path d="M1064.6,649.7h.8V649h-.8v.7Z" class="g1"/>
<path d="M1065.4,649.7h118.4V649H1065.4v.7Z" class="g1"/>
<path d="M1183.8,649.7h.7V649h-.7v.7Z" class="g1"/>
<path d="M1184.5,649.7h53.7V649h-53.7v.7Z" class="g1"/>
<path d="M1238.2,649.7h.8V649h-.8v.7Z" class="g1"/>
<path d="M47.1,671.4h.7V649.7h-.7v21.7Z" class="g1"/>
<path d="M133.5,671.4h.7V649.7h-.7v21.7Z" class="g1"/>
<path d="M360.8,671.4h.7V649.7h-.7v21.7Z" class="g1"/>
<path d="M988.9,671.4h.7V649.7h-.7v21.7Z" class="g1"/>
<path d="M1064.6,671.4h.8V649.7h-.8v21.7Z" class="g1"/>
<path d="M1183.8,671.4h.7V649.7h-.7v21.7Z" class="g1"/>
<path d="M1238.2,671.4h.8V649.7h-.8v21.7Z" class="g1"/>
<path d="M47.1,672.1h.7v-.7h-.7v.7Z" class="g1"/>
<path d="M133.5,672.1h.7v-.7h-.7v.7Z" class="g1"/>
<path d="M360.8,672.1h.7v-.7h-.7v.7Z" class="g1"/>
<path d="M988.9,672.1h.7v-.7h-.7v.7Z" class="g1"/>
<path d="M989.6,672.1h75v-.7h-75v.7Z" class="g1"/>
<path d="M1064.6,672.1h.8v-.7h-.8v.7Z" class="g1"/>
<path d="M1065.4,672.1h118.4v-.7H1065.4v.7Z" class="g1"/>
<path d="M1183.8,672.1h.7v-.7h-.7v.7Z" class="g1"/>
<path d="M1184.5,672.1h53.7v-.7h-53.7v.7Z" class="g1"/>
<path d="M1238.2,672.1h.8v-.7h-.8v.7Z" class="g1"/>
<path d="M47.1,693.7h.7V672.1h-.7v21.6Z" class="g1"/>
<path d="M133.5,693.7h.7V672.1h-.7v21.6Z" class="g1"/>
<path d="M360.8,693.7h.7V672.1h-.7v21.6Z" class="g1"/>
<path d="M988.9,693.7h.7V672.1h-.7v21.6Z" class="g1"/>
<path d="M1064.6,693.7h.8V672.1h-.8v21.6Z" class="g1"/>
<path d="M1183.8,693.7h.7V672.1h-.7v21.6Z" class="g1"/>
<path d="M1238.2,693.7h.8V672.1h-.8v21.6Z" class="g1"/>
<path d="M47.1,694.5h.7v-.8h-.7v.8Z" class="g1"/>
<path d="M133.5,694.5h.7v-.8h-.7v.8Z" class="g1"/>
<path d="M360.8,694.5h.7v-.8h-.7v.8Z" class="g1"/>
<path d="M988.9,694.5h.7v-.8h-.7v.8Z" class="g1"/>
<path d="M989.6,694.5h75v-.8h-75v.8Z" class="g1"/>
<path d="M1064.6,694.5h.8v-.8h-.8v.8Z" class="g1"/>
<path d="M1065.4,694.5h118.4v-.8H1065.4v.8Z" class="g1"/>
<path d="M1183.8,694.5h.7v-.8h-.7v.8Z" class="g1"/>
<path d="M1184.5,694.5h53.7v-.8h-53.7v.8Z" class="g1"/>
<path d="M1238.2,694.5h.8v-.8h-.8v.8Z" class="g1"/>
<path d="M47.1,716.1h.7V694.5h-.7v21.6Z" class="g1"/>
<path d="M47.1,716.8h.7v-.7h-.7v.7Z" class="g1"/>
<path d="M47.1,716.8h.7v-.7h-.7v.7Z" class="g1"/>
<path d="M47.8,716.8h85.7v-.7H47.8v.7Z" class="g1"/>
<path d="M133.5,716.1h.7V694.5h-.7v21.6Z" class="g1"/>
<path d="M133.5,716.8h.7v-.7h-.7v.7Z" class="g1"/>
<path d="M134.2,716.8H360.8v-.7H134.2v.7Z" class="g1"/>
<path d="M360.8,716.1h.7V694.5h-.7v21.6Z" class="g1"/>
<path d="M360.8,716.8h.7v-.7h-.7v.7Z" class="g1"/>
<path d="M361.5,716.8H988.9v-.7H361.5v.7Z" class="g1"/>
<path d="M988.9,716.1h.7V694.5h-.7v21.6Z" class="g1"/>
<path d="M988.9,716.8h.7v-.7h-.7v.7Z" class="g1"/>
<path d="M989.6,716.8h75v-.7h-75v.7Z" class="g1"/>
<path d="M1064.6,716.1h.8V694.5h-.8v21.6Z" class="g1"/>
<path d="M1064.6,716.8h.8v-.7h-.8v.7Z" class="g1"/>
<path d="M1065.4,716.8h118.4v-.7H1065.4v.7Z" class="g1"/>
<path d="M1183.8,716.1h.7V694.5h-.7v21.6Z" class="g1"/>
<path d="M1183.8,716.8h.7v-.7h-.7v.7Z" class="g1"/>
<path d="M1184.5,716.8h53.7v-.7h-53.7v.7Z" class="g1"/>
<path d="M1238.2,716.1h.8V694.5h-.8v21.6Z" class="g1"/>
<path d="M1238.2,716.8h.8v-.7h-.8v.7Z" class="g1"/>
<path d="M1238.2,716.8h.8v-.7h-.8v.7Z" class="g1"/>
</svg>